<?xml version="1.0" encoding="utf-8" standalone="no"?>
<!DOCTYPE svg PUBLIC "-//W3C//DTD SVG 1.1//EN"
  "http://www.w3.org/Graphics/SVG/1.1/DTD/svg11.dtd">
<svg xmlns:xlink="http://www.w3.org/1999/xlink" width="720pt" height="432pt" viewBox="0 0 720 432" xmlns="http://www.w3.org/2000/svg" version="1.1">
 <metadata>
  <rdf:RDF xmlns:dc="http://purl.org/dc/elements/1.1/" xmlns:cc="http://creativecommons.org/ns#" xmlns:rdf="http://www.w3.org/1999/02/22-rdf-syntax-ns#">
   <cc:Work>
    <dc:type rdf:resource="http://purl.org/dc/dcmitype/StillImage"/>
    <dc:date>2025-05-06T17:19:08.749125</dc:date>
    <dc:format>image/svg+xml</dc:format>
    <dc:creator>
     <cc:Agent>
      <dc:title>Matplotlib v3.10.0, https://matplotlib.org/</dc:title>
     </cc:Agent>
    </dc:creator>
   </cc:Work>
  </rdf:RDF>
 </metadata>
 <defs>
  <style type="text/css">*{stroke-linejoin: round; stroke-linecap: butt}</style>
 </defs>
 <g id="figure_1">
  <g id="patch_1">
   <path d="M 0 432 
L 720 432 
L 720 0 
L 0 0 
z
" style="fill: #ffffff"/>
  </g>
  <g id="axes_1">
   <g id="patch_2">
    <path d="M 90 384.48 
L 648 384.48 
L 648 51.84 
L 90 51.84 
z
" style="fill: #ffffff"/>
   </g>
   <g id="FillBetweenPolyCollection_1">
    <defs>
     <path id="m99781fa2d5" d="M 115.363636 -74.341833 
L 115.363636 -70.646517 
L 117.400876 -62.64 
L 119.438116 -62.64 
L 121.475356 -63.255886 
L 123.512596 -78.807006 
L 125.549836 -98.207413 
L 127.587076 -141.473401 
L 129.624315 -159.642037 
L 131.661555 -157.178493 
L 133.698795 -134.852627 
L 135.736035 -162.10558 
L 137.773275 -164.261181 
L 139.810515 -152.251405 
L 141.847755 -158.872179 
L 143.884995 -157.486436 
L 145.922234 -151.789491 
L 147.959474 -171.497841 
L 149.996714 -162.875438 
L 152.033954 -163.491324 
L 154.071194 -144.552831 
L 156.108434 -162.259552 
L 158.145674 -157.486436 
L 160.182913 -164.569124 
L 162.220153 -163.645295 
L 164.257393 -166.878697 
L 166.294633 -150.865662 
L 168.331873 -159.026151 
L 170.369113 -174.731242 
L 172.406353 -170.112098 
L 174.443593 -152.559348 
L 176.480832 -157.024521 
L 178.518072 -158.256293 
L 180.555312 -162.875438 
L 182.592552 -169.034297 
L 184.629792 -174.885214 
L 186.667032 -180.582159 
L 188.704272 -182.275845 
L 190.741512 -169.958126 
L 192.778751 -169.188269 
L 194.815991 -170.574012 
L 196.853231 -179.812301 
L 198.890471 -171.34387 
L 200.927711 -156.408635 
L 202.964951 -159.642037 
L 205.002191 -178.272587 
L 207.03943 -168.110468 
L 209.07667 -175.039185 
L 211.11391 -171.959756 
L 213.15115 -175.809043 
L 215.18839 -177.348758 
L 217.22563 -172.575642 
L 219.26287 -167.802525 
L 221.30011 -173.037556 
L 223.337349 -165.031039 
L 225.374589 -173.037556 
L 227.411829 -170.727984 
L 229.449069 -162.413523 
L 231.486309 -164.569124 
L 233.523549 -171.34387 
L 235.560789 -187.202933 
L 237.598028 -185.355275 
L 239.635268 -185.971161 
L 241.672508 -195.671365 
L 243.709748 -193.669735 
L 245.746988 -190.436334 
L 247.784228 -207.373198 
L 249.821468 -184.277475 
L 251.858708 -185.817189 
L 253.895947 -176.116986 
L 255.933187 -167.648554 
L 257.970427 -173.49947 
L 260.007667 -185.201303 
L 262.044907 -187.510876 
L 264.082147 -180.428187 
L 266.119387 -188.896619 
L 268.156627 -167.956497 
L 270.193866 -163.337352 
L 272.231106 -167.648554 
L 274.268346 -182.121874 
L 276.305586 -216.765458 
L 278.342826 -207.835112 
L 280.380066 -208.143055 
L 282.417306 -187.818819 
L 284.454545 -204.139796 
L 286.491785 -190.744277 
L 288.529025 -195.055479 
L 290.566265 -225.387862 
L 292.603505 -241.862811 
L 294.640745 -209.374827 
L 296.677985 -206.141426 
L 298.715225 -221.692546 
L 300.752464 -216.765458 
L 302.789704 -203.215967 
L 304.826944 -186.587047 
L 306.864184 -195.20945 
L 308.901424 -246.481955 
L 310.938664 -226.157719 
L 312.975904 -217.843259 
L 315.013143 -234.626151 
L 317.050383 -231.700692 
L 319.087623 -254.950387 
L 321.124863 -245.250183 
L 323.162103 -182.275845 
L 325.199343 -175.5011 
L 327.236583 -195.055479 
L 329.273823 -248.175642 
L 331.311062 -226.465662 
L 333.348302 -246.481955 
L 335.385542 -365.04 
L 337.422782 -223.232261 
L 339.460022 -365.04 
L 341.497262 -365.04 
L 343.534502 -365.04 
L 345.571742 -214.301914 
L 347.608981 -203.831853 
L 349.646221 -184.89336 
L 351.683461 -183.507617 
L 353.720701 -197.057108 
L 355.757941 -195.20945 
L 357.795181 -229.083177 
L 359.832421 -195.055479 
L 361.86966 -229.237149 
L 363.9069 -208.912912 
L 365.94414 -189.358534 
L 367.98138 -195.979308 
L 370.01862 -200.598452 
L 372.05586 -199.520652 
L 374.0931 -197.057108 
L 376.13034 -220.152831 
L 378.167579 -223.386232 
L 380.204819 -206.295397 
L 382.242059 -196.287251 
L 384.279299 -229.699063 
L 386.316539 -204.909654 
L 388.353779 -289.901914 
L 390.391019 -241.400896 
L 392.428258 -252.794786 
L 394.465498 -200.752424 
L 396.502738 -194.439593 
L 398.539978 -201.060367 
L 400.577218 -365.04 
L 402.614458 -230.160978 
L 404.651698 -352.106395 
L 406.688938 -365.04 
L 408.726177 -233.394379 
L 410.763417 -365.04 
L 412.800657 -365.04 
L 414.837897 -297.446517 
L 416.875137 -266.960163 
L 418.912377 -195.979308 
L 420.949617 -192.745906 
L 422.986857 -260.955275 
L 425.024096 -218.613116 
L 427.061336 -365.04 
L 429.098576 -365.04 
L 431.135816 -365.04 
L 433.173056 -365.04 
L 435.210296 -365.04 
L 437.247536 -365.04 
L 439.284775 -209.68277 
L 441.322015 -359.958941 
L 443.359255 -365.04 
L 445.396495 -218.613116 
L 447.433735 -190.282363 
L 449.470975 -190.744277 
L 451.508215 -204.601711 
L 453.545455 -190.436334 
L 455.582694 -199.36668 
L 457.619934 -248.329613 
L 459.657174 -243.402525 
L 461.694414 -203.215967 
L 463.731654 -243.710468 
L 465.768894 -217.381344 
L 467.806134 -275.120652 
L 469.843373 -284.358941 
L 471.880613 -335.01556 
L 473.917853 -210.298656 
L 475.955093 -365.04 
L 477.992333 -256.644073 
L 480.029573 -365.04 
L 482.066813 -365.04 
L 484.104053 -188.126762 
L 486.141292 -213.993971 
L 488.178532 -365.04 
L 490.215772 -365.04 
L 492.253012 -274.812709 
L 494.290252 -206.295397 
L 496.327492 -235.703951 
L 498.364732 -174.885214 
L 500.401972 -200.752424 
L 502.439211 -230.776864 
L 504.476451 -365.04 
L 506.513691 -365.04 
L 508.550931 -365.04 
L 510.588171 -365.04 
L 512.625411 -365.04 
L 514.662651 -184.431446 
L 516.69989 -365.04 
L 518.73713 -365.04 
L 520.77437 -365.04 
L 522.81161 -234.626151 
L 524.84885 -259.877475 
L 526.88609 -242.478697 
L 528.92333 -267.114134 
L 530.96057 -215.533686 
L 532.997809 -225.695804 
L 535.035049 -318.540611 
L 537.072289 -365.04 
L 539.109529 -236.62778 
L 541.146769 -278.815967 
L 543.184009 -191.976049 
L 545.221249 -322.697841 
L 547.258488 -365.04 
L 549.295728 -101.748758 
L 551.332968 -166.108839 
L 553.370208 -179.042444 
L 555.407448 -365.04 
L 557.444688 -169.650183 
L 559.481928 -211.222485 
L 561.519168 -210.914542 
L 563.556407 -177.194786 
L 565.593647 -190.898248 
L 567.630887 -231.546721 
L 569.668127 -365.04 
L 571.705367 -208.450998 
L 573.742607 -248.483585 
L 575.779847 -183.661589 
L 577.817087 -172.267699 
L 579.854326 -190.898248 
L 581.891566 -177.502729 
L 583.928806 -178.58053 
L 585.966046 -202.600081 
L 588.003286 -250.177271 
L 590.040526 -248.02167 
L 592.077766 -365.04 
L 594.115005 -365.04 
L 596.152245 -365.04 
L 598.189485 -268.961792 
L 600.226725 -365.04 
L 602.263965 -161.951609 
L 604.301205 -161.797637 
L 606.338445 -201.830224 
L 608.375685 -211.684399 
L 610.412924 -365.04 
L 612.450164 -365.04 
L 614.487404 -215.379715 
L 616.524644 -365.04 
L 618.561884 -204.139796 
L 620.599124 -365.04 
L 622.636364 -253.256701 
L 622.636364 -365.04 
L 622.636364 -365.04 
L 620.599124 -365.04 
L 618.561884 -365.04 
L 616.524644 -365.04 
L 614.487404 -365.04 
L 612.450164 -365.04 
L 610.412924 -365.04 
L 608.375685 -365.04 
L 606.338445 -365.04 
L 604.301205 -365.04 
L 602.263965 -365.04 
L 600.226725 -365.04 
L 598.189485 -365.04 
L 596.152245 -365.04 
L 594.115005 -365.04 
L 592.077766 -365.04 
L 590.040526 -365.04 
L 588.003286 -365.04 
L 585.966046 -365.04 
L 583.928806 -241.092953 
L 581.891566 -295.906802 
L 579.854326 -365.04 
L 577.817087 -203.831853 
L 575.779847 -279.277882 
L 573.742607 -365.04 
L 571.705367 -365.04 
L 569.668127 -365.04 
L 567.630887 -365.04 
L 565.593647 -226.31169 
L 563.556407 -355.031853 
L 561.519168 -365.04 
L 559.481928 -365.04 
L 557.444688 -365.04 
L 555.407448 -365.04 
L 553.370208 -365.04 
L 551.332968 -283.435112 
L 549.295728 -365.04 
L 547.258488 -365.04 
L 545.221249 -365.04 
L 543.184009 -365.04 
L 541.146769 -365.04 
L 539.109529 -365.04 
L 537.072289 -365.04 
L 535.035049 -365.04 
L 532.997809 -365.04 
L 530.96057 -365.04 
L 528.92333 -365.04 
L 526.88609 -365.04 
L 524.84885 -365.04 
L 522.81161 -365.04 
L 520.77437 -365.04 
L 518.73713 -365.04 
L 516.69989 -365.04 
L 514.662651 -365.04 
L 512.625411 -365.04 
L 510.588171 -365.04 
L 508.550931 -365.04 
L 506.513691 -365.04 
L 504.476451 -365.04 
L 502.439211 -365.04 
L 500.401972 -365.04 
L 498.364732 -365.04 
L 496.327492 -365.04 
L 494.290252 -365.04 
L 492.253012 -365.04 
L 490.215772 -365.04 
L 488.178532 -365.04 
L 486.141292 -365.04 
L 484.104053 -365.04 
L 482.066813 -365.04 
L 480.029573 -365.04 
L 477.992333 -365.04 
L 475.955093 -365.04 
L 473.917853 -365.04 
L 471.880613 -365.04 
L 469.843373 -365.04 
L 467.806134 -365.04 
L 465.768894 -365.04 
L 463.731654 -365.04 
L 461.694414 -365.04 
L 459.657174 -365.04 
L 457.619934 -365.04 
L 455.582694 -280.663625 
L 453.545455 -365.04 
L 451.508215 -365.04 
L 449.470975 -349.334908 
L 447.433735 -318.694582 
L 445.396495 -365.04 
L 443.359255 -365.04 
L 441.322015 -365.04 
L 439.284775 -365.04 
L 437.247536 -365.04 
L 435.210296 -365.04 
L 433.173056 -365.04 
L 431.135816 -365.04 
L 429.098576 -365.04 
L 427.061336 -365.04 
L 425.024096 -365.04 
L 422.986857 -365.04 
L 420.949617 -365.04 
L 418.912377 -365.04 
L 416.875137 -365.04 
L 414.837897 -365.04 
L 412.800657 -365.04 
L 410.763417 -365.04 
L 408.726177 -365.04 
L 406.688938 -365.04 
L 404.651698 -365.04 
L 402.614458 -365.04 
L 400.577218 -365.04 
L 398.539978 -365.04 
L 396.502738 -365.04 
L 394.465498 -365.04 
L 392.428258 -365.04 
L 390.391019 -365.04 
L 388.353779 -341.636334 
L 386.316539 -363.500285 
L 384.279299 -305.914949 
L 382.242059 -338.402933 
L 380.204819 -365.04 
L 378.167579 -365.04 
L 376.13034 -365.04 
L 374.0931 -365.04 
L 372.05586 -365.04 
L 370.01862 -252.332872 
L 367.98138 -365.04 
L 365.94414 -254.950387 
L 363.9069 -365.04 
L 361.86966 -365.04 
L 359.832421 -365.04 
L 357.795181 -297.908432 
L 355.757941 -365.04 
L 353.720701 -365.04 
L 351.683461 -365.04 
L 349.646221 -326.239185 
L 347.608981 -365.04 
L 345.571742 -365.04 
L 343.534502 -365.04 
L 341.497262 -365.04 
L 339.460022 -365.04 
L 337.422782 -365.04 
L 335.385542 -365.04 
L 333.348302 -365.04 
L 331.311062 -365.04 
L 329.273823 -365.04 
L 327.236583 -365.04 
L 325.199343 -365.04 
L 323.162103 -365.04 
L 321.124863 -365.04 
L 319.087623 -365.04 
L 317.050383 -365.04 
L 315.013143 -365.04 
L 312.975904 -365.04 
L 310.938664 -365.04 
L 308.901424 -306.992749 
L 306.864184 -365.04 
L 304.826944 -365.04 
L 302.789704 -365.04 
L 300.752464 -365.04 
L 298.715225 -365.04 
L 296.677985 -365.04 
L 294.640745 -311.611894 
L 292.603505 -365.04 
L 290.566265 -365.04 
L 288.529025 -306.376864 
L 286.491785 -365.04 
L 284.454545 -338.402933 
L 282.417306 -344.869735 
L 280.380066 -326.7011 
L 278.342826 -273.580937 
L 276.305586 -268.961792 
L 274.268346 -263.110876 
L 272.231106 -262.956904 
L 270.193866 -261.879104 
L 268.156627 -249.561385 
L 266.119387 -236.165866 
L 264.082147 -365.04 
L 262.044907 -365.04 
L 260.007667 -365.04 
L 257.970427 -334.091731 
L 255.933187 -268.191935 
L 253.895947 -235.54998 
L 251.858708 -321.620041 
L 249.821468 -247.405784 
L 247.784228 -285.28277 
L 245.746988 -279.893768 
L 243.709748 -286.668513 
L 241.672508 -304.837149 
L 239.635268 -261.263218 
L 237.598028 -255.720244 
L 235.560789 -223.848147 
L 233.523549 -234.626151 
L 231.486309 -231.238778 
L 229.449069 -186.433075 
L 227.411829 -247.251813 
L 225.374589 -234.318208 
L 223.337349 -317.616782 
L 221.30011 -231.546721 
L 219.26287 -216.611487 
L 217.22563 -226.157719 
L 215.18839 -253.102729 
L 213.15115 -224.15609 
L 211.11391 -228.467291 
L 209.07667 -238.013523 
L 207.03943 -203.985825 
L 205.002191 -226.157719 
L 202.964951 -207.373198 
L 200.927711 -199.212709 
L 198.890471 -216.457515 
L 196.853231 -252.794786 
L 194.815991 -222.924318 
L 192.778751 -247.097841 
L 190.741512 -292.981344 
L 188.704272 -261.263218 
L 186.667032 -221.538574 
L 184.629792 -265.882363 
L 182.592552 -221.384603 
L 180.555312 -284.358941 
L 178.518072 -214.609857 
L 176.480832 -231.238778 
L 174.443593 -222.770346 
L 172.406353 -256.33613 
L 170.369113 -243.556497 
L 168.331873 -206.60334 
L 166.294633 -199.058737 
L 164.257393 -233.086436 
L 162.220153 -204.447739 
L 160.182913 -217.689287 
L 158.145674 -195.979308 
L 156.108434 -201.060367 
L 154.071194 -194.285621 
L 152.033954 -200.752424 
L 149.996714 -209.220855 
L 147.959474 -212.454257 
L 145.922234 -278.661996 
L 143.884995 -240.477067 
L 141.847755 -257.105988 
L 139.810515 -231.392749 
L 137.773275 -226.465662 
L 135.736035 -265.728391 
L 133.698795 -187.818819 
L 131.661555 -204.139796 
L 129.624315 -188.126762 
L 127.587076 -175.039185 
L 125.549836 -154.253035 
L 123.512596 -124.074623 
L 121.475356 -76.497434 
L 119.438116 -63.255886 
L 117.400876 -68.182974 
L 115.363636 -74.341833 
z
" style="stroke: #d00000; stroke-opacity: 0.2"/>
    </defs>
    <g clip-path="url(#p1bcda85930)">
     <use xlink:href="#m99781fa2d5" x="0" y="432" style="fill: #d00000; fill-opacity: 0.2; stroke: #d00000; stroke-opacity: 0.2"/>
    </g>
   </g>
   <g id="FillBetweenPolyCollection_2">
    <defs>
     <path id="mb85f105388" d="M 115.363636 -89.123096 
L 115.363636 -78.653035 
L 117.400876 -81.732464 
L 119.438116 -180.274216 
L 121.475356 -186.433075 
L 123.512596 -189.666477 
L 125.549836 -190.744277 
L 127.587076 -186.741018 
L 129.624315 -177.964644 
L 131.661555 -187.510876 
L 133.698795 -180.274216 
L 135.736035 -187.202933 
L 137.773275 -182.891731 
L 139.810515 -189.820448 
L 141.847755 -196.595193 
L 143.884995 -184.89336 
L 145.922234 -191.206191 
L 147.959474 -189.512505 
L 149.996714 -188.126762 
L 152.033954 -179.65833 
L 154.071194 -176.5789 
L 156.108434 -182.275845 
L 158.145674 -189.666477 
L 160.182913 -184.739389 
L 162.220153 -190.898248 
L 164.257393 -190.282363 
L 166.294633 -198.134908 
L 168.331873 -190.282363 
L 170.369113 -197.672994 
L 172.406353 -187.202933 
L 174.443593 -181.505988 
L 176.480832 -192.745906 
L 178.518072 -192.13002 
L 180.555312 -193.207821 
L 182.592552 -195.055479 
L 184.629792 -176.270957 
L 186.667032 -192.283992 
L 188.704272 -202.138167 
L 190.741512 -197.519022 
L 192.778751 -211.684399 
L 194.815991 -211.068513 
L 196.853231 -158.102322 
L 198.890471 -147.940204 
L 200.927711 -177.810672 
L 202.964951 -199.36668 
L 205.002191 -203.215967 
L 207.03943 -279.12391 
L 209.07667 -257.413931 
L 211.11391 -241.400896 
L 213.15115 -270.963422 
L 215.18839 -309.14835 
L 217.22563 -365.04 
L 219.26287 -365.04 
L 221.30011 -365.04 
L 223.337349 -365.04 
L 225.374589 -365.04 
L 227.411829 -365.04 
L 229.449069 -365.04 
L 231.486309 -296.214745 
L 233.523549 -268.653849 
L 235.560789 -365.04 
L 237.598028 -301.449776 
L 239.635268 -224.771976 
L 241.672508 -289.901914 
L 243.709748 -238.629409 
L 245.746988 -251.716986 
L 247.784228 -322.235927 
L 249.821468 -285.436741 
L 251.858708 -265.112505 
L 253.895947 -299.75609 
L 255.933187 -298.062403 
L 257.970427 -341.944277 
L 260.007667 -333.629817 
L 262.044907 -365.04 
L 264.082147 -365.04 
L 266.119387 -365.04 
L 268.156627 -365.04 
L 270.193866 -365.04 
L 272.231106 -365.04 
L 274.268346 -336.709246 
L 276.305586 -365.04 
L 278.342826 -365.04 
L 280.380066 -365.04 
L 282.417306 -311.919837 
L 284.454545 -332.398045 
L 286.491785 -318.078697 
L 288.529025 -365.04 
L 290.566265 -365.04 
L 292.603505 -336.09336 
L 294.640745 -325.469328 
L 296.677985 -298.216375 
L 298.715225 -365.04 
L 300.752464 -365.04 
L 302.789704 -365.04 
L 304.826944 -365.04 
L 306.864184 -265.57442 
L 308.901424 -302.681548 
L 310.938664 -365.04 
L 312.975904 -365.04 
L 315.013143 -365.04 
L 317.050383 -365.04 
L 319.087623 -365.04 
L 321.124863 -365.04 
L 323.162103 -365.04 
L 325.199343 -344.715764 
L 327.236583 -365.04 
L 329.273823 -365.04 
L 331.311062 -365.04 
L 333.348302 -310.072179 
L 335.385542 -365.04 
L 337.422782 -365.04 
L 339.460022 -304.99112 
L 341.497262 -365.04 
L 343.534502 -365.04 
L 345.571742 -365.04 
L 347.608981 -365.04 
L 349.646221 -282.049369 
L 351.683461 -365.04 
L 353.720701 -365.04 
L 355.757941 -365.04 
L 357.795181 -365.04 
L 359.832421 -360.88277 
L 361.86966 -365.04 
L 363.9069 -365.04 
L 365.94414 -228.775234 
L 367.98138 -222.15446 
L 370.01862 -264.804562 
L 372.05586 -365.04 
L 374.0931 -226.619633 
L 376.13034 -215.687658 
L 378.167579 -365.04 
L 380.204819 -365.04 
L 382.242059 -365.04 
L 384.279299 -365.04 
L 386.316539 -365.04 
L 388.353779 -365.04 
L 390.391019 -365.04 
L 392.428258 -365.04 
L 394.465498 -365.04 
L 396.502738 -365.04 
L 398.539978 -365.04 
L 400.577218 -365.04 
L 402.614458 -365.04 
L 404.651698 -365.04 
L 406.688938 -365.04 
L 408.726177 -365.04 
L 410.763417 -365.04 
L 412.800657 -365.04 
L 414.837897 -365.04 
L 416.875137 -365.04 
L 418.912377 -365.04 
L 420.949617 -365.04 
L 422.986857 -365.04 
L 425.024096 -365.04 
L 427.061336 -365.04 
L 429.098576 -365.04 
L 431.135816 -365.04 
L 433.173056 -365.04 
L 435.210296 -365.04 
L 437.247536 -365.04 
L 439.284775 -365.04 
L 441.322015 -365.04 
L 443.359255 -365.04 
L 445.396495 -365.04 
L 447.433735 -365.04 
L 449.470975 -365.04 
L 451.508215 -365.04 
L 453.545455 -365.04 
L 455.582694 -365.04 
L 457.619934 -365.04 
L 459.657174 -365.04 
L 461.694414 -365.04 
L 463.731654 -365.04 
L 465.768894 -365.04 
L 467.806134 -365.04 
L 469.843373 -365.04 
L 471.880613 -365.04 
L 473.917853 -365.04 
L 475.955093 -365.04 
L 477.992333 -349.796823 
L 480.029573 -284.666884 
L 482.066813 -365.04 
L 484.104053 -365.04 
L 486.141292 -365.04 
L 488.178532 -365.04 
L 490.215772 -365.04 
L 492.253012 -365.04 
L 494.290252 -265.57442 
L 496.327492 -250.331242 
L 498.364732 -365.04 
L 500.401972 -232.624521 
L 502.439211 -365.04 
L 504.476451 -365.04 
L 506.513691 -318.078697 
L 508.550931 -337.325132 
L 510.588171 -319.926354 
L 512.625411 -246.020041 
L 514.662651 -298.370346 
L 516.69989 -244.480326 
L 518.73713 -365.04 
L 520.77437 -365.04 
L 522.81161 -275.120652 
L 524.84885 -365.04 
L 526.88609 -365.04 
L 528.92333 -365.04 
L 530.96057 -365.04 
L 532.997809 -365.04 
L 535.035049 -331.628187 
L 537.072289 -365.04 
L 539.109529 -281.587454 
L 541.146769 -265.420448 
L 543.184009 -363.500285 
L 545.221249 -365.04 
L 547.258488 -327.932872 
L 549.295728 -293.289287 
L 551.332968 -274.196823 
L 553.370208 -243.710468 
L 555.407448 -298.524318 
L 557.444688 -229.545092 
L 559.481928 -310.072179 
L 561.519168 -262.648961 
L 563.556407 -234.318208 
L 565.593647 -244.788269 
L 567.630887 -254.026558 
L 569.668127 -244.94224 
L 571.705367 -285.128798 
L 573.742607 -365.04 
L 575.779847 -365.04 
L 577.817087 -350.104766 
L 579.854326 -203.677882 
L 581.891566 -229.545092 
L 583.928806 -306.838778 
L 585.966046 -254.642444 
L 588.003286 -246.789898 
L 590.040526 -353.492138 
L 592.077766 -365.04 
L 594.115005 -365.04 
L 596.152245 -347.949165 
L 598.189485 -365.04 
L 600.226725 -365.04 
L 602.263965 -365.04 
L 604.301205 -365.04 
L 606.338445 -236.935723 
L 608.375685 -292.673401 
L 610.412924 -239.091324 
L 612.450164 -212.608228 
L 614.487404 -215.533686 
L 616.524644 -259.723503 
L 618.561884 -365.04 
L 620.599124 -225.23389 
L 622.636364 -365.04 
L 622.636364 -365.04 
L 622.636364 -365.04 
L 620.599124 -365.04 
L 618.561884 -365.04 
L 616.524644 -365.04 
L 614.487404 -271.579308 
L 612.450164 -365.04 
L 610.412924 -365.04 
L 608.375685 -365.04 
L 606.338445 -365.04 
L 604.301205 -365.04 
L 602.263965 -365.04 
L 600.226725 -365.04 
L 598.189485 -365.04 
L 596.152245 -365.04 
L 594.115005 -365.04 
L 592.077766 -365.04 
L 590.040526 -365.04 
L 588.003286 -365.04 
L 585.966046 -365.04 
L 583.928806 -365.04 
L 581.891566 -365.04 
L 579.854326 -365.04 
L 577.817087 -365.04 
L 575.779847 -365.04 
L 573.742607 -365.04 
L 571.705367 -365.04 
L 569.668127 -365.04 
L 567.630887 -365.04 
L 565.593647 -365.04 
L 563.556407 -365.04 
L 561.519168 -365.04 
L 559.481928 -365.04 
L 557.444688 -365.04 
L 555.407448 -365.04 
L 553.370208 -365.04 
L 551.332968 -365.04 
L 549.295728 -365.04 
L 547.258488 -365.04 
L 545.221249 -365.04 
L 543.184009 -365.04 
L 541.146769 -365.04 
L 539.109529 -365.04 
L 537.072289 -365.04 
L 535.035049 -365.04 
L 532.997809 -365.04 
L 530.96057 -365.04 
L 528.92333 -365.04 
L 526.88609 -365.04 
L 524.84885 -365.04 
L 522.81161 -365.04 
L 520.77437 -365.04 
L 518.73713 -365.04 
L 516.69989 -365.04 
L 514.662651 -365.04 
L 512.625411 -365.04 
L 510.588171 -365.04 
L 508.550931 -365.04 
L 506.513691 -365.04 
L 504.476451 -365.04 
L 502.439211 -365.04 
L 500.401972 -365.04 
L 498.364732 -365.04 
L 496.327492 -365.04 
L 494.290252 -365.04 
L 492.253012 -365.04 
L 490.215772 -365.04 
L 488.178532 -365.04 
L 486.141292 -365.04 
L 484.104053 -365.04 
L 482.066813 -365.04 
L 480.029573 -365.04 
L 477.992333 -365.04 
L 475.955093 -365.04 
L 473.917853 -365.04 
L 471.880613 -365.04 
L 469.843373 -365.04 
L 467.806134 -365.04 
L 465.768894 -365.04 
L 463.731654 -365.04 
L 461.694414 -365.04 
L 459.657174 -365.04 
L 457.619934 -365.04 
L 455.582694 -365.04 
L 453.545455 -365.04 
L 451.508215 -365.04 
L 449.470975 -365.04 
L 447.433735 -365.04 
L 445.396495 -365.04 
L 443.359255 -365.04 
L 441.322015 -365.04 
L 439.284775 -365.04 
L 437.247536 -365.04 
L 435.210296 -365.04 
L 433.173056 -365.04 
L 431.135816 -365.04 
L 429.098576 -365.04 
L 427.061336 -365.04 
L 425.024096 -365.04 
L 422.986857 -365.04 
L 420.949617 -365.04 
L 418.912377 -365.04 
L 416.875137 -365.04 
L 414.837897 -365.04 
L 412.800657 -365.04 
L 410.763417 -365.04 
L 408.726177 -365.04 
L 406.688938 -365.04 
L 404.651698 -365.04 
L 402.614458 -365.04 
L 400.577218 -365.04 
L 398.539978 -365.04 
L 396.502738 -365.04 
L 394.465498 -365.04 
L 392.428258 -365.04 
L 390.391019 -365.04 
L 388.353779 -365.04 
L 386.316539 -365.04 
L 384.279299 -365.04 
L 382.242059 -365.04 
L 380.204819 -365.04 
L 378.167579 -365.04 
L 376.13034 -365.04 
L 374.0931 -365.04 
L 372.05586 -365.04 
L 370.01862 -365.04 
L 367.98138 -365.04 
L 365.94414 -365.04 
L 363.9069 -365.04 
L 361.86966 -365.04 
L 359.832421 -365.04 
L 357.795181 -365.04 
L 355.757941 -365.04 
L 353.720701 -365.04 
L 351.683461 -365.04 
L 349.646221 -365.04 
L 347.608981 -365.04 
L 345.571742 -365.04 
L 343.534502 -365.04 
L 341.497262 -365.04 
L 339.460022 -365.04 
L 337.422782 -365.04 
L 335.385542 -365.04 
L 333.348302 -365.04 
L 331.311062 -365.04 
L 329.273823 -365.04 
L 327.236583 -365.04 
L 325.199343 -365.04 
L 323.162103 -365.04 
L 321.124863 -365.04 
L 319.087623 -365.04 
L 317.050383 -365.04 
L 315.013143 -365.04 
L 312.975904 -365.04 
L 310.938664 -365.04 
L 308.901424 -365.04 
L 306.864184 -365.04 
L 304.826944 -365.04 
L 302.789704 -365.04 
L 300.752464 -365.04 
L 298.715225 -365.04 
L 296.677985 -365.04 
L 294.640745 -365.04 
L 292.603505 -365.04 
L 290.566265 -365.04 
L 288.529025 -365.04 
L 286.491785 -365.04 
L 284.454545 -365.04 
L 282.417306 -365.04 
L 280.380066 -365.04 
L 278.342826 -365.04 
L 276.305586 -365.04 
L 274.268346 -365.04 
L 272.231106 -365.04 
L 270.193866 -365.04 
L 268.156627 -365.04 
L 266.119387 -365.04 
L 264.082147 -365.04 
L 262.044907 -365.04 
L 260.007667 -365.04 
L 257.970427 -365.04 
L 255.933187 -365.04 
L 253.895947 -365.04 
L 251.858708 -365.04 
L 249.821468 -326.085214 
L 247.784228 -365.04 
L 245.746988 -365.04 
L 243.709748 -365.04 
L 241.672508 -365.04 
L 239.635268 -322.697841 
L 237.598028 -365.04 
L 235.560789 -365.04 
L 233.523549 -365.04 
L 231.486309 -365.04 
L 229.449069 -365.04 
L 227.411829 -365.04 
L 225.374589 -365.04 
L 223.337349 -365.04 
L 221.30011 -365.04 
L 219.26287 -365.04 
L 217.22563 -365.04 
L 215.18839 -365.04 
L 213.15115 -365.04 
L 211.11391 -365.04 
L 209.07667 -365.04 
L 207.03943 -365.04 
L 205.002191 -302.527576 
L 202.964951 -365.04 
L 200.927711 -365.04 
L 198.890471 -365.04 
L 196.853231 -272.657108 
L 194.815991 -273.272994 
L 192.778751 -268.961792 
L 190.741512 -233.240407 
L 188.704272 -245.558126 
L 186.667032 -254.488473 
L 184.629792 -269.577678 
L 182.592552 -253.256701 
L 180.555312 -239.861181 
L 178.518072 -285.898656 
L 176.480832 -220.922688 
L 174.443593 -226.465662 
L 172.406353 -213.993971 
L 170.369113 -225.079919 
L 168.331873 -238.475438 
L 166.294633 -234.010265 
L 164.257393 -211.530428 
L 162.220153 -221.692546 
L 160.182913 -220.768717 
L 158.145674 -229.699063 
L 156.108434 -214.147943 
L 154.071194 -248.483585 
L 152.033954 -269.423707 
L 149.996714 -253.410672 
L 147.959474 -255.874216 
L 145.922234 -237.551609 
L 143.884995 -233.54835 
L 141.847755 -235.54998 
L 139.810515 -226.003747 
L 137.773275 -215.687658 
L 135.736035 -220.922688 
L 133.698795 -207.065255 
L 131.661555 -217.227373 
L 129.624315 -207.527169 
L 127.587076 -240.78501 
L 125.549836 -254.642444 
L 123.512596 -238.783381 
L 121.475356 -236.935723 
L 119.438116 -236.781752 
L 117.400876 -106.675845 
L 115.363636 -89.123096 
z
" style="stroke: #38b000; stroke-opacity: 0.2"/>
    </defs>
    <g clip-path="url(#p1bcda85930)">
     <use xlink:href="#mb85f105388" x="0" y="432" style="fill: #38b000; fill-opacity: 0.2; stroke: #38b000; stroke-opacity: 0.2"/>
    </g>
   </g>
   <g id="FillBetweenPolyCollection_3">
    <defs>
     <path id="mb265fa8d87" d="M 115.363636 -85.735723 
L 115.363636 -75.727576 
L 117.400876 -89.277067 
L 119.438116 -159.488065 
L 121.475356 -157.794379 
L 123.512596 -153.175234 
L 125.549836 -160.103951 
L 127.587076 -150.403747 
L 129.624315 -155.484807 
L 131.661555 -160.873809 
L 133.698795 -157.486436 
L 135.736035 -166.570754 
L 137.773275 -167.340611 
L 139.810515 -167.494582 
L 141.847755 -189.97442 
L 143.884995 -187.202933 
L 145.922234 -194.593564 
L 147.959474 -190.590305 
L 149.996714 -189.666477 
L 152.033954 -187.97279 
L 154.071194 -197.672994 
L 156.108434 -203.985825 
L 158.145674 -203.985825 
L 160.182913 -209.836741 
L 162.220153 -210.144684 
L 164.257393 -225.079919 
L 166.294633 -220.614745 
L 168.331873 -185.509246 
L 170.369113 -233.086436 
L 172.406353 -192.437963 
L 174.443593 -236.935723 
L 176.480832 -212.7622 
L 178.518072 -254.642444 
L 180.555312 -249.407413 
L 182.592552 -277.276253 
L 184.629792 -304.529206 
L 186.667032 -343.022077 
L 188.704272 -295.444888 
L 190.741512 -346.101507 
L 192.778751 -335.939389 
L 194.815991 -365.04 
L 196.853231 -365.04 
L 198.890471 -312.381752 
L 200.927711 -365.04 
L 202.964951 -365.04 
L 205.002191 -365.04 
L 207.03943 -365.04 
L 209.07667 -365.04 
L 211.11391 -318.232668 
L 213.15115 -365.04 
L 215.18839 -365.04 
L 217.22563 -365.04 
L 219.26287 -365.04 
L 221.30011 -365.04 
L 223.337349 -365.04 
L 225.374589 -365.04 
L 227.411829 -365.04 
L 229.449069 -365.04 
L 231.486309 -365.04 
L 233.523549 -223.232261 
L 235.560789 -220.152831 
L 237.598028 -365.04 
L 239.635268 -365.04 
L 241.672508 -329.934501 
L 243.709748 -240.938982 
L 245.746988 -288.3622 
L 247.784228 -365.04 
L 249.821468 -286.206599 
L 251.858708 -227.389491 
L 253.895947 -309.918208 
L 255.933187 -232.778493 
L 257.970427 -294.213116 
L 260.007667 -357.495397 
L 262.044907 -273.119022 
L 264.082147 -260.955275 
L 266.119387 -272.195193 
L 268.156627 -280.047739 
L 270.193866 -280.047739 
L 272.231106 -311.611894 
L 274.268346 -300.83389 
L 276.305586 -306.838778 
L 278.342826 -365.04 
L 280.380066 -304.683177 
L 282.417306 -365.04 
L 284.454545 -365.04 
L 286.491785 -337.479104 
L 288.529025 -365.04 
L 290.566265 -365.04 
L 292.603505 -365.04 
L 294.640745 -365.04 
L 296.677985 -365.04 
L 298.715225 -341.790305 
L 300.752464 -365.04 
L 302.789704 -365.04 
L 304.826944 -315.923096 
L 306.864184 -365.04 
L 308.901424 -338.710876 
L 310.938664 -365.04 
L 312.975904 -365.04 
L 315.013143 -365.04 
L 317.050383 -312.843666 
L 319.087623 -365.04 
L 321.124863 -365.04 
L 323.162103 -365.04 
L 325.199343 -365.04 
L 327.236583 -365.04 
L 329.273823 -365.04 
L 331.311062 -365.04 
L 333.348302 -365.04 
L 335.385542 -365.04 
L 337.422782 -365.04 
L 339.460022 -365.04 
L 341.497262 -365.04 
L 343.534502 -365.04 
L 345.571742 -365.04 
L 347.608981 -365.04 
L 349.646221 -365.04 
L 351.683461 -365.04 
L 353.720701 -365.04 
L 355.757941 -365.04 
L 357.795181 -365.04 
L 359.832421 -365.04 
L 361.86966 -365.04 
L 363.9069 -365.04 
L 365.94414 -365.04 
L 367.98138 -365.04 
L 370.01862 -365.04 
L 372.05586 -365.04 
L 374.0931 -365.04 
L 376.13034 -365.04 
L 378.167579 -365.04 
L 380.204819 -365.04 
L 382.242059 -365.04 
L 384.279299 -365.04 
L 386.316539 -365.04 
L 388.353779 -365.04 
L 390.391019 -365.04 
L 392.428258 -365.04 
L 394.465498 -365.04 
L 396.502738 -365.04 
L 398.539978 -365.04 
L 400.577218 -365.04 
L 402.614458 -365.04 
L 404.651698 -365.04 
L 406.688938 -365.04 
L 408.726177 -365.04 
L 410.763417 -365.04 
L 412.800657 -365.04 
L 414.837897 -365.04 
L 416.875137 -365.04 
L 418.912377 -365.04 
L 420.949617 -365.04 
L 422.986857 -365.04 
L 425.024096 -365.04 
L 427.061336 -365.04 
L 429.098576 -365.04 
L 431.135816 -365.04 
L 433.173056 -365.04 
L 435.210296 -365.04 
L 437.247536 -365.04 
L 439.284775 -365.04 
L 441.322015 -365.04 
L 443.359255 -365.04 
L 445.396495 -365.04 
L 447.433735 -365.04 
L 449.470975 -365.04 
L 451.508215 -365.04 
L 453.545455 -365.04 
L 455.582694 -365.04 
L 457.619934 -365.04 
L 459.657174 -365.04 
L 461.694414 -365.04 
L 463.731654 -365.04 
L 465.768894 -365.04 
L 467.806134 -365.04 
L 469.843373 -365.04 
L 471.880613 -365.04 
L 473.917853 -365.04 
L 475.955093 -365.04 
L 477.992333 -365.04 
L 480.029573 -365.04 
L 482.066813 -365.04 
L 484.104053 -365.04 
L 486.141292 -365.04 
L 488.178532 -365.04 
L 490.215772 -365.04 
L 492.253012 -365.04 
L 494.290252 -365.04 
L 496.327492 -365.04 
L 498.364732 -365.04 
L 500.401972 -365.04 
L 502.439211 -365.04 
L 504.476451 -365.04 
L 506.513691 -365.04 
L 508.550931 -365.04 
L 510.588171 -351.490509 
L 512.625411 -365.04 
L 514.662651 -365.04 
L 516.69989 -365.04 
L 518.73713 -295.906802 
L 520.77437 -324.853442 
L 522.81161 -365.04 
L 524.84885 -292.211487 
L 526.88609 -365.04 
L 528.92333 -365.04 
L 530.96057 -365.04 
L 532.997809 -365.04 
L 535.035049 -365.04 
L 537.072289 -365.04 
L 539.109529 -365.04 
L 541.146769 -319.156497 
L 543.184009 -282.819226 
L 545.221249 -320.234297 
L 547.258488 -365.04 
L 549.295728 -331.320244 
L 551.332968 -253.718615 
L 553.370208 -283.897026 
L 555.407448 -293.135316 
L 557.444688 -274.812709 
L 559.481928 -305.914949 
L 561.519168 -308.07055 
L 563.556407 -307.608635 
L 565.593647 -355.339796 
L 567.630887 -328.240815 
L 569.668127 -365.04 
L 571.705367 -365.04 
L 573.742607 -365.04 
L 575.779847 -347.795193 
L 577.817087 -363.192342 
L 579.854326 -291.133686 
L 581.891566 -356.263625 
L 583.928806 -348.719022 
L 585.966046 -355.031853 
L 588.003286 -320.696212 
L 590.040526 -353.030224 
L 592.077766 -308.532464 
L 594.115005 -310.688065 
L 596.152245 -339.480733 
L 598.189485 -359.497026 
L 600.226725 -365.04 
L 602.263965 -323.313727 
L 604.301205 -314.537352 
L 606.338445 -340.250591 
L 608.375685 -365.04 
L 610.412924 -332.244073 
L 612.450164 -357.957312 
L 614.487404 -365.04 
L 616.524644 -365.04 
L 618.561884 -365.04 
L 620.599124 -365.04 
L 622.636364 -365.04 
L 622.636364 -365.04 
L 622.636364 -365.04 
L 620.599124 -365.04 
L 618.561884 -365.04 
L 616.524644 -365.04 
L 614.487404 -365.04 
L 612.450164 -365.04 
L 610.412924 -365.04 
L 608.375685 -365.04 
L 606.338445 -365.04 
L 604.301205 -365.04 
L 602.263965 -365.04 
L 600.226725 -365.04 
L 598.189485 -365.04 
L 596.152245 -365.04 
L 594.115005 -365.04 
L 592.077766 -365.04 
L 590.040526 -365.04 
L 588.003286 -365.04 
L 585.966046 -365.04 
L 583.928806 -365.04 
L 581.891566 -365.04 
L 579.854326 -365.04 
L 577.817087 -365.04 
L 575.779847 -365.04 
L 573.742607 -365.04 
L 571.705367 -365.04 
L 569.668127 -365.04 
L 567.630887 -365.04 
L 565.593647 -365.04 
L 563.556407 -365.04 
L 561.519168 -365.04 
L 559.481928 -365.04 
L 557.444688 -365.04 
L 555.407448 -365.04 
L 553.370208 -365.04 
L 551.332968 -365.04 
L 549.295728 -365.04 
L 547.258488 -365.04 
L 545.221249 -365.04 
L 543.184009 -365.04 
L 541.146769 -365.04 
L 539.109529 -365.04 
L 537.072289 -365.04 
L 535.035049 -365.04 
L 532.997809 -365.04 
L 530.96057 -365.04 
L 528.92333 -365.04 
L 526.88609 -365.04 
L 524.84885 -365.04 
L 522.81161 -365.04 
L 520.77437 -365.04 
L 518.73713 -365.04 
L 516.69989 -365.04 
L 514.662651 -365.04 
L 512.625411 -365.04 
L 510.588171 -365.04 
L 508.550931 -365.04 
L 506.513691 -365.04 
L 504.476451 -365.04 
L 502.439211 -365.04 
L 500.401972 -365.04 
L 498.364732 -365.04 
L 496.327492 -365.04 
L 494.290252 -365.04 
L 492.253012 -365.04 
L 490.215772 -365.04 
L 488.178532 -365.04 
L 486.141292 -365.04 
L 484.104053 -365.04 
L 482.066813 -365.04 
L 480.029573 -365.04 
L 477.992333 -365.04 
L 475.955093 -365.04 
L 473.917853 -365.04 
L 471.880613 -365.04 
L 469.843373 -365.04 
L 467.806134 -365.04 
L 465.768894 -365.04 
L 463.731654 -365.04 
L 461.694414 -365.04 
L 459.657174 -365.04 
L 457.619934 -365.04 
L 455.582694 -365.04 
L 453.545455 -365.04 
L 451.508215 -365.04 
L 449.470975 -365.04 
L 447.433735 -365.04 
L 445.396495 -365.04 
L 443.359255 -365.04 
L 441.322015 -365.04 
L 439.284775 -365.04 
L 437.247536 -365.04 
L 435.210296 -365.04 
L 433.173056 -365.04 
L 431.135816 -365.04 
L 429.098576 -365.04 
L 427.061336 -365.04 
L 425.024096 -365.04 
L 422.986857 -365.04 
L 420.949617 -365.04 
L 418.912377 -365.04 
L 416.875137 -365.04 
L 414.837897 -365.04 
L 412.800657 -365.04 
L 410.763417 -365.04 
L 408.726177 -365.04 
L 406.688938 -365.04 
L 404.651698 -365.04 
L 402.614458 -365.04 
L 400.577218 -365.04 
L 398.539978 -365.04 
L 396.502738 -365.04 
L 394.465498 -365.04 
L 392.428258 -365.04 
L 390.391019 -365.04 
L 388.353779 -365.04 
L 386.316539 -365.04 
L 384.279299 -365.04 
L 382.242059 -365.04 
L 380.204819 -365.04 
L 378.167579 -365.04 
L 376.13034 -365.04 
L 374.0931 -365.04 
L 372.05586 -365.04 
L 370.01862 -365.04 
L 367.98138 -365.04 
L 365.94414 -365.04 
L 363.9069 -365.04 
L 361.86966 -365.04 
L 359.832421 -365.04 
L 357.795181 -365.04 
L 355.757941 -365.04 
L 353.720701 -365.04 
L 351.683461 -365.04 
L 349.646221 -365.04 
L 347.608981 -365.04 
L 345.571742 -365.04 
L 343.534502 -365.04 
L 341.497262 -365.04 
L 339.460022 -365.04 
L 337.422782 -365.04 
L 335.385542 -365.04 
L 333.348302 -365.04 
L 331.311062 -365.04 
L 329.273823 -365.04 
L 327.236583 -365.04 
L 325.199343 -365.04 
L 323.162103 -365.04 
L 321.124863 -365.04 
L 319.087623 -365.04 
L 317.050383 -365.04 
L 315.013143 -365.04 
L 312.975904 -365.04 
L 310.938664 -365.04 
L 308.901424 -365.04 
L 306.864184 -365.04 
L 304.826944 -365.04 
L 302.789704 -365.04 
L 300.752464 -365.04 
L 298.715225 -365.04 
L 296.677985 -365.04 
L 294.640745 -365.04 
L 292.603505 -365.04 
L 290.566265 -365.04 
L 288.529025 -365.04 
L 286.491785 -365.04 
L 284.454545 -365.04 
L 282.417306 -365.04 
L 280.380066 -365.04 
L 278.342826 -365.04 
L 276.305586 -365.04 
L 274.268346 -365.04 
L 272.231106 -365.04 
L 270.193866 -365.04 
L 268.156627 -365.04 
L 266.119387 -365.04 
L 264.082147 -365.04 
L 262.044907 -365.04 
L 260.007667 -365.04 
L 257.970427 -365.04 
L 255.933187 -365.04 
L 253.895947 -365.04 
L 251.858708 -365.04 
L 249.821468 -365.04 
L 247.784228 -365.04 
L 245.746988 -365.04 
L 243.709748 -365.04 
L 241.672508 -365.04 
L 239.635268 -365.04 
L 237.598028 -365.04 
L 235.560789 -365.04 
L 233.523549 -365.04 
L 231.486309 -365.04 
L 229.449069 -365.04 
L 227.411829 -365.04 
L 225.374589 -365.04 
L 223.337349 -365.04 
L 221.30011 -365.04 
L 219.26287 -365.04 
L 217.22563 -365.04 
L 215.18839 -365.04 
L 213.15115 -365.04 
L 211.11391 -365.04 
L 209.07667 -365.04 
L 207.03943 -365.04 
L 205.002191 -365.04 
L 202.964951 -365.04 
L 200.927711 -365.04 
L 198.890471 -365.04 
L 196.853231 -365.04 
L 194.815991 -365.04 
L 192.778751 -365.04 
L 190.741512 -365.04 
L 188.704272 -365.04 
L 186.667032 -365.04 
L 184.629792 -365.04 
L 182.592552 -365.04 
L 180.555312 -365.04 
L 178.518072 -365.04 
L 176.480832 -317.462811 
L 174.443593 -345.793564 
L 172.406353 -265.112505 
L 170.369113 -304.837149 
L 168.331873 -258.799674 
L 166.294633 -264.342648 
L 164.257393 -272.811079 
L 162.220153 -259.261589 
L 160.182913 -259.107617 
L 158.145674 -252.486843 
L 156.108434 -233.856293 
L 154.071194 -235.242037 
L 152.033954 -241.554868 
L 149.996714 -243.556497 
L 147.959474 -249.715356 
L 145.922234 -240.169124 
L 143.884995 -244.172383 
L 141.847755 -243.094582 
L 139.810515 -271.425336 
L 137.773275 -222.924318 
L 135.736035 -228.005377 
L 133.698795 -255.104358 
L 131.661555 -365.04 
L 129.624315 -205.217597 
L 127.587076 -189.97442 
L 125.549836 -224.925947 
L 123.512596 -201.676253 
L 121.475356 -202.44611 
L 119.438116 -199.212709 
L 117.400876 -102.98053 
L 115.363636 -85.735723 
z
" style="stroke: #023e8a; stroke-opacity: 0.2"/>
    </defs>
    <g clip-path="url(#p1bcda85930)">
     <use xlink:href="#mb265fa8d87" x="0" y="432" style="fill: #023e8a; fill-opacity: 0.2; stroke: #023e8a; stroke-opacity: 0.2"/>
    </g>
   </g>
   <g id="matplotlib.axis_1">
    <g id="xtick_1">
     <g id="line2d_1">
      <path d="M 115.108981 384.48 
L 115.108981 51.84 
" clip-path="url(#p1bcda85930)" style="fill: none; stroke: #b0b0b0; stroke-opacity: 0.3; stroke-width: 0.8; stroke-linecap: square"/>
     </g>
     <g id="line2d_2">
      <defs>
       <path id="m800861386e" d="M 0 0 
L 0 3.5 
" style="stroke: #000000; stroke-width: 0.8"/>
      </defs>
      <g>
       <use xlink:href="#m800861386e" x="115.108981" y="384.48" style="stroke: #000000; stroke-width: 0.8"/>
      </g>
     </g>
     <g id="text_1">
      <!-- 0 -->
      <g transform="translate(111.927731 399.078438) scale(0.1 -0.1)">
       <defs>
        <path id="DejaVuSans-30" d="M 2034 4250 
Q 1547 4250 1301 3770 
Q 1056 3291 1056 2328 
Q 1056 1369 1301 889 
Q 1547 409 2034 409 
Q 2525 409 2770 889 
Q 3016 1369 3016 2328 
Q 3016 3291 2770 3770 
Q 2525 4250 2034 4250 
z
M 2034 4750 
Q 2819 4750 3233 4129 
Q 3647 3509 3647 2328 
Q 3647 1150 3233 529 
Q 2819 -91 2034 -91 
Q 1250 -91 836 529 
Q 422 1150 422 2328 
Q 422 3509 836 4129 
Q 1250 4750 2034 4750 
z
" transform="scale(0.015625)"/>
       </defs>
       <use xlink:href="#DejaVuSans-30"/>
      </g>
     </g>
    </g>
    <g id="xtick_2">
     <g id="line2d_3">
      <path d="M 178.772727 384.48 
L 178.772727 51.84 
" clip-path="url(#p1bcda85930)" style="fill: none; stroke: #b0b0b0; stroke-opacity: 0.3; stroke-width: 0.8; stroke-linecap: square"/>
     </g>
     <g id="line2d_4">
      <g>
       <use xlink:href="#m800861386e" x="178.772727" y="384.48" style="stroke: #000000; stroke-width: 0.8"/>
      </g>
     </g>
     <g id="text_2">
      <!-- 25000 -->
      <g transform="translate(162.866477 399.078438) scale(0.1 -0.1)">
       <defs>
        <path id="DejaVuSans-32" d="M 1228 531 
L 3431 531 
L 3431 0 
L 469 0 
L 469 531 
Q 828 903 1448 1529 
Q 2069 2156 2228 2338 
Q 2531 2678 2651 2914 
Q 2772 3150 2772 3378 
Q 2772 3750 2511 3984 
Q 2250 4219 1831 4219 
Q 1534 4219 1204 4116 
Q 875 4013 500 3803 
L 500 4441 
Q 881 4594 1212 4672 
Q 1544 4750 1819 4750 
Q 2544 4750 2975 4387 
Q 3406 4025 3406 3419 
Q 3406 3131 3298 2873 
Q 3191 2616 2906 2266 
Q 2828 2175 2409 1742 
Q 1991 1309 1228 531 
z
" transform="scale(0.015625)"/>
        <path id="DejaVuSans-35" d="M 691 4666 
L 3169 4666 
L 3169 4134 
L 1269 4134 
L 1269 2991 
Q 1406 3038 1543 3061 
Q 1681 3084 1819 3084 
Q 2600 3084 3056 2656 
Q 3513 2228 3513 1497 
Q 3513 744 3044 326 
Q 2575 -91 1722 -91 
Q 1428 -91 1123 -41 
Q 819 9 494 109 
L 494 744 
Q 775 591 1075 516 
Q 1375 441 1709 441 
Q 2250 441 2565 725 
Q 2881 1009 2881 1497 
Q 2881 1984 2565 2268 
Q 2250 2553 1709 2553 
Q 1456 2553 1204 2497 
Q 953 2441 691 2322 
L 691 4666 
z
" transform="scale(0.015625)"/>
       </defs>
       <use xlink:href="#DejaVuSans-32"/>
       <use xlink:href="#DejaVuSans-35" transform="translate(63.623047 0)"/>
       <use xlink:href="#DejaVuSans-30" transform="translate(127.246094 0)"/>
       <use xlink:href="#DejaVuSans-30" transform="translate(190.869141 0)"/>
       <use xlink:href="#DejaVuSans-30" transform="translate(254.492188 0)"/>
      </g>
     </g>
    </g>
    <g id="xtick_3">
     <g id="line2d_5">
      <path d="M 242.436473 384.48 
L 242.436473 51.84 
" clip-path="url(#p1bcda85930)" style="fill: none; stroke: #b0b0b0; stroke-opacity: 0.3; stroke-width: 0.8; stroke-linecap: square"/>
     </g>
     <g id="line2d_6">
      <g>
       <use xlink:href="#m800861386e" x="242.436473" y="384.48" style="stroke: #000000; stroke-width: 0.8"/>
      </g>
     </g>
     <g id="text_3">
      <!-- 50000 -->
      <g transform="translate(226.530223 399.078438) scale(0.1 -0.1)">
       <use xlink:href="#DejaVuSans-35"/>
       <use xlink:href="#DejaVuSans-30" transform="translate(63.623047 0)"/>
       <use xlink:href="#DejaVuSans-30" transform="translate(127.246094 0)"/>
       <use xlink:href="#DejaVuSans-30" transform="translate(190.869141 0)"/>
       <use xlink:href="#DejaVuSans-30" transform="translate(254.492188 0)"/>
      </g>
     </g>
    </g>
    <g id="xtick_4">
     <g id="line2d_7">
      <path d="M 306.100219 384.48 
L 306.100219 51.84 
" clip-path="url(#p1bcda85930)" style="fill: none; stroke: #b0b0b0; stroke-opacity: 0.3; stroke-width: 0.8; stroke-linecap: square"/>
     </g>
     <g id="line2d_8">
      <g>
       <use xlink:href="#m800861386e" x="306.100219" y="384.48" style="stroke: #000000; stroke-width: 0.8"/>
      </g>
     </g>
     <g id="text_4">
      <!-- 75000 -->
      <g transform="translate(290.193969 399.078438) scale(0.1 -0.1)">
       <defs>
        <path id="DejaVuSans-37" d="M 525 4666 
L 3525 4666 
L 3525 4397 
L 1831 0 
L 1172 0 
L 2766 4134 
L 525 4134 
L 525 4666 
z
" transform="scale(0.015625)"/>
       </defs>
       <use xlink:href="#DejaVuSans-37"/>
       <use xlink:href="#DejaVuSans-35" transform="translate(63.623047 0)"/>
       <use xlink:href="#DejaVuSans-30" transform="translate(127.246094 0)"/>
       <use xlink:href="#DejaVuSans-30" transform="translate(190.869141 0)"/>
       <use xlink:href="#DejaVuSans-30" transform="translate(254.492188 0)"/>
      </g>
     </g>
    </g>
    <g id="xtick_5">
     <g id="line2d_9">
      <path d="M 369.763965 384.48 
L 369.763965 51.84 
" clip-path="url(#p1bcda85930)" style="fill: none; stroke: #b0b0b0; stroke-opacity: 0.3; stroke-width: 0.8; stroke-linecap: square"/>
     </g>
     <g id="line2d_10">
      <g>
       <use xlink:href="#m800861386e" x="369.763965" y="384.48" style="stroke: #000000; stroke-width: 0.8"/>
      </g>
     </g>
     <g id="text_5">
      <!-- 100000 -->
      <g transform="translate(350.676465 399.078438) scale(0.1 -0.1)">
       <defs>
        <path id="DejaVuSans-31" d="M 794 531 
L 1825 531 
L 1825 4091 
L 703 3866 
L 703 4441 
L 1819 4666 
L 2450 4666 
L 2450 531 
L 3481 531 
L 3481 0 
L 794 0 
L 794 531 
z
" transform="scale(0.015625)"/>
       </defs>
       <use xlink:href="#DejaVuSans-31"/>
       <use xlink:href="#DejaVuSans-30" transform="translate(63.623047 0)"/>
       <use xlink:href="#DejaVuSans-30" transform="translate(127.246094 0)"/>
       <use xlink:href="#DejaVuSans-30" transform="translate(190.869141 0)"/>
       <use xlink:href="#DejaVuSans-30" transform="translate(254.492188 0)"/>
       <use xlink:href="#DejaVuSans-30" transform="translate(318.115234 0)"/>
      </g>
     </g>
    </g>
    <g id="xtick_6">
     <g id="line2d_11">
      <path d="M 433.427711 384.48 
L 433.427711 51.84 
" clip-path="url(#p1bcda85930)" style="fill: none; stroke: #b0b0b0; stroke-opacity: 0.3; stroke-width: 0.8; stroke-linecap: square"/>
     </g>
     <g id="line2d_12">
      <g>
       <use xlink:href="#m800861386e" x="433.427711" y="384.48" style="stroke: #000000; stroke-width: 0.8"/>
      </g>
     </g>
     <g id="text_6">
      <!-- 125000 -->
      <g transform="translate(414.340211 399.078438) scale(0.1 -0.1)">
       <use xlink:href="#DejaVuSans-31"/>
       <use xlink:href="#DejaVuSans-32" transform="translate(63.623047 0)"/>
       <use xlink:href="#DejaVuSans-35" transform="translate(127.246094 0)"/>
       <use xlink:href="#DejaVuSans-30" transform="translate(190.869141 0)"/>
       <use xlink:href="#DejaVuSans-30" transform="translate(254.492188 0)"/>
       <use xlink:href="#DejaVuSans-30" transform="translate(318.115234 0)"/>
      </g>
     </g>
    </g>
    <g id="xtick_7">
     <g id="line2d_13">
      <path d="M 497.091457 384.48 
L 497.091457 51.84 
" clip-path="url(#p1bcda85930)" style="fill: none; stroke: #b0b0b0; stroke-opacity: 0.3; stroke-width: 0.8; stroke-linecap: square"/>
     </g>
     <g id="line2d_14">
      <g>
       <use xlink:href="#m800861386e" x="497.091457" y="384.48" style="stroke: #000000; stroke-width: 0.8"/>
      </g>
     </g>
     <g id="text_7">
      <!-- 150000 -->
      <g transform="translate(478.003957 399.078438) scale(0.1 -0.1)">
       <use xlink:href="#DejaVuSans-31"/>
       <use xlink:href="#DejaVuSans-35" transform="translate(63.623047 0)"/>
       <use xlink:href="#DejaVuSans-30" transform="translate(127.246094 0)"/>
       <use xlink:href="#DejaVuSans-30" transform="translate(190.869141 0)"/>
       <use xlink:href="#DejaVuSans-30" transform="translate(254.492188 0)"/>
       <use xlink:href="#DejaVuSans-30" transform="translate(318.115234 0)"/>
      </g>
     </g>
    </g>
    <g id="xtick_8">
     <g id="line2d_15">
      <path d="M 560.755203 384.48 
L 560.755203 51.84 
" clip-path="url(#p1bcda85930)" style="fill: none; stroke: #b0b0b0; stroke-opacity: 0.3; stroke-width: 0.8; stroke-linecap: square"/>
     </g>
     <g id="line2d_16">
      <g>
       <use xlink:href="#m800861386e" x="560.755203" y="384.48" style="stroke: #000000; stroke-width: 0.8"/>
      </g>
     </g>
     <g id="text_8">
      <!-- 175000 -->
      <g transform="translate(541.667703 399.078438) scale(0.1 -0.1)">
       <use xlink:href="#DejaVuSans-31"/>
       <use xlink:href="#DejaVuSans-37" transform="translate(63.623047 0)"/>
       <use xlink:href="#DejaVuSans-35" transform="translate(127.246094 0)"/>
       <use xlink:href="#DejaVuSans-30" transform="translate(190.869141 0)"/>
       <use xlink:href="#DejaVuSans-30" transform="translate(254.492188 0)"/>
       <use xlink:href="#DejaVuSans-30" transform="translate(318.115234 0)"/>
      </g>
     </g>
    </g>
    <g id="xtick_9">
     <g id="line2d_17">
      <path d="M 624.418949 384.48 
L 624.418949 51.84 
" clip-path="url(#p1bcda85930)" style="fill: none; stroke: #b0b0b0; stroke-opacity: 0.3; stroke-width: 0.8; stroke-linecap: square"/>
     </g>
     <g id="line2d_18">
      <g>
       <use xlink:href="#m800861386e" x="624.418949" y="384.48" style="stroke: #000000; stroke-width: 0.8"/>
      </g>
     </g>
     <g id="text_9">
      <!-- 200000 -->
      <g transform="translate(605.331449 399.078438) scale(0.1 -0.1)">
       <use xlink:href="#DejaVuSans-32"/>
       <use xlink:href="#DejaVuSans-30" transform="translate(63.623047 0)"/>
       <use xlink:href="#DejaVuSans-30" transform="translate(127.246094 0)"/>
       <use xlink:href="#DejaVuSans-30" transform="translate(190.869141 0)"/>
       <use xlink:href="#DejaVuSans-30" transform="translate(254.492188 0)"/>
       <use xlink:href="#DejaVuSans-30" transform="translate(318.115234 0)"/>
      </g>
     </g>
    </g>
    <g id="text_10">
     <!-- Training Steps -->
     <g transform="translate(333.695312 412.756563) scale(0.1 -0.1)">
      <defs>
       <path id="DejaVuSans-54" d="M -19 4666 
L 3928 4666 
L 3928 4134 
L 2272 4134 
L 2272 0 
L 1638 0 
L 1638 4134 
L -19 4134 
L -19 4666 
z
" transform="scale(0.015625)"/>
       <path id="DejaVuSans-72" d="M 2631 2963 
Q 2534 3019 2420 3045 
Q 2306 3072 2169 3072 
Q 1681 3072 1420 2755 
Q 1159 2438 1159 1844 
L 1159 0 
L 581 0 
L 581 3500 
L 1159 3500 
L 1159 2956 
Q 1341 3275 1631 3429 
Q 1922 3584 2338 3584 
Q 2397 3584 2469 3576 
Q 2541 3569 2628 3553 
L 2631 2963 
z
" transform="scale(0.015625)"/>
       <path id="DejaVuSans-61" d="M 2194 1759 
Q 1497 1759 1228 1600 
Q 959 1441 959 1056 
Q 959 750 1161 570 
Q 1363 391 1709 391 
Q 2188 391 2477 730 
Q 2766 1069 2766 1631 
L 2766 1759 
L 2194 1759 
z
M 3341 1997 
L 3341 0 
L 2766 0 
L 2766 531 
Q 2569 213 2275 61 
Q 1981 -91 1556 -91 
Q 1019 -91 701 211 
Q 384 513 384 1019 
Q 384 1609 779 1909 
Q 1175 2209 1959 2209 
L 2766 2209 
L 2766 2266 
Q 2766 2663 2505 2880 
Q 2244 3097 1772 3097 
Q 1472 3097 1187 3025 
Q 903 2953 641 2809 
L 641 3341 
Q 956 3463 1253 3523 
Q 1550 3584 1831 3584 
Q 2591 3584 2966 3190 
Q 3341 2797 3341 1997 
z
" transform="scale(0.015625)"/>
       <path id="DejaVuSans-69" d="M 603 3500 
L 1178 3500 
L 1178 0 
L 603 0 
L 603 3500 
z
M 603 4863 
L 1178 4863 
L 1178 4134 
L 603 4134 
L 603 4863 
z
" transform="scale(0.015625)"/>
       <path id="DejaVuSans-6e" d="M 3513 2113 
L 3513 0 
L 2938 0 
L 2938 2094 
Q 2938 2591 2744 2837 
Q 2550 3084 2163 3084 
Q 1697 3084 1428 2787 
Q 1159 2491 1159 1978 
L 1159 0 
L 581 0 
L 581 3500 
L 1159 3500 
L 1159 2956 
Q 1366 3272 1645 3428 
Q 1925 3584 2291 3584 
Q 2894 3584 3203 3211 
Q 3513 2838 3513 2113 
z
" transform="scale(0.015625)"/>
       <path id="DejaVuSans-67" d="M 2906 1791 
Q 2906 2416 2648 2759 
Q 2391 3103 1925 3103 
Q 1463 3103 1205 2759 
Q 947 2416 947 1791 
Q 947 1169 1205 825 
Q 1463 481 1925 481 
Q 2391 481 2648 825 
Q 2906 1169 2906 1791 
z
M 3481 434 
Q 3481 -459 3084 -895 
Q 2688 -1331 1869 -1331 
Q 1566 -1331 1297 -1286 
Q 1028 -1241 775 -1147 
L 775 -588 
Q 1028 -725 1275 -790 
Q 1522 -856 1778 -856 
Q 2344 -856 2625 -561 
Q 2906 -266 2906 331 
L 2906 616 
Q 2728 306 2450 153 
Q 2172 0 1784 0 
Q 1141 0 747 490 
Q 353 981 353 1791 
Q 353 2603 747 3093 
Q 1141 3584 1784 3584 
Q 2172 3584 2450 3431 
Q 2728 3278 2906 2969 
L 2906 3500 
L 3481 3500 
L 3481 434 
z
" transform="scale(0.015625)"/>
       <path id="DejaVuSans-20" transform="scale(0.015625)"/>
       <path id="DejaVuSans-53" d="M 3425 4513 
L 3425 3897 
Q 3066 4069 2747 4153 
Q 2428 4238 2131 4238 
Q 1616 4238 1336 4038 
Q 1056 3838 1056 3469 
Q 1056 3159 1242 3001 
Q 1428 2844 1947 2747 
L 2328 2669 
Q 3034 2534 3370 2195 
Q 3706 1856 3706 1288 
Q 3706 609 3251 259 
Q 2797 -91 1919 -91 
Q 1588 -91 1214 -16 
Q 841 59 441 206 
L 441 856 
Q 825 641 1194 531 
Q 1563 422 1919 422 
Q 2459 422 2753 634 
Q 3047 847 3047 1241 
Q 3047 1584 2836 1778 
Q 2625 1972 2144 2069 
L 1759 2144 
Q 1053 2284 737 2584 
Q 422 2884 422 3419 
Q 422 4038 858 4394 
Q 1294 4750 2059 4750 
Q 2388 4750 2728 4690 
Q 3069 4631 3425 4513 
z
" transform="scale(0.015625)"/>
       <path id="DejaVuSans-74" d="M 1172 4494 
L 1172 3500 
L 2356 3500 
L 2356 3053 
L 1172 3053 
L 1172 1153 
Q 1172 725 1289 603 
Q 1406 481 1766 481 
L 2356 481 
L 2356 0 
L 1766 0 
Q 1100 0 847 248 
Q 594 497 594 1153 
L 594 3053 
L 172 3053 
L 172 3500 
L 594 3500 
L 594 4494 
L 1172 4494 
z
" transform="scale(0.015625)"/>
       <path id="DejaVuSans-65" d="M 3597 1894 
L 3597 1613 
L 953 1613 
Q 991 1019 1311 708 
Q 1631 397 2203 397 
Q 2534 397 2845 478 
Q 3156 559 3463 722 
L 3463 178 
Q 3153 47 2828 -22 
Q 2503 -91 2169 -91 
Q 1331 -91 842 396 
Q 353 884 353 1716 
Q 353 2575 817 3079 
Q 1281 3584 2069 3584 
Q 2775 3584 3186 3129 
Q 3597 2675 3597 1894 
z
M 3022 2063 
Q 3016 2534 2758 2815 
Q 2500 3097 2075 3097 
Q 1594 3097 1305 2825 
Q 1016 2553 972 2059 
L 3022 2063 
z
" transform="scale(0.015625)"/>
       <path id="DejaVuSans-70" d="M 1159 525 
L 1159 -1331 
L 581 -1331 
L 581 3500 
L 1159 3500 
L 1159 2969 
Q 1341 3281 1617 3432 
Q 1894 3584 2278 3584 
Q 2916 3584 3314 3078 
Q 3713 2572 3713 1747 
Q 3713 922 3314 415 
Q 2916 -91 2278 -91 
Q 1894 -91 1617 61 
Q 1341 213 1159 525 
z
M 3116 1747 
Q 3116 2381 2855 2742 
Q 2594 3103 2138 3103 
Q 1681 3103 1420 2742 
Q 1159 2381 1159 1747 
Q 1159 1113 1420 752 
Q 1681 391 2138 391 
Q 2594 391 2855 752 
Q 3116 1113 3116 1747 
z
" transform="scale(0.015625)"/>
       <path id="DejaVuSans-73" d="M 2834 3397 
L 2834 2853 
Q 2591 2978 2328 3040 
Q 2066 3103 1784 3103 
Q 1356 3103 1142 2972 
Q 928 2841 928 2578 
Q 928 2378 1081 2264 
Q 1234 2150 1697 2047 
L 1894 2003 
Q 2506 1872 2764 1633 
Q 3022 1394 3022 966 
Q 3022 478 2636 193 
Q 2250 -91 1575 -91 
Q 1294 -91 989 -36 
Q 684 19 347 128 
L 347 722 
Q 666 556 975 473 
Q 1284 391 1588 391 
Q 1994 391 2212 530 
Q 2431 669 2431 922 
Q 2431 1156 2273 1281 
Q 2116 1406 1581 1522 
L 1381 1569 
Q 847 1681 609 1914 
Q 372 2147 372 2553 
Q 372 3047 722 3315 
Q 1072 3584 1716 3584 
Q 2034 3584 2315 3537 
Q 2597 3491 2834 3397 
z
" transform="scale(0.015625)"/>
      </defs>
      <use xlink:href="#DejaVuSans-54"/>
      <use xlink:href="#DejaVuSans-72" transform="translate(46.333984 0)"/>
      <use xlink:href="#DejaVuSans-61" transform="translate(87.447266 0)"/>
      <use xlink:href="#DejaVuSans-69" transform="translate(148.726562 0)"/>
      <use xlink:href="#DejaVuSans-6e" transform="translate(176.509766 0)"/>
      <use xlink:href="#DejaVuSans-69" transform="translate(239.888672 0)"/>
      <use xlink:href="#DejaVuSans-6e" transform="translate(267.671875 0)"/>
      <use xlink:href="#DejaVuSans-67" transform="translate(331.050781 0)"/>
      <use xlink:href="#DejaVuSans-20" transform="translate(394.527344 0)"/>
      <use xlink:href="#DejaVuSans-53" transform="translate(426.314453 0)"/>
      <use xlink:href="#DejaVuSans-74" transform="translate(489.791016 0)"/>
      <use xlink:href="#DejaVuSans-65" transform="translate(529 0)"/>
      <use xlink:href="#DejaVuSans-70" transform="translate(590.523438 0)"/>
      <use xlink:href="#DejaVuSans-73" transform="translate(654 0)"/>
     </g>
    </g>
   </g>
   <g id="matplotlib.axis_2">
    <g id="ytick_1">
     <g id="line2d_19">
      <path d="M 90 374.902974 
L 648 374.902974 
" clip-path="url(#p1bcda85930)" style="fill: none; stroke: #b0b0b0; stroke-opacity: 0.3; stroke-width: 0.8; stroke-linecap: square"/>
     </g>
     <g id="line2d_20">
      <defs>
       <path id="m75a30b3ac3" d="M 0 0 
L -3.5 0 
" style="stroke: #000000; stroke-width: 0.8"/>
      </defs>
      <g>
       <use xlink:href="#m75a30b3ac3" x="90" y="374.902974" style="stroke: #000000; stroke-width: 0.8"/>
      </g>
     </g>
     <g id="text_11">
      <!-- 0 -->
      <g transform="translate(76.6375 378.702192) scale(0.1 -0.1)">
       <use xlink:href="#DejaVuSans-30"/>
      </g>
     </g>
    </g>
    <g id="ytick_2">
     <g id="line2d_21">
      <path d="M 90 313.314379 
L 648 313.314379 
" clip-path="url(#p1bcda85930)" style="fill: none; stroke: #b0b0b0; stroke-opacity: 0.3; stroke-width: 0.8; stroke-linecap: square"/>
     </g>
     <g id="line2d_22">
      <g>
       <use xlink:href="#m75a30b3ac3" x="90" y="313.314379" style="stroke: #000000; stroke-width: 0.8"/>
      </g>
     </g>
     <g id="text_12">
      <!-- 100 -->
      <g transform="translate(63.9125 317.113598) scale(0.1 -0.1)">
       <use xlink:href="#DejaVuSans-31"/>
       <use xlink:href="#DejaVuSans-30" transform="translate(63.623047 0)"/>
       <use xlink:href="#DejaVuSans-30" transform="translate(127.246094 0)"/>
      </g>
     </g>
    </g>
    <g id="ytick_3">
     <g id="line2d_23">
      <path d="M 90 251.725784 
L 648 251.725784 
" clip-path="url(#p1bcda85930)" style="fill: none; stroke: #b0b0b0; stroke-opacity: 0.3; stroke-width: 0.8; stroke-linecap: square"/>
     </g>
     <g id="line2d_24">
      <g>
       <use xlink:href="#m75a30b3ac3" x="90" y="251.725784" style="stroke: #000000; stroke-width: 0.8"/>
      </g>
     </g>
     <g id="text_13">
      <!-- 200 -->
      <g transform="translate(63.9125 255.525003) scale(0.1 -0.1)">
       <use xlink:href="#DejaVuSans-32"/>
       <use xlink:href="#DejaVuSans-30" transform="translate(63.623047 0)"/>
       <use xlink:href="#DejaVuSans-30" transform="translate(127.246094 0)"/>
      </g>
     </g>
    </g>
    <g id="ytick_4">
     <g id="line2d_25">
      <path d="M 90 190.137189 
L 648 190.137189 
" clip-path="url(#p1bcda85930)" style="fill: none; stroke: #b0b0b0; stroke-opacity: 0.3; stroke-width: 0.8; stroke-linecap: square"/>
     </g>
     <g id="line2d_26">
      <g>
       <use xlink:href="#m75a30b3ac3" x="90" y="190.137189" style="stroke: #000000; stroke-width: 0.8"/>
      </g>
     </g>
     <g id="text_14">
      <!-- 300 -->
      <g transform="translate(63.9125 193.936408) scale(0.1 -0.1)">
       <defs>
        <path id="DejaVuSans-33" d="M 2597 2516 
Q 3050 2419 3304 2112 
Q 3559 1806 3559 1356 
Q 3559 666 3084 287 
Q 2609 -91 1734 -91 
Q 1441 -91 1130 -33 
Q 819 25 488 141 
L 488 750 
Q 750 597 1062 519 
Q 1375 441 1716 441 
Q 2309 441 2620 675 
Q 2931 909 2931 1356 
Q 2931 1769 2642 2001 
Q 2353 2234 1838 2234 
L 1294 2234 
L 1294 2753 
L 1863 2753 
Q 2328 2753 2575 2939 
Q 2822 3125 2822 3475 
Q 2822 3834 2567 4026 
Q 2313 4219 1838 4219 
Q 1578 4219 1281 4162 
Q 984 4106 628 3988 
L 628 4550 
Q 988 4650 1302 4700 
Q 1616 4750 1894 4750 
Q 2613 4750 3031 4423 
Q 3450 4097 3450 3541 
Q 3450 3153 3228 2886 
Q 3006 2619 2597 2516 
z
" transform="scale(0.015625)"/>
       </defs>
       <use xlink:href="#DejaVuSans-33"/>
       <use xlink:href="#DejaVuSans-30" transform="translate(63.623047 0)"/>
       <use xlink:href="#DejaVuSans-30" transform="translate(127.246094 0)"/>
      </g>
     </g>
    </g>
    <g id="ytick_5">
     <g id="line2d_27">
      <path d="M 90 128.548595 
L 648 128.548595 
" clip-path="url(#p1bcda85930)" style="fill: none; stroke: #b0b0b0; stroke-opacity: 0.3; stroke-width: 0.8; stroke-linecap: square"/>
     </g>
     <g id="line2d_28">
      <g>
       <use xlink:href="#m75a30b3ac3" x="90" y="128.548595" style="stroke: #000000; stroke-width: 0.8"/>
      </g>
     </g>
     <g id="text_15">
      <!-- 400 -->
      <g transform="translate(63.9125 132.347813) scale(0.1 -0.1)">
       <defs>
        <path id="DejaVuSans-34" d="M 2419 4116 
L 825 1625 
L 2419 1625 
L 2419 4116 
z
M 2253 4666 
L 3047 4666 
L 3047 1625 
L 3713 1625 
L 3713 1100 
L 3047 1100 
L 3047 0 
L 2419 0 
L 2419 1100 
L 313 1100 
L 313 1709 
L 2253 4666 
z
" transform="scale(0.015625)"/>
       </defs>
       <use xlink:href="#DejaVuSans-34"/>
       <use xlink:href="#DejaVuSans-30" transform="translate(63.623047 0)"/>
       <use xlink:href="#DejaVuSans-30" transform="translate(127.246094 0)"/>
      </g>
     </g>
    </g>
    <g id="ytick_6">
     <g id="line2d_29">
      <path d="M 90 66.96 
L 648 66.96 
" clip-path="url(#p1bcda85930)" style="fill: none; stroke: #b0b0b0; stroke-opacity: 0.3; stroke-width: 0.8; stroke-linecap: square"/>
     </g>
     <g id="line2d_30">
      <g>
       <use xlink:href="#m75a30b3ac3" x="90" y="66.96" style="stroke: #000000; stroke-width: 0.8"/>
      </g>
     </g>
     <g id="text_16">
      <!-- 500 -->
      <g transform="translate(63.9125 70.759219) scale(0.1 -0.1)">
       <use xlink:href="#DejaVuSans-35"/>
       <use xlink:href="#DejaVuSans-30" transform="translate(63.623047 0)"/>
       <use xlink:href="#DejaVuSans-30" transform="translate(127.246094 0)"/>
      </g>
     </g>
    </g>
    <g id="text_17">
     <!-- Return -->
     <g transform="translate(57.832812 234.751406) rotate(-90) scale(0.1 -0.1)">
      <defs>
       <path id="DejaVuSans-52" d="M 2841 2188 
Q 3044 2119 3236 1894 
Q 3428 1669 3622 1275 
L 4263 0 
L 3584 0 
L 2988 1197 
Q 2756 1666 2539 1819 
Q 2322 1972 1947 1972 
L 1259 1972 
L 1259 0 
L 628 0 
L 628 4666 
L 2053 4666 
Q 2853 4666 3247 4331 
Q 3641 3997 3641 3322 
Q 3641 2881 3436 2590 
Q 3231 2300 2841 2188 
z
M 1259 4147 
L 1259 2491 
L 2053 2491 
Q 2509 2491 2742 2702 
Q 2975 2913 2975 3322 
Q 2975 3731 2742 3939 
Q 2509 4147 2053 4147 
L 1259 4147 
z
" transform="scale(0.015625)"/>
       <path id="DejaVuSans-75" d="M 544 1381 
L 544 3500 
L 1119 3500 
L 1119 1403 
Q 1119 906 1312 657 
Q 1506 409 1894 409 
Q 2359 409 2629 706 
Q 2900 1003 2900 1516 
L 2900 3500 
L 3475 3500 
L 3475 0 
L 2900 0 
L 2900 538 
Q 2691 219 2414 64 
Q 2138 -91 1772 -91 
Q 1169 -91 856 284 
Q 544 659 544 1381 
z
M 1991 3584 
L 1991 3584 
z
" transform="scale(0.015625)"/>
      </defs>
      <use xlink:href="#DejaVuSans-52"/>
      <use xlink:href="#DejaVuSans-65" transform="translate(64.982422 0)"/>
      <use xlink:href="#DejaVuSans-74" transform="translate(126.505859 0)"/>
      <use xlink:href="#DejaVuSans-75" transform="translate(165.714844 0)"/>
      <use xlink:href="#DejaVuSans-72" transform="translate(229.09375 0)"/>
      <use xlink:href="#DejaVuSans-6e" transform="translate(268.457031 0)"/>
     </g>
    </g>
   </g>
   <g id="line2d_31">
    <path d="M 115.363636 359.733931 
L 117.400876 367.747828 
L 119.438116 369.077025 
L 121.475356 362.995845 
L 123.512596 337.924155 
L 125.549836 304.101752 
L 129.624315 257.961629 
L 131.661555 259.603992 
L 133.698795 272.614582 
L 135.736035 235.764073 
L 137.773275 243.251193 
L 139.810515 249.185255 
L 141.847755 243.8989 
L 143.884995 234.840244 
L 145.922234 226.885051 
L 147.959474 246.080163 
L 149.996714 246.429165 
L 152.033954 252.983218 
L 154.071194 261.015397 
L 156.108434 252.598289 
L 158.145674 256.800684 
L 160.182913 241.794623 
L 162.220153 251.597475 
L 164.257393 238.817841 
L 166.294633 260.296864 
L 168.331873 253.342485 
L 170.369113 226.400554 
L 172.406353 225.961222 
L 174.443593 251.75042 
L 176.480832 245.23332 
L 178.518072 250.981589 
L 180.555312 231.863462 
L 182.592552 233.685458 
L 184.629792 238.971813 
L 186.667032 237.32945 
L 188.704272 215.927413 
L 190.741512 227.449613 
L 192.778751 239.876138 
L 194.815991 241.974257 
L 196.853231 233.685458 
L 198.890471 242.718452 
L 200.927711 252.829246 
L 202.964951 248.569369 
L 205.002191 232.889939 
L 207.03943 248.030468 
L 209.07667 214.105418 
L 211.11391 233.377515 
L 213.15115 225.858574 
L 215.18839 220.315601 
L 217.22563 235.148187 
L 219.26287 240.541295 
L 221.30011 236.302974 
L 223.337349 202.407533 
L 225.374589 229.42558 
L 227.411829 231.683829 
L 229.449069 254.138004 
L 231.486309 230.939633 
L 233.523549 226.808065 
L 235.560789 231.170591 
L 237.598028 211.924155 
L 239.635268 210.204807 
L 241.672508 186.056945 
L 243.709748 213.977108 
L 245.746988 190.778737 
L 247.784228 186.565051 
L 249.821468 219.872163 
L 251.858708 205.68831 
L 253.895947 222.753483 
L 255.933187 217.775071 
L 257.970427 221.573035 
L 260.007667 151.086691 
L 262.044907 132.210619 
L 264.082147 137.770238 
L 266.119387 217.0822 
L 268.156627 225.415136 
L 270.193866 221.085458 
L 272.231106 211.667536 
L 274.268346 210.732415 
L 276.305586 186.762134 
L 278.342826 178.101752 
L 280.380066 156.2378 
L 282.417306 149.206436 
L 284.454545 138.479756 
L 286.491785 141.964921 
L 288.529025 185.136196 
L 290.566265 87.933413 
L 292.603505 84.654237 
L 294.640745 189.46998 
L 296.677985 93.490472 
L 298.715225 115.831382 
L 300.752464 94.325311 
L 302.789704 117.346129 
L 304.826944 129.197772 
L 306.864184 138.902137 
L 308.901424 154.518452 
L 310.938664 126.234861 
L 312.975904 94.302095 
L 315.013143 89.831008 
L 317.050383 121.041444 
L 319.087623 100.767145 
L 321.124863 86.501895 
L 323.162103 119.776381 
L 325.199343 95.656956 
L 327.236583 93.975754 
L 329.273823 82.83987 
L 331.311062 84.670882 
L 333.348302 69.989493 
L 335.385542 66.96 
L 337.422782 91.96164 
L 339.460022 66.96 
L 343.534502 66.96 
L 345.571742 95.989867 
L 347.608981 118.627837 
L 349.646221 189.367332 
L 351.683461 118.045242 
L 353.720701 124.853279 
L 355.757941 98.087209 
L 357.795181 176.690346 
L 359.832421 108.872659 
L 361.86966 110.488155 
L 363.9069 124.220748 
L 365.94414 226.166517 
L 367.98138 128.615177 
L 370.01862 210.641059 
L 372.05586 121.940305 
L 374.0931 126.584418 
L 376.13034 91.462273 
L 378.167579 115.515116 
L 380.204819 121.707267 
L 382.242059 154.0822 
L 384.279299 160.318045 
L 386.316539 148.308269 
L 388.353779 114.716823 
L 390.391019 73.451771 
L 392.428258 66.96 
L 394.465498 101.599423 
L 396.502738 103.963094 
L 398.539978 123.338533 
L 400.577218 66.96 
L 402.614458 108.241004 
L 404.651698 66.96 
L 412.800657 66.96 
L 414.837897 79.494111 
L 416.875137 69.756455 
L 418.912377 88.43278 
L 420.949617 91.545501 
L 422.986857 75.549112 
L 425.024096 106.992587 
L 427.061336 66.96 
L 437.247536 66.96 
L 439.284775 93.293286 
L 441.322015 66.96 
L 443.359255 66.96 
L 445.396495 103.014296 
L 447.433735 196.013768 
L 449.470975 143.76611 
L 451.508215 122.189988 
L 453.545455 151.386311 
L 455.582694 198.86224 
L 457.619934 101.94898 
L 459.657174 87.98335 
L 461.694414 129.181126 
L 463.731654 109.289675 
L 465.768894 143.596186 
L 467.806134 85.404163 
L 469.843373 80.412246 
L 471.880613 66.96 
L 473.917853 90.513476 
L 475.955093 66.96 
L 477.992333 88.807744 
L 480.029573 66.96 
L 482.066813 66.96 
L 484.104053 91.462273 
L 486.141292 81.474934 
L 488.178532 66.96 
L 490.215772 66.96 
L 492.253012 83.638857 
L 494.290252 95.889994 
L 496.327492 92.648927 
L 498.364732 99.418854 
L 500.401972 91.195944 
L 502.439211 84.687528 
L 504.476451 66.96 
L 512.625411 66.96 
L 514.662651 115.831382 
L 516.69989 66.96 
L 520.77437 66.96 
L 522.81161 85.037085 
L 524.84885 104.961827 
L 526.88609 110.979638 
L 528.92333 66.96 
L 530.96057 124.204102 
L 532.997809 120.475495 
L 535.035049 72.436391 
L 537.072289 66.96 
L 539.109529 93.825944 
L 541.146769 73.70233 
L 543.184009 84.987148 
L 545.221249 69.057341 
L 547.258488 66.96 
L 549.295728 140.949541 
L 551.332968 219.006843 
L 553.370208 128.781633 
L 555.407448 66.96 
L 557.444688 111.620054 
L 559.481928 114.366572 
L 561.519168 113.018281 
L 563.556407 224.958433 
L 565.593647 225.730265 
L 567.630887 91.428982 
L 569.668127 66.96 
L 571.705367 105.710878 
L 573.742607 86.568477 
L 575.779847 215.388513 
L 577.817087 246.207446 
L 579.854326 147.52454 
L 583.928806 243.026395 
L 585.966046 127.433342 
L 588.003286 83.372528 
L 590.040526 71.687341 
L 592.077766 66.96 
L 596.152245 66.96 
L 598.189485 84.609995 
L 600.226725 66.96 
L 602.263965 95.923285 
L 604.301205 104.262714 
L 606.338445 75.665631 
L 608.375685 90.882307 
L 610.412924 66.96 
L 612.450164 66.96 
L 614.487404 74.836857 
L 616.524644 66.96 
L 618.561884 108.490688 
L 620.599124 66.96 
L 622.636364 86.951325 
L 622.636364 86.951325 
" clip-path="url(#p1bcda85930)" style="fill: none; stroke: #d00000; stroke-width: 1.5; stroke-linecap: square"/>
   </g>
   <g id="line2d_32">
    <path d="M 115.363636 349.172627 
L 117.400876 338.270077 
L 119.438116 226.748187 
L 121.475356 222.163259 
L 123.512596 226.089532 
L 125.549836 213.122053 
L 127.587076 222.111935 
L 129.624315 241.61499 
L 131.661555 230.836986 
L 133.698795 238.915356 
L 135.736035 226.178835 
L 137.773275 235.635764 
L 139.810515 224.447169 
L 141.847755 217.261833 
L 143.884995 223.369369 
L 145.922234 214.285051 
L 147.959474 217.005214 
L 149.996714 223.420692 
L 152.033954 228.193809 
L 154.071194 228.501752 
L 156.108434 236.456945 
L 158.145674 222.779145 
L 160.182913 229.656538 
L 162.220153 225.909898 
L 164.257393 231.863462 
L 166.294633 218.331079 
L 168.331873 219.956334 
L 170.369113 222.111935 
L 172.406353 236.944521 
L 174.443593 236.082281 
L 176.480832 226.756741 
L 178.518072 198.374664 
L 180.555312 217.778151 
L 182.592552 209.944081 
L 184.629792 220.783674 
L 186.667032 206.868758 
L 188.704272 210.795031 
L 190.741512 220.403585 
L 192.778751 191.108394 
L 194.815991 181.835047 
L 196.853231 203.572627 
L 198.890471 117.695686 
L 200.927711 112.219294 
L 202.964951 135.123593 
L 205.002191 200.86387 
L 207.03943 70.505506 
L 209.07667 85.886009 
L 211.11391 106.127017 
L 213.15115 79.427529 
L 215.18839 76.065125 
L 217.22563 66.96 
L 229.449069 66.96 
L 231.486309 77.24696 
L 233.523549 81.658035 
L 235.560789 66.96 
L 237.598028 73.385189 
L 239.635268 186.595845 
L 241.672508 77.138326 
L 243.709748 99.402208 
L 245.746988 102.065499 
L 247.784228 74.650252 
L 249.821468 130.190957 
L 251.858708 101.033474 
L 253.895947 83.977901 
L 255.933187 76.181644 
L 257.970427 70.505506 
L 260.007667 71.520885 
L 262.044907 66.96 
L 272.231106 66.96 
L 274.268346 70.172594 
L 276.305586 66.96 
L 280.380066 66.96 
L 282.417306 71.720632 
L 284.454545 69.310091 
L 286.491785 67.392785 
L 288.529025 66.96 
L 290.566265 66.96 
L 292.603505 71.076711 
L 294.640745 67.742342 
L 296.677985 79.01139 
L 298.715225 66.96 
L 304.826944 66.96 
L 306.864184 72.053543 
L 308.901424 71.620759 
L 310.938664 66.96 
L 331.311062 66.96 
L 333.348302 69.972847 
L 335.385542 66.96 
L 337.422782 66.96 
L 339.460022 81.092086 
L 341.497262 66.96 
L 347.608981 66.96 
L 349.646221 80.492845 
L 351.683461 66.96 
L 363.9069 66.96 
L 365.94414 90.446894 
L 367.98138 119.127204 
L 370.01862 83.70544 
L 372.05586 66.96 
L 374.0931 91.728602 
L 376.13034 90.729868 
L 378.167579 66.96 
L 475.955093 66.96 
L 477.992333 67.55924 
L 480.029573 88.732401 
L 482.066813 66.96 
L 492.253012 66.96 
L 494.290252 84.387908 
L 498.364732 66.96 
L 500.401972 93.913114 
L 502.439211 66.96 
L 504.476451 66.96 
L 506.513691 74.084302 
L 508.550931 67.059873 
L 510.588171 75.199555 
L 512.625411 95.756829 
L 514.662651 71.204619 
L 516.69989 110.02208 
L 518.73713 66.96 
L 520.77437 66.96 
L 522.81161 81.175313 
L 524.84885 66.96 
L 532.997809 66.96 
L 535.035049 69.073987 
L 537.072289 66.96 
L 539.109529 79.394238 
L 541.146769 95.157589 
L 543.184009 66.976646 
L 545.221249 66.96 
L 547.258488 69.040696 
L 549.295728 83.256009 
L 551.332968 94.558349 
L 553.370208 91.011967 
L 555.407448 73.185442 
L 557.444688 95.128678 
L 559.481928 74.31734 
L 561.519168 88.882211 
L 563.556407 97.721006 
L 565.593647 88.183097 
L 567.630887 73.085568 
L 569.668127 92.777273 
L 571.705367 78.878225 
L 573.742607 66.96 
L 575.779847 66.96 
L 577.817087 67.093165 
L 579.854326 95.107652 
L 581.891566 100.639237 
L 583.928806 84.504427 
L 585.966046 79.028035 
L 588.003286 106.441531 
L 590.040526 66.96 
L 604.301205 66.96 
L 606.338445 81.574807 
L 608.375685 90.113982 
L 610.412924 88.416135 
L 612.450164 93.57626 
L 614.487404 192.754705 
L 616.524644 83.555629 
L 618.561884 66.96 
L 620.599124 88.366198 
L 622.636364 66.96 
L 622.636364 66.96 
" clip-path="url(#p1bcda85930)" style="fill: none; stroke: #38b000; stroke-width: 1.5; stroke-linecap: square"/>
   </g>
   <g id="line2d_33">
    <path d="M 115.363636 353.116008 
L 117.400876 335.819878 
L 119.438116 257.063462 
L 121.475356 251.725784 
L 123.512596 262.385349 
L 125.549836 259.655316 
L 127.587076 266.840652 
L 129.624315 252.085051 
L 131.661555 173.258585 
L 133.698795 224.652464 
L 135.736035 230.477719 
L 137.773275 231.735153 
L 139.810515 214.208065 
L 141.847755 212.65398 
L 143.884995 216.132709 
L 145.922234 213.412546 
L 147.959474 212.078126 
L 149.996714 209.357963 
L 152.033954 213.232912 
L 154.071194 217.698086 
L 156.108434 214.592994 
L 160.182913 194.781996 
L 162.220153 193.036986 
L 164.257393 186.210916 
L 166.294633 187.519674 
L 168.331873 191.959185 
L 170.369113 169.145743 
L 172.406353 197.938411 
L 174.443593 159.933116 
L 176.480832 159.933116 
L 178.518072 106.79284 
L 180.555312 104.31265 
L 184.629792 74.417214 
L 186.667032 67.25962 
L 188.704272 78.062593 
L 190.741512 67.609177 
L 192.778751 69.107278 
L 194.815991 66.96 
L 196.853231 66.96 
L 198.890471 69.88962 
L 200.927711 66.96 
L 209.07667 66.96 
L 211.11391 75.096178 
L 213.15115 66.96 
L 231.486309 66.96 
L 233.523549 90.679932 
L 235.560789 85.76949 
L 237.598028 66.96 
L 241.672508 66.96 
L 243.709748 80.442909 
L 245.746988 77.380124 
L 247.784228 66.96 
L 249.821468 72.819239 
L 251.858708 85.170249 
L 253.895947 71.287847 
L 255.933187 97.188348 
L 257.970427 80.817434 
L 260.007667 67.426076 
L 262.044907 79.01139 
L 264.082147 85.153604 
L 266.119387 81.691326 
L 268.156627 81.676433 
L 270.193866 84.415504 
L 272.231106 76.631074 
L 274.268346 78.345567 
L 276.305586 76.631074 
L 278.342826 66.96 
L 280.380066 75.449239 
L 282.417306 66.96 
L 284.454545 66.96 
L 286.491785 68.87424 
L 288.529025 66.96 
L 296.677985 66.96 
L 298.715225 67.476013 
L 300.752464 66.96 
L 302.789704 66.96 
L 304.826944 68.42481 
L 306.864184 66.96 
L 308.901424 67.059873 
L 312.975904 66.96 
L 315.013143 66.96 
L 317.050383 74.866644 
L 319.087623 66.96 
L 508.550931 66.96 
L 510.588171 67.342848 
L 512.625411 66.96 
L 516.69989 66.96 
L 518.73713 68.607911 
L 520.77437 66.96 
L 522.81161 66.96 
L 524.84885 68.890886 
L 526.88609 66.96 
L 539.109529 66.96 
L 541.146769 74.134239 
L 543.184009 74.733479 
L 545.221249 71.554176 
L 547.258488 66.96 
L 549.295728 66.96 
L 551.332968 75.698922 
L 553.370208 80.526136 
L 555.407448 74.383922 
L 557.444688 74.217467 
L 559.481928 71.787214 
L 561.519168 69.989493 
L 563.556407 70.405632 
L 565.593647 67.592532 
L 567.630887 69.406898 
L 569.668127 66.96 
L 573.742607 66.96 
L 575.779847 68.674493 
L 577.817087 66.96 
L 579.854326 74.051011 
L 581.891566 67.542595 
L 583.928806 67.692405 
L 585.966046 67.376139 
L 588.003286 74.001074 
L 590.040526 68.008671 
L 592.077766 75.349365 
L 594.115005 78.462086 
L 596.152245 70.538797 
L 598.189485 67.527263 
L 600.226725 66.96 
L 602.263965 72.752657 
L 604.301205 77.932494 
L 606.338445 69.839683 
L 608.375685 66.96 
L 610.412924 72.319872 
L 612.450164 67.492658 
L 614.487404 66.96 
L 622.636364 66.96 
L 622.636364 66.96 
" clip-path="url(#p1bcda85930)" style="fill: none; stroke: #023e8a; stroke-width: 1.5; stroke-linecap: square"/>
   </g>
   <g id="patch_3">
    <path d="M 90 384.48 
L 90 51.84 
" style="fill: none; stroke: #000000; stroke-width: 0.8; stroke-linejoin: miter; stroke-linecap: square"/>
   </g>
   <g id="patch_4">
    <path d="M 648 384.48 
L 648 51.84 
" style="fill: none; stroke: #000000; stroke-width: 0.8; stroke-linejoin: miter; stroke-linecap: square"/>
   </g>
   <g id="patch_5">
    <path d="M 90 384.48 
L 648 384.48 
" style="fill: none; stroke: #000000; stroke-width: 0.8; stroke-linejoin: miter; stroke-linecap: square"/>
   </g>
   <g id="patch_6">
    <path d="M 90 51.84 
L 648 51.84 
" style="fill: none; stroke: #000000; stroke-width: 0.8; stroke-linejoin: miter; stroke-linecap: square"/>
   </g>
   <g id="text_18">
    <!-- Cartpole Continuous OnPolicy Training Progress -->
    <g transform="translate(226.909688 45.84) scale(0.12 -0.12)">
     <defs>
      <path id="DejaVuSans-43" d="M 4122 4306 
L 4122 3641 
Q 3803 3938 3442 4084 
Q 3081 4231 2675 4231 
Q 1875 4231 1450 3742 
Q 1025 3253 1025 2328 
Q 1025 1406 1450 917 
Q 1875 428 2675 428 
Q 3081 428 3442 575 
Q 3803 722 4122 1019 
L 4122 359 
Q 3791 134 3420 21 
Q 3050 -91 2638 -91 
Q 1578 -91 968 557 
Q 359 1206 359 2328 
Q 359 3453 968 4101 
Q 1578 4750 2638 4750 
Q 3056 4750 3426 4639 
Q 3797 4528 4122 4306 
z
" transform="scale(0.015625)"/>
      <path id="DejaVuSans-6f" d="M 1959 3097 
Q 1497 3097 1228 2736 
Q 959 2375 959 1747 
Q 959 1119 1226 758 
Q 1494 397 1959 397 
Q 2419 397 2687 759 
Q 2956 1122 2956 1747 
Q 2956 2369 2687 2733 
Q 2419 3097 1959 3097 
z
M 1959 3584 
Q 2709 3584 3137 3096 
Q 3566 2609 3566 1747 
Q 3566 888 3137 398 
Q 2709 -91 1959 -91 
Q 1206 -91 779 398 
Q 353 888 353 1747 
Q 353 2609 779 3096 
Q 1206 3584 1959 3584 
z
" transform="scale(0.015625)"/>
      <path id="DejaVuSans-6c" d="M 603 4863 
L 1178 4863 
L 1178 0 
L 603 0 
L 603 4863 
z
" transform="scale(0.015625)"/>
      <path id="DejaVuSans-4f" d="M 2522 4238 
Q 1834 4238 1429 3725 
Q 1025 3213 1025 2328 
Q 1025 1447 1429 934 
Q 1834 422 2522 422 
Q 3209 422 3611 934 
Q 4013 1447 4013 2328 
Q 4013 3213 3611 3725 
Q 3209 4238 2522 4238 
z
M 2522 4750 
Q 3503 4750 4090 4092 
Q 4678 3434 4678 2328 
Q 4678 1225 4090 567 
Q 3503 -91 2522 -91 
Q 1538 -91 948 565 
Q 359 1222 359 2328 
Q 359 3434 948 4092 
Q 1538 4750 2522 4750 
z
" transform="scale(0.015625)"/>
      <path id="DejaVuSans-50" d="M 1259 4147 
L 1259 2394 
L 2053 2394 
Q 2494 2394 2734 2622 
Q 2975 2850 2975 3272 
Q 2975 3691 2734 3919 
Q 2494 4147 2053 4147 
L 1259 4147 
z
M 628 4666 
L 2053 4666 
Q 2838 4666 3239 4311 
Q 3641 3956 3641 3272 
Q 3641 2581 3239 2228 
Q 2838 1875 2053 1875 
L 1259 1875 
L 1259 0 
L 628 0 
L 628 4666 
z
" transform="scale(0.015625)"/>
      <path id="DejaVuSans-63" d="M 3122 3366 
L 3122 2828 
Q 2878 2963 2633 3030 
Q 2388 3097 2138 3097 
Q 1578 3097 1268 2742 
Q 959 2388 959 1747 
Q 959 1106 1268 751 
Q 1578 397 2138 397 
Q 2388 397 2633 464 
Q 2878 531 3122 666 
L 3122 134 
Q 2881 22 2623 -34 
Q 2366 -91 2075 -91 
Q 1284 -91 818 406 
Q 353 903 353 1747 
Q 353 2603 823 3093 
Q 1294 3584 2113 3584 
Q 2378 3584 2631 3529 
Q 2884 3475 3122 3366 
z
" transform="scale(0.015625)"/>
      <path id="DejaVuSans-79" d="M 2059 -325 
Q 1816 -950 1584 -1140 
Q 1353 -1331 966 -1331 
L 506 -1331 
L 506 -850 
L 844 -850 
Q 1081 -850 1212 -737 
Q 1344 -625 1503 -206 
L 1606 56 
L 191 3500 
L 800 3500 
L 1894 763 
L 2988 3500 
L 3597 3500 
L 2059 -325 
z
" transform="scale(0.015625)"/>
     </defs>
     <use xlink:href="#DejaVuSans-43"/>
     <use xlink:href="#DejaVuSans-61" transform="translate(69.824219 0)"/>
     <use xlink:href="#DejaVuSans-72" transform="translate(131.103516 0)"/>
     <use xlink:href="#DejaVuSans-74" transform="translate(172.216797 0)"/>
     <use xlink:href="#DejaVuSans-70" transform="translate(211.425781 0)"/>
     <use xlink:href="#DejaVuSans-6f" transform="translate(274.902344 0)"/>
     <use xlink:href="#DejaVuSans-6c" transform="translate(336.083984 0)"/>
     <use xlink:href="#DejaVuSans-65" transform="translate(363.867188 0)"/>
     <use xlink:href="#DejaVuSans-20" transform="translate(425.390625 0)"/>
     <use xlink:href="#DejaVuSans-43" transform="translate(457.177734 0)"/>
     <use xlink:href="#DejaVuSans-6f" transform="translate(527.001953 0)"/>
     <use xlink:href="#DejaVuSans-6e" transform="translate(588.183594 0)"/>
     <use xlink:href="#DejaVuSans-74" transform="translate(651.5625 0)"/>
     <use xlink:href="#DejaVuSans-69" transform="translate(690.771484 0)"/>
     <use xlink:href="#DejaVuSans-6e" transform="translate(718.554688 0)"/>
     <use xlink:href="#DejaVuSans-75" transform="translate(781.933594 0)"/>
     <use xlink:href="#DejaVuSans-6f" transform="translate(845.3125 0)"/>
     <use xlink:href="#DejaVuSans-75" transform="translate(906.494141 0)"/>
     <use xlink:href="#DejaVuSans-73" transform="translate(969.873047 0)"/>
     <use xlink:href="#DejaVuSans-20" transform="translate(1021.972656 0)"/>
     <use xlink:href="#DejaVuSans-4f" transform="translate(1053.759766 0)"/>
     <use xlink:href="#DejaVuSans-6e" transform="translate(1132.470703 0)"/>
     <use xlink:href="#DejaVuSans-50" transform="translate(1195.849609 0)"/>
     <use xlink:href="#DejaVuSans-6f" transform="translate(1252.527344 0)"/>
     <use xlink:href="#DejaVuSans-6c" transform="translate(1313.708984 0)"/>
     <use xlink:href="#DejaVuSans-69" transform="translate(1341.492188 0)"/>
     <use xlink:href="#DejaVuSans-63" transform="translate(1369.275391 0)"/>
     <use xlink:href="#DejaVuSans-79" transform="translate(1424.255859 0)"/>
     <use xlink:href="#DejaVuSans-20" transform="translate(1483.435547 0)"/>
     <use xlink:href="#DejaVuSans-54" transform="translate(1515.222656 0)"/>
     <use xlink:href="#DejaVuSans-72" transform="translate(1561.556641 0)"/>
     <use xlink:href="#DejaVuSans-61" transform="translate(1602.669922 0)"/>
     <use xlink:href="#DejaVuSans-69" transform="translate(1663.949219 0)"/>
     <use xlink:href="#DejaVuSans-6e" transform="translate(1691.732422 0)"/>
     <use xlink:href="#DejaVuSans-69" transform="translate(1755.111328 0)"/>
     <use xlink:href="#DejaVuSans-6e" transform="translate(1782.894531 0)"/>
     <use xlink:href="#DejaVuSans-67" transform="translate(1846.273438 0)"/>
     <use xlink:href="#DejaVuSans-20" transform="translate(1909.75 0)"/>
     <use xlink:href="#DejaVuSans-50" transform="translate(1941.537109 0)"/>
     <use xlink:href="#DejaVuSans-72" transform="translate(2000.089844 0)"/>
     <use xlink:href="#DejaVuSans-6f" transform="translate(2038.953125 0)"/>
     <use xlink:href="#DejaVuSans-67" transform="translate(2100.134766 0)"/>
     <use xlink:href="#DejaVuSans-72" transform="translate(2163.611328 0)"/>
     <use xlink:href="#DejaVuSans-65" transform="translate(2202.474609 0)"/>
     <use xlink:href="#DejaVuSans-73" transform="translate(2263.998047 0)"/>
     <use xlink:href="#DejaVuSans-73" transform="translate(2316.097656 0)"/>
    </g>
   </g>
   <g id="legend_1">
    <g id="patch_7">
     <path d="M 557.19375 379.48 
L 641 379.48 
Q 643 379.48 643 377.48 
L 643 334.445625 
Q 643 332.445625 641 332.445625 
L 557.19375 332.445625 
Q 555.19375 332.445625 555.19375 334.445625 
L 555.19375 377.48 
Q 555.19375 379.48 557.19375 379.48 
z
" style="fill: #ffffff; opacity: 0.8; stroke: #cccccc; stroke-linejoin: miter"/>
    </g>
    <g id="line2d_34">
     <path d="M 559.19375 340.544062 
L 569.19375 340.544062 
L 579.19375 340.544062 
" style="fill: none; stroke: #d00000; stroke-width: 1.5; stroke-linecap: square"/>
    </g>
    <g id="text_19">
     <!-- DDPG IQM -->
     <g transform="translate(587.19375 344.044062) scale(0.1 -0.1)">
      <defs>
       <path id="DejaVuSans-44" d="M 1259 4147 
L 1259 519 
L 2022 519 
Q 2988 519 3436 956 
Q 3884 1394 3884 2338 
Q 3884 3275 3436 3711 
Q 2988 4147 2022 4147 
L 1259 4147 
z
M 628 4666 
L 1925 4666 
Q 3281 4666 3915 4102 
Q 4550 3538 4550 2338 
Q 4550 1131 3912 565 
Q 3275 0 1925 0 
L 628 0 
L 628 4666 
z
" transform="scale(0.015625)"/>
       <path id="DejaVuSans-47" d="M 3809 666 
L 3809 1919 
L 2778 1919 
L 2778 2438 
L 4434 2438 
L 4434 434 
Q 4069 175 3628 42 
Q 3188 -91 2688 -91 
Q 1594 -91 976 548 
Q 359 1188 359 2328 
Q 359 3472 976 4111 
Q 1594 4750 2688 4750 
Q 3144 4750 3555 4637 
Q 3966 4525 4313 4306 
L 4313 3634 
Q 3963 3931 3569 4081 
Q 3175 4231 2741 4231 
Q 1884 4231 1454 3753 
Q 1025 3275 1025 2328 
Q 1025 1384 1454 906 
Q 1884 428 2741 428 
Q 3075 428 3337 486 
Q 3600 544 3809 666 
z
" transform="scale(0.015625)"/>
       <path id="DejaVuSans-49" d="M 628 4666 
L 1259 4666 
L 1259 0 
L 628 0 
L 628 4666 
z
" transform="scale(0.015625)"/>
       <path id="DejaVuSans-51" d="M 2522 4238 
Q 1834 4238 1429 3725 
Q 1025 3213 1025 2328 
Q 1025 1447 1429 934 
Q 1834 422 2522 422 
Q 3209 422 3611 934 
Q 4013 1447 4013 2328 
Q 4013 3213 3611 3725 
Q 3209 4238 2522 4238 
z
M 3406 84 
L 4238 -825 
L 3475 -825 
L 2784 -78 
Q 2681 -84 2626 -87 
Q 2572 -91 2522 -91 
Q 1538 -91 948 567 
Q 359 1225 359 2328 
Q 359 3434 948 4092 
Q 1538 4750 2522 4750 
Q 3503 4750 4090 4092 
Q 4678 3434 4678 2328 
Q 4678 1516 4351 937 
Q 4025 359 3406 84 
z
" transform="scale(0.015625)"/>
       <path id="DejaVuSans-4d" d="M 628 4666 
L 1569 4666 
L 2759 1491 
L 3956 4666 
L 4897 4666 
L 4897 0 
L 4281 0 
L 4281 4097 
L 3078 897 
L 2444 897 
L 1241 4097 
L 1241 0 
L 628 0 
L 628 4666 
z
" transform="scale(0.015625)"/>
      </defs>
      <use xlink:href="#DejaVuSans-44"/>
      <use xlink:href="#DejaVuSans-44" transform="translate(77.001953 0)"/>
      <use xlink:href="#DejaVuSans-50" transform="translate(154.003906 0)"/>
      <use xlink:href="#DejaVuSans-47" transform="translate(214.306641 0)"/>
      <use xlink:href="#DejaVuSans-20" transform="translate(291.796875 0)"/>
      <use xlink:href="#DejaVuSans-49" transform="translate(323.583984 0)"/>
      <use xlink:href="#DejaVuSans-51" transform="translate(353.076172 0)"/>
      <use xlink:href="#DejaVuSans-4d" transform="translate(431.787109 0)"/>
     </g>
    </g>
    <g id="line2d_35">
     <path d="M 559.19375 355.222188 
L 569.19375 355.222188 
L 579.19375 355.222188 
" style="fill: none; stroke: #38b000; stroke-width: 1.5; stroke-linecap: square"/>
    </g>
    <g id="text_20">
     <!-- SAC IQM -->
     <g transform="translate(587.19375 358.722188) scale(0.1 -0.1)">
      <defs>
       <path id="DejaVuSans-41" d="M 2188 4044 
L 1331 1722 
L 3047 1722 
L 2188 4044 
z
M 1831 4666 
L 2547 4666 
L 4325 0 
L 3669 0 
L 3244 1197 
L 1141 1197 
L 716 0 
L 50 0 
L 1831 4666 
z
" transform="scale(0.015625)"/>
      </defs>
      <use xlink:href="#DejaVuSans-53"/>
      <use xlink:href="#DejaVuSans-41" transform="translate(65.351562 0)"/>
      <use xlink:href="#DejaVuSans-43" transform="translate(132.009766 0)"/>
      <use xlink:href="#DejaVuSans-20" transform="translate(201.833984 0)"/>
      <use xlink:href="#DejaVuSans-49" transform="translate(233.621094 0)"/>
      <use xlink:href="#DejaVuSans-51" transform="translate(263.113281 0)"/>
      <use xlink:href="#DejaVuSans-4d" transform="translate(341.824219 0)"/>
     </g>
    </g>
    <g id="line2d_36">
     <path d="M 559.19375 369.900312 
L 569.19375 369.900312 
L 579.19375 369.900312 
" style="fill: none; stroke: #023e8a; stroke-width: 1.5; stroke-linecap: square"/>
    </g>
    <g id="text_21">
     <!-- AFU IQM -->
     <g transform="translate(587.19375 373.400312) scale(0.1 -0.1)">
      <defs>
       <path id="DejaVuSans-46" d="M 628 4666 
L 3309 4666 
L 3309 4134 
L 1259 4134 
L 1259 2759 
L 3109 2759 
L 3109 2228 
L 1259 2228 
L 1259 0 
L 628 0 
L 628 4666 
z
" transform="scale(0.015625)"/>
       <path id="DejaVuSans-55" d="M 556 4666 
L 1191 4666 
L 1191 1831 
Q 1191 1081 1462 751 
Q 1734 422 2344 422 
Q 2950 422 3222 751 
Q 3494 1081 3494 1831 
L 3494 4666 
L 4128 4666 
L 4128 1753 
Q 4128 841 3676 375 
Q 3225 -91 2344 -91 
Q 1459 -91 1007 375 
Q 556 841 556 1753 
L 556 4666 
z
" transform="scale(0.015625)"/>
      </defs>
      <use xlink:href="#DejaVuSans-41"/>
      <use xlink:href="#DejaVuSans-46" transform="translate(68.408203 0)"/>
      <use xlink:href="#DejaVuSans-55" transform="translate(125.927734 0)"/>
      <use xlink:href="#DejaVuSans-20" transform="translate(199.121094 0)"/>
      <use xlink:href="#DejaVuSans-49" transform="translate(230.908203 0)"/>
      <use xlink:href="#DejaVuSans-51" transform="translate(260.400391 0)"/>
      <use xlink:href="#DejaVuSans-4d" transform="translate(339.111328 0)"/>
     </g>
    </g>
   </g>
  </g>
 </g>
 <defs>
  <clipPath id="p1bcda85930">
   <rect x="90" y="51.84" width="558" height="332.64"/>
  </clipPath>
 </defs>
</svg>
