<?xml version="1.0" encoding="utf-8" standalone="no"?>
<!DOCTYPE svg PUBLIC "-//W3C//DTD SVG 1.1//EN"
  "http://www.w3.org/Graphics/SVG/1.1/DTD/svg11.dtd">
<svg xmlns:xlink="http://www.w3.org/1999/xlink" width="425.411147pt" height="426.4pt" viewBox="0 0 425.411147 426.4" xmlns="http://www.w3.org/2000/svg" version="1.1">
 <metadata>
  <rdf:RDF xmlns:dc="http://purl.org/dc/elements/1.1/" xmlns:cc="http://creativecommons.org/ns#" xmlns:rdf="http://www.w3.org/1999/02/22-rdf-syntax-ns#">
   <cc:Work>
    <dc:type rdf:resource="http://purl.org/dc/dcmitype/StillImage"/>
    <dc:date>1980-01-01T00:00:00+00:00</dc:date>
    <dc:format>image/svg+xml</dc:format>
    <dc:creator>
     <cc:Agent>
      <dc:title>Matplotlib v3.8.0, https://matplotlib.org/</dc:title>
     </cc:Agent>
    </dc:creator>
   </cc:Work>
  </rdf:RDF>
 </metadata>
 <defs>
  <style type="text/css">*{stroke-linejoin: round; stroke-linecap: butt}</style>
 </defs>
 <g id="figure_1">
  <g id="patch_1">
   <path d="M 0 426.4 
L 425.411147 426.4 
L 425.411147 0 
L 0 0 
z
" style="fill: #ffffff"/>
  </g>
  <g id="axes_1">
   <g id="patch_2">
    <path d="M 59.324591 376.318305 
L 417.523879 376.318305 
L 417.523879 7.2 
L 59.324591 7.2 
z
" style="fill: #ffffff"/>
   </g>
   <g id="PolyCollection_1">
    <defs>
     <path id="md0eb4f599d" d="M 75.606377 -96.247111 
L 75.606377 -84.628872 
L 76.914151 -88.046001 
L 78.221925 -197.394138 
L 79.529699 -204.228397 
L 80.837473 -207.816383 
L 82.145247 -209.012378 
L 83.453021 -204.57011 
L 84.760795 -194.831291 
L 86.068569 -205.424392 
L 87.376343 -197.394138 
L 88.684117 -205.082679 
L 89.991891 -200.298698 
L 91.299665 -207.987239 
L 92.607439 -215.504923 
L 93.915213 -202.519832 
L 95.222987 -209.524947 
L 96.530761 -207.645526 
L 97.838535 -206.107818 
L 99.146309 -196.710712 
L 100.454082 -193.293583 
L 101.761856 -199.615272 
L 103.06963 -207.816383 
L 104.377404 -202.348976 
L 105.685178 -209.183234 
L 106.992952 -208.499808 
L 108.300726 -217.213488 
L 109.6085 -208.499808 
L 110.916274 -216.700919 
L 112.224048 -205.082679 
L 113.531822 -198.76099 
L 114.839596 -211.233512 
L 116.14737 -210.550086 
L 117.455144 -211.746081 
L 118.762918 -213.796359 
L 120.070692 -192.95187 
L 121.378466 -210.720942 
L 122.68624 -221.655756 
L 123.994014 -216.530062 
L 125.301788 -232.248857 
L 126.609562 -231.565431 
L 127.917336 -172.790807 
L 129.22511 -161.514281 
L 130.532884 -194.660435 
L 131.840658 -218.58034 
L 133.148432 -222.851751 
L 134.456205 -307.083988 
L 135.763979 -282.993227 
L 137.071753 -265.224155 
L 138.379527 -298.028596 
L 139.687301 -340.400999 
L 140.995075 -402.421895 
L 142.302849 -402.421895 
L 143.610623 -402.421895 
L 144.918397 -402.421895 
L 146.226171 -402.421895 
L 147.533945 -402.421895 
L 148.841719 -402.421895 
L 150.149493 -326.049056 
L 151.457267 -295.465749 
L 152.765041 -402.421895 
L 154.072815 -331.858176 
L 155.380589 -246.771656 
L 156.688363 -319.043941 
L 157.996137 -262.148738 
L 159.303911 -276.671538 
L 160.611685 -354.923798 
L 161.919459 -314.089103 
L 163.227233 -291.53605 
L 164.535007 -329.978754 
L 165.842781 -328.099333 
L 167.150555 -376.793426 
L 168.458328 -367.567177 
L 169.766102 -402.421895 
L 171.073876 -402.421895 
L 172.38165 -402.421895 
L 173.689424 -402.421895 
L 174.997198 -402.421895 
L 176.304972 -402.421895 
L 177.612746 -370.984306 
L 178.92052 -402.421895 
L 180.228294 -402.421895 
L 181.536068 -402.421895 
L 182.843842 -343.476415 
L 184.151616 -366.200325 
L 185.45939 -350.310674 
L 186.767164 -402.421895 
L 188.074938 -402.421895 
L 189.382712 -370.30088 
L 190.690486 -358.511784 
L 191.99826 -328.27019 
L 193.306034 -402.421895 
L 194.613808 -402.421895 
L 195.921582 -402.421895 
L 197.229356 -402.421895 
L 198.53713 -292.048619 
L 199.844904 -333.225027 
L 201.152678 -402.421895 
L 202.460451 -402.421895 
L 203.768225 -402.421895 
L 205.075999 -402.421895 
L 206.383773 -402.421895 
L 207.691547 -402.421895 
L 208.999321 -402.421895 
L 210.307095 -379.868842 
L 211.614869 -402.421895 
L 212.922643 -402.421895 
L 214.230417 -402.421895 
L 215.538191 -341.426138 
L 216.845965 -402.421895 
L 218.153739 -402.421895 
L 219.461513 -335.787874 
L 220.769287 -402.421895 
L 222.077061 -402.421895 
L 223.384835 -402.421895 
L 224.692609 -402.421895 
L 226.000383 -310.330261 
L 227.308157 -402.421895 
L 228.615931 -402.421895 
L 229.923705 -402.421895 
L 231.231479 -402.421895 
L 232.539253 -397.808771 
L 233.847027 -402.421895 
L 235.154801 -402.421895 
L 236.462574 -251.213924 
L 237.770348 -243.867096 
L 239.078122 -291.194337 
L 240.385896 -402.421895 
L 241.69367 -248.821934 
L 243.001444 -236.691125 
L 244.309218 -402.421895 
L 245.616992 -402.421895 
L 246.924766 -402.421895 
L 248.23254 -402.421895 
L 249.540314 -402.421895 
L 250.848088 -402.421895 
L 252.155862 -402.421895 
L 253.463636 -402.421895 
L 254.77141 -402.421895 
L 256.079184 -402.421895 
L 257.386958 -402.421895 
L 258.694732 -402.421895 
L 260.002506 -402.421895 
L 261.31028 -402.421895 
L 262.618054 -402.421895 
L 263.925828 -402.421895 
L 265.233602 -402.421895 
L 266.541376 -402.421895 
L 267.84915 -402.421895 
L 269.156924 -402.421895 
L 270.464697 -402.421895 
L 271.772471 -402.421895 
L 273.080245 -402.421895 
L 274.388019 -402.421895 
L 275.695793 -402.421895 
L 277.003567 -402.421895 
L 278.311341 -402.421895 
L 279.619115 -402.421895 
L 280.926889 -402.421895 
L 282.234663 -402.421895 
L 283.542437 -402.421895 
L 284.850211 -402.421895 
L 286.157985 -402.421895 
L 287.465759 -402.421895 
L 288.773533 -402.421895 
L 290.081307 -402.421895 
L 291.389081 -402.421895 
L 292.696855 -402.421895 
L 294.004629 -402.421895 
L 295.312403 -402.421895 
L 296.620177 -402.421895 
L 297.927951 -402.421895 
L 299.235725 -402.421895 
L 300.543499 -402.421895 
L 301.851273 -402.421895 
L 303.159047 -402.421895 
L 304.46682 -402.421895 
L 305.774594 -402.421895 
L 307.082368 -402.421895 
L 308.390142 -385.507105 
L 309.697916 -313.234821 
L 311.00569 -402.421895 
L 312.313464 -402.421895 
L 313.621238 -402.421895 
L 314.929012 -402.421895 
L 316.236786 -402.421895 
L 317.54456 -402.421895 
L 318.852334 -292.048619 
L 320.160108 -275.133829 
L 321.467882 -402.421895 
L 322.775656 -255.485336 
L 324.08343 -402.421895 
L 325.391204 -402.421895 
L 326.698978 -350.310674 
L 328.006752 -371.667732 
L 329.314526 -352.360951 
L 330.6223 -270.349848 
L 331.930074 -328.441046 
L 333.237848 -268.641284 
L 334.545622 -402.421895 
L 335.853396 -402.421895 
L 337.16117 -302.64172 
L 338.468943 -402.421895 
L 339.776717 -402.421895 
L 341.084491 -402.421895 
L 342.392265 -402.421895 
L 343.700039 -402.421895 
L 345.007813 -365.346043 
L 346.315587 -402.421895 
L 347.623361 -309.817692 
L 348.931135 -291.877763 
L 350.238909 -400.713331 
L 351.546683 -402.421895 
L 352.854457 -361.245487 
L 354.162231 -322.802783 
L 355.470005 -301.616581 
L 356.777779 -267.787001 
L 358.085553 -328.611903 
L 359.393327 -252.068207 
L 360.701101 -341.426138 
L 362.008875 -288.802347 
L 363.316649 -257.364757 
L 364.624423 -268.982997 
L 365.932197 -279.234385 
L 367.239971 -269.153853 
L 368.547745 -313.74739 
L 369.855519 -402.421895 
L 371.163293 -402.421895 
L 372.471066 -385.848818 
L 373.77884 -223.364321 
L 375.086614 -252.068207 
L 376.394388 -337.838152 
L 377.702162 -279.91781 
L 379.009936 -271.204131 
L 380.31771 -389.60766 
L 381.625484 -402.421895 
L 382.933258 -402.421895 
L 384.241032 -383.456828 
L 385.548806 -402.421895 
L 386.85658 -402.421895 
L 388.164354 -402.421895 
L 389.472128 -402.421895 
L 390.779902 -260.269317 
L 392.087676 -322.119357 
L 393.39545 -262.661308 
L 394.703224 -233.273996 
L 396.010998 -236.520269 
L 397.318772 -285.556074 
L 398.626546 -402.421895 
L 399.93432 -247.284226 
L 401.242094 -402.421895 
L 401.242094 -402.421895 
L 401.242094 -402.421895 
L 399.93432 -402.421895 
L 398.626546 -402.421895 
L 397.318772 -402.421895 
L 396.010998 -298.712021 
L 394.703224 -402.421895 
L 393.39545 -402.421895 
L 392.087676 -402.421895 
L 390.779902 -402.421895 
L 389.472128 -402.421895 
L 388.164354 -402.421895 
L 386.85658 -402.421895 
L 385.548806 -402.421895 
L 384.241032 -402.421895 
L 382.933258 -402.421895 
L 381.625484 -402.421895 
L 380.31771 -402.421895 
L 379.009936 -402.421895 
L 377.702162 -402.421895 
L 376.394388 -402.421895 
L 375.086614 -402.421895 
L 373.77884 -402.421895 
L 372.471066 -402.421895 
L 371.163293 -402.421895 
L 369.855519 -402.421895 
L 368.547745 -402.421895 
L 367.239971 -402.421895 
L 365.932197 -402.421895 
L 364.624423 -402.421895 
L 363.316649 -402.421895 
L 362.008875 -402.421895 
L 360.701101 -402.421895 
L 359.393327 -402.421895 
L 358.085553 -402.421895 
L 356.777779 -402.421895 
L 355.470005 -402.421895 
L 354.162231 -402.421895 
L 352.854457 -402.421895 
L 351.546683 -402.421895 
L 350.238909 -402.421895 
L 348.931135 -402.421895 
L 347.623361 -402.421895 
L 346.315587 -402.421895 
L 345.007813 -402.421895 
L 343.700039 -402.421895 
L 342.392265 -402.421895 
L 341.084491 -402.421895 
L 339.776717 -402.421895 
L 338.468943 -402.421895 
L 337.16117 -402.421895 
L 335.853396 -402.421895 
L 334.545622 -402.421895 
L 333.237848 -402.421895 
L 331.930074 -402.421895 
L 330.6223 -402.421895 
L 329.314526 -402.421895 
L 328.006752 -402.421895 
L 326.698978 -402.421895 
L 325.391204 -402.421895 
L 324.08343 -402.421895 
L 322.775656 -402.421895 
L 321.467882 -402.421895 
L 320.160108 -402.421895 
L 318.852334 -402.421895 
L 317.54456 -402.421895 
L 316.236786 -402.421895 
L 314.929012 -402.421895 
L 313.621238 -402.421895 
L 312.313464 -402.421895 
L 311.00569 -402.421895 
L 309.697916 -402.421895 
L 308.390142 -402.421895 
L 307.082368 -402.421895 
L 305.774594 -402.421895 
L 304.46682 -402.421895 
L 303.159047 -402.421895 
L 301.851273 -402.421895 
L 300.543499 -402.421895 
L 299.235725 -402.421895 
L 297.927951 -402.421895 
L 296.620177 -402.421895 
L 295.312403 -402.421895 
L 294.004629 -402.421895 
L 292.696855 -402.421895 
L 291.389081 -402.421895 
L 290.081307 -402.421895 
L 288.773533 -402.421895 
L 287.465759 -402.421895 
L 286.157985 -402.421895 
L 284.850211 -402.421895 
L 283.542437 -402.421895 
L 282.234663 -402.421895 
L 280.926889 -402.421895 
L 279.619115 -402.421895 
L 278.311341 -402.421895 
L 277.003567 -402.421895 
L 275.695793 -402.421895 
L 274.388019 -402.421895 
L 273.080245 -402.421895 
L 271.772471 -402.421895 
L 270.464697 -402.421895 
L 269.156924 -402.421895 
L 267.84915 -402.421895 
L 266.541376 -402.421895 
L 265.233602 -402.421895 
L 263.925828 -402.421895 
L 262.618054 -402.421895 
L 261.31028 -402.421895 
L 260.002506 -402.421895 
L 258.694732 -402.421895 
L 257.386958 -402.421895 
L 256.079184 -402.421895 
L 254.77141 -402.421895 
L 253.463636 -402.421895 
L 252.155862 -402.421895 
L 250.848088 -402.421895 
L 249.540314 -402.421895 
L 248.23254 -402.421895 
L 246.924766 -402.421895 
L 245.616992 -402.421895 
L 244.309218 -402.421895 
L 243.001444 -402.421895 
L 241.69367 -402.421895 
L 240.385896 -402.421895 
L 239.078122 -402.421895 
L 237.770348 -402.421895 
L 236.462574 -402.421895 
L 235.154801 -402.421895 
L 233.847027 -402.421895 
L 232.539253 -402.421895 
L 231.231479 -402.421895 
L 229.923705 -402.421895 
L 228.615931 -402.421895 
L 227.308157 -402.421895 
L 226.000383 -402.421895 
L 224.692609 -402.421895 
L 223.384835 -402.421895 
L 222.077061 -402.421895 
L 220.769287 -402.421895 
L 219.461513 -402.421895 
L 218.153739 -402.421895 
L 216.845965 -402.421895 
L 215.538191 -402.421895 
L 214.230417 -402.421895 
L 212.922643 -402.421895 
L 211.614869 -402.421895 
L 210.307095 -402.421895 
L 208.999321 -402.421895 
L 207.691547 -402.421895 
L 206.383773 -402.421895 
L 205.075999 -402.421895 
L 203.768225 -402.421895 
L 202.460451 -402.421895 
L 201.152678 -402.421895 
L 199.844904 -402.421895 
L 198.53713 -402.421895 
L 197.229356 -402.421895 
L 195.921582 -402.421895 
L 194.613808 -402.421895 
L 193.306034 -402.421895 
L 191.99826 -402.421895 
L 190.690486 -402.421895 
L 189.382712 -402.421895 
L 188.074938 -402.421895 
L 186.767164 -402.421895 
L 185.45939 -402.421895 
L 184.151616 -402.421895 
L 182.843842 -402.421895 
L 181.536068 -402.421895 
L 180.228294 -402.421895 
L 178.92052 -402.421895 
L 177.612746 -402.421895 
L 176.304972 -402.421895 
L 174.997198 -402.421895 
L 173.689424 -402.421895 
L 172.38165 -402.421895 
L 171.073876 -402.421895 
L 169.766102 -402.421895 
L 168.458328 -402.421895 
L 167.150555 -402.421895 
L 165.842781 -402.421895 
L 164.535007 -402.421895 
L 163.227233 -402.421895 
L 161.919459 -359.19521 
L 160.611685 -402.421895 
L 159.303911 -402.421895 
L 157.996137 -402.421895 
L 156.688363 -402.421895 
L 155.380589 -355.436368 
L 154.072815 -402.421895 
L 152.765041 -402.421895 
L 151.457267 -402.421895 
L 150.149493 -402.421895 
L 148.841719 -402.421895 
L 147.533945 -402.421895 
L 146.226171 -402.421895 
L 144.918397 -402.421895 
L 143.610623 -402.421895 
L 142.302849 -402.421895 
L 140.995075 -402.421895 
L 139.687301 -402.421895 
L 138.379527 -402.421895 
L 137.071753 -402.421895 
L 135.763979 -402.421895 
L 134.456205 -402.421895 
L 133.148432 -333.054171 
L 131.840658 -402.421895 
L 130.532884 -402.421895 
L 129.22511 -402.421895 
L 127.917336 -299.908017 
L 126.609562 -300.591443 
L 125.301788 -295.807462 
L 123.994014 -256.168762 
L 122.68624 -269.837279 
L 121.378466 -279.746954 
L 120.070692 -296.490887 
L 118.762918 -278.380102 
L 117.455144 -263.51559 
L 116.14737 -314.601673 
L 114.839596 -242.500245 
L 113.531822 -248.651077 
L 112.224048 -234.811704 
L 110.916274 -247.113369 
L 109.6085 -261.977882 
L 108.300726 -257.023044 
L 106.992952 -232.078 
L 105.685178 -243.354527 
L 104.377404 -242.329388 
L 103.06963 -252.239063 
L 101.761856 -234.98256 
L 100.454082 -273.083552 
L 99.146309 -296.320031 
L 97.838535 -278.550959 
L 96.530761 -281.284662 
L 95.222987 -260.952743 
L 93.915213 -256.510475 
L 92.607439 -258.731609 
L 91.299665 -248.138508 
L 89.991891 -236.691125 
L 88.684117 -242.500245 
L 87.376343 -227.123163 
L 86.068569 -238.39969 
L 84.760795 -227.635732 
L 83.453021 -264.540729 
L 82.145247 -279.91781 
L 80.837473 -262.319595 
L 79.529699 -260.269317 
L 78.221925 -260.098461 
L 76.914151 -115.724748 
L 75.606377 -96.247111 
z
" style="stroke: #d66b6a; stroke-opacity: 0.2"/>
    </defs>
    <g clip-path="url(#p6ffd5e35a5)">
     <use xlink:href="#md0eb4f599d" x="0" y="426.4" style="fill: #d66b6a; fill-opacity: 0.2; stroke: #d66b6a; stroke-opacity: 0.2"/>
    </g>
   </g>
   <g id="PolyCollection_2">
    <defs>
     <path id="mf74d25f32a" d="M 75.606377 -92.488269 
L 75.606377 -81.382599 
L 76.914151 -96.417968 
L 78.221925 -174.328516 
L 79.529699 -172.449094 
L 80.837473 -167.323401 
L 82.145247 -175.011941 
L 83.453021 -164.247984 
L 84.760795 -169.886248 
L 86.068569 -175.866224 
L 87.376343 -172.107382 
L 88.684117 -182.187913 
L 89.991891 -183.042195 
L 91.299665 -183.213052 
L 92.607439 -208.158095 
L 93.915213 -205.082679 
L 95.222987 -213.283789 
L 96.530761 -208.841521 
L 97.838535 -207.816383 
L 99.146309 -205.936961 
L 100.454082 -216.700919 
L 101.761856 -223.706034 
L 103.06963 -223.706034 
L 104.377404 -230.198579 
L 105.685178 -230.540292 
L 106.992952 -247.113369 
L 108.300726 -242.158532 
L 109.6085 -203.203258 
L 110.916274 -255.997905 
L 112.224048 -210.891799 
L 113.531822 -260.269317 
L 114.839596 -233.444852 
L 116.14737 -279.91781 
L 117.455144 -274.108691 
L 118.762918 -305.033711 
L 120.070692 -335.275305 
L 121.378466 -377.989421 
L 122.68624 -325.194773 
L 123.994014 -381.40655 
L 125.301788 -370.130023 
L 126.609562 -402.421895 
L 127.917336 -402.421895 
L 129.22511 -343.988984 
L 130.532884 -402.421895 
L 131.840658 -402.421895 
L 133.148432 -402.421895 
L 134.456205 -402.421895 
L 135.763979 -402.421895 
L 137.071753 -350.48153 
L 138.379527 -402.421895 
L 139.687301 -402.421895 
L 140.995075 -402.421895 
L 142.302849 -402.421895 
L 143.610623 -402.421895 
L 144.918397 -402.421895 
L 146.226171 -402.421895 
L 147.533945 -402.421895 
L 148.841719 -402.421895 
L 150.149493 -402.421895 
L 151.457267 -245.063092 
L 152.765041 -241.645962 
L 154.072815 -402.421895 
L 155.380589 -402.421895 
L 156.688363 -363.466621 
L 157.996137 -264.711585 
L 159.303911 -317.335376 
L 160.611685 -402.421895 
L 161.919459 -314.943386 
L 163.227233 -249.676216 
L 164.535007 -341.255281 
L 165.842781 -255.656193 
L 167.150555 -323.827922 
L 168.458328 -394.049928 
L 169.766102 -300.420586 
L 171.073876 -286.922925 
L 172.38165 -299.395447 
L 173.689424 -308.109127 
L 174.997198 -308.109127 
L 176.304972 -343.134702 
L 177.612746 -331.17475 
L 178.92052 -337.838152 
L 180.228294 -402.421895 
L 181.536068 -335.446161 
L 182.843842 -402.421895 
L 184.151616 -402.421895 
L 185.45939 -371.838588 
L 186.767164 -402.421895 
L 188.074938 -402.421895 
L 189.382712 -402.421895 
L 190.690486 -402.421895 
L 191.99826 -402.421895 
L 193.306034 -376.622569 
L 194.613808 -402.421895 
L 195.921582 -402.421895 
L 197.229356 -347.918683 
L 198.53713 -402.421895 
L 199.844904 -373.20544 
L 201.152678 -402.421895 
L 202.460451 -402.421895 
L 203.768225 -402.421895 
L 205.075999 -344.501554 
L 206.383773 -402.421895 
L 207.691547 -402.421895 
L 208.999321 -402.421895 
L 210.307095 -402.421895 
L 211.614869 -402.421895 
L 212.922643 -402.421895 
L 214.230417 -402.421895 
L 215.538191 -402.421895 
L 216.845965 -402.421895 
L 218.153739 -402.421895 
L 219.461513 -402.421895 
L 220.769287 -402.421895 
L 222.077061 -402.421895 
L 223.384835 -402.421895 
L 224.692609 -402.421895 
L 226.000383 -402.421895 
L 227.308157 -402.421895 
L 228.615931 -402.421895 
L 229.923705 -402.421895 
L 231.231479 -402.421895 
L 232.539253 -402.421895 
L 233.847027 -402.421895 
L 235.154801 -402.421895 
L 236.462574 -402.421895 
L 237.770348 -402.421895 
L 239.078122 -402.421895 
L 240.385896 -402.421895 
L 241.69367 -402.421895 
L 243.001444 -402.421895 
L 244.309218 -402.421895 
L 245.616992 -402.421895 
L 246.924766 -402.421895 
L 248.23254 -402.421895 
L 249.540314 -402.421895 
L 250.848088 -402.421895 
L 252.155862 -402.421895 
L 253.463636 -402.421895 
L 254.77141 -402.421895 
L 256.079184 -402.421895 
L 257.386958 -402.421895 
L 258.694732 -402.421895 
L 260.002506 -402.421895 
L 261.31028 -402.421895 
L 262.618054 -402.421895 
L 263.925828 -402.421895 
L 265.233602 -402.421895 
L 266.541376 -402.421895 
L 267.84915 -402.421895 
L 269.156924 -402.421895 
L 270.464697 -402.421895 
L 271.772471 -402.421895 
L 273.080245 -402.421895 
L 274.388019 -402.421895 
L 275.695793 -402.421895 
L 277.003567 -402.421895 
L 278.311341 -402.421895 
L 279.619115 -402.421895 
L 280.926889 -402.421895 
L 282.234663 -402.421895 
L 283.542437 -402.421895 
L 284.850211 -402.421895 
L 286.157985 -402.421895 
L 287.465759 -402.421895 
L 288.773533 -402.421895 
L 290.081307 -402.421895 
L 291.389081 -402.421895 
L 292.696855 -402.421895 
L 294.004629 -402.421895 
L 295.312403 -402.421895 
L 296.620177 -402.421895 
L 297.927951 -402.421895 
L 299.235725 -402.421895 
L 300.543499 -402.421895 
L 301.851273 -402.421895 
L 303.159047 -402.421895 
L 304.46682 -402.421895 
L 305.774594 -402.421895 
L 307.082368 -402.421895 
L 308.390142 -402.421895 
L 309.697916 -402.421895 
L 311.00569 -402.421895 
L 312.313464 -402.421895 
L 313.621238 -402.421895 
L 314.929012 -402.421895 
L 316.236786 -402.421895 
L 317.54456 -402.421895 
L 318.852334 -402.421895 
L 320.160108 -402.421895 
L 321.467882 -402.421895 
L 322.775656 -402.421895 
L 324.08343 -402.421895 
L 325.391204 -402.421895 
L 326.698978 -402.421895 
L 328.006752 -402.421895 
L 329.314526 -387.386526 
L 330.6223 -402.421895 
L 331.930074 -402.421895 
L 333.237848 -402.421895 
L 334.545622 -325.707343 
L 335.853396 -357.828358 
L 337.16117 -402.421895 
L 338.468943 -321.606788 
L 339.776717 -402.421895 
L 341.084491 -402.421895 
L 342.392265 -402.421895 
L 343.700039 -402.421895 
L 345.007813 -402.421895 
L 346.315587 -402.421895 
L 347.623361 -402.421895 
L 348.931135 -351.506669 
L 350.238909 -311.184543 
L 351.546683 -352.702664 
L 352.854457 -402.421895 
L 354.162231 -365.00433 
L 355.470005 -278.892672 
L 356.777779 -312.380539 
L 358.085553 -322.631926 
L 359.393327 -302.300007 
L 360.701101 -336.813013 
L 362.008875 -339.205003 
L 363.316649 -338.692434 
L 364.624423 -391.657938 
L 365.932197 -361.5872 
L 367.239971 -402.421895 
L 368.547745 -402.421895 
L 369.855519 -402.421895 
L 371.163293 -383.285971 
L 372.471066 -400.371618 
L 373.77884 -320.410792 
L 375.086614 -392.683077 
L 376.394388 -384.31111 
L 377.702162 -391.316225 
L 379.009936 -353.215234 
L 380.31771 -389.095091 
L 381.625484 -339.717573 
L 382.933258 -342.109563 
L 384.241032 -374.059722 
L 385.548806 -396.271063 
L 386.85658 -402.421895 
L 388.164354 -356.119793 
L 389.472128 -346.380975 
L 390.779902 -374.914004 
L 392.087676 -402.421895 
L 393.39545 -366.029468 
L 394.703224 -394.562498 
L 396.010998 -402.421895 
L 397.318772 -402.421895 
L 398.626546 -402.421895 
L 399.93432 -402.421895 
L 401.242094 -402.421895 
L 401.242094 -402.421895 
L 401.242094 -402.421895 
L 399.93432 -402.421895 
L 398.626546 -402.421895 
L 397.318772 -402.421895 
L 396.010998 -402.421895 
L 394.703224 -402.421895 
L 393.39545 -402.421895 
L 392.087676 -402.421895 
L 390.779902 -402.421895 
L 389.472128 -402.421895 
L 388.164354 -402.421895 
L 386.85658 -402.421895 
L 385.548806 -402.421895 
L 384.241032 -402.421895 
L 382.933258 -402.421895 
L 381.625484 -402.421895 
L 380.31771 -402.421895 
L 379.009936 -402.421895 
L 377.702162 -402.421895 
L 376.394388 -402.421895 
L 375.086614 -402.421895 
L 373.77884 -402.421895 
L 372.471066 -402.421895 
L 371.163293 -402.421895 
L 369.855519 -402.421895 
L 368.547745 -402.421895 
L 367.239971 -402.421895 
L 365.932197 -402.421895 
L 364.624423 -402.421895 
L 363.316649 -402.421895 
L 362.008875 -402.421895 
L 360.701101 -402.421895 
L 359.393327 -402.421895 
L 358.085553 -402.421895 
L 356.777779 -402.421895 
L 355.470005 -402.421895 
L 354.162231 -402.421895 
L 352.854457 -402.421895 
L 351.546683 -402.421895 
L 350.238909 -402.421895 
L 348.931135 -402.421895 
L 347.623361 -402.421895 
L 346.315587 -402.421895 
L 345.007813 -402.421895 
L 343.700039 -402.421895 
L 342.392265 -402.421895 
L 341.084491 -402.421895 
L 339.776717 -402.421895 
L 338.468943 -402.421895 
L 337.16117 -402.421895 
L 335.853396 -402.421895 
L 334.545622 -402.421895 
L 333.237848 -402.421895 
L 331.930074 -402.421895 
L 330.6223 -402.421895 
L 329.314526 -402.421895 
L 328.006752 -402.421895 
L 326.698978 -402.421895 
L 325.391204 -402.421895 
L 324.08343 -402.421895 
L 322.775656 -402.421895 
L 321.467882 -402.421895 
L 320.160108 -402.421895 
L 318.852334 -402.421895 
L 317.54456 -402.421895 
L 316.236786 -402.421895 
L 314.929012 -402.421895 
L 313.621238 -402.421895 
L 312.313464 -402.421895 
L 311.00569 -402.421895 
L 309.697916 -402.421895 
L 308.390142 -402.421895 
L 307.082368 -402.421895 
L 305.774594 -402.421895 
L 304.46682 -402.421895 
L 303.159047 -402.421895 
L 301.851273 -402.421895 
L 300.543499 -402.421895 
L 299.235725 -402.421895 
L 297.927951 -402.421895 
L 296.620177 -402.421895 
L 295.312403 -402.421895 
L 294.004629 -402.421895 
L 292.696855 -402.421895 
L 291.389081 -402.421895 
L 290.081307 -402.421895 
L 288.773533 -402.421895 
L 287.465759 -402.421895 
L 286.157985 -402.421895 
L 284.850211 -402.421895 
L 283.542437 -402.421895 
L 282.234663 -402.421895 
L 280.926889 -402.421895 
L 279.619115 -402.421895 
L 278.311341 -402.421895 
L 277.003567 -402.421895 
L 275.695793 -402.421895 
L 274.388019 -402.421895 
L 273.080245 -402.421895 
L 271.772471 -402.421895 
L 270.464697 -402.421895 
L 269.156924 -402.421895 
L 267.84915 -402.421895 
L 266.541376 -402.421895 
L 265.233602 -402.421895 
L 263.925828 -402.421895 
L 262.618054 -402.421895 
L 261.31028 -402.421895 
L 260.002506 -402.421895 
L 258.694732 -402.421895 
L 257.386958 -402.421895 
L 256.079184 -402.421895 
L 254.77141 -402.421895 
L 253.463636 -402.421895 
L 252.155862 -402.421895 
L 250.848088 -402.421895 
L 249.540314 -402.421895 
L 248.23254 -402.421895 
L 246.924766 -402.421895 
L 245.616992 -402.421895 
L 244.309218 -402.421895 
L 243.001444 -402.421895 
L 241.69367 -402.421895 
L 240.385896 -402.421895 
L 239.078122 -402.421895 
L 237.770348 -402.421895 
L 236.462574 -402.421895 
L 235.154801 -402.421895 
L 233.847027 -402.421895 
L 232.539253 -402.421895 
L 231.231479 -402.421895 
L 229.923705 -402.421895 
L 228.615931 -402.421895 
L 227.308157 -402.421895 
L 226.000383 -402.421895 
L 224.692609 -402.421895 
L 223.384835 -402.421895 
L 222.077061 -402.421895 
L 220.769287 -402.421895 
L 219.461513 -402.421895 
L 218.153739 -402.421895 
L 216.845965 -402.421895 
L 215.538191 -402.421895 
L 214.230417 -402.421895 
L 212.922643 -402.421895 
L 211.614869 -402.421895 
L 210.307095 -402.421895 
L 208.999321 -402.421895 
L 207.691547 -402.421895 
L 206.383773 -402.421895 
L 205.075999 -402.421895 
L 203.768225 -402.421895 
L 202.460451 -402.421895 
L 201.152678 -402.421895 
L 199.844904 -402.421895 
L 198.53713 -402.421895 
L 197.229356 -402.421895 
L 195.921582 -402.421895 
L 194.613808 -402.421895 
L 193.306034 -402.421895 
L 191.99826 -402.421895 
L 190.690486 -402.421895 
L 189.382712 -402.421895 
L 188.074938 -402.421895 
L 186.767164 -402.421895 
L 185.45939 -402.421895 
L 184.151616 -402.421895 
L 182.843842 -402.421895 
L 181.536068 -402.421895 
L 180.228294 -402.421895 
L 178.92052 -402.421895 
L 177.612746 -402.421895 
L 176.304972 -402.421895 
L 174.997198 -402.421895 
L 173.689424 -402.421895 
L 172.38165 -402.421895 
L 171.073876 -402.421895 
L 169.766102 -402.421895 
L 168.458328 -402.421895 
L 167.150555 -402.421895 
L 165.842781 -402.421895 
L 164.535007 -402.421895 
L 163.227233 -402.421895 
L 161.919459 -402.421895 
L 160.611685 -402.421895 
L 159.303911 -402.421895 
L 157.996137 -402.421895 
L 156.688363 -402.421895 
L 155.380589 -402.421895 
L 154.072815 -402.421895 
L 152.765041 -402.421895 
L 151.457267 -402.421895 
L 150.149493 -402.421895 
L 148.841719 -402.421895 
L 147.533945 -402.421895 
L 146.226171 -402.421895 
L 144.918397 -402.421895 
L 143.610623 -402.421895 
L 142.302849 -402.421895 
L 140.995075 -402.421895 
L 139.687301 -402.421895 
L 138.379527 -402.421895 
L 137.071753 -402.421895 
L 135.763979 -402.421895 
L 134.456205 -402.421895 
L 133.148432 -402.421895 
L 131.840658 -402.421895 
L 130.532884 -402.421895 
L 129.22511 -402.421895 
L 127.917336 -402.421895 
L 126.609562 -402.421895 
L 125.301788 -402.421895 
L 123.994014 -402.421895 
L 122.68624 -402.421895 
L 121.378466 -402.421895 
L 120.070692 -402.421895 
L 118.762918 -402.421895 
L 117.455144 -402.421895 
L 116.14737 -402.421895 
L 114.839596 -349.627248 
L 113.531822 -381.064837 
L 112.224048 -291.53605 
L 110.916274 -335.617018 
L 109.6085 -284.530935 
L 108.300726 -290.681768 
L 106.992952 -300.078873 
L 105.685178 -285.043504 
L 104.377404 -284.872648 
L 103.06963 -277.52582 
L 101.761856 -256.852188 
L 100.454082 -258.389896 
L 99.146309 -265.395011 
L 97.838535 -267.616145 
L 96.530761 -274.450404 
L 95.222987 -263.857303 
L 93.915213 -268.299571 
L 92.607439 -267.103576 
L 91.299665 -298.541165 
L 89.991891 -244.721379 
L 88.684117 -250.359642 
L 87.376343 -280.43038 
L 86.068569 -402.421895 
L 84.760795 -225.072885 
L 83.453021 -208.158095 
L 82.145247 -246.942513 
L 80.837473 -221.143187 
L 79.529699 -221.997469 
L 78.221925 -218.409483 
L 76.914151 -111.624193 
L 75.606377 -92.488269 
z
" style="stroke: #5591e1; stroke-opacity: 0.2"/>
    </defs>
    <g clip-path="url(#p6ffd5e35a5)">
     <use xlink:href="#mf74d25f32a" x="0" y="426.4" style="fill: #5591e1; fill-opacity: 0.2; stroke: #5591e1; stroke-opacity: 0.2"/>
    </g>
   </g>
   <g id="PolyCollection_3">
    <defs>
     <path id="m66278f998b" d="M 75.606377 -79.844891 
L 75.606377 -75.744336 
L 76.914151 -66.8598 
L 78.221925 -66.8598 
L 79.529699 -67.543226 
L 80.837473 -84.799728 
L 82.145247 -106.327643 
L 83.453021 -154.338309 
L 84.760795 -174.499372 
L 86.068569 -171.765669 
L 87.376343 -146.991481 
L 88.684117 -177.233075 
L 89.991891 -179.625066 
L 91.299665 -166.298262 
L 92.607439 -173.64509 
L 93.915213 -172.107382 
L 95.222987 -165.785692 
L 96.530761 -187.65532 
L 97.838535 -178.087358 
L 99.146309 -178.770784 
L 100.454082 -157.755439 
L 101.761856 -177.403932 
L 103.06963 -172.107382 
L 104.377404 -179.966779 
L 105.685178 -178.94164 
L 106.992952 -182.529626 
L 108.300726 -164.760554 
L 109.6085 -173.815946 
L 110.916274 -191.243306 
L 112.224048 -186.117612 
L 113.531822 -166.639975 
L 114.839596 -171.594812 
L 116.14737 -172.961664 
L 117.455144 -178.087358 
L 118.762918 -184.921616 
L 120.070692 -191.414162 
L 121.378466 -197.735851 
L 122.68624 -199.615272 
L 123.994014 -185.946755 
L 125.301788 -185.092473 
L 126.609562 -186.630181 
L 127.917336 -196.881569 
L 129.22511 -187.484463 
L 130.532884 -170.911386 
L 131.840658 -174.499372 
L 133.148432 -195.173004 
L 134.456205 -183.896478 
L 135.763979 -191.585018 
L 137.071753 -188.167889 
L 138.379527 -192.439301 
L 139.687301 -194.147865 
L 140.995075 -188.851315 
L 142.302849 -183.554765 
L 143.610623 -189.363884 
L 144.918397 -180.479348 
L 146.226171 -189.363884 
L 147.533945 -186.801037 
L 148.841719 -177.574788 
L 150.149493 -179.966779 
L 151.457267 -187.484463 
L 152.765041 -205.082679 
L 154.072815 -203.032402 
L 155.380589 -203.715827 
L 156.688363 -214.479785 
L 157.996137 -212.258651 
L 159.303911 -208.670665 
L 160.611685 -227.464876 
L 161.919459 -201.836406 
L 163.227233 -203.544971 
L 164.535007 -192.781014 
L 165.842781 -183.383908 
L 167.150555 -189.876454 
L 168.458328 -202.861545 
L 169.766102 -205.424392 
L 171.073876 -197.564995 
L 172.38165 -206.9621 
L 173.689424 -183.725621 
L 174.997198 -178.599927 
L 176.304972 -183.383908 
L 177.612746 -199.444416 
L 178.92052 -237.88712 
L 180.228294 -227.977445 
L 181.536068 -228.319158 
L 182.843842 -205.766105 
L 184.151616 -223.87689 
L 185.45939 -209.012378 
L 186.767164 -213.796359 
L 188.074938 -247.455082 
L 189.382712 -265.736724 
L 190.690486 -229.68601 
L 191.99826 -226.098024 
L 193.306034 -243.354527 
L 194.613808 -237.88712 
L 195.921582 -222.851751 
L 197.229356 -204.399253 
L 198.53713 -213.967215 
L 199.844904 -270.862418 
L 201.152678 -248.309365 
L 202.460451 -239.083116 
L 203.768225 -257.70647 
L 205.075999 -254.460197 
L 206.383773 -280.259523 
L 207.691547 -269.495566 
L 208.999321 -199.615272 
L 210.307095 -192.097588 
L 211.614869 -213.796359 
L 212.922643 -272.741839 
L 214.230417 -248.651077 
L 215.538191 -270.862418 
L 216.845965 -402.421895 
L 218.153739 -245.063092 
L 219.461513 -402.421895 
L 220.769287 -402.421895 
L 222.077061 -402.421895 
L 223.384835 -235.153417 
L 224.692609 -223.535177 
L 226.000383 -202.519832 
L 227.308157 -200.982124 
L 228.615931 -216.017493 
L 229.923705 -213.967215 
L 231.231479 -251.555637 
L 232.539253 -213.796359 
L 233.847027 -251.726494 
L 235.154801 -229.173441 
L 236.462574 -207.47467 
L 237.770348 -214.821498 
L 239.078122 -219.947192 
L 240.385896 -218.751196 
L 241.69367 -216.017493 
L 243.001444 -241.645962 
L 244.309218 -245.233948 
L 245.616992 -226.268881 
L 246.924766 -215.163211 
L 248.23254 -252.239063 
L 249.540314 -224.731173 
L 250.848088 -319.043941 
L 252.155862 -265.224155 
L 253.463636 -277.867533 
L 254.77141 -220.118048 
L 256.079184 -213.112933 
L 257.386958 -220.459761 
L 258.694732 -402.421895 
L 260.002506 -252.751633 
L 261.31028 -388.069952 
L 262.618054 -402.421895 
L 263.925828 -256.339618 
L 265.233602 -402.421895 
L 266.541376 -402.421895 
L 267.84915 -327.415907 
L 269.156924 -293.586328 
L 270.464697 -214.821498 
L 271.772471 -211.233512 
L 273.080245 -286.922925 
L 274.388019 -239.937398 
L 275.695793 -402.421895 
L 277.003567 -402.421895 
L 278.311341 -402.421895 
L 279.619115 -402.421895 
L 280.926889 -402.421895 
L 282.234663 -402.421895 
L 283.542437 -230.027723 
L 284.850211 -396.783632 
L 286.157985 -402.421895 
L 287.465759 -239.937398 
L 288.773533 -208.499808 
L 290.081307 -209.012378 
L 291.389081 -224.38946 
L 292.696855 -208.670665 
L 294.004629 -218.58034 
L 295.312403 -272.912695 
L 296.620177 -267.445289 
L 297.927951 -222.851751 
L 299.235725 -267.787001 
L 300.543499 -238.570546 
L 301.851273 -302.64172 
L 303.159047 -312.893108 
L 304.46682 -369.104885 
L 305.774594 -230.711149 
L 307.082368 -402.421895 
L 308.390142 -282.138944 
L 309.697916 -402.421895 
L 311.00569 -402.421895 
L 312.313464 -206.107818 
L 313.621238 -234.811704 
L 314.929012 -402.421895 
L 316.236786 -402.421895 
L 317.54456 -302.300007 
L 318.852334 -226.268881 
L 320.160108 -258.902465 
L 321.467882 -191.414162 
L 322.775656 -220.118048 
L 324.08343 -253.435058 
L 325.391204 -402.421895 
L 326.698978 -402.421895 
L 328.006752 -402.421895 
L 329.314526 -402.421895 
L 330.6223 -402.421895 
L 331.930074 -202.007263 
L 333.237848 -402.421895 
L 334.545622 -402.421895 
L 335.853396 -402.421895 
L 337.16117 -257.70647 
L 338.468943 -285.72693 
L 339.776717 -266.42015 
L 341.084491 -293.757184 
L 342.392265 -236.520269 
L 343.700039 -247.796795 
L 345.007813 -350.823243 
L 346.315587 -402.421895 
L 347.623361 -259.927604 
L 348.931135 -306.742275 
L 350.238909 -210.37923 
L 351.546683 -355.436368 
L 352.854457 -402.421895 
L 354.162231 -110.257342 
L 355.470005 -181.675344 
L 356.777779 -196.027287 
L 358.085553 -402.421895 
L 359.393327 -185.605042 
L 360.701101 -231.736288 
L 362.008875 -231.394575 
L 363.316649 -193.977009 
L 364.624423 -209.183234 
L 365.932197 -254.289341 
L 367.239971 -402.421895 
L 368.547745 -228.660871 
L 369.855519 -273.083552 
L 371.163293 -201.15298 
L 372.471066 -188.509602 
L 373.77884 -209.183234 
L 375.086614 -194.318722 
L 376.394388 -195.514717 
L 377.702162 -222.168326 
L 379.009936 -274.962973 
L 380.31771 -272.570982 
L 381.625484 -402.421895 
L 382.933258 -402.421895 
L 384.241032 -402.421895 
L 385.548806 -295.807462 
L 386.85658 -402.421895 
L 388.164354 -177.062219 
L 389.472128 -176.891363 
L 390.779902 -221.314043 
L 392.087676 -232.248857 
L 393.39545 -402.421895 
L 394.703224 -402.421895 
L 396.010998 -236.349412 
L 397.318772 -402.421895 
L 398.626546 -223.87689 
L 399.93432 -402.421895 
L 401.242094 -278.380102 
L 401.242094 -402.421895 
L 401.242094 -402.421895 
L 399.93432 -402.421895 
L 398.626546 -402.421895 
L 397.318772 -402.421895 
L 396.010998 -402.421895 
L 394.703224 -402.421895 
L 393.39545 -402.421895 
L 392.087676 -402.421895 
L 390.779902 -402.421895 
L 389.472128 -402.421895 
L 388.164354 -402.421895 
L 386.85658 -402.421895 
L 385.548806 -402.421895 
L 384.241032 -402.421895 
L 382.933258 -402.421895 
L 381.625484 -402.421895 
L 380.31771 -402.421895 
L 379.009936 -402.421895 
L 377.702162 -402.421895 
L 376.394388 -264.882442 
L 375.086614 -325.707343 
L 373.77884 -402.421895 
L 372.471066 -223.535177 
L 371.163293 -307.254845 
L 369.855519 -402.421895 
L 368.547745 -402.421895 
L 367.239971 -402.421895 
L 365.932197 -402.421895 
L 364.624423 -248.480221 
L 363.316649 -391.316225 
L 362.008875 -402.421895 
L 360.701101 -402.421895 
L 359.393327 -402.421895 
L 358.085553 -402.421895 
L 356.777779 -402.421895 
L 355.470005 -311.867969 
L 354.162231 -402.421895 
L 352.854457 -402.421895 
L 351.546683 -402.421895 
L 350.238909 -402.421895 
L 348.931135 -402.421895 
L 347.623361 -402.421895 
L 346.315587 -402.421895 
L 345.007813 -402.421895 
L 343.700039 -402.421895 
L 342.392265 -402.421895 
L 341.084491 -402.421895 
L 339.776717 -402.421895 
L 338.468943 -402.421895 
L 337.16117 -402.421895 
L 335.853396 -402.421895 
L 334.545622 -402.421895 
L 333.237848 -402.421895 
L 331.930074 -402.421895 
L 330.6223 -402.421895 
L 329.314526 -402.421895 
L 328.006752 -402.421895 
L 326.698978 -402.421895 
L 325.391204 -402.421895 
L 324.08343 -402.421895 
L 322.775656 -402.421895 
L 321.467882 -402.421895 
L 320.160108 -402.421895 
L 318.852334 -402.421895 
L 317.54456 -402.421895 
L 316.236786 -402.421895 
L 314.929012 -402.421895 
L 313.621238 -402.421895 
L 312.313464 -402.421895 
L 311.00569 -402.421895 
L 309.697916 -402.421895 
L 308.390142 -402.421895 
L 307.082368 -402.421895 
L 305.774594 -402.421895 
L 304.46682 -402.421895 
L 303.159047 -402.421895 
L 301.851273 -402.421895 
L 300.543499 -402.421895 
L 299.235725 -402.421895 
L 297.927951 -402.421895 
L 296.620177 -402.421895 
L 295.312403 -402.421895 
L 294.004629 -308.792553 
L 292.696855 -402.421895 
L 291.389081 -402.421895 
L 290.081307 -384.994536 
L 288.773533 -350.9941 
L 287.465759 -402.421895 
L 286.157985 -402.421895 
L 284.850211 -402.421895 
L 283.542437 -402.421895 
L 282.234663 -402.421895 
L 280.926889 -402.421895 
L 279.619115 -402.421895 
L 278.311341 -402.421895 
L 277.003567 -402.421895 
L 275.695793 -402.421895 
L 274.388019 -402.421895 
L 273.080245 -402.421895 
L 271.772471 -402.421895 
L 270.464697 -402.421895 
L 269.156924 -402.421895 
L 267.84915 -402.421895 
L 266.541376 -402.421895 
L 265.233602 -402.421895 
L 263.925828 -402.421895 
L 262.618054 -402.421895 
L 261.31028 -402.421895 
L 260.002506 -402.421895 
L 258.694732 -402.421895 
L 257.386958 -402.421895 
L 256.079184 -402.421895 
L 254.77141 -402.421895 
L 253.463636 -402.421895 
L 252.155862 -402.421895 
L 250.848088 -376.451713 
L 249.540314 -400.713331 
L 248.23254 -336.813013 
L 246.924766 -372.863727 
L 245.616992 -402.421895 
L 244.309218 -402.421895 
L 243.001444 -402.421895 
L 241.69367 -402.421895 
L 240.385896 -402.421895 
L 239.078122 -277.354963 
L 237.770348 -402.421895 
L 236.462574 -280.259523 
L 235.154801 -402.421895 
L 233.847027 -402.421895 
L 232.539253 -402.421895 
L 231.231479 -327.928477 
L 229.923705 -402.421895 
L 228.615931 -402.421895 
L 227.308157 -402.421895 
L 226.000383 -359.366066 
L 224.692609 -402.421895 
L 223.384835 -402.421895 
L 222.077061 -402.421895 
L 220.769287 -402.421895 
L 219.461513 -402.421895 
L 218.153739 -402.421895 
L 216.845965 -402.421895 
L 215.538191 -402.421895 
L 214.230417 -402.421895 
L 212.922643 -402.421895 
L 211.614869 -402.421895 
L 210.307095 -402.421895 
L 208.999321 -402.421895 
L 207.691547 -402.421895 
L 206.383773 -402.421895 
L 205.075999 -402.421895 
L 203.768225 -402.421895 
L 202.460451 -402.421895 
L 201.152678 -402.421895 
L 199.844904 -338.009008 
L 198.53713 -402.421895 
L 197.229356 -402.421895 
L 195.921582 -402.421895 
L 194.613808 -402.421895 
L 193.306034 -402.421895 
L 191.99826 -402.421895 
L 190.690486 -343.134702 
L 189.382712 -402.421895 
L 188.074938 -402.421895 
L 186.767164 -337.325582 
L 185.45939 -402.421895 
L 184.151616 -372.863727 
L 182.843842 -380.039698 
L 181.536068 -359.878636 
L 180.228294 -300.933156 
L 178.92052 -295.807462 
L 177.612746 -289.314916 
L 176.304972 -289.144059 
L 174.997198 -287.948064 
L 173.689424 -274.279547 
L 172.38165 -259.415035 
L 171.073876 -402.421895 
L 169.766102 -402.421895 
L 168.458328 -402.421895 
L 167.150555 -368.079746 
L 165.842781 -294.953179 
L 164.535007 -258.731609 
L 163.227233 -354.240372 
L 161.919459 -271.887557 
L 160.611685 -313.918247 
L 159.303911 -307.938271 
L 157.996137 -315.455955 
L 156.688363 -335.617018 
L 155.380589 -287.264638 
L 154.072815 -281.113806 
L 152.765041 -245.746518 
L 151.457267 -257.70647 
L 150.149493 -253.947628 
L 148.841719 -204.228397 
L 147.533945 -271.7167 
L 146.226171 -257.364757 
L 144.918397 -349.798104 
L 143.610623 -254.289341 
L 142.302849 -237.716264 
L 140.995075 -248.309365 
L 139.687301 -278.209246 
L 138.379527 -246.088231 
L 137.071753 -250.872212 
L 135.763979 -261.465312 
L 134.456205 -223.706034 
L 133.148432 -248.309365 
L 131.840658 -227.464876 
L 130.532884 -218.409483 
L 129.22511 -237.545407 
L 127.917336 -277.867533 
L 126.609562 -244.721379 
L 125.301788 -271.545844 
L 123.994014 -322.46107 
L 122.68624 -287.264638 
L 121.378466 -243.183671 
L 120.070692 -292.390332 
L 118.762918 -243.012814 
L 117.455144 -312.893108 
L 116.14737 -235.49513 
L 114.839596 -253.947628 
L 113.531822 -244.550522 
L 112.224048 -281.797232 
L 110.916274 -267.616145 
L 109.6085 -226.610594 
L 108.300726 -218.238627 
L 106.992952 -255.997905 
L 105.685178 -224.218603 
L 104.377404 -238.912259 
L 103.06963 -214.821498 
L 101.761856 -220.459761 
L 100.454082 -212.942076 
L 99.146309 -220.118048 
L 97.838535 -229.515154 
L 96.530761 -233.103139 
L 95.222987 -306.571419 
L 93.915213 -264.199016 
L 92.607439 -282.651514 
L 91.299665 -254.118484 
L 89.991891 -248.651077 
L 88.684117 -292.219476 
L 87.376343 -205.766105 
L 86.068569 -223.87689 
L 84.760795 -206.107818 
L 83.453021 -191.585018 
L 82.145247 -168.519396 
L 80.837473 -135.031529 
L 79.529699 -82.236881 
L 78.221925 -67.543226 
L 76.914151 -73.010632 
L 75.606377 -79.844891 
z
" style="stroke: #6ca247; stroke-opacity: 0.2"/>
    </defs>
    <g clip-path="url(#p6ffd5e35a5)">
     <use xlink:href="#m66278f998b" x="0" y="426.4" style="fill: #6ca247; fill-opacity: 0.2; stroke: #6ca247; stroke-opacity: 0.2"/>
    </g>
   </g>
   <g id="matplotlib.axis_1">
    <g id="xtick_1">
     <g id="line2d_1">
      <path d="M 75.442905 376.318305 
L 75.442905 7.2 
" clip-path="url(#p6ffd5e35a5)" style="fill: none; stroke: #b0b0b0; stroke-opacity: 0.3; stroke-width: 0.8; stroke-linecap: square"/>
     </g>
     <g id="line2d_2">
      <defs>
       <path id="m2a27ecacbc" d="M 0 0 
L 0 3.5 
" style="stroke: #000000; stroke-width: 0.8"/>
      </defs>
      <g>
       <use xlink:href="#m2a27ecacbc" x="75.442905" y="376.318305" style="stroke: #000000; stroke-width: 0.8"/>
      </g>
     </g>
     <g id="text_1">
      <!-- 0k -->
      <g transform="translate(67.422141 394.387893) scale(0.16 -0.16)">
       <defs>
        <path id="CMR17-30" d="M 2688 2038 
C 2688 2430 2682 3099 2413 3613 
C 2176 4063 1798 4224 1466 4224 
C 1158 4224 768 4082 525 3620 
C 269 3137 243 2539 243 2038 
C 243 1671 250 1112 448 623 
C 723 -39 1216 -128 1466 -128 
C 1760 -128 2208 -7 2470 604 
C 2662 1048 2688 1568 2688 2038 
z
M 1466 -26 
C 1056 -26 813 328 723 816 
C 653 1196 653 1749 653 2109 
C 653 2604 653 3015 736 3407 
C 858 3954 1216 4121 1466 4121 
C 1728 4121 2067 3947 2189 3420 
C 2272 3054 2278 2623 2278 2109 
C 2278 1691 2278 1176 2202 797 
C 2067 96 1690 -26 1466 -26 
z
" transform="scale(0.015625)"/>
        <path id="CMR17-6b" d="M 1670 1679 
C 1664 1692 1632 1730 1632 1749 
C 1632 1762 2086 2175 2144 2226 
C 2509 2532 2739 2563 2906 2570 
L 2906 2735 
C 2867 2735 2854 2735 2848 2729 
L 2534 2722 
C 2355 2722 2080 2722 1907 2735 
L 1907 2570 
C 1997 2563 2061 2513 2061 2423 
C 2061 2296 1933 2175 1926 2175 
L 960 1298 
L 960 4416 
L 198 4345 
L 198 4179 
C 576 4179 634 4141 634 3835 
L 634 439 
C 634 198 608 166 198 166 
L 198 0 
C 352 12 634 12 794 12 
C 954 12 1235 12 1389 0 
L 1389 166 
C 979 166 954 191 954 439 
L 954 1139 
L 1395 1540 
L 2042 586 
C 2118 471 2182 382 2182 299 
C 2182 185 2067 166 1990 166 
L 1990 0 
C 2144 12 2419 12 2579 12 
C 2694 12 2931 6 3040 0 
L 3040 166 
C 2739 166 2669 223 2477 503 
L 1670 1679 
z
" transform="scale(0.015625)"/>
       </defs>
       <use xlink:href="#CMR17-30" transform="scale(0.996264)"/>
       <use xlink:href="#CMR17-6b" transform="translate(45.690477 0) scale(0.996264)"/>
      </g>
     </g>
    </g>
    <g id="xtick_2">
     <g id="line2d_3">
      <path d="M 157.178778 376.318305 
L 157.178778 7.2 
" clip-path="url(#p6ffd5e35a5)" style="fill: none; stroke: #b0b0b0; stroke-opacity: 0.3; stroke-width: 0.8; stroke-linecap: square"/>
     </g>
     <g id="line2d_4">
      <g>
       <use xlink:href="#m2a27ecacbc" x="157.178778" y="376.318305" style="stroke: #000000; stroke-width: 0.8"/>
      </g>
     </g>
     <g id="text_2">
      <!-- 50k -->
      <g transform="translate(145.25602 394.387893) scale(0.16 -0.16)">
       <defs>
        <path id="CMR17-35" d="M 730 3750 
C 794 3724 1056 3641 1325 3641 
C 1920 3641 2246 3961 2432 4140 
C 2432 4191 2432 4224 2394 4224 
C 2387 4224 2374 4224 2323 4198 
C 2099 4102 1837 4032 1517 4032 
C 1325 4032 1037 4055 723 4191 
C 653 4224 640 4224 634 4224 
C 602 4224 595 4217 595 4090 
L 595 2231 
C 595 2113 595 2080 659 2080 
C 691 2080 704 2093 736 2139 
C 941 2435 1222 2560 1542 2560 
C 1766 2560 2246 2415 2246 1293 
C 2246 1087 2246 716 2054 422 
C 1894 159 1645 25 1370 25 
C 947 25 518 319 403 812 
C 429 806 480 793 506 793 
C 589 793 749 838 749 1036 
C 749 1209 627 1280 506 1280 
C 358 1280 262 1190 262 1011 
C 262 454 704 -128 1382 -128 
C 2042 -128 2669 441 2669 1267 
C 2669 2054 2170 2662 1549 2662 
C 1222 2662 947 2540 730 2304 
L 730 3750 
z
" transform="scale(0.015625)"/>
       </defs>
       <use xlink:href="#CMR17-35" transform="scale(0.996264)"/>
       <use xlink:href="#CMR17-30" transform="translate(45.690477 0) scale(0.996264)"/>
       <use xlink:href="#CMR17-6b" transform="translate(91.380954 0) scale(0.996264)"/>
      </g>
     </g>
    </g>
    <g id="xtick_3">
     <g id="line2d_5">
      <path d="M 238.914651 376.318305 
L 238.914651 7.2 
" clip-path="url(#p6ffd5e35a5)" style="fill: none; stroke: #b0b0b0; stroke-opacity: 0.3; stroke-width: 0.8; stroke-linecap: square"/>
     </g>
     <g id="line2d_6">
      <g>
       <use xlink:href="#m2a27ecacbc" x="238.914651" y="376.318305" style="stroke: #000000; stroke-width: 0.8"/>
      </g>
     </g>
     <g id="text_3">
      <!-- 100k -->
      <g transform="translate(223.089899 394.387893) scale(0.16 -0.16)">
       <defs>
        <path id="CMR17-31" d="M 1702 4083 
C 1702 4217 1696 4224 1606 4224 
C 1357 3927 979 3833 621 3820 
C 602 3820 570 3820 563 3808 
C 557 3795 557 3782 557 3648 
C 755 3648 1088 3686 1344 3839 
L 1344 467 
C 1344 243 1331 166 781 166 
L 589 166 
L 589 0 
C 896 6 1216 12 1523 12 
C 1830 12 2150 6 2458 0 
L 2458 166 
L 2266 166 
C 1715 166 1702 236 1702 467 
L 1702 4083 
z
" transform="scale(0.015625)"/>
       </defs>
       <use xlink:href="#CMR17-31" transform="scale(0.996264)"/>
       <use xlink:href="#CMR17-30" transform="translate(45.690477 0) scale(0.996264)"/>
       <use xlink:href="#CMR17-30" transform="translate(91.380954 0) scale(0.996264)"/>
       <use xlink:href="#CMR17-6b" transform="translate(137.071431 0) scale(0.996264)"/>
      </g>
     </g>
    </g>
    <g id="xtick_4">
     <g id="line2d_7">
      <path d="M 320.650523 376.318305 
L 320.650523 7.2 
" clip-path="url(#p6ffd5e35a5)" style="fill: none; stroke: #b0b0b0; stroke-opacity: 0.3; stroke-width: 0.8; stroke-linecap: square"/>
     </g>
     <g id="line2d_8">
      <g>
       <use xlink:href="#m2a27ecacbc" x="320.650523" y="376.318305" style="stroke: #000000; stroke-width: 0.8"/>
      </g>
     </g>
     <g id="text_4">
      <!-- 150k -->
      <g transform="translate(304.825772 394.387893) scale(0.16 -0.16)">
       <use xlink:href="#CMR17-31" transform="scale(0.996264)"/>
       <use xlink:href="#CMR17-35" transform="translate(45.690477 0) scale(0.996264)"/>
       <use xlink:href="#CMR17-30" transform="translate(91.380954 0) scale(0.996264)"/>
       <use xlink:href="#CMR17-6b" transform="translate(137.071431 0) scale(0.996264)"/>
      </g>
     </g>
    </g>
    <g id="xtick_5">
     <g id="line2d_9">
      <path d="M 402.386396 376.318305 
L 402.386396 7.2 
" clip-path="url(#p6ffd5e35a5)" style="fill: none; stroke: #b0b0b0; stroke-opacity: 0.3; stroke-width: 0.8; stroke-linecap: square"/>
     </g>
     <g id="line2d_10">
      <g>
       <use xlink:href="#m2a27ecacbc" x="402.386396" y="376.318305" style="stroke: #000000; stroke-width: 0.8"/>
      </g>
     </g>
     <g id="text_5">
      <!-- 200k -->
      <g transform="translate(386.561644 394.387893) scale(0.16 -0.16)">
       <defs>
        <path id="CMR17-32" d="M 2669 990 
L 2554 990 
C 2490 537 2438 460 2413 422 
C 2381 371 1920 371 1830 371 
L 602 371 
C 832 620 1280 1073 1824 1596 
C 2214 1966 2669 2400 2669 3033 
C 2669 3788 2067 4224 1395 4224 
C 691 4224 262 3603 262 3027 
C 262 2777 448 2745 525 2745 
C 589 2745 781 2783 781 3007 
C 781 3206 614 3264 525 3264 
C 486 3264 448 3257 422 3244 
C 544 3788 915 4057 1306 4057 
C 1862 4057 2227 3616 2227 3033 
C 2227 2477 1901 1998 1536 1583 
L 262 147 
L 262 0 
L 2515 0 
L 2669 990 
z
" transform="scale(0.015625)"/>
       </defs>
       <use xlink:href="#CMR17-32" transform="scale(0.996264)"/>
       <use xlink:href="#CMR17-30" transform="translate(45.690477 0) scale(0.996264)"/>
       <use xlink:href="#CMR17-30" transform="translate(91.380954 0) scale(0.996264)"/>
       <use xlink:href="#CMR17-6b" transform="translate(137.071431 0) scale(0.996264)"/>
      </g>
     </g>
    </g>
    <g id="text_6">
     <!-- Training Steps -->
     <g transform="translate(180.391097 415.324366) scale(0.2 -0.2)">
      <defs>
       <path id="CMR17-54" d="M 3981 4332 
L 288 4332 
L 179 2924 
L 294 2924 
C 378 3981 467 4166 1453 4166 
C 1568 4166 1754 4166 1805 4159 
C 1926 4140 1926 4064 1926 3917 
L 1926 465 
C 1926 236 1907 166 1376 166 
L 1197 166 
L 1197 0 
C 1504 6 1824 12 2138 12 
C 2451 12 2771 6 3078 0 
L 3078 166 
L 2899 166 
C 2368 166 2349 236 2349 465 
L 2349 3917 
C 2349 4057 2349 4134 2464 4159 
C 2515 4166 2701 4166 2816 4166 
C 3795 4166 3891 3981 3974 2924 
L 4090 2924 
L 3981 4332 
z
" transform="scale(0.015625)"/>
       <path id="CMR17-72" d="M 960 1517 
C 960 2134 1222 2713 1702 2713 
C 1747 2713 1792 2707 1837 2687 
C 1837 2687 1696 2642 1696 2475 
C 1696 2321 1818 2257 1914 2257 
C 1990 2257 2131 2302 2131 2482 
C 2131 2687 1926 2816 1709 2816 
C 1222 2816 1011 2340 947 2115 
L 941 2115 
L 941 2816 
L 198 2745 
L 198 2578 
C 576 2578 634 2540 634 2231 
L 634 443 
C 634 198 608 166 198 166 
L 198 0 
C 352 12 646 12 813 12 
C 998 12 1325 12 1498 0 
L 1498 166 
C 1037 166 960 166 960 455 
L 960 1517 
z
" transform="scale(0.015625)"/>
       <path id="CMR17-61" d="M 2304 1656 
C 2304 2048 2304 2275 2035 2534 
C 1798 2751 1523 2816 1306 2816 
C 800 2816 435 2408 435 1977 
C 435 1740 627 1728 666 1728 
C 749 1728 896 1779 896 1958 
C 896 2118 774 2188 666 2188 
C 640 2188 608 2182 589 2176 
C 723 2594 1069 2713 1293 2713 
C 1613 2713 1965 2421 1965 1875 
L 1965 1632 
C 1587 1619 1133 1568 774 1373 
C 371 1147 256 822 256 576 
C 256 77 832 -64 1171 -64 
C 1523 -64 1850 135 1990 505 
C 2003 219 2182 -39 2464 -39 
C 2598 -39 2938 51 2938 563 
L 2938 926 
L 2822 926 
L 2822 557 
C 2822 161 2650 109 2566 109 
C 2304 109 2304 446 2304 732 
L 2304 1656 
z
M 1965 887 
C 1965 323 1568 38 1216 38 
C 896 38 646 278 646 576 
C 646 771 730 1114 1101 1322 
C 1408 1497 1760 1523 1965 1536 
L 1965 887 
z
" transform="scale(0.015625)"/>
       <path id="CMR17-69" d="M 992 3961 
C 992 4102 877 4224 730 4224 
C 589 4224 467 4108 467 3961 
C 467 3820 582 3699 730 3699 
C 870 3699 992 3814 992 3961 
z
M 243 2745 
L 243 2579 
C 602 2579 653 2540 653 2231 
L 653 443 
C 653 198 627 166 218 166 
L 218 0 
C 371 12 646 12 806 12 
C 960 12 1222 12 1370 0 
L 1370 166 
C 992 166 979 205 979 436 
L 979 2816 
L 243 2745 
z
" transform="scale(0.015625)"/>
       <path id="CMR17-6e" d="M 2656 1954 
C 2656 2282 2592 2816 1837 2816 
C 1331 2816 1069 2424 973 2166 
L 966 2166 
L 966 2816 
L 211 2745 
L 211 2578 
C 589 2578 646 2540 646 2231 
L 646 443 
C 646 198 621 166 211 166 
L 211 0 
C 365 12 646 12 813 12 
C 979 12 1267 12 1421 0 
L 1421 166 
C 1011 166 986 192 986 443 
L 986 1678 
C 986 2269 1344 2713 1792 2713 
C 2266 2713 2317 2289 2317 1980 
L 2317 443 
C 2317 198 2291 166 1882 166 
L 1882 0 
C 2035 12 2317 12 2483 12 
C 2650 12 2938 12 3091 0 
L 3091 166 
C 2682 166 2656 192 2656 443 
L 2656 1954 
z
" transform="scale(0.015625)"/>
       <path id="CMR17-67" d="M 710 1165 
C 832 1068 1043 960 1299 960 
C 1805 960 2240 1359 2240 1895 
C 2240 2063 2189 2321 1997 2521 
C 2176 2713 2438 2777 2586 2777 
C 2611 2777 2650 2777 2682 2758 
C 2656 2751 2598 2726 2598 2623 
C 2598 2540 2656 2483 2739 2483 
C 2835 2483 2886 2547 2886 2630 
C 2886 2751 2790 2880 2586 2880 
C 2330 2880 2106 2758 1926 2591 
C 1734 2764 1504 2828 1299 2828 
C 794 2828 358 2431 358 1895 
C 358 1527 570 1294 634 1230 
C 442 1004 442 742 442 710 
C 442 544 506 300 723 166 
C 390 82 128 -184 128 -517 
C 128 -996 736 -1344 1466 -1344 
C 2170 -1344 2803 -1009 2803 -510 
C 2803 384 1856 384 1363 384 
C 1216 384 954 384 922 390 
C 723 422 589 601 589 825 
C 589 883 589 1024 710 1165 
z
M 1299 1068 
C 736 1068 736 1766 736 1895 
C 736 2024 736 2719 1299 2719 
C 1862 2719 1862 2024 1862 1895 
C 1862 1766 1862 1068 1299 1068 
z
M 1466 -1236 
C 826 -1236 384 -883 384 -517 
C 384 -311 493 -118 634 -11 
C 794 102 858 102 1293 102 
C 1818 102 2547 102 2547 -517 
C 2547 -883 2106 -1236 1466 -1236 
z
" transform="scale(0.015625)"/>
       <path id="CMR17-53" d="M 2803 4351 
C 2803 4467 2797 4473 2758 4473 
C 2720 4473 2707 4447 2682 4390 
L 2490 3965 
C 2246 4320 1875 4480 1472 4480 
C 819 4480 294 3958 294 3301 
C 294 3101 339 2817 557 2546 
C 794 2250 1018 2198 1530 2063 
C 1722 2011 2042 1927 2106 1901 
C 2470 1747 2662 1360 2662 999 
C 2662 534 2336 38 1779 38 
C 1094 38 454 425 410 1328 
C 403 1431 397 1437 352 1437 
C 301 1437 294 1431 294 1302 
L 294 0 
C 294 -116 301 -122 339 -122 
C 384 -122 397 -90 486 109 
C 493 128 493 141 614 386 
C 934 -39 1472 -128 1779 -128 
C 2477 -128 2970 457 2970 1141 
C 2970 1476 2848 1734 2778 1850 
C 2509 2263 2221 2340 1914 2417 
C 1869 2437 1856 2437 1498 2527 
C 1152 2617 1005 2662 845 2836 
C 666 3036 602 3243 602 3449 
C 602 3868 934 4326 1478 4326 
C 2157 4326 2579 3842 2675 3036 
C 2694 2920 2701 2914 2746 2914 
C 2803 2914 2803 2933 2803 3043 
L 2803 4351 
z
" transform="scale(0.015625)"/>
       <path id="CMR17-74" d="M 966 2585 
L 1862 2585 
L 1862 2752 
L 966 2752 
L 966 3968 
L 851 3968 
C 838 3292 614 2700 70 2687 
L 70 2585 
L 627 2585 
L 627 778 
C 627 655 627 -64 1370 -64 
C 1747 -64 1965 308 1965 784 
L 1965 1151 
L 1850 1151 
L 1850 790 
C 1850 347 1677 51 1408 51 
C 1222 51 966 179 966 765 
L 966 2585 
z
" transform="scale(0.015625)"/>
       <path id="CMR17-65" d="M 2438 1503 
C 2464 1529 2464 1542 2464 1606 
C 2464 2251 2118 2816 1389 2816 
C 710 2816 173 2175 173 1394 
C 173 554 781 -64 1459 -64 
C 2176 -64 2458 619 2458 755 
C 2458 800 2419 800 2406 800 
C 2362 800 2355 787 2330 709 
C 2189 270 1837 51 1504 51 
C 1229 51 954 206 781 490 
C 582 819 582 1200 582 1503 
L 2438 1503 
z
M 589 1600 
C 634 2511 1126 2713 1382 2713 
C 1818 2713 2112 2308 2118 1600 
L 589 1600 
z
" transform="scale(0.015625)"/>
       <path id="CMR17-70" d="M 1408 -1114 
C 998 -1114 973 -1088 973 -834 
L 973 380 
C 1158 109 1427 -64 1766 -64 
C 2406 -64 3053 503 3053 1382 
C 3053 2196 2496 2816 1837 2816 
C 1453 2816 1139 2603 960 2345 
L 960 2816 
L 198 2745 
L 198 2577 
C 576 2577 634 2539 634 2228 
L 634 -834 
C 634 -1081 608 -1114 198 -1114 
L 198 -1280 
C 352 -1268 634 -1268 800 -1268 
C 966 -1268 1254 -1268 1408 -1280 
L 1408 -1114 
z
M 973 2015 
C 973 2106 973 2241 1222 2481 
C 1254 2506 1472 2700 1792 2700 
C 2259 2700 2643 2112 2643 1376 
C 2643 639 2234 38 1728 38 
C 1498 38 1248 148 1056 451 
C 973 594 973 632 973 736 
L 973 2015 
z
" transform="scale(0.015625)"/>
       <path id="CMR17-73" d="M 1978 2688 
C 1978 2803 1971 2809 1933 2809 
C 1907 2809 1901 2803 1824 2707 
C 1805 2681 1747 2617 1728 2592 
C 1523 2809 1235 2816 1126 2816 
C 416 2816 160 2444 160 2073 
C 160 1497 813 1363 998 1324 
C 1402 1241 1542 1216 1677 1100 
C 1760 1024 1901 883 1901 652 
C 1901 384 1747 38 1158 38 
C 602 38 403 460 288 1024 
C 269 1113 269 1120 218 1120 
C 166 1120 160 1113 160 985 
L 160 64 
C 160 -52 166 -58 205 -58 
C 237 -58 243 -52 275 0 
C 314 57 410 211 448 275 
C 576 102 800 -64 1158 -64 
C 1792 -64 2131 281 2131 780 
C 2131 1107 1958 1280 1875 1356 
C 1683 1555 1459 1600 1190 1651 
C 838 1728 390 1817 390 2208 
C 390 2374 480 2726 1126 2726 
C 1811 2726 1850 2086 1862 1881 
C 1869 1849 1901 1843 1920 1843 
C 1978 1843 1978 1862 1978 1971 
L 1978 2688 
z
" transform="scale(0.015625)"/>
      </defs>
      <use xlink:href="#CMR17-54" transform="scale(0.996264)"/>
      <use xlink:href="#CMR17-72" transform="translate(58.702625 0) scale(0.996264)"/>
      <use xlink:href="#CMR17-61" transform="translate(93.983393 0) scale(0.996264)"/>
      <use xlink:href="#CMR17-69" transform="translate(139.67387 0) scale(0.996264)"/>
      <use xlink:href="#CMR17-6e" transform="translate(164.544929 0) scale(0.996264)"/>
      <use xlink:href="#CMR17-69" transform="translate(215.440298 0) scale(0.996264)"/>
      <use xlink:href="#CMR17-6e" transform="translate(240.311357 0) scale(0.996264)"/>
      <use xlink:href="#CMR17-67" transform="translate(291.206727 0) scale(0.996264)"/>
      <use xlink:href="#CMR17-53" transform="translate(366.97317 0) scale(0.996264)"/>
      <use xlink:href="#CMR17-74" transform="translate(417.86854 0) scale(0.996264)"/>
      <use xlink:href="#CMR17-65" transform="translate(453.149308 0) scale(0.996264)"/>
      <use xlink:href="#CMR17-70" transform="translate(493.634968 0) scale(0.996264)"/>
      <use xlink:href="#CMR17-73" transform="translate(544.530338 0) scale(0.996264)"/>
     </g>
    </g>
   </g>
   <g id="matplotlib.axis_2">
    <g id="ytick_1">
     <g id="line2d_11">
      <path d="M 59.324591 365.691033 
L 417.523879 365.691033 
" clip-path="url(#p6ffd5e35a5)" style="fill: none; stroke: #b0b0b0; stroke-opacity: 0.3; stroke-width: 0.8; stroke-linecap: square"/>
     </g>
     <g id="line2d_12">
      <defs>
       <path id="m6f8da3c754" d="M 0 0 
L -3.5 0 
" style="stroke: #000000; stroke-width: 0.8"/>
      </defs>
      <g>
       <use xlink:href="#m6f8da3c754" x="59.324591" y="365.691033" style="stroke: #000000; stroke-width: 0.8"/>
      </g>
     </g>
     <g id="text_7">
      <!-- $\mathdefault{0}$ -->
      <g transform="translate(44.520604 371.225827) scale(0.16 -0.16)">
       <use xlink:href="#CMR17-30" transform="scale(0.996264)"/>
      </g>
     </g>
    </g>
    <g id="ytick_2">
     <g id="line2d_13">
      <path d="M 59.324591 297.348447 
L 417.523879 297.348447 
" clip-path="url(#p6ffd5e35a5)" style="fill: none; stroke: #b0b0b0; stroke-opacity: 0.3; stroke-width: 0.8; stroke-linecap: square"/>
     </g>
     <g id="line2d_14">
      <g>
       <use xlink:href="#m6f8da3c754" x="59.324591" y="297.348447" style="stroke: #000000; stroke-width: 0.8"/>
      </g>
     </g>
     <g id="text_8">
      <!-- $\mathdefault{100}$ -->
      <g transform="translate(28.91263 302.883242) scale(0.16 -0.16)">
       <use xlink:href="#CMR17-31" transform="scale(0.996264)"/>
       <use xlink:href="#CMR17-30" transform="translate(45.690477 0) scale(0.996264)"/>
       <use xlink:href="#CMR17-30" transform="translate(91.380954 0) scale(0.996264)"/>
      </g>
     </g>
    </g>
    <g id="ytick_3">
     <g id="line2d_15">
      <path d="M 59.324591 229.005862 
L 417.523879 229.005862 
" clip-path="url(#p6ffd5e35a5)" style="fill: none; stroke: #b0b0b0; stroke-opacity: 0.3; stroke-width: 0.8; stroke-linecap: square"/>
     </g>
     <g id="line2d_16">
      <g>
       <use xlink:href="#m6f8da3c754" x="59.324591" y="229.005862" style="stroke: #000000; stroke-width: 0.8"/>
      </g>
     </g>
     <g id="text_9">
      <!-- $\mathdefault{200}$ -->
      <g transform="translate(28.91263 234.540656) scale(0.16 -0.16)">
       <use xlink:href="#CMR17-32" transform="scale(0.996264)"/>
       <use xlink:href="#CMR17-30" transform="translate(45.690477 0) scale(0.996264)"/>
       <use xlink:href="#CMR17-30" transform="translate(91.380954 0) scale(0.996264)"/>
      </g>
     </g>
    </g>
    <g id="ytick_4">
     <g id="line2d_17">
      <path d="M 59.324591 160.663276 
L 417.523879 160.663276 
" clip-path="url(#p6ffd5e35a5)" style="fill: none; stroke: #b0b0b0; stroke-opacity: 0.3; stroke-width: 0.8; stroke-linecap: square"/>
     </g>
     <g id="line2d_18">
      <g>
       <use xlink:href="#m6f8da3c754" x="59.324591" y="160.663276" style="stroke: #000000; stroke-width: 0.8"/>
      </g>
     </g>
     <g id="text_10">
      <!-- $\mathdefault{300}$ -->
      <g transform="translate(28.91263 166.19807) scale(0.16 -0.16)">
       <defs>
        <path id="CMR17-33" d="M 1414 2176 
C 1984 2176 2234 1673 2234 1094 
C 2234 322 1824 25 1453 25 
C 1114 25 563 193 390 691 
C 422 678 454 678 486 678 
C 640 678 755 780 755 947 
C 755 1132 614 1216 486 1216 
C 378 1216 211 1164 211 927 
C 211 335 787 -128 1466 -128 
C 2176 -128 2720 432 2720 1087 
C 2720 1718 2208 2176 1600 2246 
C 2086 2347 2554 2776 2554 3353 
C 2554 3856 2048 4224 1472 4224 
C 890 4224 378 3862 378 3347 
C 378 3123 544 3084 627 3084 
C 762 3084 877 3167 877 3334 
C 877 3500 762 3584 627 3584 
C 602 3584 570 3584 544 3571 
C 730 3999 1235 4076 1459 4076 
C 1683 4076 2106 3966 2106 3347 
C 2106 3167 2080 2851 1862 2574 
C 1670 2329 1453 2316 1242 2297 
C 1210 2297 1062 2284 1037 2284 
C 992 2278 966 2272 966 2227 
C 966 2182 973 2176 1101 2176 
L 1414 2176 
z
" transform="scale(0.015625)"/>
       </defs>
       <use xlink:href="#CMR17-33" transform="scale(0.996264)"/>
       <use xlink:href="#CMR17-30" transform="translate(45.690477 0) scale(0.996264)"/>
       <use xlink:href="#CMR17-30" transform="translate(91.380954 0) scale(0.996264)"/>
      </g>
     </g>
    </g>
    <g id="ytick_5">
     <g id="line2d_19">
      <path d="M 59.324591 92.32069 
L 417.523879 92.32069 
" clip-path="url(#p6ffd5e35a5)" style="fill: none; stroke: #b0b0b0; stroke-opacity: 0.3; stroke-width: 0.8; stroke-linecap: square"/>
     </g>
     <g id="line2d_20">
      <g>
       <use xlink:href="#m6f8da3c754" x="59.324591" y="92.32069" style="stroke: #000000; stroke-width: 0.8"/>
      </g>
     </g>
     <g id="text_11">
      <!-- $\mathdefault{400}$ -->
      <g transform="translate(28.91263 97.855485) scale(0.16 -0.16)">
       <defs>
        <path id="CMR17-34" d="M 2150 4147 
C 2150 4281 2144 4288 2029 4288 
L 128 1254 
L 128 1088 
L 1779 1088 
L 1779 460 
C 1779 230 1766 166 1318 166 
L 1197 166 
L 1197 0 
C 1402 12 1747 12 1965 12 
C 2182 12 2528 12 2733 0 
L 2733 166 
L 2611 166 
C 2163 166 2150 230 2150 460 
L 2150 1088 
L 2803 1088 
L 2803 1254 
L 2150 1254 
L 2150 4147 
z
M 1798 3723 
L 1798 1254 
L 256 1254 
L 1798 3723 
z
" transform="scale(0.015625)"/>
       </defs>
       <use xlink:href="#CMR17-34" transform="scale(0.996264)"/>
       <use xlink:href="#CMR17-30" transform="translate(45.690477 0) scale(0.996264)"/>
       <use xlink:href="#CMR17-30" transform="translate(91.380954 0) scale(0.996264)"/>
      </g>
     </g>
    </g>
    <g id="ytick_6">
     <g id="line2d_21">
      <path d="M 59.324591 23.978105 
L 417.523879 23.978105 
" clip-path="url(#p6ffd5e35a5)" style="fill: none; stroke: #b0b0b0; stroke-opacity: 0.3; stroke-width: 0.8; stroke-linecap: square"/>
     </g>
     <g id="line2d_22">
      <g>
       <use xlink:href="#m6f8da3c754" x="59.324591" y="23.978105" style="stroke: #000000; stroke-width: 0.8"/>
      </g>
     </g>
     <g id="text_12">
      <!-- $\mathdefault{500}$ -->
      <g transform="translate(28.91263 29.512899) scale(0.16 -0.16)">
       <use xlink:href="#CMR17-35" transform="scale(0.996264)"/>
       <use xlink:href="#CMR17-30" transform="translate(45.690477 0) scale(0.996264)"/>
       <use xlink:href="#CMR17-30" transform="translate(91.380954 0) scale(0.996264)"/>
      </g>
     </g>
    </g>
    <g id="text_13">
     <!-- Return -->
     <g transform="translate(21.036997 219.822038) rotate(-90) scale(0.2 -0.2)">
      <defs>
       <path id="CMR17-52" d="M 2509 2156 
C 3117 2278 3629 2689 3629 3203 
C 3629 3806 2950 4352 2054 4352 
L 333 4352 
L 333 4185 
C 774 4185 845 4185 845 3896 
L 845 428 
C 845 140 774 140 333 140 
L 333 -26 
C 518 -13 851 -13 1050 -13 
C 1248 -13 1581 -13 1766 -26 
L 1766 140 
C 1325 140 1254 140 1254 428 
L 1254 2112 
L 2003 2112 
C 2368 2112 2573 1964 2662 1881 
C 2918 1632 2918 1459 2918 1024 
C 2918 595 2918 377 3110 160 
C 3354 -103 3680 -128 3821 -128 
C 4294 -128 4365 403 4365 512 
C 4365 550 4365 595 4307 595 
C 4256 595 4250 556 4250 531 
C 4218 115 4032 -26 3834 -26 
C 3482 -26 3443 377 3405 768 
C 3386 902 3373 998 3360 1139 
C 3322 1459 3270 1926 2509 2156 
z
M 1984 2214 
L 1254 2214 
L 1254 3935 
C 1254 4153 1267 4185 1523 4185 
L 1990 4185 
C 2522 4185 3142 3999 3142 3203 
C 3142 2374 2464 2214 1984 2214 
z
" transform="scale(0.015625)"/>
       <path id="CMR17-75" d="M 1882 2745 
L 1882 2579 
C 2259 2579 2317 2540 2317 2229 
L 2317 1053 
C 2317 510 2029 38 1555 38 
C 1030 38 986 355 986 691 
L 986 2816 
L 211 2745 
L 211 2579 
C 467 2579 640 2579 646 2320 
L 646 1079 
C 646 646 646 368 813 187 
C 896 103 1056 -64 1517 -64 
C 2061 -64 2272 400 2323 536 
L 2330 536 
L 2330 -64 
L 3091 -13 
L 3091 154 
C 2714 154 2656 193 2656 503 
L 2656 2816 
L 1882 2745 
z
" transform="scale(0.015625)"/>
      </defs>
      <use xlink:href="#CMR17-52" transform="scale(0.996264)"/>
      <use xlink:href="#CMR17-65" transform="translate(67.791102 0) scale(0.996264)"/>
      <use xlink:href="#CMR17-74" transform="translate(108.276762 0) scale(0.996264)"/>
      <use xlink:href="#CMR17-75" transform="translate(143.55753 0) scale(0.996264)"/>
      <use xlink:href="#CMR17-72" transform="translate(194.4529 0) scale(0.996264)"/>
      <use xlink:href="#CMR17-6e" transform="translate(229.733668 0) scale(0.996264)"/>
     </g>
    </g>
   </g>
   <g id="line2d_23">
    <path d="M 75.606377 337.13902 
L 76.914151 325.040863 
L 78.221925 201.289146 
L 79.529699 196.201421 
L 80.837473 200.55826 
L 82.145247 186.168729 
L 83.453021 196.144468 
L 84.760795 217.786287 
L 86.068569 205.826335 
L 87.376343 214.790604 
L 88.684117 200.657357 
L 89.991891 211.151361 
L 91.299665 198.735792 
L 92.607439 190.76249 
L 93.915213 197.539796 
L 95.222987 187.459265 
L 96.530761 190.477729 
L 97.838535 197.596748 
L 99.146309 202.893299 
L 100.454082 203.235012 
L 101.761856 212.062596 
L 103.06963 196.884846 
L 104.377404 204.516435 
L 105.685178 200.358928 
L 106.992952 206.965378 
L 108.300726 191.948993 
L 109.6085 193.752478 
L 110.916274 196.144468 
L 112.224048 212.603641 
L 113.531822 211.646845 
L 114.839596 201.298638 
L 116.14737 169.804097 
L 117.455144 191.335429 
L 118.762918 182.642252 
L 120.070692 194.670547 
L 121.378466 179.229679 
L 122.68624 183.586518 
L 123.994014 194.248775 
L 125.301788 161.740986 
L 126.609562 151.450696 
L 127.917336 175.572085 
L 129.22511 80.277619 
L 130.532884 74.20067 
L 131.840658 99.616723 
L 133.148432 172.566276 
L 134.456205 27.912421 
L 135.763979 44.979597 
L 137.071753 67.440295 
L 138.379527 37.812861 
L 139.687301 34.081725 
L 140.995075 23.978105 
L 148.841719 23.978105 
L 150.149493 35.393164 
L 151.457267 40.28797 
L 152.765041 23.978105 
L 154.072815 31.107899 
L 155.380589 156.733577 
L 156.688363 35.272616 
L 157.996137 59.978024 
L 159.303911 62.933379 
L 160.611685 32.511693 
L 161.919459 94.143159 
L 163.227233 61.788179 
L 164.535007 42.86224 
L 165.842781 34.211022 
L 167.150555 27.912421 
L 168.458328 29.03915 
L 169.766102 23.978105 
L 176.304972 23.978105 
L 177.612746 27.543002 
L 178.92052 23.978105 
L 181.536068 23.978105 
L 182.843842 29.260802 
L 184.151616 26.585914 
L 185.45939 24.45835 
L 186.767164 23.978105 
L 188.074938 23.978105 
L 189.382712 28.546267 
L 190.690486 24.84624 
L 191.99826 37.351086 
L 193.306034 23.978105 
L 197.229356 23.978105 
L 198.53713 29.630221 
L 199.844904 29.149976 
L 201.152678 23.978105 
L 214.230417 23.978105 
L 215.538191 27.32135 
L 216.845965 23.978105 
L 218.153739 23.978105 
L 219.461513 39.659958 
L 220.769287 23.978105 
L 224.692609 23.978105 
L 226.000383 38.995003 
L 227.308157 23.978105 
L 235.154801 23.978105 
L 236.462574 50.040642 
L 237.770348 81.866122 
L 239.078122 42.5599 
L 240.385896 23.978105 
L 241.69367 51.462907 
L 243.001444 50.354649 
L 244.309218 23.978105 
L 307.082368 23.978105 
L 308.390142 24.64306 
L 309.697916 48.138132 
L 311.00569 23.978105 
L 317.54456 23.978105 
L 318.852334 43.317209 
L 321.467882 23.978105 
L 322.775656 53.886978 
L 324.08343 23.978105 
L 325.391204 23.978105 
L 326.698978 31.88368 
L 328.006752 24.088931 
L 329.314526 33.121234 
L 330.6223 55.932881 
L 331.930074 28.688202 
L 333.237848 71.762502 
L 334.545622 23.978105 
L 335.853396 23.978105 
L 337.16117 39.752312 
L 338.468943 23.978105 
L 343.700039 23.978105 
L 345.007813 26.323918 
L 346.315587 23.978105 
L 347.623361 37.775919 
L 348.931135 55.267926 
L 350.238909 23.996576 
L 351.546683 23.978105 
L 352.854457 26.286976 
L 354.162231 42.061184 
L 355.470005 54.602972 
L 356.777779 50.667683 
L 358.085553 30.886247 
L 359.393327 55.235845 
L 360.701101 32.142273 
L 362.008875 48.304371 
L 363.316649 58.112456 
L 364.624423 47.52859 
L 365.932197 30.775421 
L 367.239971 52.626578 
L 368.547745 37.203319 
L 369.855519 23.978105 
L 371.163293 23.978105 
L 372.471066 24.125873 
L 373.77884 55.212514 
L 375.086614 61.350708 
L 376.394388 43.446506 
L 377.702162 37.369557 
L 379.009936 67.789299 
L 380.31771 23.978105 
L 389.472128 23.978105 
L 390.779902 40.195616 
L 392.087676 49.671223 
L 393.39545 47.787184 
L 394.703224 53.513184 
L 396.010998 163.567836 
L 397.318772 42.393661 
L 398.626546 23.978105 
L 399.93432 47.731771 
L 401.242094 23.978105 
L 401.242094 23.978105 
" clip-path="url(#p6ffd5e35a5)" style="fill: none; stroke: #d66b6a; stroke-width: 1.5; stroke-linecap: square"/>
   </g>
   <g id="line2d_24">
    <path d="M 75.606377 341.514843 
L 76.914151 322.321967 
L 78.221925 234.928886 
L 79.529699 229.005862 
L 80.837473 240.834386 
L 82.145247 237.80497 
L 83.453021 245.778271 
L 84.760795 229.404527 
L 86.068569 141.933713 
L 87.376343 198.9636 
L 88.684117 205.42767 
L 89.991891 206.822997 
L 91.299665 187.373837 
L 92.607439 185.649325 
L 93.915213 189.509542 
L 95.222987 186.491078 
L 96.530761 185.010322 
L 97.838535 181.991858 
L 99.146309 186.291746 
L 100.454082 191.246583 
L 101.761856 187.800978 
L 104.377404 165.817446 
L 105.685178 163.881073 
L 106.992952 156.306436 
L 108.300726 157.758716 
L 109.6085 162.685078 
L 110.916274 137.369845 
L 112.224048 169.320004 
L 113.531822 127.146933 
L 114.839596 127.146933 
L 116.14737 68.179134 
L 117.455144 65.426959 
L 120.070692 32.253099 
L 121.378466 24.310582 
L 122.68624 36.298241 
L 123.994014 24.698473 
L 125.301788 26.36086 
L 126.609562 23.978105 
L 127.917336 23.978105 
L 129.22511 27.228995 
L 130.532884 23.978105 
L 135.763979 23.978105 
L 137.071753 33.00652 
L 138.379527 23.978105 
L 150.149493 23.978105 
L 151.457267 50.299236 
L 152.765041 44.8503 
L 154.072815 23.978105 
L 156.688363 23.978105 
L 157.996137 38.93959 
L 159.303911 35.540931 
L 160.611685 23.978105 
L 161.919459 30.479886 
L 163.227233 44.185345 
L 164.535007 28.780557 
L 165.842781 57.521385 
L 167.150555 39.355187 
L 168.458328 24.495292 
L 169.766102 37.351086 
L 171.073876 44.166874 
L 172.38165 40.324912 
L 173.689424 40.308386 
L 174.997198 43.347832 
L 176.304972 34.709738 
L 177.612746 36.612248 
L 178.92052 34.709738 
L 180.228294 23.978105 
L 181.536068 33.398299 
L 182.843842 23.978105 
L 184.151616 23.978105 
L 185.45939 26.102266 
L 186.767164 23.978105 
L 191.99826 23.978105 
L 193.306034 24.550705 
L 194.613808 23.978105 
L 195.921582 23.978105 
L 197.229356 25.60355 
L 198.53713 23.978105 
L 199.844904 24.088931 
L 202.460451 23.978105 
L 203.768225 23.978105 
L 205.075999 32.751815 
L 206.383773 23.978105 
L 328.006752 23.978105 
L 329.314526 24.402937 
L 330.6223 23.978105 
L 333.237848 23.978105 
L 334.545622 25.806731 
L 335.853396 23.978105 
L 337.16117 23.978105 
L 338.468943 26.120737 
L 339.776717 23.978105 
L 347.623361 23.978105 
L 348.931135 31.939092 
L 350.238909 32.604047 
L 351.546683 29.076092 
L 352.854457 23.978105 
L 354.162231 23.978105 
L 355.470005 33.675364 
L 356.777779 39.031945 
L 358.085553 32.216157 
L 359.393327 32.031447 
L 360.701101 29.334686 
L 362.008875 27.339821 
L 363.316649 27.801595 
L 364.624423 24.680002 
L 365.932197 26.693337 
L 367.239971 23.978105 
L 369.855519 23.978105 
L 371.163293 25.880615 
L 372.471066 23.978105 
L 373.77884 31.846738 
L 375.086614 24.624589 
L 376.394388 24.790827 
L 377.702162 24.439879 
L 379.009936 31.791325 
L 380.31771 25.141776 
L 381.625484 33.287473 
L 382.933258 36.741544 
L 384.241032 27.949363 
L 385.548806 24.607576 
L 386.85658 23.978105 
L 388.164354 30.406002 
L 389.472128 36.153876 
L 390.779902 27.173582 
L 392.087676 23.978105 
L 393.39545 29.925757 
L 394.703224 24.569176 
L 396.010998 23.978105 
L 401.242094 23.978105 
L 401.242094 23.978105 
" clip-path="url(#p6ffd5e35a5)" style="fill: none; stroke: #5591e1; stroke-width: 1.5; stroke-linecap: square"/>
   </g>
   <g id="line2d_25">
    <path d="M 75.606377 348.858507 
L 76.914151 357.751233 
L 78.221925 359.226194 
L 79.529699 352.478133 
L 80.837473 324.657006 
L 82.145247 287.125536 
L 84.760795 235.925549 
L 86.068569 237.748017 
L 87.376343 252.185389 
L 88.684117 211.293742 
L 89.991891 219.601922 
L 91.299665 226.18673 
L 92.607439 220.320658 
L 93.915213 210.268603 
L 95.222987 201.441019 
L 96.530761 222.741125 
L 97.838535 223.128399 
L 99.146309 230.40119 
L 100.454082 239.314202 
L 101.761856 229.974048 
L 103.06963 234.637291 
L 104.377404 217.98562 
L 105.685178 228.863481 
L 106.992952 214.682395 
L 108.300726 238.516872 
L 109.6085 230.799855 
L 110.916274 200.903391 
L 112.224048 200.41588 
L 113.531822 229.033199 
L 114.839596 221.801414 
L 116.14737 228.180056 
L 117.455144 206.965378 
L 118.762918 208.987179 
L 120.070692 214.853251 
L 121.378466 213.030782 
L 122.68624 189.281734 
L 125.301788 215.856748 
L 126.609562 218.184952 
L 127.917336 208.987179 
L 129.22511 219.010759 
L 130.532884 230.230333 
L 131.840658 225.503304 
L 133.148432 208.104421 
L 134.456205 224.905307 
L 135.763979 187.259932 
L 137.071753 208.645466 
L 138.379527 200.301976 
L 139.687301 194.151143 
L 140.995075 210.610316 
L 142.302849 216.594848 
L 143.610623 211.891739 
L 144.918397 174.279222 
L 146.226171 204.260151 
L 147.533945 206.766045 
L 148.841719 231.682613 
L 150.149493 205.940239 
L 151.457267 201.355591 
L 152.765041 206.196524 
L 154.072815 184.839466 
L 155.380589 182.931569 
L 156.688363 156.13558 
L 157.996137 187.117552 
L 159.303911 161.375178 
L 160.611685 156.699406 
L 161.919459 193.659076 
L 163.227233 177.919779 
L 164.535007 196.85637 
L 165.842781 191.332011 
L 167.150555 195.546471 
L 168.458328 117.330383 
L 169.766102 96.384304 
L 171.073876 102.553607 
L 172.38165 190.563157 
L 173.689424 199.809909 
L 174.997198 195.005425 
L 176.304972 184.554705 
L 177.612746 183.517037 
L 178.92052 156.918102 
L 180.228294 147.307996 
L 181.536068 123.046378 
L 182.843842 115.243933 
L 184.151616 103.340932 
L 185.45939 107.208292 
L 186.767164 155.113858 
L 188.074938 47.251526 
L 189.382712 43.612745 
L 190.690486 159.922898 
L 191.99826 53.417988 
L 193.306034 78.20887 
L 194.613808 54.344378 
L 195.921582 79.889728 
L 197.229356 93.041058 
L 198.53713 103.809633 
L 199.844904 121.138481 
L 201.152678 89.753226 
L 202.460451 54.318616 
L 203.768225 49.357216 
L 205.075999 83.990283 
L 206.383773 61.492643 
L 207.691547 45.663022 
L 208.999321 82.58649 
L 210.307095 55.822056 
L 211.614869 53.956488 
L 212.922643 41.599409 
L 214.230417 43.631216 
L 215.538191 27.339821 
L 216.845965 23.978105 
L 218.153739 51.7215 
L 219.461513 23.978105 
L 222.077061 23.978105 
L 223.384835 56.191475 
L 224.692609 81.311993 
L 226.000383 159.808994 
L 227.308157 80.665509 
L 228.615931 88.220135 
L 229.923705 58.518817 
L 231.231479 145.741812 
L 232.539253 70.487033 
L 233.847027 72.279689 
L 235.154801 87.518238 
L 236.462574 200.643689 
L 237.770348 92.394574 
L 239.078122 183.415662 
L 240.385896 84.987716 
L 241.69367 90.141116 
L 243.001444 51.167371 
L 244.309218 77.857922 
L 245.616992 84.729122 
L 246.924766 120.654387 
L 248.23254 127.574074 
L 249.540314 114.24727 
L 250.848088 76.972085 
L 252.155862 31.181783 
L 253.463636 23.978105 
L 254.77141 62.416191 
L 256.079184 65.039069 
L 257.386958 86.539277 
L 258.694732 23.978105 
L 260.002506 69.786108 
L 261.31028 23.978105 
L 266.541376 23.978105 
L 267.84915 37.886745 
L 269.156924 27.081228 
L 270.464697 47.805655 
L 271.772471 51.259726 
L 273.080245 33.509125 
L 274.388019 68.400785 
L 275.695793 23.978105 
L 282.234663 23.978105 
L 283.542437 53.199178 
L 284.850211 23.978105 
L 286.157985 23.978105 
L 287.465759 63.986224 
L 288.773533 167.184298 
L 290.081307 109.207004 
L 291.389081 85.26478 
L 292.696855 117.66286 
L 294.004629 170.345142 
L 295.312403 62.804082 
L 296.620177 47.306939 
L 297.927951 93.022587 
L 299.235725 70.949779 
L 300.543499 109.018446 
L 301.851273 44.444911 
L 303.159047 38.905564 
L 304.46682 23.978105 
L 305.774594 50.114526 
L 307.082368 23.978105 
L 308.390142 48.221738 
L 309.697916 23.978105 
L 311.00569 23.978105 
L 312.313464 51.167371 
L 313.621238 40.08479 
L 314.929012 23.978105 
L 316.236786 23.978105 
L 317.54456 42.486016 
L 318.852334 56.080649 
L 320.160108 52.484157 
L 321.467882 59.996495 
L 322.775656 50.871836 
L 324.08343 43.649687 
L 325.391204 23.978105 
L 330.6223 23.978105 
L 331.930074 78.20887 
L 333.237848 23.978105 
L 335.853396 23.978105 
L 337.16117 44.037577 
L 338.468943 66.147327 
L 339.776717 72.825069 
L 341.084491 23.978105 
L 342.392265 87.499768 
L 343.700039 83.36227 
L 345.007813 30.055054 
L 346.315587 23.978105 
L 347.623361 53.790249 
L 348.931135 31.459819 
L 350.238909 43.982164 
L 351.546683 26.305447 
L 352.854457 23.978105 
L 355.470005 192.698863 
L 356.777779 92.579284 
L 358.085553 23.978105 
L 359.393327 73.535715 
L 360.701101 76.583425 
L 362.008875 75.087276 
L 363.316649 199.303123 
L 364.624423 200.159595 
L 365.932197 51.130429 
L 367.239971 23.978105 
L 368.547745 66.978521 
L 369.855519 45.736906 
L 371.163293 188.683736 
L 372.471066 222.882366 
L 373.77884 113.377595 
L 376.394388 219.352472 
L 377.702162 91.083136 
L 379.009936 42.19048 
L 380.31771 29.22386 
L 381.625484 23.978105 
L 384.241032 23.978105 
L 385.548806 43.563651 
L 386.85658 23.978105 
L 388.164354 56.117591 
L 389.472128 65.371547 
L 390.779902 33.638422 
L 392.087676 50.523804 
L 393.39545 23.978105 
L 394.703224 23.978105 
L 396.010998 32.718762 
L 397.318772 23.978105 
L 398.626546 70.063173 
L 399.93432 23.978105 
L 401.242094 46.161739 
L 401.242094 46.161739 
" clip-path="url(#p6ffd5e35a5)" style="fill: none; stroke: #6ca247; stroke-width: 1.5; stroke-linecap: square"/>
   </g>
   <g id="patch_3">
    <path d="M 59.324591 376.318305 
L 59.324591 7.2 
" style="fill: none; stroke: #000000; stroke-width: 0.8; stroke-linejoin: miter; stroke-linecap: square"/>
   </g>
   <g id="patch_4">
    <path d="M 417.523879 376.318305 
L 417.523879 7.2 
" style="fill: none; stroke: #000000; stroke-width: 0.8; stroke-linejoin: miter; stroke-linecap: square"/>
   </g>
   <g id="patch_5">
    <path d="M 59.324591 376.318305 
L 417.523879 376.318305 
" style="fill: none; stroke: #000000; stroke-width: 0.8; stroke-linejoin: miter; stroke-linecap: square"/>
   </g>
   <g id="patch_6">
    <path d="M 59.324591 7.2 
L 417.523879 7.2 
" style="fill: none; stroke: #000000; stroke-width: 0.8; stroke-linejoin: miter; stroke-linecap: square"/>
   </g>
   <g id="legend_1">
    <g id="patch_7">
     <path d="M 308.417969 368.318305 
L 406.323879 368.318305 
Q 409.523879 368.318305 409.523879 365.118305 
L 409.523879 299.819877 
Q 409.523879 296.619877 406.323879 296.619877 
L 308.417969 296.619877 
Q 305.217969 296.619877 305.217969 299.819877 
L 305.217969 365.118305 
Q 305.217969 368.318305 308.417969 368.318305 
z
" style="fill: #ffffff; opacity: 0.8; stroke: #cccccc; stroke-linejoin: miter"/>
    </g>
    <g id="line2d_26">
     <path d="M 311.617969 308.619877 
L 327.617969 308.619877 
L 343.617969 308.619877 
" style="fill: none; stroke: #d66b6a; stroke-width: 1.5; stroke-linecap: square"/>
    </g>
    <g id="text_14">
     <!-- SAC -->
     <g transform="translate(356.417969 314.219877) scale(0.16 -0.16)">
      <defs>
       <path id="CMR17-41" d="M 2323 4441 
C 2291 4524 2278 4544 2214 4544 
C 2150 4544 2138 4524 2106 4441 
L 749 580 
C 627 236 371 166 147 166 
L 147 0 
C 262 12 518 12 640 12 
C 800 12 1056 12 1210 0 
L 1210 166 
C 909 179 864 382 864 459 
C 864 516 877 548 890 586 
L 1229 1536 
L 2906 1536 
L 3290 453 
C 3322 376 3322 363 3322 338 
C 3322 166 3046 166 2925 166 
L 2925 0 
C 3110 12 3443 12 3642 12 
C 3808 12 4128 12 4282 0 
L 4282 166 
C 3942 166 3827 166 3744 402 
L 2323 4441 
z
M 2067 3924 
L 2848 1702 
L 1286 1702 
L 2067 3924 
z
" transform="scale(0.015625)"/>
       <path id="CMR17-43" d="M 3974 4351 
C 3974 4467 3968 4473 3930 4473 
C 3904 4473 3898 4467 3853 4390 
L 3571 3849 
C 3258 4249 2874 4480 2381 4480 
C 1286 4480 294 3507 294 2179 
C 294 837 1286 -128 2387 -128 
C 3366 -128 3974 741 3974 1482 
C 3974 1547 3974 1573 3917 1573 
C 3866 1573 3866 1553 3859 1495 
C 3808 592 3168 38 2477 38 
C 1824 38 781 502 781 2179 
C 781 3862 1843 4313 2464 4313 
C 3187 4313 3712 3681 3834 2785 
C 3846 2707 3846 2695 3904 2695 
C 3974 2695 3974 2707 3974 2824 
L 3974 4351 
z
" transform="scale(0.015625)"/>
      </defs>
      <use xlink:href="#CMR17-53" transform="scale(0.996264)"/>
      <use xlink:href="#CMR17-41" transform="translate(50.89537 0) scale(0.996264)"/>
      <use xlink:href="#CMR17-43" transform="translate(117.365346 0) scale(0.996264)"/>
     </g>
    </g>
    <g id="line2d_27">
     <path d="M 311.617969 330.919353 
L 327.617969 330.919353 
L 343.617969 330.919353 
" style="fill: none; stroke: #5591e1; stroke-width: 1.5; stroke-linecap: square"/>
    </g>
    <g id="text_15">
     <!-- AFU -->
     <g transform="translate(356.417969 336.519353) scale(0.16 -0.16)">
      <defs>
       <path id="CMR17-46" d="M 3482 4339 
L 326 4339 
L 326 4172 
C 768 4172 838 4172 838 3883 
L 838 450 
C 838 166 768 166 326 166 
L 326 0 
C 512 12 870 12 1069 12 
C 1331 12 1638 12 1901 0 
L 1901 166 
L 1760 166 
C 1274 166 1261 229 1261 456 
L 1261 2073 
L 1837 2073 
C 2432 2073 2490 1865 2490 1334 
L 2605 1334 
L 2605 2991 
L 2490 2991 
C 2490 2451 2432 2240 1837 2240 
L 1261 2240 
L 1261 3922 
C 1261 4140 1274 4172 1530 4172 
L 2355 4172 
C 3322 4172 3430 3774 3520 2920 
L 3635 2920 
L 3482 4339 
z
" transform="scale(0.015625)"/>
       <path id="CMR17-55" d="M 3456 1442 
C 3456 583 2899 38 2291 38 
C 1965 38 1670 211 1491 480 
C 1286 788 1261 1185 1261 1410 
L 1261 3897 
C 1261 4185 1331 4185 1773 4185 
L 1773 4352 
C 1587 4339 1248 4339 1050 4339 
C 851 4339 512 4339 326 4352 
L 326 4185 
C 768 4185 838 4185 838 3897 
L 838 1442 
C 838 519 1536 -128 2278 -128 
C 3110 -128 3590 724 3590 1352 
L 3590 3788 
C 3590 4147 3917 4185 4102 4185 
L 4102 4352 
C 3955 4339 3686 4339 3526 4339 
C 3366 4339 3091 4339 2944 4352 
L 2944 4185 
C 3456 4185 3456 3884 3456 3724 
L 3456 1442 
z
" transform="scale(0.015625)"/>
      </defs>
      <use xlink:href="#CMR17-41" transform="scale(0.996264)"/>
      <use xlink:href="#CMR17-46" transform="translate(69.07243 0) scale(0.996264)"/>
      <use xlink:href="#CMR17-55" transform="translate(129.056276 0) scale(0.996264)"/>
     </g>
    </g>
    <g id="line2d_28">
     <path d="M 311.617969 353.218829 
L 327.617969 353.218829 
L 343.617969 353.218829 
" style="fill: none; stroke: #6ca247; stroke-width: 1.5; stroke-linecap: square"/>
    </g>
    <g id="text_16">
     <!-- DDPG -->
     <g transform="translate(356.417969 358.818829) scale(0.16 -0.16)">
      <defs>
       <path id="CMR17-44" d="M 333 4352 
L 333 4185 
C 774 4185 845 4185 845 3898 
L 845 453 
C 845 166 774 166 333 166 
L 333 0 
L 2368 0 
C 3398 0 4224 943 4224 2140 
C 4224 3344 3411 4352 2368 4352 
L 333 4352 
z
M 1523 166 
C 1267 166 1254 198 1254 414 
L 1254 3936 
C 1254 4153 1267 4185 1523 4185 
L 2240 4185 
C 2771 4185 3750 3873 3750 2140 
C 3750 1242 3488 879 3366 707 
C 3213 510 2848 166 2240 166 
L 1523 166 
z
" transform="scale(0.015625)"/>
       <path id="CMR17-50" d="M 1267 2048 
L 2291 2048 
C 3117 2048 3718 2583 3718 3187 
C 3718 3791 3130 4352 2291 4352 
L 333 4352 
L 333 4185 
C 774 4185 845 4185 845 3899 
L 845 453 
C 845 166 774 166 333 166 
L 333 0 
C 518 12 858 12 1056 12 
C 1254 12 1594 12 1779 0 
L 1779 166 
C 1338 166 1267 166 1267 453 
L 1267 2048 
z
M 1254 2182 
L 1254 3937 
C 1254 4153 1267 4185 1523 4185 
L 2170 4185 
C 2995 4185 3232 3715 3232 3187 
C 3232 2608 2950 2182 2170 2182 
L 1254 2182 
z
" transform="scale(0.015625)"/>
       <path id="CMR17-47" d="M 3974 1258 
C 3974 1503 3994 1536 4390 1536 
L 4390 1702 
C 4237 1689 3891 1689 3718 1689 
C 3539 1689 3040 1696 2797 1702 
L 2797 1536 
L 2989 1536 
C 3539 1536 3552 1464 3552 1232 
L 3552 806 
C 3552 96 2720 38 2522 38 
C 1862 38 781 496 781 2179 
C 781 3862 1843 4313 2464 4313 
C 3187 4313 3712 3681 3834 2785 
C 3846 2708 3846 2695 3904 2695 
C 3974 2695 3974 2708 3974 2824 
L 3974 4351 
C 3974 4467 3968 4473 3930 4473 
C 3904 4473 3898 4467 3853 4390 
L 3571 3849 
C 3258 4249 2874 4480 2381 4480 
C 1286 4480 294 3507 294 2179 
C 294 858 1267 -128 2394 -128 
C 2912 -128 3418 57 3616 425 
C 3725 161 3904 -20 3936 -20 
C 3968 -20 3974 -13 3974 102 
L 3974 1258 
z
" transform="scale(0.015625)"/>
      </defs>
      <use xlink:href="#CMR17-44" transform="scale(0.996264)"/>
      <use xlink:href="#CMR17-44" transform="translate(70.393556 0) scale(0.996264)"/>
      <use xlink:href="#CMR17-50" transform="translate(140.787112 0) scale(0.996264)"/>
      <use xlink:href="#CMR17-47" transform="translate(203.373412 0) scale(0.996264)"/>
     </g>
    </g>
   </g>
  </g>
 </g>
 <defs>
  <clipPath id="p6ffd5e35a5">
   <rect x="59.324591" y="7.2" width="358.199288" height="369.118305"/>
  </clipPath>
 </defs>
</svg>
