<?xml version="1.0" encoding="utf-8" standalone="no"?>
<!DOCTYPE svg PUBLIC "-//W3C//DTD SVG 1.1//EN"
  "http://www.w3.org/Graphics/SVG/1.1/DTD/svg11.dtd">
<svg xmlns:xlink="http://www.w3.org/1999/xlink" width="425.411147pt" height="426.4pt" viewBox="0 0 425.411147 426.4" xmlns="http://www.w3.org/2000/svg" version="1.1">
 <metadata>
  <rdf:RDF xmlns:dc="http://purl.org/dc/elements/1.1/" xmlns:cc="http://creativecommons.org/ns#" xmlns:rdf="http://www.w3.org/1999/02/22-rdf-syntax-ns#">
   <cc:Work>
    <dc:type rdf:resource="http://purl.org/dc/dcmitype/StillImage"/>
    <dc:date>1980-01-01T00:00:00+00:00</dc:date>
    <dc:format>image/svg+xml</dc:format>
    <dc:creator>
     <cc:Agent>
      <dc:title>Matplotlib v3.8.0, https://matplotlib.org/</dc:title>
     </cc:Agent>
    </dc:creator>
   </cc:Work>
  </rdf:RDF>
 </metadata>
 <defs>
  <style type="text/css">*{stroke-linejoin: round; stroke-linecap: butt}</style>
 </defs>
 <g id="figure_1">
  <g id="patch_1">
   <path d="M 0 426.4 
L 425.411147 426.4 
L 425.411147 0 
L 0 0 
z
" style="fill: #ffffff"/>
  </g>
  <g id="axes_1">
   <g id="patch_2">
    <path d="M 59.324591 376.318305 
L 417.523879 376.318305 
L 417.523879 7.2 
L 59.324591 7.2 
z
" style="fill: #ffffff"/>
   </g>
   <g id="PolyCollection_1">
    <defs>
     <path id="m3418afe90d" d="M 75.606377 -88.558571 
L 75.606377 -77.794613 
L 76.914151 -82.749451 
L 78.221925 -74.377484 
L 79.529699 -77.111187 
L 80.837473 -75.744336 
L 82.145247 -72.498063 
L 83.453021 -70.447785 
L 84.760795 -70.276929 
L 86.068569 -69.76436 
L 87.376343 -70.960355 
L 88.684117 -71.814637 
L 89.991891 -73.694058 
L 91.299665 -73.864915 
L 92.607439 -94.88026 
L 93.915213 -90.779705 
L 95.222987 -149.041759 
L 96.530761 -402.421895 
L 97.838535 -402.421895 
L 99.146309 -172.790807 
L 100.454082 -168.006826 
L 101.761856 -178.599927 
L 103.06963 -200.982124 
L 104.377404 -184.409047 
L 105.685178 -402.421895 
L 106.992952 -271.887557 
L 108.300726 -402.421895 
L 109.6085 -257.535614 
L 110.916274 -264.199016 
L 112.224048 -402.421895 
L 113.531822 -315.797668 
L 114.839596 -262.832164 
L 116.14737 -234.98256 
L 117.455144 -304.862854 
L 118.762918 -291.53605 
L 120.070692 -375.426574 
L 121.378466 -252.40992 
L 122.68624 -402.421895 
L 123.994014 -278.550959 
L 125.301788 -292.902902 
L 126.609562 -282.480657 
L 127.917336 -311.013687 
L 129.22511 -290.510911 
L 130.532884 -345.014123 
L 131.840658 -298.199452 
L 133.148432 -335.446161 
L 134.456205 -352.190095 
L 135.763979 -304.179428 
L 137.071753 -341.76785 
L 138.379527 -300.24973 
L 139.687301 -288.289777 
L 140.995075 -288.63149 
L 142.302849 -402.421895 
L 143.610623 -309.475979 
L 144.918397 -265.395011 
L 146.226171 -290.510911 
L 147.533945 -260.440174 
L 148.841719 -278.721815 
L 150.149493 -257.535614 
L 151.457267 -250.017929 
L 152.765041 -253.776771 
L 154.072815 -294.611466 
L 155.380589 -291.023481 
L 156.688363 -259.585891 
L 157.996137 -287.264638 
L 159.303911 -235.836843 
L 160.611685 -307.083988 
L 161.919459 -280.772093 
L 163.227233 -286.2395 
L 164.535007 -341.938707 
L 165.842781 -287.093782 
L 167.150555 -292.390332 
L 168.458328 -402.421895 
L 169.766102 -266.078437 
L 171.073876 -402.421895 
L 172.38165 -402.421895 
L 173.689424 -321.435931 
L 174.997198 -304.691998 
L 176.304972 -402.421895 
L 177.612746 -285.043504 
L 178.92052 -305.54628 
L 180.228294 -343.818128 
L 181.536068 -307.083988 
L 182.843842 -362.954052 
L 184.151616 -386.019675 
L 185.45939 -299.395447 
L 186.767164 -336.813013 
L 188.074938 -316.822807 
L 189.382712 -371.838588 
L 190.690486 -300.078873 
L 191.99826 -308.621696 
L 193.306034 -402.421895 
L 194.613808 -266.761863 
L 195.921582 -263.51559 
L 197.229356 -292.561189 
L 198.53713 -336.300444 
L 199.844904 -308.279983 
L 201.152678 -337.325582 
L 202.460451 -286.922925 
L 203.768225 -335.446161 
L 205.075999 -333.225027 
L 206.383773 -313.234821 
L 207.691547 -315.797668 
L 208.999321 -275.475542 
L 210.307095 -310.330261 
L 211.614869 -398.833909 
L 212.922643 -317.506233 
L 214.230417 -354.411229 
L 215.538191 -402.421895 
L 216.845965 -306.229706 
L 218.153739 -338.350721 
L 219.461513 -313.234821 
L 220.769287 -364.150047 
L 222.077061 -379.185416 
L 223.384835 -327.75762 
L 224.692609 -378.50199 
L 226.000383 -313.74739 
L 227.308157 -398.32134 
L 228.615931 -344.843267 
L 229.923705 -378.160277 
L 231.231479 -352.019238 
L 232.539253 -402.421895 
L 233.847027 -370.471736 
L 235.154801 -367.054607 
L 236.462574 -308.45084 
L 237.770348 -391.999651 
L 239.078122 -317.335376 
L 240.385896 -268.641284 
L 241.69367 -341.255281 
L 243.001444 -323.998778 
L 244.309218 -308.109127 
L 245.616992 -328.782759 
L 246.924766 -310.501118 
L 248.23254 -323.144496 
L 249.540314 -271.374987 
L 250.848088 -307.767414 
L 252.155862 -311.526256 
L 253.463636 -382.089976 
L 254.77141 -304.521141 
L 256.079184 -335.446161 
L 257.386958 -349.968961 
L 258.694732 -402.421895 
L 260.002506 -310.159405 
L 261.31028 -295.636605 
L 262.618054 -337.496439 
L 263.925828 -401.909326 
L 265.233602 -367.567177 
L 266.541376 -402.421895 
L 267.84915 -378.160277 
L 269.156924 -402.421895 
L 270.464697 -402.421895 
L 271.772471 -374.230579 
L 273.080245 -402.421895 
L 274.388019 -368.250602 
L 275.695793 -374.059722 
L 277.003567 -304.350285 
L 278.311341 -375.255717 
L 279.619115 -346.380975 
L 280.926889 -402.421895 
L 282.234663 -370.130023 
L 283.542437 -301.958294 
L 284.850211 -351.164956 
L 286.157985 -374.743148 
L 287.465759 -379.356273 
L 288.773533 -402.421895 
L 290.081307 -402.421895 
L 291.389081 -402.421895 
L 292.696855 -355.607224 
L 294.004629 -402.421895 
L 295.312403 -402.421895 
L 296.620177 -333.56674 
L 297.927951 -402.421895 
L 299.235725 -402.421895 
L 300.543499 -337.496439 
L 301.851273 -402.421895 
L 303.159047 -402.421895 
L 304.46682 -402.421895 
L 305.774594 -361.758057 
L 307.082368 -345.014123 
L 308.390142 -388.582522 
L 309.697916 -402.421895 
L 311.00569 -402.421895 
L 312.313464 -402.421895 
L 313.621238 -386.361388 
L 314.929012 -402.421895 
L 316.236786 -402.421895 
L 317.54456 -402.421895 
L 318.852334 -402.421895 
L 320.160108 -402.421895 
L 321.467882 -347.747827 
L 322.775656 -402.421895 
L 324.08343 -402.421895 
L 325.391204 -402.421895 
L 326.698978 -402.421895 
L 328.006752 -399.346479 
L 329.314526 -402.421895 
L 330.6223 -402.421895 
L 331.930074 -402.421895 
L 333.237848 -402.421895 
L 334.545622 -402.421895 
L 335.853396 -402.421895 
L 337.16117 -331.17475 
L 338.468943 -386.873957 
L 339.776717 -402.421895 
L 341.084491 -402.421895 
L 342.392265 -402.421895 
L 343.700039 -402.421895 
L 345.007813 -402.421895 
L 346.315587 -402.421895 
L 347.623361 -393.708216 
L 348.931135 -402.421895 
L 350.238909 -402.421895 
L 351.546683 -393.879072 
L 352.854457 -402.421895 
L 354.162231 -402.421895 
L 355.470005 -402.421895 
L 356.777779 -402.421895 
L 358.085553 -402.421895 
L 359.393327 -402.421895 
L 360.701101 -402.421895 
L 362.008875 -397.296201 
L 363.316649 -402.421895 
L 364.624423 -402.421895 
L 365.932197 -402.421895 
L 367.239971 -402.421895 
L 368.547745 -402.421895 
L 369.855519 -402.421895 
L 371.163293 -402.421895 
L 372.471066 -402.421895 
L 373.77884 -402.421895 
L 375.086614 -402.421895 
L 376.394388 -402.421895 
L 377.702162 -377.818564 
L 379.009936 -402.421895 
L 380.31771 -402.421895 
L 381.625484 -402.421895 
L 382.933258 -402.421895 
L 384.241032 -402.421895 
L 385.548806 -402.421895 
L 386.85658 -402.421895 
L 388.164354 -402.421895 
L 389.472128 -402.421895 
L 390.779902 -402.421895 
L 392.087676 -355.607224 
L 393.39545 -402.421895 
L 394.703224 -402.421895 
L 396.010998 -402.421895 
L 397.318772 -402.421895 
L 398.626546 -402.421895 
L 399.93432 -385.677962 
L 401.242094 -389.095091 
L 401.242094 -402.421895 
L 401.242094 -402.421895 
L 399.93432 -402.421895 
L 398.626546 -402.421895 
L 397.318772 -402.421895 
L 396.010998 -402.421895 
L 394.703224 -402.421895 
L 393.39545 -402.421895 
L 392.087676 -402.421895 
L 390.779902 -402.421895 
L 389.472128 -402.421895 
L 388.164354 -402.421895 
L 386.85658 -402.421895 
L 385.548806 -402.421895 
L 384.241032 -402.421895 
L 382.933258 -402.421895 
L 381.625484 -402.421895 
L 380.31771 -402.421895 
L 379.009936 -402.421895 
L 377.702162 -402.421895 
L 376.394388 -402.421895 
L 375.086614 -402.421895 
L 373.77884 -402.421895 
L 372.471066 -402.421895 
L 371.163293 -402.421895 
L 369.855519 -402.421895 
L 368.547745 -402.421895 
L 367.239971 -402.421895 
L 365.932197 -402.421895 
L 364.624423 -402.421895 
L 363.316649 -402.421895 
L 362.008875 -402.421895 
L 360.701101 -402.421895 
L 359.393327 -402.421895 
L 358.085553 -402.421895 
L 356.777779 -402.421895 
L 355.470005 -402.421895 
L 354.162231 -402.421895 
L 352.854457 -402.421895 
L 351.546683 -402.421895 
L 350.238909 -402.421895 
L 348.931135 -402.421895 
L 347.623361 -402.421895 
L 346.315587 -402.421895 
L 345.007813 -402.421895 
L 343.700039 -402.421895 
L 342.392265 -402.421895 
L 341.084491 -402.421895 
L 339.776717 -402.421895 
L 338.468943 -402.421895 
L 337.16117 -402.421895 
L 335.853396 -402.421895 
L 334.545622 -402.421895 
L 333.237848 -402.421895 
L 331.930074 -402.421895 
L 330.6223 -402.421895 
L 329.314526 -402.421895 
L 328.006752 -402.421895 
L 326.698978 -402.421895 
L 325.391204 -402.421895 
L 324.08343 -402.421895 
L 322.775656 -402.421895 
L 321.467882 -402.421895 
L 320.160108 -402.421895 
L 318.852334 -402.421895 
L 317.54456 -402.421895 
L 316.236786 -402.421895 
L 314.929012 -402.421895 
L 313.621238 -402.421895 
L 312.313464 -402.421895 
L 311.00569 -402.421895 
L 309.697916 -402.421895 
L 308.390142 -402.421895 
L 307.082368 -402.421895 
L 305.774594 -402.421895 
L 304.46682 -402.421895 
L 303.159047 -402.421895 
L 301.851273 -402.421895 
L 300.543499 -402.421895 
L 299.235725 -402.421895 
L 297.927951 -402.421895 
L 296.620177 -402.421895 
L 295.312403 -402.421895 
L 294.004629 -402.421895 
L 292.696855 -402.421895 
L 291.389081 -402.421895 
L 290.081307 -402.421895 
L 288.773533 -402.421895 
L 287.465759 -402.421895 
L 286.157985 -402.421895 
L 284.850211 -402.421895 
L 283.542437 -402.421895 
L 282.234663 -402.421895 
L 280.926889 -402.421895 
L 279.619115 -402.421895 
L 278.311341 -402.421895 
L 277.003567 -402.421895 
L 275.695793 -402.421895 
L 274.388019 -402.421895 
L 273.080245 -402.421895 
L 271.772471 -402.421895 
L 270.464697 -402.421895 
L 269.156924 -402.421895 
L 267.84915 -402.421895 
L 266.541376 -402.421895 
L 265.233602 -402.421895 
L 263.925828 -402.421895 
L 262.618054 -396.612775 
L 261.31028 -402.421895 
L 260.002506 -402.421895 
L 258.694732 -402.421895 
L 257.386958 -402.421895 
L 256.079184 -402.421895 
L 254.77141 -402.421895 
L 253.463636 -402.421895 
L 252.155862 -400.713331 
L 250.848088 -402.421895 
L 249.540314 -402.421895 
L 248.23254 -402.421895 
L 246.924766 -402.421895 
L 245.616992 -402.421895 
L 244.309218 -402.421895 
L 243.001444 -402.421895 
L 241.69367 -402.421895 
L 240.385896 -402.421895 
L 239.078122 -402.421895 
L 237.770348 -402.421895 
L 236.462574 -402.421895 
L 235.154801 -402.421895 
L 233.847027 -402.421895 
L 232.539253 -402.421895 
L 231.231479 -402.421895 
L 229.923705 -402.421895 
L 228.615931 -402.421895 
L 227.308157 -402.421895 
L 226.000383 -402.421895 
L 224.692609 -402.421895 
L 223.384835 -402.421895 
L 222.077061 -402.421895 
L 220.769287 -402.421895 
L 219.461513 -383.456828 
L 218.153739 -402.421895 
L 216.845965 -402.421895 
L 215.538191 -402.421895 
L 214.230417 -402.421895 
L 212.922643 -402.421895 
L 211.614869 -402.421895 
L 210.307095 -394.049928 
L 208.999321 -367.054607 
L 207.691547 -402.421895 
L 206.383773 -402.421895 
L 205.075999 -402.421895 
L 203.768225 -402.421895 
L 202.460451 -402.421895 
L 201.152678 -402.421895 
L 199.844904 -402.421895 
L 198.53713 -402.421895 
L 197.229356 -390.803656 
L 195.921582 -325.707343 
L 194.613808 -402.421895 
L 193.306034 -402.421895 
L 191.99826 -402.421895 
L 190.690486 -402.421895 
L 189.382712 -402.421895 
L 188.074938 -402.421895 
L 186.767164 -402.421895 
L 185.45939 -402.421895 
L 184.151616 -402.421895 
L 182.843842 -402.421895 
L 181.536068 -402.421895 
L 180.228294 -402.421895 
L 178.92052 -402.421895 
L 177.612746 -385.507105 
L 176.304972 -402.421895 
L 174.997198 -402.421895 
L 173.689424 -402.421895 
L 172.38165 -402.421895 
L 171.073876 -402.421895 
L 169.766102 -329.807898 
L 168.458328 -402.421895 
L 167.150555 -368.934028 
L 165.842781 -402.421895 
L 164.535007 -402.421895 
L 163.227233 -402.421895 
L 161.919459 -402.421895 
L 160.611685 -368.592315 
L 159.303911 -343.988984 
L 157.996137 -402.421895 
L 156.688363 -390.12023 
L 155.380589 -313.405677 
L 154.072815 -356.632363 
L 152.765041 -317.335376 
L 151.457267 -376.451713 
L 150.149493 -348.08954 
L 148.841719 -332.712458 
L 147.533945 -353.727803 
L 146.226171 -356.974076 
L 144.918397 -402.421895 
L 143.610623 -402.421895 
L 142.302849 -402.421895 
L 140.995075 -402.421895 
L 139.687301 -402.421895 
L 138.379527 -402.421895 
L 137.071753 -402.421895 
L 135.763979 -402.421895 
L 134.456205 -402.421895 
L 133.148432 -402.421895 
L 131.840658 -402.421895 
L 130.532884 -402.421895 
L 129.22511 -372.522014 
L 127.917336 -402.421895 
L 126.609562 -402.421895 
L 125.301788 -402.421895 
L 123.994014 -402.421895 
L 122.68624 -402.421895 
L 121.378466 -402.421895 
L 120.070692 -402.421895 
L 118.762918 -402.421895 
L 117.455144 -402.421895 
L 116.14737 -323.144496 
L 114.839596 -402.421895 
L 113.531822 -402.421895 
L 112.224048 -402.421895 
L 110.916274 -402.421895 
L 109.6085 -402.421895 
L 108.300726 -402.421895 
L 106.992952 -402.421895 
L 105.685178 -402.421895 
L 104.377404 -402.421895 
L 103.06963 -402.421895 
L 101.761856 -402.421895 
L 100.454082 -200.469555 
L 99.146309 -402.421895 
L 97.838535 -402.421895 
L 96.530761 -402.421895 
L 95.222987 -240.79168 
L 93.915213 -217.726057 
L 92.607439 -172.449094 
L 91.299665 -80.528317 
L 89.991891 -78.990609 
L 88.684117 -75.06091 
L 87.376343 -73.694058 
L 86.068569 -72.327206 
L 84.760795 -71.643781 
L 83.453021 -72.327206 
L 82.145247 -76.940331 
L 80.837473 -81.895168 
L 79.529699 -82.578594 
L 78.221925 -77.794613 
L 76.914151 -95.392829 
L 75.606377 -88.558571 
z
" style="stroke: #d66b6a; stroke-opacity: 0.2"/>
    </defs>
    <g clip-path="url(#p69c267eb3e)">
     <use xlink:href="#m3418afe90d" x="0" y="426.4" style="fill: #d66b6a; fill-opacity: 0.2; stroke: #d66b6a; stroke-opacity: 0.2"/>
    </g>
   </g>
   <g id="PolyCollection_2">
    <defs>
     <path id="maff128bbaf" d="M 75.606377 -85.312298 
L 75.606377 -77.794613 
L 76.914151 -81.382599 
L 78.221925 -77.282044 
L 79.529699 -80.015747 
L 80.837473 -75.744336 
L 82.145247 -77.794613 
L 83.453021 -76.598618 
L 84.760795 -73.010632 
L 86.068569 -73.010632 
L 87.376343 -71.643781 
L 88.684117 -72.327206 
L 89.991891 -73.181489 
L 91.299665 -79.332322 
L 92.607439 -95.734542 
L 93.915213 -129.222409 
L 95.222987 -145.62463 
L 96.530761 -402.421895 
L 97.838535 -402.421895 
L 99.146309 -402.421895 
L 100.454082 -402.421895 
L 101.761856 -402.421895 
L 103.06963 -402.421895 
L 104.377404 -260.952743 
L 105.685178 -402.421895 
L 106.992952 -402.421895 
L 108.300726 -402.421895 
L 109.6085 -402.421895 
L 110.916274 -402.421895 
L 112.224048 -388.582522 
L 113.531822 -294.269753 
L 114.839596 -281.455519 
L 116.14737 -328.099333 
L 117.455144 -336.300444 
L 118.762918 -321.948501 
L 120.070692 -284.872648 
L 121.378466 -372.863727 
L 122.68624 -242.500245 
L 123.994014 -247.284226 
L 125.301788 -282.309801 
L 126.609562 -280.601236 
L 127.917336 -267.957858 
L 129.22511 -257.535614 
L 130.532884 -286.581213 
L 131.840658 -283.676653 
L 133.148432 -292.561189 
L 134.456205 -282.82237 
L 135.763979 -284.018366 
L 137.071753 -261.807025 
L 138.379527 -245.917374 
L 139.687301 -280.259523 
L 140.995075 -259.927604 
L 142.302849 -249.847073 
L 143.610623 -244.037953 
L 144.918397 -270.691561 
L 146.226171 -272.570982 
L 147.533945 -254.972767 
L 148.841719 -265.565867 
L 150.149493 -282.82237 
L 151.457267 -298.199452 
L 152.765041 -267.103576 
L 154.072815 -236.691125 
L 155.380589 -253.947628 
L 156.688363 -253.093346 
L 157.996137 -240.79168 
L 159.303911 -267.957858 
L 160.611685 -253.605915 
L 161.919459 -252.239063 
L 163.227233 -277.52582 
L 164.535007 -251.043068 
L 165.842781 -246.259087 
L 167.150555 -231.052862 
L 168.458328 -215.846636 
L 169.766102 -257.70647 
L 171.073876 -216.017493 
L 172.38165 -239.083116 
L 173.689424 -235.836843 
L 174.997198 -262.490451 
L 176.304972 -238.570546 
L 177.612746 -286.922925 
L 178.92052 -255.485336 
L 180.228294 -305.717137 
L 181.536068 -255.143623 
L 182.843842 -269.153853 
L 184.151616 -222.851751 
L 185.45939 -249.334503 
L 186.767164 -295.807462 
L 188.074938 -280.43038 
L 189.382712 -294.098897 
L 190.690486 -276.671538 
L 191.99826 -301.787438 
L 193.306034 -246.088231 
L 194.613808 -263.344733 
L 195.921582 -269.495566 
L 197.229356 -299.395447 
L 198.53713 -308.45084 
L 199.844904 -293.757184 
L 201.152678 -239.253972 
L 202.460451 -233.103139 
L 203.768225 -243.354527 
L 205.075999 -264.882442 
L 206.383773 -281.626375 
L 207.691547 -249.50536 
L 208.999321 -314.089103 
L 210.307095 -271.545844 
L 211.614869 -273.425265 
L 212.922643 -309.988548 
L 214.230417 -284.360078 
L 215.538191 -294.269753 
L 216.845965 -278.380102 
L 218.153739 -232.932283 
L 219.461513 -282.138944 
L 220.769287 -321.777644 
L 222.077061 -299.566304 
L 223.384835 -286.068643 
L 224.692609 -321.094218 
L 226.000383 -259.073322 
L 227.308157 -278.380102 
L 228.615931 -286.068643 
L 229.923705 -249.50536 
L 231.231479 -281.797232 
L 232.539253 -301.787438 
L 233.847027 -313.405677 
L 235.154801 -324.682204 
L 236.462574 -318.189658 
L 237.770348 -402.421895 
L 239.078122 -384.652823 
L 240.385896 -305.375424 
L 241.69367 -317.335376 
L 243.001444 -353.38609 
L 244.309218 -267.616145 
L 245.616992 -326.049056 
L 246.924766 -394.904211 
L 248.23254 -402.421895 
L 249.540314 -301.445725 
L 250.848088 -325.36563 
L 252.155862 -371.155162 
L 253.463636 -252.580776 
L 254.77141 -301.787438 
L 256.079184 -402.421895 
L 257.386958 -402.421895 
L 258.694732 -402.421895 
L 260.002506 -365.00433 
L 261.31028 -371.155162 
L 262.618054 -402.421895 
L 263.925828 -402.421895 
L 265.233602 -296.8326 
L 266.541376 -402.421895 
L 267.84915 -402.421895 
L 269.156924 -367.39632 
L 270.464697 -318.531371 
L 271.772471 -333.56674 
L 273.080245 -333.225027 
L 274.388019 -374.572292 
L 275.695793 -305.54628 
L 277.003567 -402.421895 
L 278.311341 -402.421895 
L 279.619115 -361.758057 
L 280.926889 -328.611903 
L 282.234663 -402.421895 
L 283.542437 -402.421895 
L 284.850211 -363.979191 
L 286.157985 -320.581649 
L 287.465759 -402.421895 
L 288.773533 -402.421895 
L 290.081307 -368.421459 
L 291.389081 -402.421895 
L 292.696855 -402.421895 
L 294.004629 -379.868842 
L 295.312403 -402.421895 
L 296.620177 -402.421895 
L 297.927951 -402.421895 
L 299.235725 -402.421895 
L 300.543499 -402.421895 
L 301.851273 -290.852624 
L 303.159047 -363.124908 
L 304.46682 -402.421895 
L 305.774594 -402.421895 
L 307.082368 -402.421895 
L 308.390142 -339.205003 
L 309.697916 -367.908889 
L 311.00569 -379.868842 
L 312.313464 -359.024353 
L 313.621238 -326.732482 
L 314.929012 -390.461943 
L 316.236786 -402.421895 
L 317.54456 -402.421895 
L 318.852334 -402.421895 
L 320.160108 -317.506233 
L 321.467882 -386.190531 
L 322.775656 -317.335376 
L 324.08343 -402.421895 
L 325.391204 -352.019238 
L 326.698978 -402.421895 
L 328.006752 -402.421895 
L 329.314526 -402.421895 
L 330.6223 -383.798541 
L 331.930074 -402.421895 
L 333.237848 -310.330261 
L 334.545622 -402.421895 
L 335.853396 -402.421895 
L 337.16117 -402.421895 
L 338.468943 -402.421895 
L 339.776717 -402.421895 
L 341.084491 -402.421895 
L 342.392265 -287.093782 
L 343.700039 -357.315789 
L 345.007813 -393.879072 
L 346.315587 -402.421895 
L 347.623361 -402.421895 
L 348.931135 -356.119793 
L 350.238909 -308.279983 
L 351.546683 -402.421895 
L 352.854457 -319.727367 
L 354.162231 -343.818128 
L 355.470005 -338.179865 
L 356.777779 -302.812577 
L 358.085553 -394.733354 
L 359.393327 -402.421895 
L 360.701101 -379.185416 
L 362.008875 -402.421895 
L 363.316649 -316.481094 
L 364.624423 -402.421895 
L 365.932197 -338.521578 
L 367.239971 -402.421895 
L 368.547745 -393.195646 
L 369.855519 -307.425701 
L 371.163293 -402.421895 
L 372.471066 -402.421895 
L 373.77884 -402.421895 
L 375.086614 -310.671974 
L 376.394388 -326.390769 
L 377.702162 -330.320467 
L 379.009936 -354.411229 
L 380.31771 -402.421895 
L 381.625484 -400.371618 
L 382.933258 -384.481966 
L 384.241032 -340.059286 
L 385.548806 -275.475542 
L 386.85658 -383.115115 
L 388.164354 -402.421895 
L 389.472128 -402.421895 
L 390.779902 -345.697549 
L 392.087676 -402.421895 
L 393.39545 -402.421895 
L 394.703224 -402.421895 
L 396.010998 -393.195646 
L 397.318772 -402.421895 
L 398.626546 -336.129587 
L 399.93432 -402.421895 
L 401.242094 -292.048619 
L 401.242094 -402.421895 
L 401.242094 -402.421895 
L 399.93432 -402.421895 
L 398.626546 -402.421895 
L 397.318772 -402.421895 
L 396.010998 -402.421895 
L 394.703224 -402.421895 
L 393.39545 -402.421895 
L 392.087676 -402.421895 
L 390.779902 -402.421895 
L 389.472128 -402.421895 
L 388.164354 -402.421895 
L 386.85658 -402.421895 
L 385.548806 -402.421895 
L 384.241032 -402.421895 
L 382.933258 -402.421895 
L 381.625484 -402.421895 
L 380.31771 -402.421895 
L 379.009936 -402.421895 
L 377.702162 -402.421895 
L 376.394388 -402.421895 
L 375.086614 -396.441919 
L 373.77884 -402.421895 
L 372.471066 -402.421895 
L 371.163293 -402.421895 
L 369.855519 -402.421895 
L 368.547745 -402.421895 
L 367.239971 -402.421895 
L 365.932197 -402.421895 
L 364.624423 -402.421895 
L 363.316649 -402.421895 
L 362.008875 -402.421895 
L 360.701101 -402.421895 
L 359.393327 -402.421895 
L 358.085553 -402.421895 
L 356.777779 -402.421895 
L 355.470005 -402.421895 
L 354.162231 -402.421895 
L 352.854457 -402.421895 
L 351.546683 -402.421895 
L 350.238909 -402.421895 
L 348.931135 -402.421895 
L 347.623361 -402.421895 
L 346.315587 -402.421895 
L 345.007813 -402.421895 
L 343.700039 -402.421895 
L 342.392265 -402.421895 
L 341.084491 -402.421895 
L 339.776717 -402.421895 
L 338.468943 -402.421895 
L 337.16117 -402.421895 
L 335.853396 -402.421895 
L 334.545622 -402.421895 
L 333.237848 -402.421895 
L 331.930074 -402.421895 
L 330.6223 -402.421895 
L 329.314526 -402.421895 
L 328.006752 -402.421895 
L 326.698978 -402.421895 
L 325.391204 -402.421895 
L 324.08343 -402.421895 
L 322.775656 -402.421895 
L 321.467882 -402.421895 
L 320.160108 -402.421895 
L 318.852334 -402.421895 
L 317.54456 -402.421895 
L 316.236786 -402.421895 
L 314.929012 -402.421895 
L 313.621238 -402.421895 
L 312.313464 -402.421895 
L 311.00569 -402.421895 
L 309.697916 -402.421895 
L 308.390142 -402.421895 
L 307.082368 -402.421895 
L 305.774594 -402.421895 
L 304.46682 -402.421895 
L 303.159047 -402.421895 
L 301.851273 -402.421895 
L 300.543499 -402.421895 
L 299.235725 -402.421895 
L 297.927951 -402.421895 
L 296.620177 -402.421895 
L 295.312403 -402.421895 
L 294.004629 -402.421895 
L 292.696855 -402.421895 
L 291.389081 -402.421895 
L 290.081307 -402.421895 
L 288.773533 -402.421895 
L 287.465759 -402.421895 
L 286.157985 -402.421895 
L 284.850211 -402.421895 
L 283.542437 -402.421895 
L 282.234663 -402.421895 
L 280.926889 -402.421895 
L 279.619115 -402.421895 
L 278.311341 -402.421895 
L 277.003567 -402.421895 
L 275.695793 -402.421895 
L 274.388019 -402.421895 
L 273.080245 -402.421895 
L 271.772471 -402.421895 
L 270.464697 -402.421895 
L 269.156924 -402.421895 
L 267.84915 -402.421895 
L 266.541376 -402.421895 
L 265.233602 -402.421895 
L 263.925828 -402.421895 
L 262.618054 -402.421895 
L 261.31028 -402.421895 
L 260.002506 -402.421895 
L 258.694732 -402.421895 
L 257.386958 -402.421895 
L 256.079184 -402.421895 
L 254.77141 -402.421895 
L 253.463636 -402.421895 
L 252.155862 -402.421895 
L 250.848088 -402.421895 
L 249.540314 -402.421895 
L 248.23254 -402.421895 
L 246.924766 -402.421895 
L 245.616992 -402.421895 
L 244.309218 -384.481966 
L 243.001444 -402.421895 
L 241.69367 -402.421895 
L 240.385896 -402.421895 
L 239.078122 -402.421895 
L 237.770348 -402.421895 
L 236.462574 -402.421895 
L 235.154801 -402.421895 
L 233.847027 -402.421895 
L 232.539253 -402.421895 
L 231.231479 -402.421895 
L 229.923705 -302.470864 
L 228.615931 -369.959167 
L 227.308157 -340.230142 
L 226.000383 -402.421895 
L 224.692609 -402.421895 
L 223.384835 -402.421895 
L 222.077061 -340.230142 
L 220.769287 -402.421895 
L 219.461513 -402.421895 
L 218.153739 -402.421895 
L 216.845965 -402.421895 
L 215.538191 -402.421895 
L 214.230417 -388.069952 
L 212.922643 -402.421895 
L 211.614869 -388.924235 
L 210.307095 -365.516899 
L 208.999321 -402.421895 
L 207.691547 -324.340491 
L 206.383773 -395.075067 
L 205.075999 -392.170507 
L 203.768225 -335.104448 
L 202.460451 -276.158968 
L 201.152678 -293.244615 
L 199.844904 -377.818564 
L 198.53713 -402.421895 
L 197.229356 -402.421895 
L 195.921582 -402.421895 
L 194.613808 -402.421895 
L 193.306034 -402.421895 
L 191.99826 -402.421895 
L 190.690486 -387.386526 
L 189.382712 -402.421895 
L 188.074938 -395.587637 
L 186.767164 -402.421895 
L 185.45939 -402.421895 
L 184.151616 -304.350285 
L 182.843842 -357.657502 
L 181.536068 -300.420586 
L 180.228294 -363.808334 
L 178.92052 -290.340055 
L 177.612746 -347.918683 
L 176.304972 -357.999215 
L 174.997198 -320.923362 
L 173.689424 -325.023917 
L 172.38165 -345.355836 
L 171.073876 -326.219912 
L 169.766102 -346.039262 
L 168.458328 -253.435058 
L 167.150555 -303.15429 
L 165.842781 -304.350285 
L 164.535007 -308.792553 
L 163.227233 -380.039698 
L 161.919459 -316.993663 
L 160.611685 -297.686883 
L 159.303911 -315.285099 
L 157.996137 -285.385217 
L 156.688363 -332.541601 
L 155.380589 -359.024353 
L 154.072815 -334.762735 
L 152.765041 -301.104012 
L 151.457267 -402.421895 
L 150.149493 -402.421895 
L 148.841719 -402.421895 
L 147.533945 -302.983433 
L 146.226171 -342.792989 
L 144.918397 -402.421895 
L 143.610623 -273.937834 
L 142.302849 -338.350721 
L 140.995075 -402.421895 
L 139.687301 -325.194773 
L 138.379527 -395.075067 
L 137.071753 -309.475979 
L 135.763979 -402.421895 
L 134.456205 -383.285971 
L 133.148432 -398.663053 
L 131.840658 -328.099333 
L 130.532884 -402.421895 
L 129.22511 -401.567613 
L 127.917336 -402.421895 
L 126.609562 -354.923798 
L 125.301788 -402.421895 
L 123.994014 -402.421895 
L 122.68624 -402.421895 
L 121.378466 -402.421895 
L 120.070692 -402.421895 
L 118.762918 -402.421895 
L 117.455144 -402.421895 
L 116.14737 -402.421895 
L 114.839596 -402.421895 
L 113.531822 -402.421895 
L 112.224048 -402.421895 
L 110.916274 -402.421895 
L 109.6085 -402.421895 
L 108.300726 -402.421895 
L 106.992952 -402.421895 
L 105.685178 -402.421895 
L 104.377404 -402.421895 
L 103.06963 -402.421895 
L 101.761856 -402.421895 
L 100.454082 -402.421895 
L 99.146309 -402.421895 
L 97.838535 -402.421895 
L 96.530761 -402.421895 
L 95.222987 -392.683077 
L 93.915213 -143.061783 
L 92.607439 -168.690252 
L 91.299665 -104.106509 
L 89.991891 -80.35746 
L 88.684117 -81.724312 
L 87.376343 -75.744336 
L 86.068569 -77.111187 
L 84.760795 -75.744336 
L 83.453021 -83.091164 
L 82.145247 -87.875145 
L 80.837473 -80.528317 
L 79.529699 -86.508293 
L 78.221925 -87.362575 
L 76.914151 -91.9757 
L 75.606377 -85.312298 
z
" style="stroke: #5591e1; stroke-opacity: 0.2"/>
    </defs>
    <g clip-path="url(#p69c267eb3e)">
     <use xlink:href="#maff128bbaf" x="0" y="426.4" style="fill: #5591e1; fill-opacity: 0.2; stroke: #5591e1; stroke-opacity: 0.2"/>
    </g>
   </g>
   <g id="PolyCollection_3">
    <defs>
     <path id="m4f4a8ede4d" d="M 75.606377 -90.779705 
L 75.606377 -79.332322 
L 76.914151 -66.8598 
L 78.221925 -66.8598 
L 79.529699 -66.8598 
L 80.837473 -66.8598 
L 82.145247 -66.8598 
L 83.453021 -66.8598 
L 84.760795 -66.8598 
L 86.068569 -66.8598 
L 87.376343 -66.8598 
L 88.684117 -67.543226 
L 89.991891 -66.8598 
L 91.299665 -67.543226 
L 92.607439 -67.543226 
L 93.915213 -84.970585 
L 95.222987 -95.563686 
L 96.530761 -117.433313 
L 97.838535 -110.599054 
L 99.146309 -143.745209 
L 100.454082 -158.438864 
L 101.761856 -142.378357 
L 103.06963 -142.72007 
L 104.377404 -158.780577 
L 105.685178 -192.439301 
L 106.992952 -196.881569 
L 108.300726 -192.097588 
L 109.6085 -206.449531 
L 110.916274 -402.421895 
L 112.224048 -199.615272 
L 113.531822 -402.421895 
L 114.839596 -238.39969 
L 116.14737 -347.064401 
L 117.455144 -302.470864 
L 118.762918 -351.677525 
L 120.070692 -274.62126 
L 121.378466 -402.421895 
L 122.68624 -281.968088 
L 123.994014 -284.360078 
L 125.301788 -253.947628 
L 126.609562 -270.691561 
L 127.917336 -254.118484 
L 129.22511 -301.616581 
L 130.532884 -267.957858 
L 131.840658 -288.973203 
L 133.148432 -295.807462 
L 134.456205 -326.732482 
L 135.763979 -283.505796 
L 137.071753 -339.034147 
L 138.379527 -341.596994 
L 139.687301 -252.580776 
L 140.995075 -320.581649 
L 142.302849 -293.92804 
L 143.610623 -356.803219 
L 144.918397 -371.838588 
L 146.226171 -293.415471 
L 147.533945 -371.838588 
L 148.841719 -352.702664 
L 150.149493 -334.250166 
L 151.457267 -402.421895 
L 152.765041 -390.12023 
L 154.072815 -402.421895 
L 155.380589 -337.154726 
L 156.688363 -402.421895 
L 157.996137 -402.421895 
L 159.303911 -368.592315 
L 160.611685 -269.666423 
L 161.919459 -346.722688 
L 163.227233 -402.421895 
L 164.535007 -402.421895 
L 165.842781 -402.421895 
L 167.150555 -402.421895 
L 168.458328 -382.260832 
L 169.766102 -402.421895 
L 171.073876 -402.421895 
L 172.38165 -346.722688 
L 173.689424 -334.07931 
L 174.997198 -352.702664 
L 176.304972 -309.646835 
L 177.612746 -309.134266 
L 178.92052 -402.421895 
L 180.228294 -402.421895 
L 181.536068 -402.421895 
L 182.843842 -318.531371 
L 184.151616 -402.421895 
L 185.45939 -402.421895 
L 186.767164 -402.421895 
L 188.074938 -368.079746 
L 189.382712 -402.421895 
L 190.690486 -402.421895 
L 191.99826 -402.421895 
L 193.306034 -402.421895 
L 194.613808 -402.421895 
L 195.921582 -402.421895 
L 197.229356 -402.421895 
L 198.53713 -402.421895 
L 199.844904 -367.738033 
L 201.152678 -373.034583 
L 202.460451 -402.421895 
L 203.768225 -402.421895 
L 205.075999 -402.421895 
L 206.383773 -370.471736 
L 207.691547 -402.421895 
L 208.999321 -289.998342 
L 210.307095 -323.827922 
L 211.614869 -402.421895 
L 212.922643 -315.114242 
L 214.230417 -347.064401 
L 215.538191 -402.421895 
L 216.845965 -402.421895 
L 218.153739 -402.421895 
L 219.461513 -402.421895 
L 220.769287 -402.421895 
L 222.077061 -402.421895 
L 223.384835 -399.346479 
L 224.692609 -402.421895 
L 226.000383 -402.421895 
L 227.308157 -397.808771 
L 228.615931 -402.421895 
L 229.923705 -402.421895 
L 231.231479 -332.883314 
L 232.539253 -402.421895 
L 233.847027 -402.421895 
L 235.154801 -402.421895 
L 236.462574 -366.200325 
L 237.770348 -402.421895 
L 239.078122 -402.421895 
L 240.385896 -394.733354 
L 241.69367 -402.421895 
L 243.001444 -402.421895 
L 244.309218 -353.727803 
L 245.616992 -402.421895 
L 246.924766 -402.421895 
L 248.23254 -402.421895 
L 249.540314 -395.41678 
L 250.848088 -402.421895 
L 252.155862 -377.647708 
L 253.463636 -402.421895 
L 254.77141 -357.657502 
L 256.079184 -402.421895 
L 257.386958 -402.421895 
L 258.694732 -402.421895 
L 260.002506 -402.421895 
L 261.31028 -402.421895 
L 262.618054 -402.421895 
L 263.925828 -384.652823 
L 265.233602 -342.963846 
L 266.541376 -402.421895 
L 267.84915 -394.220785 
L 269.156924 -401.396756 
L 270.464697 -402.421895 
L 271.772471 -318.531371 
L 273.080245 -378.331134 
L 274.388019 -353.044377 
L 275.695793 -313.234821 
L 277.003567 -306.913132 
L 278.311341 -402.421895 
L 279.619115 -344.843267 
L 280.926889 -402.421895 
L 282.234663 -338.179865 
L 283.542437 -336.129587 
L 284.850211 -400.029905 
L 286.157985 -348.08954 
L 287.465759 -317.847945 
L 288.773533 -347.406114 
L 290.081307 -354.923798 
L 291.389081 -301.616581 
L 292.696855 -399.859048 
L 294.004629 -280.088667 
L 295.312403 -341.938707 
L 296.620177 -346.893544 
L 297.927951 -371.667732 
L 299.235725 -318.189658 
L 300.543499 -392.683077 
L 301.851273 -365.346043 
L 303.159047 -355.607224 
L 304.46682 -350.139817 
L 305.774594 -300.933156 
L 307.082368 -343.476415 
L 308.390142 -368.763172 
L 309.697916 -348.08954 
L 311.00569 -356.461506 
L 312.313464 -325.707343 
L 313.621238 -369.446598 
L 314.929012 -338.179865 
L 316.236786 -346.551831 
L 317.54456 -313.918247 
L 318.852334 -334.07931 
L 320.160108 -338.350721 
L 321.467882 -368.421459 
L 322.775656 -309.646835 
L 324.08343 -350.652387 
L 325.391204 -342.28042 
L 326.698978 -342.963846 
L 328.006752 -400.371618 
L 329.314526 -364.320904 
L 330.6223 -358.511784 
L 331.930074 -350.139817 
L 333.237848 -383.627684 
L 334.545622 -321.948501 
L 335.853396 -307.767414 
L 337.16117 -368.250602 
L 338.468943 -365.00433 
L 339.776717 -330.833037 
L 341.084491 -320.923362 
L 342.392265 -348.602109 
L 343.700039 -370.813449 
L 345.007813 -333.737597 
L 346.315587 -327.75762 
L 347.623361 -352.531808 
L 348.931135 -394.220785 
L 350.238909 -379.868842 
L 351.546683 -367.054607 
L 352.854457 -402.421895 
L 354.162231 -343.818128 
L 355.470005 -360.903774 
L 356.777779 -391.999651 
L 358.085553 -304.008572 
L 359.393327 -305.717137 
L 360.701101 -362.09977 
L 362.008875 -392.341364 
L 363.316649 -377.818564 
L 364.624423 -372.351158 
L 365.932197 -358.340927 
L 367.239971 -319.214797 
L 368.547745 -343.476415 
L 369.855519 -402.421895 
L 371.163293 -352.019238 
L 372.471066 -301.616581 
L 373.77884 -381.40655 
L 375.086614 -358.170071 
L 376.394388 -402.421895 
L 377.702162 -384.652823 
L 379.009936 -353.38609 
L 380.31771 -360.903774 
L 381.625484 -329.637041 
L 382.933258 -374.743148 
L 384.241032 -402.421895 
L 385.548806 -402.421895 
L 386.85658 -402.421895 
L 388.164354 -402.421895 
L 389.472128 -321.606788 
L 390.779902 -400.884187 
L 392.087676 -397.296201 
L 393.39545 -402.421895 
L 394.703224 -352.019238 
L 396.010998 -348.08954 
L 397.318772 -376.11 
L 398.626546 -402.421895 
L 399.93432 -402.421895 
L 401.242094 -357.999215 
L 401.242094 -402.421895 
L 401.242094 -402.421895 
L 399.93432 -402.421895 
L 398.626546 -402.421895 
L 397.318772 -402.421895 
L 396.010998 -402.421895 
L 394.703224 -402.421895 
L 393.39545 -402.421895 
L 392.087676 -402.421895 
L 390.779902 -402.421895 
L 389.472128 -402.421895 
L 388.164354 -402.421895 
L 386.85658 -402.421895 
L 385.548806 -402.421895 
L 384.241032 -402.421895 
L 382.933258 -402.421895 
L 381.625484 -402.421895 
L 380.31771 -402.421895 
L 379.009936 -402.421895 
L 377.702162 -402.421895 
L 376.394388 -402.421895 
L 375.086614 -402.421895 
L 373.77884 -402.421895 
L 372.471066 -402.421895 
L 371.163293 -402.421895 
L 369.855519 -402.421895 
L 368.547745 -402.421895 
L 367.239971 -402.421895 
L 365.932197 -402.421895 
L 364.624423 -402.421895 
L 363.316649 -402.421895 
L 362.008875 -402.421895 
L 360.701101 -402.421895 
L 359.393327 -402.421895 
L 358.085553 -402.421895 
L 356.777779 -402.421895 
L 355.470005 -402.421895 
L 354.162231 -402.421895 
L 352.854457 -402.421895 
L 351.546683 -402.421895 
L 350.238909 -402.421895 
L 348.931135 -402.421895 
L 347.623361 -402.421895 
L 346.315587 -402.421895 
L 345.007813 -402.421895 
L 343.700039 -402.421895 
L 342.392265 -402.421895 
L 341.084491 -402.421895 
L 339.776717 -402.421895 
L 338.468943 -402.421895 
L 337.16117 -402.421895 
L 335.853396 -402.421895 
L 334.545622 -402.421895 
L 333.237848 -402.421895 
L 331.930074 -402.421895 
L 330.6223 -402.421895 
L 329.314526 -402.421895 
L 328.006752 -402.421895 
L 326.698978 -402.421895 
L 325.391204 -402.421895 
L 324.08343 -402.421895 
L 322.775656 -362.954052 
L 321.467882 -402.421895 
L 320.160108 -402.421895 
L 318.852334 -400.200761 
L 317.54456 -402.421895 
L 316.236786 -402.421895 
L 314.929012 -402.421895 
L 313.621238 -402.421895 
L 312.313464 -401.055044 
L 311.00569 -402.421895 
L 309.697916 -402.421895 
L 308.390142 -402.421895 
L 307.082368 -402.421895 
L 305.774594 -402.421895 
L 304.46682 -402.421895 
L 303.159047 -402.421895 
L 301.851273 -402.421895 
L 300.543499 -402.421895 
L 299.235725 -402.421895 
L 297.927951 -402.421895 
L 296.620177 -402.421895 
L 295.312403 -402.421895 
L 294.004629 -402.421895 
L 292.696855 -402.421895 
L 291.389081 -402.080182 
L 290.081307 -402.421895 
L 288.773533 -402.421895 
L 287.465759 -402.421895 
L 286.157985 -402.421895 
L 284.850211 -402.421895 
L 283.542437 -402.421895 
L 282.234663 -402.421895 
L 280.926889 -402.421895 
L 279.619115 -402.421895 
L 278.311341 -402.421895 
L 277.003567 -402.421895 
L 275.695793 -402.421895 
L 274.388019 -402.421895 
L 273.080245 -402.421895 
L 271.772471 -402.421895 
L 270.464697 -402.421895 
L 269.156924 -402.421895 
L 267.84915 -402.421895 
L 266.541376 -402.421895 
L 265.233602 -402.421895 
L 263.925828 -402.421895 
L 262.618054 -402.421895 
L 261.31028 -402.421895 
L 260.002506 -402.421895 
L 258.694732 -402.421895 
L 257.386958 -402.421895 
L 256.079184 -402.421895 
L 254.77141 -402.421895 
L 253.463636 -402.421895 
L 252.155862 -402.421895 
L 250.848088 -402.421895 
L 249.540314 -402.421895 
L 248.23254 -402.421895 
L 246.924766 -402.421895 
L 245.616992 -402.421895 
L 244.309218 -402.421895 
L 243.001444 -402.421895 
L 241.69367 -402.421895 
L 240.385896 -402.421895 
L 239.078122 -402.421895 
L 237.770348 -402.421895 
L 236.462574 -402.421895 
L 235.154801 -402.421895 
L 233.847027 -402.421895 
L 232.539253 -402.421895 
L 231.231479 -402.421895 
L 229.923705 -402.421895 
L 228.615931 -402.421895 
L 227.308157 -402.421895 
L 226.000383 -402.421895 
L 224.692609 -402.421895 
L 223.384835 -402.421895 
L 222.077061 -402.421895 
L 220.769287 -402.421895 
L 219.461513 -402.421895 
L 218.153739 -402.421895 
L 216.845965 -402.421895 
L 215.538191 -402.421895 
L 214.230417 -402.421895 
L 212.922643 -402.421895 
L 211.614869 -402.421895 
L 210.307095 -402.421895 
L 208.999321 -402.421895 
L 207.691547 -402.421895 
L 206.383773 -402.421895 
L 205.075999 -402.421895 
L 203.768225 -402.421895 
L 202.460451 -402.421895 
L 201.152678 -402.421895 
L 199.844904 -402.421895 
L 198.53713 -402.421895 
L 197.229356 -402.421895 
L 195.921582 -402.421895 
L 194.613808 -402.421895 
L 193.306034 -402.421895 
L 191.99826 -402.421895 
L 190.690486 -402.421895 
L 189.382712 -402.421895 
L 188.074938 -402.421895 
L 186.767164 -402.421895 
L 185.45939 -402.421895 
L 184.151616 -402.421895 
L 182.843842 -402.421895 
L 181.536068 -402.421895 
L 180.228294 -402.421895 
L 178.92052 -402.421895 
L 177.612746 -402.421895 
L 176.304972 -402.421895 
L 174.997198 -402.421895 
L 173.689424 -402.421895 
L 172.38165 -402.421895 
L 171.073876 -402.421895 
L 169.766102 -402.421895 
L 168.458328 -402.421895 
L 167.150555 -402.421895 
L 165.842781 -402.421895 
L 164.535007 -402.421895 
L 163.227233 -402.421895 
L 161.919459 -402.421895 
L 160.611685 -402.421895 
L 159.303911 -402.421895 
L 157.996137 -402.421895 
L 156.688363 -402.421895 
L 155.380589 -402.421895 
L 154.072815 -402.421895 
L 152.765041 -402.421895 
L 151.457267 -402.421895 
L 150.149493 -402.421895 
L 148.841719 -402.421895 
L 147.533945 -402.421895 
L 146.226171 -402.421895 
L 144.918397 -402.421895 
L 143.610623 -402.421895 
L 142.302849 -402.421895 
L 140.995075 -402.421895 
L 139.687301 -402.421895 
L 138.379527 -402.421895 
L 137.071753 -402.421895 
L 135.763979 -402.421895 
L 134.456205 -402.421895 
L 133.148432 -402.421895 
L 131.840658 -402.421895 
L 130.532884 -402.421895 
L 129.22511 -402.421895 
L 127.917336 -402.421895 
L 126.609562 -402.421895 
L 125.301788 -402.421895 
L 123.994014 -402.421895 
L 122.68624 -402.421895 
L 121.378466 -402.421895 
L 120.070692 -402.421895 
L 118.762918 -402.421895 
L 117.455144 -402.421895 
L 116.14737 -402.421895 
L 114.839596 -402.421895 
L 113.531822 -402.421895 
L 112.224048 -402.421895 
L 110.916274 -402.421895 
L 109.6085 -402.421895 
L 108.300726 -327.75762 
L 106.992952 -297.686883 
L 105.685178 -271.7167 
L 104.377404 -328.099333 
L 103.06963 -188.167889 
L 101.761856 -205.253536 
L 100.454082 -213.796359 
L 99.146309 -188.167889 
L 97.838535 -171.936525 
L 96.530761 -149.212615 
L 95.222987 -164.760554 
L 93.915213 -123.925859 
L 92.607439 -96.930537 
L 91.299665 -110.428198 
L 89.991891 -102.227088 
L 88.684117 -96.588824 
L 87.376343 -82.407738 
L 86.068569 -67.543226 
L 84.760795 -67.543226 
L 83.453021 -67.543226 
L 82.145247 -67.543226 
L 80.837473 -67.543226 
L 79.529699 -67.543226 
L 78.221925 -67.543226 
L 76.914151 -67.543226 
L 75.606377 -90.779705 
z
" style="stroke: #6ca247; stroke-opacity: 0.2"/>
    </defs>
    <g clip-path="url(#p69c267eb3e)">
     <use xlink:href="#m4f4a8ede4d" x="0" y="426.4" style="fill: #6ca247; fill-opacity: 0.2; stroke: #6ca247; stroke-opacity: 0.2"/>
    </g>
   </g>
   <g id="matplotlib.axis_1">
    <g id="xtick_1">
     <g id="line2d_1">
      <path d="M 75.442905 376.318305 
L 75.442905 7.2 
" clip-path="url(#p69c267eb3e)" style="fill: none; stroke: #b0b0b0; stroke-opacity: 0.3; stroke-width: 0.8; stroke-linecap: square"/>
     </g>
     <g id="line2d_2">
      <defs>
       <path id="m2798e5caf4" d="M 0 0 
L 0 3.5 
" style="stroke: #000000; stroke-width: 0.8"/>
      </defs>
      <g>
       <use xlink:href="#m2798e5caf4" x="75.442905" y="376.318305" style="stroke: #000000; stroke-width: 0.8"/>
      </g>
     </g>
     <g id="text_1">
      <!-- 0k -->
      <g transform="translate(67.422141 394.387893) scale(0.16 -0.16)">
       <defs>
        <path id="CMR17-30" d="M 2688 2038 
C 2688 2430 2682 3099 2413 3613 
C 2176 4063 1798 4224 1466 4224 
C 1158 4224 768 4082 525 3620 
C 269 3137 243 2539 243 2038 
C 243 1671 250 1112 448 623 
C 723 -39 1216 -128 1466 -128 
C 1760 -128 2208 -7 2470 604 
C 2662 1048 2688 1568 2688 2038 
z
M 1466 -26 
C 1056 -26 813 328 723 816 
C 653 1196 653 1749 653 2109 
C 653 2604 653 3015 736 3407 
C 858 3954 1216 4121 1466 4121 
C 1728 4121 2067 3947 2189 3420 
C 2272 3054 2278 2623 2278 2109 
C 2278 1691 2278 1176 2202 797 
C 2067 96 1690 -26 1466 -26 
z
" transform="scale(0.015625)"/>
        <path id="CMR17-6b" d="M 1670 1679 
C 1664 1692 1632 1730 1632 1749 
C 1632 1762 2086 2175 2144 2226 
C 2509 2532 2739 2563 2906 2570 
L 2906 2735 
C 2867 2735 2854 2735 2848 2729 
L 2534 2722 
C 2355 2722 2080 2722 1907 2735 
L 1907 2570 
C 1997 2563 2061 2513 2061 2423 
C 2061 2296 1933 2175 1926 2175 
L 960 1298 
L 960 4416 
L 198 4345 
L 198 4179 
C 576 4179 634 4141 634 3835 
L 634 439 
C 634 198 608 166 198 166 
L 198 0 
C 352 12 634 12 794 12 
C 954 12 1235 12 1389 0 
L 1389 166 
C 979 166 954 191 954 439 
L 954 1139 
L 1395 1540 
L 2042 586 
C 2118 471 2182 382 2182 299 
C 2182 185 2067 166 1990 166 
L 1990 0 
C 2144 12 2419 12 2579 12 
C 2694 12 2931 6 3040 0 
L 3040 166 
C 2739 166 2669 223 2477 503 
L 1670 1679 
z
" transform="scale(0.015625)"/>
       </defs>
       <use xlink:href="#CMR17-30" transform="scale(0.996264)"/>
       <use xlink:href="#CMR17-6b" transform="translate(45.690477 0) scale(0.996264)"/>
      </g>
     </g>
    </g>
    <g id="xtick_2">
     <g id="line2d_3">
      <path d="M 157.178778 376.318305 
L 157.178778 7.2 
" clip-path="url(#p69c267eb3e)" style="fill: none; stroke: #b0b0b0; stroke-opacity: 0.3; stroke-width: 0.8; stroke-linecap: square"/>
     </g>
     <g id="line2d_4">
      <g>
       <use xlink:href="#m2798e5caf4" x="157.178778" y="376.318305" style="stroke: #000000; stroke-width: 0.8"/>
      </g>
     </g>
     <g id="text_2">
      <!-- 50k -->
      <g transform="translate(145.25602 394.387893) scale(0.16 -0.16)">
       <defs>
        <path id="CMR17-35" d="M 730 3750 
C 794 3724 1056 3641 1325 3641 
C 1920 3641 2246 3961 2432 4140 
C 2432 4191 2432 4224 2394 4224 
C 2387 4224 2374 4224 2323 4198 
C 2099 4102 1837 4032 1517 4032 
C 1325 4032 1037 4055 723 4191 
C 653 4224 640 4224 634 4224 
C 602 4224 595 4217 595 4090 
L 595 2231 
C 595 2113 595 2080 659 2080 
C 691 2080 704 2093 736 2139 
C 941 2435 1222 2560 1542 2560 
C 1766 2560 2246 2415 2246 1293 
C 2246 1087 2246 716 2054 422 
C 1894 159 1645 25 1370 25 
C 947 25 518 319 403 812 
C 429 806 480 793 506 793 
C 589 793 749 838 749 1036 
C 749 1209 627 1280 506 1280 
C 358 1280 262 1190 262 1011 
C 262 454 704 -128 1382 -128 
C 2042 -128 2669 441 2669 1267 
C 2669 2054 2170 2662 1549 2662 
C 1222 2662 947 2540 730 2304 
L 730 3750 
z
" transform="scale(0.015625)"/>
       </defs>
       <use xlink:href="#CMR17-35" transform="scale(0.996264)"/>
       <use xlink:href="#CMR17-30" transform="translate(45.690477 0) scale(0.996264)"/>
       <use xlink:href="#CMR17-6b" transform="translate(91.380954 0) scale(0.996264)"/>
      </g>
     </g>
    </g>
    <g id="xtick_3">
     <g id="line2d_5">
      <path d="M 238.914651 376.318305 
L 238.914651 7.2 
" clip-path="url(#p69c267eb3e)" style="fill: none; stroke: #b0b0b0; stroke-opacity: 0.3; stroke-width: 0.8; stroke-linecap: square"/>
     </g>
     <g id="line2d_6">
      <g>
       <use xlink:href="#m2798e5caf4" x="238.914651" y="376.318305" style="stroke: #000000; stroke-width: 0.8"/>
      </g>
     </g>
     <g id="text_3">
      <!-- 100k -->
      <g transform="translate(223.089899 394.387893) scale(0.16 -0.16)">
       <defs>
        <path id="CMR17-31" d="M 1702 4083 
C 1702 4217 1696 4224 1606 4224 
C 1357 3927 979 3833 621 3820 
C 602 3820 570 3820 563 3808 
C 557 3795 557 3782 557 3648 
C 755 3648 1088 3686 1344 3839 
L 1344 467 
C 1344 243 1331 166 781 166 
L 589 166 
L 589 0 
C 896 6 1216 12 1523 12 
C 1830 12 2150 6 2458 0 
L 2458 166 
L 2266 166 
C 1715 166 1702 236 1702 467 
L 1702 4083 
z
" transform="scale(0.015625)"/>
       </defs>
       <use xlink:href="#CMR17-31" transform="scale(0.996264)"/>
       <use xlink:href="#CMR17-30" transform="translate(45.690477 0) scale(0.996264)"/>
       <use xlink:href="#CMR17-30" transform="translate(91.380954 0) scale(0.996264)"/>
       <use xlink:href="#CMR17-6b" transform="translate(137.071431 0) scale(0.996264)"/>
      </g>
     </g>
    </g>
    <g id="xtick_4">
     <g id="line2d_7">
      <path d="M 320.650523 376.318305 
L 320.650523 7.2 
" clip-path="url(#p69c267eb3e)" style="fill: none; stroke: #b0b0b0; stroke-opacity: 0.3; stroke-width: 0.8; stroke-linecap: square"/>
     </g>
     <g id="line2d_8">
      <g>
       <use xlink:href="#m2798e5caf4" x="320.650523" y="376.318305" style="stroke: #000000; stroke-width: 0.8"/>
      </g>
     </g>
     <g id="text_4">
      <!-- 150k -->
      <g transform="translate(304.825772 394.387893) scale(0.16 -0.16)">
       <use xlink:href="#CMR17-31" transform="scale(0.996264)"/>
       <use xlink:href="#CMR17-35" transform="translate(45.690477 0) scale(0.996264)"/>
       <use xlink:href="#CMR17-30" transform="translate(91.380954 0) scale(0.996264)"/>
       <use xlink:href="#CMR17-6b" transform="translate(137.071431 0) scale(0.996264)"/>
      </g>
     </g>
    </g>
    <g id="xtick_5">
     <g id="line2d_9">
      <path d="M 402.386396 376.318305 
L 402.386396 7.2 
" clip-path="url(#p69c267eb3e)" style="fill: none; stroke: #b0b0b0; stroke-opacity: 0.3; stroke-width: 0.8; stroke-linecap: square"/>
     </g>
     <g id="line2d_10">
      <g>
       <use xlink:href="#m2798e5caf4" x="402.386396" y="376.318305" style="stroke: #000000; stroke-width: 0.8"/>
      </g>
     </g>
     <g id="text_5">
      <!-- 200k -->
      <g transform="translate(386.561644 394.387893) scale(0.16 -0.16)">
       <defs>
        <path id="CMR17-32" d="M 2669 990 
L 2554 990 
C 2490 537 2438 460 2413 422 
C 2381 371 1920 371 1830 371 
L 602 371 
C 832 620 1280 1073 1824 1596 
C 2214 1966 2669 2400 2669 3033 
C 2669 3788 2067 4224 1395 4224 
C 691 4224 262 3603 262 3027 
C 262 2777 448 2745 525 2745 
C 589 2745 781 2783 781 3007 
C 781 3206 614 3264 525 3264 
C 486 3264 448 3257 422 3244 
C 544 3788 915 4057 1306 4057 
C 1862 4057 2227 3616 2227 3033 
C 2227 2477 1901 1998 1536 1583 
L 262 147 
L 262 0 
L 2515 0 
L 2669 990 
z
" transform="scale(0.015625)"/>
       </defs>
       <use xlink:href="#CMR17-32" transform="scale(0.996264)"/>
       <use xlink:href="#CMR17-30" transform="translate(45.690477 0) scale(0.996264)"/>
       <use xlink:href="#CMR17-30" transform="translate(91.380954 0) scale(0.996264)"/>
       <use xlink:href="#CMR17-6b" transform="translate(137.071431 0) scale(0.996264)"/>
      </g>
     </g>
    </g>
    <g id="text_6">
     <!-- Training Steps -->
     <g transform="translate(180.391097 415.324366) scale(0.2 -0.2)">
      <defs>
       <path id="CMR17-54" d="M 3981 4332 
L 288 4332 
L 179 2924 
L 294 2924 
C 378 3981 467 4166 1453 4166 
C 1568 4166 1754 4166 1805 4159 
C 1926 4140 1926 4064 1926 3917 
L 1926 465 
C 1926 236 1907 166 1376 166 
L 1197 166 
L 1197 0 
C 1504 6 1824 12 2138 12 
C 2451 12 2771 6 3078 0 
L 3078 166 
L 2899 166 
C 2368 166 2349 236 2349 465 
L 2349 3917 
C 2349 4057 2349 4134 2464 4159 
C 2515 4166 2701 4166 2816 4166 
C 3795 4166 3891 3981 3974 2924 
L 4090 2924 
L 3981 4332 
z
" transform="scale(0.015625)"/>
       <path id="CMR17-72" d="M 960 1517 
C 960 2134 1222 2713 1702 2713 
C 1747 2713 1792 2707 1837 2687 
C 1837 2687 1696 2642 1696 2475 
C 1696 2321 1818 2257 1914 2257 
C 1990 2257 2131 2302 2131 2482 
C 2131 2687 1926 2816 1709 2816 
C 1222 2816 1011 2340 947 2115 
L 941 2115 
L 941 2816 
L 198 2745 
L 198 2578 
C 576 2578 634 2540 634 2231 
L 634 443 
C 634 198 608 166 198 166 
L 198 0 
C 352 12 646 12 813 12 
C 998 12 1325 12 1498 0 
L 1498 166 
C 1037 166 960 166 960 455 
L 960 1517 
z
" transform="scale(0.015625)"/>
       <path id="CMR17-61" d="M 2304 1656 
C 2304 2048 2304 2275 2035 2534 
C 1798 2751 1523 2816 1306 2816 
C 800 2816 435 2408 435 1977 
C 435 1740 627 1728 666 1728 
C 749 1728 896 1779 896 1958 
C 896 2118 774 2188 666 2188 
C 640 2188 608 2182 589 2176 
C 723 2594 1069 2713 1293 2713 
C 1613 2713 1965 2421 1965 1875 
L 1965 1632 
C 1587 1619 1133 1568 774 1373 
C 371 1147 256 822 256 576 
C 256 77 832 -64 1171 -64 
C 1523 -64 1850 135 1990 505 
C 2003 219 2182 -39 2464 -39 
C 2598 -39 2938 51 2938 563 
L 2938 926 
L 2822 926 
L 2822 557 
C 2822 161 2650 109 2566 109 
C 2304 109 2304 446 2304 732 
L 2304 1656 
z
M 1965 887 
C 1965 323 1568 38 1216 38 
C 896 38 646 278 646 576 
C 646 771 730 1114 1101 1322 
C 1408 1497 1760 1523 1965 1536 
L 1965 887 
z
" transform="scale(0.015625)"/>
       <path id="CMR17-69" d="M 992 3961 
C 992 4102 877 4224 730 4224 
C 589 4224 467 4108 467 3961 
C 467 3820 582 3699 730 3699 
C 870 3699 992 3814 992 3961 
z
M 243 2745 
L 243 2579 
C 602 2579 653 2540 653 2231 
L 653 443 
C 653 198 627 166 218 166 
L 218 0 
C 371 12 646 12 806 12 
C 960 12 1222 12 1370 0 
L 1370 166 
C 992 166 979 205 979 436 
L 979 2816 
L 243 2745 
z
" transform="scale(0.015625)"/>
       <path id="CMR17-6e" d="M 2656 1954 
C 2656 2282 2592 2816 1837 2816 
C 1331 2816 1069 2424 973 2166 
L 966 2166 
L 966 2816 
L 211 2745 
L 211 2578 
C 589 2578 646 2540 646 2231 
L 646 443 
C 646 198 621 166 211 166 
L 211 0 
C 365 12 646 12 813 12 
C 979 12 1267 12 1421 0 
L 1421 166 
C 1011 166 986 192 986 443 
L 986 1678 
C 986 2269 1344 2713 1792 2713 
C 2266 2713 2317 2289 2317 1980 
L 2317 443 
C 2317 198 2291 166 1882 166 
L 1882 0 
C 2035 12 2317 12 2483 12 
C 2650 12 2938 12 3091 0 
L 3091 166 
C 2682 166 2656 192 2656 443 
L 2656 1954 
z
" transform="scale(0.015625)"/>
       <path id="CMR17-67" d="M 710 1165 
C 832 1068 1043 960 1299 960 
C 1805 960 2240 1359 2240 1895 
C 2240 2063 2189 2321 1997 2521 
C 2176 2713 2438 2777 2586 2777 
C 2611 2777 2650 2777 2682 2758 
C 2656 2751 2598 2726 2598 2623 
C 2598 2540 2656 2483 2739 2483 
C 2835 2483 2886 2547 2886 2630 
C 2886 2751 2790 2880 2586 2880 
C 2330 2880 2106 2758 1926 2591 
C 1734 2764 1504 2828 1299 2828 
C 794 2828 358 2431 358 1895 
C 358 1527 570 1294 634 1230 
C 442 1004 442 742 442 710 
C 442 544 506 300 723 166 
C 390 82 128 -184 128 -517 
C 128 -996 736 -1344 1466 -1344 
C 2170 -1344 2803 -1009 2803 -510 
C 2803 384 1856 384 1363 384 
C 1216 384 954 384 922 390 
C 723 422 589 601 589 825 
C 589 883 589 1024 710 1165 
z
M 1299 1068 
C 736 1068 736 1766 736 1895 
C 736 2024 736 2719 1299 2719 
C 1862 2719 1862 2024 1862 1895 
C 1862 1766 1862 1068 1299 1068 
z
M 1466 -1236 
C 826 -1236 384 -883 384 -517 
C 384 -311 493 -118 634 -11 
C 794 102 858 102 1293 102 
C 1818 102 2547 102 2547 -517 
C 2547 -883 2106 -1236 1466 -1236 
z
" transform="scale(0.015625)"/>
       <path id="CMR17-53" d="M 2803 4351 
C 2803 4467 2797 4473 2758 4473 
C 2720 4473 2707 4447 2682 4390 
L 2490 3965 
C 2246 4320 1875 4480 1472 4480 
C 819 4480 294 3958 294 3301 
C 294 3101 339 2817 557 2546 
C 794 2250 1018 2198 1530 2063 
C 1722 2011 2042 1927 2106 1901 
C 2470 1747 2662 1360 2662 999 
C 2662 534 2336 38 1779 38 
C 1094 38 454 425 410 1328 
C 403 1431 397 1437 352 1437 
C 301 1437 294 1431 294 1302 
L 294 0 
C 294 -116 301 -122 339 -122 
C 384 -122 397 -90 486 109 
C 493 128 493 141 614 386 
C 934 -39 1472 -128 1779 -128 
C 2477 -128 2970 457 2970 1141 
C 2970 1476 2848 1734 2778 1850 
C 2509 2263 2221 2340 1914 2417 
C 1869 2437 1856 2437 1498 2527 
C 1152 2617 1005 2662 845 2836 
C 666 3036 602 3243 602 3449 
C 602 3868 934 4326 1478 4326 
C 2157 4326 2579 3842 2675 3036 
C 2694 2920 2701 2914 2746 2914 
C 2803 2914 2803 2933 2803 3043 
L 2803 4351 
z
" transform="scale(0.015625)"/>
       <path id="CMR17-74" d="M 966 2585 
L 1862 2585 
L 1862 2752 
L 966 2752 
L 966 3968 
L 851 3968 
C 838 3292 614 2700 70 2687 
L 70 2585 
L 627 2585 
L 627 778 
C 627 655 627 -64 1370 -64 
C 1747 -64 1965 308 1965 784 
L 1965 1151 
L 1850 1151 
L 1850 790 
C 1850 347 1677 51 1408 51 
C 1222 51 966 179 966 765 
L 966 2585 
z
" transform="scale(0.015625)"/>
       <path id="CMR17-65" d="M 2438 1503 
C 2464 1529 2464 1542 2464 1606 
C 2464 2251 2118 2816 1389 2816 
C 710 2816 173 2175 173 1394 
C 173 554 781 -64 1459 -64 
C 2176 -64 2458 619 2458 755 
C 2458 800 2419 800 2406 800 
C 2362 800 2355 787 2330 709 
C 2189 270 1837 51 1504 51 
C 1229 51 954 206 781 490 
C 582 819 582 1200 582 1503 
L 2438 1503 
z
M 589 1600 
C 634 2511 1126 2713 1382 2713 
C 1818 2713 2112 2308 2118 1600 
L 589 1600 
z
" transform="scale(0.015625)"/>
       <path id="CMR17-70" d="M 1408 -1114 
C 998 -1114 973 -1088 973 -834 
L 973 380 
C 1158 109 1427 -64 1766 -64 
C 2406 -64 3053 503 3053 1382 
C 3053 2196 2496 2816 1837 2816 
C 1453 2816 1139 2603 960 2345 
L 960 2816 
L 198 2745 
L 198 2577 
C 576 2577 634 2539 634 2228 
L 634 -834 
C 634 -1081 608 -1114 198 -1114 
L 198 -1280 
C 352 -1268 634 -1268 800 -1268 
C 966 -1268 1254 -1268 1408 -1280 
L 1408 -1114 
z
M 973 2015 
C 973 2106 973 2241 1222 2481 
C 1254 2506 1472 2700 1792 2700 
C 2259 2700 2643 2112 2643 1376 
C 2643 639 2234 38 1728 38 
C 1498 38 1248 148 1056 451 
C 973 594 973 632 973 736 
L 973 2015 
z
" transform="scale(0.015625)"/>
       <path id="CMR17-73" d="M 1978 2688 
C 1978 2803 1971 2809 1933 2809 
C 1907 2809 1901 2803 1824 2707 
C 1805 2681 1747 2617 1728 2592 
C 1523 2809 1235 2816 1126 2816 
C 416 2816 160 2444 160 2073 
C 160 1497 813 1363 998 1324 
C 1402 1241 1542 1216 1677 1100 
C 1760 1024 1901 883 1901 652 
C 1901 384 1747 38 1158 38 
C 602 38 403 460 288 1024 
C 269 1113 269 1120 218 1120 
C 166 1120 160 1113 160 985 
L 160 64 
C 160 -52 166 -58 205 -58 
C 237 -58 243 -52 275 0 
C 314 57 410 211 448 275 
C 576 102 800 -64 1158 -64 
C 1792 -64 2131 281 2131 780 
C 2131 1107 1958 1280 1875 1356 
C 1683 1555 1459 1600 1190 1651 
C 838 1728 390 1817 390 2208 
C 390 2374 480 2726 1126 2726 
C 1811 2726 1850 2086 1862 1881 
C 1869 1849 1901 1843 1920 1843 
C 1978 1843 1978 1862 1978 1971 
L 1978 2688 
z
" transform="scale(0.015625)"/>
      </defs>
      <use xlink:href="#CMR17-54" transform="scale(0.996264)"/>
      <use xlink:href="#CMR17-72" transform="translate(58.702625 0) scale(0.996264)"/>
      <use xlink:href="#CMR17-61" transform="translate(93.983393 0) scale(0.996264)"/>
      <use xlink:href="#CMR17-69" transform="translate(139.67387 0) scale(0.996264)"/>
      <use xlink:href="#CMR17-6e" transform="translate(164.544929 0) scale(0.996264)"/>
      <use xlink:href="#CMR17-69" transform="translate(215.440298 0) scale(0.996264)"/>
      <use xlink:href="#CMR17-6e" transform="translate(240.311357 0) scale(0.996264)"/>
      <use xlink:href="#CMR17-67" transform="translate(291.206727 0) scale(0.996264)"/>
      <use xlink:href="#CMR17-53" transform="translate(366.97317 0) scale(0.996264)"/>
      <use xlink:href="#CMR17-74" transform="translate(417.86854 0) scale(0.996264)"/>
      <use xlink:href="#CMR17-65" transform="translate(453.149308 0) scale(0.996264)"/>
      <use xlink:href="#CMR17-70" transform="translate(493.634968 0) scale(0.996264)"/>
      <use xlink:href="#CMR17-73" transform="translate(544.530338 0) scale(0.996264)"/>
     </g>
    </g>
   </g>
   <g id="matplotlib.axis_2">
    <g id="ytick_1">
     <g id="line2d_11">
      <path d="M 59.324591 365.691033 
L 417.523879 365.691033 
" clip-path="url(#p69c267eb3e)" style="fill: none; stroke: #b0b0b0; stroke-opacity: 0.3; stroke-width: 0.8; stroke-linecap: square"/>
     </g>
     <g id="line2d_12">
      <defs>
       <path id="m8dcc59e3b6" d="M 0 0 
L -3.5 0 
" style="stroke: #000000; stroke-width: 0.8"/>
      </defs>
      <g>
       <use xlink:href="#m8dcc59e3b6" x="59.324591" y="365.691033" style="stroke: #000000; stroke-width: 0.8"/>
      </g>
     </g>
     <g id="text_7">
      <!-- $\mathdefault{0}$ -->
      <g transform="translate(44.520604 371.225827) scale(0.16 -0.16)">
       <use xlink:href="#CMR17-30" transform="scale(0.996264)"/>
      </g>
     </g>
    </g>
    <g id="ytick_2">
     <g id="line2d_13">
      <path d="M 59.324591 297.348447 
L 417.523879 297.348447 
" clip-path="url(#p69c267eb3e)" style="fill: none; stroke: #b0b0b0; stroke-opacity: 0.3; stroke-width: 0.8; stroke-linecap: square"/>
     </g>
     <g id="line2d_14">
      <g>
       <use xlink:href="#m8dcc59e3b6" x="59.324591" y="297.348447" style="stroke: #000000; stroke-width: 0.8"/>
      </g>
     </g>
     <g id="text_8">
      <!-- $\mathdefault{100}$ -->
      <g transform="translate(28.91263 302.883242) scale(0.16 -0.16)">
       <use xlink:href="#CMR17-31" transform="scale(0.996264)"/>
       <use xlink:href="#CMR17-30" transform="translate(45.690477 0) scale(0.996264)"/>
       <use xlink:href="#CMR17-30" transform="translate(91.380954 0) scale(0.996264)"/>
      </g>
     </g>
    </g>
    <g id="ytick_3">
     <g id="line2d_15">
      <path d="M 59.324591 229.005862 
L 417.523879 229.005862 
" clip-path="url(#p69c267eb3e)" style="fill: none; stroke: #b0b0b0; stroke-opacity: 0.3; stroke-width: 0.8; stroke-linecap: square"/>
     </g>
     <g id="line2d_16">
      <g>
       <use xlink:href="#m8dcc59e3b6" x="59.324591" y="229.005862" style="stroke: #000000; stroke-width: 0.8"/>
      </g>
     </g>
     <g id="text_9">
      <!-- $\mathdefault{200}$ -->
      <g transform="translate(28.91263 234.540656) scale(0.16 -0.16)">
       <use xlink:href="#CMR17-32" transform="scale(0.996264)"/>
       <use xlink:href="#CMR17-30" transform="translate(45.690477 0) scale(0.996264)"/>
       <use xlink:href="#CMR17-30" transform="translate(91.380954 0) scale(0.996264)"/>
      </g>
     </g>
    </g>
    <g id="ytick_4">
     <g id="line2d_17">
      <path d="M 59.324591 160.663276 
L 417.523879 160.663276 
" clip-path="url(#p69c267eb3e)" style="fill: none; stroke: #b0b0b0; stroke-opacity: 0.3; stroke-width: 0.8; stroke-linecap: square"/>
     </g>
     <g id="line2d_18">
      <g>
       <use xlink:href="#m8dcc59e3b6" x="59.324591" y="160.663276" style="stroke: #000000; stroke-width: 0.8"/>
      </g>
     </g>
     <g id="text_10">
      <!-- $\mathdefault{300}$ -->
      <g transform="translate(28.91263 166.19807) scale(0.16 -0.16)">
       <defs>
        <path id="CMR17-33" d="M 1414 2176 
C 1984 2176 2234 1673 2234 1094 
C 2234 322 1824 25 1453 25 
C 1114 25 563 193 390 691 
C 422 678 454 678 486 678 
C 640 678 755 780 755 947 
C 755 1132 614 1216 486 1216 
C 378 1216 211 1164 211 927 
C 211 335 787 -128 1466 -128 
C 2176 -128 2720 432 2720 1087 
C 2720 1718 2208 2176 1600 2246 
C 2086 2347 2554 2776 2554 3353 
C 2554 3856 2048 4224 1472 4224 
C 890 4224 378 3862 378 3347 
C 378 3123 544 3084 627 3084 
C 762 3084 877 3167 877 3334 
C 877 3500 762 3584 627 3584 
C 602 3584 570 3584 544 3571 
C 730 3999 1235 4076 1459 4076 
C 1683 4076 2106 3966 2106 3347 
C 2106 3167 2080 2851 1862 2574 
C 1670 2329 1453 2316 1242 2297 
C 1210 2297 1062 2284 1037 2284 
C 992 2278 966 2272 966 2227 
C 966 2182 973 2176 1101 2176 
L 1414 2176 
z
" transform="scale(0.015625)"/>
       </defs>
       <use xlink:href="#CMR17-33" transform="scale(0.996264)"/>
       <use xlink:href="#CMR17-30" transform="translate(45.690477 0) scale(0.996264)"/>
       <use xlink:href="#CMR17-30" transform="translate(91.380954 0) scale(0.996264)"/>
      </g>
     </g>
    </g>
    <g id="ytick_5">
     <g id="line2d_19">
      <path d="M 59.324591 92.32069 
L 417.523879 92.32069 
" clip-path="url(#p69c267eb3e)" style="fill: none; stroke: #b0b0b0; stroke-opacity: 0.3; stroke-width: 0.8; stroke-linecap: square"/>
     </g>
     <g id="line2d_20">
      <g>
       <use xlink:href="#m8dcc59e3b6" x="59.324591" y="92.32069" style="stroke: #000000; stroke-width: 0.8"/>
      </g>
     </g>
     <g id="text_11">
      <!-- $\mathdefault{400}$ -->
      <g transform="translate(28.91263 97.855485) scale(0.16 -0.16)">
       <defs>
        <path id="CMR17-34" d="M 2150 4147 
C 2150 4281 2144 4288 2029 4288 
L 128 1254 
L 128 1088 
L 1779 1088 
L 1779 460 
C 1779 230 1766 166 1318 166 
L 1197 166 
L 1197 0 
C 1402 12 1747 12 1965 12 
C 2182 12 2528 12 2733 0 
L 2733 166 
L 2611 166 
C 2163 166 2150 230 2150 460 
L 2150 1088 
L 2803 1088 
L 2803 1254 
L 2150 1254 
L 2150 4147 
z
M 1798 3723 
L 1798 1254 
L 256 1254 
L 1798 3723 
z
" transform="scale(0.015625)"/>
       </defs>
       <use xlink:href="#CMR17-34" transform="scale(0.996264)"/>
       <use xlink:href="#CMR17-30" transform="translate(45.690477 0) scale(0.996264)"/>
       <use xlink:href="#CMR17-30" transform="translate(91.380954 0) scale(0.996264)"/>
      </g>
     </g>
    </g>
    <g id="ytick_6">
     <g id="line2d_21">
      <path d="M 59.324591 23.978105 
L 417.523879 23.978105 
" clip-path="url(#p69c267eb3e)" style="fill: none; stroke: #b0b0b0; stroke-opacity: 0.3; stroke-width: 0.8; stroke-linecap: square"/>
     </g>
     <g id="line2d_22">
      <g>
       <use xlink:href="#m8dcc59e3b6" x="59.324591" y="23.978105" style="stroke: #000000; stroke-width: 0.8"/>
      </g>
     </g>
     <g id="text_12">
      <!-- $\mathdefault{500}$ -->
      <g transform="translate(28.91263 29.512899) scale(0.16 -0.16)">
       <use xlink:href="#CMR17-35" transform="scale(0.996264)"/>
       <use xlink:href="#CMR17-30" transform="translate(45.690477 0) scale(0.996264)"/>
       <use xlink:href="#CMR17-30" transform="translate(91.380954 0) scale(0.996264)"/>
      </g>
     </g>
    </g>
    <g id="text_13">
     <!-- Return -->
     <g transform="translate(21.036997 219.822038) rotate(-90) scale(0.2 -0.2)">
      <defs>
       <path id="CMR17-52" d="M 2509 2156 
C 3117 2278 3629 2689 3629 3203 
C 3629 3806 2950 4352 2054 4352 
L 333 4352 
L 333 4185 
C 774 4185 845 4185 845 3896 
L 845 428 
C 845 140 774 140 333 140 
L 333 -26 
C 518 -13 851 -13 1050 -13 
C 1248 -13 1581 -13 1766 -26 
L 1766 140 
C 1325 140 1254 140 1254 428 
L 1254 2112 
L 2003 2112 
C 2368 2112 2573 1964 2662 1881 
C 2918 1632 2918 1459 2918 1024 
C 2918 595 2918 377 3110 160 
C 3354 -103 3680 -128 3821 -128 
C 4294 -128 4365 403 4365 512 
C 4365 550 4365 595 4307 595 
C 4256 595 4250 556 4250 531 
C 4218 115 4032 -26 3834 -26 
C 3482 -26 3443 377 3405 768 
C 3386 902 3373 998 3360 1139 
C 3322 1459 3270 1926 2509 2156 
z
M 1984 2214 
L 1254 2214 
L 1254 3935 
C 1254 4153 1267 4185 1523 4185 
L 1990 4185 
C 2522 4185 3142 3999 3142 3203 
C 3142 2374 2464 2214 1984 2214 
z
" transform="scale(0.015625)"/>
       <path id="CMR17-75" d="M 1882 2745 
L 1882 2579 
C 2259 2579 2317 2540 2317 2229 
L 2317 1053 
C 2317 510 2029 38 1555 38 
C 1030 38 986 355 986 691 
L 986 2816 
L 211 2745 
L 211 2579 
C 467 2579 640 2579 646 2320 
L 646 1079 
C 646 646 646 368 813 187 
C 896 103 1056 -64 1517 -64 
C 2061 -64 2272 400 2323 536 
L 2330 536 
L 2330 -64 
L 3091 -13 
L 3091 154 
C 2714 154 2656 193 2656 503 
L 2656 2816 
L 1882 2745 
z
" transform="scale(0.015625)"/>
      </defs>
      <use xlink:href="#CMR17-52" transform="scale(0.996264)"/>
      <use xlink:href="#CMR17-65" transform="translate(67.791102 0) scale(0.996264)"/>
      <use xlink:href="#CMR17-74" transform="translate(108.276762 0) scale(0.996264)"/>
      <use xlink:href="#CMR17-75" transform="translate(143.55753 0) scale(0.996264)"/>
      <use xlink:href="#CMR17-72" transform="translate(194.4529 0) scale(0.996264)"/>
      <use xlink:href="#CMR17-6e" transform="translate(229.733668 0) scale(0.996264)"/>
     </g>
    </g>
   </g>
   <g id="line2d_23">
    <path d="M 75.606377 343.68472 
L 76.914151 339.549994 
L 78.221925 350.702797 
L 79.529699 346.124804 
L 80.837473 347.635363 
L 82.145247 351.452994 
L 83.453021 354.624791 
L 84.760795 355.593967 
L 86.068569 355.244381 
L 87.376343 353.860696 
L 88.684117 353.047655 
L 89.991891 350.208809 
L 91.299665 348.079674 
L 92.607439 299.227869 
L 93.915213 296.978258 
L 95.222987 245.037893 
L 96.530761 23.978105 
L 97.838535 23.978105 
L 99.146309 71.206428 
L 100.454082 245.379606 
L 101.761856 124.958893 
L 103.06963 110.496124 
L 104.377404 127.36817 
L 105.685178 23.978105 
L 106.992952 50.29 
L 108.300726 23.978105 
L 109.6085 53.958918 
L 110.916274 48.2859 
L 112.224048 23.978105 
L 113.531822 38.921119 
L 114.839596 59.239185 
L 116.14737 162.599649 
L 117.455144 40.915983 
L 118.762918 58.777411 
L 120.070692 24.292111 
L 121.378466 49.486513 
L 122.68624 23.978105 
L 123.994014 51.666087 
L 125.301788 45.459842 
L 126.609562 43.538861 
L 127.917336 40.066319 
L 129.22511 108.922244 
L 130.532884 32.382396 
L 131.840658 45.349016 
L 133.148432 35.13457 
L 134.456205 40.121732 
L 135.763979 63.616804 
L 137.071753 43.33568 
L 138.379527 57.872333 
L 139.687301 66.996992 
L 140.995075 46.715868 
L 142.302849 23.978105 
L 143.610623 44.428309 
L 144.918397 84.544412 
L 146.226171 100.721133 
L 147.533945 132.329579 
L 148.841719 123.266213 
L 150.149493 123.621595 
L 151.457267 127.99552 
L 152.765041 146.909331 
L 154.072815 101.917129 
L 155.380589 127.886172 
L 156.688363 102.657507 
L 157.996137 57.724565 
L 159.303911 138.053271 
L 160.611685 88.960513 
L 161.919459 53.904963 
L 163.227233 69.139624 
L 164.535007 42.744609 
L 165.842781 44.776416 
L 167.150555 104.567682 
L 168.458328 23.978105 
L 169.766102 137.512225 
L 171.073876 23.978105 
L 172.38165 23.978105 
L 174.997198 48.473526 
L 176.304972 23.978105 
L 177.612746 101.262179 
L 178.92052 40.140203 
L 180.228294 37.184848 
L 181.536068 40.306441 
L 182.843842 31.717441 
L 184.151616 24.329053 
L 185.45939 53.494713 
L 189.382712 25.344956 
L 190.690486 53.014468 
L 191.99826 54.085784 
L 193.306034 23.978105 
L 194.613808 56.523952 
L 195.921582 137.11356 
L 197.229356 105.476638 
L 198.53713 35.559402 
L 199.844904 42.578371 
L 201.152678 39.623016 
L 202.460451 65.149895 
L 203.768225 40.36234 
L 205.075999 38.810293 
L 206.383773 42.707667 
L 207.691547 42.633784 
L 208.999321 122.533809 
L 210.307095 82.411016 
L 211.614869 23.978105 
L 212.922643 46.438803 
L 214.230417 33.342886 
L 215.538191 23.978105 
L 216.845965 55.175572 
L 218.153739 39.382893 
L 219.461513 84.518245 
L 220.769287 25.972969 
L 222.077061 25.917557 
L 223.384835 29.574808 
L 224.692609 25.566608 
L 226.000383 44.924184 
L 227.308157 24.033518 
L 228.615931 35.577873 
L 229.923705 26.342389 
L 231.231479 26.36086 
L 232.539253 23.978105 
L 233.847027 29.685634 
L 235.154801 26.323918 
L 236.462574 31.458847 
L 237.770348 24.218227 
L 239.078122 31.569673 
L 240.385896 74.957979 
L 241.69367 30.479886 
L 243.001444 31.69897 
L 244.309218 41.4147 
L 245.616992 31.089428 
L 246.924766 49.154036 
L 248.23254 38.330048 
L 249.540314 56.523952 
L 250.848088 54.547559 
L 252.155862 78.538269 
L 253.463636 25.344956 
L 254.77141 57.964688 
L 256.079184 46.818916 
L 257.386958 32.400867 
L 258.694732 23.978105 
L 260.002506 35.70717 
L 261.31028 68.511611 
L 262.618054 67.119362 
L 263.925828 23.978105 
L 266.541376 23.978105 
L 267.84915 24.809298 
L 269.156924 23.978105 
L 270.464697 23.978105 
L 271.772471 26.711808 
L 273.080245 23.978105 
L 274.388019 31.440376 
L 275.695793 28.725144 
L 277.003567 58.555759 
L 278.311341 24.033518 
L 279.619115 25.344956 
L 280.926889 23.978105 
L 282.234663 28.83597 
L 283.542437 42.592467 
L 284.850211 30.091996 
L 286.157985 26.804163 
L 287.465759 24.476821 
L 288.773533 23.978105 
L 291.389081 23.978105 
L 292.696855 30.664596 
L 294.004629 23.978105 
L 295.312403 23.978105 
L 296.620177 36.741544 
L 297.927951 23.978105 
L 299.235725 23.978105 
L 300.543499 34.488086 
L 301.851273 23.978105 
L 304.46682 23.978105 
L 307.082368 32.290041 
L 308.390142 24.476821 
L 309.697916 23.978105 
L 312.313464 23.978105 
L 313.621238 25.308015 
L 314.929012 23.978105 
L 320.160108 23.978105 
L 321.467882 32.035336 
L 322.775656 23.978105 
L 335.853396 23.978105 
L 337.16117 42.098125 
L 338.468943 24.051989 
L 341.084491 23.978105 
L 350.238909 23.978105 
L 351.546683 24.384466 
L 352.854457 23.978105 
L 376.394388 23.978105 
L 377.702162 26.42405 
L 379.009936 23.978105 
L 390.779902 23.978105 
L 392.087676 26.637924 
L 393.39545 23.978105 
L 398.626546 23.978105 
L 399.93432 24.661531 
L 401.242094 23.978105 
L 401.242094 23.978105 
" clip-path="url(#p69c267eb3e)" style="fill: none; stroke: #d66b6a; stroke-width: 1.5; stroke-linecap: square"/>
   </g>
   <g id="line2d_24">
    <path d="M 75.606377 345.334706 
L 76.914151 340.062563 
L 78.221925 344.231461 
L 79.529699 344.191595 
L 80.837473 348.368816 
L 82.145247 345.083115 
L 83.453021 346.441205 
L 84.760795 351.857551 
L 86.068569 351.949292 
L 87.376343 353.190954 
L 88.684117 351.21253 
L 89.991891 350.769569 
L 91.299665 338.353999 
L 92.607439 305.407177 
L 93.915213 290.969806 
L 95.222987 204.715768 
L 96.530761 23.978105 
L 103.06963 23.978105 
L 104.377404 78.061102 
L 105.685178 23.978105 
L 110.916274 23.978105 
L 112.224048 24.255169 
L 113.531822 40.324912 
L 114.839596 47.620945 
L 116.14737 32.382396 
L 117.455144 38.57017 
L 118.762918 36.187415 
L 120.070692 44.166874 
L 121.378466 24.624589 
L 122.68624 51.813855 
L 123.994014 58.888236 
L 125.301788 68.049837 
L 126.609562 106.444825 
L 127.917336 64.651179 
L 129.22511 122.078191 
L 130.532884 59.276127 
L 131.840658 128.143596 
L 133.148432 88.163183 
L 134.456205 115.857877 
L 135.763979 53.365417 
L 137.071753 138.366508 
L 138.379527 130.865909 
L 139.687301 116.952497 
L 140.995075 61.104753 
L 142.302849 149.415226 
L 143.610623 166.732098 
L 144.918397 89.014387 
L 146.226171 124.128469 
L 147.533945 140.872402 
L 148.841719 73.277121 
L 150.149493 50.169939 
L 151.457267 51.573733 
L 152.765041 144.753122 
L 154.072815 151.915425 
L 155.380589 136.002993 
L 156.688363 134.977854 
L 157.996137 167.070393 
L 159.303911 135.5189 
L 160.611685 152.832355 
L 161.919459 151.864168 
L 163.227233 110.972521 
L 164.535007 151.587381 
L 165.842781 150.46884 
L 167.150555 161.9447 
L 168.458328 192.647606 
L 169.766102 141.926017 
L 171.073876 177.69197 
L 172.38165 135.5189 
L 173.689424 147.962946 
L 174.997198 133.240814 
L 176.304972 146.681522 
L 177.612746 119.548377 
L 178.92052 152.251881 
L 180.228294 99.468186 
L 181.536068 149.130465 
L 182.843842 124.384754 
L 184.151616 182.960045 
L 185.45939 88.579833 
L 186.767164 59.220714 
L 188.074938 91.722693 
L 189.382712 59.941082 
L 190.690486 104.309119 
L 191.99826 51.629146 
L 193.306034 90.39971 
L 194.613808 80.29609 
L 195.921582 52.515752 
L 197.229356 34.247964 
L 198.53713 49.117094 
L 199.844904 100.123136 
L 201.152678 163.140695 
L 202.460451 175.243028 
L 203.768225 150.440364 
L 205.075999 128.855498 
L 206.383773 95.851724 
L 207.691547 142.92268 
L 208.999321 48.341313 
L 210.307095 107.669296 
L 211.614869 125.837033 
L 212.922643 58.020101 
L 214.230417 98.243715 
L 215.538191 43.261797 
L 216.845965 59.479307 
L 218.153739 86.817314 
L 219.461513 49.156952 
L 220.769287 34.875977 
L 222.077061 113.250607 
L 223.384835 68.234547 
L 224.692609 35.245396 
L 226.000383 65.907205 
L 227.308157 121.565622 
L 228.615931 106.786538 
L 229.923705 155.993199 
L 231.231479 71.15296 
L 232.539253 51.278197 
L 235.154801 36.667661 
L 236.462574 50.779481 
L 237.770348 23.978105 
L 239.078122 24.624589 
L 240.385896 40.140203 
L 241.69367 33.933957 
L 243.001444 29.260802 
L 244.309218 118.547158 
L 245.616992 34.247964 
L 246.924766 24.015047 
L 248.23254 23.978105 
L 249.540314 39.733841 
L 250.848088 42.393661 
L 252.155862 24.384466 
L 253.463636 73.166295 
L 254.77141 44.222287 
L 256.079184 23.978105 
L 258.694732 23.978105 
L 260.002506 26.231563 
L 261.31028 27.469118 
L 262.618054 23.978105 
L 263.925828 23.978105 
L 265.233602 41.9873 
L 266.541376 23.978105 
L 267.84915 23.978105 
L 269.156924 25.197189 
L 270.464697 33.767718 
L 271.772471 35.947293 
L 273.080245 37.277203 
L 274.388019 25.806731 
L 275.695793 43.169442 
L 277.003567 23.978105 
L 278.311341 23.978105 
L 279.619115 27.727712 
L 280.926889 34.580441 
L 282.234663 23.978105 
L 283.542437 23.978105 
L 284.850211 26.619453 
L 286.157985 39.179712 
L 287.465759 23.978105 
L 288.773533 23.978105 
L 290.081307 28.706673 
L 291.389081 23.978105 
L 300.543499 23.978105 
L 301.851273 43.963693 
L 303.159047 29.076092 
L 304.46682 23.978105 
L 307.082368 23.978105 
L 308.390142 41.894945 
L 309.697916 26.250034 
L 311.00569 23.978105 
L 312.313464 32.27157 
L 313.621238 32.862641 
L 314.929012 24.716944 
L 316.236786 23.978105 
L 318.852334 23.978105 
L 320.160108 41.894945 
L 321.467882 25.234131 
L 322.775656 33.80466 
L 324.08343 23.978105 
L 325.391204 29.500925 
L 326.698978 23.978105 
L 329.314526 23.978105 
L 330.6223 24.550705 
L 331.930074 23.978105 
L 333.237848 38.57017 
L 334.545622 23.978105 
L 341.084491 23.978105 
L 342.392265 42.744609 
L 343.700039 27.764653 
L 345.007813 24.329053 
L 346.315587 23.978105 
L 347.623361 23.978105 
L 348.931135 35.042215 
L 350.238909 40.583506 
L 351.546683 23.978105 
L 352.854457 34.894934 
L 354.162231 30.461415 
L 355.470005 31.403434 
L 356.777779 49.283332 
L 358.085553 23.978105 
L 359.393327 23.978105 
L 360.701101 24.735415 
L 362.008875 23.978105 
L 363.316649 35.485519 
L 364.624423 23.978105 
L 365.932197 35.651757 
L 367.239971 23.978105 
L 368.547745 24.088931 
L 369.855519 61.494587 
L 371.163293 23.978105 
L 373.77884 23.978105 
L 375.086614 72.558293 
L 376.394388 40.491151 
L 377.702162 52.681991 
L 379.009936 29.371628 
L 380.31771 23.978105 
L 382.933258 23.978105 
L 384.241032 32.400867 
L 385.548806 69.158095 
L 386.85658 25.271073 
L 388.164354 23.978105 
L 389.472128 23.978105 
L 390.779902 32.696402 
L 392.087676 23.978105 
L 394.703224 23.978105 
L 396.010998 24.236698 
L 397.318772 23.978105 
L 398.626546 29.648692 
L 399.93432 23.978105 
L 401.242094 43.354151 
L 401.242094 43.354151 
" clip-path="url(#p69c267eb3e)" style="fill: none; stroke: #5591e1; stroke-width: 1.5; stroke-linecap: square"/>
   </g>
   <g id="line2d_25">
    <path d="M 75.606377 340.351705 
L 76.914151 359.301001 
L 78.221925 359.259821 
L 79.529699 359.079285 
L 84.760795 359.252442 
L 86.068569 359.178387 
L 87.376343 356.299439 
L 88.684117 344.977972 
L 89.991891 344.283723 
L 91.299665 342.501687 
L 92.607439 342.150809 
L 96.530761 291.963052 
L 97.838535 284.035312 
L 99.146309 262.892394 
L 100.454082 249.782008 
L 101.761856 248.739783 
L 103.06963 258.997743 
L 104.377404 222.712649 
L 105.685178 193.724002 
L 106.992952 188.256595 
L 108.300726 154.341587 
L 109.6085 85.080071 
L 110.916274 23.978105 
L 112.224048 106.709575 
L 113.531822 23.978105 
L 114.839596 50.742539 
L 116.14737 29.6973 
L 117.455144 27.543002 
L 118.762918 23.978105 
L 120.070692 46.586571 
L 121.378466 23.978105 
L 122.68624 67.625005 
L 123.994014 42.94779 
L 125.301788 70.284824 
L 126.609562 63.432095 
L 127.917336 43.668158 
L 129.22511 40.8421 
L 130.532884 66.38745 
L 131.840658 51.019604 
L 133.148432 52.201746 
L 134.456205 39.530661 
L 135.763979 32.973467 
L 137.071753 28.909854 
L 138.379527 41.531358 
L 139.687301 58.093985 
L 140.995075 46.420332 
L 142.302849 39.068887 
L 143.610623 27.339821 
L 144.918397 24.236698 
L 146.226171 41.100693 
L 147.533945 25.086363 
L 148.841719 25.880615 
L 150.149493 26.453215 
L 151.457267 23.978105 
L 154.072815 23.978105 
L 155.380589 29.205389 
L 156.688363 23.978105 
L 157.996137 23.978105 
L 159.303911 24.864711 
L 160.611685 55.729701 
L 161.919459 33.675364 
L 163.227233 23.978105 
L 167.150555 23.978105 
L 168.458328 26.397802 
L 169.766102 23.978105 
L 171.073876 23.978105 
L 172.38165 33.564538 
L 173.689424 33.638422 
L 174.997198 30.886247 
L 176.304972 58.334107 
L 177.612746 38.93959 
L 178.92052 23.978105 
L 181.536068 23.978105 
L 182.843842 48.138132 
L 184.151616 23.978105 
L 186.767164 23.978105 
L 188.074938 28.817499 
L 189.382712 23.978105 
L 198.53713 23.978105 
L 199.844904 27.32135 
L 201.152678 24.27364 
L 202.460451 23.978105 
L 205.075999 23.978105 
L 206.383773 30.55377 
L 207.691547 23.978105 
L 208.999321 39.198183 
L 210.307095 38.905564 
L 211.614869 23.978105 
L 212.922643 39.844667 
L 214.230417 36.593777 
L 215.538191 23.978105 
L 229.923705 23.978105 
L 231.231479 38.995003 
L 232.539253 23.978105 
L 235.154801 23.978105 
L 236.462574 24.883182 
L 237.770348 23.978105 
L 243.001444 23.978105 
L 244.309218 27.376763 
L 245.616992 23.978105 
L 248.23254 23.978105 
L 249.540314 24.255169 
L 250.848088 23.978105 
L 252.155862 26.120737 
L 253.463636 23.978105 
L 254.77141 33.619951 
L 256.079184 23.978105 
L 262.618054 23.978105 
L 263.925828 25.104834 
L 265.233602 27.228995 
L 266.541376 23.978105 
L 267.84915 24.310582 
L 269.156924 23.978105 
L 270.464697 23.978105 
L 271.772471 28.115602 
L 273.080245 25.049421 
L 274.388019 30.258234 
L 275.695793 53.513184 
L 277.003567 46.291035 
L 278.311341 23.978105 
L 279.619115 36.409067 
L 280.926889 23.978105 
L 282.234663 33.474127 
L 283.542437 34.857506 
L 284.850211 24.015047 
L 286.157985 27.930892 
L 287.465759 51.019604 
L 288.773533 30.849305 
L 290.081307 30.849305 
L 291.389081 81.300448 
L 292.696855 24.033518 
L 294.004629 51.836701 
L 295.312403 40.528093 
L 296.620177 31.809796 
L 297.927951 24.532234 
L 299.235725 50.834894 
L 300.543499 23.978105 
L 301.851273 30.664596 
L 304.46682 32.437809 
L 305.774594 44.111461 
L 307.082368 41.543996 
L 308.390142 29.427041 
L 309.697916 40.010906 
L 311.00569 29.759518 
L 312.313464 68.742498 
L 313.621238 31.865209 
L 314.929012 38.440874 
L 316.236786 39.475248 
L 317.54456 46.900577 
L 318.852334 60.992449 
L 320.160108 41.026809 
L 321.467882 25.769789 
L 322.775656 90.754506 
L 324.08343 32.27157 
L 325.391204 37.071105 
L 326.698978 33.010409 
L 328.006752 23.978105 
L 329.314526 30.165879 
L 330.6223 32.585576 
L 331.930074 27.228995 
L 333.237848 25.21566 
L 334.545622 43.926751 
L 335.853396 54.56603 
L 337.16117 28.186569 
L 338.468943 26.046853 
L 341.084491 44.813358 
L 342.392265 29.371628 
L 343.700039 24.125873 
L 345.007813 34.783622 
L 346.315587 42.079654 
L 347.623361 34.535236 
L 348.931135 23.978105 
L 351.546683 28.244899 
L 352.854457 23.978105 
L 354.162231 36.612248 
L 355.470005 31.754383 
L 356.777779 24.421408 
L 358.085553 56.985727 
L 359.393327 38.902648 
L 360.701101 28.706673 
L 362.008875 24.033518 
L 363.316649 24.587647 
L 364.624423 25.326486 
L 365.932197 26.600982 
L 367.239971 44.757945 
L 368.547745 31.680499 
L 369.855519 23.978105 
L 371.163293 29.944228 
L 372.471066 49.024739 
L 373.77884 26.342389 
L 375.086614 33.213589 
L 376.394388 23.978105 
L 377.702162 25.049421 
L 379.009936 31.865209 
L 380.31771 28.521963 
L 381.625484 37.702035 
L 382.933258 25.012479 
L 384.241032 23.978105 
L 388.164354 23.978105 
L 389.472128 49.782049 
L 390.779902 23.978105 
L 393.39545 23.978105 
L 394.703224 33.878544 
L 396.010998 35.153041 
L 397.318772 24.532234 
L 398.626546 23.978105 
L 399.93432 23.978105 
L 401.242094 25.78826 
L 401.242094 25.78826 
" clip-path="url(#p69c267eb3e)" style="fill: none; stroke: #6ca247; stroke-width: 1.5; stroke-linecap: square"/>
   </g>
   <g id="patch_3">
    <path d="M 59.324591 376.318305 
L 59.324591 7.2 
" style="fill: none; stroke: #000000; stroke-width: 0.8; stroke-linejoin: miter; stroke-linecap: square"/>
   </g>
   <g id="patch_4">
    <path d="M 417.523879 376.318305 
L 417.523879 7.2 
" style="fill: none; stroke: #000000; stroke-width: 0.8; stroke-linejoin: miter; stroke-linecap: square"/>
   </g>
   <g id="patch_5">
    <path d="M 59.324591 376.318305 
L 417.523879 376.318305 
" style="fill: none; stroke: #000000; stroke-width: 0.8; stroke-linejoin: miter; stroke-linecap: square"/>
   </g>
   <g id="patch_6">
    <path d="M 59.324591 7.2 
L 417.523879 7.2 
" style="fill: none; stroke: #000000; stroke-width: 0.8; stroke-linejoin: miter; stroke-linecap: square"/>
   </g>
   <g id="legend_1">
    <g id="patch_7">
     <path d="M 308.417969 368.318305 
L 406.323879 368.318305 
Q 409.523879 368.318305 409.523879 365.118305 
L 409.523879 299.819877 
Q 409.523879 296.619877 406.323879 296.619877 
L 308.417969 296.619877 
Q 305.217969 296.619877 305.217969 299.819877 
L 305.217969 365.118305 
Q 305.217969 368.318305 308.417969 368.318305 
z
" style="fill: #ffffff; opacity: 0.8; stroke: #cccccc; stroke-linejoin: miter"/>
    </g>
    <g id="line2d_26">
     <path d="M 311.617969 308.619877 
L 327.617969 308.619877 
L 343.617969 308.619877 
" style="fill: none; stroke: #d66b6a; stroke-width: 1.5; stroke-linecap: square"/>
    </g>
    <g id="text_14">
     <!-- SAC -->
     <g transform="translate(356.417969 314.219877) scale(0.16 -0.16)">
      <defs>
       <path id="CMR17-41" d="M 2323 4441 
C 2291 4524 2278 4544 2214 4544 
C 2150 4544 2138 4524 2106 4441 
L 749 580 
C 627 236 371 166 147 166 
L 147 0 
C 262 12 518 12 640 12 
C 800 12 1056 12 1210 0 
L 1210 166 
C 909 179 864 382 864 459 
C 864 516 877 548 890 586 
L 1229 1536 
L 2906 1536 
L 3290 453 
C 3322 376 3322 363 3322 338 
C 3322 166 3046 166 2925 166 
L 2925 0 
C 3110 12 3443 12 3642 12 
C 3808 12 4128 12 4282 0 
L 4282 166 
C 3942 166 3827 166 3744 402 
L 2323 4441 
z
M 2067 3924 
L 2848 1702 
L 1286 1702 
L 2067 3924 
z
" transform="scale(0.015625)"/>
       <path id="CMR17-43" d="M 3974 4351 
C 3974 4467 3968 4473 3930 4473 
C 3904 4473 3898 4467 3853 4390 
L 3571 3849 
C 3258 4249 2874 4480 2381 4480 
C 1286 4480 294 3507 294 2179 
C 294 837 1286 -128 2387 -128 
C 3366 -128 3974 741 3974 1482 
C 3974 1547 3974 1573 3917 1573 
C 3866 1573 3866 1553 3859 1495 
C 3808 592 3168 38 2477 38 
C 1824 38 781 502 781 2179 
C 781 3862 1843 4313 2464 4313 
C 3187 4313 3712 3681 3834 2785 
C 3846 2707 3846 2695 3904 2695 
C 3974 2695 3974 2707 3974 2824 
L 3974 4351 
z
" transform="scale(0.015625)"/>
      </defs>
      <use xlink:href="#CMR17-53" transform="scale(0.996264)"/>
      <use xlink:href="#CMR17-41" transform="translate(50.89537 0) scale(0.996264)"/>
      <use xlink:href="#CMR17-43" transform="translate(117.365346 0) scale(0.996264)"/>
     </g>
    </g>
    <g id="line2d_27">
     <path d="M 311.617969 330.919353 
L 327.617969 330.919353 
L 343.617969 330.919353 
" style="fill: none; stroke: #5591e1; stroke-width: 1.5; stroke-linecap: square"/>
    </g>
    <g id="text_15">
     <!-- AFU -->
     <g transform="translate(356.417969 336.519353) scale(0.16 -0.16)">
      <defs>
       <path id="CMR17-46" d="M 3482 4339 
L 326 4339 
L 326 4172 
C 768 4172 838 4172 838 3883 
L 838 450 
C 838 166 768 166 326 166 
L 326 0 
C 512 12 870 12 1069 12 
C 1331 12 1638 12 1901 0 
L 1901 166 
L 1760 166 
C 1274 166 1261 229 1261 456 
L 1261 2073 
L 1837 2073 
C 2432 2073 2490 1865 2490 1334 
L 2605 1334 
L 2605 2991 
L 2490 2991 
C 2490 2451 2432 2240 1837 2240 
L 1261 2240 
L 1261 3922 
C 1261 4140 1274 4172 1530 4172 
L 2355 4172 
C 3322 4172 3430 3774 3520 2920 
L 3635 2920 
L 3482 4339 
z
" transform="scale(0.015625)"/>
       <path id="CMR17-55" d="M 3456 1442 
C 3456 583 2899 38 2291 38 
C 1965 38 1670 211 1491 480 
C 1286 788 1261 1185 1261 1410 
L 1261 3897 
C 1261 4185 1331 4185 1773 4185 
L 1773 4352 
C 1587 4339 1248 4339 1050 4339 
C 851 4339 512 4339 326 4352 
L 326 4185 
C 768 4185 838 4185 838 3897 
L 838 1442 
C 838 519 1536 -128 2278 -128 
C 3110 -128 3590 724 3590 1352 
L 3590 3788 
C 3590 4147 3917 4185 4102 4185 
L 4102 4352 
C 3955 4339 3686 4339 3526 4339 
C 3366 4339 3091 4339 2944 4352 
L 2944 4185 
C 3456 4185 3456 3884 3456 3724 
L 3456 1442 
z
" transform="scale(0.015625)"/>
      </defs>
      <use xlink:href="#CMR17-41" transform="scale(0.996264)"/>
      <use xlink:href="#CMR17-46" transform="translate(69.07243 0) scale(0.996264)"/>
      <use xlink:href="#CMR17-55" transform="translate(129.056276 0) scale(0.996264)"/>
     </g>
    </g>
    <g id="line2d_28">
     <path d="M 311.617969 353.218829 
L 327.617969 353.218829 
L 343.617969 353.218829 
" style="fill: none; stroke: #6ca247; stroke-width: 1.5; stroke-linecap: square"/>
    </g>
    <g id="text_16">
     <!-- DDPG -->
     <g transform="translate(356.417969 358.818829) scale(0.16 -0.16)">
      <defs>
       <path id="CMR17-44" d="M 333 4352 
L 333 4185 
C 774 4185 845 4185 845 3898 
L 845 453 
C 845 166 774 166 333 166 
L 333 0 
L 2368 0 
C 3398 0 4224 943 4224 2140 
C 4224 3344 3411 4352 2368 4352 
L 333 4352 
z
M 1523 166 
C 1267 166 1254 198 1254 414 
L 1254 3936 
C 1254 4153 1267 4185 1523 4185 
L 2240 4185 
C 2771 4185 3750 3873 3750 2140 
C 3750 1242 3488 879 3366 707 
C 3213 510 2848 166 2240 166 
L 1523 166 
z
" transform="scale(0.015625)"/>
       <path id="CMR17-50" d="M 1267 2048 
L 2291 2048 
C 3117 2048 3718 2583 3718 3187 
C 3718 3791 3130 4352 2291 4352 
L 333 4352 
L 333 4185 
C 774 4185 845 4185 845 3899 
L 845 453 
C 845 166 774 166 333 166 
L 333 0 
C 518 12 858 12 1056 12 
C 1254 12 1594 12 1779 0 
L 1779 166 
C 1338 166 1267 166 1267 453 
L 1267 2048 
z
M 1254 2182 
L 1254 3937 
C 1254 4153 1267 4185 1523 4185 
L 2170 4185 
C 2995 4185 3232 3715 3232 3187 
C 3232 2608 2950 2182 2170 2182 
L 1254 2182 
z
" transform="scale(0.015625)"/>
       <path id="CMR17-47" d="M 3974 1258 
C 3974 1503 3994 1536 4390 1536 
L 4390 1702 
C 4237 1689 3891 1689 3718 1689 
C 3539 1689 3040 1696 2797 1702 
L 2797 1536 
L 2989 1536 
C 3539 1536 3552 1464 3552 1232 
L 3552 806 
C 3552 96 2720 38 2522 38 
C 1862 38 781 496 781 2179 
C 781 3862 1843 4313 2464 4313 
C 3187 4313 3712 3681 3834 2785 
C 3846 2708 3846 2695 3904 2695 
C 3974 2695 3974 2708 3974 2824 
L 3974 4351 
C 3974 4467 3968 4473 3930 4473 
C 3904 4473 3898 4467 3853 4390 
L 3571 3849 
C 3258 4249 2874 4480 2381 4480 
C 1286 4480 294 3507 294 2179 
C 294 858 1267 -128 2394 -128 
C 2912 -128 3418 57 3616 425 
C 3725 161 3904 -20 3936 -20 
C 3968 -20 3974 -13 3974 102 
L 3974 1258 
z
" transform="scale(0.015625)"/>
      </defs>
      <use xlink:href="#CMR17-44" transform="scale(0.996264)"/>
      <use xlink:href="#CMR17-44" transform="translate(70.393556 0) scale(0.996264)"/>
      <use xlink:href="#CMR17-50" transform="translate(140.787112 0) scale(0.996264)"/>
      <use xlink:href="#CMR17-47" transform="translate(203.373412 0) scale(0.996264)"/>
     </g>
    </g>
   </g>
  </g>
 </g>
 <defs>
  <clipPath id="p69c267eb3e">
   <rect x="59.324591" y="7.2" width="358.199288" height="369.118305"/>
  </clipPath>
 </defs>
</svg>
