<?xml version="1.0" encoding="utf-8" standalone="no"?>
<!DOCTYPE svg PUBLIC "-//W3C//DTD SVG 1.1//EN"
  "http://www.w3.org/Graphics/SVG/1.1/DTD/svg11.dtd">
<svg xmlns:xlink="http://www.w3.org/1999/xlink" width="720pt" height="432pt" viewBox="0 0 720 432" xmlns="http://www.w3.org/2000/svg" version="1.1">
 <metadata>
  <rdf:RDF xmlns:dc="http://purl.org/dc/elements/1.1/" xmlns:cc="http://creativecommons.org/ns#" xmlns:rdf="http://www.w3.org/1999/02/22-rdf-syntax-ns#">
   <cc:Work>
    <dc:type rdf:resource="http://purl.org/dc/dcmitype/StillImage"/>
    <dc:date>2025-05-05T22:19:30.049625</dc:date>
    <dc:format>image/svg+xml</dc:format>
    <dc:creator>
     <cc:Agent>
      <dc:title>Matplotlib v3.10.0, https://matplotlib.org/</dc:title>
     </cc:Agent>
    </dc:creator>
   </cc:Work>
  </rdf:RDF>
 </metadata>
 <defs>
  <style type="text/css">*{stroke-linejoin: round; stroke-linecap: butt}</style>
 </defs>
 <g id="figure_1">
  <g id="patch_1">
   <path d="M 0 432 
L 720 432 
L 720 0 
L 0 0 
z
" style="fill: #ffffff"/>
  </g>
  <g id="axes_1">
   <g id="patch_2">
    <path d="M 90 384.48 
L 648 384.48 
L 648 51.84 
L 90 51.84 
z
" style="fill: #ffffff"/>
   </g>
   <g id="patch_3">
    <path d="M 115.363636 384.48 
L 125.509091 384.48 
L 125.509091 382.616471 
L 115.363636 382.616471 
z
" clip-path="url(#pa367dbe534)" style="fill: #d00000; opacity: 0.7"/>
   </g>
   <g id="patch_4">
    <path d="M 125.509091 384.48 
L 135.654545 384.48 
L 135.654545 384.48 
L 125.509091 384.48 
z
" clip-path="url(#pa367dbe534)" style="fill: #d00000; opacity: 0.7"/>
   </g>
   <g id="patch_5">
    <path d="M 135.654545 384.48 
L 145.8 384.48 
L 145.8 384.48 
L 135.654545 384.48 
z
" clip-path="url(#pa367dbe534)" style="fill: #d00000; opacity: 0.7"/>
   </g>
   <g id="patch_6">
    <path d="M 145.8 384.48 
L 155.945455 384.48 
L 155.945455 382.616471 
L 145.8 382.616471 
z
" clip-path="url(#pa367dbe534)" style="fill: #d00000; opacity: 0.7"/>
   </g>
   <g id="patch_7">
    <path d="M 155.945455 384.48 
L 166.090909 384.48 
L 166.090909 384.48 
L 155.945455 384.48 
z
" clip-path="url(#pa367dbe534)" style="fill: #d00000; opacity: 0.7"/>
   </g>
   <g id="patch_8">
    <path d="M 166.090909 384.48 
L 176.236364 384.48 
L 176.236364 384.48 
L 166.090909 384.48 
z
" clip-path="url(#pa367dbe534)" style="fill: #d00000; opacity: 0.7"/>
   </g>
   <g id="patch_9">
    <path d="M 176.236364 384.48 
L 186.381818 384.48 
L 186.381818 384.48 
L 176.236364 384.48 
z
" clip-path="url(#pa367dbe534)" style="fill: #d00000; opacity: 0.7"/>
   </g>
   <g id="patch_10">
    <path d="M 186.381818 384.48 
L 196.527273 384.48 
L 196.527273 384.48 
L 186.381818 384.48 
z
" clip-path="url(#pa367dbe534)" style="fill: #d00000; opacity: 0.7"/>
   </g>
   <g id="patch_11">
    <path d="M 196.527273 384.48 
L 206.672727 384.48 
L 206.672727 382.616471 
L 196.527273 382.616471 
z
" clip-path="url(#pa367dbe534)" style="fill: #d00000; opacity: 0.7"/>
   </g>
   <g id="patch_12">
    <path d="M 206.672727 384.48 
L 216.818182 384.48 
L 216.818182 384.48 
L 206.672727 384.48 
z
" clip-path="url(#pa367dbe534)" style="fill: #d00000; opacity: 0.7"/>
   </g>
   <g id="patch_13">
    <path d="M 216.818182 384.48 
L 226.963636 384.48 
L 226.963636 384.48 
L 216.818182 384.48 
z
" clip-path="url(#pa367dbe534)" style="fill: #d00000; opacity: 0.7"/>
   </g>
   <g id="patch_14">
    <path d="M 226.963636 384.48 
L 237.109091 384.48 
L 237.109091 382.616471 
L 226.963636 382.616471 
z
" clip-path="url(#pa367dbe534)" style="fill: #d00000; opacity: 0.7"/>
   </g>
   <g id="patch_15">
    <path d="M 237.109091 384.48 
L 247.254545 384.48 
L 247.254545 384.48 
L 237.109091 384.48 
z
" clip-path="url(#pa367dbe534)" style="fill: #d00000; opacity: 0.7"/>
   </g>
   <g id="patch_16">
    <path d="M 247.254545 384.48 
L 257.4 384.48 
L 257.4 384.48 
L 247.254545 384.48 
z
" clip-path="url(#pa367dbe534)" style="fill: #d00000; opacity: 0.7"/>
   </g>
   <g id="patch_17">
    <path d="M 257.4 384.48 
L 267.545455 384.48 
L 267.545455 384.48 
L 257.4 384.48 
z
" clip-path="url(#pa367dbe534)" style="fill: #d00000; opacity: 0.7"/>
   </g>
   <g id="patch_18">
    <path d="M 267.545455 384.48 
L 277.690909 384.48 
L 277.690909 384.48 
L 267.545455 384.48 
z
" clip-path="url(#pa367dbe534)" style="fill: #d00000; opacity: 0.7"/>
   </g>
   <g id="patch_19">
    <path d="M 277.690909 384.48 
L 287.836364 384.48 
L 287.836364 384.48 
L 277.690909 384.48 
z
" clip-path="url(#pa367dbe534)" style="fill: #d00000; opacity: 0.7"/>
   </g>
   <g id="patch_20">
    <path d="M 287.836364 384.48 
L 297.981818 384.48 
L 297.981818 380.752941 
L 287.836364 380.752941 
z
" clip-path="url(#pa367dbe534)" style="fill: #d00000; opacity: 0.7"/>
   </g>
   <g id="patch_21">
    <path d="M 297.981818 384.48 
L 308.127273 384.48 
L 308.127273 380.752941 
L 297.981818 380.752941 
z
" clip-path="url(#pa367dbe534)" style="fill: #d00000; opacity: 0.7"/>
   </g>
   <g id="patch_22">
    <path d="M 308.127273 384.48 
L 318.272727 384.48 
L 318.272727 378.889412 
L 308.127273 378.889412 
z
" clip-path="url(#pa367dbe534)" style="fill: #d00000; opacity: 0.7"/>
   </g>
   <g id="patch_23">
    <path d="M 318.272727 384.48 
L 328.418182 384.48 
L 328.418182 384.48 
L 318.272727 384.48 
z
" clip-path="url(#pa367dbe534)" style="fill: #d00000; opacity: 0.7"/>
   </g>
   <g id="patch_24">
    <path d="M 328.418182 384.48 
L 338.563636 384.48 
L 338.563636 380.752941 
L 328.418182 380.752941 
z
" clip-path="url(#pa367dbe534)" style="fill: #d00000; opacity: 0.7"/>
   </g>
   <g id="patch_25">
    <path d="M 338.563636 384.48 
L 348.709091 384.48 
L 348.709091 380.752941 
L 338.563636 380.752941 
z
" clip-path="url(#pa367dbe534)" style="fill: #d00000; opacity: 0.7"/>
   </g>
   <g id="patch_26">
    <path d="M 348.709091 384.48 
L 358.854545 384.48 
L 358.854545 380.752941 
L 348.709091 380.752941 
z
" clip-path="url(#pa367dbe534)" style="fill: #d00000; opacity: 0.7"/>
   </g>
   <g id="patch_27">
    <path d="M 358.854545 384.48 
L 369 384.48 
L 369 384.48 
L 358.854545 384.48 
z
" clip-path="url(#pa367dbe534)" style="fill: #d00000; opacity: 0.7"/>
   </g>
   <g id="patch_28">
    <path d="M 369 384.48 
L 379.145455 384.48 
L 379.145455 382.616471 
L 369 382.616471 
z
" clip-path="url(#pa367dbe534)" style="fill: #d00000; opacity: 0.7"/>
   </g>
   <g id="patch_29">
    <path d="M 379.145455 384.48 
L 389.290909 384.48 
L 389.290909 382.616471 
L 379.145455 382.616471 
z
" clip-path="url(#pa367dbe534)" style="fill: #d00000; opacity: 0.7"/>
   </g>
   <g id="patch_30">
    <path d="M 389.290909 384.48 
L 399.436364 384.48 
L 399.436364 384.48 
L 389.290909 384.48 
z
" clip-path="url(#pa367dbe534)" style="fill: #d00000; opacity: 0.7"/>
   </g>
   <g id="patch_31">
    <path d="M 399.436364 384.48 
L 409.581818 384.48 
L 409.581818 380.752941 
L 399.436364 380.752941 
z
" clip-path="url(#pa367dbe534)" style="fill: #d00000; opacity: 0.7"/>
   </g>
   <g id="patch_32">
    <path d="M 409.581818 384.48 
L 419.727273 384.48 
L 419.727273 378.889412 
L 409.581818 378.889412 
z
" clip-path="url(#pa367dbe534)" style="fill: #d00000; opacity: 0.7"/>
   </g>
   <g id="patch_33">
    <path d="M 419.727273 384.48 
L 429.872727 384.48 
L 429.872727 384.48 
L 419.727273 384.48 
z
" clip-path="url(#pa367dbe534)" style="fill: #d00000; opacity: 0.7"/>
   </g>
   <g id="patch_34">
    <path d="M 429.872727 384.48 
L 440.018182 384.48 
L 440.018182 382.616471 
L 429.872727 382.616471 
z
" clip-path="url(#pa367dbe534)" style="fill: #d00000; opacity: 0.7"/>
   </g>
   <g id="patch_35">
    <path d="M 440.018182 384.48 
L 450.163636 384.48 
L 450.163636 382.616471 
L 440.018182 382.616471 
z
" clip-path="url(#pa367dbe534)" style="fill: #d00000; opacity: 0.7"/>
   </g>
   <g id="patch_36">
    <path d="M 450.163636 384.48 
L 460.309091 384.48 
L 460.309091 377.025882 
L 450.163636 377.025882 
z
" clip-path="url(#pa367dbe534)" style="fill: #d00000; opacity: 0.7"/>
   </g>
   <g id="patch_37">
    <path d="M 460.309091 384.48 
L 470.454545 384.48 
L 470.454545 382.616471 
L 460.309091 382.616471 
z
" clip-path="url(#pa367dbe534)" style="fill: #d00000; opacity: 0.7"/>
   </g>
   <g id="patch_38">
    <path d="M 470.454545 384.48 
L 480.6 384.48 
L 480.6 377.025882 
L 470.454545 377.025882 
z
" clip-path="url(#pa367dbe534)" style="fill: #d00000; opacity: 0.7"/>
   </g>
   <g id="patch_39">
    <path d="M 480.6 384.48 
L 490.745455 384.48 
L 490.745455 378.889412 
L 480.6 378.889412 
z
" clip-path="url(#pa367dbe534)" style="fill: #d00000; opacity: 0.7"/>
   </g>
   <g id="patch_40">
    <path d="M 490.745455 384.48 
L 500.890909 384.48 
L 500.890909 378.889412 
L 490.745455 378.889412 
z
" clip-path="url(#pa367dbe534)" style="fill: #d00000; opacity: 0.7"/>
   </g>
   <g id="patch_41">
    <path d="M 500.890909 384.48 
L 511.036364 384.48 
L 511.036364 371.435294 
L 500.890909 371.435294 
z
" clip-path="url(#pa367dbe534)" style="fill: #d00000; opacity: 0.7"/>
   </g>
   <g id="patch_42">
    <path d="M 511.036364 384.48 
L 521.181818 384.48 
L 521.181818 360.254118 
L 511.036364 360.254118 
z
" clip-path="url(#pa367dbe534)" style="fill: #d00000; opacity: 0.7"/>
   </g>
   <g id="patch_43">
    <path d="M 521.181818 384.48 
L 531.327273 384.48 
L 531.327273 341.618824 
L 521.181818 341.618824 
z
" clip-path="url(#pa367dbe534)" style="fill: #d00000; opacity: 0.7"/>
   </g>
   <g id="patch_44">
    <path d="M 531.327273 384.48 
L 541.472727 384.48 
L 541.472727 276.395294 
L 531.327273 276.395294 
z
" clip-path="url(#pa367dbe534)" style="fill: #d00000; opacity: 0.7"/>
   </g>
   <g id="patch_45">
    <path d="M 541.472727 384.48 
L 551.618182 384.48 
L 551.618182 222.352941 
L 541.472727 222.352941 
z
" clip-path="url(#pa367dbe534)" style="fill: #d00000; opacity: 0.7"/>
   </g>
   <g id="patch_46">
    <path d="M 551.618182 384.48 
L 561.763636 384.48 
L 561.763636 227.943529 
L 551.618182 227.943529 
z
" clip-path="url(#pa367dbe534)" style="fill: #d00000; opacity: 0.7"/>
   </g>
   <g id="patch_47">
    <path d="M 561.763636 384.48 
L 571.909091 384.48 
L 571.909091 231.670588 
L 561.763636 231.670588 
z
" clip-path="url(#pa367dbe534)" style="fill: #d00000; opacity: 0.7"/>
   </g>
   <g id="patch_48">
    <path d="M 571.909091 384.48 
L 582.054545 384.48 
L 582.054545 138.494118 
L 571.909091 138.494118 
z
" clip-path="url(#pa367dbe534)" style="fill: #d00000; opacity: 0.7"/>
   </g>
   <g id="patch_49">
    <path d="M 582.054545 384.48 
L 592.2 384.48 
L 592.2 106.814118 
L 582.054545 106.814118 
z
" clip-path="url(#pa367dbe534)" style="fill: #d00000; opacity: 0.7"/>
   </g>
   <g id="patch_50">
    <path d="M 592.2 384.48 
L 602.345455 384.48 
L 602.345455 142.221176 
L 592.2 142.221176 
z
" clip-path="url(#pa367dbe534)" style="fill: #d00000; opacity: 0.7"/>
   </g>
   <g id="patch_51">
    <path d="M 602.345455 384.48 
L 612.490909 384.48 
L 612.490909 67.68 
L 602.345455 67.68 
z
" clip-path="url(#pa367dbe534)" style="fill: #d00000; opacity: 0.7"/>
   </g>
   <g id="patch_52">
    <path d="M 612.490909 384.48 
L 622.636364 384.48 
L 622.636364 339.755294 
L 612.490909 339.755294 
z
" clip-path="url(#pa367dbe534)" style="fill: #d00000; opacity: 0.7"/>
   </g>
   <g id="matplotlib.axis_1">
    <g id="xtick_1">
     <g id="line2d_1">
      <path d="M 177.507386 384.48 
L 177.507386 51.84 
" clip-path="url(#pa367dbe534)" style="fill: none; stroke: #b0b0b0; stroke-opacity: 0.3; stroke-width: 0.8; stroke-linecap: square"/>
     </g>
     <g id="line2d_2">
      <defs>
       <path id="m303c45627c" d="M 0 0 
L 0 3.5 
" style="stroke: #000000; stroke-width: 0.8"/>
      </defs>
      <g>
       <use xlink:href="#m303c45627c" x="177.507386" y="384.48" style="stroke: #000000; stroke-width: 0.8"/>
      </g>
     </g>
     <g id="text_1">
      <!-- −4000 -->
      <g transform="translate(160.592542 399.078438) scale(0.1 -0.1)">
       <defs>
        <path id="DejaVuSans-2212" d="M 678 2272 
L 4684 2272 
L 4684 1741 
L 678 1741 
L 678 2272 
z
" transform="scale(0.015625)"/>
        <path id="DejaVuSans-34" d="M 2419 4116 
L 825 1625 
L 2419 1625 
L 2419 4116 
z
M 2253 4666 
L 3047 4666 
L 3047 1625 
L 3713 1625 
L 3713 1100 
L 3047 1100 
L 3047 0 
L 2419 0 
L 2419 1100 
L 313 1100 
L 313 1709 
L 2253 4666 
z
" transform="scale(0.015625)"/>
        <path id="DejaVuSans-30" d="M 2034 4250 
Q 1547 4250 1301 3770 
Q 1056 3291 1056 2328 
Q 1056 1369 1301 889 
Q 1547 409 2034 409 
Q 2525 409 2770 889 
Q 3016 1369 3016 2328 
Q 3016 3291 2770 3770 
Q 2525 4250 2034 4250 
z
M 2034 4750 
Q 2819 4750 3233 4129 
Q 3647 3509 3647 2328 
Q 3647 1150 3233 529 
Q 2819 -91 2034 -91 
Q 1250 -91 836 529 
Q 422 1150 422 2328 
Q 422 3509 836 4129 
Q 1250 4750 2034 4750 
z
" transform="scale(0.015625)"/>
       </defs>
       <use xlink:href="#DejaVuSans-2212"/>
       <use xlink:href="#DejaVuSans-34" transform="translate(83.789062 0)"/>
       <use xlink:href="#DejaVuSans-30" transform="translate(147.412109 0)"/>
       <use xlink:href="#DejaVuSans-30" transform="translate(211.035156 0)"/>
       <use xlink:href="#DejaVuSans-30" transform="translate(274.658203 0)"/>
      </g>
     </g>
    </g>
    <g id="xtick_2">
     <g id="line2d_3">
      <path d="M 287.904068 384.48 
L 287.904068 51.84 
" clip-path="url(#pa367dbe534)" style="fill: none; stroke: #b0b0b0; stroke-opacity: 0.3; stroke-width: 0.8; stroke-linecap: square"/>
     </g>
     <g id="line2d_4">
      <g>
       <use xlink:href="#m303c45627c" x="287.904068" y="384.48" style="stroke: #000000; stroke-width: 0.8"/>
      </g>
     </g>
     <g id="text_2">
      <!-- −3000 -->
      <g transform="translate(270.989224 399.078438) scale(0.1 -0.1)">
       <defs>
        <path id="DejaVuSans-33" d="M 2597 2516 
Q 3050 2419 3304 2112 
Q 3559 1806 3559 1356 
Q 3559 666 3084 287 
Q 2609 -91 1734 -91 
Q 1441 -91 1130 -33 
Q 819 25 488 141 
L 488 750 
Q 750 597 1062 519 
Q 1375 441 1716 441 
Q 2309 441 2620 675 
Q 2931 909 2931 1356 
Q 2931 1769 2642 2001 
Q 2353 2234 1838 2234 
L 1294 2234 
L 1294 2753 
L 1863 2753 
Q 2328 2753 2575 2939 
Q 2822 3125 2822 3475 
Q 2822 3834 2567 4026 
Q 2313 4219 1838 4219 
Q 1578 4219 1281 4162 
Q 984 4106 628 3988 
L 628 4550 
Q 988 4650 1302 4700 
Q 1616 4750 1894 4750 
Q 2613 4750 3031 4423 
Q 3450 4097 3450 3541 
Q 3450 3153 3228 2886 
Q 3006 2619 2597 2516 
z
" transform="scale(0.015625)"/>
       </defs>
       <use xlink:href="#DejaVuSans-2212"/>
       <use xlink:href="#DejaVuSans-33" transform="translate(83.789062 0)"/>
       <use xlink:href="#DejaVuSans-30" transform="translate(147.412109 0)"/>
       <use xlink:href="#DejaVuSans-30" transform="translate(211.035156 0)"/>
       <use xlink:href="#DejaVuSans-30" transform="translate(274.658203 0)"/>
      </g>
     </g>
    </g>
    <g id="xtick_3">
     <g id="line2d_5">
      <path d="M 398.30075 384.48 
L 398.30075 51.84 
" clip-path="url(#pa367dbe534)" style="fill: none; stroke: #b0b0b0; stroke-opacity: 0.3; stroke-width: 0.8; stroke-linecap: square"/>
     </g>
     <g id="line2d_6">
      <g>
       <use xlink:href="#m303c45627c" x="398.30075" y="384.48" style="stroke: #000000; stroke-width: 0.8"/>
      </g>
     </g>
     <g id="text_3">
      <!-- −2000 -->
      <g transform="translate(381.385906 399.078438) scale(0.1 -0.1)">
       <defs>
        <path id="DejaVuSans-32" d="M 1228 531 
L 3431 531 
L 3431 0 
L 469 0 
L 469 531 
Q 828 903 1448 1529 
Q 2069 2156 2228 2338 
Q 2531 2678 2651 2914 
Q 2772 3150 2772 3378 
Q 2772 3750 2511 3984 
Q 2250 4219 1831 4219 
Q 1534 4219 1204 4116 
Q 875 4013 500 3803 
L 500 4441 
Q 881 4594 1212 4672 
Q 1544 4750 1819 4750 
Q 2544 4750 2975 4387 
Q 3406 4025 3406 3419 
Q 3406 3131 3298 2873 
Q 3191 2616 2906 2266 
Q 2828 2175 2409 1742 
Q 1991 1309 1228 531 
z
" transform="scale(0.015625)"/>
       </defs>
       <use xlink:href="#DejaVuSans-2212"/>
       <use xlink:href="#DejaVuSans-32" transform="translate(83.789062 0)"/>
       <use xlink:href="#DejaVuSans-30" transform="translate(147.412109 0)"/>
       <use xlink:href="#DejaVuSans-30" transform="translate(211.035156 0)"/>
       <use xlink:href="#DejaVuSans-30" transform="translate(274.658203 0)"/>
      </g>
     </g>
    </g>
    <g id="xtick_4">
     <g id="line2d_7">
      <path d="M 508.697432 384.48 
L 508.697432 51.84 
" clip-path="url(#pa367dbe534)" style="fill: none; stroke: #b0b0b0; stroke-opacity: 0.3; stroke-width: 0.8; stroke-linecap: square"/>
     </g>
     <g id="line2d_8">
      <g>
       <use xlink:href="#m303c45627c" x="508.697432" y="384.48" style="stroke: #000000; stroke-width: 0.8"/>
      </g>
     </g>
     <g id="text_4">
      <!-- −1000 -->
      <g transform="translate(491.782588 399.078438) scale(0.1 -0.1)">
       <defs>
        <path id="DejaVuSans-31" d="M 794 531 
L 1825 531 
L 1825 4091 
L 703 3866 
L 703 4441 
L 1819 4666 
L 2450 4666 
L 2450 531 
L 3481 531 
L 3481 0 
L 794 0 
L 794 531 
z
" transform="scale(0.015625)"/>
       </defs>
       <use xlink:href="#DejaVuSans-2212"/>
       <use xlink:href="#DejaVuSans-31" transform="translate(83.789062 0)"/>
       <use xlink:href="#DejaVuSans-30" transform="translate(147.412109 0)"/>
       <use xlink:href="#DejaVuSans-30" transform="translate(211.035156 0)"/>
       <use xlink:href="#DejaVuSans-30" transform="translate(274.658203 0)"/>
      </g>
     </g>
    </g>
    <g id="xtick_5">
     <g id="line2d_9">
      <path d="M 619.094114 384.48 
L 619.094114 51.84 
" clip-path="url(#pa367dbe534)" style="fill: none; stroke: #b0b0b0; stroke-opacity: 0.3; stroke-width: 0.8; stroke-linecap: square"/>
     </g>
     <g id="line2d_10">
      <g>
       <use xlink:href="#m303c45627c" x="619.094114" y="384.48" style="stroke: #000000; stroke-width: 0.8"/>
      </g>
     </g>
     <g id="text_5">
      <!-- 0 -->
      <g transform="translate(615.912864 399.078438) scale(0.1 -0.1)">
       <use xlink:href="#DejaVuSans-30"/>
      </g>
     </g>
    </g>
    <g id="text_6">
     <!-- Return -->
     <g transform="translate(352.408594 412.756563) scale(0.1 -0.1)">
      <defs>
       <path id="DejaVuSans-52" d="M 2841 2188 
Q 3044 2119 3236 1894 
Q 3428 1669 3622 1275 
L 4263 0 
L 3584 0 
L 2988 1197 
Q 2756 1666 2539 1819 
Q 2322 1972 1947 1972 
L 1259 1972 
L 1259 0 
L 628 0 
L 628 4666 
L 2053 4666 
Q 2853 4666 3247 4331 
Q 3641 3997 3641 3322 
Q 3641 2881 3436 2590 
Q 3231 2300 2841 2188 
z
M 1259 4147 
L 1259 2491 
L 2053 2491 
Q 2509 2491 2742 2702 
Q 2975 2913 2975 3322 
Q 2975 3731 2742 3939 
Q 2509 4147 2053 4147 
L 1259 4147 
z
" transform="scale(0.015625)"/>
       <path id="DejaVuSans-65" d="M 3597 1894 
L 3597 1613 
L 953 1613 
Q 991 1019 1311 708 
Q 1631 397 2203 397 
Q 2534 397 2845 478 
Q 3156 559 3463 722 
L 3463 178 
Q 3153 47 2828 -22 
Q 2503 -91 2169 -91 
Q 1331 -91 842 396 
Q 353 884 353 1716 
Q 353 2575 817 3079 
Q 1281 3584 2069 3584 
Q 2775 3584 3186 3129 
Q 3597 2675 3597 1894 
z
M 3022 2063 
Q 3016 2534 2758 2815 
Q 2500 3097 2075 3097 
Q 1594 3097 1305 2825 
Q 1016 2553 972 2059 
L 3022 2063 
z
" transform="scale(0.015625)"/>
       <path id="DejaVuSans-74" d="M 1172 4494 
L 1172 3500 
L 2356 3500 
L 2356 3053 
L 1172 3053 
L 1172 1153 
Q 1172 725 1289 603 
Q 1406 481 1766 481 
L 2356 481 
L 2356 0 
L 1766 0 
Q 1100 0 847 248 
Q 594 497 594 1153 
L 594 3053 
L 172 3053 
L 172 3500 
L 594 3500 
L 594 4494 
L 1172 4494 
z
" transform="scale(0.015625)"/>
       <path id="DejaVuSans-75" d="M 544 1381 
L 544 3500 
L 1119 3500 
L 1119 1403 
Q 1119 906 1312 657 
Q 1506 409 1894 409 
Q 2359 409 2629 706 
Q 2900 1003 2900 1516 
L 2900 3500 
L 3475 3500 
L 3475 0 
L 2900 0 
L 2900 538 
Q 2691 219 2414 64 
Q 2138 -91 1772 -91 
Q 1169 -91 856 284 
Q 544 659 544 1381 
z
M 1991 3584 
L 1991 3584 
z
" transform="scale(0.015625)"/>
       <path id="DejaVuSans-72" d="M 2631 2963 
Q 2534 3019 2420 3045 
Q 2306 3072 2169 3072 
Q 1681 3072 1420 2755 
Q 1159 2438 1159 1844 
L 1159 0 
L 581 0 
L 581 3500 
L 1159 3500 
L 1159 2956 
Q 1341 3275 1631 3429 
Q 1922 3584 2338 3584 
Q 2397 3584 2469 3576 
Q 2541 3569 2628 3553 
L 2631 2963 
z
" transform="scale(0.015625)"/>
       <path id="DejaVuSans-6e" d="M 3513 2113 
L 3513 0 
L 2938 0 
L 2938 2094 
Q 2938 2591 2744 2837 
Q 2550 3084 2163 3084 
Q 1697 3084 1428 2787 
Q 1159 2491 1159 1978 
L 1159 0 
L 581 0 
L 581 3500 
L 1159 3500 
L 1159 2956 
Q 1366 3272 1645 3428 
Q 1925 3584 2291 3584 
Q 2894 3584 3203 3211 
Q 3513 2838 3513 2113 
z
" transform="scale(0.015625)"/>
      </defs>
      <use xlink:href="#DejaVuSans-52"/>
      <use xlink:href="#DejaVuSans-65" transform="translate(64.982422 0)"/>
      <use xlink:href="#DejaVuSans-74" transform="translate(126.505859 0)"/>
      <use xlink:href="#DejaVuSans-75" transform="translate(165.714844 0)"/>
      <use xlink:href="#DejaVuSans-72" transform="translate(229.09375 0)"/>
      <use xlink:href="#DejaVuSans-6e" transform="translate(268.457031 0)"/>
     </g>
    </g>
   </g>
   <g id="matplotlib.axis_2">
    <g id="ytick_1">
     <g id="line2d_11">
      <path d="M 90 384.48 
L 648 384.48 
" clip-path="url(#pa367dbe534)" style="fill: none; stroke: #b0b0b0; stroke-opacity: 0.3; stroke-width: 0.8; stroke-linecap: square"/>
     </g>
     <g id="line2d_12">
      <defs>
       <path id="m624cb689ff" d="M 0 0 
L -3.5 0 
" style="stroke: #000000; stroke-width: 0.8"/>
      </defs>
      <g>
       <use xlink:href="#m624cb689ff" x="90" y="384.48" style="stroke: #000000; stroke-width: 0.8"/>
      </g>
     </g>
     <g id="text_7">
      <!-- 0 -->
      <g transform="translate(76.6375 388.279219) scale(0.1 -0.1)">
       <use xlink:href="#DejaVuSans-30"/>
      </g>
     </g>
    </g>
    <g id="ytick_2">
     <g id="line2d_13">
      <path d="M 90 347.209412 
L 648 347.209412 
" clip-path="url(#pa367dbe534)" style="fill: none; stroke: #b0b0b0; stroke-opacity: 0.3; stroke-width: 0.8; stroke-linecap: square"/>
     </g>
     <g id="line2d_14">
      <g>
       <use xlink:href="#m624cb689ff" x="90" y="347.209412" style="stroke: #000000; stroke-width: 0.8"/>
      </g>
     </g>
     <g id="text_8">
      <!-- 20 -->
      <g transform="translate(70.275 351.008631) scale(0.1 -0.1)">
       <use xlink:href="#DejaVuSans-32"/>
       <use xlink:href="#DejaVuSans-30" transform="translate(63.623047 0)"/>
      </g>
     </g>
    </g>
    <g id="ytick_3">
     <g id="line2d_15">
      <path d="M 90 309.938824 
L 648 309.938824 
" clip-path="url(#pa367dbe534)" style="fill: none; stroke: #b0b0b0; stroke-opacity: 0.3; stroke-width: 0.8; stroke-linecap: square"/>
     </g>
     <g id="line2d_16">
      <g>
       <use xlink:href="#m624cb689ff" x="90" y="309.938824" style="stroke: #000000; stroke-width: 0.8"/>
      </g>
     </g>
     <g id="text_9">
      <!-- 40 -->
      <g transform="translate(70.275 313.738042) scale(0.1 -0.1)">
       <use xlink:href="#DejaVuSans-34"/>
       <use xlink:href="#DejaVuSans-30" transform="translate(63.623047 0)"/>
      </g>
     </g>
    </g>
    <g id="ytick_4">
     <g id="line2d_17">
      <path d="M 90 272.668235 
L 648 272.668235 
" clip-path="url(#pa367dbe534)" style="fill: none; stroke: #b0b0b0; stroke-opacity: 0.3; stroke-width: 0.8; stroke-linecap: square"/>
     </g>
     <g id="line2d_18">
      <g>
       <use xlink:href="#m624cb689ff" x="90" y="272.668235" style="stroke: #000000; stroke-width: 0.8"/>
      </g>
     </g>
     <g id="text_10">
      <!-- 60 -->
      <g transform="translate(70.275 276.467454) scale(0.1 -0.1)">
       <defs>
        <path id="DejaVuSans-36" d="M 2113 2584 
Q 1688 2584 1439 2293 
Q 1191 2003 1191 1497 
Q 1191 994 1439 701 
Q 1688 409 2113 409 
Q 2538 409 2786 701 
Q 3034 994 3034 1497 
Q 3034 2003 2786 2293 
Q 2538 2584 2113 2584 
z
M 3366 4563 
L 3366 3988 
Q 3128 4100 2886 4159 
Q 2644 4219 2406 4219 
Q 1781 4219 1451 3797 
Q 1122 3375 1075 2522 
Q 1259 2794 1537 2939 
Q 1816 3084 2150 3084 
Q 2853 3084 3261 2657 
Q 3669 2231 3669 1497 
Q 3669 778 3244 343 
Q 2819 -91 2113 -91 
Q 1303 -91 875 529 
Q 447 1150 447 2328 
Q 447 3434 972 4092 
Q 1497 4750 2381 4750 
Q 2619 4750 2861 4703 
Q 3103 4656 3366 4563 
z
" transform="scale(0.015625)"/>
       </defs>
       <use xlink:href="#DejaVuSans-36"/>
       <use xlink:href="#DejaVuSans-30" transform="translate(63.623047 0)"/>
      </g>
     </g>
    </g>
    <g id="ytick_5">
     <g id="line2d_19">
      <path d="M 90 235.397647 
L 648 235.397647 
" clip-path="url(#pa367dbe534)" style="fill: none; stroke: #b0b0b0; stroke-opacity: 0.3; stroke-width: 0.8; stroke-linecap: square"/>
     </g>
     <g id="line2d_20">
      <g>
       <use xlink:href="#m624cb689ff" x="90" y="235.397647" style="stroke: #000000; stroke-width: 0.8"/>
      </g>
     </g>
     <g id="text_11">
      <!-- 80 -->
      <g transform="translate(70.275 239.196866) scale(0.1 -0.1)">
       <defs>
        <path id="DejaVuSans-38" d="M 2034 2216 
Q 1584 2216 1326 1975 
Q 1069 1734 1069 1313 
Q 1069 891 1326 650 
Q 1584 409 2034 409 
Q 2484 409 2743 651 
Q 3003 894 3003 1313 
Q 3003 1734 2745 1975 
Q 2488 2216 2034 2216 
z
M 1403 2484 
Q 997 2584 770 2862 
Q 544 3141 544 3541 
Q 544 4100 942 4425 
Q 1341 4750 2034 4750 
Q 2731 4750 3128 4425 
Q 3525 4100 3525 3541 
Q 3525 3141 3298 2862 
Q 3072 2584 2669 2484 
Q 3125 2378 3379 2068 
Q 3634 1759 3634 1313 
Q 3634 634 3220 271 
Q 2806 -91 2034 -91 
Q 1263 -91 848 271 
Q 434 634 434 1313 
Q 434 1759 690 2068 
Q 947 2378 1403 2484 
z
M 1172 3481 
Q 1172 3119 1398 2916 
Q 1625 2713 2034 2713 
Q 2441 2713 2670 2916 
Q 2900 3119 2900 3481 
Q 2900 3844 2670 4047 
Q 2441 4250 2034 4250 
Q 1625 4250 1398 4047 
Q 1172 3844 1172 3481 
z
" transform="scale(0.015625)"/>
       </defs>
       <use xlink:href="#DejaVuSans-38"/>
       <use xlink:href="#DejaVuSans-30" transform="translate(63.623047 0)"/>
      </g>
     </g>
    </g>
    <g id="ytick_6">
     <g id="line2d_21">
      <path d="M 90 198.127059 
L 648 198.127059 
" clip-path="url(#pa367dbe534)" style="fill: none; stroke: #b0b0b0; stroke-opacity: 0.3; stroke-width: 0.8; stroke-linecap: square"/>
     </g>
     <g id="line2d_22">
      <g>
       <use xlink:href="#m624cb689ff" x="90" y="198.127059" style="stroke: #000000; stroke-width: 0.8"/>
      </g>
     </g>
     <g id="text_12">
      <!-- 100 -->
      <g transform="translate(63.9125 201.926278) scale(0.1 -0.1)">
       <use xlink:href="#DejaVuSans-31"/>
       <use xlink:href="#DejaVuSans-30" transform="translate(63.623047 0)"/>
       <use xlink:href="#DejaVuSans-30" transform="translate(127.246094 0)"/>
      </g>
     </g>
    </g>
    <g id="ytick_7">
     <g id="line2d_23">
      <path d="M 90 160.856471 
L 648 160.856471 
" clip-path="url(#pa367dbe534)" style="fill: none; stroke: #b0b0b0; stroke-opacity: 0.3; stroke-width: 0.8; stroke-linecap: square"/>
     </g>
     <g id="line2d_24">
      <g>
       <use xlink:href="#m624cb689ff" x="90" y="160.856471" style="stroke: #000000; stroke-width: 0.8"/>
      </g>
     </g>
     <g id="text_13">
      <!-- 120 -->
      <g transform="translate(63.9125 164.655689) scale(0.1 -0.1)">
       <use xlink:href="#DejaVuSans-31"/>
       <use xlink:href="#DejaVuSans-32" transform="translate(63.623047 0)"/>
       <use xlink:href="#DejaVuSans-30" transform="translate(127.246094 0)"/>
      </g>
     </g>
    </g>
    <g id="ytick_8">
     <g id="line2d_25">
      <path d="M 90 123.585882 
L 648 123.585882 
" clip-path="url(#pa367dbe534)" style="fill: none; stroke: #b0b0b0; stroke-opacity: 0.3; stroke-width: 0.8; stroke-linecap: square"/>
     </g>
     <g id="line2d_26">
      <g>
       <use xlink:href="#m624cb689ff" x="90" y="123.585882" style="stroke: #000000; stroke-width: 0.8"/>
      </g>
     </g>
     <g id="text_14">
      <!-- 140 -->
      <g transform="translate(63.9125 127.385101) scale(0.1 -0.1)">
       <use xlink:href="#DejaVuSans-31"/>
       <use xlink:href="#DejaVuSans-34" transform="translate(63.623047 0)"/>
       <use xlink:href="#DejaVuSans-30" transform="translate(127.246094 0)"/>
      </g>
     </g>
    </g>
    <g id="ytick_9">
     <g id="line2d_27">
      <path d="M 90 86.315294 
L 648 86.315294 
" clip-path="url(#pa367dbe534)" style="fill: none; stroke: #b0b0b0; stroke-opacity: 0.3; stroke-width: 0.8; stroke-linecap: square"/>
     </g>
     <g id="line2d_28">
      <g>
       <use xlink:href="#m624cb689ff" x="90" y="86.315294" style="stroke: #000000; stroke-width: 0.8"/>
      </g>
     </g>
     <g id="text_15">
      <!-- 160 -->
      <g transform="translate(63.9125 90.114513) scale(0.1 -0.1)">
       <use xlink:href="#DejaVuSans-31"/>
       <use xlink:href="#DejaVuSans-36" transform="translate(63.623047 0)"/>
       <use xlink:href="#DejaVuSans-30" transform="translate(127.246094 0)"/>
      </g>
     </g>
    </g>
    <g id="text_16">
     <!-- Frequency -->
     <g transform="translate(57.832812 243.989687) rotate(-90) scale(0.1 -0.1)">
      <defs>
       <path id="DejaVuSans-46" d="M 628 4666 
L 3309 4666 
L 3309 4134 
L 1259 4134 
L 1259 2759 
L 3109 2759 
L 3109 2228 
L 1259 2228 
L 1259 0 
L 628 0 
L 628 4666 
z
" transform="scale(0.015625)"/>
       <path id="DejaVuSans-71" d="M 947 1747 
Q 947 1113 1208 752 
Q 1469 391 1925 391 
Q 2381 391 2643 752 
Q 2906 1113 2906 1747 
Q 2906 2381 2643 2742 
Q 2381 3103 1925 3103 
Q 1469 3103 1208 2742 
Q 947 2381 947 1747 
z
M 2906 525 
Q 2725 213 2448 61 
Q 2172 -91 1784 -91 
Q 1150 -91 751 415 
Q 353 922 353 1747 
Q 353 2572 751 3078 
Q 1150 3584 1784 3584 
Q 2172 3584 2448 3432 
Q 2725 3281 2906 2969 
L 2906 3500 
L 3481 3500 
L 3481 -1331 
L 2906 -1331 
L 2906 525 
z
" transform="scale(0.015625)"/>
       <path id="DejaVuSans-63" d="M 3122 3366 
L 3122 2828 
Q 2878 2963 2633 3030 
Q 2388 3097 2138 3097 
Q 1578 3097 1268 2742 
Q 959 2388 959 1747 
Q 959 1106 1268 751 
Q 1578 397 2138 397 
Q 2388 397 2633 464 
Q 2878 531 3122 666 
L 3122 134 
Q 2881 22 2623 -34 
Q 2366 -91 2075 -91 
Q 1284 -91 818 406 
Q 353 903 353 1747 
Q 353 2603 823 3093 
Q 1294 3584 2113 3584 
Q 2378 3584 2631 3529 
Q 2884 3475 3122 3366 
z
" transform="scale(0.015625)"/>
       <path id="DejaVuSans-79" d="M 2059 -325 
Q 1816 -950 1584 -1140 
Q 1353 -1331 966 -1331 
L 506 -1331 
L 506 -850 
L 844 -850 
Q 1081 -850 1212 -737 
Q 1344 -625 1503 -206 
L 1606 56 
L 191 3500 
L 800 3500 
L 1894 763 
L 2988 3500 
L 3597 3500 
L 2059 -325 
z
" transform="scale(0.015625)"/>
      </defs>
      <use xlink:href="#DejaVuSans-46"/>
      <use xlink:href="#DejaVuSans-72" transform="translate(50.269531 0)"/>
      <use xlink:href="#DejaVuSans-65" transform="translate(89.132812 0)"/>
      <use xlink:href="#DejaVuSans-71" transform="translate(150.65625 0)"/>
      <use xlink:href="#DejaVuSans-75" transform="translate(214.132812 0)"/>
      <use xlink:href="#DejaVuSans-65" transform="translate(277.511719 0)"/>
      <use xlink:href="#DejaVuSans-6e" transform="translate(339.035156 0)"/>
      <use xlink:href="#DejaVuSans-63" transform="translate(402.414062 0)"/>
      <use xlink:href="#DejaVuSans-79" transform="translate(457.394531 0)"/>
     </g>
    </g>
   </g>
   <g id="patch_53">
    <path d="M 90 384.48 
L 90 51.84 
" style="fill: none; stroke: #000000; stroke-width: 0.8; stroke-linejoin: miter; stroke-linecap: square"/>
   </g>
   <g id="patch_54">
    <path d="M 648 384.48 
L 648 51.84 
" style="fill: none; stroke: #000000; stroke-width: 0.8; stroke-linejoin: miter; stroke-linecap: square"/>
   </g>
   <g id="patch_55">
    <path d="M 90 384.48 
L 648 384.48 
" style="fill: none; stroke: #000000; stroke-width: 0.8; stroke-linejoin: miter; stroke-linecap: square"/>
   </g>
   <g id="patch_56">
    <path d="M 90 51.84 
L 648 51.84 
" style="fill: none; stroke: #000000; stroke-width: 0.8; stroke-linejoin: miter; stroke-linecap: square"/>
   </g>
   <g id="text_17">
    <!-- Lunar Lander DDPG Reward Distribution - Last 1% of OffPolicy Training -->
    <g transform="translate(157.461563 45.84) scale(0.12 -0.12)">
     <defs>
      <path id="DejaVuSans-4c" d="M 628 4666 
L 1259 4666 
L 1259 531 
L 3531 531 
L 3531 0 
L 628 0 
L 628 4666 
z
" transform="scale(0.015625)"/>
      <path id="DejaVuSans-61" d="M 2194 1759 
Q 1497 1759 1228 1600 
Q 959 1441 959 1056 
Q 959 750 1161 570 
Q 1363 391 1709 391 
Q 2188 391 2477 730 
Q 2766 1069 2766 1631 
L 2766 1759 
L 2194 1759 
z
M 3341 1997 
L 3341 0 
L 2766 0 
L 2766 531 
Q 2569 213 2275 61 
Q 1981 -91 1556 -91 
Q 1019 -91 701 211 
Q 384 513 384 1019 
Q 384 1609 779 1909 
Q 1175 2209 1959 2209 
L 2766 2209 
L 2766 2266 
Q 2766 2663 2505 2880 
Q 2244 3097 1772 3097 
Q 1472 3097 1187 3025 
Q 903 2953 641 2809 
L 641 3341 
Q 956 3463 1253 3523 
Q 1550 3584 1831 3584 
Q 2591 3584 2966 3190 
Q 3341 2797 3341 1997 
z
" transform="scale(0.015625)"/>
      <path id="DejaVuSans-20" transform="scale(0.015625)"/>
      <path id="DejaVuSans-64" d="M 2906 2969 
L 2906 4863 
L 3481 4863 
L 3481 0 
L 2906 0 
L 2906 525 
Q 2725 213 2448 61 
Q 2172 -91 1784 -91 
Q 1150 -91 751 415 
Q 353 922 353 1747 
Q 353 2572 751 3078 
Q 1150 3584 1784 3584 
Q 2172 3584 2448 3432 
Q 2725 3281 2906 2969 
z
M 947 1747 
Q 947 1113 1208 752 
Q 1469 391 1925 391 
Q 2381 391 2643 752 
Q 2906 1113 2906 1747 
Q 2906 2381 2643 2742 
Q 2381 3103 1925 3103 
Q 1469 3103 1208 2742 
Q 947 2381 947 1747 
z
" transform="scale(0.015625)"/>
      <path id="DejaVuSans-44" d="M 1259 4147 
L 1259 519 
L 2022 519 
Q 2988 519 3436 956 
Q 3884 1394 3884 2338 
Q 3884 3275 3436 3711 
Q 2988 4147 2022 4147 
L 1259 4147 
z
M 628 4666 
L 1925 4666 
Q 3281 4666 3915 4102 
Q 4550 3538 4550 2338 
Q 4550 1131 3912 565 
Q 3275 0 1925 0 
L 628 0 
L 628 4666 
z
" transform="scale(0.015625)"/>
      <path id="DejaVuSans-50" d="M 1259 4147 
L 1259 2394 
L 2053 2394 
Q 2494 2394 2734 2622 
Q 2975 2850 2975 3272 
Q 2975 3691 2734 3919 
Q 2494 4147 2053 4147 
L 1259 4147 
z
M 628 4666 
L 2053 4666 
Q 2838 4666 3239 4311 
Q 3641 3956 3641 3272 
Q 3641 2581 3239 2228 
Q 2838 1875 2053 1875 
L 1259 1875 
L 1259 0 
L 628 0 
L 628 4666 
z
" transform="scale(0.015625)"/>
      <path id="DejaVuSans-47" d="M 3809 666 
L 3809 1919 
L 2778 1919 
L 2778 2438 
L 4434 2438 
L 4434 434 
Q 4069 175 3628 42 
Q 3188 -91 2688 -91 
Q 1594 -91 976 548 
Q 359 1188 359 2328 
Q 359 3472 976 4111 
Q 1594 4750 2688 4750 
Q 3144 4750 3555 4637 
Q 3966 4525 4313 4306 
L 4313 3634 
Q 3963 3931 3569 4081 
Q 3175 4231 2741 4231 
Q 1884 4231 1454 3753 
Q 1025 3275 1025 2328 
Q 1025 1384 1454 906 
Q 1884 428 2741 428 
Q 3075 428 3337 486 
Q 3600 544 3809 666 
z
" transform="scale(0.015625)"/>
      <path id="DejaVuSans-77" d="M 269 3500 
L 844 3500 
L 1563 769 
L 2278 3500 
L 2956 3500 
L 3675 769 
L 4391 3500 
L 4966 3500 
L 4050 0 
L 3372 0 
L 2619 2869 
L 1863 0 
L 1184 0 
L 269 3500 
z
" transform="scale(0.015625)"/>
      <path id="DejaVuSans-69" d="M 603 3500 
L 1178 3500 
L 1178 0 
L 603 0 
L 603 3500 
z
M 603 4863 
L 1178 4863 
L 1178 4134 
L 603 4134 
L 603 4863 
z
" transform="scale(0.015625)"/>
      <path id="DejaVuSans-73" d="M 2834 3397 
L 2834 2853 
Q 2591 2978 2328 3040 
Q 2066 3103 1784 3103 
Q 1356 3103 1142 2972 
Q 928 2841 928 2578 
Q 928 2378 1081 2264 
Q 1234 2150 1697 2047 
L 1894 2003 
Q 2506 1872 2764 1633 
Q 3022 1394 3022 966 
Q 3022 478 2636 193 
Q 2250 -91 1575 -91 
Q 1294 -91 989 -36 
Q 684 19 347 128 
L 347 722 
Q 666 556 975 473 
Q 1284 391 1588 391 
Q 1994 391 2212 530 
Q 2431 669 2431 922 
Q 2431 1156 2273 1281 
Q 2116 1406 1581 1522 
L 1381 1569 
Q 847 1681 609 1914 
Q 372 2147 372 2553 
Q 372 3047 722 3315 
Q 1072 3584 1716 3584 
Q 2034 3584 2315 3537 
Q 2597 3491 2834 3397 
z
" transform="scale(0.015625)"/>
      <path id="DejaVuSans-62" d="M 3116 1747 
Q 3116 2381 2855 2742 
Q 2594 3103 2138 3103 
Q 1681 3103 1420 2742 
Q 1159 2381 1159 1747 
Q 1159 1113 1420 752 
Q 1681 391 2138 391 
Q 2594 391 2855 752 
Q 3116 1113 3116 1747 
z
M 1159 2969 
Q 1341 3281 1617 3432 
Q 1894 3584 2278 3584 
Q 2916 3584 3314 3078 
Q 3713 2572 3713 1747 
Q 3713 922 3314 415 
Q 2916 -91 2278 -91 
Q 1894 -91 1617 61 
Q 1341 213 1159 525 
L 1159 0 
L 581 0 
L 581 4863 
L 1159 4863 
L 1159 2969 
z
" transform="scale(0.015625)"/>
      <path id="DejaVuSans-6f" d="M 1959 3097 
Q 1497 3097 1228 2736 
Q 959 2375 959 1747 
Q 959 1119 1226 758 
Q 1494 397 1959 397 
Q 2419 397 2687 759 
Q 2956 1122 2956 1747 
Q 2956 2369 2687 2733 
Q 2419 3097 1959 3097 
z
M 1959 3584 
Q 2709 3584 3137 3096 
Q 3566 2609 3566 1747 
Q 3566 888 3137 398 
Q 2709 -91 1959 -91 
Q 1206 -91 779 398 
Q 353 888 353 1747 
Q 353 2609 779 3096 
Q 1206 3584 1959 3584 
z
" transform="scale(0.015625)"/>
      <path id="DejaVuSans-2d" d="M 313 2009 
L 1997 2009 
L 1997 1497 
L 313 1497 
L 313 2009 
z
" transform="scale(0.015625)"/>
      <path id="DejaVuSans-25" d="M 4653 2053 
Q 4381 2053 4226 1822 
Q 4072 1591 4072 1178 
Q 4072 772 4226 539 
Q 4381 306 4653 306 
Q 4919 306 5073 539 
Q 5228 772 5228 1178 
Q 5228 1588 5073 1820 
Q 4919 2053 4653 2053 
z
M 4653 2450 
Q 5147 2450 5437 2106 
Q 5728 1763 5728 1178 
Q 5728 594 5436 251 
Q 5144 -91 4653 -91 
Q 4153 -91 3862 251 
Q 3572 594 3572 1178 
Q 3572 1766 3864 2108 
Q 4156 2450 4653 2450 
z
M 1428 4353 
Q 1159 4353 1004 4120 
Q 850 3888 850 3481 
Q 850 3069 1003 2837 
Q 1156 2606 1428 2606 
Q 1700 2606 1854 2837 
Q 2009 3069 2009 3481 
Q 2009 3884 1853 4118 
Q 1697 4353 1428 4353 
z
M 4250 4750 
L 4750 4750 
L 1831 -91 
L 1331 -91 
L 4250 4750 
z
M 1428 4750 
Q 1922 4750 2215 4408 
Q 2509 4066 2509 3481 
Q 2509 2891 2217 2550 
Q 1925 2209 1428 2209 
Q 931 2209 642 2551 
Q 353 2894 353 3481 
Q 353 4063 643 4406 
Q 934 4750 1428 4750 
z
" transform="scale(0.015625)"/>
      <path id="DejaVuSans-66" d="M 2375 4863 
L 2375 4384 
L 1825 4384 
Q 1516 4384 1395 4259 
Q 1275 4134 1275 3809 
L 1275 3500 
L 2222 3500 
L 2222 3053 
L 1275 3053 
L 1275 0 
L 697 0 
L 697 3053 
L 147 3053 
L 147 3500 
L 697 3500 
L 697 3744 
Q 697 4328 969 4595 
Q 1241 4863 1831 4863 
L 2375 4863 
z
" transform="scale(0.015625)"/>
      <path id="DejaVuSans-4f" d="M 2522 4238 
Q 1834 4238 1429 3725 
Q 1025 3213 1025 2328 
Q 1025 1447 1429 934 
Q 1834 422 2522 422 
Q 3209 422 3611 934 
Q 4013 1447 4013 2328 
Q 4013 3213 3611 3725 
Q 3209 4238 2522 4238 
z
M 2522 4750 
Q 3503 4750 4090 4092 
Q 4678 3434 4678 2328 
Q 4678 1225 4090 567 
Q 3503 -91 2522 -91 
Q 1538 -91 948 565 
Q 359 1222 359 2328 
Q 359 3434 948 4092 
Q 1538 4750 2522 4750 
z
" transform="scale(0.015625)"/>
      <path id="DejaVuSans-6c" d="M 603 4863 
L 1178 4863 
L 1178 0 
L 603 0 
L 603 4863 
z
" transform="scale(0.015625)"/>
      <path id="DejaVuSans-54" d="M -19 4666 
L 3928 4666 
L 3928 4134 
L 2272 4134 
L 2272 0 
L 1638 0 
L 1638 4134 
L -19 4134 
L -19 4666 
z
" transform="scale(0.015625)"/>
      <path id="DejaVuSans-67" d="M 2906 1791 
Q 2906 2416 2648 2759 
Q 2391 3103 1925 3103 
Q 1463 3103 1205 2759 
Q 947 2416 947 1791 
Q 947 1169 1205 825 
Q 1463 481 1925 481 
Q 2391 481 2648 825 
Q 2906 1169 2906 1791 
z
M 3481 434 
Q 3481 -459 3084 -895 
Q 2688 -1331 1869 -1331 
Q 1566 -1331 1297 -1286 
Q 1028 -1241 775 -1147 
L 775 -588 
Q 1028 -725 1275 -790 
Q 1522 -856 1778 -856 
Q 2344 -856 2625 -561 
Q 2906 -266 2906 331 
L 2906 616 
Q 2728 306 2450 153 
Q 2172 0 1784 0 
Q 1141 0 747 490 
Q 353 981 353 1791 
Q 353 2603 747 3093 
Q 1141 3584 1784 3584 
Q 2172 3584 2450 3431 
Q 2728 3278 2906 2969 
L 2906 3500 
L 3481 3500 
L 3481 434 
z
" transform="scale(0.015625)"/>
     </defs>
     <use xlink:href="#DejaVuSans-4c"/>
     <use xlink:href="#DejaVuSans-75" transform="translate(53.962891 0)"/>
     <use xlink:href="#DejaVuSans-6e" transform="translate(117.341797 0)"/>
     <use xlink:href="#DejaVuSans-61" transform="translate(180.720703 0)"/>
     <use xlink:href="#DejaVuSans-72" transform="translate(242 0)"/>
     <use xlink:href="#DejaVuSans-20" transform="translate(283.113281 0)"/>
     <use xlink:href="#DejaVuSans-4c" transform="translate(314.900391 0)"/>
     <use xlink:href="#DejaVuSans-61" transform="translate(370.613281 0)"/>
     <use xlink:href="#DejaVuSans-6e" transform="translate(431.892578 0)"/>
     <use xlink:href="#DejaVuSans-64" transform="translate(495.271484 0)"/>
     <use xlink:href="#DejaVuSans-65" transform="translate(558.748047 0)"/>
     <use xlink:href="#DejaVuSans-72" transform="translate(620.271484 0)"/>
     <use xlink:href="#DejaVuSans-20" transform="translate(661.384766 0)"/>
     <use xlink:href="#DejaVuSans-44" transform="translate(693.171875 0)"/>
     <use xlink:href="#DejaVuSans-44" transform="translate(770.173828 0)"/>
     <use xlink:href="#DejaVuSans-50" transform="translate(847.175781 0)"/>
     <use xlink:href="#DejaVuSans-47" transform="translate(907.478516 0)"/>
     <use xlink:href="#DejaVuSans-20" transform="translate(984.96875 0)"/>
     <use xlink:href="#DejaVuSans-52" transform="translate(1016.755859 0)"/>
     <use xlink:href="#DejaVuSans-65" transform="translate(1081.738281 0)"/>
     <use xlink:href="#DejaVuSans-77" transform="translate(1143.261719 0)"/>
     <use xlink:href="#DejaVuSans-61" transform="translate(1225.048828 0)"/>
     <use xlink:href="#DejaVuSans-72" transform="translate(1286.328125 0)"/>
     <use xlink:href="#DejaVuSans-64" transform="translate(1325.691406 0)"/>
     <use xlink:href="#DejaVuSans-20" transform="translate(1389.167969 0)"/>
     <use xlink:href="#DejaVuSans-44" transform="translate(1420.955078 0)"/>
     <use xlink:href="#DejaVuSans-69" transform="translate(1497.957031 0)"/>
     <use xlink:href="#DejaVuSans-73" transform="translate(1525.740234 0)"/>
     <use xlink:href="#DejaVuSans-74" transform="translate(1577.839844 0)"/>
     <use xlink:href="#DejaVuSans-72" transform="translate(1617.048828 0)"/>
     <use xlink:href="#DejaVuSans-69" transform="translate(1658.162109 0)"/>
     <use xlink:href="#DejaVuSans-62" transform="translate(1685.945312 0)"/>
     <use xlink:href="#DejaVuSans-75" transform="translate(1749.421875 0)"/>
     <use xlink:href="#DejaVuSans-74" transform="translate(1812.800781 0)"/>
     <use xlink:href="#DejaVuSans-69" transform="translate(1852.009766 0)"/>
     <use xlink:href="#DejaVuSans-6f" transform="translate(1879.792969 0)"/>
     <use xlink:href="#DejaVuSans-6e" transform="translate(1940.974609 0)"/>
     <use xlink:href="#DejaVuSans-20" transform="translate(2004.353516 0)"/>
     <use xlink:href="#DejaVuSans-2d" transform="translate(2036.140625 0)"/>
     <use xlink:href="#DejaVuSans-20" transform="translate(2072.224609 0)"/>
     <use xlink:href="#DejaVuSans-4c" transform="translate(2104.011719 0)"/>
     <use xlink:href="#DejaVuSans-61" transform="translate(2159.724609 0)"/>
     <use xlink:href="#DejaVuSans-73" transform="translate(2221.003906 0)"/>
     <use xlink:href="#DejaVuSans-74" transform="translate(2273.103516 0)"/>
     <use xlink:href="#DejaVuSans-20" transform="translate(2312.3125 0)"/>
     <use xlink:href="#DejaVuSans-31" transform="translate(2344.099609 0)"/>
     <use xlink:href="#DejaVuSans-25" transform="translate(2407.722656 0)"/>
     <use xlink:href="#DejaVuSans-20" transform="translate(2502.742188 0)"/>
     <use xlink:href="#DejaVuSans-6f" transform="translate(2534.529297 0)"/>
     <use xlink:href="#DejaVuSans-66" transform="translate(2595.710938 0)"/>
     <use xlink:href="#DejaVuSans-20" transform="translate(2630.916016 0)"/>
     <use xlink:href="#DejaVuSans-4f" transform="translate(2662.703125 0)"/>
     <use xlink:href="#DejaVuSans-66" transform="translate(2741.414062 0)"/>
     <use xlink:href="#DejaVuSans-66" transform="translate(2776.619141 0)"/>
     <use xlink:href="#DejaVuSans-50" transform="translate(2811.824219 0)"/>
     <use xlink:href="#DejaVuSans-6f" transform="translate(2868.501953 0)"/>
     <use xlink:href="#DejaVuSans-6c" transform="translate(2929.683594 0)"/>
     <use xlink:href="#DejaVuSans-69" transform="translate(2957.466797 0)"/>
     <use xlink:href="#DejaVuSans-63" transform="translate(2985.25 0)"/>
     <use xlink:href="#DejaVuSans-79" transform="translate(3040.230469 0)"/>
     <use xlink:href="#DejaVuSans-20" transform="translate(3099.410156 0)"/>
     <use xlink:href="#DejaVuSans-54" transform="translate(3131.197266 0)"/>
     <use xlink:href="#DejaVuSans-72" transform="translate(3177.53125 0)"/>
     <use xlink:href="#DejaVuSans-61" transform="translate(3218.644531 0)"/>
     <use xlink:href="#DejaVuSans-69" transform="translate(3279.923828 0)"/>
     <use xlink:href="#DejaVuSans-6e" transform="translate(3307.707031 0)"/>
     <use xlink:href="#DejaVuSans-69" transform="translate(3371.085938 0)"/>
     <use xlink:href="#DejaVuSans-6e" transform="translate(3398.869141 0)"/>
     <use xlink:href="#DejaVuSans-67" transform="translate(3462.248047 0)"/>
    </g>
   </g>
  </g>
 </g>
 <defs>
  <clipPath id="pa367dbe534">
   <rect x="90" y="51.84" width="558" height="332.64"/>
  </clipPath>
 </defs>
</svg>
