<?xml version="1.0" encoding="utf-8" standalone="no"?>
<!DOCTYPE svg PUBLIC "-//W3C//DTD SVG 1.1//EN"
  "http://www.w3.org/Graphics/SVG/1.1/DTD/svg11.dtd">
<svg xmlns:xlink="http://www.w3.org/1999/xlink" width="720pt" height="432pt" viewBox="0 0 720 432" xmlns="http://www.w3.org/2000/svg" version="1.1">
 <metadata>
  <rdf:RDF xmlns:dc="http://purl.org/dc/elements/1.1/" xmlns:cc="http://creativecommons.org/ns#" xmlns:rdf="http://www.w3.org/1999/02/22-rdf-syntax-ns#">
   <cc:Work>
    <dc:type rdf:resource="http://purl.org/dc/dcmitype/StillImage"/>
    <dc:date>2025-05-06T17:16:57.925399</dc:date>
    <dc:format>image/svg+xml</dc:format>
    <dc:creator>
     <cc:Agent>
      <dc:title>Matplotlib v3.10.0, https://matplotlib.org/</dc:title>
     </cc:Agent>
    </dc:creator>
   </cc:Work>
  </rdf:RDF>
 </metadata>
 <defs>
  <style type="text/css">*{stroke-linejoin: round; stroke-linecap: butt}</style>
 </defs>
 <g id="figure_1">
  <g id="patch_1">
   <path d="M 0 432 
L 720 432 
L 720 0 
L 0 0 
z
" style="fill: #ffffff"/>
  </g>
  <g id="axes_1">
   <g id="patch_2">
    <path d="M 90 384.48 
L 648 384.48 
L 648 51.84 
L 90 51.84 
z
" style="fill: #ffffff"/>
   </g>
   <g id="FillBetweenPolyCollection_1">
    <defs>
     <path id="m55d2178335" d="M 115.363636 -188.424353 
L 115.363636 -175.658957 
L 117.400876 -86.295601 
L 119.438116 -104.023967 
L 121.475356 -108.626637 
L 123.512596 -118.353346 
L 125.549836 -118.794556 
L 127.587076 -105.439746 
L 129.624315 -120.601371 
L 131.661555 -108.453008 
L 133.698795 -124.574708 
L 135.736035 -134.78623 
L 137.773275 -144.167766 
L 139.810515 -131.718786 
L 141.847755 -146.063668 
L 143.884995 -142.450974 
L 145.922234 -143.63897 
L 147.959474 -150.045617 
L 149.996714 -152.110621 
L 152.033954 -141.310894 
L 154.071194 -121.699137 
L 156.108434 -128.142836 
L 158.145674 -112.177662 
L 160.182913 -128.0029 
L 162.220153 -107.905116 
L 164.257393 -103.463754 
L 166.294633 -113.712823 
L 168.331873 -117.850247 
L 170.369113 -125.868257 
L 172.406353 -126.859348 
L 174.443593 -113.152504 
L 176.480832 -149.632247 
L 178.518072 -121.436865 
L 180.555312 -112.383036 
L 182.592552 -121.305928 
L 184.629792 -119.193948 
L 186.667032 -129.464517 
L 188.704272 -122.266384 
L 190.741512 -120.812188 
L 192.778751 -130.760094 
L 194.815991 -120.11037 
L 196.853231 -115.144402 
L 198.890471 -115.505485 
L 200.927711 -92.346688 
L 202.964951 -90.894312 
L 205.002191 -71.710513 
L 207.03943 -94.989323 
L 209.07667 -119.9501 
L 211.11391 -102.164175 
L 213.15115 -112.225081 
L 215.18839 -91.377854 
L 217.22563 -98.461079 
L 219.26287 -116.273619 
L 221.30011 -131.963199 
L 223.337349 -145.683163 
L 225.374589 -133.91609 
L 227.411829 -137.486085 
L 229.449069 -129.615337 
L 231.486309 -122.355862 
L 233.523549 -126.930888 
L 235.560789 -142.998985 
L 237.598028 -140.347032 
L 239.635268 -129.620033 
L 241.672508 -140.831626 
L 243.709748 -136.563115 
L 245.746988 -144.336979 
L 247.784228 -129.126311 
L 249.821468 -134.103631 
L 251.858708 -148.739068 
L 253.895947 -141.075614 
L 255.933187 -144.29208 
L 257.970427 -135.070796 
L 260.007667 -154.548163 
L 262.044907 -141.830459 
L 264.082147 -142.818646 
L 266.119387 -142.195265 
L 268.156627 -140.162568 
L 270.193866 -125.970278 
L 272.231106 -151.601109 
L 274.268346 -146.568128 
L 276.305586 -154.438276 
L 278.342826 -152.840223 
L 280.380066 -149.695258 
L 282.417306 -152.239567 
L 284.454545 -147.791467 
L 286.491785 -150.436523 
L 288.529025 -158.161172 
L 290.566265 -152.208179 
L 292.603505 -152.572187 
L 294.640745 -150.755472 
L 296.677985 -134.811887 
L 298.715225 -129.788904 
L 300.752464 -157.552638 
L 302.789704 -173.433936 
L 304.826944 -129.438228 
L 306.864184 -151.782907 
L 308.901424 -173.412418 
L 310.938664 -136.178581 
L 312.975904 -178.04458 
L 315.013143 -168.582956 
L 317.050383 -173.511413 
L 319.087623 -182.006456 
L 321.124863 -168.3497 
L 323.162103 -175.295925 
L 325.199343 -166.951321 
L 327.236583 -149.996508 
L 329.273823 -174.297911 
L 331.311062 -168.728267 
L 333.348302 -139.726487 
L 335.385542 -154.255322 
L 337.422782 -135.051707 
L 339.460022 -134.178995 
L 341.497262 -138.532851 
L 343.534502 -154.410473 
L 345.571742 -140.338395 
L 347.608981 -155.350943 
L 349.646221 -139.109129 
L 351.683461 -168.644226 
L 353.720701 -167.139384 
L 355.757941 -144.356376 
L 357.795181 -150.91858 
L 359.832421 -167.774723 
L 361.86966 -167.526163 
L 363.9069 -177.816859 
L 365.94414 -171.90603 
L 367.98138 -174.663379 
L 370.01862 -196.275796 
L 372.05586 -157.676153 
L 374.0931 -189.750791 
L 376.13034 -196.183721 
L 378.167579 -199.544206 
L 380.204819 -201.82464 
L 382.242059 -156.737245 
L 384.279299 -181.282893 
L 386.316539 -184.537638 
L 388.353779 -157.544007 
L 390.391019 -192.122325 
L 392.428258 -198.308617 
L 394.465498 -178.66326 
L 396.502738 -195.194802 
L 398.539978 -171.888182 
L 400.577218 -83.04343 
L 402.614458 -192.066165 
L 404.651698 -195.483144 
L 406.688938 -192.080948 
L 408.726177 -182.409059 
L 410.763417 -160.347177 
L 412.800657 -171.541763 
L 414.837897 -185.868604 
L 416.875137 -168.330202 
L 418.912377 -174.228591 
L 420.949617 -162.490235 
L 422.986857 -160.150672 
L 425.024096 -187.544497 
L 427.061336 -170.190126 
L 429.098576 -136.704998 
L 431.135816 -135.629997 
L 433.173056 -160.444065 
L 435.210296 -187.800054 
L 437.247536 -136.072456 
L 439.284775 -153.405898 
L 441.322015 -109.07627 
L 443.359255 -140.417015 
L 445.396495 -130.640155 
L 447.433735 -176.606757 
L 449.470975 -169.094643 
L 451.508215 -138.458567 
L 453.545455 -178.240411 
L 455.582694 -137.591387 
L 457.619934 -128.863918 
L 459.657174 -169.660233 
L 461.694414 -191.924096 
L 463.731654 -185.782876 
L 465.768894 -186.693757 
L 467.806134 -191.122419 
L 469.843373 -188.726699 
L 471.880613 -181.304718 
L 473.917853 -181.640294 
L 475.955093 -195.125788 
L 477.992333 -153.795369 
L 480.029573 -187.331414 
L 482.066813 -193.366774 
L 484.104053 -189.063312 
L 486.141292 -200.958141 
L 488.178532 -203.165229 
L 490.215772 -210.850047 
L 492.253012 -196.520812 
L 494.290252 -195.821341 
L 496.327492 -181.252843 
L 498.364732 -188.254401 
L 500.401972 -175.567263 
L 502.439211 -194.286156 
L 504.476451 -209.210177 
L 506.513691 -180.564352 
L 508.550931 -198.193527 
L 510.588171 -182.111152 
L 512.625411 -198.629936 
L 514.662651 -204.487979 
L 516.69989 -204.547687 
L 518.73713 -205.5704 
L 520.77437 -194.982155 
L 522.81161 -200.243075 
L 524.84885 -204.91697 
L 526.88609 -198.201077 
L 528.92333 -210.400291 
L 530.96057 -203.368253 
L 532.997809 -215.113372 
L 535.035049 -212.067421 
L 537.072289 -222.793341 
L 539.109529 -217.45402 
L 541.146769 -213.742391 
L 543.184009 -217.612038 
L 545.221249 -218.517148 
L 547.258488 -218.976249 
L 549.295728 -217.542777 
L 551.332968 -204.080888 
L 553.370208 -218.030781 
L 555.407448 -210.623581 
L 557.444688 -213.006302 
L 559.481928 -210.157366 
L 561.519168 -213.724531 
L 563.556407 -177.248449 
L 565.593647 -189.545177 
L 567.630887 -201.476644 
L 569.668127 -198.702382 
L 571.705367 -196.786244 
L 573.742607 -202.857387 
L 575.779847 -209.833554 
L 577.817087 -214.839782 
L 579.854326 -210.399064 
L 581.891566 -211.381143 
L 583.928806 -211.810548 
L 585.966046 -195.990851 
L 588.003286 -204.063255 
L 590.040526 -212.965424 
L 592.077766 -198.062312 
L 594.115005 -197.852083 
L 596.152245 -189.696186 
L 598.189485 -196.560069 
L 600.226725 -162.671565 
L 602.263965 -168.100126 
L 604.301205 -173.709377 
L 606.338445 -170.70491 
L 608.375685 -191.248965 
L 610.412924 -193.766195 
L 612.450164 -191.09947 
L 614.487404 -192.257609 
L 616.524644 -198.502745 
L 618.561884 -202.167595 
L 620.599124 -207.003266 
L 622.636364 -195.782822 
L 622.636364 -222.878892 
L 622.636364 -222.878892 
L 620.599124 -227.836819 
L 618.561884 -228.114584 
L 616.524644 -226.86174 
L 614.487404 -231.087467 
L 612.450164 -230.427054 
L 610.412924 -234.168959 
L 608.375685 -228.444861 
L 606.338445 -228.20345 
L 604.301205 -232.678884 
L 602.263965 -234.829483 
L 600.226725 -238.893216 
L 598.189485 -233.850238 
L 596.152245 -239.484874 
L 594.115005 -227.732366 
L 592.077766 -236.361886 
L 590.040526 -238.153358 
L 588.003286 -240.536779 
L 585.966046 -235.479568 
L 583.928806 -234.982859 
L 581.891566 -231.186796 
L 579.854326 -235.367518 
L 577.817087 -229.875996 
L 575.779847 -232.562488 
L 573.742607 -237.695057 
L 571.705367 -233.064772 
L 569.668127 -230.706592 
L 567.630887 -236.876063 
L 565.593647 -229.884726 
L 563.556407 -225.171007 
L 561.519168 -234.229725 
L 559.481928 -237.003451 
L 557.444688 -233.999347 
L 555.407448 -236.863308 
L 553.370208 -238.597042 
L 551.332968 -227.58313 
L 549.295728 -236.608031 
L 547.258488 -236.70388 
L 545.221249 -243.841943 
L 543.184009 -237.674577 
L 541.146769 -240.566336 
L 539.109529 -251.760786 
L 537.072289 -267.832802 
L 535.035049 -235.113141 
L 532.997809 -233.936255 
L 530.96057 -232.156691 
L 528.92333 -232.565531 
L 526.88609 -221.948766 
L 524.84885 -233.382668 
L 522.81161 -226.271849 
L 520.77437 -221.028301 
L 518.73713 -231.362005 
L 516.69989 -233.202796 
L 514.662651 -225.888424 
L 512.625411 -226.966866 
L 510.588171 -225.204115 
L 508.550931 -223.830837 
L 506.513691 -227.760895 
L 504.476451 -240.929091 
L 502.439211 -226.263634 
L 500.401972 -225.043739 
L 498.364732 -228.242232 
L 496.327492 -217.036562 
L 494.290252 -222.733102 
L 492.253012 -233.540214 
L 490.215772 -233.899722 
L 488.178532 -236.059 
L 486.141292 -229.635577 
L 484.104053 -226.09301 
L 482.066813 -224.524574 
L 480.029573 -230.267307 
L 477.992333 -232.638024 
L 475.955093 -224.155045 
L 473.917853 -237.068503 
L 471.880613 -221.847711 
L 469.843373 -223.219562 
L 467.806134 -228.195446 
L 465.768894 -226.207249 
L 463.731654 -228.379885 
L 461.694414 -221.654043 
L 459.657174 -233.62001 
L 457.619934 -208.665507 
L 455.582694 -220.390959 
L 453.545455 -216.40327 
L 451.508215 -210.766659 
L 449.470975 -229.236653 
L 447.433735 -230.677068 
L 445.396495 -212.426961 
L 443.359255 -226.689157 
L 441.322015 -240.174435 
L 439.284775 -223.215628 
L 437.247536 -229.882595 
L 435.210296 -220.937965 
L 433.173056 -229.176775 
L 431.135816 -214.389647 
L 429.098576 -226.828224 
L 427.061336 -230.295895 
L 425.024096 -233.498984 
L 422.986857 -228.930856 
L 420.949617 -226.866101 
L 418.912377 -222.417448 
L 416.875137 -215.430863 
L 414.837897 -225.867902 
L 412.800657 -225.972501 
L 410.763417 -230.182686 
L 408.726177 -237.628911 
L 406.688938 -242.578872 
L 404.651698 -235.053163 
L 402.614458 -230.143911 
L 400.577218 -210.294712 
L 398.539978 -226.386021 
L 396.502738 -233.327448 
L 394.465498 -220.17405 
L 392.428258 -226.098223 
L 390.391019 -229.159637 
L 388.353779 -228.899311 
L 386.316539 -226.734725 
L 384.279299 -230.204377 
L 382.242059 -227.633207 
L 380.204819 -231.013202 
L 378.167579 -232.114938 
L 376.13034 -234.863198 
L 374.0931 -230.020435 
L 372.05586 -218.653473 
L 370.01862 -225.598709 
L 367.98138 -219.2488 
L 365.94414 -216.103698 
L 363.9069 -216.06495 
L 361.86966 -212.863034 
L 359.832421 -206.731426 
L 357.795181 -213.161238 
L 355.757941 -194.873444 
L 353.720701 -220.099456 
L 351.683461 -212.030156 
L 349.646221 -217.916028 
L 347.608981 -224.277816 
L 345.571742 -206.891545 
L 343.534502 -220.61877 
L 341.497262 -227.842389 
L 339.460022 -223.450489 
L 337.422782 -221.5711 
L 335.385542 -213.635217 
L 333.348302 -208.429661 
L 331.311062 -213.13935 
L 329.273823 -223.654268 
L 327.236583 -217.891297 
L 325.199343 -215.902779 
L 323.162103 -221.47917 
L 321.124863 -209.413667 
L 319.087623 -223.421188 
L 317.050383 -211.399758 
L 315.013143 -200.717189 
L 312.975904 -219.539556 
L 310.938664 -221.092858 
L 308.901424 -229.983396 
L 306.864184 -222.500152 
L 304.826944 -216.1022 
L 302.789704 -212.091948 
L 300.752464 -203.669966 
L 298.715225 -190.872293 
L 296.677985 -188.681086 
L 294.640745 -188.636394 
L 292.603505 -190.548567 
L 290.566265 -189.879697 
L 288.529025 -182.401191 
L 286.491785 -194.911887 
L 284.454545 -191.363792 
L 282.417306 -201.839944 
L 280.380066 -198.828431 
L 278.342826 -190.905433 
L 276.305586 -215.777301 
L 274.268346 -203.699369 
L 272.231106 -208.600134 
L 270.193866 -172.796568 
L 268.156627 -205.586328 
L 266.119387 -209.390504 
L 264.082147 -206.842177 
L 262.044907 -200.220749 
L 260.007667 -211.833819 
L 257.970427 -189.906035 
L 255.933187 -184.767781 
L 253.895947 -203.143025 
L 251.858708 -195.284646 
L 249.821468 -187.179745 
L 247.784228 -178.737935 
L 245.746988 -178.846189 
L 243.709748 -188.076565 
L 241.672508 -223.228713 
L 239.635268 -198.793722 
L 237.598028 -214.655557 
L 235.560789 -192.47184 
L 233.523549 -164.540128 
L 231.486309 -169.610386 
L 229.449069 -172.409234 
L 227.411829 -182.432227 
L 225.374589 -184.092814 
L 223.337349 -200.064741 
L 221.30011 -201.997154 
L 219.26287 -193.196766 
L 217.22563 -185.611739 
L 215.18839 -174.055809 
L 213.15115 -177.338225 
L 211.11391 -164.349701 
L 209.07667 -189.644369 
L 207.03943 -184.977925 
L 205.002191 -166.819399 
L 202.964951 -175.568534 
L 200.927711 -196.857352 
L 198.890471 -208.037889 
L 196.853231 -201.761583 
L 194.815991 -184.98059 
L 192.778751 -198.391679 
L 190.741512 -198.2199 
L 188.704272 -195.674814 
L 186.667032 -192.220108 
L 184.629792 -184.635863 
L 182.592552 -174.38539 
L 180.555312 -180.254861 
L 178.518072 -192.405826 
L 176.480832 -211.044572 
L 174.443593 -169.174586 
L 172.406353 -187.532551 
L 170.369113 -184.680922 
L 168.331873 -186.896016 
L 166.294633 -183.076945 
L 164.257393 -159.87787 
L 162.220153 -171.882085 
L 160.182913 -171.230162 
L 158.145674 -167.524056 
L 156.108434 -203.038314 
L 154.071194 -195.696376 
L 152.033954 -195.439939 
L 149.996714 -204.931799 
L 147.959474 -189.702879 
L 145.922234 -193.030737 
L 143.884995 -185.961912 
L 141.847755 -170.788248 
L 139.810515 -176.708036 
L 137.773275 -199.107836 
L 135.736035 -170.828571 
L 133.698795 -184.792394 
L 131.661555 -166.41519 
L 129.624315 -177.182609 
L 127.587076 -171.175527 
L 125.549836 -174.362864 
L 123.512596 -144.133347 
L 121.475356 -155.374634 
L 119.438116 -165.918541 
L 117.400876 -179.67009 
L 115.363636 -188.424353 
z
" style="stroke: #d00000; stroke-opacity: 0.2"/>
    </defs>
    <g clip-path="url(#p2fd68434df)">
     <use xlink:href="#m55d2178335" x="0" y="432" style="fill: #d00000; fill-opacity: 0.2; stroke: #d00000; stroke-opacity: 0.2"/>
    </g>
   </g>
   <g id="FillBetweenPolyCollection_2">
    <defs>
     <path id="m9d604e75e0" d="M 115.363636 -124.966102 
L 115.363636 -62.64 
L 117.400876 -146.715746 
L 119.438116 -99.594217 
L 121.475356 -110.111701 
L 123.512596 -132.030539 
L 125.549836 -145.875884 
L 127.587076 -152.251164 
L 129.624315 -180.505974 
L 131.661555 -201.634778 
L 133.698795 -180.593911 
L 135.736035 -195.347657 
L 137.773275 -203.249824 
L 139.810515 -210.484872 
L 141.847755 -210.553818 
L 143.884995 -208.765787 
L 145.922234 -203.146752 
L 147.959474 -195.608849 
L 149.996714 -194.382311 
L 152.033954 -210.822225 
L 154.071194 -208.756784 
L 156.108434 -208.102581 
L 158.145674 -216.943073 
L 160.182913 -210.917795 
L 162.220153 -204.963452 
L 164.257393 -185.53707 
L 166.294633 -198.276191 
L 168.331873 -199.177366 
L 170.369113 -188.011135 
L 172.406353 -214.663162 
L 174.443593 -211.133063 
L 176.480832 -192.307005 
L 178.518072 -216.546181 
L 180.555312 -214.510853 
L 182.592552 -209.382886 
L 184.629792 -213.882889 
L 186.667032 -210.496266 
L 188.704272 -207.411449 
L 190.741512 -209.763804 
L 192.778751 -224.262597 
L 194.815991 -217.003602 
L 196.853231 -203.844654 
L 198.890471 -215.850602 
L 200.927711 -198.948239 
L 202.964951 -213.400914 
L 205.002191 -216.200285 
L 207.03943 -218.643315 
L 209.07667 -214.255285 
L 211.11391 -214.477148 
L 213.15115 -218.865629 
L 215.18839 -202.586625 
L 217.22563 -221.155236 
L 219.26287 -215.625126 
L 221.30011 -220.85867 
L 223.337349 -219.002627 
L 225.374589 -213.429511 
L 227.411829 -215.840715 
L 229.449069 -208.841564 
L 231.486309 -220.814879 
L 233.523549 -226.220905 
L 235.560789 -220.724337 
L 237.598028 -219.939825 
L 239.635268 -225.808825 
L 241.672508 -229.851712 
L 243.709748 -231.524835 
L 245.746988 -231.784367 
L 247.784228 -227.875951 
L 249.821468 -227.499879 
L 251.858708 -224.180335 
L 253.895947 -224.960367 
L 255.933187 -228.120998 
L 257.970427 -225.885478 
L 260.007667 -228.096512 
L 262.044907 -227.289387 
L 264.082147 -222.726399 
L 266.119387 -222.224271 
L 268.156627 -223.345591 
L 270.193866 -226.396996 
L 272.231106 -227.980785 
L 274.268346 -220.285029 
L 276.305586 -222.117114 
L 278.342826 -219.850857 
L 280.380066 -215.713874 
L 282.417306 -226.496171 
L 284.454545 -222.583774 
L 286.491785 -230.040404 
L 288.529025 -227.785282 
L 290.566265 -227.127522 
L 292.603505 -227.081833 
L 294.640745 -223.196241 
L 296.677985 -226.088698 
L 298.715225 -231.089267 
L 300.752464 -229.735098 
L 302.789704 -227.922925 
L 304.826944 -219.77661 
L 306.864184 -225.742005 
L 308.901424 -223.292839 
L 310.938664 -225.316013 
L 312.975904 -224.035562 
L 315.013143 -225.665918 
L 317.050383 -228.446771 
L 319.087623 -232.014564 
L 321.124863 -226.730353 
L 323.162103 -222.096952 
L 325.199343 -221.159014 
L 327.236583 -227.217096 
L 329.273823 -222.571467 
L 331.311062 -224.492305 
L 333.348302 -231.03108 
L 335.385542 -225.963302 
L 337.422782 -224.617753 
L 339.460022 -226.7557 
L 341.497262 -230.257393 
L 343.534502 -228.657717 
L 345.571742 -234.621623 
L 347.608981 -235.772025 
L 349.646221 -237.386515 
L 351.683461 -228.886813 
L 353.720701 -232.299357 
L 355.757941 -228.80827 
L 357.795181 -237.202669 
L 359.832421 -234.390474 
L 361.86966 -232.314814 
L 363.9069 -236.363384 
L 365.94414 -235.274995 
L 367.98138 -232.816829 
L 370.01862 -226.490118 
L 372.05586 -232.684251 
L 374.0931 -229.666132 
L 376.13034 -235.985856 
L 378.167579 -230.802338 
L 380.204819 -231.493936 
L 382.242059 -232.662925 
L 384.279299 -230.131583 
L 386.316539 -237.813959 
L 388.353779 -232.850734 
L 390.391019 -235.667156 
L 392.428258 -229.59938 
L 394.465498 -236.833281 
L 396.502738 -239.203718 
L 398.539978 -236.347147 
L 400.577218 -238.983544 
L 402.614458 -236.186363 
L 404.651698 -238.688344 
L 406.688938 -236.272713 
L 408.726177 -237.287825 
L 410.763417 -238.691285 
L 412.800657 -241.408466 
L 414.837897 -244.73678 
L 416.875137 -241.299418 
L 418.912377 -240.68081 
L 420.949617 -232.139058 
L 422.986857 -235.885017 
L 425.024096 -235.47054 
L 427.061336 -233.919331 
L 429.098576 -238.765925 
L 431.135816 -238.556579 
L 433.173056 -239.105534 
L 435.210296 -233.730103 
L 437.247536 -234.211904 
L 439.284775 -235.621316 
L 441.322015 -235.793915 
L 443.359255 -240.801736 
L 445.396495 -236.662667 
L 447.433735 -237.272687 
L 449.470975 -241.446057 
L 451.508215 -238.743177 
L 453.545455 -235.667751 
L 455.582694 -233.757559 
L 457.619934 -232.600161 
L 459.657174 -238.898702 
L 461.694414 -237.594216 
L 463.731654 -234.016382 
L 465.768894 -243.790858 
L 467.806134 -236.72997 
L 469.843373 -232.703971 
L 471.880613 -236.135459 
L 473.917853 -234.438141 
L 475.955093 -235.11572 
L 477.992333 -233.17209 
L 480.029573 -243.085292 
L 482.066813 -242.769123 
L 484.104053 -241.283862 
L 486.141292 -241.277836 
L 488.178532 -236.87401 
L 490.215772 -237.602808 
L 492.253012 -237.129487 
L 494.290252 -244.76487 
L 496.327492 -238.51166 
L 498.364732 -246.423987 
L 500.401972 -238.762414 
L 502.439211 -240.949365 
L 504.476451 -242.320003 
L 506.513691 -238.099061 
L 508.550931 -242.166039 
L 510.588171 -238.06585 
L 512.625411 -235.352298 
L 514.662651 -241.069486 
L 516.69989 -243.047171 
L 518.73713 -238.984875 
L 520.77437 -239.830688 
L 522.81161 -243.2042 
L 524.84885 -237.317275 
L 526.88609 -240.978883 
L 528.92333 -233.717471 
L 530.96057 -241.425577 
L 532.997809 -238.94663 
L 535.035049 -239.013683 
L 537.072289 -235.814466 
L 539.109529 -236.549867 
L 541.146769 -235.262642 
L 543.184009 -239.383391 
L 545.221249 -238.78869 
L 547.258488 -238.312539 
L 549.295728 -243.248542 
L 551.332968 -236.339176 
L 553.370208 -240.75664 
L 555.407448 -245.311788 
L 557.444688 -236.139393 
L 559.481928 -236.295906 
L 561.519168 -241.362101 
L 563.556407 -241.386155 
L 565.593647 -232.471396 
L 567.630887 -240.379363 
L 569.668127 -239.233598 
L 571.705367 -233.117038 
L 573.742607 -244.792148 
L 575.779847 -238.419338 
L 577.817087 -240.219643 
L 579.854326 -235.74262 
L 581.891566 -236.830695 
L 583.928806 -238.594897 
L 585.966046 -237.667526 
L 588.003286 -240.179538 
L 590.040526 -244.655532 
L 592.077766 -242.809582 
L 594.115005 -241.385681 
L 596.152245 -234.046409 
L 598.189485 -233.37913 
L 600.226725 -236.890767 
L 602.263965 -236.843346 
L 604.301205 -240.472196 
L 606.338445 -239.51519 
L 608.375685 -243.127055 
L 610.412924 -243.402631 
L 612.450164 -244.450794 
L 614.487404 -236.554339 
L 616.524644 -235.855874 
L 618.561884 -231.281974 
L 620.599124 -236.095521 
L 622.636364 -238.428719 
L 622.636364 -350.052188 
L 622.636364 -350.052188 
L 620.599124 -353.55254 
L 618.561884 -357.35934 
L 616.524644 -353.98088 
L 614.487404 -350.919623 
L 612.450164 -351.639949 
L 610.412924 -349.645563 
L 608.375685 -348.957656 
L 606.338445 -355.219129 
L 604.301205 -355.702093 
L 602.263965 -351.66809 
L 600.226725 -350.275479 
L 598.189485 -348.288478 
L 596.152245 -348.160562 
L 594.115005 -351.49692 
L 592.077766 -353.128827 
L 590.040526 -351.860874 
L 588.003286 -352.18736 
L 585.966046 -347.408281 
L 583.928806 -349.196837 
L 581.891566 -351.552304 
L 579.854326 -353.178554 
L 577.817087 -348.604057 
L 575.779847 -352.029363 
L 573.742607 -352.910874 
L 571.705367 -351.969029 
L 569.668127 -353.956068 
L 567.630887 -352.643191 
L 565.593647 -350.880183 
L 563.556407 -355.956331 
L 561.519168 -350.6862 
L 559.481928 -353.460842 
L 557.444688 -352.029544 
L 555.407448 -352.794264 
L 553.370208 -352.683777 
L 551.332968 -349.762775 
L 549.295728 -353.307242 
L 547.258488 -356.783768 
L 545.221249 -354.215042 
L 543.184009 -352.745474 
L 541.146769 -356.874428 
L 539.109529 -346.603653 
L 537.072289 -354.065667 
L 535.035049 -350.044814 
L 532.997809 -350.925949 
L 530.96057 -347.635728 
L 528.92333 -349.218899 
L 526.88609 -344.549282 
L 524.84885 -349.725117 
L 522.81161 -352.409549 
L 520.77437 -350.944286 
L 518.73713 -348.459646 
L 516.69989 -352.276455 
L 514.662651 -352.526006 
L 512.625411 -340.285742 
L 510.588171 -350.512648 
L 508.550931 -349.025576 
L 506.513691 -351.757832 
L 504.476451 -354.68595 
L 502.439211 -351.690737 
L 500.401972 -350.270566 
L 498.364732 -355.36602 
L 496.327492 -346.914421 
L 494.290252 -350.786825 
L 492.253012 -346.859826 
L 490.215772 -345.834347 
L 488.178532 -347.858285 
L 486.141292 -349.283607 
L 484.104053 -351.825857 
L 482.066813 -348.949974 
L 480.029573 -341.498877 
L 477.992333 -340.001037 
L 475.955093 -348.002744 
L 473.917853 -346.034767 
L 471.880613 -351.074637 
L 469.843373 -333.172596 
L 467.806134 -346.329932 
L 465.768894 -346.602582 
L 463.731654 -346.254945 
L 461.694414 -341.6183 
L 459.657174 -342.398136 
L 457.619934 -329.966882 
L 455.582694 -328.430507 
L 453.545455 -333.783794 
L 451.508215 -343.266984 
L 449.470975 -340.753966 
L 447.433735 -331.782317 
L 445.396495 -343.60082 
L 443.359255 -336.666968 
L 441.322015 -333.937755 
L 439.284775 -340.487775 
L 437.247536 -344.98024 
L 435.210296 -329.55475 
L 433.173056 -330.146638 
L 431.135816 -338.629315 
L 429.098576 -339.315239 
L 427.061336 -339.754421 
L 425.024096 -324.551599 
L 422.986857 -338.47619 
L 420.949617 -335.479338 
L 418.912377 -332.380804 
L 416.875137 -335.257587 
L 414.837897 -339.654561 
L 412.800657 -321.496036 
L 410.763417 -336.364307 
L 408.726177 -337.227877 
L 406.688938 -340.946895 
L 404.651698 -341.071502 
L 402.614458 -337.066154 
L 400.577218 -341.157828 
L 398.539978 -338.66204 
L 396.502738 -334.62674 
L 394.465498 -343.938601 
L 392.428258 -339.883243 
L 390.391019 -336.125361 
L 388.353779 -329.968008 
L 386.316539 -343.92617 
L 384.279299 -344.047305 
L 382.242059 -336.710247 
L 380.204819 -332.035413 
L 378.167579 -329.76577 
L 376.13034 -344.862836 
L 374.0931 -316.226935 
L 372.05586 -340.281415 
L 370.01862 -332.677405 
L 367.98138 -329.533783 
L 365.94414 -335.064749 
L 363.9069 -329.544079 
L 361.86966 -338.58941 
L 359.832421 -337.356449 
L 357.795181 -348.410202 
L 355.757941 -337.864394 
L 353.720701 -332.854961 
L 351.683461 -323.803183 
L 349.646221 -333.418603 
L 347.608981 -339.812085 
L 345.571742 -327.89835 
L 343.534502 -338.042557 
L 341.497262 -313.392608 
L 339.460022 -320.016767 
L 337.422782 -258.35265 
L 335.385542 -299.454276 
L 333.348302 -271.618079 
L 331.311062 -329.683397 
L 329.273823 -286.973342 
L 327.236583 -330.306171 
L 325.199343 -307.313129 
L 323.162103 -243.125867 
L 321.124863 -303.284451 
L 319.087623 -320.089123 
L 317.050383 -275.71925 
L 315.013143 -301.398167 
L 312.975904 -326.272264 
L 310.938664 -259.040666 
L 308.901424 -243.982651 
L 306.864184 -275.926377 
L 304.826944 -250.987522 
L 302.789704 -323.221327 
L 300.752464 -325.798912 
L 298.715225 -321.864031 
L 296.677985 -314.728007 
L 294.640745 -313.608116 
L 292.603505 -311.185296 
L 290.566265 -314.854769 
L 288.529025 -314.848449 
L 286.491785 -328.26562 
L 284.454545 -314.725678 
L 282.417306 -307.784504 
L 280.380066 -256.773266 
L 278.342826 -325.399322 
L 276.305586 -249.399341 
L 274.268346 -242.199069 
L 272.231106 -282.383402 
L 270.193866 -300.588543 
L 268.156627 -248.118297 
L 266.119387 -262.196036 
L 264.082147 -251.834399 
L 262.044907 -313.903404 
L 260.007667 -290.261261 
L 257.970427 -318.774369 
L 255.933187 -257.723311 
L 253.895947 -248.398322 
L 251.858708 -241.995232 
L 249.821468 -253.146535 
L 247.784228 -322.610124 
L 245.746988 -333.275014 
L 243.709748 -321.649252 
L 241.672508 -313.319938 
L 239.635268 -299.13125 
L 237.598028 -321.900818 
L 235.560789 -255.05071 
L 233.523549 -314.092877 
L 231.486309 -239.998311 
L 229.449069 -234.147345 
L 227.411829 -238.337388 
L 225.374589 -237.192665 
L 223.337349 -235.700392 
L 221.30011 -241.565519 
L 219.26287 -237.348301 
L 217.22563 -241.319878 
L 215.18839 -238.097283 
L 213.15115 -239.082275 
L 211.11391 -235.805038 
L 209.07667 -242.655024 
L 207.03943 -237.304116 
L 205.002191 -238.019785 
L 202.964951 -236.539635 
L 200.927711 -231.863554 
L 198.890471 -236.771447 
L 196.853231 -234.701592 
L 194.815991 -239.589469 
L 192.778751 -241.488442 
L 190.741512 -233.778188 
L 188.704272 -240.866433 
L 186.667032 -239.848319 
L 184.629792 -241.763879 
L 182.592552 -244.620882 
L 180.555312 -242.212456 
L 178.518072 -240.110516 
L 176.480832 -234.61909 
L 174.443593 -241.583429 
L 172.406353 -233.102237 
L 170.369113 -238.669207 
L 168.331873 -229.777751 
L 166.294633 -231.148808 
L 164.257393 -225.003728 
L 162.220153 -225.517082 
L 160.182913 -232.629952 
L 158.145674 -232.325779 
L 156.108434 -232.435011 
L 154.071194 -237.145572 
L 152.033954 -238.443977 
L 149.996714 -229.755696 
L 147.959474 -223.660434 
L 145.922234 -230.454472 
L 143.884995 -231.142812 
L 141.847755 -235.953969 
L 139.810515 -234.116115 
L 137.773275 -229.955181 
L 135.736035 -234.644988 
L 133.698795 -223.094174 
L 131.661555 -226.143471 
L 129.624315 -233.880668 
L 127.587076 -192.606072 
L 125.549836 -207.229705 
L 123.512596 -173.030316 
L 121.475356 -167.858096 
L 119.438116 -184.22067 
L 117.400876 -189.451856 
L 115.363636 -124.966102 
z
" style="stroke: #38b000; stroke-opacity: 0.2"/>
    </defs>
    <g clip-path="url(#p2fd68434df)">
     <use xlink:href="#m9d604e75e0" x="0" y="432" style="fill: #38b000; fill-opacity: 0.2; stroke: #38b000; stroke-opacity: 0.2"/>
    </g>
   </g>
   <g id="FillBetweenPolyCollection_3">
    <defs>
     <path id="m20483e0d75" d="M 115.363636 -129.826389 
L 115.363636 -78.668057 
L 117.400876 -109.536937 
L 119.438116 -135.593759 
L 121.475356 -148.697291 
L 123.512596 -182.114958 
L 125.549836 -163.284929 
L 127.587076 -206.169436 
L 129.624315 -179.281684 
L 131.661555 -173.629342 
L 133.698795 -176.665667 
L 135.736035 -190.280261 
L 137.773275 -173.471237 
L 139.810515 -209.37938 
L 141.847755 -202.280722 
L 143.884995 -228.19536 
L 145.922234 -228.627827 
L 147.959474 -223.303295 
L 149.996714 -223.172851 
L 152.033954 -224.274208 
L 154.071194 -243.683983 
L 156.108434 -235.532298 
L 158.145674 -244.014818 
L 160.182913 -327.105305 
L 162.220153 -324.863572 
L 164.257393 -318.943339 
L 166.294633 -322.619217 
L 168.331873 -316.982586 
L 170.369113 -317.696226 
L 172.406353 -316.016105 
L 174.443593 -323.430747 
L 176.480832 -323.207842 
L 178.518072 -250.514169 
L 180.555312 -309.386247 
L 182.592552 -277.238344 
L 184.629792 -312.91411 
L 186.667032 -247.221355 
L 188.704272 -255.86103 
L 190.741512 -313.600869 
L 192.778751 -249.412454 
L 194.815991 -321.252166 
L 196.853231 -327.467488 
L 198.890471 -322.184346 
L 200.927711 -322.137297 
L 202.964951 -322.531569 
L 205.002191 -340.595472 
L 207.03943 -339.781723 
L 209.07667 -334.57181 
L 211.11391 -336.721018 
L 213.15115 -333.29689 
L 215.18839 -337.275515 
L 217.22563 -332.505147 
L 219.26287 -339.025507 
L 221.30011 -336.017375 
L 223.337349 -344.639169 
L 225.374589 -337.459093 
L 227.411829 -339.09878 
L 229.449069 -339.064265 
L 231.486309 -335.836848 
L 233.523549 -332.915887 
L 235.560789 -334.300347 
L 237.598028 -338.03919 
L 239.635268 -336.325074 
L 241.672508 -336.006894 
L 243.709748 -340.11193 
L 245.746988 -341.008674 
L 247.784228 -344.677721 
L 249.821468 -348.433764 
L 251.858708 -340.347944 
L 253.895947 -340.39792 
L 255.933187 -345.462541 
L 257.970427 -338.843715 
L 260.007667 -345.388626 
L 262.044907 -340.584521 
L 264.082147 -342.052559 
L 266.119387 -343.523272 
L 268.156627 -345.550781 
L 270.193866 -341.780909 
L 272.231106 -342.587173 
L 274.268346 -342.838855 
L 276.305586 -339.730168 
L 278.342826 -341.343627 
L 280.380066 -340.012852 
L 282.417306 -343.390684 
L 284.454545 -341.858425 
L 286.491785 -337.831385 
L 288.529025 -338.835984 
L 290.566265 -339.98822 
L 292.603505 -342.625374 
L 294.640745 -341.144108 
L 296.677985 -344.410559 
L 298.715225 -343.836322 
L 300.752464 -342.959519 
L 302.789704 -343.065455 
L 304.826944 -342.704114 
L 306.864184 -343.389995 
L 308.901424 -345.225446 
L 310.938664 -346.669159 
L 312.975904 -340.796568 
L 315.013143 -345.801477 
L 317.050383 -342.35024 
L 319.087623 -344.547582 
L 321.124863 -344.547457 
L 323.162103 -343.690127 
L 325.199343 -346.146482 
L 327.236583 -341.275324 
L 329.273823 -344.536772 
L 331.311062 -346.529074 
L 333.348302 -346.929031 
L 335.385542 -346.748035 
L 337.422782 -343.894998 
L 339.460022 -339.113165 
L 341.497262 -348.472803 
L 343.534502 -342.516068 
L 345.571742 -345.908728 
L 347.608981 -340.014688 
L 349.646221 -345.6561 
L 351.683461 -341.974643 
L 353.720701 -344.74266 
L 355.757941 -342.725339 
L 357.795181 -349.112857 
L 359.832421 -342.578921 
L 361.86966 -347.142023 
L 363.9069 -343.487896 
L 365.94414 -345.496829 
L 367.98138 -347.0672 
L 370.01862 -345.482168 
L 372.05586 -343.538034 
L 374.0931 -344.478821 
L 376.13034 -345.178137 
L 378.167579 -346.292309 
L 380.204819 -348.424547 
L 382.242059 -347.61768 
L 384.279299 -346.228797 
L 386.316539 -345.453205 
L 388.353779 -344.17878 
L 390.391019 -343.039464 
L 392.428258 -343.5154 
L 394.465498 -348.592914 
L 396.502738 -349.359637 
L 398.539978 -348.56866 
L 400.577218 -346.771968 
L 402.614458 -342.416008 
L 404.651698 -347.259084 
L 406.688938 -347.554986 
L 408.726177 -351.76587 
L 410.763417 -347.578163 
L 412.800657 -344.407017 
L 414.837897 -343.574872 
L 416.875137 -346.054841 
L 418.912377 -347.061118 
L 420.949617 -347.915726 
L 422.986857 -349.791585 
L 425.024096 -346.22127 
L 427.061336 -347.929217 
L 429.098576 -349.57246 
L 431.135816 -348.096462 
L 433.173056 -351.434881 
L 435.210296 -347.640288 
L 437.247536 -349.262127 
L 439.284775 -349.831454 
L 441.322015 -348.775349 
L 443.359255 -348.656804 
L 445.396495 -349.007656 
L 447.433735 -350.274603 
L 449.470975 -350.319204 
L 451.508215 -348.092151 
L 453.545455 -349.05806 
L 455.582694 -349.443682 
L 457.619934 -349.438848 
L 459.657174 -343.581238 
L 461.694414 -346.720791 
L 463.731654 -349.840764 
L 465.768894 -349.398121 
L 467.806134 -350.366205 
L 469.843373 -347.437359 
L 471.880613 -348.572091 
L 473.917853 -349.669947 
L 475.955093 -349.838871 
L 477.992333 -348.575436 
L 480.029573 -347.745297 
L 482.066813 -352.234142 
L 484.104053 -349.785323 
L 486.141292 -346.100292 
L 488.178532 -349.21849 
L 490.215772 -346.702089 
L 492.253012 -345.39111 
L 494.290252 -349.764447 
L 496.327492 -346.918798 
L 498.364732 -351.40345 
L 500.401972 -348.231495 
L 502.439211 -348.732217 
L 504.476451 -349.214394 
L 506.513691 -348.093484 
L 508.550931 -350.430687 
L 510.588171 -348.898388 
L 512.625411 -349.188129 
L 514.662651 -348.232491 
L 516.69989 -349.755186 
L 518.73713 -349.496072 
L 520.77437 -350.186666 
L 522.81161 -350.541024 
L 524.84885 -348.722504 
L 526.88609 -351.06054 
L 528.92333 -349.765531 
L 530.96057 -347.734807 
L 532.997809 -349.125009 
L 535.035049 -350.161186 
L 537.072289 -351.307019 
L 539.109529 -346.291455 
L 541.146769 -348.357338 
L 543.184009 -348.529159 
L 545.221249 -348.361474 
L 547.258488 -348.682375 
L 549.295728 -348.350929 
L 551.332968 -349.046714 
L 553.370208 -347.900237 
L 555.407448 -344.032066 
L 557.444688 -348.056458 
L 559.481928 -349.120367 
L 561.519168 -349.931329 
L 563.556407 -349.096396 
L 565.593647 -346.409511 
L 567.630887 -348.905734 
L 569.668127 -348.615592 
L 571.705367 -349.783978 
L 573.742607 -348.248512 
L 575.779847 -347.612724 
L 577.817087 -351.791998 
L 579.854326 -347.180509 
L 581.891566 -348.461708 
L 583.928806 -346.352254 
L 585.966046 -350.197138 
L 588.003286 -349.508634 
L 590.040526 -348.778753 
L 592.077766 -351.008625 
L 594.115005 -349.829342 
L 596.152245 -350.032261 
L 598.189485 -348.41948 
L 600.226725 -345.923413 
L 602.263965 -346.288637 
L 604.301205 -346.43294 
L 606.338445 -349.748878 
L 608.375685 -346.171272 
L 610.412924 -349.636365 
L 612.450164 -348.446181 
L 614.487404 -350.901219 
L 616.524644 -350.075115 
L 618.561884 -350.721302 
L 620.599124 -349.502216 
L 622.636364 -347.165597 
L 622.636364 -362.05661 
L 622.636364 -362.05661 
L 620.599124 -361.800891 
L 618.561884 -360.909125 
L 616.524644 -359.254162 
L 614.487404 -360.62952 
L 612.450164 -360.723508 
L 610.412924 -359.326489 
L 608.375685 -359.345574 
L 606.338445 -360.816277 
L 604.301205 -358.322898 
L 602.263965 -358.788094 
L 600.226725 -361.445282 
L 598.189485 -357.242076 
L 596.152245 -362.464344 
L 594.115005 -361.164728 
L 592.077766 -361.69731 
L 590.040526 -365.04 
L 588.003286 -360.043195 
L 585.966046 -361.941773 
L 583.928806 -360.935767 
L 581.891566 -360.246347 
L 579.854326 -360.211848 
L 577.817087 -360.864949 
L 575.779847 -360.34678 
L 573.742607 -361.19142 
L 571.705367 -358.204194 
L 569.668127 -364.846568 
L 567.630887 -363.366728 
L 565.593647 -360.771297 
L 563.556407 -360.147809 
L 561.519168 -363.949826 
L 559.481928 -360.116044 
L 557.444688 -362.678446 
L 555.407448 -361.262685 
L 553.370208 -358.485133 
L 551.332968 -360.699428 
L 549.295728 -362.912995 
L 547.258488 -361.106573 
L 545.221249 -360.856326 
L 543.184009 -360.26759 
L 541.146769 -360.220817 
L 539.109529 -360.018894 
L 537.072289 -363.065889 
L 535.035049 -364.228095 
L 532.997809 -362.713336 
L 530.96057 -359.385438 
L 528.92333 -360.709364 
L 526.88609 -364.855899 
L 524.84885 -361.972123 
L 522.81161 -363.802172 
L 520.77437 -362.994265 
L 518.73713 -362.343742 
L 516.69989 -361.730069 
L 514.662651 -359.590198 
L 512.625411 -359.734259 
L 510.588171 -360.028464 
L 508.550931 -360.714348 
L 506.513691 -360.153199 
L 504.476451 -363.56392 
L 502.439211 -362.622384 
L 500.401972 -361.202976 
L 498.364732 -361.576436 
L 496.327492 -360.567774 
L 494.290252 -360.634054 
L 492.253012 -363.087895 
L 490.215772 -359.225341 
L 488.178532 -360.024354 
L 486.141292 -360.056454 
L 484.104053 -362.731448 
L 482.066813 -361.886852 
L 480.029573 -358.849955 
L 477.992333 -358.381921 
L 475.955093 -361.36981 
L 473.917853 -362.981513 
L 471.880613 -360.504327 
L 469.843373 -360.51659 
L 467.806134 -360.081803 
L 465.768894 -362.228112 
L 463.731654 -360.120554 
L 461.694414 -361.922915 
L 459.657174 -359.119652 
L 457.619934 -364.432777 
L 455.582694 -362.485807 
L 453.545455 -361.701712 
L 451.508215 -358.935037 
L 449.470975 -361.79283 
L 447.433735 -360.989108 
L 445.396495 -360.830922 
L 443.359255 -360.249018 
L 441.322015 -360.776781 
L 439.284775 -359.004243 
L 437.247536 -358.302278 
L 435.210296 -360.901778 
L 433.173056 -358.867272 
L 431.135816 -359.294171 
L 429.098576 -362.105185 
L 427.061336 -357.78011 
L 425.024096 -355.963095 
L 422.986857 -361.879285 
L 420.949617 -357.762973 
L 418.912377 -359.096693 
L 416.875137 -358.156128 
L 414.837897 -355.553536 
L 412.800657 -358.981831 
L 410.763417 -358.579881 
L 408.726177 -361.336602 
L 406.688938 -357.816158 
L 404.651698 -358.794439 
L 402.614458 -360.240122 
L 400.577218 -358.476026 
L 398.539978 -359.287366 
L 396.502738 -362.68037 
L 394.465498 -361.279552 
L 392.428258 -356.804327 
L 390.391019 -359.996589 
L 388.353779 -358.884192 
L 386.316539 -358.357855 
L 384.279299 -359.023825 
L 382.242059 -360.380318 
L 380.204819 -360.740335 
L 378.167579 -360.389726 
L 376.13034 -357.020973 
L 374.0931 -353.55994 
L 372.05586 -358.442467 
L 370.01862 -355.982473 
L 367.98138 -357.718528 
L 365.94414 -356.374983 
L 363.9069 -358.742171 
L 361.86966 -359.157867 
L 359.832421 -357.554629 
L 357.795181 -358.779102 
L 355.757941 -356.57438 
L 353.720701 -359.58316 
L 351.683461 -357.152945 
L 349.646221 -357.800789 
L 347.608981 -356.515254 
L 345.571742 -356.559428 
L 343.534502 -355.43345 
L 341.497262 -357.05357 
L 339.460022 -355.21298 
L 337.422782 -358.273288 
L 335.385542 -357.085214 
L 333.348302 -356.672409 
L 331.311062 -360.013832 
L 329.273823 -359.642649 
L 327.236583 -359.176558 
L 325.199343 -354.965545 
L 323.162103 -357.566865 
L 321.124863 -356.572634 
L 319.087623 -356.381421 
L 317.050383 -357.844501 
L 315.013143 -357.537929 
L 312.975904 -357.2047 
L 310.938664 -358.193502 
L 308.901424 -357.451162 
L 306.864184 -359.106334 
L 304.826944 -357.810154 
L 302.789704 -356.347518 
L 300.752464 -359.289254 
L 298.715225 -358.648849 
L 296.677985 -353.813583 
L 294.640745 -356.728045 
L 292.603505 -358.160841 
L 290.566265 -356.442128 
L 288.529025 -357.243733 
L 286.491785 -358.959221 
L 284.454545 -357.998008 
L 282.417306 -356.55731 
L 280.380066 -356.06696 
L 278.342826 -356.308875 
L 276.305586 -354.551941 
L 274.268346 -354.884266 
L 272.231106 -355.23864 
L 270.193866 -354.975441 
L 268.156627 -356.706542 
L 266.119387 -356.038327 
L 264.082147 -357.797558 
L 262.044907 -351.790944 
L 260.007667 -356.952369 
L 257.970427 -355.144851 
L 255.933187 -357.420006 
L 253.895947 -357.129363 
L 251.858708 -353.103651 
L 249.821468 -360.450636 
L 247.784228 -354.795049 
L 245.746988 -355.22721 
L 243.709748 -353.894859 
L 241.672508 -355.683878 
L 239.635268 -351.705213 
L 237.598028 -354.401712 
L 235.560789 -358.349746 
L 233.523549 -353.744541 
L 231.486309 -356.838785 
L 229.449069 -354.68403 
L 227.411829 -359.640764 
L 225.374589 -354.394958 
L 223.337349 -360.332238 
L 221.30011 -354.542115 
L 219.26287 -353.958705 
L 217.22563 -355.777938 
L 215.18839 -353.369885 
L 213.15115 -355.184383 
L 211.11391 -355.16432 
L 209.07667 -358.162651 
L 207.03943 -358.804856 
L 205.002191 -354.151756 
L 202.964951 -352.850298 
L 200.927711 -348.973463 
L 198.890471 -348.457611 
L 196.853231 -354.269454 
L 194.815991 -353.024736 
L 192.778751 -349.855699 
L 190.741512 -347.266343 
L 188.704272 -345.116063 
L 186.667032 -346.671291 
L 184.629792 -349.750804 
L 182.592552 -349.660541 
L 180.555312 -346.731704 
L 178.518072 -339.413879 
L 176.480832 -348.817539 
L 174.443593 -345.766232 
L 172.406353 -344.886837 
L 170.369113 -342.093402 
L 168.331873 -343.745315 
L 166.294633 -343.211499 
L 164.257393 -346.186498 
L 162.220153 -343.574869 
L 160.182913 -342.580813 
L 158.145674 -344.187371 
L 156.108434 -336.389861 
L 154.071194 -340.427961 
L 152.033954 -338.868458 
L 149.996714 -332.297656 
L 147.959474 -336.729229 
L 145.922234 -316.801761 
L 143.884995 -330.62397 
L 141.847755 -308.383493 
L 139.810515 -327.877928 
L 137.773275 -282.317774 
L 135.736035 -261.861157 
L 133.698795 -239.359659 
L 131.661555 -269.366702 
L 129.624315 -236.813386 
L 127.587076 -252.76588 
L 125.549836 -217.283396 
L 123.512596 -207.024515 
L 121.475356 -191.090392 
L 119.438116 -194.275213 
L 117.400876 -161.242501 
L 115.363636 -129.826389 
z
" style="stroke: #023e8a; stroke-opacity: 0.2"/>
    </defs>
    <g clip-path="url(#p2fd68434df)">
     <use xlink:href="#m20483e0d75" x="0" y="432" style="fill: #023e8a; fill-opacity: 0.2; stroke: #023e8a; stroke-opacity: 0.2"/>
    </g>
   </g>
   <g id="matplotlib.axis_1">
    <g id="xtick_1">
     <g id="line2d_1">
      <path d="M 115.108981 384.48 
L 115.108981 51.84 
" clip-path="url(#p2fd68434df)" style="fill: none; stroke: #b0b0b0; stroke-opacity: 0.3; stroke-width: 0.8; stroke-linecap: square"/>
     </g>
     <g id="line2d_2">
      <defs>
       <path id="m4919912a18" d="M 0 0 
L 0 3.5 
" style="stroke: #000000; stroke-width: 0.8"/>
      </defs>
      <g>
       <use xlink:href="#m4919912a18" x="115.108981" y="384.48" style="stroke: #000000; stroke-width: 0.8"/>
      </g>
     </g>
     <g id="text_1">
      <!-- 0 -->
      <g transform="translate(111.927731 399.078438) scale(0.1 -0.1)">
       <defs>
        <path id="DejaVuSans-30" d="M 2034 4250 
Q 1547 4250 1301 3770 
Q 1056 3291 1056 2328 
Q 1056 1369 1301 889 
Q 1547 409 2034 409 
Q 2525 409 2770 889 
Q 3016 1369 3016 2328 
Q 3016 3291 2770 3770 
Q 2525 4250 2034 4250 
z
M 2034 4750 
Q 2819 4750 3233 4129 
Q 3647 3509 3647 2328 
Q 3647 1150 3233 529 
Q 2819 -91 2034 -91 
Q 1250 -91 836 529 
Q 422 1150 422 2328 
Q 422 3509 836 4129 
Q 1250 4750 2034 4750 
z
" transform="scale(0.015625)"/>
       </defs>
       <use xlink:href="#DejaVuSans-30"/>
      </g>
     </g>
    </g>
    <g id="xtick_2">
     <g id="line2d_3">
      <path d="M 178.772727 384.48 
L 178.772727 51.84 
" clip-path="url(#p2fd68434df)" style="fill: none; stroke: #b0b0b0; stroke-opacity: 0.3; stroke-width: 0.8; stroke-linecap: square"/>
     </g>
     <g id="line2d_4">
      <g>
       <use xlink:href="#m4919912a18" x="178.772727" y="384.48" style="stroke: #000000; stroke-width: 0.8"/>
      </g>
     </g>
     <g id="text_2">
      <!-- 25000 -->
      <g transform="translate(162.866477 399.078438) scale(0.1 -0.1)">
       <defs>
        <path id="DejaVuSans-32" d="M 1228 531 
L 3431 531 
L 3431 0 
L 469 0 
L 469 531 
Q 828 903 1448 1529 
Q 2069 2156 2228 2338 
Q 2531 2678 2651 2914 
Q 2772 3150 2772 3378 
Q 2772 3750 2511 3984 
Q 2250 4219 1831 4219 
Q 1534 4219 1204 4116 
Q 875 4013 500 3803 
L 500 4441 
Q 881 4594 1212 4672 
Q 1544 4750 1819 4750 
Q 2544 4750 2975 4387 
Q 3406 4025 3406 3419 
Q 3406 3131 3298 2873 
Q 3191 2616 2906 2266 
Q 2828 2175 2409 1742 
Q 1991 1309 1228 531 
z
" transform="scale(0.015625)"/>
        <path id="DejaVuSans-35" d="M 691 4666 
L 3169 4666 
L 3169 4134 
L 1269 4134 
L 1269 2991 
Q 1406 3038 1543 3061 
Q 1681 3084 1819 3084 
Q 2600 3084 3056 2656 
Q 3513 2228 3513 1497 
Q 3513 744 3044 326 
Q 2575 -91 1722 -91 
Q 1428 -91 1123 -41 
Q 819 9 494 109 
L 494 744 
Q 775 591 1075 516 
Q 1375 441 1709 441 
Q 2250 441 2565 725 
Q 2881 1009 2881 1497 
Q 2881 1984 2565 2268 
Q 2250 2553 1709 2553 
Q 1456 2553 1204 2497 
Q 953 2441 691 2322 
L 691 4666 
z
" transform="scale(0.015625)"/>
       </defs>
       <use xlink:href="#DejaVuSans-32"/>
       <use xlink:href="#DejaVuSans-35" transform="translate(63.623047 0)"/>
       <use xlink:href="#DejaVuSans-30" transform="translate(127.246094 0)"/>
       <use xlink:href="#DejaVuSans-30" transform="translate(190.869141 0)"/>
       <use xlink:href="#DejaVuSans-30" transform="translate(254.492188 0)"/>
      </g>
     </g>
    </g>
    <g id="xtick_3">
     <g id="line2d_5">
      <path d="M 242.436473 384.48 
L 242.436473 51.84 
" clip-path="url(#p2fd68434df)" style="fill: none; stroke: #b0b0b0; stroke-opacity: 0.3; stroke-width: 0.8; stroke-linecap: square"/>
     </g>
     <g id="line2d_6">
      <g>
       <use xlink:href="#m4919912a18" x="242.436473" y="384.48" style="stroke: #000000; stroke-width: 0.8"/>
      </g>
     </g>
     <g id="text_3">
      <!-- 50000 -->
      <g transform="translate(226.530223 399.078438) scale(0.1 -0.1)">
       <use xlink:href="#DejaVuSans-35"/>
       <use xlink:href="#DejaVuSans-30" transform="translate(63.623047 0)"/>
       <use xlink:href="#DejaVuSans-30" transform="translate(127.246094 0)"/>
       <use xlink:href="#DejaVuSans-30" transform="translate(190.869141 0)"/>
       <use xlink:href="#DejaVuSans-30" transform="translate(254.492188 0)"/>
      </g>
     </g>
    </g>
    <g id="xtick_4">
     <g id="line2d_7">
      <path d="M 306.100219 384.48 
L 306.100219 51.84 
" clip-path="url(#p2fd68434df)" style="fill: none; stroke: #b0b0b0; stroke-opacity: 0.3; stroke-width: 0.8; stroke-linecap: square"/>
     </g>
     <g id="line2d_8">
      <g>
       <use xlink:href="#m4919912a18" x="306.100219" y="384.48" style="stroke: #000000; stroke-width: 0.8"/>
      </g>
     </g>
     <g id="text_4">
      <!-- 75000 -->
      <g transform="translate(290.193969 399.078438) scale(0.1 -0.1)">
       <defs>
        <path id="DejaVuSans-37" d="M 525 4666 
L 3525 4666 
L 3525 4397 
L 1831 0 
L 1172 0 
L 2766 4134 
L 525 4134 
L 525 4666 
z
" transform="scale(0.015625)"/>
       </defs>
       <use xlink:href="#DejaVuSans-37"/>
       <use xlink:href="#DejaVuSans-35" transform="translate(63.623047 0)"/>
       <use xlink:href="#DejaVuSans-30" transform="translate(127.246094 0)"/>
       <use xlink:href="#DejaVuSans-30" transform="translate(190.869141 0)"/>
       <use xlink:href="#DejaVuSans-30" transform="translate(254.492188 0)"/>
      </g>
     </g>
    </g>
    <g id="xtick_5">
     <g id="line2d_9">
      <path d="M 369.763965 384.48 
L 369.763965 51.84 
" clip-path="url(#p2fd68434df)" style="fill: none; stroke: #b0b0b0; stroke-opacity: 0.3; stroke-width: 0.8; stroke-linecap: square"/>
     </g>
     <g id="line2d_10">
      <g>
       <use xlink:href="#m4919912a18" x="369.763965" y="384.48" style="stroke: #000000; stroke-width: 0.8"/>
      </g>
     </g>
     <g id="text_5">
      <!-- 100000 -->
      <g transform="translate(350.676465 399.078438) scale(0.1 -0.1)">
       <defs>
        <path id="DejaVuSans-31" d="M 794 531 
L 1825 531 
L 1825 4091 
L 703 3866 
L 703 4441 
L 1819 4666 
L 2450 4666 
L 2450 531 
L 3481 531 
L 3481 0 
L 794 0 
L 794 531 
z
" transform="scale(0.015625)"/>
       </defs>
       <use xlink:href="#DejaVuSans-31"/>
       <use xlink:href="#DejaVuSans-30" transform="translate(63.623047 0)"/>
       <use xlink:href="#DejaVuSans-30" transform="translate(127.246094 0)"/>
       <use xlink:href="#DejaVuSans-30" transform="translate(190.869141 0)"/>
       <use xlink:href="#DejaVuSans-30" transform="translate(254.492188 0)"/>
       <use xlink:href="#DejaVuSans-30" transform="translate(318.115234 0)"/>
      </g>
     </g>
    </g>
    <g id="xtick_6">
     <g id="line2d_11">
      <path d="M 433.427711 384.48 
L 433.427711 51.84 
" clip-path="url(#p2fd68434df)" style="fill: none; stroke: #b0b0b0; stroke-opacity: 0.3; stroke-width: 0.8; stroke-linecap: square"/>
     </g>
     <g id="line2d_12">
      <g>
       <use xlink:href="#m4919912a18" x="433.427711" y="384.48" style="stroke: #000000; stroke-width: 0.8"/>
      </g>
     </g>
     <g id="text_6">
      <!-- 125000 -->
      <g transform="translate(414.340211 399.078438) scale(0.1 -0.1)">
       <use xlink:href="#DejaVuSans-31"/>
       <use xlink:href="#DejaVuSans-32" transform="translate(63.623047 0)"/>
       <use xlink:href="#DejaVuSans-35" transform="translate(127.246094 0)"/>
       <use xlink:href="#DejaVuSans-30" transform="translate(190.869141 0)"/>
       <use xlink:href="#DejaVuSans-30" transform="translate(254.492188 0)"/>
       <use xlink:href="#DejaVuSans-30" transform="translate(318.115234 0)"/>
      </g>
     </g>
    </g>
    <g id="xtick_7">
     <g id="line2d_13">
      <path d="M 497.091457 384.48 
L 497.091457 51.84 
" clip-path="url(#p2fd68434df)" style="fill: none; stroke: #b0b0b0; stroke-opacity: 0.3; stroke-width: 0.8; stroke-linecap: square"/>
     </g>
     <g id="line2d_14">
      <g>
       <use xlink:href="#m4919912a18" x="497.091457" y="384.48" style="stroke: #000000; stroke-width: 0.8"/>
      </g>
     </g>
     <g id="text_7">
      <!-- 150000 -->
      <g transform="translate(478.003957 399.078438) scale(0.1 -0.1)">
       <use xlink:href="#DejaVuSans-31"/>
       <use xlink:href="#DejaVuSans-35" transform="translate(63.623047 0)"/>
       <use xlink:href="#DejaVuSans-30" transform="translate(127.246094 0)"/>
       <use xlink:href="#DejaVuSans-30" transform="translate(190.869141 0)"/>
       <use xlink:href="#DejaVuSans-30" transform="translate(254.492188 0)"/>
       <use xlink:href="#DejaVuSans-30" transform="translate(318.115234 0)"/>
      </g>
     </g>
    </g>
    <g id="xtick_8">
     <g id="line2d_15">
      <path d="M 560.755203 384.48 
L 560.755203 51.84 
" clip-path="url(#p2fd68434df)" style="fill: none; stroke: #b0b0b0; stroke-opacity: 0.3; stroke-width: 0.8; stroke-linecap: square"/>
     </g>
     <g id="line2d_16">
      <g>
       <use xlink:href="#m4919912a18" x="560.755203" y="384.48" style="stroke: #000000; stroke-width: 0.8"/>
      </g>
     </g>
     <g id="text_8">
      <!-- 175000 -->
      <g transform="translate(541.667703 399.078438) scale(0.1 -0.1)">
       <use xlink:href="#DejaVuSans-31"/>
       <use xlink:href="#DejaVuSans-37" transform="translate(63.623047 0)"/>
       <use xlink:href="#DejaVuSans-35" transform="translate(127.246094 0)"/>
       <use xlink:href="#DejaVuSans-30" transform="translate(190.869141 0)"/>
       <use xlink:href="#DejaVuSans-30" transform="translate(254.492188 0)"/>
       <use xlink:href="#DejaVuSans-30" transform="translate(318.115234 0)"/>
      </g>
     </g>
    </g>
    <g id="xtick_9">
     <g id="line2d_17">
      <path d="M 624.418949 384.48 
L 624.418949 51.84 
" clip-path="url(#p2fd68434df)" style="fill: none; stroke: #b0b0b0; stroke-opacity: 0.3; stroke-width: 0.8; stroke-linecap: square"/>
     </g>
     <g id="line2d_18">
      <g>
       <use xlink:href="#m4919912a18" x="624.418949" y="384.48" style="stroke: #000000; stroke-width: 0.8"/>
      </g>
     </g>
     <g id="text_9">
      <!-- 200000 -->
      <g transform="translate(605.331449 399.078438) scale(0.1 -0.1)">
       <use xlink:href="#DejaVuSans-32"/>
       <use xlink:href="#DejaVuSans-30" transform="translate(63.623047 0)"/>
       <use xlink:href="#DejaVuSans-30" transform="translate(127.246094 0)"/>
       <use xlink:href="#DejaVuSans-30" transform="translate(190.869141 0)"/>
       <use xlink:href="#DejaVuSans-30" transform="translate(254.492188 0)"/>
       <use xlink:href="#DejaVuSans-30" transform="translate(318.115234 0)"/>
      </g>
     </g>
    </g>
    <g id="text_10">
     <!-- Training Steps -->
     <g transform="translate(333.695312 412.756563) scale(0.1 -0.1)">
      <defs>
       <path id="DejaVuSans-54" d="M -19 4666 
L 3928 4666 
L 3928 4134 
L 2272 4134 
L 2272 0 
L 1638 0 
L 1638 4134 
L -19 4134 
L -19 4666 
z
" transform="scale(0.015625)"/>
       <path id="DejaVuSans-72" d="M 2631 2963 
Q 2534 3019 2420 3045 
Q 2306 3072 2169 3072 
Q 1681 3072 1420 2755 
Q 1159 2438 1159 1844 
L 1159 0 
L 581 0 
L 581 3500 
L 1159 3500 
L 1159 2956 
Q 1341 3275 1631 3429 
Q 1922 3584 2338 3584 
Q 2397 3584 2469 3576 
Q 2541 3569 2628 3553 
L 2631 2963 
z
" transform="scale(0.015625)"/>
       <path id="DejaVuSans-61" d="M 2194 1759 
Q 1497 1759 1228 1600 
Q 959 1441 959 1056 
Q 959 750 1161 570 
Q 1363 391 1709 391 
Q 2188 391 2477 730 
Q 2766 1069 2766 1631 
L 2766 1759 
L 2194 1759 
z
M 3341 1997 
L 3341 0 
L 2766 0 
L 2766 531 
Q 2569 213 2275 61 
Q 1981 -91 1556 -91 
Q 1019 -91 701 211 
Q 384 513 384 1019 
Q 384 1609 779 1909 
Q 1175 2209 1959 2209 
L 2766 2209 
L 2766 2266 
Q 2766 2663 2505 2880 
Q 2244 3097 1772 3097 
Q 1472 3097 1187 3025 
Q 903 2953 641 2809 
L 641 3341 
Q 956 3463 1253 3523 
Q 1550 3584 1831 3584 
Q 2591 3584 2966 3190 
Q 3341 2797 3341 1997 
z
" transform="scale(0.015625)"/>
       <path id="DejaVuSans-69" d="M 603 3500 
L 1178 3500 
L 1178 0 
L 603 0 
L 603 3500 
z
M 603 4863 
L 1178 4863 
L 1178 4134 
L 603 4134 
L 603 4863 
z
" transform="scale(0.015625)"/>
       <path id="DejaVuSans-6e" d="M 3513 2113 
L 3513 0 
L 2938 0 
L 2938 2094 
Q 2938 2591 2744 2837 
Q 2550 3084 2163 3084 
Q 1697 3084 1428 2787 
Q 1159 2491 1159 1978 
L 1159 0 
L 581 0 
L 581 3500 
L 1159 3500 
L 1159 2956 
Q 1366 3272 1645 3428 
Q 1925 3584 2291 3584 
Q 2894 3584 3203 3211 
Q 3513 2838 3513 2113 
z
" transform="scale(0.015625)"/>
       <path id="DejaVuSans-67" d="M 2906 1791 
Q 2906 2416 2648 2759 
Q 2391 3103 1925 3103 
Q 1463 3103 1205 2759 
Q 947 2416 947 1791 
Q 947 1169 1205 825 
Q 1463 481 1925 481 
Q 2391 481 2648 825 
Q 2906 1169 2906 1791 
z
M 3481 434 
Q 3481 -459 3084 -895 
Q 2688 -1331 1869 -1331 
Q 1566 -1331 1297 -1286 
Q 1028 -1241 775 -1147 
L 775 -588 
Q 1028 -725 1275 -790 
Q 1522 -856 1778 -856 
Q 2344 -856 2625 -561 
Q 2906 -266 2906 331 
L 2906 616 
Q 2728 306 2450 153 
Q 2172 0 1784 0 
Q 1141 0 747 490 
Q 353 981 353 1791 
Q 353 2603 747 3093 
Q 1141 3584 1784 3584 
Q 2172 3584 2450 3431 
Q 2728 3278 2906 2969 
L 2906 3500 
L 3481 3500 
L 3481 434 
z
" transform="scale(0.015625)"/>
       <path id="DejaVuSans-20" transform="scale(0.015625)"/>
       <path id="DejaVuSans-53" d="M 3425 4513 
L 3425 3897 
Q 3066 4069 2747 4153 
Q 2428 4238 2131 4238 
Q 1616 4238 1336 4038 
Q 1056 3838 1056 3469 
Q 1056 3159 1242 3001 
Q 1428 2844 1947 2747 
L 2328 2669 
Q 3034 2534 3370 2195 
Q 3706 1856 3706 1288 
Q 3706 609 3251 259 
Q 2797 -91 1919 -91 
Q 1588 -91 1214 -16 
Q 841 59 441 206 
L 441 856 
Q 825 641 1194 531 
Q 1563 422 1919 422 
Q 2459 422 2753 634 
Q 3047 847 3047 1241 
Q 3047 1584 2836 1778 
Q 2625 1972 2144 2069 
L 1759 2144 
Q 1053 2284 737 2584 
Q 422 2884 422 3419 
Q 422 4038 858 4394 
Q 1294 4750 2059 4750 
Q 2388 4750 2728 4690 
Q 3069 4631 3425 4513 
z
" transform="scale(0.015625)"/>
       <path id="DejaVuSans-74" d="M 1172 4494 
L 1172 3500 
L 2356 3500 
L 2356 3053 
L 1172 3053 
L 1172 1153 
Q 1172 725 1289 603 
Q 1406 481 1766 481 
L 2356 481 
L 2356 0 
L 1766 0 
Q 1100 0 847 248 
Q 594 497 594 1153 
L 594 3053 
L 172 3053 
L 172 3500 
L 594 3500 
L 594 4494 
L 1172 4494 
z
" transform="scale(0.015625)"/>
       <path id="DejaVuSans-65" d="M 3597 1894 
L 3597 1613 
L 953 1613 
Q 991 1019 1311 708 
Q 1631 397 2203 397 
Q 2534 397 2845 478 
Q 3156 559 3463 722 
L 3463 178 
Q 3153 47 2828 -22 
Q 2503 -91 2169 -91 
Q 1331 -91 842 396 
Q 353 884 353 1716 
Q 353 2575 817 3079 
Q 1281 3584 2069 3584 
Q 2775 3584 3186 3129 
Q 3597 2675 3597 1894 
z
M 3022 2063 
Q 3016 2534 2758 2815 
Q 2500 3097 2075 3097 
Q 1594 3097 1305 2825 
Q 1016 2553 972 2059 
L 3022 2063 
z
" transform="scale(0.015625)"/>
       <path id="DejaVuSans-70" d="M 1159 525 
L 1159 -1331 
L 581 -1331 
L 581 3500 
L 1159 3500 
L 1159 2969 
Q 1341 3281 1617 3432 
Q 1894 3584 2278 3584 
Q 2916 3584 3314 3078 
Q 3713 2572 3713 1747 
Q 3713 922 3314 415 
Q 2916 -91 2278 -91 
Q 1894 -91 1617 61 
Q 1341 213 1159 525 
z
M 3116 1747 
Q 3116 2381 2855 2742 
Q 2594 3103 2138 3103 
Q 1681 3103 1420 2742 
Q 1159 2381 1159 1747 
Q 1159 1113 1420 752 
Q 1681 391 2138 391 
Q 2594 391 2855 752 
Q 3116 1113 3116 1747 
z
" transform="scale(0.015625)"/>
       <path id="DejaVuSans-73" d="M 2834 3397 
L 2834 2853 
Q 2591 2978 2328 3040 
Q 2066 3103 1784 3103 
Q 1356 3103 1142 2972 
Q 928 2841 928 2578 
Q 928 2378 1081 2264 
Q 1234 2150 1697 2047 
L 1894 2003 
Q 2506 1872 2764 1633 
Q 3022 1394 3022 966 
Q 3022 478 2636 193 
Q 2250 -91 1575 -91 
Q 1294 -91 989 -36 
Q 684 19 347 128 
L 347 722 
Q 666 556 975 473 
Q 1284 391 1588 391 
Q 1994 391 2212 530 
Q 2431 669 2431 922 
Q 2431 1156 2273 1281 
Q 2116 1406 1581 1522 
L 1381 1569 
Q 847 1681 609 1914 
Q 372 2147 372 2553 
Q 372 3047 722 3315 
Q 1072 3584 1716 3584 
Q 2034 3584 2315 3537 
Q 2597 3491 2834 3397 
z
" transform="scale(0.015625)"/>
      </defs>
      <use xlink:href="#DejaVuSans-54"/>
      <use xlink:href="#DejaVuSans-72" transform="translate(46.333984 0)"/>
      <use xlink:href="#DejaVuSans-61" transform="translate(87.447266 0)"/>
      <use xlink:href="#DejaVuSans-69" transform="translate(148.726562 0)"/>
      <use xlink:href="#DejaVuSans-6e" transform="translate(176.509766 0)"/>
      <use xlink:href="#DejaVuSans-69" transform="translate(239.888672 0)"/>
      <use xlink:href="#DejaVuSans-6e" transform="translate(267.671875 0)"/>
      <use xlink:href="#DejaVuSans-67" transform="translate(331.050781 0)"/>
      <use xlink:href="#DejaVuSans-20" transform="translate(394.527344 0)"/>
      <use xlink:href="#DejaVuSans-53" transform="translate(426.314453 0)"/>
      <use xlink:href="#DejaVuSans-74" transform="translate(489.791016 0)"/>
      <use xlink:href="#DejaVuSans-65" transform="translate(529 0)"/>
      <use xlink:href="#DejaVuSans-70" transform="translate(590.523438 0)"/>
      <use xlink:href="#DejaVuSans-73" transform="translate(654 0)"/>
     </g>
    </g>
   </g>
   <g id="matplotlib.axis_2">
    <g id="ytick_1">
     <g id="line2d_19">
      <path d="M 90 365.618319 
L 648 365.618319 
" clip-path="url(#p2fd68434df)" style="fill: none; stroke: #b0b0b0; stroke-opacity: 0.3; stroke-width: 0.8; stroke-linecap: square"/>
     </g>
     <g id="line2d_20">
      <defs>
       <path id="m6ac654a217" d="M 0 0 
L -3.5 0 
" style="stroke: #000000; stroke-width: 0.8"/>
      </defs>
      <g>
       <use xlink:href="#m6ac654a217" x="90" y="365.618319" style="stroke: #000000; stroke-width: 0.8"/>
      </g>
     </g>
     <g id="text_11">
      <!-- 400 -->
      <g transform="translate(55.532812 369.417538) scale(0.1 -0.1)">
       <defs>
        <path id="DejaVuSans-2212" d="M 678 2272 
L 4684 2272 
L 4684 1741 
L 678 1741 
L 678 2272 
z
" transform="scale(0.015625)"/>
        <path id="DejaVuSans-34" d="M 2419 4116 
L 825 1625 
L 2419 1625 
L 2419 4116 
z
M 2253 4666 
L 3047 4666 
L 3047 1625 
L 3713 1625 
L 3713 1100 
L 3047 1100 
L 3047 0 
L 2419 0 
L 2419 1100 
L 313 1100 
L 313 1709 
L 2253 4666 
z
" transform="scale(0.015625)"/>
       </defs>
       <use xlink:href="#DejaVuSans-2212"/>
       <use xlink:href="#DejaVuSans-34" transform="translate(83.789062 0)"/>
       <use xlink:href="#DejaVuSans-30" transform="translate(147.412109 0)"/>
       <use xlink:href="#DejaVuSans-30" transform="translate(211.035156 0)"/>
      </g>
     </g>
    </g>
    <g id="ytick_2">
     <g id="line2d_21">
      <path d="M 90 322.566993 
L 648 322.566993 
" clip-path="url(#p2fd68434df)" style="fill: none; stroke: #b0b0b0; stroke-opacity: 0.3; stroke-width: 0.8; stroke-linecap: square"/>
     </g>
     <g id="line2d_22">
      <g>
       <use xlink:href="#m6ac654a217" x="90" y="322.566993" style="stroke: #000000; stroke-width: 0.8"/>
      </g>
     </g>
     <g id="text_12">
      <!-- 300 -->
      <g transform="translate(55.532812 326.366212) scale(0.1 -0.1)">
       <defs>
        <path id="DejaVuSans-33" d="M 2597 2516 
Q 3050 2419 3304 2112 
Q 3559 1806 3559 1356 
Q 3559 666 3084 287 
Q 2609 -91 1734 -91 
Q 1441 -91 1130 -33 
Q 819 25 488 141 
L 488 750 
Q 750 597 1062 519 
Q 1375 441 1716 441 
Q 2309 441 2620 675 
Q 2931 909 2931 1356 
Q 2931 1769 2642 2001 
Q 2353 2234 1838 2234 
L 1294 2234 
L 1294 2753 
L 1863 2753 
Q 2328 2753 2575 2939 
Q 2822 3125 2822 3475 
Q 2822 3834 2567 4026 
Q 2313 4219 1838 4219 
Q 1578 4219 1281 4162 
Q 984 4106 628 3988 
L 628 4550 
Q 988 4650 1302 4700 
Q 1616 4750 1894 4750 
Q 2613 4750 3031 4423 
Q 3450 4097 3450 3541 
Q 3450 3153 3228 2886 
Q 3006 2619 2597 2516 
z
" transform="scale(0.015625)"/>
       </defs>
       <use xlink:href="#DejaVuSans-2212"/>
       <use xlink:href="#DejaVuSans-33" transform="translate(83.789062 0)"/>
       <use xlink:href="#DejaVuSans-30" transform="translate(147.412109 0)"/>
       <use xlink:href="#DejaVuSans-30" transform="translate(211.035156 0)"/>
      </g>
     </g>
    </g>
    <g id="ytick_3">
     <g id="line2d_23">
      <path d="M 90 279.515668 
L 648 279.515668 
" clip-path="url(#p2fd68434df)" style="fill: none; stroke: #b0b0b0; stroke-opacity: 0.3; stroke-width: 0.8; stroke-linecap: square"/>
     </g>
     <g id="line2d_24">
      <g>
       <use xlink:href="#m6ac654a217" x="90" y="279.515668" style="stroke: #000000; stroke-width: 0.8"/>
      </g>
     </g>
     <g id="text_13">
      <!-- 200 -->
      <g transform="translate(55.532812 283.314886) scale(0.1 -0.1)">
       <use xlink:href="#DejaVuSans-2212"/>
       <use xlink:href="#DejaVuSans-32" transform="translate(83.789062 0)"/>
       <use xlink:href="#DejaVuSans-30" transform="translate(147.412109 0)"/>
       <use xlink:href="#DejaVuSans-30" transform="translate(211.035156 0)"/>
      </g>
     </g>
    </g>
    <g id="ytick_4">
     <g id="line2d_25">
      <path d="M 90 236.464342 
L 648 236.464342 
" clip-path="url(#p2fd68434df)" style="fill: none; stroke: #b0b0b0; stroke-opacity: 0.3; stroke-width: 0.8; stroke-linecap: square"/>
     </g>
     <g id="line2d_26">
      <g>
       <use xlink:href="#m6ac654a217" x="90" y="236.464342" style="stroke: #000000; stroke-width: 0.8"/>
      </g>
     </g>
     <g id="text_14">
      <!-- 100 -->
      <g transform="translate(55.532812 240.263561) scale(0.1 -0.1)">
       <use xlink:href="#DejaVuSans-2212"/>
       <use xlink:href="#DejaVuSans-31" transform="translate(83.789062 0)"/>
       <use xlink:href="#DejaVuSans-30" transform="translate(147.412109 0)"/>
       <use xlink:href="#DejaVuSans-30" transform="translate(211.035156 0)"/>
      </g>
     </g>
    </g>
    <g id="ytick_5">
     <g id="line2d_27">
      <path d="M 90 193.413016 
L 648 193.413016 
" clip-path="url(#p2fd68434df)" style="fill: none; stroke: #b0b0b0; stroke-opacity: 0.3; stroke-width: 0.8; stroke-linecap: square"/>
     </g>
     <g id="line2d_28">
      <g>
       <use xlink:href="#m6ac654a217" x="90" y="193.413016" style="stroke: #000000; stroke-width: 0.8"/>
      </g>
     </g>
     <g id="text_15">
      <!-- 0 -->
      <g transform="translate(76.6375 197.212235) scale(0.1 -0.1)">
       <use xlink:href="#DejaVuSans-30"/>
      </g>
     </g>
    </g>
    <g id="ytick_6">
     <g id="line2d_29">
      <path d="M 90 150.361691 
L 648 150.361691 
" clip-path="url(#p2fd68434df)" style="fill: none; stroke: #b0b0b0; stroke-opacity: 0.3; stroke-width: 0.8; stroke-linecap: square"/>
     </g>
     <g id="line2d_30">
      <g>
       <use xlink:href="#m6ac654a217" x="90" y="150.361691" style="stroke: #000000; stroke-width: 0.8"/>
      </g>
     </g>
     <g id="text_16">
      <!-- 100 -->
      <g transform="translate(63.9125 154.160909) scale(0.1 -0.1)">
       <use xlink:href="#DejaVuSans-31"/>
       <use xlink:href="#DejaVuSans-30" transform="translate(63.623047 0)"/>
       <use xlink:href="#DejaVuSans-30" transform="translate(127.246094 0)"/>
      </g>
     </g>
    </g>
    <g id="ytick_7">
     <g id="line2d_31">
      <path d="M 90 107.310365 
L 648 107.310365 
" clip-path="url(#p2fd68434df)" style="fill: none; stroke: #b0b0b0; stroke-opacity: 0.3; stroke-width: 0.8; stroke-linecap: square"/>
     </g>
     <g id="line2d_32">
      <g>
       <use xlink:href="#m6ac654a217" x="90" y="107.310365" style="stroke: #000000; stroke-width: 0.8"/>
      </g>
     </g>
     <g id="text_17">
      <!-- 200 -->
      <g transform="translate(63.9125 111.109584) scale(0.1 -0.1)">
       <use xlink:href="#DejaVuSans-32"/>
       <use xlink:href="#DejaVuSans-30" transform="translate(63.623047 0)"/>
       <use xlink:href="#DejaVuSans-30" transform="translate(127.246094 0)"/>
      </g>
     </g>
    </g>
    <g id="ytick_8">
     <g id="line2d_33">
      <path d="M 90 64.259039 
L 648 64.259039 
" clip-path="url(#p2fd68434df)" style="fill: none; stroke: #b0b0b0; stroke-opacity: 0.3; stroke-width: 0.8; stroke-linecap: square"/>
     </g>
     <g id="line2d_34">
      <g>
       <use xlink:href="#m6ac654a217" x="90" y="64.259039" style="stroke: #000000; stroke-width: 0.8"/>
      </g>
     </g>
     <g id="text_18">
      <!-- 300 -->
      <g transform="translate(63.9125 68.058258) scale(0.1 -0.1)">
       <use xlink:href="#DejaVuSans-33"/>
       <use xlink:href="#DejaVuSans-30" transform="translate(63.623047 0)"/>
       <use xlink:href="#DejaVuSans-30" transform="translate(127.246094 0)"/>
      </g>
     </g>
    </g>
    <g id="text_19">
     <!-- Return -->
     <g transform="translate(49.453125 234.751406) rotate(-90) scale(0.1 -0.1)">
      <defs>
       <path id="DejaVuSans-52" d="M 2841 2188 
Q 3044 2119 3236 1894 
Q 3428 1669 3622 1275 
L 4263 0 
L 3584 0 
L 2988 1197 
Q 2756 1666 2539 1819 
Q 2322 1972 1947 1972 
L 1259 1972 
L 1259 0 
L 628 0 
L 628 4666 
L 2053 4666 
Q 2853 4666 3247 4331 
Q 3641 3997 3641 3322 
Q 3641 2881 3436 2590 
Q 3231 2300 2841 2188 
z
M 1259 4147 
L 1259 2491 
L 2053 2491 
Q 2509 2491 2742 2702 
Q 2975 2913 2975 3322 
Q 2975 3731 2742 3939 
Q 2509 4147 2053 4147 
L 1259 4147 
z
" transform="scale(0.015625)"/>
       <path id="DejaVuSans-75" d="M 544 1381 
L 544 3500 
L 1119 3500 
L 1119 1403 
Q 1119 906 1312 657 
Q 1506 409 1894 409 
Q 2359 409 2629 706 
Q 2900 1003 2900 1516 
L 2900 3500 
L 3475 3500 
L 3475 0 
L 2900 0 
L 2900 538 
Q 2691 219 2414 64 
Q 2138 -91 1772 -91 
Q 1169 -91 856 284 
Q 544 659 544 1381 
z
M 1991 3584 
L 1991 3584 
z
" transform="scale(0.015625)"/>
      </defs>
      <use xlink:href="#DejaVuSans-52"/>
      <use xlink:href="#DejaVuSans-65" transform="translate(64.982422 0)"/>
      <use xlink:href="#DejaVuSans-74" transform="translate(126.505859 0)"/>
      <use xlink:href="#DejaVuSans-75" transform="translate(165.714844 0)"/>
      <use xlink:href="#DejaVuSans-72" transform="translate(229.09375 0)"/>
      <use xlink:href="#DejaVuSans-6e" transform="translate(268.457031 0)"/>
     </g>
    </g>
   </g>
   <g id="line2d_35">
    <path d="M 115.363636 248.685184 
L 117.400876 303.039697 
L 119.438116 295.941346 
L 121.475356 292.453114 
L 123.512596 299.32082 
L 125.549836 291.433541 
L 127.587076 290.071064 
L 129.624315 282.150206 
L 131.661555 301.334169 
L 133.698795 273.792858 
L 135.736035 278.445903 
L 137.773275 260.710217 
L 139.810515 277.110186 
L 141.847755 271.392203 
L 143.884995 269.702927 
L 147.959474 259.07856 
L 149.996714 251.314793 
L 152.033954 267.144644 
L 154.071194 272.526882 
L 156.108434 267.515449 
L 158.145674 286.204258 
L 160.182913 280.671166 
L 162.220153 296.528784 
L 164.257393 300.696771 
L 166.294633 279.856787 
L 170.369113 271.340153 
L 172.406353 269.671188 
L 174.443593 282.81876 
L 176.480832 247.111811 
L 178.518072 283.135195 
L 180.555312 281.476141 
L 182.592552 287.000412 
L 184.629792 278.453954 
L 186.667032 269.402984 
L 188.704272 265.198085 
L 190.741512 271.375061 
L 192.778751 273.181433 
L 194.815991 287.241827 
L 196.853231 275.096227 
L 198.890471 272.135754 
L 200.927711 275.856825 
L 202.964951 301.295242 
L 205.002191 311.582447 
L 207.03943 289.694658 
L 209.07667 274.48512 
L 211.11391 299.578493 
L 213.15115 284.252447 
L 215.18839 290.704706 
L 217.22563 283.542769 
L 219.26287 268.55398 
L 221.30011 268.795108 
L 223.337349 251.678627 
L 225.374589 271.187232 
L 227.411829 271.98539 
L 229.449069 280.591174 
L 231.486309 286.136366 
L 233.523549 284.455008 
L 235.560789 272.04898 
L 237.598028 252.901405 
L 239.635268 269.805097 
L 241.672508 252.37378 
L 243.709748 270.086593 
L 245.746988 272.276318 
L 247.784228 283.309554 
L 249.821468 279.215675 
L 251.858708 264.117057 
L 253.895947 257.857905 
L 255.933187 270.606491 
L 257.970427 269.966474 
L 260.007667 254.335058 
L 262.044907 264.983147 
L 264.082147 263.064902 
L 266.119387 258.670737 
L 268.156627 266.438898 
L 270.193866 279.609031 
L 272.231106 254.202395 
L 274.268346 259.100333 
L 276.305586 249.384975 
L 278.342826 262.410989 
L 280.380066 262.596222 
L 282.417306 261.198904 
L 284.454545 261.631261 
L 286.491785 265.968663 
L 288.529025 265.95381 
L 290.566265 264.176691 
L 292.603505 264.868695 
L 296.677985 265.64759 
L 298.715225 280.210702 
L 300.752464 247.637115 
L 302.789704 238.552049 
L 304.826944 247.50964 
L 306.864184 250.674853 
L 308.901424 232.747953 
L 310.938664 239.256859 
L 312.975904 231.65953 
L 315.013143 245.57012 
L 317.050383 244.125878 
L 319.087623 234.260833 
L 321.124863 243.825023 
L 323.162103 233.193031 
L 327.236583 255.493788 
L 329.273823 235.589092 
L 331.311062 247.074683 
L 333.348302 250.551813 
L 335.385542 249.409762 
L 337.422782 249.70848 
L 339.460022 253.377978 
L 341.497262 240.396304 
L 343.534502 241.677723 
L 345.571742 258.973137 
L 347.608981 243.502608 
L 349.646221 255.360361 
L 351.683461 244.659104 
L 353.720701 239.225461 
L 355.757941 264.482296 
L 357.795181 242.32583 
L 359.832421 244.763301 
L 361.86966 242.462315 
L 363.9069 238.587222 
L 365.94414 238.822253 
L 367.98138 236.040304 
L 370.01862 219.525017 
L 372.05586 241.006524 
L 374.0931 218.977856 
L 376.13034 212.944439 
L 378.167579 215.981988 
L 380.204819 217.022936 
L 382.242059 223.908317 
L 384.279299 218.989944 
L 386.316539 218.422174 
L 388.353779 221.982642 
L 390.391019 217.231102 
L 392.428258 219.722237 
L 394.465498 229.4159 
L 396.502738 219.536926 
L 398.539978 221.297476 
L 400.577218 246.141355 
L 402.614458 219.986531 
L 404.651698 211.503554 
L 406.688938 206.735338 
L 408.726177 214.706529 
L 410.763417 229.273486 
L 412.800657 232.965429 
L 414.837897 224.66154 
L 416.875137 231.337765 
L 418.912377 225.390124 
L 420.949617 222.992767 
L 422.986857 222.612334 
L 425.024096 218.721139 
L 427.061336 226.588496 
L 429.098576 227.91316 
L 431.135816 260.529862 
L 433.173056 225.448211 
L 435.210296 224.85379 
L 437.247536 237.037761 
L 439.284775 238.407092 
L 441.322015 233.587499 
L 443.359255 249.462546 
L 445.396495 254.539546 
L 447.433735 228.61097 
L 449.470975 230.269826 
L 451.508215 255.183051 
L 453.545455 230.218682 
L 455.582694 244.048389 
L 457.619934 247.210554 
L 459.657174 232.055561 
L 461.694414 225.651276 
L 463.731654 230.391232 
L 465.768894 225.541584 
L 467.806134 219.694333 
L 469.843373 222.356616 
L 471.880613 224.318853 
L 473.917853 219.036775 
L 475.955093 219.857692 
L 477.992333 225.388068 
L 480.029573 220.167517 
L 482.066813 222.707092 
L 484.104053 220.813152 
L 486.141292 215.748779 
L 488.178532 211.638384 
L 490.215772 208.929896 
L 492.253012 223.657399 
L 494.290252 220.159729 
L 496.327492 227.488983 
L 498.364732 222.324577 
L 500.401972 225.466451 
L 502.439211 217.816164 
L 504.476451 204.805586 
L 506.513691 222.382025 
L 508.550931 219.74064 
L 510.588171 222.908016 
L 512.625411 219.053874 
L 514.662651 217.766173 
L 516.69989 214.637857 
L 518.73713 214.69034 
L 520.77437 220.437433 
L 522.81161 218.071246 
L 524.84885 214.201126 
L 526.88609 220.853655 
L 528.92333 210.390977 
L 530.96057 212.313188 
L 532.997809 207.741866 
L 535.035049 206.722091 
L 537.072289 190.210494 
L 539.109529 201.664647 
L 541.146769 205.187717 
L 543.184009 203.842045 
L 545.221249 199.850499 
L 547.258488 203.642534 
L 549.295728 204.722835 
L 551.332968 215.808604 
L 553.370208 206.605426 
L 555.407448 207.998491 
L 557.444688 207.256395 
L 559.481928 207.401993 
L 561.519168 205.170095 
L 563.556407 220.839396 
L 565.593647 217.677678 
L 567.630887 213.305644 
L 569.668127 216.247106 
L 571.705367 213.537403 
L 573.742607 210.481307 
L 575.779847 209.468136 
L 577.817087 209.802192 
L 579.854326 207.406189 
L 581.891566 210.929142 
L 583.928806 205.824394 
L 585.966046 213.151371 
L 588.003286 208.015425 
L 590.040526 205.693568 
L 592.077766 213.595423 
L 594.115005 216.24161 
L 596.152245 215.49468 
L 598.189485 211.204392 
L 600.226725 217.249777 
L 602.263965 215.356844 
L 604.301205 219.842753 
L 606.338445 218.389416 
L 608.375685 217.60726 
L 610.412924 210.154943 
L 612.450164 220.558677 
L 614.487404 216.367456 
L 616.524644 219.442394 
L 618.561884 216.689172 
L 620.599124 215.475405 
L 622.636364 223.593499 
L 622.636364 223.593499 
" clip-path="url(#p2fd68434df)" style="fill: none; stroke: #d00000; stroke-width: 1.5; stroke-linecap: square"/>
   </g>
   <g id="line2d_36">
    <path d="M 115.363636 336.878912 
L 117.400876 264.284482 
L 119.438116 285.747884 
L 121.475356 282.333475 
L 123.512596 281.835624 
L 125.549836 249.976486 
L 127.587076 258.503112 
L 129.624315 222.57636 
L 131.661555 215.875225 
L 133.698795 227.409369 
L 135.736035 216.3304 
L 137.773275 215.770368 
L 139.810515 206.368817 
L 141.847755 209.567864 
L 143.884995 212.50684 
L 145.922234 215.027048 
L 147.959474 224.158668 
L 149.996714 220.509622 
L 152.033954 205.251691 
L 154.071194 208.707201 
L 156.108434 208.561709 
L 158.145674 208.043147 
L 160.182913 210.882389 
L 162.220153 215.735625 
L 164.257393 225.96832 
L 166.294633 216.381614 
L 168.331873 212.98304 
L 170.369113 210.604845 
L 172.406353 209.12293 
L 174.443593 205.000185 
L 176.480832 217.309935 
L 178.518072 203.179483 
L 180.555312 203.457221 
L 182.592552 208.281472 
L 184.629792 203.602062 
L 186.667032 207.484204 
L 188.704272 207.601024 
L 190.741512 208.628551 
L 192.778751 198.461371 
L 196.853231 208.545275 
L 198.890471 204.128764 
L 200.927711 212.205851 
L 202.964951 208.088262 
L 205.002191 206.467583 
L 207.03943 202.233648 
L 209.07667 205.962439 
L 211.11391 206.487625 
L 213.15115 203.420751 
L 215.18839 210.486908 
L 217.22563 203.206497 
L 219.26287 207.274522 
L 221.30011 202.805232 
L 225.374589 206.265773 
L 227.411829 203.511749 
L 229.449069 208.679224 
L 231.486309 203.381951 
L 233.523549 186.344034 
L 235.560789 198.385541 
L 237.598028 182.129047 
L 239.635268 192.670109 
L 241.672508 185.378646 
L 243.709748 175.685865 
L 245.746988 174.100923 
L 247.784228 176.920886 
L 249.821468 192.540673 
L 251.858708 200.25077 
L 253.895947 197.12791 
L 255.933187 194.319019 
L 257.970427 187.412363 
L 260.007667 194.754262 
L 262.044907 182.793095 
L 264.082147 192.594453 
L 266.119387 196.83698 
L 268.156627 197.243865 
L 270.193866 193.420799 
L 272.231106 191.533572 
L 274.268346 200.350798 
L 276.305586 198.554796 
L 278.342826 187.454951 
L 280.380066 198.64835 
L 282.417306 183.931711 
L 284.454545 179.407938 
L 286.491785 165.686346 
L 288.529025 182.662389 
L 290.566265 190.197488 
L 292.603505 178.157115 
L 294.640745 186.304996 
L 296.677985 175.004947 
L 298.715225 166.931675 
L 300.752464 179.308547 
L 302.789704 173.959802 
L 304.826944 197.055283 
L 306.864184 196.920957 
L 308.901424 197.737597 
L 310.938664 194.540678 
L 312.975904 176.230663 
L 315.013143 193.283198 
L 317.050383 192.224839 
L 319.087623 163.249131 
L 321.124863 188.585929 
L 323.162103 200.14933 
L 325.199343 185.449272 
L 327.236583 182.8038 
L 329.273823 189.107818 
L 331.311062 179.721869 
L 333.348302 189.074301 
L 335.385542 189.484955 
L 337.422782 194.746515 
L 339.460022 178.255869 
L 341.497262 183.016582 
L 343.534502 170.372514 
L 345.571742 176.364251 
L 347.608981 158.774174 
L 349.646221 162.961116 
L 351.683461 170.661139 
L 353.720701 167.802823 
L 355.757941 158.134683 
L 357.795181 140.14191 
L 359.832421 168.017802 
L 361.86966 155.434815 
L 363.9069 162.5651 
L 365.94414 166.605607 
L 367.98138 175.302309 
L 370.01862 169.919871 
L 372.05586 162.32751 
L 374.0931 183.097552 
L 376.13034 156.82125 
L 378.167579 164.746102 
L 380.204819 165.41849 
L 382.242059 151.985305 
L 384.279299 165.277478 
L 386.316539 134.844637 
L 388.353779 154.875078 
L 390.391019 146.962303 
L 392.428258 139.945914 
L 394.465498 132.154197 
L 396.502738 139.906394 
L 398.539978 138.426967 
L 400.577218 139.519352 
L 402.614458 138.948506 
L 404.651698 134.305293 
L 406.688938 147.934464 
L 408.726177 151.409129 
L 410.763417 143.839356 
L 412.800657 165.772644 
L 414.837897 129.788427 
L 416.875137 142.351642 
L 418.912377 149.013977 
L 420.949617 152.165126 
L 422.986857 161.593881 
L 425.024096 153.94762 
L 427.061336 139.531859 
L 429.098576 139.460021 
L 431.135816 141.255514 
L 433.173056 151.64248 
L 435.210296 159.062326 
L 437.247536 156.287005 
L 439.284775 153.892032 
L 441.322015 156.883275 
L 443.359255 140.756258 
L 445.396495 142.280427 
L 447.433735 157.507219 
L 449.470975 150.091395 
L 451.508215 153.373615 
L 453.545455 151.077446 
L 455.582694 172.168199 
L 457.619934 172.886193 
L 459.657174 141.323718 
L 461.694414 154.688622 
L 463.731654 148.888685 
L 465.768894 138.018538 
L 467.806134 156.016734 
L 469.843373 177.005337 
L 471.880613 147.998565 
L 473.917853 153.36433 
L 475.955093 150.775377 
L 477.992333 162.049588 
L 480.029573 151.501447 
L 482.066813 132.039726 
L 484.104053 140.0862 
L 486.141292 133.921099 
L 488.178532 145.189867 
L 490.215772 148.090581 
L 492.253012 154.49549 
L 494.290252 127.064232 
L 496.327492 149.026336 
L 498.364732 121.684431 
L 500.401972 134.960631 
L 502.439211 134.542389 
L 504.476451 120.309246 
L 506.513691 134.761651 
L 508.550931 130.925155 
L 510.588171 132.043502 
L 512.625411 149.331469 
L 514.662651 131.117611 
L 516.69989 122.303573 
L 518.73713 143.634614 
L 520.77437 138.532815 
L 522.81161 134.891948 
L 524.84885 140.380705 
L 526.88609 127.141691 
L 528.92333 137.515674 
L 530.96057 133.827742 
L 532.997809 116.671775 
L 535.035049 123.607148 
L 537.072289 131.048582 
L 539.109529 129.179517 
L 541.146769 126.98235 
L 543.184009 123.945315 
L 545.221249 127.002026 
L 547.258488 110.701076 
L 551.332968 135.07763 
L 553.370208 128.706523 
L 555.407448 109.892672 
L 557.444688 125.907185 
L 559.481928 121.795971 
L 561.519168 127.328244 
L 563.556407 122.473613 
L 565.593647 122.723838 
L 567.630887 119.310695 
L 569.668127 114.70096 
L 571.705367 136.192639 
L 573.742607 113.974681 
L 575.779847 129.181902 
L 577.817087 132.884918 
L 579.854326 128.599795 
L 581.891566 133.630278 
L 583.928806 123.566975 
L 585.966046 153.357421 
L 588.003286 129.369983 
L 590.040526 126.461536 
L 592.077766 119.958429 
L 594.115005 122.323086 
L 596.152245 142.555145 
L 598.189485 132.659907 
L 600.226725 120.118813 
L 602.263965 129.491677 
L 606.338445 125.115452 
L 608.375685 127.286168 
L 610.412924 122.21216 
L 612.450164 124.906071 
L 614.487404 130.78182 
L 616.524644 131.702285 
L 618.561884 124.02218 
L 620.599124 135.987364 
L 622.636364 137.106427 
L 622.636364 137.106427 
" clip-path="url(#p2fd68434df)" style="fill: none; stroke: #38b000; stroke-width: 1.5; stroke-linecap: square"/>
   </g>
   <g id="line2d_37">
    <path d="M 115.363636 327.945295 
L 117.400876 297.654124 
L 119.438116 270.735363 
L 121.475356 262.217183 
L 123.512596 236.200037 
L 125.549836 229.13855 
L 127.587076 205.856573 
L 129.624315 226.950765 
L 131.661555 226.265688 
L 133.698795 216.122944 
L 135.736035 212.702216 
L 137.773275 212.111198 
L 139.810515 160.722894 
L 141.847755 187.314364 
L 143.884995 159.945181 
L 145.922234 165.924916 
L 147.959474 138.300186 
L 149.996714 143.952682 
L 152.033954 153.030241 
L 154.071194 128.2165 
L 156.108434 130.739095 
L 158.145674 118.081491 
L 160.182913 96.457803 
L 162.220153 98.229276 
L 164.257393 97.079013 
L 166.294633 95.556153 
L 168.331873 97.15309 
L 170.369113 99.647315 
L 172.406353 96.479199 
L 174.443593 96.743849 
L 176.480832 96.61134 
L 178.518072 124.515454 
L 180.555312 100.386342 
L 182.592552 97.791279 
L 184.629792 98.063774 
L 186.667032 103.37131 
L 188.704272 105.528952 
L 190.741512 98.707994 
L 192.778751 98.446271 
L 194.815991 94.876242 
L 196.853231 89.690831 
L 198.890471 98.084507 
L 200.927711 97.206518 
L 202.964951 88.709954 
L 205.002191 84.173838 
L 207.03943 81.841663 
L 209.07667 85.049793 
L 211.11391 85.000272 
L 213.15115 87.385306 
L 215.18839 84.636033 
L 217.22563 88.397631 
L 221.30011 83.74666 
L 223.337349 79.902719 
L 225.374589 85.178796 
L 227.411829 82.581072 
L 229.449069 84.316025 
L 231.486309 84.759109 
L 233.523549 88.286842 
L 235.560789 84.691042 
L 237.598028 84.285078 
L 241.672508 88.028056 
L 243.709748 83.237461 
L 245.746988 83.452034 
L 247.784228 81.809045 
L 249.821468 77.984581 
L 251.858708 84.246194 
L 255.933187 81.199256 
L 257.970427 84.101293 
L 260.007667 80.745801 
L 262.044907 84.779246 
L 264.082147 79.984239 
L 266.119387 82.316834 
L 268.156627 80.387257 
L 270.193866 83.647588 
L 272.231106 82.609064 
L 274.268346 82.123497 
L 276.305586 84.532319 
L 278.342826 84.194729 
L 280.380066 83.412997 
L 282.417306 82.025852 
L 284.454545 82.145812 
L 286.491785 81.754755 
L 288.529025 82.302379 
L 290.566265 83.123907 
L 292.603505 81.350485 
L 294.640745 81.544918 
L 296.677985 82.943138 
L 298.715225 79.870317 
L 300.752464 79.675475 
L 302.789704 81.934777 
L 306.864184 80.032028 
L 308.901424 81.90064 
L 310.938664 80.110856 
L 312.975904 83.624897 
L 315.013143 79.324612 
L 317.050383 80.971674 
L 319.087623 81.767805 
L 321.124863 81.640288 
L 323.162103 81.14276 
L 325.199343 81.188495 
L 327.236583 81.963121 
L 329.273823 79.993176 
L 331.311062 79.858142 
L 333.348302 80.267383 
L 337.422782 79.546167 
L 339.460022 84.192236 
L 341.497262 79.577692 
L 343.534502 83.157984 
L 345.571742 79.87681 
L 347.608981 83.863006 
L 349.646221 81.065083 
L 351.683461 81.130336 
L 353.720701 80.179597 
L 355.757941 81.975139 
L 357.795181 77.031973 
L 359.832421 80.458681 
L 361.86966 78.505356 
L 363.9069 80.171472 
L 365.94414 80.709497 
L 367.98138 78.912551 
L 370.01862 81.842937 
L 372.05586 80.483051 
L 374.0931 82.907861 
L 376.13034 79.69235 
L 378.167579 77.954206 
L 380.204819 77.901327 
L 382.242059 78.527207 
L 384.279299 78.534217 
L 386.316539 80.330222 
L 388.353779 79.015348 
L 390.391019 79.358892 
L 392.428258 81.202704 
L 394.465498 76.874326 
L 396.502738 75.497532 
L 398.539978 78.036156 
L 400.577218 79.100082 
L 402.614458 81.226249 
L 404.651698 78.289764 
L 406.688938 79.394615 
L 408.726177 76.240841 
L 410.763417 78.684625 
L 412.800657 79.704549 
L 414.837897 81.652763 
L 416.875137 79.740859 
L 418.912377 78.085949 
L 420.949617 78.478246 
L 422.986857 75.933298 
L 425.024096 80.218444 
L 427.061336 79.603109 
L 429.098576 76.019165 
L 431.135816 78.545149 
L 433.173056 76.461482 
L 435.210296 77.743936 
L 437.247536 77.747708 
L 439.284775 76.99423 
L 441.322015 77.898483 
L 443.359255 77.061686 
L 445.396495 77.376905 
L 447.433735 76.073768 
L 449.470975 75.826874 
L 451.508215 79.420929 
L 453.545455 76.033333 
L 455.582694 74.273915 
L 457.619934 74.509766 
L 459.657174 79.445463 
L 461.694414 76.343235 
L 463.731654 76.599648 
L 465.768894 77.510795 
L 467.806134 76.304887 
L 469.843373 78.430762 
L 471.880613 76.913253 
L 473.917853 76.218083 
L 475.955093 76.528297 
L 477.992333 78.208168 
L 480.029573 78.904652 
L 482.066813 75.151869 
L 484.104053 75.979144 
L 486.141292 78.510773 
L 488.178532 77.425214 
L 490.215772 78.433237 
L 492.253012 76.591816 
L 494.290252 75.673018 
L 496.327492 77.694101 
L 498.364732 75.170038 
L 500.401972 75.67508 
L 502.439211 77.270974 
L 504.476451 75.504433 
L 506.513691 77.753872 
L 508.550931 76.354638 
L 510.588171 77.55449 
L 512.625411 76.65151 
L 514.662651 77.999285 
L 516.69989 76.469516 
L 518.73713 75.179253 
L 520.77437 75.393898 
L 522.81161 74.651346 
L 524.84885 77.581316 
L 526.88609 74.760431 
L 528.92333 76.306718 
L 530.96057 77.232158 
L 532.997809 75.196377 
L 535.035049 73.988937 
L 537.072289 74.218953 
L 539.109529 78.211861 
L 541.146769 76.651129 
L 543.184009 78.063399 
L 545.221249 77.307131 
L 547.258488 76.892487 
L 549.295728 76.713186 
L 551.332968 75.687559 
L 553.370208 78.818399 
L 555.407448 78.190448 
L 557.444688 75.275698 
L 559.481928 77.509095 
L 561.519168 75.570677 
L 563.556407 76.725181 
L 565.593647 78.148835 
L 567.630887 76.985199 
L 569.668127 74.813878 
L 571.705367 77.663264 
L 573.742607 75.916658 
L 575.779847 77.336968 
L 577.817087 76.2842 
L 579.854326 77.987842 
L 583.928806 78.083281 
L 585.966046 76.040368 
L 588.003286 77.104946 
L 590.040526 73.296159 
L 592.077766 75.866915 
L 594.115005 75.798902 
L 596.152245 75.902083 
L 598.189485 79.565114 
L 600.226725 79.465925 
L 602.263965 78.210565 
L 604.301205 79.376775 
L 606.338445 76.131206 
L 608.375685 78.589877 
L 610.412924 76.938613 
L 612.450164 76.513282 
L 614.487404 76.337266 
L 616.524644 76.986687 
L 618.561884 75.267018 
L 620.599124 76.193905 
L 622.636364 77.296861 
L 622.636364 77.296861 
" clip-path="url(#p2fd68434df)" style="fill: none; stroke: #023e8a; stroke-width: 1.5; stroke-linecap: square"/>
   </g>
   <g id="patch_3">
    <path d="M 90 384.48 
L 90 51.84 
" style="fill: none; stroke: #000000; stroke-width: 0.8; stroke-linejoin: miter; stroke-linecap: square"/>
   </g>
   <g id="patch_4">
    <path d="M 648 384.48 
L 648 51.84 
" style="fill: none; stroke: #000000; stroke-width: 0.8; stroke-linejoin: miter; stroke-linecap: square"/>
   </g>
   <g id="patch_5">
    <path d="M 90 384.48 
L 648 384.48 
" style="fill: none; stroke: #000000; stroke-width: 0.8; stroke-linejoin: miter; stroke-linecap: square"/>
   </g>
   <g id="patch_6">
    <path d="M 90 51.84 
L 648 51.84 
" style="fill: none; stroke: #000000; stroke-width: 0.8; stroke-linejoin: miter; stroke-linecap: square"/>
   </g>
   <g id="text_20">
    <!-- Lunar Lander OnPolicy Training Progress -->
    <g transform="translate(248.544375 45.84) scale(0.12 -0.12)">
     <defs>
      <path id="DejaVuSans-4c" d="M 628 4666 
L 1259 4666 
L 1259 531 
L 3531 531 
L 3531 0 
L 628 0 
L 628 4666 
z
" transform="scale(0.015625)"/>
      <path id="DejaVuSans-64" d="M 2906 2969 
L 2906 4863 
L 3481 4863 
L 3481 0 
L 2906 0 
L 2906 525 
Q 2725 213 2448 61 
Q 2172 -91 1784 -91 
Q 1150 -91 751 415 
Q 353 922 353 1747 
Q 353 2572 751 3078 
Q 1150 3584 1784 3584 
Q 2172 3584 2448 3432 
Q 2725 3281 2906 2969 
z
M 947 1747 
Q 947 1113 1208 752 
Q 1469 391 1925 391 
Q 2381 391 2643 752 
Q 2906 1113 2906 1747 
Q 2906 2381 2643 2742 
Q 2381 3103 1925 3103 
Q 1469 3103 1208 2742 
Q 947 2381 947 1747 
z
" transform="scale(0.015625)"/>
      <path id="DejaVuSans-4f" d="M 2522 4238 
Q 1834 4238 1429 3725 
Q 1025 3213 1025 2328 
Q 1025 1447 1429 934 
Q 1834 422 2522 422 
Q 3209 422 3611 934 
Q 4013 1447 4013 2328 
Q 4013 3213 3611 3725 
Q 3209 4238 2522 4238 
z
M 2522 4750 
Q 3503 4750 4090 4092 
Q 4678 3434 4678 2328 
Q 4678 1225 4090 567 
Q 3503 -91 2522 -91 
Q 1538 -91 948 565 
Q 359 1222 359 2328 
Q 359 3434 948 4092 
Q 1538 4750 2522 4750 
z
" transform="scale(0.015625)"/>
      <path id="DejaVuSans-50" d="M 1259 4147 
L 1259 2394 
L 2053 2394 
Q 2494 2394 2734 2622 
Q 2975 2850 2975 3272 
Q 2975 3691 2734 3919 
Q 2494 4147 2053 4147 
L 1259 4147 
z
M 628 4666 
L 2053 4666 
Q 2838 4666 3239 4311 
Q 3641 3956 3641 3272 
Q 3641 2581 3239 2228 
Q 2838 1875 2053 1875 
L 1259 1875 
L 1259 0 
L 628 0 
L 628 4666 
z
" transform="scale(0.015625)"/>
      <path id="DejaVuSans-6f" d="M 1959 3097 
Q 1497 3097 1228 2736 
Q 959 2375 959 1747 
Q 959 1119 1226 758 
Q 1494 397 1959 397 
Q 2419 397 2687 759 
Q 2956 1122 2956 1747 
Q 2956 2369 2687 2733 
Q 2419 3097 1959 3097 
z
M 1959 3584 
Q 2709 3584 3137 3096 
Q 3566 2609 3566 1747 
Q 3566 888 3137 398 
Q 2709 -91 1959 -91 
Q 1206 -91 779 398 
Q 353 888 353 1747 
Q 353 2609 779 3096 
Q 1206 3584 1959 3584 
z
" transform="scale(0.015625)"/>
      <path id="DejaVuSans-6c" d="M 603 4863 
L 1178 4863 
L 1178 0 
L 603 0 
L 603 4863 
z
" transform="scale(0.015625)"/>
      <path id="DejaVuSans-63" d="M 3122 3366 
L 3122 2828 
Q 2878 2963 2633 3030 
Q 2388 3097 2138 3097 
Q 1578 3097 1268 2742 
Q 959 2388 959 1747 
Q 959 1106 1268 751 
Q 1578 397 2138 397 
Q 2388 397 2633 464 
Q 2878 531 3122 666 
L 3122 134 
Q 2881 22 2623 -34 
Q 2366 -91 2075 -91 
Q 1284 -91 818 406 
Q 353 903 353 1747 
Q 353 2603 823 3093 
Q 1294 3584 2113 3584 
Q 2378 3584 2631 3529 
Q 2884 3475 3122 3366 
z
" transform="scale(0.015625)"/>
      <path id="DejaVuSans-79" d="M 2059 -325 
Q 1816 -950 1584 -1140 
Q 1353 -1331 966 -1331 
L 506 -1331 
L 506 -850 
L 844 -850 
Q 1081 -850 1212 -737 
Q 1344 -625 1503 -206 
L 1606 56 
L 191 3500 
L 800 3500 
L 1894 763 
L 2988 3500 
L 3597 3500 
L 2059 -325 
z
" transform="scale(0.015625)"/>
     </defs>
     <use xlink:href="#DejaVuSans-4c"/>
     <use xlink:href="#DejaVuSans-75" transform="translate(53.962891 0)"/>
     <use xlink:href="#DejaVuSans-6e" transform="translate(117.341797 0)"/>
     <use xlink:href="#DejaVuSans-61" transform="translate(180.720703 0)"/>
     <use xlink:href="#DejaVuSans-72" transform="translate(242 0)"/>
     <use xlink:href="#DejaVuSans-20" transform="translate(283.113281 0)"/>
     <use xlink:href="#DejaVuSans-4c" transform="translate(314.900391 0)"/>
     <use xlink:href="#DejaVuSans-61" transform="translate(370.613281 0)"/>
     <use xlink:href="#DejaVuSans-6e" transform="translate(431.892578 0)"/>
     <use xlink:href="#DejaVuSans-64" transform="translate(495.271484 0)"/>
     <use xlink:href="#DejaVuSans-65" transform="translate(558.748047 0)"/>
     <use xlink:href="#DejaVuSans-72" transform="translate(620.271484 0)"/>
     <use xlink:href="#DejaVuSans-20" transform="translate(661.384766 0)"/>
     <use xlink:href="#DejaVuSans-4f" transform="translate(693.171875 0)"/>
     <use xlink:href="#DejaVuSans-6e" transform="translate(771.882812 0)"/>
     <use xlink:href="#DejaVuSans-50" transform="translate(835.261719 0)"/>
     <use xlink:href="#DejaVuSans-6f" transform="translate(891.939453 0)"/>
     <use xlink:href="#DejaVuSans-6c" transform="translate(953.121094 0)"/>
     <use xlink:href="#DejaVuSans-69" transform="translate(980.904297 0)"/>
     <use xlink:href="#DejaVuSans-63" transform="translate(1008.6875 0)"/>
     <use xlink:href="#DejaVuSans-79" transform="translate(1063.667969 0)"/>
     <use xlink:href="#DejaVuSans-20" transform="translate(1122.847656 0)"/>
     <use xlink:href="#DejaVuSans-54" transform="translate(1154.634766 0)"/>
     <use xlink:href="#DejaVuSans-72" transform="translate(1200.96875 0)"/>
     <use xlink:href="#DejaVuSans-61" transform="translate(1242.082031 0)"/>
     <use xlink:href="#DejaVuSans-69" transform="translate(1303.361328 0)"/>
     <use xlink:href="#DejaVuSans-6e" transform="translate(1331.144531 0)"/>
     <use xlink:href="#DejaVuSans-69" transform="translate(1394.523438 0)"/>
     <use xlink:href="#DejaVuSans-6e" transform="translate(1422.306641 0)"/>
     <use xlink:href="#DejaVuSans-67" transform="translate(1485.685547 0)"/>
     <use xlink:href="#DejaVuSans-20" transform="translate(1549.162109 0)"/>
     <use xlink:href="#DejaVuSans-50" transform="translate(1580.949219 0)"/>
     <use xlink:href="#DejaVuSans-72" transform="translate(1639.501953 0)"/>
     <use xlink:href="#DejaVuSans-6f" transform="translate(1678.365234 0)"/>
     <use xlink:href="#DejaVuSans-67" transform="translate(1739.546875 0)"/>
     <use xlink:href="#DejaVuSans-72" transform="translate(1803.023438 0)"/>
     <use xlink:href="#DejaVuSans-65" transform="translate(1841.886719 0)"/>
     <use xlink:href="#DejaVuSans-73" transform="translate(1903.410156 0)"/>
     <use xlink:href="#DejaVuSans-73" transform="translate(1955.509766 0)"/>
    </g>
   </g>
   <g id="legend_1">
    <g id="patch_7">
     <path d="M 557.19375 379.48 
L 641 379.48 
Q 643 379.48 643 377.48 
L 643 334.445625 
Q 643 332.445625 641 332.445625 
L 557.19375 332.445625 
Q 555.19375 332.445625 555.19375 334.445625 
L 555.19375 377.48 
Q 555.19375 379.48 557.19375 379.48 
z
" style="fill: #ffffff; opacity: 0.8; stroke: #cccccc; stroke-linejoin: miter"/>
    </g>
    <g id="line2d_38">
     <path d="M 559.19375 340.544062 
L 569.19375 340.544062 
L 579.19375 340.544062 
" style="fill: none; stroke: #d00000; stroke-width: 1.5; stroke-linecap: square"/>
    </g>
    <g id="text_21">
     <!-- DDPG IQM -->
     <g transform="translate(587.19375 344.044062) scale(0.1 -0.1)">
      <defs>
       <path id="DejaVuSans-44" d="M 1259 4147 
L 1259 519 
L 2022 519 
Q 2988 519 3436 956 
Q 3884 1394 3884 2338 
Q 3884 3275 3436 3711 
Q 2988 4147 2022 4147 
L 1259 4147 
z
M 628 4666 
L 1925 4666 
Q 3281 4666 3915 4102 
Q 4550 3538 4550 2338 
Q 4550 1131 3912 565 
Q 3275 0 1925 0 
L 628 0 
L 628 4666 
z
" transform="scale(0.015625)"/>
       <path id="DejaVuSans-47" d="M 3809 666 
L 3809 1919 
L 2778 1919 
L 2778 2438 
L 4434 2438 
L 4434 434 
Q 4069 175 3628 42 
Q 3188 -91 2688 -91 
Q 1594 -91 976 548 
Q 359 1188 359 2328 
Q 359 3472 976 4111 
Q 1594 4750 2688 4750 
Q 3144 4750 3555 4637 
Q 3966 4525 4313 4306 
L 4313 3634 
Q 3963 3931 3569 4081 
Q 3175 4231 2741 4231 
Q 1884 4231 1454 3753 
Q 1025 3275 1025 2328 
Q 1025 1384 1454 906 
Q 1884 428 2741 428 
Q 3075 428 3337 486 
Q 3600 544 3809 666 
z
" transform="scale(0.015625)"/>
       <path id="DejaVuSans-49" d="M 628 4666 
L 1259 4666 
L 1259 0 
L 628 0 
L 628 4666 
z
" transform="scale(0.015625)"/>
       <path id="DejaVuSans-51" d="M 2522 4238 
Q 1834 4238 1429 3725 
Q 1025 3213 1025 2328 
Q 1025 1447 1429 934 
Q 1834 422 2522 422 
Q 3209 422 3611 934 
Q 4013 1447 4013 2328 
Q 4013 3213 3611 3725 
Q 3209 4238 2522 4238 
z
M 3406 84 
L 4238 -825 
L 3475 -825 
L 2784 -78 
Q 2681 -84 2626 -87 
Q 2572 -91 2522 -91 
Q 1538 -91 948 567 
Q 359 1225 359 2328 
Q 359 3434 948 4092 
Q 1538 4750 2522 4750 
Q 3503 4750 4090 4092 
Q 4678 3434 4678 2328 
Q 4678 1516 4351 937 
Q 4025 359 3406 84 
z
" transform="scale(0.015625)"/>
       <path id="DejaVuSans-4d" d="M 628 4666 
L 1569 4666 
L 2759 1491 
L 3956 4666 
L 4897 4666 
L 4897 0 
L 4281 0 
L 4281 4097 
L 3078 897 
L 2444 897 
L 1241 4097 
L 1241 0 
L 628 0 
L 628 4666 
z
" transform="scale(0.015625)"/>
      </defs>
      <use xlink:href="#DejaVuSans-44"/>
      <use xlink:href="#DejaVuSans-44" transform="translate(77.001953 0)"/>
      <use xlink:href="#DejaVuSans-50" transform="translate(154.003906 0)"/>
      <use xlink:href="#DejaVuSans-47" transform="translate(214.306641 0)"/>
      <use xlink:href="#DejaVuSans-20" transform="translate(291.796875 0)"/>
      <use xlink:href="#DejaVuSans-49" transform="translate(323.583984 0)"/>
      <use xlink:href="#DejaVuSans-51" transform="translate(353.076172 0)"/>
      <use xlink:href="#DejaVuSans-4d" transform="translate(431.787109 0)"/>
     </g>
    </g>
    <g id="line2d_39">
     <path d="M 559.19375 355.222188 
L 569.19375 355.222188 
L 579.19375 355.222188 
" style="fill: none; stroke: #38b000; stroke-width: 1.5; stroke-linecap: square"/>
    </g>
    <g id="text_22">
     <!-- SAC IQM -->
     <g transform="translate(587.19375 358.722188) scale(0.1 -0.1)">
      <defs>
       <path id="DejaVuSans-41" d="M 2188 4044 
L 1331 1722 
L 3047 1722 
L 2188 4044 
z
M 1831 4666 
L 2547 4666 
L 4325 0 
L 3669 0 
L 3244 1197 
L 1141 1197 
L 716 0 
L 50 0 
L 1831 4666 
z
" transform="scale(0.015625)"/>
       <path id="DejaVuSans-43" d="M 4122 4306 
L 4122 3641 
Q 3803 3938 3442 4084 
Q 3081 4231 2675 4231 
Q 1875 4231 1450 3742 
Q 1025 3253 1025 2328 
Q 1025 1406 1450 917 
Q 1875 428 2675 428 
Q 3081 428 3442 575 
Q 3803 722 4122 1019 
L 4122 359 
Q 3791 134 3420 21 
Q 3050 -91 2638 -91 
Q 1578 -91 968 557 
Q 359 1206 359 2328 
Q 359 3453 968 4101 
Q 1578 4750 2638 4750 
Q 3056 4750 3426 4639 
Q 3797 4528 4122 4306 
z
" transform="scale(0.015625)"/>
      </defs>
      <use xlink:href="#DejaVuSans-53"/>
      <use xlink:href="#DejaVuSans-41" transform="translate(65.351562 0)"/>
      <use xlink:href="#DejaVuSans-43" transform="translate(132.009766 0)"/>
      <use xlink:href="#DejaVuSans-20" transform="translate(201.833984 0)"/>
      <use xlink:href="#DejaVuSans-49" transform="translate(233.621094 0)"/>
      <use xlink:href="#DejaVuSans-51" transform="translate(263.113281 0)"/>
      <use xlink:href="#DejaVuSans-4d" transform="translate(341.824219 0)"/>
     </g>
    </g>
    <g id="line2d_40">
     <path d="M 559.19375 369.900312 
L 569.19375 369.900312 
L 579.19375 369.900312 
" style="fill: none; stroke: #023e8a; stroke-width: 1.5; stroke-linecap: square"/>
    </g>
    <g id="text_23">
     <!-- AFU IQM -->
     <g transform="translate(587.19375 373.400312) scale(0.1 -0.1)">
      <defs>
       <path id="DejaVuSans-46" d="M 628 4666 
L 3309 4666 
L 3309 4134 
L 1259 4134 
L 1259 2759 
L 3109 2759 
L 3109 2228 
L 1259 2228 
L 1259 0 
L 628 0 
L 628 4666 
z
" transform="scale(0.015625)"/>
       <path id="DejaVuSans-55" d="M 556 4666 
L 1191 4666 
L 1191 1831 
Q 1191 1081 1462 751 
Q 1734 422 2344 422 
Q 2950 422 3222 751 
Q 3494 1081 3494 1831 
L 3494 4666 
L 4128 4666 
L 4128 1753 
Q 4128 841 3676 375 
Q 3225 -91 2344 -91 
Q 1459 -91 1007 375 
Q 556 841 556 1753 
L 556 4666 
z
" transform="scale(0.015625)"/>
      </defs>
      <use xlink:href="#DejaVuSans-41"/>
      <use xlink:href="#DejaVuSans-46" transform="translate(68.408203 0)"/>
      <use xlink:href="#DejaVuSans-55" transform="translate(125.927734 0)"/>
      <use xlink:href="#DejaVuSans-20" transform="translate(199.121094 0)"/>
      <use xlink:href="#DejaVuSans-49" transform="translate(230.908203 0)"/>
      <use xlink:href="#DejaVuSans-51" transform="translate(260.400391 0)"/>
      <use xlink:href="#DejaVuSans-4d" transform="translate(339.111328 0)"/>
     </g>
    </g>
   </g>
  </g>
 </g>
 <defs>
  <clipPath id="p2fd68434df">
   <rect x="90" y="51.84" width="558" height="332.64"/>
  </clipPath>
 </defs>
</svg>
