<?xml version="1.0" encoding="utf-8" standalone="no"?>
<!DOCTYPE svg PUBLIC "-//W3C//DTD SVG 1.1//EN"
  "http://www.w3.org/Graphics/SVG/1.1/DTD/svg11.dtd">
<svg xmlns:xlink="http://www.w3.org/1999/xlink" width="426.264882pt" height="426.145899pt" viewBox="0 0 426.264882 426.145899" xmlns="http://www.w3.org/2000/svg" version="1.1">
 <metadata>
  <rdf:RDF xmlns:dc="http://purl.org/dc/elements/1.1/" xmlns:cc="http://creativecommons.org/ns#" xmlns:rdf="http://www.w3.org/1999/02/22-rdf-syntax-ns#">
   <cc:Work>
    <dc:type rdf:resource="http://purl.org/dc/dcmitype/StillImage"/>
    <dc:date>1980-01-01T00:00:00+00:00</dc:date>
    <dc:format>image/svg+xml</dc:format>
    <dc:creator>
     <cc:Agent>
      <dc:title>Matplotlib v3.8.0, https://matplotlib.org/</dc:title>
     </cc:Agent>
    </dc:creator>
   </cc:Work>
  </rdf:RDF>
 </metadata>
 <defs>
  <style type="text/css">*{stroke-linejoin: round; stroke-linecap: butt}</style>
 </defs>
 <g id="figure_1">
  <g id="patch_1">
   <path d="M 0 426.145899 
L 426.264882 426.145899 
L 426.264882 0 
L 0 0 
z
" style="fill: #ffffff"/>
  </g>
  <g id="axes_1">
   <g id="patch_2">
    <path d="M 79.526574 376.064204 
L 417.523879 376.064204 
L 417.523879 9.955247 
L 79.526574 9.955247 
z
" style="fill: #ffffff"/>
   </g>
   <g id="PolyCollection_1">
    <defs>
     <path id="m1e692c9d19" d="M 94.890088 -344.645562 
L 94.890088 -324.350406 
L 96.124105 -273.914146 
L 97.358123 -164.326619 
L 98.59214 -126.407737 
L 99.826157 -229.492692 
L 101.060174 -231.60424 
L 102.294191 -214.287268 
L 103.528209 -249.956198 
L 104.762226 -278.284671 
L 105.996243 -337.186559 
L 107.23026 -290.883528 
L 108.464277 -294.367774 
L 109.698294 -270.228544 
L 110.932312 -272.98179 
L 112.166329 -299.254339 
L 113.400346 -261.875585 
L 114.634363 -258.82392 
L 115.86838 -289.779086 
L 117.102397 -277.114914 
L 118.336415 -271.619217 
L 119.570432 -266.188915 
L 120.804449 -268.327395 
L 122.038466 -282.476778 
L 123.272483 -293.196196 
L 124.506501 -281.850298 
L 125.740518 -288.458619 
L 126.974535 -297.220283 
L 128.208552 -290.320296 
L 129.442569 -273.980479 
L 130.676586 -267.674263 
L 131.910604 -281.041969 
L 133.144621 -271.320724 
L 134.378638 -293.342177 
L 135.612655 -286.47801 
L 136.846672 -295.299992 
L 138.08069 -308.433339 
L 139.314707 -289.013603 
L 140.548724 -291.957424 
L 141.782741 -290.326692 
L 143.016758 -265.085123 
L 144.250775 -298.785928 
L 145.484793 -284.470735 
L 146.71881 -288.277726 
L 147.952827 -300.922964 
L 149.186844 -300.342675 
L 150.420861 -313.688587 
L 151.654878 -320.494055 
L 152.888896 -317.036468 
L 154.122913 -344.394915 
L 155.35693 -326.422898 
L 156.590947 -303.797313 
L 157.824964 -306.340045 
L 159.058982 -311.65866 
L 160.292999 -319.25015 
L 161.527016 -342.988153 
L 162.761033 -301.068795 
L 163.99505 -356.799333 
L 165.229067 -307.801558 
L 166.463085 -327.954554 
L 167.697102 -314.746646 
L 168.931119 -331.476955 
L 170.165136 -357.618162 
L 171.399153 -366.013675 
L 172.63317 -359.078868 
L 173.867188 -344.044454 
L 175.101205 -330.606667 
L 176.335222 -340.754637 
L 177.569239 -332.010705 
L 178.803256 -315.468736 
L 180.037274 -337.970713 
L 181.271291 -337.288837 
L 182.505308 -322.618419 
L 183.739325 -320.325987 
L 184.973342 -340.500966 
L 186.207359 -323.419904 
L 187.441377 -341.052699 
L 188.675394 -316.173709 
L 189.909411 -309.68003 
L 191.143428 -328.558108 
L 192.377445 -314.098993 
L 193.611463 -329.075988 
L 194.84548 -304.507164 
L 196.079497 -337.209869 
L 197.313514 -332.75044 
L 198.547531 -325.809409 
L 199.781548 -331.434385 
L 201.015566 -329.718302 
L 202.249583 -333.669022 
L 203.4836 -321.121575 
L 204.717617 -331.966572 
L 205.951634 -355.212512 
L 207.185651 -317.913363 
L 208.419669 -335.720806 
L 209.653686 -316.797086 
L 210.887703 -329.429423 
L 212.12172 -326.635827 
L 213.355737 -335.560955 
L 214.589755 -271.958658 
L 215.823772 -303.01375 
L 217.057789 -312.960819 
L 218.291806 -330.713206 
L 219.525823 -326.702305 
L 220.75984 -269.901976 
L 221.993858 -345.035293 
L 223.227875 -316.485496 
L 224.461892 -321.278142 
L 225.695909 -301.209257 
L 226.929926 -319.760324 
L 228.163944 -265.89471 
L 229.397961 -311.684482 
L 230.631978 -332.873469 
L 231.865995 -230.182649 
L 233.100012 -276.190808 
L 234.334029 -292.993311 
L 235.568047 -280.38453 
L 236.802064 -297.393676 
L 238.036081 -256.920255 
L 239.270098 -251.068807 
L 240.504115 -321.817064 
L 241.738132 -283.338582 
L 242.97215 -267.181394 
L 244.206167 -308.505263 
L 245.440184 -263.222297 
L 246.674201 -288.025523 
L 247.908218 -257.555926 
L 249.142236 -258.67168 
L 250.376253 -262.086005 
L 251.61027 -264.106859 
L 252.844287 -227.391791 
L 254.078304 -250.025142 
L 255.312321 -240.740578 
L 256.546339 -279.938771 
L 257.780356 -230.481808 
L 259.014373 -250.987111 
L 260.24839 -263.393844 
L 261.482407 -274.179755 
L 262.716424 -260.997529 
L 263.950442 -254.744001 
L 265.184459 -247.180377 
L 266.418476 -250.963746 
L 267.652493 -247.83091 
L 268.88651 -247.480279 
L 270.120528 -239.369368 
L 271.354545 -253.327526 
L 272.588562 -261.525884 
L 273.822579 -236.747165 
L 275.056596 -263.783382 
L 276.290613 -267.215114 
L 277.524631 -228.138984 
L 278.758648 -244.239543 
L 279.992665 -234.904925 
L 281.226682 -248.646961 
L 282.460699 -222.045303 
L 283.694717 -228.468799 
L 284.928734 -237.062151 
L 286.162751 -231.930577 
L 287.396768 -241.362835 
L 288.630785 -225.395799 
L 289.864802 -232.703209 
L 291.09882 -230.948489 
L 292.332837 -218.90639 
L 293.566854 -236.651756 
L 294.800871 -229.985186 
L 296.034888 -234.690172 
L 297.268905 -224.908074 
L 298.502923 -222.837195 
L 299.73694 -226.500094 
L 300.970957 -238.071675 
L 302.204974 -210.852015 
L 303.438991 -227.802536 
L 304.673009 -214.273756 
L 305.907026 -224.71006 
L 307.141043 -224.056681 
L 308.37506 -227.090593 
L 309.609077 -231.659255 
L 310.843094 -236.200239 
L 312.077112 -235.677546 
L 313.311129 -240.347686 
L 314.545146 -252.33223 
L 315.779163 -243.869585 
L 317.01318 -235.061716 
L 318.247197 -243.656817 
L 319.481215 -229.647717 
L 320.715232 -246.337899 
L 321.949249 -235.637434 
L 323.183266 -232.706698 
L 324.417283 -237.883633 
L 325.651301 -243.750066 
L 326.885318 -238.510896 
L 328.119335 -244.760708 
L 329.353352 -223.589048 
L 330.587369 -232.458947 
L 331.821386 -229.970557 
L 333.055404 -220.590679 
L 334.289421 -244.276274 
L 335.523438 -219.602149 
L 336.757455 -210.98453 
L 337.991472 -234.525371 
L 339.22549 -228.964101 
L 340.459507 -222.213954 
L 341.693524 -253.707347 
L 342.927541 -235.947247 
L 344.161558 -231.521666 
L 345.395575 -235.243518 
L 346.629593 -247.622042 
L 347.86361 -219.692227 
L 349.097627 -246.75082 
L 350.331644 -231.682812 
L 351.565661 -229.629156 
L 352.799678 -246.081088 
L 354.033696 -232.858244 
L 355.267713 -247.546369 
L 356.50173 -253.56648 
L 357.735747 -240.705322 
L 358.969764 -236.886354 
L 360.203782 -263.15351 
L 361.437799 -242.626961 
L 362.671816 -223.745672 
L 363.905833 -241.121556 
L 365.13985 -250.553843 
L 366.373867 -233.136555 
L 367.607885 -231.547195 
L 368.841902 -248.602803 
L 370.075919 -296.414104 
L 371.309936 -234.958024 
L 372.543953 -233.270576 
L 373.777971 -236.870246 
L 375.011988 -244.576955 
L 376.246005 -254.155337 
L 377.480022 -252.328322 
L 378.714039 -226.27703 
L 379.948056 -243.314337 
L 381.182074 -231.473803 
L 382.416091 -233.785527 
L 383.650108 -236.402777 
L 384.884125 -244.836662 
L 386.118142 -232.665103 
L 387.352159 -232.254562 
L 388.586177 -246.241273 
L 389.820194 -225.555092 
L 391.054211 -253.993608 
L 392.288228 -218.649733 
L 393.522245 -240.871838 
L 394.756263 -221.496347 
L 395.99028 -226.688506 
L 397.224297 -267.496737 
L 398.458314 -261.592126 
L 399.692331 -243.243713 
L 400.926348 -236.497107 
L 402.160366 -229.993423 
L 402.160366 -320.166105 
L 402.160366 -320.166105 
L 400.926348 -351.66258 
L 399.692331 -327.574966 
L 398.458314 -326.469244 
L 397.224297 -350.398913 
L 395.99028 -335.763855 
L 394.756263 -313.367786 
L 393.522245 -351.25068 
L 392.288228 -305.540532 
L 391.054211 -318.527496 
L 389.820194 -322.331249 
L 388.586177 -326.127936 
L 387.352159 -349.555421 
L 386.118142 -346.905163 
L 384.884125 -352.573265 
L 383.650108 -331.923121 
L 382.416091 -317.576447 
L 381.182074 -355.411715 
L 379.948056 -338.562485 
L 378.714039 -323.55784 
L 377.480022 -344.072351 
L 376.246005 -342.286228 
L 375.011988 -364.940843 
L 373.777971 -333.122353 
L 372.543953 -314.023469 
L 371.309936 -325.147383 
L 370.075919 -351.679713 
L 368.841902 -336.763507 
L 367.607885 -323.358902 
L 366.373867 -356.912211 
L 365.13985 -372.613505 
L 363.905833 -351.271233 
L 362.671816 -341.70844 
L 361.437799 -293.298759 
L 360.203782 -320.416999 
L 358.969764 -337.027392 
L 357.735747 -349.669073 
L 356.50173 -337.086645 
L 355.267713 -349.130598 
L 354.033696 -313.314237 
L 352.799678 -305.783615 
L 351.565661 -327.67018 
L 350.331644 -312.387895 
L 349.097627 -342.622652 
L 347.86361 -278.15303 
L 346.629593 -297.060419 
L 345.395575 -281.534925 
L 344.161558 -303.484306 
L 342.927541 -348.742171 
L 341.693524 -347.60511 
L 340.459507 -289.144744 
L 339.22549 -286.892769 
L 337.991472 -303.773537 
L 336.757455 -271.408584 
L 335.523438 -254.39952 
L 334.289421 -315.604239 
L 333.055404 -282.017189 
L 331.821386 -304.45228 
L 330.587369 -315.307743 
L 329.353352 -314.54226 
L 328.119335 -334.944937 
L 326.885318 -317.660925 
L 325.651301 -321.300952 
L 324.417283 -288.762326 
L 323.183266 -304.918005 
L 321.949249 -306.21343 
L 320.715232 -333.719738 
L 319.481215 -310.318843 
L 318.247197 -360.106391 
L 317.01318 -296.401138 
L 315.779163 -318.279778 
L 314.545146 -331.151546 
L 313.311129 -293.858247 
L 312.077112 -310.7621 
L 310.843094 -298.579317 
L 309.609077 -309.176088 
L 308.37506 -273.564275 
L 307.141043 -330.875931 
L 305.907026 -274.241366 
L 304.673009 -295.85732 
L 303.438991 -291.602635 
L 302.204974 -272.540596 
L 300.970957 -343.141281 
L 299.73694 -294.884795 
L 298.502923 -306.441917 
L 297.268905 -299.407861 
L 296.034888 -295.692342 
L 294.800871 -324.358563 
L 293.566854 -319.552989 
L 292.332837 -278.011916 
L 291.09882 -319.924378 
L 289.864802 -310.757473 
L 288.630785 -340.468835 
L 287.396768 -355.835145 
L 286.162751 -307.206774 
L 284.928734 -311.085234 
L 283.694717 -324.588263 
L 282.460699 -316.561358 
L 281.226682 -328.251318 
L 279.992665 -316.784091 
L 278.758648 -333.669096 
L 277.524631 -304.557477 
L 276.290613 -334.950381 
L 275.056596 -316.961409 
L 273.822579 -330.552956 
L 272.588562 -347.778951 
L 271.354545 -326.176297 
L 270.120528 -351.905746 
L 268.88651 -306.02066 
L 267.652493 -331.210488 
L 266.418476 -329.42075 
L 265.184459 -339.921816 
L 263.950442 -353.756135 
L 262.716424 -329.758095 
L 261.482407 -334.227629 
L 260.24839 -370.461025 
L 259.014373 -333.887969 
L 257.780356 -351.56055 
L 256.546339 -367.591767 
L 255.312321 -305.685379 
L 254.078304 -310.054028 
L 252.844287 -350.40105 
L 251.61027 -352.302112 
L 250.376253 -359.632728 
L 249.142236 -340.05029 
L 247.908218 -351.988676 
L 246.674201 -378.870004 
L 245.440184 -353.677473 
L 244.206167 -359.645836 
L 242.97215 -365.344503 
L 241.738132 -371.514076 
L 240.504115 -370.752122 
L 239.270098 -325.69328 
L 238.036081 -369.629413 
L 236.802064 -376.989808 
L 235.568047 -359.489654 
L 234.334029 -367.742356 
L 233.100012 -374.017658 
L 231.865995 -363.637864 
L 230.631978 -376.686428 
L 229.397961 -373.997138 
L 228.163944 -373.352769 
L 226.929926 -365.222623 
L 225.695909 -381.683592 
L 224.461892 -370.598084 
L 223.227875 -380.568602 
L 221.993858 -378.546665 
L 220.75984 -354.677684 
L 219.525823 -379.98033 
L 218.291806 -374.640091 
L 217.057789 -379.013914 
L 215.823772 -371.882476 
L 214.589755 -347.176653 
L 213.355737 -379.722582 
L 212.12172 -377.434142 
L 210.887703 -380.482838 
L 209.653686 -380.882565 
L 208.419669 -380.619147 
L 207.185651 -385.789055 
L 205.951634 -384.469166 
L 204.717617 -381.94639 
L 203.4836 -376.358796 
L 202.249583 -378.249168 
L 201.015566 -382.597898 
L 199.781548 -380.218832 
L 198.547531 -379.155457 
L 197.313514 -382.783926 
L 196.079497 -379.308435 
L 194.84548 -384.169634 
L 193.611463 -381.611107 
L 192.377445 -385.455975 
L 191.143428 -380.647473 
L 189.909411 -377.235689 
L 188.675394 -383.253574 
L 187.441377 -380.81869 
L 186.207359 -382.624769 
L 184.973342 -383.823562 
L 183.739325 -380.378401 
L 182.505308 -379.53333 
L 181.271291 -377.859497 
L 180.037274 -379.405857 
L 178.803256 -377.005819 
L 177.569239 -382.128621 
L 176.335222 -382.98168 
L 175.101205 -379.672997 
L 173.867188 -378.170605 
L 172.63317 -382.184213 
L 171.399153 -381.340117 
L 170.165136 -385.87411 
L 168.931119 -381.63161 
L 167.697102 -377.835026 
L 166.463085 -379.758709 
L 165.229067 -379.559723 
L 163.99505 -385.361654 
L 162.761033 -374.140931 
L 161.527016 -378.089096 
L 160.292999 -385.196615 
L 159.058982 -379.601902 
L 157.824964 -360.969512 
L 156.590947 -377.907331 
L 155.35693 -381.536771 
L 154.122913 -381.746556 
L 152.888896 -376.920832 
L 151.654878 -380.319573 
L 150.420861 -368.288765 
L 149.186844 -371.861693 
L 147.952827 -377.463206 
L 146.71881 -374.266024 
L 145.484793 -370.857906 
L 144.250775 -365.843557 
L 143.016758 -375.874915 
L 141.782741 -372.443186 
L 140.548724 -379.959786 
L 139.314707 -373.194369 
L 138.08069 -380.008695 
L 136.846672 -375.10546 
L 135.612655 -378.432138 
L 134.378638 -374.990741 
L 133.144621 -358.352883 
L 131.910604 -378.762849 
L 130.676586 -340.301146 
L 129.442569 -371.847285 
L 128.208552 -367.804576 
L 126.974535 -372.352899 
L 125.740518 -374.279652 
L 124.506501 -382.285573 
L 123.272483 -364.965962 
L 122.038466 -349.730489 
L 120.804449 -364.900524 
L 119.570432 -366.585115 
L 118.336415 -367.605731 
L 117.102397 -374.649886 
L 115.86838 -363.076025 
L 114.634363 -339.534997 
L 113.400346 -354.231664 
L 112.166329 -377.170046 
L 110.932312 -380.841592 
L 109.698294 -381.27785 
L 108.464277 -376.879334 
L 107.23026 -378.31084 
L 105.996243 -382.63932 
L 104.762226 -368.298282 
L 103.528209 -346.540796 
L 102.294191 -334.46276 
L 101.060174 -323.027938 
L 99.826157 -287.698044 
L 98.59214 -214.166807 
L 97.358123 -240.446677 
L 96.124105 -322.668186 
L 94.890088 -344.645562 
z
" style="stroke: #d66b6a; stroke-opacity: 0.2"/>
    </defs>
    <g clip-path="url(#p45b8668636)">
     <use xlink:href="#m1e692c9d19" x="0" y="426.145899" style="fill: #d66b6a; fill-opacity: 0.2; stroke: #d66b6a; stroke-opacity: 0.2"/>
    </g>
   </g>
   <g id="PolyCollection_2">
    <defs>
     <path id="me40f00264b" d="M 94.890088 -380.099896 
L 94.890088 -349.776908 
L 96.124105 -221.554307 
L 97.358123 -234.742466 
L 98.59214 -309.210557 
L 99.826157 -291.82702 
L 101.060174 -316.0056 
L 102.294191 -236.464737 
L 103.528209 -200.837111 
L 104.762226 -144.532391 
L 105.996243 -252.805709 
L 107.23026 -168.29085 
L 108.464277 -234.427534 
L 109.698294 -218.83776 
L 110.932312 -230.941653 
L 112.166329 -245.872406 
L 113.400346 -223.972661 
L 114.634363 -227.310071 
L 115.86838 -245.320801 
L 117.102397 -247.114395 
L 118.336415 -235.238667 
L 119.570432 -249.130462 
L 120.804449 -235.211989 
L 122.038466 -217.658033 
L 123.272483 -239.006551 
L 124.506501 -231.867138 
L 125.740518 -230.819195 
L 126.974535 -250.114287 
L 128.208552 -261.646877 
L 129.442569 -236.389626 
L 130.676586 -186.507799 
L 131.910604 -238.593391 
L 133.144621 -239.86633 
L 134.378638 -209.757952 
L 135.612655 -229.030637 
L 136.846672 -230.922564 
L 138.08069 -240.045041 
L 139.314707 -204.931836 
L 140.548724 -225.054668 
L 141.782741 -226.42578 
L 143.016758 -237.283768 
L 144.250775 -246.573472 
L 145.484793 -240.527013 
L 146.71881 -231.027173 
L 147.952827 -238.657585 
L 149.186844 -227.544435 
L 150.420861 -220.880885 
L 151.654878 -212.891051 
L 152.888896 -235.488083 
L 154.122913 -224.052458 
L 155.35693 -218.885273 
L 156.590947 -199.784183 
L 157.824964 -211.011319 
L 159.058982 -193.336351 
L 160.292999 -195.74308 
L 161.527016 -206.590402 
L 162.761033 -182.281367 
L 163.99505 -216.744429 
L 165.229067 -210.337736 
L 166.463085 -212.970919 
L 167.697102 -199.839452 
L 168.931119 -202.748538 
L 170.165136 -209.290074 
L 171.399153 -181.657202 
L 172.63317 -199.514391 
L 173.867188 -209.381988 
L 175.101205 -202.40937 
L 176.335222 -188.03457 
L 177.569239 -205.777541 
L 178.803256 -177.59654 
L 180.037274 -201.560262 
L 181.271291 -163.664539 
L 182.505308 -179.618508 
L 183.739325 -189.162249 
L 184.973342 -184.928035 
L 186.207359 -192.741116 
L 187.441377 -169.451582 
L 188.675394 -186.467494 
L 189.909411 -172.246838 
L 191.143428 -167.557144 
L 192.377445 -151.957683 
L 193.611463 -149.114399 
L 194.84548 -153.255443 
L 196.079497 -157.298664 
L 197.313514 -157.74534 
L 198.547531 -204.915385 
L 199.781548 -192.028344 
L 201.015566 -186.117912 
L 202.249583 -194.141999 
L 203.4836 -186.026398 
L 204.717617 -177.456559 
L 205.951634 -200.644667 
L 207.185651 -115.278038 
L 208.419669 -219.478039 
L 209.653686 -208.49436 
L 210.887703 -180.465852 
L 212.12172 -202.849558 
L 213.355737 -192.431445 
L 214.589755 -208.811934 
L 215.823772 -210.358521 
L 217.057789 -207.454422 
L 218.291806 -187.109148 
L 219.525823 -213.387282 
L 220.75984 -208.028206 
L 221.993858 -233.032162 
L 223.227875 -225.389179 
L 224.461892 -226.933316 
L 225.695909 -208.818073 
L 226.929926 -225.12822 
L 228.163944 -245.620804 
L 229.397961 -245.549817 
L 230.631978 -218.942882 
L 231.865995 -227.022344 
L 233.100012 -223.804915 
L 234.334029 -208.84752 
L 235.568047 -217.954364 
L 236.802064 -219.402565 
L 238.036081 -228.931773 
L 239.270098 -213.457933 
L 240.504115 -236.678542 
L 241.738132 -219.266545 
L 242.97215 -239.883671 
L 244.206167 -250.062838 
L 245.440184 -218.337179 
L 246.674201 -207.347397 
L 247.908218 -232.347036 
L 249.142236 -215.023035 
L 250.376253 -247.64983 
L 251.61027 -251.775929 
L 252.844287 -225.054712 
L 254.078304 -256.996944 
L 255.312321 -217.94517 
L 256.546339 -248.909621 
L 257.780356 -248.213196 
L 259.014373 -262.42439 
L 260.24839 -260.083956 
L 261.482407 -221.82772 
L 262.716424 -243.863217 
L 263.950442 -243.389114 
L 265.184459 -230.51139 
L 266.418476 -259.670014 
L 267.652493 -257.580618 
L 268.88651 -260.037517 
L 270.120528 -254.264918 
L 271.354545 -240.22839 
L 272.588562 -228.325187 
L 273.822579 -228.146088 
L 275.056596 -244.126418 
L 276.290613 -254.568003 
L 277.524631 -243.274536 
L 278.758648 -240.591592 
L 279.992665 -233.5516 
L 281.226682 -237.974953 
L 282.460699 -236.20414 
L 283.694717 -220.678284 
L 284.928734 -227.832418 
L 286.162751 -234.61339 
L 287.396768 -225.974909 
L 288.630785 -245.375154 
L 289.864802 -272.664831 
L 291.09882 -253.378818 
L 292.332837 -234.805742 
L 293.566854 -261.400009 
L 294.800871 -263.718102 
L 296.034888 -263.386061 
L 297.268905 -253.573445 
L 298.502923 -231.080247 
L 299.73694 -266.529543 
L 300.970957 -200.567559 
L 302.204974 -245.706055 
L 303.438991 -243.266965 
L 304.673009 -226.395605 
L 305.907026 -251.724834 
L 307.141043 -262.871841 
L 308.37506 -255.539697 
L 309.609077 -233.103683 
L 310.843094 -256.07176 
L 312.077112 -249.432003 
L 313.311129 -234.551828 
L 314.545146 -257.559574 
L 315.779163 -269.712422 
L 317.01318 -244.630493 
L 318.247197 -254.895089 
L 319.481215 -238.769374 
L 320.715232 -233.744897 
L 321.949249 -246.893795 
L 323.183266 -235.539711 
L 324.417283 -221.532538 
L 325.651301 -243.118869 
L 326.885318 -249.136461 
L 328.119335 -233.084378 
L 329.353352 -234.015752 
L 330.587369 -243.17337 
L 331.821386 -220.530109 
L 333.055404 -232.632728 
L 334.289421 -234.41961 
L 335.523438 -247.969683 
L 336.757455 -232.688208 
L 337.991472 -250.503945 
L 339.22549 -221.339302 
L 340.459507 -239.710908 
L 341.693524 -241.136016 
L 342.927541 -232.463478 
L 344.161558 -215.221558 
L 345.395575 -233.741206 
L 346.629593 -243.094906 
L 347.86361 -237.407929 
L 349.097627 -231.471482 
L 350.331644 -219.675231 
L 351.565661 -258.104805 
L 352.799678 -245.227979 
L 354.033696 -215.460605 
L 355.267713 -215.973903 
L 356.50173 -252.479788 
L 357.735747 -219.920979 
L 358.969764 -220.668105 
L 360.203782 -225.010948 
L 361.437799 -215.206601 
L 362.671816 -215.593481 
L 363.905833 -221.155305 
L 365.13985 -226.123759 
L 366.373867 -218.724106 
L 367.607885 -225.427326 
L 368.841902 -215.453376 
L 370.075919 -249.159715 
L 371.309936 -219.873595 
L 372.543953 -179.763248 
L 373.777971 -219.607787 
L 375.011988 -252.516419 
L 376.246005 -205.398302 
L 377.480022 -206.367776 
L 378.714039 -259.475184 
L 379.948056 -171.402558 
L 381.182074 -234.419143 
L 382.416091 -227.728313 
L 383.650108 -179.334641 
L 384.884125 -230.37366 
L 386.118142 -194.930797 
L 387.352159 -202.57181 
L 388.586177 -219.287055 
L 389.820194 -158.890808 
L 391.054211 -164.869303 
L 392.288228 -181.979938 
L 393.522245 -267.749054 
L 394.756263 -196.324172 
L 395.99028 -217.434564 
L 397.224297 -242.452823 
L 398.458314 -213.049665 
L 399.692331 -210.976075 
L 400.926348 -209.424087 
L 402.160366 -204.610131 
L 402.160366 -311.860294 
L 402.160366 -311.860294 
L 400.926348 -343.422199 
L 399.692331 -323.555714 
L 398.458314 -327.938045 
L 397.224297 -324.243369 
L 395.99028 -334.075435 
L 394.756263 -361.644433 
L 393.522245 -355.084983 
L 392.288228 -355.900513 
L 391.054211 -326.742873 
L 389.820194 -354.816758 
L 388.586177 -351.881767 
L 387.352159 -326.864007 
L 386.118142 -333.03717 
L 384.884125 -354.819665 
L 383.650108 -323.659354 
L 382.416091 -334.543242 
L 381.182074 -351.409136 
L 379.948056 -345.467402 
L 378.714039 -296.586013 
L 377.480022 -357.838351 
L 376.246005 -316.606703 
L 375.011988 -324.529884 
L 373.777971 -306.107947 
L 372.543953 -331.529213 
L 371.309936 -362.249391 
L 370.075919 -353.30043 
L 368.841902 -317.735687 
L 367.607885 -315.660712 
L 366.373867 -336.727681 
L 365.13985 -332.969567 
L 363.905833 -333.562362 
L 362.671816 -297.701164 
L 361.437799 -313.428607 
L 360.203782 -320.189807 
L 358.969764 -309.223884 
L 357.735747 -324.662339 
L 356.50173 -357.637266 
L 355.267713 -327.380773 
L 354.033696 -342.155352 
L 352.799678 -309.868043 
L 351.565661 -327.347552 
L 350.331644 -334.203673 
L 349.097627 -313.47671 
L 347.86361 -323.622788 
L 346.629593 -313.363092 
L 345.395575 -325.932078 
L 344.161558 -343.124064 
L 342.927541 -351.080494 
L 341.693524 -327.299756 
L 340.459507 -321.011387 
L 339.22549 -330.667407 
L 337.991472 -332.015302 
L 336.757455 -345.870354 
L 335.523438 -338.510448 
L 334.289421 -348.881101 
L 333.055404 -318.448138 
L 331.821386 -306.374708 
L 330.587369 -334.445482 
L 329.353352 -311.877509 
L 328.119335 -334.756097 
L 326.885318 -349.276156 
L 325.651301 -317.188258 
L 324.417283 -333.359483 
L 323.183266 -328.45381 
L 321.949249 -340.621818 
L 320.715232 -309.050478 
L 319.481215 -341.61512 
L 318.247197 -346.148904 
L 317.01318 -327.145216 
L 315.779163 -366.877391 
L 314.545146 -329.461671 
L 313.311129 -314.996962 
L 312.077112 -344.318315 
L 310.843094 -336.818994 
L 309.609077 -318.612339 
L 308.37506 -320.585544 
L 307.141043 -343.28187 
L 305.907026 -334.828785 
L 304.673009 -329.298748 
L 303.438991 -329.152073 
L 302.204974 -307.487109 
L 300.970957 -312.551971 
L 299.73694 -339.390674 
L 298.502923 -309.268124 
L 297.268905 -326.62784 
L 296.034888 -311.461679 
L 294.800871 -314.332901 
L 293.566854 -306.794997 
L 292.332837 -310.084055 
L 291.09882 -323.23017 
L 289.864802 -332.7691 
L 288.630785 -346.407017 
L 287.396768 -326.885558 
L 286.162751 -318.877309 
L 284.928734 -313.997048 
L 283.694717 -300.152579 
L 282.460699 -315.811036 
L 281.226682 -323.573704 
L 279.992665 -320.814627 
L 278.758648 -330.410536 
L 277.524631 -310.128638 
L 276.290613 -317.03769 
L 275.056596 -320.250035 
L 273.822579 -317.304325 
L 272.588562 -299.106539 
L 271.354545 -332.270991 
L 270.120528 -324.16279 
L 268.88651 -314.898854 
L 267.652493 -311.250788 
L 266.418476 -321.472675 
L 265.184459 -320.301441 
L 263.950442 -320.298781 
L 262.716424 -321.869682 
L 261.482407 -320.632657 
L 260.24839 -321.694693 
L 259.014373 -315.053493 
L 257.780356 -299.267625 
L 256.546339 -306.936596 
L 255.312321 -300.77195 
L 254.078304 -331.224367 
L 252.844287 -295.585281 
L 251.61027 -303.595788 
L 250.376253 -298.85347 
L 249.142236 -302.400108 
L 247.908218 -304.209977 
L 246.674201 -319.420275 
L 245.440184 -301.824542 
L 244.206167 -312.774611 
L 242.97215 -309.620455 
L 241.738132 -312.375069 
L 240.504115 -321.520138 
L 239.270098 -314.985485 
L 238.036081 -304.016384 
L 236.802064 -315.360144 
L 235.568047 -304.870248 
L 234.334029 -306.82779 
L 233.100012 -304.691733 
L 231.865995 -318.032718 
L 230.631978 -318.558875 
L 229.397961 -321.878601 
L 228.163944 -316.513606 
L 226.929926 -333.617967 
L 225.695909 -294.353667 
L 224.461892 -331.868777 
L 223.227875 -325.558786 
L 221.993858 -319.975466 
L 220.75984 -296.719028 
L 219.525823 -319.942549 
L 218.291806 -281.268438 
L 217.057789 -301.691115 
L 215.823772 -292.012627 
L 214.589755 -285.110361 
L 213.355737 -297.496128 
L 212.12172 -302.012877 
L 210.887703 -271.682811 
L 209.653686 -297.02641 
L 208.419669 -287.729758 
L 207.185651 -285.397979 
L 205.951634 -294.994831 
L 204.717617 -271.243307 
L 203.4836 -283.445404 
L 202.249583 -285.355932 
L 201.015566 -277.646075 
L 199.781548 -292.962851 
L 198.547531 -301.156539 
L 197.313514 -312.574999 
L 196.079497 -272.405742 
L 194.84548 -278.312139 
L 193.611463 -282.600457 
L 192.377445 -285.243585 
L 191.143428 -281.047284 
L 189.909411 -293.686174 
L 188.675394 -293.515712 
L 187.441377 -292.974236 
L 186.207359 -272.090129 
L 184.973342 -276.743949 
L 183.739325 -293.358107 
L 182.505308 -286.906487 
L 181.271291 -307.617384 
L 180.037274 -299.423257 
L 178.803256 -269.966031 
L 177.569239 -263.578847 
L 176.335222 -306.473353 
L 175.101205 -293.967973 
L 173.867188 -291.403374 
L 172.63317 -280.810049 
L 171.399153 -291.654036 
L 170.165136 -290.985429 
L 168.931119 -293.787122 
L 167.697102 -295.593044 
L 166.463085 -292.317722 
L 165.229067 -320.924665 
L 163.99505 -296.365625 
L 162.761033 -287.633176 
L 161.527016 -298.116754 
L 160.292999 -297.775758 
L 159.058982 -333.452861 
L 157.824964 -322.192608 
L 156.590947 -333.738853 
L 155.35693 -304.877512 
L 154.122913 -309.91192 
L 152.888896 -314.986448 
L 151.654878 -285.93617 
L 150.420861 -310.458641 
L 149.186844 -331.98286 
L 147.952827 -300.544194 
L 146.71881 -290.54043 
L 145.484793 -317.229307 
L 144.250775 -324.906987 
L 143.016758 -343.555923 
L 141.782741 -321.753257 
L 140.548724 -334.488558 
L 139.314707 -319.210825 
L 138.08069 -312.983911 
L 136.846672 -327.924845 
L 135.612655 -329.442455 
L 134.378638 -328.903961 
L 133.144621 -305.421383 
L 131.910604 -303.58183 
L 130.676586 -315.296099 
L 129.442569 -311.488673 
L 128.208552 -319.735529 
L 126.974535 -304.131728 
L 125.740518 -320.681422 
L 124.506501 -322.210361 
L 123.272483 -317.451557 
L 122.038466 -306.623505 
L 120.804449 -316.31547 
L 119.570432 -331.561578 
L 118.336415 -310.353801 
L 117.102397 -306.02501 
L 115.86838 -316.079058 
L 114.634363 -308.723176 
L 113.400346 -325.621018 
L 112.166329 -329.280157 
L 110.932312 -351.795978 
L 109.698294 -318.793503 
L 108.464277 -336.37693 
L 107.23026 -358.112677 
L 105.996243 -366.721116 
L 104.762226 -327.73847 
L 103.528209 -375.556823 
L 102.294191 -368.358977 
L 101.060174 -381.450922 
L 99.826157 -375.394479 
L 98.59214 -364.07928 
L 97.358123 -293.083461 
L 96.124105 -253.676262 
L 94.890088 -380.099896 
z
" style="stroke: #5591e1; stroke-opacity: 0.2"/>
    </defs>
    <g clip-path="url(#p45b8668636)">
     <use xlink:href="#me40f00264b" x="0" y="426.145899" style="fill: #5591e1; fill-opacity: 0.2; stroke: #5591e1; stroke-opacity: 0.2"/>
    </g>
   </g>
   <g id="PolyCollection_3">
    <defs>
     <path id="mbe4d256058" d="M 94.890088 -399.549336 
L 94.890088 -348.19084 
L 96.124105 -223.197808 
L 97.358123 -255.703553 
L 98.59214 -376.369439 
L 99.826157 -269.933371 
L 101.060174 -222.525208 
L 102.294191 -194.250554 
L 103.528209 -204.997259 
L 104.762226 -272.783069 
L 105.996243 -205.342077 
L 107.23026 -191.25592 
L 108.464277 -201.905016 
L 109.698294 -238.674538 
L 110.932312 -229.4287 
L 112.166329 -272.352755 
L 113.400346 -246.085763 
L 114.634363 -267.094173 
L 115.86838 -230.004348 
L 117.102397 -217.291159 
L 118.336415 -217.705833 
L 119.570432 -193.547757 
L 120.804449 -200.613106 
L 122.038466 -224.286519 
L 123.272483 -248.818242 
L 124.506501 -221.012135 
L 125.740518 -66.723011 
L 126.974535 -231.936692 
L 128.208552 -230.337735 
L 129.442569 -271.202506 
L 130.676586 -205.245889 
L 131.910604 -252.471555 
L 133.144621 -221.75837 
L 134.378638 -201.110961 
L 135.612655 -209.295804 
L 136.846672 -213.609208 
L 138.08069 -212.931133 
L 139.314707 -223.316149 
L 140.548724 -212.502866 
L 141.782741 -223.337792 
L 143.016758 -207.881684 
L 144.250775 -233.420331 
L 145.484793 -225.447039 
L 146.71881 -238.368593 
L 147.952827 -179.943046 
L 149.186844 -218.242399 
L 150.420861 -198.462101 
L 151.654878 -232.877352 
L 152.888896 -197.686152 
L 154.122913 -251.364397 
L 155.35693 -203.835549 
L 156.590947 -250.077509 
L 157.824964 -207.954505 
L 159.058982 -157.106976 
L 160.292999 -200.661265 
L 161.527016 -199.783571 
L 162.761033 -243.793602 
L 163.99505 -194.135612 
L 165.229067 -216.049006 
L 166.463085 -195.960698 
L 167.697102 -121.269139 
L 168.931119 -218.075469 
L 170.165136 -149.493322 
L 171.399153 -134.672978 
L 172.63317 -220.134766 
L 173.867188 -205.692198 
L 175.101205 -182.926129 
L 176.335222 -216.044358 
L 177.569239 -203.801028 
L 178.803256 -151.301647 
L 180.037274 -171.328033 
L 181.271291 -199.81825 
L 182.505308 -191.256167 
L 183.739325 -240.344656 
L 184.973342 -237.187579 
L 186.207359 -217.576466 
L 187.441377 -257.337195 
L 188.675394 -251.22197 
L 189.909411 -234.564314 
L 191.143428 -245.647057 
L 192.377445 -242.382625 
L 193.611463 -265.380972 
L 194.84548 -249.594219 
L 196.079497 -275.985465 
L 197.313514 -281.585691 
L 198.547531 -243.32447 
L 199.781548 -280.023285 
L 201.015566 -267.664006 
L 202.249583 -272.558824 
L 203.4836 -270.291359 
L 204.717617 -247.067452 
L 205.951634 -259.697121 
L 207.185651 -270.869167 
L 208.419669 -278.712482 
L 209.653686 -300.880688 
L 210.887703 -182.711276 
L 212.12172 -269.622637 
L 213.355737 -268.909633 
L 214.589755 -267.909755 
L 215.823772 -233.841528 
L 217.057789 -297.973211 
L 218.291806 -255.788972 
L 219.525823 -228.12657 
L 220.75984 -240.514599 
L 221.993858 -305.181213 
L 223.227875 -291.360371 
L 224.461892 -240.296234 
L 225.695909 -240.018085 
L 226.929926 -245.482477 
L 228.163944 -246.468254 
L 229.397961 -262.152329 
L 230.631978 -251.824836 
L 231.865995 -250.480821 
L 233.100012 -202.371091 
L 234.334029 -242.728953 
L 235.568047 -228.430646 
L 236.802064 -238.478431 
L 238.036081 -228.73375 
L 239.270098 -230.522606 
L 240.504115 -232.260617 
L 241.738132 -214.130438 
L 242.97215 -228.220624 
L 244.206167 -260.95381 
L 245.440184 -242.920782 
L 246.674201 -238.935379 
L 247.908218 -266.376646 
L 249.142236 -260.076511 
L 250.376253 -242.010272 
L 251.61027 -242.928672 
L 252.844287 -243.79384 
L 254.078304 -237.883319 
L 255.312321 -238.202002 
L 256.546339 -227.077402 
L 257.780356 -225.083795 
L 259.014373 -176.487433 
L 260.24839 -258.366337 
L 261.482407 -227.753245 
L 262.716424 -257.645521 
L 263.950442 -242.063304 
L 265.184459 -217.589258 
L 266.418476 -245.039801 
L 267.652493 -209.887831 
L 268.88651 -241.49179 
L 270.120528 -240.621233 
L 271.354545 -258.874378 
L 272.588562 -239.124629 
L 273.822579 -222.895195 
L 275.056596 -192.398521 
L 276.290613 -240.529507 
L 277.524631 -240.152812 
L 278.758648 -234.817933 
L 279.992665 -231.001732 
L 281.226682 -225.811241 
L 282.460699 -211.948251 
L 283.694717 -228.519459 
L 284.928734 -241.959071 
L 286.162751 -269.002741 
L 287.396768 -235.907334 
L 288.630785 -245.841113 
L 289.864802 -221.895495 
L 291.09882 -242.511714 
L 292.332837 -253.75463 
L 293.566854 -225.70809 
L 294.800871 -122.029197 
L 296.034888 -249.474549 
L 297.268905 -221.598047 
L 298.502923 -220.350135 
L 299.73694 -234.680278 
L 300.970957 -189.862342 
L 302.204974 -186.424633 
L 303.438991 -247.351312 
L 304.673009 -159.927693 
L 305.907026 -257.193329 
L 307.141043 -255.422389 
L 308.37506 -251.39315 
L 309.609077 -273.470128 
L 310.843094 -286.994595 
L 312.077112 -270.440614 
L 313.311129 -264.614542 
L 314.545146 -228.926142 
L 315.779163 -285.613248 
L 317.01318 -260.80239 
L 318.247197 -246.215329 
L 319.481215 -240.578234 
L 320.715232 -210.35837 
L 321.949249 -222.629172 
L 323.183266 -273.760331 
L 324.417283 -258.950189 
L 325.651301 -288.181607 
L 326.885318 -269.862477 
L 328.119335 -241.329083 
L 329.353352 -268.812446 
L 330.587369 -209.912215 
L 331.821386 -159.69938 
L 333.055404 -219.612001 
L 334.289421 -268.192786 
L 335.523438 -240.265529 
L 336.757455 -239.595986 
L 337.991472 -186.623117 
L 339.22549 -227.900113 
L 340.459507 -256.230446 
L 341.693524 -273.164059 
L 342.927541 -258.717305 
L 344.161558 -270.439607 
L 345.395575 -281.896437 
L 346.629593 -267.84873 
L 347.86361 -283.309166 
L 349.097627 -237.718564 
L 350.331644 -248.923719 
L 351.565661 -269.612655 
L 352.799678 -265.500386 
L 354.033696 -197.429345 
L 355.267713 -213.669031 
L 356.50173 -276.86713 
L 357.735747 -146.565357 
L 358.969764 -216.448766 
L 360.203782 -228.234589 
L 361.437799 -265.700657 
L 362.671816 -267.50191 
L 363.905833 -209.726916 
L 365.13985 -248.529239 
L 366.373867 -291.281637 
L 367.607885 -291.729195 
L 368.841902 -290.96339 
L 370.075919 -262.833832 
L 371.309936 -162.862418 
L 372.543953 -277.511137 
L 373.777971 -139.426317 
L 375.011988 -253.184645 
L 376.246005 -239.495377 
L 377.480022 -204.660475 
L 378.714039 -179.755314 
L 379.948056 -316.879114 
L 381.182074 -224.563523 
L 382.416091 -275.659359 
L 383.650108 -222.707991 
L 384.884125 -230.797352 
L 386.118142 -280.672172 
L 387.352159 -253.700163 
L 388.586177 -293.883044 
L 389.820194 -290.714744 
L 391.054211 -304.525005 
L 392.288228 -273.034562 
L 393.522245 -287.708133 
L 394.756263 -264.087048 
L 395.99028 -175.396916 
L 397.224297 -242.059801 
L 398.458314 -255.722515 
L 399.692331 -256.722228 
L 400.926348 -278.725811 
L 402.160366 -269.482354 
L 402.160366 -362.793905 
L 402.160366 -362.793905 
L 400.926348 -355.378937 
L 399.692331 -373.974652 
L 398.458314 -366.043067 
L 397.224297 -363.491787 
L 395.99028 -346.048853 
L 394.756263 -373.811003 
L 393.522245 -365.734269 
L 392.288228 -347.860335 
L 391.054211 -369.77578 
L 389.820194 -372.708624 
L 388.586177 -364.805909 
L 387.352159 -356.030614 
L 386.118142 -360.332009 
L 384.884125 -378.114129 
L 383.650108 -364.805478 
L 382.416091 -343.661523 
L 381.182074 -316.459706 
L 379.948056 -377.637809 
L 378.714039 -370.094081 
L 377.480022 -320.00546 
L 376.246005 -357.000963 
L 375.011988 -339.354433 
L 373.777971 -307.722156 
L 372.543953 -312.178649 
L 371.309936 -332.83017 
L 370.075919 -331.933325 
L 368.841902 -374.936115 
L 367.607885 -370.903421 
L 366.373867 -365.249851 
L 365.13985 -345.176993 
L 363.905833 -329.903882 
L 362.671816 -335.140129 
L 361.437799 -332.113424 
L 360.203782 -329.919076 
L 358.969764 -315.880707 
L 357.735747 -314.197608 
L 356.50173 -330.375374 
L 355.267713 -305.570953 
L 354.033696 -330.413321 
L 352.799678 -326.602657 
L 351.565661 -365.211915 
L 350.331644 -331.508718 
L 349.097627 -355.630429 
L 347.86361 -334.854799 
L 346.629593 -327.684896 
L 345.395575 -372.339597 
L 344.161558 -334.877989 
L 342.927541 -363.73543 
L 341.693524 -324.229115 
L 340.459507 -345.893659 
L 339.22549 -309.373061 
L 337.991472 -306.048305 
L 336.757455 -367.705185 
L 335.523438 -355.619991 
L 334.289421 -332.34775 
L 333.055404 -314.304466 
L 331.821386 -298.311937 
L 330.587369 -299.999008 
L 329.353352 -348.352394 
L 328.119335 -356.232727 
L 326.885318 -345.827017 
L 325.651301 -374.058331 
L 324.417283 -344.99145 
L 323.183266 -335.368532 
L 321.949249 -350.068871 
L 320.715232 -311.880599 
L 319.481215 -326.671472 
L 318.247197 -358.949028 
L 317.01318 -368.004755 
L 315.779163 -334.751464 
L 314.545146 -328.283735 
L 313.311129 -356.445857 
L 312.077112 -335.230129 
L 310.843094 -350.028687 
L 309.609077 -355.15623 
L 308.37506 -358.649401 
L 307.141043 -314.117633 
L 305.907026 -309.573482 
L 304.673009 -315.870641 
L 303.438991 -304.34746 
L 302.204974 -297.23754 
L 300.970957 -307.819261 
L 299.73694 -323.731541 
L 298.502923 -320.216549 
L 297.268905 -355.23353 
L 296.034888 -346.077854 
L 294.800871 -289.921607 
L 293.566854 -341.319887 
L 292.332837 -309.126967 
L 291.09882 -307.31132 
L 289.864802 -328.017584 
L 288.630785 -325.786093 
L 287.396768 -326.702527 
L 286.162751 -324.770436 
L 284.928734 -327.009814 
L 283.694717 -338.270719 
L 282.460699 -308.316445 
L 281.226682 -323.761743 
L 279.992665 -302.584228 
L 278.758648 -335.432578 
L 277.524631 -337.445834 
L 276.290613 -309.738363 
L 275.056596 -333.497016 
L 273.822579 -316.271999 
L 272.588562 -324.888691 
L 271.354545 -306.062207 
L 270.120528 -319.796327 
L 268.88651 -306.604472 
L 267.652493 -323.251694 
L 266.418476 -313.2796 
L 265.184459 -318.707971 
L 263.950442 -320.435891 
L 262.716424 -331.906974 
L 261.482407 -305.802105 
L 260.24839 -318.087464 
L 259.014373 -300.177182 
L 257.780356 -316.924403 
L 256.546339 -327.022814 
L 255.312321 -304.71152 
L 254.078304 -319.684503 
L 252.844287 -313.947294 
L 251.61027 -318.312867 
L 250.376253 -314.975982 
L 249.142236 -316.342416 
L 247.908218 -311.895551 
L 246.674201 -315.999769 
L 245.440184 -315.651564 
L 244.206167 -342.029448 
L 242.97215 -338.591564 
L 241.738132 -298.047399 
L 240.504115 -294.180923 
L 239.270098 -338.492255 
L 238.036081 -309.814663 
L 236.802064 -364.406936 
L 235.568047 -329.724549 
L 234.334029 -319.655265 
L 233.100012 -326.241744 
L 231.865995 -349.104044 
L 230.631978 -342.29797 
L 229.397961 -332.117121 
L 228.163944 -293.735854 
L 226.929926 -315.755223 
L 225.695909 -346.003165 
L 224.461892 -324.569756 
L 223.227875 -358.192699 
L 221.993858 -339.662009 
L 220.75984 -313.49588 
L 219.525823 -340.052126 
L 218.291806 -335.686254 
L 217.057789 -367.431246 
L 215.823772 -351.35561 
L 214.589755 -347.064893 
L 213.355737 -341.103149 
L 212.12172 -337.015147 
L 210.887703 -342.87652 
L 209.653686 -341.584566 
L 208.419669 -331.473394 
L 207.185651 -340.290309 
L 205.951634 -319.300711 
L 204.717617 -322.566194 
L 203.4836 -339.727203 
L 202.249583 -320.914716 
L 201.015566 -317.385104 
L 199.781548 -321.87722 
L 198.547531 -321.443213 
L 197.313514 -340.285749 
L 196.079497 -326.670144 
L 194.84548 -343.189119 
L 193.611463 -325.916153 
L 192.377445 -311.182705 
L 191.143428 -323.052327 
L 189.909411 -286.729052 
L 188.675394 -300.351475 
L 187.441377 -323.745174 
L 186.207359 -298.838297 
L 184.973342 -301.740579 
L 183.739325 -310.606236 
L 182.505308 -260.701817 
L 181.271291 -310.926993 
L 180.037274 -304.305856 
L 178.803256 -299.287963 
L 177.569239 -291.866649 
L 176.335222 -297.504668 
L 175.101205 -282.719097 
L 173.867188 -296.198004 
L 172.63317 -321.209729 
L 171.399153 -294.529693 
L 170.165136 -324.74292 
L 168.931119 -291.74227 
L 167.697102 -277.812497 
L 166.463085 -286.457246 
L 165.229067 -313.268312 
L 163.99505 -292.874937 
L 162.761033 -300.304675 
L 161.527016 -307.572536 
L 160.292999 -315.697013 
L 159.058982 -296.842821 
L 157.824964 -319.434248 
L 156.590947 -321.957383 
L 155.35693 -299.415999 
L 154.122913 -323.210798 
L 152.888896 -285.782127 
L 151.654878 -335.83735 
L 150.420861 -301.722602 
L 149.186844 -317.188015 
L 147.952827 -275.176747 
L 146.71881 -304.670537 
L 145.484793 -312.335888 
L 144.250775 -322.019062 
L 143.016758 -308.501259 
L 141.782741 -310.472255 
L 140.548724 -314.074372 
L 139.314707 -339.683285 
L 138.08069 -326.518601 
L 136.846672 -335.679373 
L 135.612655 -325.674025 
L 134.378638 -320.228294 
L 133.144621 -331.68208 
L 131.910604 -330.087944 
L 130.676586 -326.841067 
L 129.442569 -348.0918 
L 128.208552 -336.084465 
L 126.974535 -319.356822 
L 125.740518 -318.732276 
L 124.506501 -311.949233 
L 123.272483 -337.943793 
L 122.038466 -322.416824 
L 120.804449 -309.265937 
L 119.570432 -325.186557 
L 118.336415 -303.78006 
L 117.102397 -299.160444 
L 115.86838 -308.681121 
L 114.634363 -352.29981 
L 113.400346 -359.609398 
L 112.166329 -372.511452 
L 110.932312 -355.272161 
L 109.698294 -346.554888 
L 108.464277 -314.026004 
L 107.23026 -256.979506 
L 105.996243 -295.599609 
L 104.762226 -324.367676 
L 103.528209 -304.066995 
L 102.294191 -324.243366 
L 101.060174 -302.342434 
L 99.826157 -363.898721 
L 98.59214 -382.496526 
L 97.358123 -376.465192 
L 96.124105 -288.335432 
L 94.890088 -399.549336 
z
" style="stroke: #6ca247; stroke-opacity: 0.2"/>
    </defs>
    <g clip-path="url(#p45b8668636)">
     <use xlink:href="#mbe4d256058" x="0" y="426.145899" style="fill: #6ca247; fill-opacity: 0.2; stroke: #6ca247; stroke-opacity: 0.2"/>
    </g>
   </g>
   <g id="matplotlib.axis_1">
    <g id="xtick_1">
     <g id="line2d_1">
      <path d="M 94.735836 376.064204 
L 94.735836 9.955247 
" clip-path="url(#p45b8668636)" style="fill: none; stroke: #b0b0b0; stroke-opacity: 0.3; stroke-width: 0.8; stroke-linecap: square"/>
     </g>
     <g id="line2d_2">
      <defs>
       <path id="m6829dc41d5" d="M 0 0 
L 0 3.5 
" style="stroke: #000000; stroke-width: 0.8"/>
      </defs>
      <g>
       <use xlink:href="#m6829dc41d5" x="94.735836" y="376.064204" style="stroke: #000000; stroke-width: 0.8"/>
      </g>
     </g>
     <g id="text_1">
      <!-- 0k -->
      <g transform="translate(86.715072 394.133793) scale(0.16 -0.16)">
       <defs>
        <path id="CMR17-30" d="M 2688 2038 
C 2688 2430 2682 3099 2413 3613 
C 2176 4063 1798 4224 1466 4224 
C 1158 4224 768 4082 525 3620 
C 269 3137 243 2539 243 2038 
C 243 1671 250 1112 448 623 
C 723 -39 1216 -128 1466 -128 
C 1760 -128 2208 -7 2470 604 
C 2662 1048 2688 1568 2688 2038 
z
M 1466 -26 
C 1056 -26 813 328 723 816 
C 653 1196 653 1749 653 2109 
C 653 2604 653 3015 736 3407 
C 858 3954 1216 4121 1466 4121 
C 1728 4121 2067 3947 2189 3420 
C 2272 3054 2278 2623 2278 2109 
C 2278 1691 2278 1176 2202 797 
C 2067 96 1690 -26 1466 -26 
z
" transform="scale(0.015625)"/>
        <path id="CMR17-6b" d="M 1670 1679 
C 1664 1692 1632 1730 1632 1749 
C 1632 1762 2086 2175 2144 2226 
C 2509 2532 2739 2563 2906 2570 
L 2906 2735 
C 2867 2735 2854 2735 2848 2729 
L 2534 2722 
C 2355 2722 2080 2722 1907 2735 
L 1907 2570 
C 1997 2563 2061 2513 2061 2423 
C 2061 2296 1933 2175 1926 2175 
L 960 1298 
L 960 4416 
L 198 4345 
L 198 4179 
C 576 4179 634 4141 634 3835 
L 634 439 
C 634 198 608 166 198 166 
L 198 0 
C 352 12 634 12 794 12 
C 954 12 1235 12 1389 0 
L 1389 166 
C 979 166 954 191 954 439 
L 954 1139 
L 1395 1540 
L 2042 586 
C 2118 471 2182 382 2182 299 
C 2182 185 2067 166 1990 166 
L 1990 0 
C 2144 12 2419 12 2579 12 
C 2694 12 2931 6 3040 0 
L 3040 166 
C 2739 166 2669 223 2477 503 
L 1670 1679 
z
" transform="scale(0.015625)"/>
       </defs>
       <use xlink:href="#CMR17-30" transform="scale(0.996264)"/>
       <use xlink:href="#CMR17-6b" transform="translate(45.690477 0) scale(0.996264)"/>
      </g>
     </g>
    </g>
    <g id="xtick_2">
     <g id="line2d_3">
      <path d="M 171.86191 376.064204 
L 171.86191 9.955247 
" clip-path="url(#p45b8668636)" style="fill: none; stroke: #b0b0b0; stroke-opacity: 0.3; stroke-width: 0.8; stroke-linecap: square"/>
     </g>
     <g id="line2d_4">
      <g>
       <use xlink:href="#m6829dc41d5" x="171.86191" y="376.064204" style="stroke: #000000; stroke-width: 0.8"/>
      </g>
     </g>
     <g id="text_2">
      <!-- 50k -->
      <g transform="translate(159.939152 394.133793) scale(0.16 -0.16)">
       <defs>
        <path id="CMR17-35" d="M 730 3750 
C 794 3724 1056 3641 1325 3641 
C 1920 3641 2246 3961 2432 4140 
C 2432 4191 2432 4224 2394 4224 
C 2387 4224 2374 4224 2323 4198 
C 2099 4102 1837 4032 1517 4032 
C 1325 4032 1037 4055 723 4191 
C 653 4224 640 4224 634 4224 
C 602 4224 595 4217 595 4090 
L 595 2231 
C 595 2113 595 2080 659 2080 
C 691 2080 704 2093 736 2139 
C 941 2435 1222 2560 1542 2560 
C 1766 2560 2246 2415 2246 1293 
C 2246 1087 2246 716 2054 422 
C 1894 159 1645 25 1370 25 
C 947 25 518 319 403 812 
C 429 806 480 793 506 793 
C 589 793 749 838 749 1036 
C 749 1209 627 1280 506 1280 
C 358 1280 262 1190 262 1011 
C 262 454 704 -128 1382 -128 
C 2042 -128 2669 441 2669 1267 
C 2669 2054 2170 2662 1549 2662 
C 1222 2662 947 2540 730 2304 
L 730 3750 
z
" transform="scale(0.015625)"/>
       </defs>
       <use xlink:href="#CMR17-35" transform="scale(0.996264)"/>
       <use xlink:href="#CMR17-30" transform="translate(45.690477 0) scale(0.996264)"/>
       <use xlink:href="#CMR17-6b" transform="translate(91.380954 0) scale(0.996264)"/>
      </g>
     </g>
    </g>
    <g id="xtick_3">
     <g id="line2d_5">
      <path d="M 248.987983 376.064204 
L 248.987983 9.955247 
" clip-path="url(#p45b8668636)" style="fill: none; stroke: #b0b0b0; stroke-opacity: 0.3; stroke-width: 0.8; stroke-linecap: square"/>
     </g>
     <g id="line2d_6">
      <g>
       <use xlink:href="#m6829dc41d5" x="248.987983" y="376.064204" style="stroke: #000000; stroke-width: 0.8"/>
      </g>
     </g>
     <g id="text_3">
      <!-- 100k -->
      <g transform="translate(233.163232 394.133793) scale(0.16 -0.16)">
       <defs>
        <path id="CMR17-31" d="M 1702 4083 
C 1702 4217 1696 4224 1606 4224 
C 1357 3927 979 3833 621 3820 
C 602 3820 570 3820 563 3808 
C 557 3795 557 3782 557 3648 
C 755 3648 1088 3686 1344 3839 
L 1344 467 
C 1344 243 1331 166 781 166 
L 589 166 
L 589 0 
C 896 6 1216 12 1523 12 
C 1830 12 2150 6 2458 0 
L 2458 166 
L 2266 166 
C 1715 166 1702 236 1702 467 
L 1702 4083 
z
" transform="scale(0.015625)"/>
       </defs>
       <use xlink:href="#CMR17-31" transform="scale(0.996264)"/>
       <use xlink:href="#CMR17-30" transform="translate(45.690477 0) scale(0.996264)"/>
       <use xlink:href="#CMR17-30" transform="translate(91.380954 0) scale(0.996264)"/>
       <use xlink:href="#CMR17-6b" transform="translate(137.071431 0) scale(0.996264)"/>
      </g>
     </g>
    </g>
    <g id="xtick_4">
     <g id="line2d_7">
      <path d="M 326.114057 376.064204 
L 326.114057 9.955247 
" clip-path="url(#p45b8668636)" style="fill: none; stroke: #b0b0b0; stroke-opacity: 0.3; stroke-width: 0.8; stroke-linecap: square"/>
     </g>
     <g id="line2d_8">
      <g>
       <use xlink:href="#m6829dc41d5" x="326.114057" y="376.064204" style="stroke: #000000; stroke-width: 0.8"/>
      </g>
     </g>
     <g id="text_4">
      <!-- 150k -->
      <g transform="translate(310.289306 394.133793) scale(0.16 -0.16)">
       <use xlink:href="#CMR17-31" transform="scale(0.996264)"/>
       <use xlink:href="#CMR17-35" transform="translate(45.690477 0) scale(0.996264)"/>
       <use xlink:href="#CMR17-30" transform="translate(91.380954 0) scale(0.996264)"/>
       <use xlink:href="#CMR17-6b" transform="translate(137.071431 0) scale(0.996264)"/>
      </g>
     </g>
    </g>
    <g id="xtick_5">
     <g id="line2d_9">
      <path d="M 403.240131 376.064204 
L 403.240131 9.955247 
" clip-path="url(#p45b8668636)" style="fill: none; stroke: #b0b0b0; stroke-opacity: 0.3; stroke-width: 0.8; stroke-linecap: square"/>
     </g>
     <g id="line2d_10">
      <g>
       <use xlink:href="#m6829dc41d5" x="403.240131" y="376.064204" style="stroke: #000000; stroke-width: 0.8"/>
      </g>
     </g>
     <g id="text_5">
      <!-- 200k -->
      <g transform="translate(387.415379 394.133793) scale(0.16 -0.16)">
       <defs>
        <path id="CMR17-32" d="M 2669 990 
L 2554 990 
C 2490 537 2438 460 2413 422 
C 2381 371 1920 371 1830 371 
L 602 371 
C 832 620 1280 1073 1824 1596 
C 2214 1966 2669 2400 2669 3033 
C 2669 3788 2067 4224 1395 4224 
C 691 4224 262 3603 262 3027 
C 262 2777 448 2745 525 2745 
C 589 2745 781 2783 781 3007 
C 781 3206 614 3264 525 3264 
C 486 3264 448 3257 422 3244 
C 544 3788 915 4057 1306 4057 
C 1862 4057 2227 3616 2227 3033 
C 2227 2477 1901 1998 1536 1583 
L 262 147 
L 262 0 
L 2515 0 
L 2669 990 
z
" transform="scale(0.015625)"/>
       </defs>
       <use xlink:href="#CMR17-32" transform="scale(0.996264)"/>
       <use xlink:href="#CMR17-30" transform="translate(45.690477 0) scale(0.996264)"/>
       <use xlink:href="#CMR17-30" transform="translate(91.380954 0) scale(0.996264)"/>
       <use xlink:href="#CMR17-6b" transform="translate(137.071431 0) scale(0.996264)"/>
      </g>
     </g>
    </g>
    <g id="text_6">
     <!-- Training Steps -->
     <g transform="translate(190.492088 415.070266) scale(0.2 -0.2)">
      <defs>
       <path id="CMR17-54" d="M 3981 4332 
L 288 4332 
L 179 2924 
L 294 2924 
C 378 3981 467 4166 1453 4166 
C 1568 4166 1754 4166 1805 4159 
C 1926 4140 1926 4064 1926 3917 
L 1926 465 
C 1926 236 1907 166 1376 166 
L 1197 166 
L 1197 0 
C 1504 6 1824 12 2138 12 
C 2451 12 2771 6 3078 0 
L 3078 166 
L 2899 166 
C 2368 166 2349 236 2349 465 
L 2349 3917 
C 2349 4057 2349 4134 2464 4159 
C 2515 4166 2701 4166 2816 4166 
C 3795 4166 3891 3981 3974 2924 
L 4090 2924 
L 3981 4332 
z
" transform="scale(0.015625)"/>
       <path id="CMR17-72" d="M 960 1517 
C 960 2134 1222 2713 1702 2713 
C 1747 2713 1792 2707 1837 2687 
C 1837 2687 1696 2642 1696 2475 
C 1696 2321 1818 2257 1914 2257 
C 1990 2257 2131 2302 2131 2482 
C 2131 2687 1926 2816 1709 2816 
C 1222 2816 1011 2340 947 2115 
L 941 2115 
L 941 2816 
L 198 2745 
L 198 2578 
C 576 2578 634 2540 634 2231 
L 634 443 
C 634 198 608 166 198 166 
L 198 0 
C 352 12 646 12 813 12 
C 998 12 1325 12 1498 0 
L 1498 166 
C 1037 166 960 166 960 455 
L 960 1517 
z
" transform="scale(0.015625)"/>
       <path id="CMR17-61" d="M 2304 1656 
C 2304 2048 2304 2275 2035 2534 
C 1798 2751 1523 2816 1306 2816 
C 800 2816 435 2408 435 1977 
C 435 1740 627 1728 666 1728 
C 749 1728 896 1779 896 1958 
C 896 2118 774 2188 666 2188 
C 640 2188 608 2182 589 2176 
C 723 2594 1069 2713 1293 2713 
C 1613 2713 1965 2421 1965 1875 
L 1965 1632 
C 1587 1619 1133 1568 774 1373 
C 371 1147 256 822 256 576 
C 256 77 832 -64 1171 -64 
C 1523 -64 1850 135 1990 505 
C 2003 219 2182 -39 2464 -39 
C 2598 -39 2938 51 2938 563 
L 2938 926 
L 2822 926 
L 2822 557 
C 2822 161 2650 109 2566 109 
C 2304 109 2304 446 2304 732 
L 2304 1656 
z
M 1965 887 
C 1965 323 1568 38 1216 38 
C 896 38 646 278 646 576 
C 646 771 730 1114 1101 1322 
C 1408 1497 1760 1523 1965 1536 
L 1965 887 
z
" transform="scale(0.015625)"/>
       <path id="CMR17-69" d="M 992 3961 
C 992 4102 877 4224 730 4224 
C 589 4224 467 4108 467 3961 
C 467 3820 582 3699 730 3699 
C 870 3699 992 3814 992 3961 
z
M 243 2745 
L 243 2579 
C 602 2579 653 2540 653 2231 
L 653 443 
C 653 198 627 166 218 166 
L 218 0 
C 371 12 646 12 806 12 
C 960 12 1222 12 1370 0 
L 1370 166 
C 992 166 979 205 979 436 
L 979 2816 
L 243 2745 
z
" transform="scale(0.015625)"/>
       <path id="CMR17-6e" d="M 2656 1954 
C 2656 2282 2592 2816 1837 2816 
C 1331 2816 1069 2424 973 2166 
L 966 2166 
L 966 2816 
L 211 2745 
L 211 2578 
C 589 2578 646 2540 646 2231 
L 646 443 
C 646 198 621 166 211 166 
L 211 0 
C 365 12 646 12 813 12 
C 979 12 1267 12 1421 0 
L 1421 166 
C 1011 166 986 192 986 443 
L 986 1678 
C 986 2269 1344 2713 1792 2713 
C 2266 2713 2317 2289 2317 1980 
L 2317 443 
C 2317 198 2291 166 1882 166 
L 1882 0 
C 2035 12 2317 12 2483 12 
C 2650 12 2938 12 3091 0 
L 3091 166 
C 2682 166 2656 192 2656 443 
L 2656 1954 
z
" transform="scale(0.015625)"/>
       <path id="CMR17-67" d="M 710 1165 
C 832 1068 1043 960 1299 960 
C 1805 960 2240 1359 2240 1895 
C 2240 2063 2189 2321 1997 2521 
C 2176 2713 2438 2777 2586 2777 
C 2611 2777 2650 2777 2682 2758 
C 2656 2751 2598 2726 2598 2623 
C 2598 2540 2656 2483 2739 2483 
C 2835 2483 2886 2547 2886 2630 
C 2886 2751 2790 2880 2586 2880 
C 2330 2880 2106 2758 1926 2591 
C 1734 2764 1504 2828 1299 2828 
C 794 2828 358 2431 358 1895 
C 358 1527 570 1294 634 1230 
C 442 1004 442 742 442 710 
C 442 544 506 300 723 166 
C 390 82 128 -184 128 -517 
C 128 -996 736 -1344 1466 -1344 
C 2170 -1344 2803 -1009 2803 -510 
C 2803 384 1856 384 1363 384 
C 1216 384 954 384 922 390 
C 723 422 589 601 589 825 
C 589 883 589 1024 710 1165 
z
M 1299 1068 
C 736 1068 736 1766 736 1895 
C 736 2024 736 2719 1299 2719 
C 1862 2719 1862 2024 1862 1895 
C 1862 1766 1862 1068 1299 1068 
z
M 1466 -1236 
C 826 -1236 384 -883 384 -517 
C 384 -311 493 -118 634 -11 
C 794 102 858 102 1293 102 
C 1818 102 2547 102 2547 -517 
C 2547 -883 2106 -1236 1466 -1236 
z
" transform="scale(0.015625)"/>
       <path id="CMR17-53" d="M 2803 4351 
C 2803 4467 2797 4473 2758 4473 
C 2720 4473 2707 4447 2682 4390 
L 2490 3965 
C 2246 4320 1875 4480 1472 4480 
C 819 4480 294 3958 294 3301 
C 294 3101 339 2817 557 2546 
C 794 2250 1018 2198 1530 2063 
C 1722 2011 2042 1927 2106 1901 
C 2470 1747 2662 1360 2662 999 
C 2662 534 2336 38 1779 38 
C 1094 38 454 425 410 1328 
C 403 1431 397 1437 352 1437 
C 301 1437 294 1431 294 1302 
L 294 0 
C 294 -116 301 -122 339 -122 
C 384 -122 397 -90 486 109 
C 493 128 493 141 614 386 
C 934 -39 1472 -128 1779 -128 
C 2477 -128 2970 457 2970 1141 
C 2970 1476 2848 1734 2778 1850 
C 2509 2263 2221 2340 1914 2417 
C 1869 2437 1856 2437 1498 2527 
C 1152 2617 1005 2662 845 2836 
C 666 3036 602 3243 602 3449 
C 602 3868 934 4326 1478 4326 
C 2157 4326 2579 3842 2675 3036 
C 2694 2920 2701 2914 2746 2914 
C 2803 2914 2803 2933 2803 3043 
L 2803 4351 
z
" transform="scale(0.015625)"/>
       <path id="CMR17-74" d="M 966 2585 
L 1862 2585 
L 1862 2752 
L 966 2752 
L 966 3968 
L 851 3968 
C 838 3292 614 2700 70 2687 
L 70 2585 
L 627 2585 
L 627 778 
C 627 655 627 -64 1370 -64 
C 1747 -64 1965 308 1965 784 
L 1965 1151 
L 1850 1151 
L 1850 790 
C 1850 347 1677 51 1408 51 
C 1222 51 966 179 966 765 
L 966 2585 
z
" transform="scale(0.015625)"/>
       <path id="CMR17-65" d="M 2438 1503 
C 2464 1529 2464 1542 2464 1606 
C 2464 2251 2118 2816 1389 2816 
C 710 2816 173 2175 173 1394 
C 173 554 781 -64 1459 -64 
C 2176 -64 2458 619 2458 755 
C 2458 800 2419 800 2406 800 
C 2362 800 2355 787 2330 709 
C 2189 270 1837 51 1504 51 
C 1229 51 954 206 781 490 
C 582 819 582 1200 582 1503 
L 2438 1503 
z
M 589 1600 
C 634 2511 1126 2713 1382 2713 
C 1818 2713 2112 2308 2118 1600 
L 589 1600 
z
" transform="scale(0.015625)"/>
       <path id="CMR17-70" d="M 1408 -1114 
C 998 -1114 973 -1088 973 -834 
L 973 380 
C 1158 109 1427 -64 1766 -64 
C 2406 -64 3053 503 3053 1382 
C 3053 2196 2496 2816 1837 2816 
C 1453 2816 1139 2603 960 2345 
L 960 2816 
L 198 2745 
L 198 2577 
C 576 2577 634 2539 634 2228 
L 634 -834 
C 634 -1081 608 -1114 198 -1114 
L 198 -1280 
C 352 -1268 634 -1268 800 -1268 
C 966 -1268 1254 -1268 1408 -1280 
L 1408 -1114 
z
M 973 2015 
C 973 2106 973 2241 1222 2481 
C 1254 2506 1472 2700 1792 2700 
C 2259 2700 2643 2112 2643 1376 
C 2643 639 2234 38 1728 38 
C 1498 38 1248 148 1056 451 
C 973 594 973 632 973 736 
L 973 2015 
z
" transform="scale(0.015625)"/>
       <path id="CMR17-73" d="M 1978 2688 
C 1978 2803 1971 2809 1933 2809 
C 1907 2809 1901 2803 1824 2707 
C 1805 2681 1747 2617 1728 2592 
C 1523 2809 1235 2816 1126 2816 
C 416 2816 160 2444 160 2073 
C 160 1497 813 1363 998 1324 
C 1402 1241 1542 1216 1677 1100 
C 1760 1024 1901 883 1901 652 
C 1901 384 1747 38 1158 38 
C 602 38 403 460 288 1024 
C 269 1113 269 1120 218 1120 
C 166 1120 160 1113 160 985 
L 160 64 
C 160 -52 166 -58 205 -58 
C 237 -58 243 -52 275 0 
C 314 57 410 211 448 275 
C 576 102 800 -64 1158 -64 
C 1792 -64 2131 281 2131 780 
C 2131 1107 1958 1280 1875 1356 
C 1683 1555 1459 1600 1190 1651 
C 838 1728 390 1817 390 2208 
C 390 2374 480 2726 1126 2726 
C 1811 2726 1850 2086 1862 1881 
C 1869 1849 1901 1843 1920 1843 
C 1978 1843 1978 1862 1978 1971 
L 1978 2688 
z
" transform="scale(0.015625)"/>
      </defs>
      <use xlink:href="#CMR17-54" transform="scale(0.996264)"/>
      <use xlink:href="#CMR17-72" transform="translate(58.702625 0) scale(0.996264)"/>
      <use xlink:href="#CMR17-61" transform="translate(93.983393 0) scale(0.996264)"/>
      <use xlink:href="#CMR17-69" transform="translate(139.67387 0) scale(0.996264)"/>
      <use xlink:href="#CMR17-6e" transform="translate(164.544929 0) scale(0.996264)"/>
      <use xlink:href="#CMR17-69" transform="translate(215.440298 0) scale(0.996264)"/>
      <use xlink:href="#CMR17-6e" transform="translate(240.311357 0) scale(0.996264)"/>
      <use xlink:href="#CMR17-67" transform="translate(291.206727 0) scale(0.996264)"/>
      <use xlink:href="#CMR17-53" transform="translate(366.97317 0) scale(0.996264)"/>
      <use xlink:href="#CMR17-74" transform="translate(417.86854 0) scale(0.996264)"/>
      <use xlink:href="#CMR17-65" transform="translate(453.149308 0) scale(0.996264)"/>
      <use xlink:href="#CMR17-70" transform="translate(493.634968 0) scale(0.996264)"/>
      <use xlink:href="#CMR17-73" transform="translate(544.530338 0) scale(0.996264)"/>
     </g>
    </g>
   </g>
   <g id="matplotlib.axis_2">
    <g id="ytick_1">
     <g id="line2d_11">
      <path d="M 79.526574 369.007044 
L 417.523879 369.007044 
" clip-path="url(#p45b8668636)" style="fill: none; stroke: #b0b0b0; stroke-opacity: 0.3; stroke-width: 0.8; stroke-linecap: square"/>
     </g>
     <g id="line2d_12">
      <defs>
       <path id="m4afaf0d5fc" d="M 0 0 
L -3.5 0 
" style="stroke: #000000; stroke-width: 0.8"/>
      </defs>
      <g>
       <use xlink:href="#m4afaf0d5fc" x="79.526574" y="369.007044" style="stroke: #000000; stroke-width: 0.8"/>
      </g>
     </g>
     <g id="text_7">
      <!-- $\mathdefault{1400}$ -->
      <g transform="translate(28.91263 374.541839) scale(0.16 -0.16)">
       <defs>
        <path id="CMSY10-0" d="M 4218 1472 
C 4326 1472 4442 1472 4442 1600 
C 4442 1728 4326 1728 4218 1728 
L 755 1728 
C 646 1728 531 1728 531 1600 
C 531 1472 646 1472 755 1472 
L 4218 1472 
z
" transform="scale(0.015625)"/>
        <path id="CMR17-34" d="M 2150 4147 
C 2150 4281 2144 4288 2029 4288 
L 128 1254 
L 128 1088 
L 1779 1088 
L 1779 460 
C 1779 230 1766 166 1318 166 
L 1197 166 
L 1197 0 
C 1402 12 1747 12 1965 12 
C 2182 12 2528 12 2733 0 
L 2733 166 
L 2611 166 
C 2163 166 2150 230 2150 460 
L 2150 1088 
L 2803 1088 
L 2803 1254 
L 2150 1254 
L 2150 4147 
z
M 1798 3723 
L 1798 1254 
L 256 1254 
L 1798 3723 
z
" transform="scale(0.015625)"/>
       </defs>
       <use xlink:href="#CMSY10-0" transform="scale(0.996264)"/>
       <use xlink:href="#CMR17-31" transform="translate(77.487468 0) scale(0.996264)"/>
       <use xlink:href="#CMR17-34" transform="translate(123.177945 0) scale(0.996264)"/>
       <use xlink:href="#CMR17-30" transform="translate(168.868422 0) scale(0.996264)"/>
       <use xlink:href="#CMR17-30" transform="translate(214.558899 0) scale(0.996264)"/>
      </g>
     </g>
    </g>
    <g id="ytick_2">
     <g id="line2d_13">
      <path d="M 79.526574 318.111009 
L 417.523879 318.111009 
" clip-path="url(#p45b8668636)" style="fill: none; stroke: #b0b0b0; stroke-opacity: 0.3; stroke-width: 0.8; stroke-linecap: square"/>
     </g>
     <g id="line2d_14">
      <g>
       <use xlink:href="#m4afaf0d5fc" x="79.526574" y="318.111009" style="stroke: #000000; stroke-width: 0.8"/>
      </g>
     </g>
     <g id="text_8">
      <!-- $\mathdefault{1200}$ -->
      <g transform="translate(28.91263 323.645803) scale(0.16 -0.16)">
       <use xlink:href="#CMSY10-0" transform="scale(0.996264)"/>
       <use xlink:href="#CMR17-31" transform="translate(77.487468 0) scale(0.996264)"/>
       <use xlink:href="#CMR17-32" transform="translate(123.177945 0) scale(0.996264)"/>
       <use xlink:href="#CMR17-30" transform="translate(168.868422 0) scale(0.996264)"/>
       <use xlink:href="#CMR17-30" transform="translate(214.558899 0) scale(0.996264)"/>
      </g>
     </g>
    </g>
    <g id="ytick_3">
     <g id="line2d_15">
      <path d="M 79.526574 267.214973 
L 417.523879 267.214973 
" clip-path="url(#p45b8668636)" style="fill: none; stroke: #b0b0b0; stroke-opacity: 0.3; stroke-width: 0.8; stroke-linecap: square"/>
     </g>
     <g id="line2d_16">
      <g>
       <use xlink:href="#m4afaf0d5fc" x="79.526574" y="267.214973" style="stroke: #000000; stroke-width: 0.8"/>
      </g>
     </g>
     <g id="text_9">
      <!-- $\mathdefault{1000}$ -->
      <g transform="translate(28.91263 272.749767) scale(0.16 -0.16)">
       <use xlink:href="#CMSY10-0" transform="scale(0.996264)"/>
       <use xlink:href="#CMR17-31" transform="translate(77.487468 0) scale(0.996264)"/>
       <use xlink:href="#CMR17-30" transform="translate(123.177945 0) scale(0.996264)"/>
       <use xlink:href="#CMR17-30" transform="translate(168.868422 0) scale(0.996264)"/>
       <use xlink:href="#CMR17-30" transform="translate(214.558899 0) scale(0.996264)"/>
      </g>
     </g>
    </g>
    <g id="ytick_4">
     <g id="line2d_17">
      <path d="M 79.526574 216.318937 
L 417.523879 216.318937 
" clip-path="url(#p45b8668636)" style="fill: none; stroke: #b0b0b0; stroke-opacity: 0.3; stroke-width: 0.8; stroke-linecap: square"/>
     </g>
     <g id="line2d_18">
      <g>
       <use xlink:href="#m4afaf0d5fc" x="79.526574" y="216.318937" style="stroke: #000000; stroke-width: 0.8"/>
      </g>
     </g>
     <g id="text_10">
      <!-- $\mathdefault{800}$ -->
      <g transform="translate(36.716617 221.853731) scale(0.16 -0.16)">
       <defs>
        <path id="CMR17-38" d="M 1741 2289 
C 2144 2494 2554 2803 2554 3298 
C 2554 3884 1990 4224 1472 4224 
C 890 4224 378 3800 378 3215 
C 378 3054 416 2777 666 2533 
C 730 2469 998 2276 1171 2154 
C 883 2006 211 1652 211 945 
C 211 282 838 -128 1459 -128 
C 2144 -128 2720 366 2720 1022 
C 2720 1607 2330 1877 2074 2051 
L 1741 2289 
z
M 902 2855 
C 851 2887 595 3086 595 3388 
C 595 3781 998 4076 1459 4076 
C 1965 4076 2336 3716 2336 3298 
C 2336 2700 1670 2359 1638 2359 
C 1632 2359 1626 2359 1574 2398 
L 902 2855 
z
M 2080 1536 
C 2176 1466 2483 1253 2483 861 
C 2483 385 2010 25 1472 25 
C 890 25 448 443 448 951 
C 448 1459 838 1884 1280 2083 
L 2080 1536 
z
" transform="scale(0.015625)"/>
       </defs>
       <use xlink:href="#CMSY10-0" transform="scale(0.996264)"/>
       <use xlink:href="#CMR17-38" transform="translate(77.487468 0) scale(0.996264)"/>
       <use xlink:href="#CMR17-30" transform="translate(123.177945 0) scale(0.996264)"/>
       <use xlink:href="#CMR17-30" transform="translate(168.868422 0) scale(0.996264)"/>
      </g>
     </g>
    </g>
    <g id="ytick_5">
     <g id="line2d_19">
      <path d="M 79.526574 165.422901 
L 417.523879 165.422901 
" clip-path="url(#p45b8668636)" style="fill: none; stroke: #b0b0b0; stroke-opacity: 0.3; stroke-width: 0.8; stroke-linecap: square"/>
     </g>
     <g id="line2d_20">
      <g>
       <use xlink:href="#m4afaf0d5fc" x="79.526574" y="165.422901" style="stroke: #000000; stroke-width: 0.8"/>
      </g>
     </g>
     <g id="text_11">
      <!-- $\mathdefault{600}$ -->
      <g transform="translate(36.716617 170.957696) scale(0.16 -0.16)">
       <defs>
        <path id="CMR17-36" d="M 678 2198 
C 678 3712 1395 4076 1811 4076 
C 1946 4076 2272 4049 2400 3782 
C 2298 3782 2106 3782 2106 3558 
C 2106 3385 2246 3328 2336 3328 
C 2394 3328 2566 3353 2566 3571 
C 2566 3987 2246 4224 1805 4224 
C 1043 4224 243 3411 243 2011 
C 243 257 966 -128 1478 -128 
C 2099 -128 2688 431 2688 1295 
C 2688 2101 2170 2688 1517 2688 
C 1126 2688 838 2430 678 1979 
L 678 2198 
z
M 1478 25 
C 691 25 691 1212 691 1450 
C 691 1914 909 2585 1504 2585 
C 1613 2585 1926 2585 2138 2140 
C 2253 1889 2253 1624 2253 1302 
C 2253 954 2253 696 2118 438 
C 1978 173 1773 25 1478 25 
z
" transform="scale(0.015625)"/>
       </defs>
       <use xlink:href="#CMSY10-0" transform="scale(0.996264)"/>
       <use xlink:href="#CMR17-36" transform="translate(77.487468 0) scale(0.996264)"/>
       <use xlink:href="#CMR17-30" transform="translate(123.177945 0) scale(0.996264)"/>
       <use xlink:href="#CMR17-30" transform="translate(168.868422 0) scale(0.996264)"/>
      </g>
     </g>
    </g>
    <g id="ytick_6">
     <g id="line2d_21">
      <path d="M 79.526574 114.526866 
L 417.523879 114.526866 
" clip-path="url(#p45b8668636)" style="fill: none; stroke: #b0b0b0; stroke-opacity: 0.3; stroke-width: 0.8; stroke-linecap: square"/>
     </g>
     <g id="line2d_22">
      <g>
       <use xlink:href="#m4afaf0d5fc" x="79.526574" y="114.526866" style="stroke: #000000; stroke-width: 0.8"/>
      </g>
     </g>
     <g id="text_12">
      <!-- $\mathdefault{400}$ -->
      <g transform="translate(36.716617 120.06166) scale(0.16 -0.16)">
       <use xlink:href="#CMSY10-0" transform="scale(0.996264)"/>
       <use xlink:href="#CMR17-34" transform="translate(77.487468 0) scale(0.996264)"/>
       <use xlink:href="#CMR17-30" transform="translate(123.177945 0) scale(0.996264)"/>
       <use xlink:href="#CMR17-30" transform="translate(168.868422 0) scale(0.996264)"/>
      </g>
     </g>
    </g>
    <g id="ytick_7">
     <g id="line2d_23">
      <path d="M 79.526574 63.63083 
L 417.523879 63.63083 
" clip-path="url(#p45b8668636)" style="fill: none; stroke: #b0b0b0; stroke-opacity: 0.3; stroke-width: 0.8; stroke-linecap: square"/>
     </g>
     <g id="line2d_24">
      <g>
       <use xlink:href="#m4afaf0d5fc" x="79.526574" y="63.63083" style="stroke: #000000; stroke-width: 0.8"/>
      </g>
     </g>
     <g id="text_13">
      <!-- $\mathdefault{200}$ -->
      <g transform="translate(36.716617 69.165624) scale(0.16 -0.16)">
       <use xlink:href="#CMSY10-0" transform="scale(0.996264)"/>
       <use xlink:href="#CMR17-32" transform="translate(77.487468 0) scale(0.996264)"/>
       <use xlink:href="#CMR17-30" transform="translate(123.177945 0) scale(0.996264)"/>
       <use xlink:href="#CMR17-30" transform="translate(168.868422 0) scale(0.996264)"/>
      </g>
     </g>
    </g>
    <g id="ytick_8">
     <g id="line2d_25">
      <path d="M 79.526574 12.734794 
L 417.523879 12.734794 
" clip-path="url(#p45b8668636)" style="fill: none; stroke: #b0b0b0; stroke-opacity: 0.3; stroke-width: 0.8; stroke-linecap: square"/>
     </g>
     <g id="line2d_26">
      <g>
       <use xlink:href="#m4afaf0d5fc" x="79.526574" y="12.734794" style="stroke: #000000; stroke-width: 0.8"/>
      </g>
     </g>
     <g id="text_14">
      <!-- $\mathdefault{0}$ -->
      <g transform="translate(64.722587 18.269588) scale(0.16 -0.16)">
       <use xlink:href="#CMR17-30" transform="scale(0.996264)"/>
      </g>
     </g>
    </g>
    <g id="text_15">
     <!-- Return -->
     <g transform="translate(21.036997 221.072611) rotate(-90) scale(0.2 -0.2)">
      <defs>
       <path id="CMR17-52" d="M 2509 2156 
C 3117 2278 3629 2689 3629 3203 
C 3629 3806 2950 4352 2054 4352 
L 333 4352 
L 333 4185 
C 774 4185 845 4185 845 3896 
L 845 428 
C 845 140 774 140 333 140 
L 333 -26 
C 518 -13 851 -13 1050 -13 
C 1248 -13 1581 -13 1766 -26 
L 1766 140 
C 1325 140 1254 140 1254 428 
L 1254 2112 
L 2003 2112 
C 2368 2112 2573 1964 2662 1881 
C 2918 1632 2918 1459 2918 1024 
C 2918 595 2918 377 3110 160 
C 3354 -103 3680 -128 3821 -128 
C 4294 -128 4365 403 4365 512 
C 4365 550 4365 595 4307 595 
C 4256 595 4250 556 4250 531 
C 4218 115 4032 -26 3834 -26 
C 3482 -26 3443 377 3405 768 
C 3386 902 3373 998 3360 1139 
C 3322 1459 3270 1926 2509 2156 
z
M 1984 2214 
L 1254 2214 
L 1254 3935 
C 1254 4153 1267 4185 1523 4185 
L 1990 4185 
C 2522 4185 3142 3999 3142 3203 
C 3142 2374 2464 2214 1984 2214 
z
" transform="scale(0.015625)"/>
       <path id="CMR17-75" d="M 1882 2745 
L 1882 2579 
C 2259 2579 2317 2540 2317 2229 
L 2317 1053 
C 2317 510 2029 38 1555 38 
C 1030 38 986 355 986 691 
L 986 2816 
L 211 2745 
L 211 2579 
C 467 2579 640 2579 646 2320 
L 646 1079 
C 646 646 646 368 813 187 
C 896 103 1056 -64 1517 -64 
C 2061 -64 2272 400 2323 536 
L 2330 536 
L 2330 -64 
L 3091 -13 
L 3091 154 
C 2714 154 2656 193 2656 503 
L 2656 2816 
L 1882 2745 
z
" transform="scale(0.015625)"/>
      </defs>
      <use xlink:href="#CMR17-52" transform="scale(0.996264)"/>
      <use xlink:href="#CMR17-65" transform="translate(67.791102 0) scale(0.996264)"/>
      <use xlink:href="#CMR17-74" transform="translate(108.276762 0) scale(0.996264)"/>
      <use xlink:href="#CMR17-75" transform="translate(143.55753 0) scale(0.996264)"/>
      <use xlink:href="#CMR17-72" transform="translate(194.4529 0) scale(0.996264)"/>
      <use xlink:href="#CMR17-6e" transform="translate(229.733668 0) scale(0.996264)"/>
     </g>
    </g>
   </g>
   <g id="line2d_27">
    <path d="M 94.890088 92.560975 
L 96.124105 126.473337 
L 97.358123 213.111949 
L 98.59214 246.834914 
L 99.826157 160.468152 
L 101.060174 151.00296 
L 102.294191 159.000686 
L 103.528209 113.859039 
L 104.762226 96.935664 
L 105.996243 54.165062 
L 107.23026 82.265344 
L 108.464277 80.871012 
L 109.698294 71.130535 
L 110.932312 83.820097 
L 112.166329 83.555248 
L 113.400346 120.600673 
L 114.634363 125.911629 
L 115.86838 98.654956 
L 117.102397 100.408136 
L 119.570432 117.013722 
L 120.804449 109.945097 
L 122.038466 116.006138 
L 123.272483 98.923867 
L 124.506501 95.971998 
L 125.740518 82.857422 
L 126.974535 85.04183 
L 128.208552 92.750493 
L 129.442569 88.968719 
L 130.676586 122.608671 
L 131.910604 89.00567 
L 133.144621 114.370402 
L 134.378638 91.43374 
L 135.612655 85.202004 
L 136.846672 96.97595 
L 138.08069 87.542193 
L 139.314707 96.515906 
L 140.548724 82.421226 
L 141.782741 100.196284 
L 143.016758 101.890529 
L 144.250775 94.550885 
L 145.484793 107.348387 
L 146.71881 93.809095 
L 147.952827 89.598115 
L 149.186844 82.577532 
L 150.420861 87.874352 
L 151.654878 77.127311 
L 154.122913 61.688347 
L 155.35693 64.04957 
L 157.824964 89.197446 
L 159.058982 72.5474 
L 160.292999 66.127301 
L 161.527016 63.99782 
L 162.761033 83.543425 
L 163.99505 55.146083 
L 165.229067 74.603133 
L 166.463085 60.902661 
L 167.697102 71.694853 
L 168.931119 66.133304 
L 170.165136 50.368326 
L 171.399153 51.909646 
L 172.63317 55.540505 
L 173.867188 58.05183 
L 175.101205 65.535719 
L 176.335222 58.216191 
L 177.569239 62.134791 
L 178.803256 78.348242 
L 180.037274 64.238275 
L 181.271291 68.702081 
L 182.505308 68.816308 
L 183.739325 67.925221 
L 184.973342 58.682819 
L 186.207359 63.909541 
L 187.441377 58.259616 
L 188.675394 74.535195 
L 189.909411 76.840285 
L 191.143428 68.428033 
L 192.377445 72.416851 
L 193.611463 64.828683 
L 194.84548 69.792919 
L 196.079497 60.539862 
L 197.313514 60.670267 
L 198.547531 66.369406 
L 199.781548 66.202233 
L 201.015566 68.411929 
L 202.249583 68.941675 
L 203.4836 69.005306 
L 204.717617 65.911587 
L 205.951634 51.977666 
L 207.185651 67.185856 
L 208.419669 65.615156 
L 209.653686 74.111653 
L 210.887703 73.013687 
L 213.355737 64.872514 
L 214.589755 118.783765 
L 215.823772 90.013909 
L 217.057789 67.414266 
L 218.291806 67.766122 
L 219.525823 64.669622 
L 220.75984 107.456936 
L 221.993858 61.538042 
L 223.227875 64.867272 
L 224.461892 71.032929 
L 225.695909 72.228111 
L 226.929926 86.083754 
L 228.163944 92.174193 
L 229.397961 79.923747 
L 230.631978 63.515587 
L 231.865995 115.645549 
L 233.100012 90.371308 
L 234.334029 88.777333 
L 235.568047 96.668955 
L 236.802064 86.401697 
L 238.036081 104.754532 
L 239.270098 129.696273 
L 240.504115 79.268578 
L 241.738132 87.18214 
L 242.97215 111.55569 
L 244.206167 86.259666 
L 245.440184 107.532836 
L 246.674201 80.788208 
L 247.908218 120.021582 
L 249.142236 116.111085 
L 250.376253 102.861691 
L 252.844287 138.075637 
L 254.078304 142.264901 
L 255.312321 154.481022 
L 256.546339 104.097482 
L 257.780356 139.284323 
L 259.014373 123.813463 
L 260.24839 110.961133 
L 261.482407 122.882087 
L 262.716424 129.52674 
L 263.950442 127.170626 
L 265.184459 137.671874 
L 266.418476 138.238144 
L 267.652493 130.282994 
L 268.88651 155.982725 
L 270.120528 124.925455 
L 271.354545 135.923682 
L 272.588562 123.710482 
L 273.822579 152.497931 
L 275.056596 137.074185 
L 276.290613 125.762967 
L 277.524631 157.538639 
L 278.758648 141.66544 
L 279.992665 154.627506 
L 281.226682 135.230441 
L 282.460699 162.999368 
L 283.694717 143.107257 
L 284.928734 147.893557 
L 286.162751 148.429623 
L 287.396768 130.520333 
L 288.630785 154.68115 
L 289.864802 157.940177 
L 291.09882 160.859447 
L 292.332837 177.932422 
L 293.566854 156.795072 
L 294.800871 146.162494 
L 296.034888 158.513754 
L 297.268905 166.064279 
L 298.502923 164.190353 
L 299.73694 160.944685 
L 300.970957 138.946498 
L 302.204974 183.752461 
L 303.438991 171.494121 
L 304.673009 180.989735 
L 305.907026 178.339967 
L 307.141043 157.465505 
L 308.37506 177.100503 
L 309.609077 157.961705 
L 310.843094 162.979625 
L 312.077112 153.042087 
L 313.311129 157.153823 
L 314.545146 143.741295 
L 315.779163 153.934831 
L 317.01318 156.162726 
L 318.247197 136.185964 
L 319.481215 169.629611 
L 320.715232 145.063344 
L 321.949249 157.476708 
L 323.183266 163.697617 
L 324.417283 165.973155 
L 325.651301 146.898779 
L 326.885318 152.229709 
L 328.119335 147.614802 
L 329.353352 166.900575 
L 330.587369 163.863089 
L 331.821386 162.635061 
L 333.055404 178.234105 
L 334.289421 153.956273 
L 335.523438 190.106092 
L 336.757455 189.748098 
L 337.991472 159.896098 
L 339.22549 171.643584 
L 340.459507 168.451019 
L 341.693524 136.925057 
L 344.161558 160.201789 
L 345.395575 167.245894 
L 346.629593 156.249544 
L 347.86361 175.190812 
L 349.097627 142.07557 
L 350.331644 159.836414 
L 351.565661 163.334035 
L 352.799678 151.978461 
L 354.033696 160.786499 
L 355.267713 142.513934 
L 356.50173 142.304273 
L 357.735747 155.570299 
L 358.969764 139.790087 
L 360.203782 131.844835 
L 361.437799 159.22097 
L 362.671816 147.89125 
L 363.905833 140.335014 
L 365.13985 118.727951 
L 366.373867 123.035636 
L 367.607885 141.298743 
L 368.841902 130.890998 
L 370.075919 98.436779 
L 371.309936 164.173507 
L 372.543953 156.181 
L 373.777971 143.046777 
L 375.011988 127.559618 
L 376.246005 137.043836 
L 377.480022 125.046416 
L 378.714039 155.736958 
L 379.948056 133.840059 
L 381.182074 142.923951 
L 382.416091 157.560949 
L 383.650108 145.180291 
L 384.884125 129.663607 
L 386.118142 131.033707 
L 387.352159 120.352994 
L 388.586177 131.249487 
L 389.820194 148.146519 
L 391.054211 131.078331 
L 392.288228 165.256813 
L 393.522245 119.629353 
L 394.756263 155.899355 
L 395.99028 121.904887 
L 397.224297 106.794551 
L 398.458314 133.032574 
L 399.692331 143.286977 
L 400.926348 119.797799 
L 402.160366 161.559087 
L 402.160366 161.559087 
" clip-path="url(#p45b8668636)" style="fill: none; stroke: #d66b6a; stroke-width: 1.5; stroke-linecap: square"/>
   </g>
   <g id="line2d_28">
    <path d="M 94.890088 55.074007 
L 96.124105 188.446068 
L 97.358123 160.118974 
L 98.59214 86.925414 
L 99.826157 79.540997 
L 101.060174 68.897488 
L 102.294191 109.122617 
L 103.528209 112.807095 
L 104.762226 184.523477 
L 105.996243 103.492998 
L 107.23026 154.95837 
L 108.464277 133.906135 
L 109.698294 151.550018 
L 110.932312 139.259818 
L 112.166329 145.65134 
L 113.400346 154.357981 
L 114.634363 159.079658 
L 115.86838 146.58661 
L 117.102397 154.518169 
L 118.336415 156.504203 
L 119.570432 138.889217 
L 120.804449 148.596322 
L 122.038466 165.319172 
L 123.272483 150.517238 
L 124.506501 142.023139 
L 125.740518 135.230173 
L 126.974535 148.363309 
L 128.208552 135.472559 
L 129.442569 147.682566 
L 130.676586 148.42287 
L 131.910604 151.748826 
L 133.144621 148.005198 
L 134.378638 147.008256 
L 135.612655 148.01725 
L 136.846672 138.057755 
L 138.08069 152.756046 
L 139.314707 145.413397 
L 140.548724 156.008344 
L 141.782741 155.980757 
L 143.016758 137.822636 
L 144.250775 135.748406 
L 145.484793 146.47741 
L 146.71881 174.755835 
L 147.952827 158.690124 
L 149.186844 156.936176 
L 150.420861 163.279876 
L 151.654878 183.492366 
L 152.888896 150.361491 
L 154.122913 155.388637 
L 155.35693 164.868322 
L 156.590947 153.105807 
L 157.824964 149.196537 
L 159.058982 169.939106 
L 160.292999 171.713564 
L 161.527016 162.967333 
L 162.761033 187.220272 
L 163.99505 167.737907 
L 165.229067 159.383113 
L 166.463085 164.239836 
L 167.697102 172.580993 
L 168.931119 176.508213 
L 170.165136 170.159738 
L 171.399153 189.740563 
L 172.63317 191.466274 
L 173.867188 171.403492 
L 175.101205 176.371977 
L 176.335222 172.58108 
L 177.569239 190.181147 
L 178.803256 202.254304 
L 180.037274 168.243265 
L 181.271291 185.606182 
L 182.505308 195.705995 
L 183.739325 182.391464 
L 184.973342 194.802174 
L 186.207359 189.602119 
L 187.441377 192.439329 
L 188.675394 190.330992 
L 189.909411 179.554392 
L 191.143428 185.569432 
L 192.377445 199.008682 
L 193.611463 186.957763 
L 194.84548 200.172024 
L 196.079497 197.954659 
L 198.547531 159.65884 
L 199.781548 176.176082 
L 201.015566 203.581706 
L 202.249583 193.641344 
L 203.4836 194.262921 
L 204.717617 204.32524 
L 205.951634 182.740534 
L 207.185651 204.365336 
L 209.653686 161.105225 
L 210.887703 198.248198 
L 212.12172 177.738523 
L 213.355737 178.897862 
L 214.589755 178.06993 
L 215.823772 188.248338 
L 217.057789 162.273334 
L 218.291806 197.347165 
L 219.525823 167.999841 
L 220.75984 174.078381 
L 221.993858 153.232284 
L 223.227875 155.818503 
L 224.461892 149.005499 
L 225.695909 182.682281 
L 226.929926 145.343356 
L 228.163944 143.374985 
L 229.397961 142.12748 
L 230.631978 157.928385 
L 231.865995 162.849705 
L 233.100012 166.18905 
L 234.334029 163.607681 
L 235.568047 168.290537 
L 238.036081 150.335392 
L 239.270098 176.469481 
L 240.504115 140.837429 
L 241.738132 156.527952 
L 242.97215 147.057442 
L 244.206167 138.774393 
L 245.440184 172.319684 
L 246.674201 155.963249 
L 247.908218 155.476156 
L 249.142236 166.71322 
L 250.376253 147.851821 
L 251.61027 150.573915 
L 252.844287 161.441511 
L 254.078304 135.669753 
L 255.312321 167.222013 
L 256.546339 145.408729 
L 257.780356 153.845231 
L 259.014373 138.844312 
L 260.24839 140.306695 
L 261.482407 139.105959 
L 262.716424 139.877112 
L 263.950442 137.323038 
L 265.184459 152.964084 
L 266.418476 134.198604 
L 267.652493 141.599586 
L 268.88651 140.457172 
L 270.120528 138.9155 
L 271.354545 149.724913 
L 272.588562 157.677211 
L 273.822579 146.719354 
L 275.056596 140.217468 
L 276.290613 144.608454 
L 277.524631 150.692047 
L 278.758648 132.962055 
L 279.992665 141.053395 
L 281.226682 141.536181 
L 282.460699 146.937106 
L 283.694717 164.394662 
L 284.928734 159.747021 
L 286.162751 159.937541 
L 287.396768 145.841259 
L 288.630785 141.557039 
L 289.864802 125.389501 
L 292.332837 152.042751 
L 293.566854 137.660395 
L 294.800871 136.763742 
L 297.268905 133.972147 
L 298.502923 152.223322 
L 299.73694 134.013913 
L 300.970957 156.995325 
L 303.438991 139.851052 
L 304.673009 147.575189 
L 305.907026 142.309985 
L 307.141043 134.148839 
L 308.37506 140.811693 
L 309.609077 151.188073 
L 310.843094 135.674719 
L 312.077112 139.851505 
L 313.311129 147.753505 
L 314.545146 135.667346 
L 315.779163 117.638863 
L 317.01318 143.27141 
L 318.247197 130.400229 
L 319.481215 143.095654 
L 320.715232 149.906468 
L 321.949249 131.811021 
L 324.417283 153.754776 
L 325.651301 143.059943 
L 326.885318 126.999932 
L 328.119335 147.400768 
L 329.353352 151.566965 
L 330.587369 141.994577 
L 331.821386 154.097395 
L 333.055404 145.730736 
L 334.289421 138.409409 
L 336.757455 148.30133 
L 337.991472 138.705051 
L 339.22549 151.978995 
L 340.459507 147.382829 
L 341.693524 138.43096 
L 342.927541 135.039734 
L 344.161558 151.882554 
L 345.395575 154.797087 
L 346.629593 145.974344 
L 347.86361 148.125799 
L 349.097627 153.189582 
L 350.331644 150.423421 
L 351.565661 140.6223 
L 352.799678 141.779724 
L 354.033696 146.009399 
L 355.267713 155.112489 
L 356.50173 132.326575 
L 357.735747 146.261444 
L 358.969764 149.60102 
L 360.203782 155.731788 
L 361.437799 156.63278 
L 362.671816 163.550609 
L 363.905833 150.546955 
L 365.13985 140.339278 
L 366.373867 156.777773 
L 367.607885 160.206165 
L 368.841902 136.86085 
L 370.075919 129.033062 
L 371.309936 130.545285 
L 372.543953 159.291941 
L 373.777971 155.282811 
L 375.011988 132.68183 
L 376.246005 169.811579 
L 377.480022 134.760252 
L 379.948056 166.190259 
L 381.182074 134.349849 
L 382.416091 140.249511 
L 383.650108 162.086926 
L 384.884125 133.327322 
L 386.118142 153.398907 
L 387.352159 155.446229 
L 388.586177 135.628839 
L 389.820194 157.414823 
L 391.054211 161.295318 
L 392.288228 143.198536 
L 393.522245 121.595379 
L 394.756263 153.6192 
L 395.99028 140.086434 
L 397.224297 140.986972 
L 398.458314 150.706293 
L 399.692331 158.884851 
L 400.926348 146.272877 
L 402.160366 153.654167 
L 402.160366 153.654167 
" clip-path="url(#p45b8668636)" style="fill: none; stroke: #5591e1; stroke-width: 1.5; stroke-linecap: square"/>
   </g>
   <g id="line2d_29">
    <path d="M 94.890088 52.786735 
L 96.124105 164.62733 
L 97.358123 113.162321 
L 98.59214 46.058869 
L 99.826157 108.448454 
L 101.060174 160.787944 
L 102.294191 157.442598 
L 103.528209 158.837119 
L 104.762226 124.405675 
L 105.996243 173.766099 
L 107.23026 206.252875 
L 108.464277 169.925623 
L 109.698294 126.677416 
L 110.932312 124.728709 
L 112.166329 103.61043 
L 113.400346 119.246379 
L 114.634363 123.374158 
L 115.86838 152.223984 
L 117.102397 158.738676 
L 118.336415 154.740587 
L 119.570432 154.300463 
L 120.804449 174.419048 
L 122.038466 154.139815 
L 123.272483 131.407296 
L 124.506501 156.711513 
L 125.740518 187.015916 
L 126.974535 153.452774 
L 128.208552 149.887711 
L 129.442569 120.361943 
L 130.676586 164.932436 
L 131.910604 137.749403 
L 133.144621 136.313964 
L 134.378638 152.439589 
L 135.612655 160.503467 
L 136.846672 137.83924 
L 138.08069 141.434842 
L 139.314707 150.834467 
L 140.548724 165.786104 
L 141.782741 158.461541 
L 143.016758 160.435376 
L 144.250775 142.542745 
L 145.484793 159.995021 
L 146.71881 149.013056 
L 147.952827 186.303848 
L 149.186844 153.985977 
L 150.420861 162.302108 
L 151.654878 142.909313 
L 152.888896 175.324833 
L 154.122913 140.223657 
L 155.35693 161.709079 
L 156.590947 147.15952 
L 157.824964 167.610654 
L 159.058982 171.8723 
L 160.292999 158.983823 
L 161.527016 166.022292 
L 162.761033 149.349398 
L 163.99505 179.570313 
L 165.229067 155.792299 
L 166.463085 171.871197 
L 167.697102 207.803418 
L 168.931119 167.517877 
L 170.165136 173.605221 
L 171.399153 174.248263 
L 172.63317 148.986672 
L 173.867188 172.415457 
L 175.101205 181.340063 
L 176.335222 166.072526 
L 177.569239 180.270867 
L 178.803256 179.8788 
L 180.037274 187.000958 
L 181.271291 180.098674 
L 182.505308 201.476572 
L 183.739325 146.163907 
L 184.973342 154.460958 
L 186.207359 164.879969 
L 187.441377 144.023651 
L 188.675394 146.951845 
L 189.909411 159.342436 
L 191.143428 136.755377 
L 192.377445 153.398844 
L 193.611463 131.221782 
L 194.84548 122.59578 
L 196.079497 123.68679 
L 197.313514 115.786708 
L 198.547531 138.562126 
L 199.781548 126.606114 
L 201.015566 135.225568 
L 202.249583 131.497066 
L 203.4836 116.2363 
L 204.717617 139.421609 
L 205.951634 130.115377 
L 207.185651 114.712683 
L 208.419669 117.070001 
L 209.653686 105.503187 
L 210.887703 114.379425 
L 212.12172 115.285404 
L 213.355737 113.584307 
L 214.589755 122.537942 
L 215.823772 129.948923 
L 217.057789 98.09975 
L 218.291806 126.299653 
L 219.525823 136.656863 
L 220.75984 150.295989 
L 221.993858 102.713659 
L 223.227875 104.505755 
L 224.461892 137.492281 
L 225.695909 148.770882 
L 226.929926 141.569073 
L 228.163944 156.585091 
L 229.397961 133.054063 
L 230.631978 135.984068 
L 231.865995 123.318298 
L 233.100012 171.385834 
L 234.334029 147.546384 
L 235.568047 137.968278 
L 236.802064 144.688442 
L 238.036081 153.975254 
L 239.270098 158.318661 
L 240.504115 170.203946 
L 241.738132 170.757762 
L 242.97215 158.027779 
L 244.206167 128.115615 
L 245.440184 142.107874 
L 246.674201 145.105756 
L 247.908218 129.601811 
L 249.142236 141.308931 
L 250.376253 158.091744 
L 251.61027 138.624711 
L 252.844287 141.913827 
L 254.078304 143.506216 
L 255.312321 156.724861 
L 256.546339 144.82152 
L 257.780356 151.752113 
L 259.014373 173.846582 
L 260.24839 132.064257 
L 261.482407 151.314364 
L 262.716424 124.334727 
L 263.950442 145.762645 
L 265.184459 161.38721 
L 266.418476 152.575454 
L 267.652493 154.280164 
L 268.88651 145.710556 
L 270.120528 134.682466 
L 271.354545 141.485914 
L 272.588562 133.064741 
L 273.822579 150.197919 
L 275.056596 156.449662 
L 276.290613 144.06711 
L 277.524631 156.829743 
L 278.758648 148.86048 
L 279.992665 151.850748 
L 281.226682 152.746037 
L 282.460699 158.661531 
L 283.694717 140.029801 
L 286.162751 131.083986 
L 287.396768 150.605106 
L 288.630785 152.625269 
L 289.864802 149.530615 
L 291.09882 148.784769 
L 292.332837 144.178194 
L 293.566854 149.96939 
L 294.800871 180.27129 
L 296.034888 123.948884 
L 297.268905 144.310774 
L 298.502923 155.645759 
L 299.73694 140.830651 
L 300.970957 157.738679 
L 302.204974 163.544859 
L 303.438991 152.678338 
L 304.673009 158.739589 
L 305.907026 143.555093 
L 307.141043 139.911281 
L 308.37506 127.338363 
L 309.609077 111.910319 
L 310.843094 107.651628 
L 312.077112 126.161022 
L 313.311129 117.035718 
L 314.545146 132.880817 
L 315.779163 117.121918 
L 317.01318 104.509717 
L 318.247197 117.016275 
L 319.481215 148.122723 
L 320.715232 168.194434 
L 321.949249 133.283222 
L 323.183266 128.145591 
L 324.417283 125.450044 
L 325.651301 112.262903 
L 326.885318 126.525251 
L 328.119335 125.043049 
L 329.353352 118.209693 
L 330.587369 157.591227 
L 331.821386 163.079441 
L 333.055404 146.457754 
L 334.289421 126.273963 
L 335.523438 133.147386 
L 336.757455 133.751263 
L 337.991472 168.61708 
L 339.22549 150.659699 
L 340.459507 138.643154 
L 341.693524 124.023111 
L 342.927541 123.775498 
L 344.161558 112.85849 
L 345.395575 117.623691 
L 346.629593 124.69463 
L 347.86361 123.6269 
L 349.097627 118.160678 
L 350.331644 128.79514 
L 351.565661 115.818755 
L 352.799678 131.229742 
L 354.033696 140.71614 
L 355.267713 163.717265 
L 356.50173 123.579565 
L 357.735747 171.810411 
L 358.969764 149.587516 
L 360.203782 143.442142 
L 361.437799 129.304637 
L 362.671816 124.529386 
L 363.905833 144.293001 
L 365.13985 131.571088 
L 366.373867 98.321093 
L 367.607885 96.952336 
L 368.841902 97.652019 
L 370.075919 117.452119 
L 372.543953 134.937818 
L 373.777971 180.409879 
L 375.011988 125.614823 
L 376.246005 112.405858 
L 377.480022 133.682078 
L 378.714039 133.156028 
L 379.948056 76.242121 
L 381.182074 145.46345 
L 382.416091 118.314568 
L 383.650108 128.969206 
L 384.884125 111.070111 
L 386.118142 111.977596 
L 387.352159 112.512394 
L 388.586177 99.739745 
L 389.820194 92.641979 
L 391.054211 84.781563 
L 392.288228 110.034389 
L 393.522245 100.938881 
L 394.756263 100.112907 
L 395.99028 145.383178 
L 397.224297 117.542329 
L 398.458314 120.284977 
L 399.692331 118.673752 
L 400.926348 102.335465 
L 402.160366 107.10142 
L 402.160366 107.10142 
" clip-path="url(#p45b8668636)" style="fill: none; stroke: #6ca247; stroke-width: 1.5; stroke-linecap: square"/>
   </g>
   <g id="patch_3">
    <path d="M 79.526574 376.064204 
L 79.526574 9.955247 
" style="fill: none; stroke: #000000; stroke-width: 0.8; stroke-linejoin: miter; stroke-linecap: square"/>
   </g>
   <g id="patch_4">
    <path d="M 417.523879 376.064204 
L 417.523879 9.955247 
" style="fill: none; stroke: #000000; stroke-width: 0.8; stroke-linejoin: miter; stroke-linecap: square"/>
   </g>
   <g id="patch_5">
    <path d="M 79.526574 376.064204 
L 417.523879 376.064204 
" style="fill: none; stroke: #000000; stroke-width: 0.8; stroke-linejoin: miter; stroke-linecap: square"/>
   </g>
   <g id="patch_6">
    <path d="M 79.526574 9.955247 
L 417.523879 9.955247 
" style="fill: none; stroke: #000000; stroke-width: 0.8; stroke-linejoin: miter; stroke-linecap: square"/>
   </g>
   <g id="legend_1">
    <g id="patch_7">
     <path d="M 90.726574 368.064204 
L 188.632485 368.064204 
Q 191.832485 368.064204 191.832485 364.864204 
L 191.832485 299.565776 
Q 191.832485 296.365776 188.632485 296.365776 
L 90.726574 296.365776 
Q 87.526574 296.365776 87.526574 299.565776 
L 87.526574 364.864204 
Q 87.526574 368.064204 90.726574 368.064204 
z
" style="fill: #ffffff; opacity: 0.8; stroke: #cccccc; stroke-linejoin: miter"/>
    </g>
    <g id="line2d_30">
     <path d="M 93.926574 308.365776 
L 109.926574 308.365776 
L 125.926574 308.365776 
" style="fill: none; stroke: #d66b6a; stroke-width: 1.5; stroke-linecap: square"/>
    </g>
    <g id="text_16">
     <!-- SAC -->
     <g transform="translate(138.726574 313.965776) scale(0.16 -0.16)">
      <defs>
       <path id="CMR17-41" d="M 2323 4441 
C 2291 4524 2278 4544 2214 4544 
C 2150 4544 2138 4524 2106 4441 
L 749 580 
C 627 236 371 166 147 166 
L 147 0 
C 262 12 518 12 640 12 
C 800 12 1056 12 1210 0 
L 1210 166 
C 909 179 864 382 864 459 
C 864 516 877 548 890 586 
L 1229 1536 
L 2906 1536 
L 3290 453 
C 3322 376 3322 363 3322 338 
C 3322 166 3046 166 2925 166 
L 2925 0 
C 3110 12 3443 12 3642 12 
C 3808 12 4128 12 4282 0 
L 4282 166 
C 3942 166 3827 166 3744 402 
L 2323 4441 
z
M 2067 3924 
L 2848 1702 
L 1286 1702 
L 2067 3924 
z
" transform="scale(0.015625)"/>
       <path id="CMR17-43" d="M 3974 4351 
C 3974 4467 3968 4473 3930 4473 
C 3904 4473 3898 4467 3853 4390 
L 3571 3849 
C 3258 4249 2874 4480 2381 4480 
C 1286 4480 294 3507 294 2179 
C 294 837 1286 -128 2387 -128 
C 3366 -128 3974 741 3974 1482 
C 3974 1547 3974 1573 3917 1573 
C 3866 1573 3866 1553 3859 1495 
C 3808 592 3168 38 2477 38 
C 1824 38 781 502 781 2179 
C 781 3862 1843 4313 2464 4313 
C 3187 4313 3712 3681 3834 2785 
C 3846 2707 3846 2695 3904 2695 
C 3974 2695 3974 2707 3974 2824 
L 3974 4351 
z
" transform="scale(0.015625)"/>
      </defs>
      <use xlink:href="#CMR17-53" transform="scale(0.996264)"/>
      <use xlink:href="#CMR17-41" transform="translate(50.89537 0) scale(0.996264)"/>
      <use xlink:href="#CMR17-43" transform="translate(117.365346 0) scale(0.996264)"/>
     </g>
    </g>
    <g id="line2d_31">
     <path d="M 93.926574 330.665252 
L 109.926574 330.665252 
L 125.926574 330.665252 
" style="fill: none; stroke: #5591e1; stroke-width: 1.5; stroke-linecap: square"/>
    </g>
    <g id="text_17">
     <!-- AFU -->
     <g transform="translate(138.726574 336.265252) scale(0.16 -0.16)">
      <defs>
       <path id="CMR17-46" d="M 3482 4339 
L 326 4339 
L 326 4172 
C 768 4172 838 4172 838 3883 
L 838 450 
C 838 166 768 166 326 166 
L 326 0 
C 512 12 870 12 1069 12 
C 1331 12 1638 12 1901 0 
L 1901 166 
L 1760 166 
C 1274 166 1261 229 1261 456 
L 1261 2073 
L 1837 2073 
C 2432 2073 2490 1865 2490 1334 
L 2605 1334 
L 2605 2991 
L 2490 2991 
C 2490 2451 2432 2240 1837 2240 
L 1261 2240 
L 1261 3922 
C 1261 4140 1274 4172 1530 4172 
L 2355 4172 
C 3322 4172 3430 3774 3520 2920 
L 3635 2920 
L 3482 4339 
z
" transform="scale(0.015625)"/>
       <path id="CMR17-55" d="M 3456 1442 
C 3456 583 2899 38 2291 38 
C 1965 38 1670 211 1491 480 
C 1286 788 1261 1185 1261 1410 
L 1261 3897 
C 1261 4185 1331 4185 1773 4185 
L 1773 4352 
C 1587 4339 1248 4339 1050 4339 
C 851 4339 512 4339 326 4352 
L 326 4185 
C 768 4185 838 4185 838 3897 
L 838 1442 
C 838 519 1536 -128 2278 -128 
C 3110 -128 3590 724 3590 1352 
L 3590 3788 
C 3590 4147 3917 4185 4102 4185 
L 4102 4352 
C 3955 4339 3686 4339 3526 4339 
C 3366 4339 3091 4339 2944 4352 
L 2944 4185 
C 3456 4185 3456 3884 3456 3724 
L 3456 1442 
z
" transform="scale(0.015625)"/>
      </defs>
      <use xlink:href="#CMR17-41" transform="scale(0.996264)"/>
      <use xlink:href="#CMR17-46" transform="translate(69.07243 0) scale(0.996264)"/>
      <use xlink:href="#CMR17-55" transform="translate(129.056276 0) scale(0.996264)"/>
     </g>
    </g>
    <g id="line2d_32">
     <path d="M 93.926574 352.964728 
L 109.926574 352.964728 
L 125.926574 352.964728 
" style="fill: none; stroke: #6ca247; stroke-width: 1.5; stroke-linecap: square"/>
    </g>
    <g id="text_18">
     <!-- DDPG -->
     <g transform="translate(138.726574 358.564728) scale(0.16 -0.16)">
      <defs>
       <path id="CMR17-44" d="M 333 4352 
L 333 4185 
C 774 4185 845 4185 845 3898 
L 845 453 
C 845 166 774 166 333 166 
L 333 0 
L 2368 0 
C 3398 0 4224 943 4224 2140 
C 4224 3344 3411 4352 2368 4352 
L 333 4352 
z
M 1523 166 
C 1267 166 1254 198 1254 414 
L 1254 3936 
C 1254 4153 1267 4185 1523 4185 
L 2240 4185 
C 2771 4185 3750 3873 3750 2140 
C 3750 1242 3488 879 3366 707 
C 3213 510 2848 166 2240 166 
L 1523 166 
z
" transform="scale(0.015625)"/>
       <path id="CMR17-50" d="M 1267 2048 
L 2291 2048 
C 3117 2048 3718 2583 3718 3187 
C 3718 3791 3130 4352 2291 4352 
L 333 4352 
L 333 4185 
C 774 4185 845 4185 845 3899 
L 845 453 
C 845 166 774 166 333 166 
L 333 0 
C 518 12 858 12 1056 12 
C 1254 12 1594 12 1779 0 
L 1779 166 
C 1338 166 1267 166 1267 453 
L 1267 2048 
z
M 1254 2182 
L 1254 3937 
C 1254 4153 1267 4185 1523 4185 
L 2170 4185 
C 2995 4185 3232 3715 3232 3187 
C 3232 2608 2950 2182 2170 2182 
L 1254 2182 
z
" transform="scale(0.015625)"/>
       <path id="CMR17-47" d="M 3974 1258 
C 3974 1503 3994 1536 4390 1536 
L 4390 1702 
C 4237 1689 3891 1689 3718 1689 
C 3539 1689 3040 1696 2797 1702 
L 2797 1536 
L 2989 1536 
C 3539 1536 3552 1464 3552 1232 
L 3552 806 
C 3552 96 2720 38 2522 38 
C 1862 38 781 496 781 2179 
C 781 3862 1843 4313 2464 4313 
C 3187 4313 3712 3681 3834 2785 
C 3846 2708 3846 2695 3904 2695 
C 3974 2695 3974 2708 3974 2824 
L 3974 4351 
C 3974 4467 3968 4473 3930 4473 
C 3904 4473 3898 4467 3853 4390 
L 3571 3849 
C 3258 4249 2874 4480 2381 4480 
C 1286 4480 294 3507 294 2179 
C 294 858 1267 -128 2394 -128 
C 2912 -128 3418 57 3616 425 
C 3725 161 3904 -20 3936 -20 
C 3968 -20 3974 -13 3974 102 
L 3974 1258 
z
" transform="scale(0.015625)"/>
      </defs>
      <use xlink:href="#CMR17-44" transform="scale(0.996264)"/>
      <use xlink:href="#CMR17-44" transform="translate(70.393556 0) scale(0.996264)"/>
      <use xlink:href="#CMR17-50" transform="translate(140.787112 0) scale(0.996264)"/>
      <use xlink:href="#CMR17-47" transform="translate(203.373412 0) scale(0.996264)"/>
     </g>
    </g>
   </g>
  </g>
 </g>
 <defs>
  <clipPath id="p45b8668636">
   <rect x="79.526574" y="9.955247" width="337.997305" height="366.108958"/>
  </clipPath>
 </defs>
</svg>
