<?xml version="1.0" encoding="utf-8" standalone="no"?>
<!DOCTYPE svg PUBLIC "-//W3C//DTD SVG 1.1//EN"
  "http://www.w3.org/Graphics/SVG/1.1/DTD/svg11.dtd">
<svg xmlns:xlink="http://www.w3.org/1999/xlink" width="425.935086pt" height="426.4pt" viewBox="0 0 425.935086 426.4" xmlns="http://www.w3.org/2000/svg" version="1.1">
 <metadata>
  <rdf:RDF xmlns:dc="http://purl.org/dc/elements/1.1/" xmlns:cc="http://creativecommons.org/ns#" xmlns:rdf="http://www.w3.org/1999/02/22-rdf-syntax-ns#">
   <cc:Work>
    <dc:type rdf:resource="http://purl.org/dc/dcmitype/StillImage"/>
    <dc:date>1980-01-01T00:00:00+00:00</dc:date>
    <dc:format>image/svg+xml</dc:format>
    <dc:creator>
     <cc:Agent>
      <dc:title>Matplotlib v3.8.0, https://matplotlib.org/</dc:title>
     </cc:Agent>
    </dc:creator>
   </cc:Work>
  </rdf:RDF>
 </metadata>
 <defs>
  <style type="text/css">*{stroke-linejoin: round; stroke-linecap: butt}</style>
 </defs>
 <g id="figure_1">
  <g id="patch_1">
   <path d="M 0 426.4 
L 425.935086 426.4 
L 425.935086 0 
L 0 0 
z
" style="fill: #ffffff"/>
  </g>
  <g id="axes_1">
   <g id="patch_2">
    <path d="M 71.722587 376.318305 
L 417.523879 376.318305 
L 417.523879 7.2 
L 71.722587 7.2 
z
" style="fill: #ffffff"/>
   </g>
   <g id="PolyCollection_1">
    <defs>
     <path id="mde4cee0d5f" d="M 87.440828 -136.02077 
L 87.440828 -66.8598 
L 88.703337 -160.155546 
L 89.965847 -107.866527 
L 91.228356 -119.537391 
L 92.490865 -143.859914 
L 93.753374 -159.223582 
L 95.015884 -166.297994 
L 96.278393 -197.651312 
L 97.540902 -221.097165 
L 98.803411 -197.748892 
L 100.065921 -214.120579 
L 101.32843 -222.889321 
L 102.590939 -230.917786 
L 103.853449 -230.994293 
L 105.115958 -229.010181 
L 106.378467 -222.774945 
L 107.640976 -214.410413 
L 108.903486 -213.04937 
L 110.165995 -231.292134 
L 111.428504 -229.000191 
L 112.691014 -228.274246 
L 113.953523 -238.084213 
L 115.216032 -231.398184 
L 116.478541 -224.79087 
L 117.741051 -203.234132 
L 119.00356 -217.370264 
L 120.266069 -218.370265 
L 121.528579 -205.979512 
L 122.791088 -235.55428 
L 124.053597 -231.637059 
L 125.316106 -210.74648 
L 126.578616 -237.643797 
L 127.841125 -235.385268 
L 129.103634 -229.694953 
L 130.366144 -234.68844 
L 131.628653 -230.930429 
L 132.891162 -227.507322 
L 134.153671 -230.117643 
L 135.416181 -246.206418 
L 136.67869 -238.15138 
L 137.941199 -223.549382 
L 139.203708 -236.871938 
L 140.466218 -218.116011 
L 141.728727 -234.15361 
L 142.991236 -237.259968 
L 144.253746 -239.970908 
L 145.516255 -235.101674 
L 146.778764 -235.347867 
L 148.041273 -240.217602 
L 149.303783 -222.153393 
L 150.566292 -242.758294 
L 151.828801 -236.621736 
L 153.091311 -242.429206 
L 154.35382 -240.369624 
L 155.616329 -234.185343 
L 156.878838 -236.860967 
L 158.141348 -229.094268 
L 159.403857 -242.380613 
L 160.666366 -248.379479 
L 161.928876 -242.280142 
L 163.191385 -241.409597 
L 164.453894 -247.92221 
L 165.716403 -252.408452 
L 166.978913 -254.265054 
L 168.241422 -254.553048 
L 169.503931 -250.216023 
L 170.766441 -249.79871 
L 172.02895 -246.115134 
L 173.291459 -246.980707 
L 174.553968 -250.487942 
L 175.816478 -248.007268 
L 177.078987 -250.460771 
L 178.341496 -249.565134 
L 179.604005 -244.501756 
L 180.866515 -243.944563 
L 182.129024 -245.18885 
L 183.391533 -248.574881 
L 184.654043 -250.332354 
L 185.916552 -241.792657 
L 187.179061 -243.825655 
L 188.44157 -241.310873 
L 189.70408 -236.720216 
L 190.966589 -248.684932 
L 192.229098 -244.34349 
L 193.491608 -252.617836 
L 194.754117 -250.115412 
L 196.016626 -249.385519 
L 197.279135 -249.334819 
L 198.541645 -245.023122 
L 199.804154 -248.232775 
L 201.066663 -253.781721 
L 202.329173 -252.279049 
L 203.591682 -250.268149 
L 204.854191 -241.228484 
L 206.1167 -247.848063 
L 207.37921 -245.130313 
L 208.641719 -247.375355 
L 209.904228 -245.954485 
L 211.166737 -247.763631 
L 212.429247 -250.849441 
L 213.691756 -254.808489 
L 214.954265 -248.944795 
L 216.216775 -243.803282 
L 217.479284 -242.762486 
L 218.741793 -249.484917 
L 220.004302 -244.329834 
L 221.266812 -246.461316 
L 222.529321 -253.717153 
L 223.79183 -248.093627 
L 225.05434 -246.600522 
L 226.316849 -248.972923 
L 227.579358 -252.858622 
L 228.841867 -251.08352 
L 230.104377 -257.701446 
L 231.366886 -258.978004 
L 232.629395 -260.769545 
L 233.891905 -251.33774 
L 235.154414 -255.124514 
L 236.416923 -251.250583 
L 237.679432 -260.565537 
L 238.941942 -257.444949 
L 240.204451 -255.141665 
L 241.46696 -259.634214 
L 242.72947 -258.426469 
L 243.991979 -255.698733 
L 245.254488 -248.678215 
L 246.516997 -255.551616 
L 247.779507 -252.202521 
L 249.042016 -259.215285 
L 250.304525 -253.463326 
L 251.567034 -254.230767 
L 252.829544 -255.527951 
L 254.092053 -252.719014 
L 255.354562 -261.243863 
L 256.617072 -255.736356 
L 257.879581 -258.861636 
L 259.14209 -252.128448 
L 260.404599 -260.155641 
L 261.667109 -262.786027 
L 262.929618 -259.616197 
L 264.192127 -262.541708 
L 265.454637 -259.43778 
L 266.717146 -262.214136 
L 267.979655 -259.533599 
L 269.242164 -260.660032 
L 270.504674 -262.2174 
L 271.767183 -265.232554 
L 273.029692 -268.925862 
L 274.292202 -265.111548 
L 275.554711 -264.425102 
L 276.81722 -254.946635 
L 278.079729 -259.103388 
L 279.342239 -258.643458 
L 280.604748 -256.922139 
L 281.867257 -262.300225 
L 283.129767 -262.067921 
L 284.392276 -262.677076 
L 285.654785 -256.712159 
L 286.917294 -257.246795 
L 288.179804 -258.810768 
L 289.442313 -259.002295 
L 290.704822 -264.559289 
L 291.967331 -259.966317 
L 293.229841 -260.643233 
L 294.49235 -265.274268 
L 295.754859 -262.274982 
L 297.017369 -258.862295 
L 298.279878 -256.742626 
L 299.542387 -255.458305 
L 300.804896 -262.447562 
L 302.067406 -261.000023 
L 303.329915 -257.029833 
L 304.592424 -267.876207 
L 305.854934 -260.041001 
L 307.117443 -255.573498 
L 308.379952 -259.381294 
L 309.642461 -257.497843 
L 310.904971 -258.249727 
L 312.16748 -256.092953 
L 313.429989 -267.093266 
L 314.692499 -266.742425 
L 315.955008 -265.094286 
L 317.217517 -265.087599 
L 318.480026 -260.200837 
L 319.742536 -261.009556 
L 321.005045 -260.48433 
L 322.267554 -268.957032 
L 323.530064 -262.018076 
L 324.792573 -270.798092 
L 326.055082 -262.296329 
L 327.317591 -264.723107 
L 328.580101 -266.244053 
L 329.84261 -261.56023 
L 331.105119 -266.073205 
L 332.367628 -261.523378 
L 333.630138 -258.512249 
L 334.892647 -264.856401 
L 336.155156 -267.050965 
L 337.417666 -262.543185 
L 338.680175 -263.481753 
L 339.942684 -267.225214 
L 341.205193 -260.692711 
L 342.467703 -264.755862 
L 343.730212 -256.698142 
L 344.992721 -265.251541 
L 346.255231 -262.500746 
L 347.51774 -262.575152 
L 348.780249 -259.0251 
L 350.042758 -259.841147 
L 351.305268 -258.412761 
L 352.567777 -262.985404 
L 353.830286 -262.325486 
L 355.092796 -261.797119 
L 356.355305 -267.274418 
L 357.617814 -259.607351 
L 358.880323 -264.509247 
L 360.142833 -269.563927 
L 361.405342 -259.385659 
L 362.667851 -259.559336 
L 363.93036 -265.181105 
L 365.19287 -265.207797 
L 366.455379 -255.315418 
L 367.717888 -264.090597 
L 368.980398 -262.819184 
L 370.242907 -256.031863 
L 371.505416 -268.987302 
L 372.767925 -261.91563 
L 374.030435 -263.913362 
L 375.292944 -258.945375 
L 376.555453 -260.152772 
L 377.817963 -262.110441 
L 379.080472 -261.081372 
L 380.342981 -263.868859 
L 381.60549 -268.835704 
L 382.868 -266.787321 
L 384.130509 -265.207271 
L 385.393018 -257.063152 
L 386.655528 -256.322697 
L 387.918037 -260.219431 
L 389.180546 -260.16681 
L 390.443055 -264.19361 
L 391.705565 -263.131657 
L 392.968074 -267.139609 
L 394.230583 -267.445405 
L 395.493093 -268.608514 
L 396.755602 -259.846109 
L 398.018111 -259.071048 
L 399.28062 -253.995561 
L 400.54313 -259.336976 
L 401.805639 -261.926039 
L 401.805639 -385.790475 
L 401.805639 -385.790475 
L 400.54313 -389.674686 
L 399.28062 -393.89895 
L 398.018111 -390.149998 
L 396.755602 -386.753035 
L 395.493093 -387.552354 
L 394.230583 -385.339258 
L 392.968074 -384.575913 
L 391.705565 -391.524038 
L 390.443055 -392.059965 
L 389.180546 -387.583581 
L 387.918037 -386.038252 
L 386.655528 -383.83335 
L 385.393018 -383.691407 
L 384.130509 -387.393641 
L 382.868 -389.204507 
L 381.60549 -387.797507 
L 380.342981 -388.159795 
L 379.080472 -382.856629 
L 377.817963 -384.841323 
L 376.555453 -387.455098 
L 375.292944 -389.259687 
L 374.030435 -384.183537 
L 372.767925 -387.984473 
L 371.505416 -388.962653 
L 370.242907 -387.917522 
L 368.980398 -390.122466 
L 367.717888 -388.665615 
L 366.455379 -386.70927 
L 365.19287 -392.342083 
L 363.93036 -386.494015 
L 362.667851 -389.572931 
L 361.405342 -387.984674 
L 360.142833 -388.833255 
L 358.880323 -388.710652 
L 357.617814 -385.469324 
L 356.355305 -389.402487 
L 355.092796 -393.26026 
L 353.830286 -390.40984 
L 352.567777 -388.779114 
L 351.305268 -393.360861 
L 350.042758 -381.963763 
L 348.780249 -390.244084 
L 347.51774 -385.782292 
L 346.255231 -386.760054 
L 344.992721 -383.109019 
L 343.730212 -384.865804 
L 342.467703 -379.684103 
L 341.205193 -385.427536 
L 339.942684 -388.406351 
L 338.680175 -386.780403 
L 337.417666 -384.023289 
L 336.155156 -388.258661 
L 334.892647 -388.535579 
L 333.630138 -374.953011 
L 332.367628 -386.30143 
L 331.105119 -384.651282 
L 329.84261 -387.683165 
L 328.580101 -390.932389 
L 327.317591 -387.608712 
L 326.055082 -386.0328 
L 324.792573 -391.687037 
L 323.530064 -382.308611 
L 322.267554 -386.605675 
L 321.005045 -382.248028 
L 319.742536 -381.110093 
L 318.480026 -383.355982 
L 317.217517 -384.937609 
L 315.955008 -387.75865 
L 314.692499 -384.567388 
L 313.429989 -376.299182 
L 312.16748 -374.637084 
L 310.904971 -383.516283 
L 309.642461 -381.332491 
L 308.379952 -386.925049 
L 307.117443 -367.059816 
L 305.854934 -381.660025 
L 304.592424 -381.962574 
L 303.329915 -381.576814 
L 302.067406 -376.431701 
L 300.804896 -377.297056 
L 299.542387 -363.502553 
L 298.279878 -361.797695 
L 297.017369 -367.738039 
L 295.754859 -378.261185 
L 294.49235 -375.472582 
L 293.229841 -365.517075 
L 291.967331 -378.63163 
L 290.704822 -370.937391 
L 289.442313 -367.908884 
L 288.179804 -375.177199 
L 286.917294 -380.162322 
L 285.654785 -363.045226 
L 284.392276 -363.702022 
L 283.129767 -373.114935 
L 281.867257 -373.87608 
L 280.604748 -374.363423 
L 279.342239 -357.493414 
L 278.079729 -372.945017 
L 276.81722 -369.619522 
L 275.554711 -366.181194 
L 274.292202 -369.373453 
L 273.029692 -374.252613 
L 271.767183 -354.102769 
L 270.504674 -370.601539 
L 269.242164 -371.559811 
L 267.979655 -375.686668 
L 266.717146 -375.824939 
L 265.454637 -371.380353 
L 264.192127 -375.920732 
L 262.929618 -373.151249 
L 261.667109 -368.673426 
L 260.404599 -379.006454 
L 259.14209 -374.506372 
L 257.879581 -370.33639 
L 256.617072 -363.503803 
L 255.354562 -378.992659 
L 254.092053 -379.127078 
L 252.829544 -370.985416 
L 251.567034 -365.797926 
L 250.304525 -363.279387 
L 249.042016 -380.032043 
L 247.779507 -348.255842 
L 246.516997 -374.94821 
L 245.254488 -366.51032 
L 243.991979 -363.02196 
L 242.72947 -369.159468 
L 241.46696 -363.033384 
L 240.204451 -373.070654 
L 238.941942 -371.702482 
L 237.679432 -383.968424 
L 236.416923 -372.266131 
L 235.154414 -366.707348 
L 233.891905 -356.662925 
L 232.629395 -367.3328 
L 231.366886 -374.427411 
L 230.104377 -361.20718 
L 228.841867 -372.463832 
L 227.579358 -345.110695 
L 226.316849 -352.461279 
L 225.05434 -284.034889 
L 223.79183 -329.643843 
L 222.529321 -298.755045 
L 221.266812 -363.18798 
L 220.004302 -315.794212 
L 218.741793 -363.87905 
L 217.479284 -338.364522 
L 216.216775 -267.138291 
L 214.954265 -333.894046 
L 213.691756 -352.54157 
L 212.429247 -303.305962 
L 211.166737 -331.800907 
L 209.904228 -359.402773 
L 208.641719 -284.798355 
L 207.37921 -268.089032 
L 206.1167 -303.535803 
L 204.854191 -275.862079 
L 203.591682 -356.01726 
L 202.329173 -358.877511 
L 201.066663 -354.51112 
L 199.804154 -346.592537 
L 198.541645 -345.349836 
L 197.279135 -342.661322 
L 196.016626 -346.7332 
L 194.754117 -346.726188 
L 193.491608 -361.614726 
L 192.229098 -346.589953 
L 190.966589 -338.887589 
L 189.70408 -282.282304 
L 188.44157 -358.434101 
L 187.179061 -274.099733 
L 185.916552 -266.109857 
L 184.654043 -310.700925 
L 183.391533 -330.902497 
L 182.129024 -272.678206 
L 180.866515 -288.299752 
L 179.604005 -276.801826 
L 178.341496 -345.677505 
L 177.078987 -319.442694 
L 175.816478 -351.082636 
L 174.553968 -283.336535 
L 173.291459 -272.988939 
L 172.02895 -265.883667 
L 170.766441 -278.257856 
L 169.503931 -355.339031 
L 168.241422 -367.173465 
L 166.978913 -354.272787 
L 165.716403 -345.030055 
L 164.453894 -329.285393 
L 163.191385 -354.551941 
L 161.928876 -280.370848 
L 160.666366 -345.887757 
L 159.403857 -263.667758 
L 158.141348 -257.175157 
L 156.878838 -261.824692 
L 155.616329 -260.554436 
L 154.35382 -258.898516 
L 153.091311 -265.406831 
L 151.828801 -260.727139 
L 150.566292 -265.134251 
L 149.303783 -261.558258 
L 148.041273 -262.651266 
L 146.778764 -259.014637 
L 145.516255 -266.615814 
L 144.253746 -260.678109 
L 142.991236 -261.47226 
L 141.728727 -259.829793 
L 140.466218 -254.640918 
L 139.203708 -260.087026 
L 137.941199 -257.790185 
L 136.67869 -263.21408 
L 135.416181 -265.3213 
L 134.153671 -256.765517 
L 132.891162 -264.631081 
L 131.628653 -263.501317 
L 130.366144 -265.626943 
L 129.103634 -268.797253 
L 127.841125 -266.124713 
L 126.578616 -263.792267 
L 125.316106 -257.698635 
L 124.053597 -265.426704 
L 122.791088 -256.01544 
L 121.528579 -262.1929 
L 120.266069 -252.326381 
L 119.00356 -253.847792 
L 117.741051 -247.028824 
L 116.478541 -247.598474 
L 115.216032 -255.491362 
L 113.953523 -255.153832 
L 112.691014 -255.275043 
L 111.428504 -260.502178 
L 110.165995 -261.942971 
L 108.903486 -252.301907 
L 107.640976 -245.53822 
L 106.378467 -253.077313 
L 105.115958 -253.841138 
L 103.853449 -259.179901 
L 102.590939 -257.140502 
L 101.32843 -252.523268 
L 100.065921 -257.727373 
L 98.803411 -244.909863 
L 97.540902 -248.293555 
L 96.278393 -256.879236 
L 95.015884 -211.078342 
L 93.753374 -227.305648 
L 92.490865 -189.35585 
L 91.228356 -183.616429 
L 89.965847 -201.773373 
L 88.703337 -207.578226 
L 87.440828 -136.02077 
z
" style="stroke: #d66b6a; stroke-opacity: 0.2"/>
    </defs>
    <g clip-path="url(#pf2fcda6848)">
     <use xlink:href="#mde4cee0d5f" x="0" y="426.4" style="fill: #d66b6a; fill-opacity: 0.2; stroke: #d66b6a; stroke-opacity: 0.2"/>
    </g>
   </g>
   <g id="PolyCollection_2">
    <defs>
     <path id="mf4f6663743" d="M 87.440828 -141.414051 
L 87.440828 -84.645542 
L 88.703337 -118.899596 
L 89.965847 -147.813888 
L 91.228356 -162.354392 
L 92.490865 -199.436742 
L 93.753374 -178.541755 
L 95.015884 -226.129107 
L 96.278393 -196.292762 
L 97.540902 -190.020568 
L 98.803411 -193.389865 
L 100.065921 -208.497477 
L 101.32843 -189.845124 
L 102.590939 -229.691063 
L 103.853449 -221.813944 
L 105.115958 -250.570459 
L 106.378467 -251.050352 
L 107.640976 -245.141916 
L 108.903486 -244.997167 
L 110.165995 -246.219303 
L 111.428504 -267.757611 
L 112.691014 -258.711988 
L 113.953523 -268.124727 
L 115.216032 -360.327167 
L 116.478541 -357.839599 
L 117.741051 -351.270135 
L 119.00356 -355.349121 
L 120.266069 -349.094361 
L 121.528579 -349.88626 
L 122.791088 -348.021892 
L 124.053597 -356.249646 
L 125.316106 -356.002297 
L 126.578616 -275.336817 
L 127.841125 -340.664984 
L 129.103634 -304.991645 
L 130.366144 -344.579722 
L 131.628653 -271.682902 
L 132.891162 -281.27003 
L 134.153671 -345.341794 
L 135.416181 -274.114284 
L 136.67869 -353.832155 
L 137.941199 -360.729068 
L 139.203708 -354.866561 
L 140.466218 -354.814353 
L 141.728727 -355.251861 
L 142.991236 -375.296707 
L 144.253746 -374.393719 
L 145.516255 -368.612472 
L 146.778764 -370.997368 
L 148.041273 -367.19774 
L 149.303783 -371.612673 
L 150.566292 -366.319172 
L 151.828801 -373.554575 
L 153.091311 -370.216562 
L 154.35382 -379.783848 
L 155.616329 -371.816382 
L 156.878838 -373.635883 
L 158.141348 -373.597582 
L 159.403857 -370.016238 
L 160.666366 -366.774956 
L 161.928876 -368.31124 
L 163.191385 -372.460096 
L 164.453894 -370.558004 
L 165.716403 -370.204931 
L 166.978913 -374.760138 
L 168.241422 -375.755221 
L 169.503931 -379.826627 
L 170.766441 -383.994569 
L 172.02895 -375.022034 
L 173.291459 -375.07749 
L 174.553968 -380.697513 
L 175.816478 -373.352847 
L 177.078987 -380.615492 
L 178.341496 -375.284555 
L 179.604005 -376.913582 
L 180.866515 -378.545578 
L 182.129024 -380.79543 
L 183.391533 -376.612143 
L 184.654043 -377.506823 
L 185.916552 -377.786106 
L 187.179061 -374.336511 
L 188.44157 -376.126907 
L 189.70408 -374.650194 
L 190.966589 -378.39845 
L 192.229098 -376.698159 
L 193.491608 -372.229501 
L 194.754117 -373.344268 
L 196.016626 -374.622861 
L 197.279135 -377.549214 
L 198.541645 -375.905508 
L 199.804154 -379.530168 
L 201.066663 -378.892958 
L 202.329173 -377.920002 
L 203.591682 -378.037555 
L 204.854191 -377.636588 
L 206.1167 -378.397686 
L 207.37921 -380.434418 
L 208.641719 -382.036452 
L 209.904228 -375.519855 
L 211.166737 -381.073618 
L 212.429247 -377.243907 
L 213.691756 -379.682216 
L 214.954265 -379.682078 
L 216.216775 -378.730731 
L 217.479284 -381.456457 
L 218.741793 -376.051113 
L 220.004302 -379.670222 
L 221.266812 -381.881005 
L 222.529321 -382.324822 
L 223.79183 -382.123978 
L 225.05434 -378.958069 
L 226.316849 -373.651845 
L 227.579358 -384.037889 
L 228.841867 -377.427921 
L 230.104377 -381.19263 
L 231.366886 -374.652232 
L 232.629395 -380.912298 
L 233.891905 -376.827121 
L 235.154414 -379.898688 
L 236.416923 -377.660141 
L 237.679432 -384.748133 
L 238.941942 -377.497666 
L 240.204451 -382.561172 
L 241.46696 -378.506323 
L 242.72947 -380.735561 
L 243.991979 -382.478144 
L 245.254488 -380.719293 
L 246.516997 -378.561958 
L 247.779507 -379.605915 
L 249.042016 -380.381921 
L 250.304525 -381.618276 
L 251.567034 -383.984341 
L 252.829544 -383.088991 
L 254.092053 -381.547799 
L 255.354562 -380.687153 
L 256.617072 -379.272971 
L 257.879581 -378.008714 
L 259.14209 -378.536842 
L 260.404599 -384.171173 
L 261.667109 -385.021976 
L 262.929618 -384.144258 
L 264.192127 -382.150536 
L 265.454637 -377.316889 
L 266.717146 -382.691071 
L 267.979655 -383.019422 
L 269.242164 -387.692084 
L 270.504674 -383.045141 
L 271.767183 -379.526237 
L 273.029692 -378.602837 
L 274.292202 -381.354767 
L 275.554711 -382.471395 
L 276.81722 -383.419722 
L 278.079729 -385.501293 
L 279.342239 -381.539447 
L 280.604748 -383.434692 
L 281.867257 -385.258139 
L 283.129767 -383.620278 
L 284.392276 -387.324797 
L 285.654785 -383.114078 
L 286.917294 -384.913773 
L 288.179804 -385.545534 
L 289.442313 -384.373614 
L 290.704822 -384.242068 
L 291.967331 -384.631396 
L 293.229841 -386.037281 
L 294.49235 -386.086773 
L 295.754859 -383.615494 
L 297.017369 -384.687327 
L 298.279878 -385.115238 
L 299.542387 -385.109874 
L 300.804896 -378.6099 
L 302.067406 -382.093746 
L 303.329915 -385.555866 
L 304.592424 -385.06468 
L 305.854934 -386.138928 
L 307.117443 -382.888896 
L 308.379952 -384.148066 
L 309.642461 -385.366316 
L 310.904971 -385.553764 
L 312.16748 -384.151777 
L 313.429989 -383.230603 
L 314.692499 -388.211709 
L 315.955008 -385.494344 
L 317.217517 -381.405202 
L 318.480026 -384.865351 
L 319.742536 -382.072993 
L 321.005045 -380.618249 
L 322.267554 -385.471179 
L 323.530064 -382.313468 
L 324.792573 -387.28992 
L 326.055082 -383.770119 
L 327.317591 -384.325751 
L 328.580101 -384.860805 
L 329.84261 -383.616973 
L 331.105119 -386.21048 
L 332.367628 -384.510145 
L 333.630138 -384.83166 
L 334.892647 -383.771224 
L 336.155156 -385.460902 
L 337.417666 -385.173373 
L 338.680175 -385.9397 
L 339.942684 -386.332918 
L 341.205193 -384.314973 
L 342.467703 -386.909405 
L 343.730212 -385.472382 
L 344.992721 -383.218962 
L 346.255231 -384.761618 
L 347.51774 -385.911426 
L 348.780249 -387.182914 
L 350.042758 -381.617328 
L 351.305268 -383.909762 
L 352.567777 -384.100426 
L 353.830286 -383.914352 
L 355.092796 -384.270444 
L 356.355305 -383.90265 
L 357.617814 -384.674737 
L 358.880323 -383.402535 
L 360.142833 -379.110168 
L 361.405342 -383.575886 
L 362.667851 -384.756468 
L 363.93036 -385.656362 
L 365.19287 -384.729868 
L 366.455379 -381.74833 
L 367.717888 -384.518298 
L 368.980398 -384.196337 
L 370.242907 -385.492852 
L 371.505416 -383.789002 
L 372.767925 -383.083492 
L 374.030435 -387.721078 
L 375.292944 -382.603878 
L 376.555453 -384.025578 
L 377.817963 -381.684795 
L 379.080472 -385.95132 
L 380.342981 -385.187313 
L 381.60549 -384.37739 
L 382.868 -386.851797 
L 384.130509 -385.543191 
L 385.393018 -385.768362 
L 386.655528 -383.978718 
L 387.918037 -381.208925 
L 389.180546 -381.614201 
L 390.443055 -381.774328 
L 391.705565 -385.453903 
L 392.968074 -381.483965 
L 394.230583 -385.329051 
L 395.493093 -384.008348 
L 396.755602 -386.732612 
L 398.018111 -385.815916 
L 399.28062 -386.532966 
L 400.54313 -385.180191 
L 401.805639 -382.587331 
L 401.805639 -399.111337 
L 401.805639 -399.111337 
L 400.54313 -398.827576 
L 399.28062 -397.838016 
L 398.018111 -396.001565 
L 396.755602 -397.527749 
L 395.493093 -397.632044 
L 394.230583 -396.081824 
L 392.968074 -396.103001 
L 391.705565 -397.734986 
L 390.443055 -394.968175 
L 389.180546 -395.484386 
L 387.918037 -398.43297 
L 386.655528 -393.768828 
L 385.393018 -399.563785 
L 384.130509 -398.121649 
L 382.868 -398.712636 
L 381.60549 -402.421895 
L 380.342981 -396.877126 
L 379.080472 -398.983908 
L 377.817963 -397.86758 
L 376.555453 -397.102556 
L 375.292944 -397.064274 
L 374.030435 -397.788995 
L 372.767925 -397.214003 
L 371.505416 -398.151268 
L 370.242907 -394.836454 
L 368.980398 -402.207251 
L 367.717888 -400.565127 
L 366.455379 -397.685074 
L 365.19287 -396.993211 
L 363.93036 -401.21217 
L 362.667851 -396.957963 
L 361.405342 -399.801366 
L 360.142833 -398.230349 
L 358.880323 -395.148201 
L 357.617814 -397.605323 
L 356.355305 -400.061637 
L 355.092796 -398.057116 
L 353.830286 -397.779427 
L 352.567777 -397.126128 
L 351.305268 -397.074226 
L 350.042758 -396.85016 
L 348.780249 -400.231297 
L 347.51774 -401.520954 
L 346.255231 -399.840082 
L 344.992721 -396.147237 
L 343.730212 -397.616348 
L 342.467703 -402.217605 
L 341.205193 -399.017586 
L 339.942684 -401.048324 
L 338.680175 -400.151819 
L 337.417666 -399.429958 
L 336.155156 -398.748987 
L 334.892647 -396.374452 
L 333.630138 -396.534311 
L 332.367628 -396.860779 
L 331.105119 -397.62188 
L 329.84261 -396.999193 
L 328.580101 -400.783944 
L 327.317591 -399.739156 
L 326.055082 -398.164092 
L 324.792573 -398.578507 
L 323.530064 -397.459231 
L 322.267554 -397.53278 
L 321.005045 -400.255717 
L 319.742536 -395.969584 
L 318.480026 -396.856218 
L 317.217517 -396.891839 
L 315.955008 -399.860181 
L 314.692499 -398.922963 
L 313.429989 -395.553031 
L 312.16748 -395.033671 
L 310.904971 -398.349221 
L 309.642461 -400.137668 
L 308.379952 -397.388827 
L 307.117443 -397.402435 
L 305.854934 -396.919967 
L 304.592424 -399.301647 
L 303.329915 -396.962968 
L 302.067406 -398.962981 
L 300.804896 -395.852304 
L 299.542387 -401.748082 
L 298.279878 -399.587602 
L 297.017369 -398.71752 
L 295.754859 -395.647444 
L 294.49235 -398.81863 
L 293.229841 -397.92677 
L 291.967331 -397.751238 
L 290.704822 -397.10552 
L 289.442313 -397.691159 
L 288.179804 -395.724239 
L 286.917294 -394.945294 
L 285.654785 -397.829863 
L 284.392276 -395.572247 
L 283.129767 -396.045961 
L 281.867257 -399.16524 
L 280.604748 -394.365864 
L 279.342239 -392.34959 
L 278.079729 -398.914566 
L 276.81722 -394.346848 
L 275.554711 -395.826827 
L 274.292202 -394.783117 
L 273.029692 -391.895117 
L 271.767183 -395.699369 
L 270.504674 -395.253341 
L 269.242164 -398.312371 
L 267.979655 -394.405865 
L 266.717146 -395.491427 
L 265.454637 -397.095648 
L 264.192127 -395.138096 
L 262.929618 -396.03841 
L 261.667109 -399.803501 
L 260.404599 -398.249065 
L 259.14209 -393.283074 
L 257.879581 -396.825409 
L 256.617072 -395.591022 
L 255.354562 -395.006966 
L 254.092053 -395.745968 
L 252.829544 -397.251219 
L 251.567034 -397.650716 
L 250.304525 -397.261658 
L 249.042016 -393.523477 
L 247.779507 -389.682898 
L 246.516997 -395.100857 
L 245.254488 -392.371092 
L 243.991979 -394.297528 
L 242.72947 -392.806646 
L 241.46696 -395.433427 
L 240.204451 -395.89471 
L 238.941942 -394.115656 
L 237.679432 -395.474409 
L 236.416923 -393.02791 
L 235.154414 -396.366642 
L 233.891905 -393.669922 
L 232.629395 -394.38881 
L 231.366886 -392.9623 
L 230.104377 -393.011318 
L 228.841867 -391.761862 
L 227.579358 -393.559649 
L 226.316849 -391.517214 
L 225.05434 -394.913125 
L 223.79183 -393.594764 
L 222.529321 -393.136689 
L 221.266812 -396.844542 
L 220.004302 -396.432654 
L 218.741793 -395.915451 
L 217.479284 -391.242645 
L 216.216775 -394.129233 
L 214.954265 -393.025972 
L 213.691756 -392.81379 
L 212.429247 -394.437316 
L 211.166737 -394.097125 
L 209.904228 -393.727353 
L 208.641719 -394.824589 
L 207.37921 -394.000843 
L 206.1167 -395.837525 
L 204.854191 -394.399203 
L 203.591682 -392.776169 
L 202.329173 -396.040505 
L 201.066663 -395.329871 
L 199.804154 -389.964356 
L 198.541645 -393.198426 
L 197.279135 -394.788347 
L 196.016626 -392.881155 
L 194.754117 -393.770666 
L 193.491608 -395.67428 
L 192.229098 -394.607657 
L 190.966589 -393.008968 
L 189.70408 -392.464844 
L 188.44157 -392.733289 
L 187.179061 -390.783684 
L 185.916552 -391.152452 
L 184.654043 -391.545689 
L 183.391533 -391.253626 
L 182.129024 -393.174565 
L 180.866515 -392.433072 
L 179.604005 -394.385226 
L 178.341496 -387.719908 
L 177.078987 -393.44735 
L 175.816478 -391.441614 
L 174.553968 -393.96627 
L 173.291459 -393.643754 
L 172.02895 -389.17657 
L 170.766441 -397.329248 
L 169.503931 -391.053452 
L 168.241422 -391.533005 
L 166.978913 -390.054545 
L 165.716403 -392.039753 
L 164.453894 -387.624775 
L 163.191385 -390.61698 
L 161.928876 -394.997968 
L 160.666366 -389.887743 
L 159.403857 -393.32131 
L 158.141348 -390.930258 
L 156.878838 -396.430563 
L 155.616329 -390.609486 
L 154.35382 -397.197866 
L 153.091311 -390.772781 
L 151.828801 -390.125392 
L 150.566292 -392.144127 
L 149.303783 -389.472 
L 148.041273 -391.485481 
L 146.778764 -391.463218 
L 145.516255 -394.790355 
L 144.253746 -395.502987 
L 142.991236 -390.339613 
L 141.728727 -388.895434 
L 140.466218 -384.593453 
L 139.203708 -384.021032 
L 137.941199 -390.470218 
L 136.67869 -389.089002 
L 135.416181 -385.572438 
L 134.153671 -382.699126 
L 132.891162 -380.31304 
L 131.628653 -382.038818 
L 130.366144 -385.45604 
L 129.103634 -385.355878 
L 127.841125 -382.105856 
L 126.578616 -373.985537 
L 125.316106 -384.42043 
L 124.053597 -381.034508 
L 122.791088 -380.058676 
L 121.528579 -376.958904 
L 120.266069 -378.791971 
L 119.00356 -378.199615 
L 117.741051 -381.500861 
L 116.478541 -378.602833 
L 115.216032 -377.499766 
L 113.953523 -379.282504 
L 112.691014 -370.629896 
L 111.428504 -375.110826 
L 110.165995 -373.380303 
L 108.903486 -366.088927 
L 107.640976 -371.00648 
L 106.378467 -348.893706 
L 105.115958 -364.2317 
L 103.853449 -339.552265 
L 102.590939 -361.184519 
L 101.32843 -310.628101 
L 100.065921 -287.92815 
L 98.803411 -262.959069 
L 97.540902 -296.256775 
L 96.278393 -260.133564 
L 95.015884 -277.835456 
L 93.753374 -238.461856 
L 92.490865 -227.077956 
L 91.228356 -209.396449 
L 89.965847 -212.930526 
L 88.703337 -176.275349 
L 87.440828 -141.414051 
z
" style="stroke: #5591e1; stroke-opacity: 0.2"/>
    </defs>
    <g clip-path="url(#pf2fcda6848)">
     <use xlink:href="#mf4f6663743" x="0" y="426.4" style="fill: #5591e1; fill-opacity: 0.2; stroke: #5591e1; stroke-opacity: 0.2"/>
    </g>
   </g>
   <g id="PolyCollection_3">
    <defs>
     <path id="m6d471b83d0" d="M 87.440828 -206.438044 
L 87.440828 -192.272756 
L 88.703337 -93.109546 
L 89.965847 -112.782057 
L 91.228356 -117.88947 
L 92.490865 -128.682839 
L 93.753374 -129.172433 
L 95.015884 -114.353095 
L 96.278393 -131.177389 
L 97.540902 -117.6968 
L 98.803411 -135.586454 
L 100.065921 -146.917803 
L 101.32843 -157.328146 
L 102.590939 -143.513973 
L 103.853449 -159.431958 
L 105.115958 -155.423086 
L 106.378467 -156.741361 
L 107.640976 -163.85058 
L 108.903486 -166.142039 
L 110.165995 -154.157981 
L 111.428504 -132.395539 
L 112.691014 -139.545874 
L 113.953523 -121.829911 
L 115.216032 -139.390592 
L 116.478541 -117.088824 
L 117.741051 -112.16041 
L 119.00356 -123.533423 
L 120.266069 -128.124568 
L 121.528579 -137.021858 
L 122.791088 -138.121635 
L 124.053597 -122.911657 
L 125.316106 -163.391878 
L 126.578616 -132.104507 
L 127.841125 -122.057806 
L 129.103634 -131.95921 
L 130.366144 -129.615624 
L 131.628653 -141.012494 
L 132.891162 -133.024993 
L 134.153671 -131.411325 
L 135.416181 -142.450149 
L 136.67869 -130.632543 
L 137.941199 -125.121992 
L 139.203708 -125.522673 
L 140.466218 -99.824213 
L 141.728727 -98.212565 
L 142.991236 -76.925012 
L 144.253746 -102.756647 
L 145.516255 -130.454697 
L 146.778764 -110.718314 
L 148.041273 -121.88253 
L 149.303783 -98.749133 
L 150.566292 -106.609126 
L 151.828801 -126.375043 
L 153.091311 -143.785189 
L 154.35382 -159.009726 
L 155.616329 -145.952241 
L 156.878838 -149.913732 
L 158.141348 -141.179854 
L 159.403857 -133.124283 
L 160.666366 -138.20102 
L 161.928876 -156.031194 
L 163.191385 -153.088419 
L 164.453894 -141.185065 
L 165.716403 -153.626155 
L 166.978913 -148.889546 
L 168.241422 -157.515915 
L 169.503931 -140.637199 
L 170.766441 -146.160347 
L 172.02895 -162.400751 
L 173.291459 -153.8969 
L 174.553968 -157.466093 
L 175.816478 -147.233575 
L 177.078987 -168.846888 
L 178.341496 -154.734523 
L 179.604005 -155.831077 
L 180.866515 -155.139335 
L 182.129024 -152.883726 
L 183.391533 -137.135067 
L 184.654043 -165.576652 
L 185.916552 -159.99174 
L 187.179061 -168.724951 
L 188.44157 -166.951651 
L 189.70408 -163.4618 
L 190.966589 -166.285125 
L 192.229098 -161.349234 
L 193.491608 -164.284354 
L 194.754117 -172.856111 
L 196.016626 -166.250295 
L 197.279135 -166.654221 
L 198.541645 -164.638279 
L 199.804154 -146.946273 
L 201.066663 -141.372455 
L 202.329173 -172.180844 
L 203.591682 -189.803732 
L 204.854191 -140.983323 
L 206.1167 -165.778387 
L 207.37921 -189.779855 
L 208.641719 -148.462843 
L 209.904228 -194.919994 
L 211.166737 -184.42078 
L 212.429247 -189.889707 
L 213.691756 -199.316341 
L 214.954265 -184.161944 
L 216.216775 -191.869913 
L 217.479284 -182.610215 
L 218.741793 -163.796085 
L 220.004302 -190.762454 
L 221.266812 -184.582026 
L 222.529321 -152.399823 
L 223.79183 -168.521934 
L 225.05434 -147.212392 
L 226.316849 -146.243976 
L 227.579358 -151.075289 
L 228.841867 -168.6941 
L 230.104377 -153.078835 
L 231.366886 -169.737704 
L 232.629395 -151.714763 
L 233.891905 -184.488768 
L 235.154414 -182.818901 
L 236.416923 -157.53744 
L 237.679432 -164.819275 
L 238.941942 -183.523913 
L 240.204451 -183.248095 
L 241.46696 -194.6673 
L 242.72947 -188.108272 
L 243.991979 -191.168 
L 245.254488 -215.1505 
L 246.516997 -172.317904 
L 247.779507 -207.909943 
L 249.042016 -215.048327 
L 250.304525 -218.777334 
L 251.567034 -221.307846 
L 252.829544 -171.276032 
L 254.092053 -198.513429 
L 255.354562 -202.1251 
L 256.617072 -172.171266 
L 257.879581 -210.541547 
L 259.14209 -217.406246 
L 260.404599 -195.60652 
L 261.667109 -213.950961 
L 262.929618 -188.088466 
L 264.192127 -89.500731 
L 265.454637 -210.479228 
L 266.717146 -214.270924 
L 267.979655 -210.495633 
L 269.242164 -199.763095 
L 270.504674 -175.28184 
L 271.767183 -187.704058 
L 273.029692 -203.602024 
L 274.292202 -184.140308 
L 275.554711 -190.685532 
L 276.81722 -177.659913 
L 278.079729 -175.063786 
L 279.342239 -205.4617 
L 280.604748 -186.204196 
L 281.867257 -149.046988 
L 283.129767 -147.8541 
L 284.392276 -175.389353 
L 285.654785 -205.745283 
L 286.917294 -148.34508 
L 288.179804 -167.57936 
L 289.442313 -118.38841 
L 290.704822 -153.166076 
L 291.967331 -142.317056 
L 293.229841 -193.324495 
L 294.49235 -184.98858 
L 295.754859 -150.992859 
L 297.017369 -195.137301 
L 298.279878 -150.030582 
L 299.542387 -140.346032 
L 300.804896 -185.616194 
L 302.067406 -210.321579 
L 303.329915 -203.506895 
L 304.592424 -204.517665 
L 305.854934 -209.431989 
L 307.117443 -206.773546 
L 308.379952 -198.537649 
L 309.642461 -198.910025 
L 310.904971 -213.874378 
L 312.16748 -168.011541 
L 313.429989 -205.22525 
L 314.692499 -211.922466 
L 315.955008 -207.147074 
L 317.217517 -220.346325 
L 318.480026 -222.795449 
L 319.742536 -231.323007 
L 321.005045 -215.422385 
L 322.267554 -214.646209 
L 323.530064 -198.480084 
L 324.792573 -206.249454 
L 326.055082 -192.171007 
L 327.317591 -212.94267 
L 328.580101 -229.503304 
L 329.84261 -197.716092 
L 331.105119 -217.278535 
L 332.367628 -199.432518 
L 333.630138 -217.762802 
L 334.892647 -224.263256 
L 336.155156 -224.329512 
L 337.417666 -225.464378 
L 338.680175 -213.714994 
L 339.942684 -219.552842 
L 341.205193 -224.739291 
L 342.467703 -217.286913 
L 343.730212 -230.823929 
L 344.992721 -223.020737 
L 346.255231 -236.053862 
L 347.51774 -232.673882 
L 348.780249 -244.576039 
L 350.042758 -238.651192 
L 351.305268 -234.532534 
L 352.567777 -238.826539 
L 353.830286 -239.830906 
L 355.092796 -240.340352 
L 356.355305 -238.749682 
L 357.617814 -223.811522 
L 358.880323 -239.291202 
L 360.142833 -231.071707 
L 361.405342 -233.715724 
L 362.667851 -230.554365 
L 363.93036 -234.512715 
L 365.19287 -194.036557 
L 366.455379 -207.681781 
L 367.717888 -220.921688 
L 368.980398 -217.843192 
L 370.242907 -215.716925 
L 371.505416 -222.453848 
L 372.767925 -230.195043 
L 374.030435 -235.750269 
L 375.292944 -230.822567 
L 376.555453 -231.912344 
L 377.817963 -232.38884 
L 379.080472 -214.834307 
L 380.342981 -223.791955 
L 381.60549 -233.670363 
L 382.868 -217.13293 
L 384.130509 -216.899647 
L 385.393018 -207.84935 
L 386.655528 -215.465947 
L 387.918037 -177.861127 
L 389.180546 -183.885001 
L 390.443055 -190.10938 
L 391.705565 -186.775434 
L 392.968074 -209.572411 
L 394.230583 -212.365689 
L 395.493093 -209.406522 
L 396.755602 -210.691666 
L 398.018111 -217.621663 
L 399.28062 -221.688411 
L 400.54313 -227.054376 
L 401.805639 -214.603465 
L 401.805639 -244.670971 
L 401.805639 -244.670971 
L 400.54313 -250.1726 
L 399.28062 -250.480826 
L 398.018111 -249.090591 
L 396.755602 -253.779724 
L 395.493093 -253.046888 
L 394.230583 -257.199141 
L 392.968074 -250.847321 
L 391.705565 -250.579437 
L 390.443055 -255.545661 
L 389.180546 -257.932101 
L 387.918037 -262.441475 
L 386.655528 -256.845468 
L 385.393018 -263.098016 
L 384.130509 -250.056692 
L 382.868 -259.632551 
L 381.60549 -261.620481 
L 380.342981 -264.265276 
L 379.080472 -258.653476 
L 377.817963 -258.102296 
L 376.555453 -253.889945 
L 375.292944 -258.529138 
L 374.030435 -252.435399 
L 372.767925 -255.4165 
L 371.505416 -261.111922 
L 370.242907 -255.973865 
L 368.980398 -253.357081 
L 367.717888 -260.203114 
L 366.455379 -252.445087 
L 365.19287 -247.214447 
L 363.93036 -257.266572 
L 362.667851 -260.344472 
L 361.405342 -257.010929 
L 360.142833 -260.188961 
L 358.880323 -262.112822 
L 357.617814 -249.89109 
L 356.355305 -259.905689 
L 355.092796 -260.012049 
L 353.830286 -267.932894 
L 352.567777 -261.089196 
L 351.305268 -264.298074 
L 350.042758 -276.720141 
L 348.780249 -294.554663 
L 347.51774 -258.246866 
L 346.255231 -256.940918 
L 344.992721 -254.966202 
L 343.730212 -255.419877 
L 342.467703 -243.638845 
L 341.205193 -256.326623 
L 339.942684 -248.436011 
L 338.680175 -242.61744 
L 337.417666 -254.084368 
L 336.155156 -256.127026 
L 334.892647 -248.010538 
L 333.630138 -249.207245 
L 332.367628 -247.251186 
L 331.105119 -245.72731 
L 329.84261 -250.08835 
L 328.580101 -264.70061 
L 327.317591 -248.426894 
L 326.055082 -247.073222 
L 324.792573 -250.622472 
L 323.530064 -238.187954 
L 322.267554 -244.509194 
L 321.005045 -256.501446 
L 319.742536 -256.900379 
L 318.480026 -259.29645 
L 317.217517 -252.168616 
L 315.955008 -248.237559 
L 314.692499 -246.497124 
L 313.429989 -252.869623 
L 312.16748 -255.500319 
L 310.904971 -246.087072 
L 309.642461 -260.416658 
L 308.379952 -243.526708 
L 307.117443 -245.049 
L 305.854934 -250.570555 
L 304.592424 -248.364326 
L 303.329915 -250.77522 
L 302.067406 -243.311802 
L 300.804896 -256.589993 
L 299.542387 -228.898904 
L 298.279878 -241.910204 
L 297.017369 -237.485213 
L 295.754859 -231.230475 
L 294.49235 -251.725944 
L 293.229841 -253.324319 
L 291.967331 -233.07285 
L 290.704822 -248.899082 
L 289.442313 -263.863196 
L 288.179804 -245.044635 
L 286.917294 -252.442722 
L 285.654785 -242.517197 
L 284.392276 -251.659499 
L 283.129767 -235.25077 
L 281.867257 -249.053399 
L 280.604748 -252.901346 
L 279.342239 -256.455695 
L 278.079729 -251.386612 
L 276.81722 -249.09543 
L 275.554711 -244.158924 
L 274.292202 -236.406169 
L 273.029692 -247.987765 
L 271.767183 -248.103835 
L 270.504674 -252.775722 
L 269.242164 -261.038522 
L 267.979655 -266.53131 
L 266.717146 -258.18031 
L 265.454637 -252.732695 
L 264.192127 -230.706772 
L 262.929618 -248.562703 
L 261.667109 -256.265348 
L 260.404599 -241.669508 
L 259.14209 -248.243344 
L 257.879581 -251.640483 
L 256.617072 -251.351607 
L 255.354562 -248.949647 
L 254.092053 -252.799791 
L 252.829544 -249.946659 
L 251.567034 -253.697315 
L 250.304525 -254.919871 
L 249.042016 -257.969513 
L 247.779507 -252.595678 
L 246.516997 -239.98218 
L 245.254488 -247.689052 
L 243.991979 -240.642792 
L 242.72947 -237.152789 
L 241.46696 -237.109792 
L 240.204451 -233.556744 
L 238.941942 -226.752726 
L 237.679432 -233.88765 
L 236.416923 -213.594362 
L 235.154414 -241.586734 
L 233.891905 -232.63253 
L 232.629395 -239.163865 
L 231.366886 -246.223306 
L 230.104377 -226.930404 
L 228.841867 -242.162998 
L 227.579358 -250.17878 
L 226.316849 -245.305251 
L 225.05434 -243.219764 
L 223.79183 -234.413607 
L 222.529321 -228.637194 
L 221.266812 -233.863362 
L 220.004302 -245.531378 
L 218.741793 -239.136421 
L 217.479284 -236.929837 
L 216.216775 -243.117752 
L 214.954265 -229.729109 
L 213.691756 -245.272738 
L 212.429247 -231.933001 
L 211.166737 -220.078949 
L 209.904228 -240.965434 
L 208.641719 -242.689076 
L 207.37921 -252.554577 
L 206.1167 -244.250698 
L 204.854191 -237.151127 
L 203.591682 -232.701099 
L 202.329173 -223.355537 
L 201.066663 -209.154432 
L 199.804154 -206.722931 
L 198.541645 -206.673338 
L 197.279135 -208.795206 
L 196.016626 -208.052985 
L 194.754117 -199.754364 
L 193.491608 -213.63702 
L 192.229098 -209.699831 
L 190.966589 -221.324829 
L 189.70408 -217.983064 
L 188.44157 -209.191207 
L 187.179061 -236.790599 
L 185.916552 -223.388165 
L 184.654043 -228.826362 
L 183.391533 -189.096469 
L 182.129024 -225.482053 
L 180.866515 -229.703406 
L 179.604005 -226.875623 
L 178.341496 -219.528069 
L 177.078987 -232.414663 
L 175.816478 -208.082211 
L 174.553968 -202.380481 
L 173.291459 -222.770809 
L 172.02895 -214.050657 
L 170.766441 -205.056949 
L 169.503931 -195.689384 
L 168.241422 -195.80951 
L 166.978913 -206.052116 
L 165.716403 -245.059155 
L 164.453894 -217.94455 
L 163.191385 -235.545841 
L 161.928876 -210.929391 
L 160.666366 -179.934603 
L 159.403857 -185.56088 
L 158.141348 -188.666659 
L 156.878838 -199.788803 
L 155.616329 -201.631496 
L 154.35382 -219.354952 
L 153.091311 -221.499279 
L 151.828801 -211.733814 
L 150.566292 -203.31699 
L 149.303783 -190.493802 
L 148.041273 -194.136178 
L 146.778764 -179.723294 
L 145.516255 -207.791851 
L 144.253746 -202.61367 
L 142.991236 -182.463825 
L 141.728727 -192.172417 
L 140.466218 -215.795831 
L 139.203708 -228.20246 
L 137.941199 -221.237875 
L 136.67869 -202.616627 
L 135.416181 -217.498417 
L 134.153671 -217.3078 
L 132.891162 -214.483612 
L 131.628653 -210.650053 
L 130.366144 -202.234097 
L 129.103634 -190.859526 
L 127.841125 -197.372661 
L 126.578616 -210.856137 
L 125.316106 -231.538865 
L 124.053597 -185.077289 
L 122.791088 -205.448445 
L 121.528579 -202.284097 
L 120.266069 -204.742105 
L 119.00356 -200.504223 
L 117.741051 -174.761067 
L 116.478541 -188.081701 
L 115.216032 -187.358286 
L 113.953523 -183.245758 
L 112.691014 -222.654616 
L 111.428504 -214.507539 
L 110.165995 -214.22298 
L 108.903486 -224.755746 
L 107.640976 -207.856777 
L 106.378467 -211.549578 
L 105.115958 -203.705564 
L 103.853449 -186.867911 
L 102.590939 -193.43688 
L 101.32843 -218.29311 
L 100.065921 -186.912656 
L 98.803411 -202.407793 
L 97.540902 -182.01529 
L 96.278393 -193.963497 
L 95.015884 -187.29766 
L 93.753374 -190.83453 
L 92.490865 -157.289953 
L 91.228356 -169.763993 
L 89.965847 -181.464176 
L 88.703337 -196.723762 
L 87.440828 -206.438044 
z
" style="stroke: #6ca247; stroke-opacity: 0.2"/>
    </defs>
    <g clip-path="url(#pf2fcda6848)">
     <use xlink:href="#m6d471b83d0" x="0" y="426.4" style="fill: #6ca247; fill-opacity: 0.2; stroke: #6ca247; stroke-opacity: 0.2"/>
    </g>
   </g>
   <g id="matplotlib.axis_1">
    <g id="xtick_1">
     <g id="line2d_1">
      <path d="M 87.283014 376.318305 
L 87.283014 7.2 
" clip-path="url(#pf2fcda6848)" style="fill: none; stroke: #b0b0b0; stroke-opacity: 0.3; stroke-width: 0.8; stroke-linecap: square"/>
     </g>
     <g id="line2d_2">
      <defs>
       <path id="mbf471ecc03" d="M 0 0 
L 0 3.5 
" style="stroke: #000000; stroke-width: 0.8"/>
      </defs>
      <g>
       <use xlink:href="#mbf471ecc03" x="87.283014" y="376.318305" style="stroke: #000000; stroke-width: 0.8"/>
      </g>
     </g>
     <g id="text_1">
      <!-- 0k -->
      <g transform="translate(79.26225 394.387893) scale(0.16 -0.16)">
       <defs>
        <path id="CMR17-30" d="M 2688 2038 
C 2688 2430 2682 3099 2413 3613 
C 2176 4063 1798 4224 1466 4224 
C 1158 4224 768 4082 525 3620 
C 269 3137 243 2539 243 2038 
C 243 1671 250 1112 448 623 
C 723 -39 1216 -128 1466 -128 
C 1760 -128 2208 -7 2470 604 
C 2662 1048 2688 1568 2688 2038 
z
M 1466 -26 
C 1056 -26 813 328 723 816 
C 653 1196 653 1749 653 2109 
C 653 2604 653 3015 736 3407 
C 858 3954 1216 4121 1466 4121 
C 1728 4121 2067 3947 2189 3420 
C 2272 3054 2278 2623 2278 2109 
C 2278 1691 2278 1176 2202 797 
C 2067 96 1690 -26 1466 -26 
z
" transform="scale(0.015625)"/>
        <path id="CMR17-6b" d="M 1670 1679 
C 1664 1692 1632 1730 1632 1749 
C 1632 1762 2086 2175 2144 2226 
C 2509 2532 2739 2563 2906 2570 
L 2906 2735 
C 2867 2735 2854 2735 2848 2729 
L 2534 2722 
C 2355 2722 2080 2722 1907 2735 
L 1907 2570 
C 1997 2563 2061 2513 2061 2423 
C 2061 2296 1933 2175 1926 2175 
L 960 1298 
L 960 4416 
L 198 4345 
L 198 4179 
C 576 4179 634 4141 634 3835 
L 634 439 
C 634 198 608 166 198 166 
L 198 0 
C 352 12 634 12 794 12 
C 954 12 1235 12 1389 0 
L 1389 166 
C 979 166 954 191 954 439 
L 954 1139 
L 1395 1540 
L 2042 586 
C 2118 471 2182 382 2182 299 
C 2182 185 2067 166 1990 166 
L 1990 0 
C 2144 12 2419 12 2579 12 
C 2694 12 2931 6 3040 0 
L 3040 166 
C 2739 166 2669 223 2477 503 
L 1670 1679 
z
" transform="scale(0.015625)"/>
       </defs>
       <use xlink:href="#CMR17-30" transform="scale(0.996264)"/>
       <use xlink:href="#CMR17-6b" transform="translate(45.690477 0) scale(0.996264)"/>
      </g>
     </g>
    </g>
    <g id="xtick_2">
     <g id="line2d_3">
      <path d="M 166.189844 376.318305 
L 166.189844 7.2 
" clip-path="url(#pf2fcda6848)" style="fill: none; stroke: #b0b0b0; stroke-opacity: 0.3; stroke-width: 0.8; stroke-linecap: square"/>
     </g>
     <g id="line2d_4">
      <g>
       <use xlink:href="#mbf471ecc03" x="166.189844" y="376.318305" style="stroke: #000000; stroke-width: 0.8"/>
      </g>
     </g>
     <g id="text_2">
      <!-- 50k -->
      <g transform="translate(154.267086 394.387893) scale(0.16 -0.16)">
       <defs>
        <path id="CMR17-35" d="M 730 3750 
C 794 3724 1056 3641 1325 3641 
C 1920 3641 2246 3961 2432 4140 
C 2432 4191 2432 4224 2394 4224 
C 2387 4224 2374 4224 2323 4198 
C 2099 4102 1837 4032 1517 4032 
C 1325 4032 1037 4055 723 4191 
C 653 4224 640 4224 634 4224 
C 602 4224 595 4217 595 4090 
L 595 2231 
C 595 2113 595 2080 659 2080 
C 691 2080 704 2093 736 2139 
C 941 2435 1222 2560 1542 2560 
C 1766 2560 2246 2415 2246 1293 
C 2246 1087 2246 716 2054 422 
C 1894 159 1645 25 1370 25 
C 947 25 518 319 403 812 
C 429 806 480 793 506 793 
C 589 793 749 838 749 1036 
C 749 1209 627 1280 506 1280 
C 358 1280 262 1190 262 1011 
C 262 454 704 -128 1382 -128 
C 2042 -128 2669 441 2669 1267 
C 2669 2054 2170 2662 1549 2662 
C 1222 2662 947 2540 730 2304 
L 730 3750 
z
" transform="scale(0.015625)"/>
       </defs>
       <use xlink:href="#CMR17-35" transform="scale(0.996264)"/>
       <use xlink:href="#CMR17-30" transform="translate(45.690477 0) scale(0.996264)"/>
       <use xlink:href="#CMR17-6b" transform="translate(91.380954 0) scale(0.996264)"/>
      </g>
     </g>
    </g>
    <g id="xtick_3">
     <g id="line2d_5">
      <path d="M 245.096674 376.318305 
L 245.096674 7.2 
" clip-path="url(#pf2fcda6848)" style="fill: none; stroke: #b0b0b0; stroke-opacity: 0.3; stroke-width: 0.8; stroke-linecap: square"/>
     </g>
     <g id="line2d_6">
      <g>
       <use xlink:href="#mbf471ecc03" x="245.096674" y="376.318305" style="stroke: #000000; stroke-width: 0.8"/>
      </g>
     </g>
     <g id="text_3">
      <!-- 100k -->
      <g transform="translate(229.271923 394.387893) scale(0.16 -0.16)">
       <defs>
        <path id="CMR17-31" d="M 1702 4083 
C 1702 4217 1696 4224 1606 4224 
C 1357 3927 979 3833 621 3820 
C 602 3820 570 3820 563 3808 
C 557 3795 557 3782 557 3648 
C 755 3648 1088 3686 1344 3839 
L 1344 467 
C 1344 243 1331 166 781 166 
L 589 166 
L 589 0 
C 896 6 1216 12 1523 12 
C 1830 12 2150 6 2458 0 
L 2458 166 
L 2266 166 
C 1715 166 1702 236 1702 467 
L 1702 4083 
z
" transform="scale(0.015625)"/>
       </defs>
       <use xlink:href="#CMR17-31" transform="scale(0.996264)"/>
       <use xlink:href="#CMR17-30" transform="translate(45.690477 0) scale(0.996264)"/>
       <use xlink:href="#CMR17-30" transform="translate(91.380954 0) scale(0.996264)"/>
       <use xlink:href="#CMR17-6b" transform="translate(137.071431 0) scale(0.996264)"/>
      </g>
     </g>
    </g>
    <g id="xtick_4">
     <g id="line2d_7">
      <path d="M 324.003504 376.318305 
L 324.003504 7.2 
" clip-path="url(#pf2fcda6848)" style="fill: none; stroke: #b0b0b0; stroke-opacity: 0.3; stroke-width: 0.8; stroke-linecap: square"/>
     </g>
     <g id="line2d_8">
      <g>
       <use xlink:href="#mbf471ecc03" x="324.003504" y="376.318305" style="stroke: #000000; stroke-width: 0.8"/>
      </g>
     </g>
     <g id="text_4">
      <!-- 150k -->
      <g transform="translate(308.178753 394.387893) scale(0.16 -0.16)">
       <use xlink:href="#CMR17-31" transform="scale(0.996264)"/>
       <use xlink:href="#CMR17-35" transform="translate(45.690477 0) scale(0.996264)"/>
       <use xlink:href="#CMR17-30" transform="translate(91.380954 0) scale(0.996264)"/>
       <use xlink:href="#CMR17-6b" transform="translate(137.071431 0) scale(0.996264)"/>
      </g>
     </g>
    </g>
    <g id="xtick_5">
     <g id="line2d_9">
      <path d="M 402.910335 376.318305 
L 402.910335 7.2 
" clip-path="url(#pf2fcda6848)" style="fill: none; stroke: #b0b0b0; stroke-opacity: 0.3; stroke-width: 0.8; stroke-linecap: square"/>
     </g>
     <g id="line2d_10">
      <g>
       <use xlink:href="#mbf471ecc03" x="402.910335" y="376.318305" style="stroke: #000000; stroke-width: 0.8"/>
      </g>
     </g>
     <g id="text_5">
      <!-- 200k -->
      <g transform="translate(387.085583 394.387893) scale(0.16 -0.16)">
       <defs>
        <path id="CMR17-32" d="M 2669 990 
L 2554 990 
C 2490 537 2438 460 2413 422 
C 2381 371 1920 371 1830 371 
L 602 371 
C 832 620 1280 1073 1824 1596 
C 2214 1966 2669 2400 2669 3033 
C 2669 3788 2067 4224 1395 4224 
C 691 4224 262 3603 262 3027 
C 262 2777 448 2745 525 2745 
C 589 2745 781 2783 781 3007 
C 781 3206 614 3264 525 3264 
C 486 3264 448 3257 422 3244 
C 544 3788 915 4057 1306 4057 
C 1862 4057 2227 3616 2227 3033 
C 2227 2477 1901 1998 1536 1583 
L 262 147 
L 262 0 
L 2515 0 
L 2669 990 
z
" transform="scale(0.015625)"/>
       </defs>
       <use xlink:href="#CMR17-32" transform="scale(0.996264)"/>
       <use xlink:href="#CMR17-30" transform="translate(45.690477 0) scale(0.996264)"/>
       <use xlink:href="#CMR17-30" transform="translate(91.380954 0) scale(0.996264)"/>
       <use xlink:href="#CMR17-6b" transform="translate(137.071431 0) scale(0.996264)"/>
      </g>
     </g>
    </g>
    <g id="text_6">
     <!-- Training Steps -->
     <g transform="translate(186.590095 415.324366) scale(0.2 -0.2)">
      <defs>
       <path id="CMR17-54" d="M 3981 4332 
L 288 4332 
L 179 2924 
L 294 2924 
C 378 3981 467 4166 1453 4166 
C 1568 4166 1754 4166 1805 4159 
C 1926 4140 1926 4064 1926 3917 
L 1926 465 
C 1926 236 1907 166 1376 166 
L 1197 166 
L 1197 0 
C 1504 6 1824 12 2138 12 
C 2451 12 2771 6 3078 0 
L 3078 166 
L 2899 166 
C 2368 166 2349 236 2349 465 
L 2349 3917 
C 2349 4057 2349 4134 2464 4159 
C 2515 4166 2701 4166 2816 4166 
C 3795 4166 3891 3981 3974 2924 
L 4090 2924 
L 3981 4332 
z
" transform="scale(0.015625)"/>
       <path id="CMR17-72" d="M 960 1517 
C 960 2134 1222 2713 1702 2713 
C 1747 2713 1792 2707 1837 2687 
C 1837 2687 1696 2642 1696 2475 
C 1696 2321 1818 2257 1914 2257 
C 1990 2257 2131 2302 2131 2482 
C 2131 2687 1926 2816 1709 2816 
C 1222 2816 1011 2340 947 2115 
L 941 2115 
L 941 2816 
L 198 2745 
L 198 2578 
C 576 2578 634 2540 634 2231 
L 634 443 
C 634 198 608 166 198 166 
L 198 0 
C 352 12 646 12 813 12 
C 998 12 1325 12 1498 0 
L 1498 166 
C 1037 166 960 166 960 455 
L 960 1517 
z
" transform="scale(0.015625)"/>
       <path id="CMR17-61" d="M 2304 1656 
C 2304 2048 2304 2275 2035 2534 
C 1798 2751 1523 2816 1306 2816 
C 800 2816 435 2408 435 1977 
C 435 1740 627 1728 666 1728 
C 749 1728 896 1779 896 1958 
C 896 2118 774 2188 666 2188 
C 640 2188 608 2182 589 2176 
C 723 2594 1069 2713 1293 2713 
C 1613 2713 1965 2421 1965 1875 
L 1965 1632 
C 1587 1619 1133 1568 774 1373 
C 371 1147 256 822 256 576 
C 256 77 832 -64 1171 -64 
C 1523 -64 1850 135 1990 505 
C 2003 219 2182 -39 2464 -39 
C 2598 -39 2938 51 2938 563 
L 2938 926 
L 2822 926 
L 2822 557 
C 2822 161 2650 109 2566 109 
C 2304 109 2304 446 2304 732 
L 2304 1656 
z
M 1965 887 
C 1965 323 1568 38 1216 38 
C 896 38 646 278 646 576 
C 646 771 730 1114 1101 1322 
C 1408 1497 1760 1523 1965 1536 
L 1965 887 
z
" transform="scale(0.015625)"/>
       <path id="CMR17-69" d="M 992 3961 
C 992 4102 877 4224 730 4224 
C 589 4224 467 4108 467 3961 
C 467 3820 582 3699 730 3699 
C 870 3699 992 3814 992 3961 
z
M 243 2745 
L 243 2579 
C 602 2579 653 2540 653 2231 
L 653 443 
C 653 198 627 166 218 166 
L 218 0 
C 371 12 646 12 806 12 
C 960 12 1222 12 1370 0 
L 1370 166 
C 992 166 979 205 979 436 
L 979 2816 
L 243 2745 
z
" transform="scale(0.015625)"/>
       <path id="CMR17-6e" d="M 2656 1954 
C 2656 2282 2592 2816 1837 2816 
C 1331 2816 1069 2424 973 2166 
L 966 2166 
L 966 2816 
L 211 2745 
L 211 2578 
C 589 2578 646 2540 646 2231 
L 646 443 
C 646 198 621 166 211 166 
L 211 0 
C 365 12 646 12 813 12 
C 979 12 1267 12 1421 0 
L 1421 166 
C 1011 166 986 192 986 443 
L 986 1678 
C 986 2269 1344 2713 1792 2713 
C 2266 2713 2317 2289 2317 1980 
L 2317 443 
C 2317 198 2291 166 1882 166 
L 1882 0 
C 2035 12 2317 12 2483 12 
C 2650 12 2938 12 3091 0 
L 3091 166 
C 2682 166 2656 192 2656 443 
L 2656 1954 
z
" transform="scale(0.015625)"/>
       <path id="CMR17-67" d="M 710 1165 
C 832 1068 1043 960 1299 960 
C 1805 960 2240 1359 2240 1895 
C 2240 2063 2189 2321 1997 2521 
C 2176 2713 2438 2777 2586 2777 
C 2611 2777 2650 2777 2682 2758 
C 2656 2751 2598 2726 2598 2623 
C 2598 2540 2656 2483 2739 2483 
C 2835 2483 2886 2547 2886 2630 
C 2886 2751 2790 2880 2586 2880 
C 2330 2880 2106 2758 1926 2591 
C 1734 2764 1504 2828 1299 2828 
C 794 2828 358 2431 358 1895 
C 358 1527 570 1294 634 1230 
C 442 1004 442 742 442 710 
C 442 544 506 300 723 166 
C 390 82 128 -184 128 -517 
C 128 -996 736 -1344 1466 -1344 
C 2170 -1344 2803 -1009 2803 -510 
C 2803 384 1856 384 1363 384 
C 1216 384 954 384 922 390 
C 723 422 589 601 589 825 
C 589 883 589 1024 710 1165 
z
M 1299 1068 
C 736 1068 736 1766 736 1895 
C 736 2024 736 2719 1299 2719 
C 1862 2719 1862 2024 1862 1895 
C 1862 1766 1862 1068 1299 1068 
z
M 1466 -1236 
C 826 -1236 384 -883 384 -517 
C 384 -311 493 -118 634 -11 
C 794 102 858 102 1293 102 
C 1818 102 2547 102 2547 -517 
C 2547 -883 2106 -1236 1466 -1236 
z
" transform="scale(0.015625)"/>
       <path id="CMR17-53" d="M 2803 4351 
C 2803 4467 2797 4473 2758 4473 
C 2720 4473 2707 4447 2682 4390 
L 2490 3965 
C 2246 4320 1875 4480 1472 4480 
C 819 4480 294 3958 294 3301 
C 294 3101 339 2817 557 2546 
C 794 2250 1018 2198 1530 2063 
C 1722 2011 2042 1927 2106 1901 
C 2470 1747 2662 1360 2662 999 
C 2662 534 2336 38 1779 38 
C 1094 38 454 425 410 1328 
C 403 1431 397 1437 352 1437 
C 301 1437 294 1431 294 1302 
L 294 0 
C 294 -116 301 -122 339 -122 
C 384 -122 397 -90 486 109 
C 493 128 493 141 614 386 
C 934 -39 1472 -128 1779 -128 
C 2477 -128 2970 457 2970 1141 
C 2970 1476 2848 1734 2778 1850 
C 2509 2263 2221 2340 1914 2417 
C 1869 2437 1856 2437 1498 2527 
C 1152 2617 1005 2662 845 2836 
C 666 3036 602 3243 602 3449 
C 602 3868 934 4326 1478 4326 
C 2157 4326 2579 3842 2675 3036 
C 2694 2920 2701 2914 2746 2914 
C 2803 2914 2803 2933 2803 3043 
L 2803 4351 
z
" transform="scale(0.015625)"/>
       <path id="CMR17-74" d="M 966 2585 
L 1862 2585 
L 1862 2752 
L 966 2752 
L 966 3968 
L 851 3968 
C 838 3292 614 2700 70 2687 
L 70 2585 
L 627 2585 
L 627 778 
C 627 655 627 -64 1370 -64 
C 1747 -64 1965 308 1965 784 
L 1965 1151 
L 1850 1151 
L 1850 790 
C 1850 347 1677 51 1408 51 
C 1222 51 966 179 966 765 
L 966 2585 
z
" transform="scale(0.015625)"/>
       <path id="CMR17-65" d="M 2438 1503 
C 2464 1529 2464 1542 2464 1606 
C 2464 2251 2118 2816 1389 2816 
C 710 2816 173 2175 173 1394 
C 173 554 781 -64 1459 -64 
C 2176 -64 2458 619 2458 755 
C 2458 800 2419 800 2406 800 
C 2362 800 2355 787 2330 709 
C 2189 270 1837 51 1504 51 
C 1229 51 954 206 781 490 
C 582 819 582 1200 582 1503 
L 2438 1503 
z
M 589 1600 
C 634 2511 1126 2713 1382 2713 
C 1818 2713 2112 2308 2118 1600 
L 589 1600 
z
" transform="scale(0.015625)"/>
       <path id="CMR17-70" d="M 1408 -1114 
C 998 -1114 973 -1088 973 -834 
L 973 380 
C 1158 109 1427 -64 1766 -64 
C 2406 -64 3053 503 3053 1382 
C 3053 2196 2496 2816 1837 2816 
C 1453 2816 1139 2603 960 2345 
L 960 2816 
L 198 2745 
L 198 2577 
C 576 2577 634 2539 634 2228 
L 634 -834 
C 634 -1081 608 -1114 198 -1114 
L 198 -1280 
C 352 -1268 634 -1268 800 -1268 
C 966 -1268 1254 -1268 1408 -1280 
L 1408 -1114 
z
M 973 2015 
C 973 2106 973 2241 1222 2481 
C 1254 2506 1472 2700 1792 2700 
C 2259 2700 2643 2112 2643 1376 
C 2643 639 2234 38 1728 38 
C 1498 38 1248 148 1056 451 
C 973 594 973 632 973 736 
L 973 2015 
z
" transform="scale(0.015625)"/>
       <path id="CMR17-73" d="M 1978 2688 
C 1978 2803 1971 2809 1933 2809 
C 1907 2809 1901 2803 1824 2707 
C 1805 2681 1747 2617 1728 2592 
C 1523 2809 1235 2816 1126 2816 
C 416 2816 160 2444 160 2073 
C 160 1497 813 1363 998 1324 
C 1402 1241 1542 1216 1677 1100 
C 1760 1024 1901 883 1901 652 
C 1901 384 1747 38 1158 38 
C 602 38 403 460 288 1024 
C 269 1113 269 1120 218 1120 
C 166 1120 160 1113 160 985 
L 160 64 
C 160 -52 166 -58 205 -58 
C 237 -58 243 -52 275 0 
C 314 57 410 211 448 275 
C 576 102 800 -64 1158 -64 
C 1792 -64 2131 281 2131 780 
C 2131 1107 1958 1280 1875 1356 
C 1683 1555 1459 1600 1190 1651 
C 838 1728 390 1817 390 2208 
C 390 2374 480 2726 1126 2726 
C 1811 2726 1850 2086 1862 1881 
C 1869 1849 1901 1843 1920 1843 
C 1978 1843 1978 1862 1978 1971 
L 1978 2688 
z
" transform="scale(0.015625)"/>
      </defs>
      <use xlink:href="#CMR17-54" transform="scale(0.996264)"/>
      <use xlink:href="#CMR17-72" transform="translate(58.702625 0) scale(0.996264)"/>
      <use xlink:href="#CMR17-61" transform="translate(93.983393 0) scale(0.996264)"/>
      <use xlink:href="#CMR17-69" transform="translate(139.67387 0) scale(0.996264)"/>
      <use xlink:href="#CMR17-6e" transform="translate(164.544929 0) scale(0.996264)"/>
      <use xlink:href="#CMR17-69" transform="translate(215.440298 0) scale(0.996264)"/>
      <use xlink:href="#CMR17-6e" transform="translate(240.311357 0) scale(0.996264)"/>
      <use xlink:href="#CMR17-67" transform="translate(291.206727 0) scale(0.996264)"/>
      <use xlink:href="#CMR17-53" transform="translate(366.97317 0) scale(0.996264)"/>
      <use xlink:href="#CMR17-74" transform="translate(417.86854 0) scale(0.996264)"/>
      <use xlink:href="#CMR17-65" transform="translate(453.149308 0) scale(0.996264)"/>
      <use xlink:href="#CMR17-70" transform="translate(493.634968 0) scale(0.996264)"/>
      <use xlink:href="#CMR17-73" transform="translate(544.530338 0) scale(0.996264)"/>
     </g>
    </g>
   </g>
   <g id="matplotlib.axis_2">
    <g id="ytick_1">
     <g id="line2d_11">
      <path d="M 71.722587 355.388195 
L 417.523879 355.388195 
" clip-path="url(#pf2fcda6848)" style="fill: none; stroke: #b0b0b0; stroke-opacity: 0.3; stroke-width: 0.8; stroke-linecap: square"/>
     </g>
     <g id="line2d_12">
      <defs>
       <path id="m7c62c5808b" d="M 0 0 
L -3.5 0 
" style="stroke: #000000; stroke-width: 0.8"/>
      </defs>
      <g>
       <use xlink:href="#m7c62c5808b" x="71.722587" y="355.388195" style="stroke: #000000; stroke-width: 0.8"/>
      </g>
     </g>
     <g id="text_7">
      <!-- $\mathdefault{400}$ -->
      <g transform="translate(28.91263 360.922989) scale(0.16 -0.16)">
       <defs>
        <path id="CMSY10-0" d="M 4218 1472 
C 4326 1472 4442 1472 4442 1600 
C 4442 1728 4326 1728 4218 1728 
L 755 1728 
C 646 1728 531 1728 531 1600 
C 531 1472 646 1472 755 1472 
L 4218 1472 
z
" transform="scale(0.015625)"/>
        <path id="CMR17-34" d="M 2150 4147 
C 2150 4281 2144 4288 2029 4288 
L 128 1254 
L 128 1088 
L 1779 1088 
L 1779 460 
C 1779 230 1766 166 1318 166 
L 1197 166 
L 1197 0 
C 1402 12 1747 12 1965 12 
C 2182 12 2528 12 2733 0 
L 2733 166 
L 2611 166 
C 2163 166 2150 230 2150 460 
L 2150 1088 
L 2803 1088 
L 2803 1254 
L 2150 1254 
L 2150 4147 
z
M 1798 3723 
L 1798 1254 
L 256 1254 
L 1798 3723 
z
" transform="scale(0.015625)"/>
       </defs>
       <use xlink:href="#CMSY10-0" transform="scale(0.996264)"/>
       <use xlink:href="#CMR17-34" transform="translate(77.487468 0) scale(0.996264)"/>
       <use xlink:href="#CMR17-30" transform="translate(123.177945 0) scale(0.996264)"/>
       <use xlink:href="#CMR17-30" transform="translate(168.868422 0) scale(0.996264)"/>
      </g>
     </g>
    </g>
    <g id="ytick_2">
     <g id="line2d_13">
      <path d="M 71.722587 307.615731 
L 417.523879 307.615731 
" clip-path="url(#pf2fcda6848)" style="fill: none; stroke: #b0b0b0; stroke-opacity: 0.3; stroke-width: 0.8; stroke-linecap: square"/>
     </g>
     <g id="line2d_14">
      <g>
       <use xlink:href="#m7c62c5808b" x="71.722587" y="307.615731" style="stroke: #000000; stroke-width: 0.8"/>
      </g>
     </g>
     <g id="text_8">
      <!-- $\mathdefault{300}$ -->
      <g transform="translate(28.91263 313.150526) scale(0.16 -0.16)">
       <defs>
        <path id="CMR17-33" d="M 1414 2176 
C 1984 2176 2234 1673 2234 1094 
C 2234 322 1824 25 1453 25 
C 1114 25 563 193 390 691 
C 422 678 454 678 486 678 
C 640 678 755 780 755 947 
C 755 1132 614 1216 486 1216 
C 378 1216 211 1164 211 927 
C 211 335 787 -128 1466 -128 
C 2176 -128 2720 432 2720 1087 
C 2720 1718 2208 2176 1600 2246 
C 2086 2347 2554 2776 2554 3353 
C 2554 3856 2048 4224 1472 4224 
C 890 4224 378 3862 378 3347 
C 378 3123 544 3084 627 3084 
C 762 3084 877 3167 877 3334 
C 877 3500 762 3584 627 3584 
C 602 3584 570 3584 544 3571 
C 730 3999 1235 4076 1459 4076 
C 1683 4076 2106 3966 2106 3347 
C 2106 3167 2080 2851 1862 2574 
C 1670 2329 1453 2316 1242 2297 
C 1210 2297 1062 2284 1037 2284 
C 992 2278 966 2272 966 2227 
C 966 2182 973 2176 1101 2176 
L 1414 2176 
z
" transform="scale(0.015625)"/>
       </defs>
       <use xlink:href="#CMSY10-0" transform="scale(0.996264)"/>
       <use xlink:href="#CMR17-33" transform="translate(77.487468 0) scale(0.996264)"/>
       <use xlink:href="#CMR17-30" transform="translate(123.177945 0) scale(0.996264)"/>
       <use xlink:href="#CMR17-30" transform="translate(168.868422 0) scale(0.996264)"/>
      </g>
     </g>
    </g>
    <g id="ytick_3">
     <g id="line2d_15">
      <path d="M 71.722587 259.843268 
L 417.523879 259.843268 
" clip-path="url(#pf2fcda6848)" style="fill: none; stroke: #b0b0b0; stroke-opacity: 0.3; stroke-width: 0.8; stroke-linecap: square"/>
     </g>
     <g id="line2d_16">
      <g>
       <use xlink:href="#m7c62c5808b" x="71.722587" y="259.843268" style="stroke: #000000; stroke-width: 0.8"/>
      </g>
     </g>
     <g id="text_9">
      <!-- $\mathdefault{200}$ -->
      <g transform="translate(28.91263 265.378062) scale(0.16 -0.16)">
       <use xlink:href="#CMSY10-0" transform="scale(0.996264)"/>
       <use xlink:href="#CMR17-32" transform="translate(77.487468 0) scale(0.996264)"/>
       <use xlink:href="#CMR17-30" transform="translate(123.177945 0) scale(0.996264)"/>
       <use xlink:href="#CMR17-30" transform="translate(168.868422 0) scale(0.996264)"/>
      </g>
     </g>
    </g>
    <g id="ytick_4">
     <g id="line2d_17">
      <path d="M 71.722587 212.070804 
L 417.523879 212.070804 
" clip-path="url(#pf2fcda6848)" style="fill: none; stroke: #b0b0b0; stroke-opacity: 0.3; stroke-width: 0.8; stroke-linecap: square"/>
     </g>
     <g id="line2d_18">
      <g>
       <use xlink:href="#m7c62c5808b" x="71.722587" y="212.070804" style="stroke: #000000; stroke-width: 0.8"/>
      </g>
     </g>
     <g id="text_10">
      <!-- $\mathdefault{100}$ -->
      <g transform="translate(28.91263 217.605598) scale(0.16 -0.16)">
       <use xlink:href="#CMSY10-0" transform="scale(0.996264)"/>
       <use xlink:href="#CMR17-31" transform="translate(77.487468 0) scale(0.996264)"/>
       <use xlink:href="#CMR17-30" transform="translate(123.177945 0) scale(0.996264)"/>
       <use xlink:href="#CMR17-30" transform="translate(168.868422 0) scale(0.996264)"/>
      </g>
     </g>
    </g>
    <g id="ytick_5">
     <g id="line2d_19">
      <path d="M 71.722587 164.29834 
L 417.523879 164.29834 
" clip-path="url(#pf2fcda6848)" style="fill: none; stroke: #b0b0b0; stroke-opacity: 0.3; stroke-width: 0.8; stroke-linecap: square"/>
     </g>
     <g id="line2d_20">
      <g>
       <use xlink:href="#m7c62c5808b" x="71.722587" y="164.29834" style="stroke: #000000; stroke-width: 0.8"/>
      </g>
     </g>
     <g id="text_11">
      <!-- $\mathdefault{0}$ -->
      <g transform="translate(56.9186 169.833134) scale(0.16 -0.16)">
       <use xlink:href="#CMR17-30" transform="scale(0.996264)"/>
      </g>
     </g>
    </g>
    <g id="ytick_6">
     <g id="line2d_21">
      <path d="M 71.722587 116.525876 
L 417.523879 116.525876 
" clip-path="url(#pf2fcda6848)" style="fill: none; stroke: #b0b0b0; stroke-opacity: 0.3; stroke-width: 0.8; stroke-linecap: square"/>
     </g>
     <g id="line2d_22">
      <g>
       <use xlink:href="#m7c62c5808b" x="71.722587" y="116.525876" style="stroke: #000000; stroke-width: 0.8"/>
      </g>
     </g>
     <g id="text_12">
      <!-- $\mathdefault{100}$ -->
      <g transform="translate(41.310626 122.06067) scale(0.16 -0.16)">
       <use xlink:href="#CMR17-31" transform="scale(0.996264)"/>
       <use xlink:href="#CMR17-30" transform="translate(45.690477 0) scale(0.996264)"/>
       <use xlink:href="#CMR17-30" transform="translate(91.380954 0) scale(0.996264)"/>
      </g>
     </g>
    </g>
    <g id="ytick_7">
     <g id="line2d_23">
      <path d="M 71.722587 68.753412 
L 417.523879 68.753412 
" clip-path="url(#pf2fcda6848)" style="fill: none; stroke: #b0b0b0; stroke-opacity: 0.3; stroke-width: 0.8; stroke-linecap: square"/>
     </g>
     <g id="line2d_24">
      <g>
       <use xlink:href="#m7c62c5808b" x="71.722587" y="68.753412" style="stroke: #000000; stroke-width: 0.8"/>
      </g>
     </g>
     <g id="text_13">
      <!-- $\mathdefault{200}$ -->
      <g transform="translate(41.310626 74.288207) scale(0.16 -0.16)">
       <use xlink:href="#CMR17-32" transform="scale(0.996264)"/>
       <use xlink:href="#CMR17-30" transform="translate(45.690477 0) scale(0.996264)"/>
       <use xlink:href="#CMR17-30" transform="translate(91.380954 0) scale(0.996264)"/>
      </g>
     </g>
    </g>
    <g id="ytick_8">
     <g id="line2d_25">
      <path d="M 71.722587 20.980949 
L 417.523879 20.980949 
" clip-path="url(#pf2fcda6848)" style="fill: none; stroke: #b0b0b0; stroke-opacity: 0.3; stroke-width: 0.8; stroke-linecap: square"/>
     </g>
     <g id="line2d_26">
      <g>
       <use xlink:href="#m7c62c5808b" x="71.722587" y="20.980949" style="stroke: #000000; stroke-width: 0.8"/>
      </g>
     </g>
     <g id="text_14">
      <!-- $\mathdefault{300}$ -->
      <g transform="translate(41.310626 26.515743) scale(0.16 -0.16)">
       <use xlink:href="#CMR17-33" transform="scale(0.996264)"/>
       <use xlink:href="#CMR17-30" transform="translate(45.690477 0) scale(0.996264)"/>
       <use xlink:href="#CMR17-30" transform="translate(91.380954 0) scale(0.996264)"/>
      </g>
     </g>
    </g>
    <g id="text_15">
     <!-- Return -->
     <g transform="translate(21.036997 219.822038) rotate(-90) scale(0.2 -0.2)">
      <defs>
       <path id="CMR17-52" d="M 2509 2156 
C 3117 2278 3629 2689 3629 3203 
C 3629 3806 2950 4352 2054 4352 
L 333 4352 
L 333 4185 
C 774 4185 845 4185 845 3896 
L 845 428 
C 845 140 774 140 333 140 
L 333 -26 
C 518 -13 851 -13 1050 -13 
C 1248 -13 1581 -13 1766 -26 
L 1766 140 
C 1325 140 1254 140 1254 428 
L 1254 2112 
L 2003 2112 
C 2368 2112 2573 1964 2662 1881 
C 2918 1632 2918 1459 2918 1024 
C 2918 595 2918 377 3110 160 
C 3354 -103 3680 -128 3821 -128 
C 4294 -128 4365 403 4365 512 
C 4365 550 4365 595 4307 595 
C 4256 595 4250 556 4250 531 
C 4218 115 4032 -26 3834 -26 
C 3482 -26 3443 377 3405 768 
C 3386 902 3373 998 3360 1139 
C 3322 1459 3270 1926 2509 2156 
z
M 1984 2214 
L 1254 2214 
L 1254 3935 
C 1254 4153 1267 4185 1523 4185 
L 1990 4185 
C 2522 4185 3142 3999 3142 3203 
C 3142 2374 2464 2214 1984 2214 
z
" transform="scale(0.015625)"/>
       <path id="CMR17-75" d="M 1882 2745 
L 1882 2579 
C 2259 2579 2317 2540 2317 2229 
L 2317 1053 
C 2317 510 2029 38 1555 38 
C 1030 38 986 355 986 691 
L 986 2816 
L 211 2745 
L 211 2579 
C 467 2579 640 2579 646 2320 
L 646 1079 
C 646 646 646 368 813 187 
C 896 103 1056 -64 1517 -64 
C 2061 -64 2272 400 2323 536 
L 2330 536 
L 2330 -64 
L 3091 -13 
L 3091 154 
C 2714 154 2656 193 2656 503 
L 2656 2816 
L 1882 2745 
z
" transform="scale(0.015625)"/>
      </defs>
      <use xlink:href="#CMR17-52" transform="scale(0.996264)"/>
      <use xlink:href="#CMR17-65" transform="translate(67.791102 0) scale(0.996264)"/>
      <use xlink:href="#CMR17-74" transform="translate(108.276762 0) scale(0.996264)"/>
      <use xlink:href="#CMR17-75" transform="translate(143.55753 0) scale(0.996264)"/>
      <use xlink:href="#CMR17-72" transform="translate(194.4529 0) scale(0.996264)"/>
      <use xlink:href="#CMR17-6e" transform="translate(229.733668 0) scale(0.996264)"/>
     </g>
    </g>
   </g>
   <g id="line2d_27">
    <path d="M 87.440828 323.497138 
L 88.703337 242.941784 
L 89.965847 266.758928 
L 91.228356 262.970084 
L 92.490865 262.417638 
L 93.753374 227.06473 
L 95.015884 236.526411 
L 96.278393 196.659824 
L 97.540902 189.223823 
L 98.803411 202.022836 
L 100.065921 189.728913 
L 101.32843 189.107466 
L 102.590939 178.674913 
L 105.115958 185.486049 
L 106.378467 188.282632 
L 107.640976 198.415652 
L 108.903486 194.366441 
L 110.165995 177.43528 
L 111.428504 181.269731 
L 112.691014 181.108284 
L 113.953523 180.532856 
L 115.216032 183.683457 
L 116.478541 189.068914 
L 117.741051 200.423756 
L 119.00356 189.785744 
L 120.266069 186.014471 
L 121.528579 183.375476 
L 122.791088 181.731051 
L 124.053597 177.156192 
L 125.316106 190.815866 
L 126.578616 175.135827 
L 127.841125 175.444022 
L 129.103634 180.797316 
L 130.366144 175.604747 
L 131.628653 179.912617 
L 132.891162 180.042248 
L 134.153671 181.182456 
L 135.416181 169.900313 
L 137.941199 181.090048 
L 139.203708 176.189209 
L 140.466218 185.152053 
L 141.728727 180.582918 
L 142.991236 178.78451 
L 144.253746 174.086268 
L 145.516255 178.223971 
L 146.778764 178.80675 
L 148.041273 175.403553 
L 149.303783 183.244606 
L 150.566292 175.165803 
L 151.828801 179.67994 
L 153.091311 174.720534 
L 155.616329 178.560569 
L 156.878838 175.50453 
L 158.141348 181.238686 
L 159.403857 175.360498 
L 160.666366 156.454152 
L 161.928876 169.816167 
L 163.191385 151.776936 
L 164.453894 163.473963 
L 165.716403 155.382896 
L 166.978913 144.627176 
L 168.241422 142.868424 
L 169.503931 145.997633 
L 170.766441 163.330332 
L 172.02895 171.885943 
L 173.291459 168.42062 
L 174.553968 165.303698 
L 175.816478 157.639637 
L 177.078987 165.78667 
L 178.341496 152.513806 
L 179.604005 163.390011 
L 180.866515 168.097786 
L 182.129024 168.549292 
L 183.391533 164.306976 
L 184.654043 162.21279 
L 185.916552 171.99694 
L 187.179061 170.003983 
L 188.44157 157.686895 
L 189.70408 170.107797 
L 190.966589 153.777287 
L 192.229098 148.757423 
L 193.491608 133.53108 
L 194.754117 152.368767 
L 196.016626 160.730188 
L 197.279135 147.369431 
L 198.541645 156.410833 
L 199.804154 143.871586 
L 201.066663 134.912975 
L 202.329173 148.647132 
L 203.591682 142.711828 
L 204.854191 168.340029 
L 206.1167 168.190972 
L 207.37921 169.097167 
L 208.641719 165.549664 
L 209.904228 145.231718 
L 211.166737 164.154286 
L 212.429247 162.979863 
L 213.691756 130.826592 
L 214.954265 158.941899 
L 216.216775 171.773378 
L 217.479284 155.461268 
L 218.741793 152.525686 
L 220.004302 159.52102 
L 221.266812 149.10578 
L 222.529321 159.483828 
L 223.79183 159.939516 
L 225.05434 165.778074 
L 226.316849 147.479015 
L 227.579358 152.761802 
L 228.841867 138.731147 
L 230.104377 145.379956 
L 231.366886 125.860898 
L 232.629395 130.506993 
L 233.891905 139.051423 
L 235.154414 135.879655 
L 236.416923 125.151278 
L 237.679432 105.185363 
L 238.941942 136.11821 
L 240.204451 122.155335 
L 241.46696 130.067549 
L 242.72947 134.551149 
L 243.991979 144.201558 
L 245.254488 138.228865 
L 246.516997 129.803903 
L 247.779507 152.851651 
L 249.042016 123.69381 
L 250.304525 132.487726 
L 251.567034 133.233849 
L 252.829544 118.327541 
L 254.092053 133.077373 
L 255.354562 99.307175 
L 256.617072 121.534215 
L 257.879581 112.753701 
L 259.14209 104.967874 
L 260.404599 96.321694 
L 261.667109 104.92402 
L 262.929618 103.282355 
L 264.192127 104.494534 
L 265.454637 103.861088 
L 266.717146 98.708686 
L 267.979655 113.832472 
L 269.242164 117.68818 
L 270.504674 109.288283 
L 271.767183 133.626841 
L 273.029692 93.696487 
L 274.292202 107.637421 
L 275.554711 115.030368 
L 276.81722 118.527082 
L 278.079729 128.989822 
L 279.342239 120.505049 
L 280.604748 104.508413 
L 281.867257 104.428697 
L 283.129767 106.421089 
L 284.392276 117.947121 
L 285.654785 126.18065 
L 286.917294 123.100979 
L 288.179804 120.443366 
L 289.442313 123.762637 
L 290.704822 105.867083 
L 291.967331 107.558397 
L 293.229841 124.455005 
L 294.49235 116.225939 
L 295.754859 119.868097 
L 297.017369 117.320123 
L 298.279878 140.723752 
L 299.542387 141.520484 
L 300.804896 106.496772 
L 302.067406 121.327312 
L 303.329915 114.891336 
L 304.592424 102.829136 
L 305.854934 122.801068 
L 307.117443 146.091345 
L 308.379952 113.903603 
L 309.642461 119.857794 
L 310.904971 116.984929 
L 312.16748 129.495504 
L 313.429989 117.790622 
L 314.692499 96.19467 
L 315.955008 105.123544 
L 317.217517 98.28236 
L 318.480026 110.786895 
L 319.742536 114.00571 
L 321.005045 121.113 
L 322.267554 90.673548 
L 323.530064 115.044083 
L 324.792573 84.703782 
L 326.055082 99.43589 
L 327.317591 98.971782 
L 328.580101 83.17779 
L 329.84261 99.215089 
L 331.105119 94.957871 
L 332.367628 96.19886 
L 333.630138 115.382678 
L 334.892647 95.171433 
L 336.155156 85.390821 
L 337.417666 109.061088 
L 338.680175 103.39981 
L 339.942684 99.359675 
L 341.205193 105.450345 
L 342.467703 90.759501 
L 343.730212 102.271126 
L 344.992721 98.178765 
L 346.255231 79.141423 
L 348.780249 95.094833 
L 350.042758 93.020802 
L 351.305268 90.582686 
L 352.567777 87.212601 
L 353.830286 90.60452 
L 355.092796 72.515959 
L 357.617814 99.565719 
L 358.880323 92.495938 
L 360.142833 71.618903 
L 361.405342 89.389615 
L 362.667851 84.827554 
L 363.93036 90.966512 
L 365.19287 85.579508 
L 366.455379 85.857173 
L 367.717888 82.069734 
L 368.980398 76.954482 
L 370.242907 100.803004 
L 371.505416 76.148557 
L 372.767925 93.023449 
L 374.030435 97.132548 
L 375.292944 92.377505 
L 376.555453 97.959647 
L 377.817963 86.792771 
L 379.080472 119.850128 
L 380.342981 93.232154 
L 381.60549 90.004758 
L 382.868 82.788501 
L 384.130509 85.412474 
L 385.393018 107.863241 
L 386.655528 96.882861 
L 387.918037 82.966474 
L 389.180546 93.367194 
L 391.705565 88.511059 
L 392.968074 90.919822 
L 394.230583 85.289383 
L 395.493093 88.278716 
L 396.755602 94.798818 
L 398.018111 95.820224 
L 399.28062 87.297895 
L 400.54313 100.575218 
L 401.805639 101.817001 
L 401.805639 101.817001 
" clip-path="url(#pf2fcda6848)" style="fill: none; stroke: #d66b6a; stroke-width: 1.5; stroke-linecap: square"/>
   </g>
   <g id="line2d_28">
    <path d="M 87.440828 313.583834 
L 88.703337 279.970841 
L 89.965847 250.100088 
L 91.228356 240.647779 
L 92.490865 211.777515 
L 93.753374 203.941644 
L 95.015884 178.106495 
L 96.278393 201.51394 
L 97.540902 200.753735 
L 98.803411 189.498707 
L 100.065921 185.702852 
L 101.32843 185.047021 
L 102.590939 128.023321 
L 103.853449 157.530892 
L 105.115958 127.160321 
L 106.378467 133.795812 
L 107.640976 103.141671 
L 108.903486 109.414036 
L 110.165995 119.487067 
L 111.428504 91.952177 
L 112.691014 94.751408 
L 113.953523 80.705733 
L 115.216032 56.710725 
L 116.478541 58.676464 
L 117.741051 57.40006 
L 119.00356 55.710198 
L 120.266069 57.48226 
L 121.528579 60.250009 
L 122.791088 56.734468 
L 124.053597 57.02814 
L 125.316106 56.881101 
L 126.578616 87.845263 
L 127.841125 61.07008 
L 129.103634 58.190435 
L 130.366144 58.492813 
L 131.628653 64.382389 
L 132.891162 66.776645 
L 134.153671 59.20768 
L 135.416181 58.917255 
L 136.67869 54.955726 
L 137.941199 49.201667 
L 139.203708 58.515819 
L 140.466218 57.541547 
L 141.728727 48.113225 
L 142.991236 43.079664 
L 144.253746 40.491735 
L 145.516255 44.051679 
L 146.778764 43.996727 
L 148.041273 46.643311 
L 149.303783 43.592544 
L 150.566292 47.766651 
L 153.091311 42.60564 
L 154.35382 38.340162 
L 155.616329 44.194829 
L 156.878838 41.31223 
L 158.141348 43.237444 
L 159.403857 43.729117 
L 160.666366 47.643713 
L 161.928876 43.653587 
L 163.191385 43.203103 
L 165.716403 47.356547 
L 166.978913 42.040601 
L 168.241422 42.278705 
L 169.503931 40.455541 
L 170.766441 36.211674 
L 172.02895 43.159955 
L 174.553968 39.778881 
L 175.816478 42.999163 
L 177.078987 39.275698 
L 178.341496 43.751463 
L 179.604005 38.430621 
L 180.866515 41.019016 
L 182.129024 38.877836 
L 183.391533 42.495704 
L 184.654043 41.343292 
L 185.916552 40.804476 
L 187.179061 43.477458 
L 188.44157 43.102846 
L 189.70408 42.235387 
L 190.966589 40.696123 
L 192.229098 40.829238 
L 193.491608 40.395297 
L 194.754117 41.002975 
L 196.016626 41.914595 
L 197.279135 39.946694 
L 198.541645 40.162449 
L 199.804154 41.714002 
L 201.066663 38.304206 
L 202.329173 38.087997 
L 203.591682 40.595061 
L 206.1167 38.483651 
L 207.37921 40.55718 
L 208.641719 38.571124 
L 209.904228 42.470525 
L 211.166737 37.698657 
L 212.429247 39.526341 
L 213.691756 40.409778 
L 214.954265 40.268278 
L 216.216775 39.716189 
L 217.479284 39.76694 
L 218.741793 40.626513 
L 220.004302 38.440539 
L 221.266812 38.290696 
L 222.529321 38.744815 
L 225.05434 37.944509 
L 226.316849 43.100079 
L 227.579358 37.97949 
L 228.841867 41.952408 
L 230.104377 38.311411 
L 231.366886 42.734746 
L 232.629395 39.629993 
L 233.891905 39.702402 
L 235.154414 38.647402 
L 236.416923 40.639849 
L 237.679432 35.154601 
L 238.941942 38.957092 
L 240.204451 36.789559 
L 241.46696 38.638387 
L 242.72947 39.235413 
L 243.991979 37.241409 
L 245.254488 40.49315 
L 246.516997 38.984135 
L 247.779507 41.674857 
L 249.042016 38.106723 
L 250.304525 36.177968 
L 251.567034 36.119291 
L 252.829544 36.813806 
L 254.092053 36.821585 
L 255.354562 38.814545 
L 256.617072 37.355478 
L 257.879581 37.736697 
L 259.14209 39.782707 
L 260.404599 34.979666 
L 261.667109 33.451888 
L 262.929618 36.268905 
L 264.192127 37.449505 
L 265.454637 39.808834 
L 266.717146 36.550325 
L 267.979655 37.776337 
L 269.242164 34.276711 
L 270.504674 36.988487 
L 271.767183 38.12026 
L 273.029692 40.28212 
L 274.292202 38.160551 
L 275.554711 36.324159 
L 276.81722 36.759476 
L 278.079729 33.935442 
L 279.342239 38.690509 
L 280.604748 38.007695 
L 281.867257 34.030725 
L 283.129767 36.833716 
L 284.392276 34.521548 
L 285.654785 35.94464 
L 286.917294 35.948826 
L 288.179804 35.112719 
L 289.442313 36.116135 
L 290.704822 35.187572 
L 291.967331 35.537359 
L 293.229841 34.091316 
L 294.49235 33.817347 
L 295.754859 37.805537 
L 297.017369 34.046447 
L 298.279878 32.094086 
L 299.542387 32.355801 
L 300.804896 37.832762 
L 302.067406 34.390334 
L 303.329915 34.674866 
L 304.592424 35.685931 
L 305.854934 34.34778 
L 307.117443 36.706785 
L 308.379952 35.022862 
L 309.642461 34.251457 
L 310.904971 34.59569 
L 312.16748 36.45978 
L 313.429989 37.232643 
L 314.692499 33.068318 
L 315.955008 33.986315 
L 317.217517 36.79557 
L 318.480026 35.590966 
L 319.742536 36.709532 
L 321.005045 34.666174 
L 322.267554 33.646619 
L 323.530064 35.889339 
L 324.792573 33.08848 
L 326.055082 33.648907 
L 327.317591 35.419811 
L 328.580101 33.459546 
L 329.84261 35.955666 
L 331.105119 34.402987 
L 332.367628 35.734418 
L 333.630138 34.732415 
L 334.892647 36.227991 
L 336.155156 34.530463 
L 337.417666 33.098705 
L 338.680175 33.33689 
L 339.942684 32.512907 
L 341.205193 35.764186 
L 342.467703 32.633955 
L 343.730212 34.349812 
L 344.992721 35.376739 
L 346.255231 33.117708 
L 347.51774 31.777857 
L 348.780249 32.033097 
L 350.042758 36.463879 
L 351.305268 34.731992 
L 352.567777 36.299136 
L 353.830286 35.459933 
L 355.092796 34.999818 
L 356.355305 34.800855 
L 357.617814 33.662755 
L 358.880323 37.136932 
L 360.142833 36.440118 
L 361.405342 33.205727 
L 362.667851 35.684046 
L 363.93036 33.533055 
L 365.19287 34.814165 
L 366.455379 36.393941 
L 367.717888 35.102697 
L 368.980398 32.693263 
L 370.242907 35.855121 
L 371.505416 33.916977 
L 372.767925 35.493042 
L 374.030435 34.324824 
L 375.292944 36.215293 
L 377.817963 36.321199 
L 379.080472 34.054253 
L 380.342981 35.235576 
L 381.60549 31.009106 
L 382.868 33.861779 
L 384.130509 33.786307 
L 385.393018 33.900803 
L 386.655528 37.965534 
L 387.918037 37.855467 
L 389.180546 36.462441 
L 390.443055 37.756541 
L 391.705565 34.155053 
L 392.968074 36.883349 
L 394.230583 35.051002 
L 395.493093 34.579028 
L 396.755602 34.38371 
L 398.018111 35.104348 
L 399.28062 33.196095 
L 400.54313 34.224627 
L 401.805639 35.448537 
L 401.805639 35.448537 
" clip-path="url(#pf2fcda6848)" style="fill: none; stroke: #5591e1; stroke-width: 1.5; stroke-linecap: square"/>
   </g>
   <g id="line2d_29">
    <path d="M 87.440828 225.63182 
L 88.703337 285.947013 
L 89.965847 278.070235 
L 91.228356 274.199473 
L 92.490865 281.820312 
L 93.753374 273.068091 
L 95.015884 271.5562 
L 96.278393 262.766718 
L 97.540902 284.054451 
L 98.803411 253.492877 
L 100.065921 258.65619 
L 101.32843 238.975555 
L 102.590939 257.173994 
L 103.853449 250.82896 
L 105.115958 248.954433 
L 107.640976 237.164965 
L 108.903486 228.549801 
L 110.165995 246.1156 
L 111.428504 252.088071 
L 112.691014 246.527069 
L 113.953523 267.265349 
L 115.216032 261.125482 
L 116.478541 278.722093 
L 117.741051 283.347155 
L 119.00356 260.221795 
L 121.528579 250.771201 
L 122.791088 248.919213 
L 124.053597 263.508587 
L 125.316106 223.885906 
L 126.578616 263.859724 
L 127.841125 262.018732 
L 129.103634 268.148811 
L 131.628653 248.621597 
L 132.891162 243.955576 
L 134.153671 250.809937 
L 135.416181 252.814402 
L 136.67869 268.416701 
L 137.941199 254.939178 
L 139.203708 251.654051 
L 140.466218 255.783185 
L 141.728727 284.011256 
L 142.991236 295.426587 
L 144.253746 271.138517 
L 145.516255 254.261056 
L 146.778764 282.106243 
L 148.041273 265.099497 
L 149.303783 272.25933 
L 150.566292 264.311993 
L 151.828801 247.679489 
L 153.091311 247.947059 
L 154.35382 228.953533 
L 155.616329 250.601511 
L 156.878838 251.487197 
L 158.141348 261.036718 
L 159.403857 267.190012 
L 160.666366 265.324272 
L 161.928876 251.55776 
L 163.191385 230.310405 
L 164.453894 249.067806 
L 165.716403 229.724919 
L 166.978913 249.380172 
L 168.241422 251.810029 
L 169.503931 264.053203 
L 170.766441 259.510377 
L 172.02895 242.755999 
L 173.291459 235.810449 
L 174.553968 249.957084 
L 175.816478 249.246881 
L 177.078987 231.901276 
L 178.341496 243.717067 
L 179.604005 241.588462 
L 180.866515 236.712419 
L 182.129024 245.33246 
L 183.391533 259.946869 
L 184.654043 231.754065 
L 185.916552 237.189126 
L 187.179061 226.408352 
L 188.44157 240.862838 
L 189.70408 241.068385 
L 190.966589 239.517832 
L 192.229098 239.997604 
L 193.491608 244.810658 
L 194.754117 244.794175 
L 196.016626 242.822173 
L 197.279135 243.590064 
L 199.804154 244.454375 
L 201.066663 260.614522 
L 202.329173 224.468817 
L 203.591682 214.387456 
L 204.854191 224.327362 
L 206.1167 227.839683 
L 207.37921 207.946865 
L 208.641719 215.169557 
L 209.904228 206.739082 
L 211.166737 222.175149 
L 212.429247 220.572527 
L 213.691756 209.625651 
L 214.954265 220.23868 
L 216.216775 208.440751 
L 218.741793 233.187077 
L 220.004302 211.099571 
L 221.266812 223.844707 
L 222.529321 227.70315 
L 223.79183 226.435858 
L 225.05434 226.767334 
L 226.316849 230.83924 
L 227.579358 216.433957 
L 228.841867 217.8559 
L 230.104377 237.047981 
L 231.366886 219.880908 
L 232.629395 233.039017 
L 233.891905 221.164228 
L 235.154414 215.134715 
L 236.416923 243.161291 
L 237.679432 218.57508 
L 238.941942 221.279852 
L 240.204451 218.726532 
L 241.46696 214.426485 
L 242.72947 214.68729 
L 243.991979 211.600265 
L 245.254488 193.273861 
L 246.516997 217.111095 
L 247.779507 192.666697 
L 249.042016 185.971637 
L 250.304525 189.342294 
L 251.567034 190.497394 
L 252.829544 198.137848 
L 254.092053 192.680111 
L 255.354562 192.050077 
L 256.617072 196.000997 
L 257.879581 190.728388 
L 259.14209 193.492709 
L 260.404599 204.249409 
L 261.667109 193.287076 
L 262.929618 195.240693 
L 264.192127 222.809027 
L 265.454637 193.785986 
L 266.717146 184.37274 
L 267.979655 179.081628 
L 269.242164 187.926963 
L 270.504674 204.091377 
L 271.767183 208.188189 
L 273.029692 198.973671 
L 274.292202 206.382031 
L 275.554711 199.782154 
L 276.81722 197.121896 
L 278.079729 196.699743 
L 279.342239 192.381828 
L 280.604748 201.111943 
L 281.867257 202.581874 
L 283.129767 238.775421 
L 284.392276 199.846611 
L 285.654785 199.187003 
L 286.917294 212.707106 
L 288.179804 214.226602 
L 289.442313 208.878477 
L 290.704822 226.49443 
L 291.967331 232.128189 
L 293.229841 203.356207 
L 294.49235 205.196979 
L 295.754859 232.842263 
L 297.017369 205.140226 
L 298.279878 220.486541 
L 299.542387 223.995478 
L 300.804896 207.178542 
L 302.067406 200.071944 
L 303.329915 205.331698 
L 304.592424 199.950223 
L 305.854934 193.461745 
L 307.117443 196.415982 
L 308.379952 198.593404 
L 309.642461 192.732078 
L 310.904971 193.643018 
L 312.16748 199.779872 
L 313.429989 193.986819 
L 314.692499 196.804892 
L 315.955008 194.703257 
L 317.217517 189.08351 
L 318.480026 184.522357 
L 319.742536 181.516848 
L 321.005045 197.859412 
L 322.267554 193.978177 
L 323.530064 202.11118 
L 324.792573 196.38043 
L 326.055082 199.866851 
L 327.317591 191.377611 
L 328.580101 176.940254 
L 329.84261 196.444178 
L 331.105119 193.513131 
L 332.367628 197.02785 
L 333.630138 192.751052 
L 334.892647 191.322137 
L 336.155156 187.850761 
L 337.417666 187.908999 
L 338.680175 194.286335 
L 339.942684 191.660666 
L 341.205193 187.366137 
L 342.467703 194.748201 
L 343.730212 183.138155 
L 344.992721 185.271162 
L 346.255231 180.198535 
L 347.51774 179.066928 
L 348.780249 160.74462 
L 350.042758 173.454869 
L 351.305268 177.36429 
L 352.567777 175.871047 
L 353.830286 171.441777 
L 355.092796 175.649657 
L 356.355305 176.848428 
L 357.617814 189.149896 
L 358.880323 178.937469 
L 360.142833 180.483302 
L 361.405342 179.659826 
L 362.667851 179.82139 
L 363.93036 177.344736 
L 365.19287 194.73238 
L 366.455379 191.223937 
L 367.717888 186.372453 
L 368.980398 189.636485 
L 370.242907 186.629627 
L 371.505416 183.238391 
L 372.767925 182.114112 
L 374.030435 182.484802 
L 375.292944 179.826046 
L 376.555453 183.735337 
L 377.817963 178.070787 
L 379.080472 186.201262 
L 380.342981 180.502092 
L 381.60549 177.925614 
L 382.868 186.69401 
L 384.130509 189.630387 
L 385.393018 188.801545 
L 386.655528 184.040772 
L 387.918037 190.749111 
L 389.180546 188.648594 
L 390.443055 193.626442 
L 391.705565 192.013726 
L 392.968074 191.145797 
L 394.230583 182.876237 
L 395.493093 194.420876 
L 396.755602 189.770032 
L 398.018111 193.182178 
L 399.28062 190.127029 
L 400.54313 188.780156 
L 401.805639 197.788505 
L 401.805639 197.788505 
" clip-path="url(#pf2fcda6848)" style="fill: none; stroke: #6ca247; stroke-width: 1.5; stroke-linecap: square"/>
   </g>
   <g id="patch_3">
    <path d="M 71.722587 376.318305 
L 71.722587 7.2 
" style="fill: none; stroke: #000000; stroke-width: 0.8; stroke-linejoin: miter; stroke-linecap: square"/>
   </g>
   <g id="patch_4">
    <path d="M 417.523879 376.318305 
L 417.523879 7.2 
" style="fill: none; stroke: #000000; stroke-width: 0.8; stroke-linejoin: miter; stroke-linecap: square"/>
   </g>
   <g id="patch_5">
    <path d="M 71.722587 376.318305 
L 417.523879 376.318305 
" style="fill: none; stroke: #000000; stroke-width: 0.8; stroke-linejoin: miter; stroke-linecap: square"/>
   </g>
   <g id="patch_6">
    <path d="M 71.722587 7.2 
L 417.523879 7.2 
" style="fill: none; stroke: #000000; stroke-width: 0.8; stroke-linejoin: miter; stroke-linecap: square"/>
   </g>
   <g id="legend_1">
    <g id="patch_7">
     <path d="M 308.417969 368.318305 
L 406.323879 368.318305 
Q 409.523879 368.318305 409.523879 365.118305 
L 409.523879 299.819877 
Q 409.523879 296.619877 406.323879 296.619877 
L 308.417969 296.619877 
Q 305.217969 296.619877 305.217969 299.819877 
L 305.217969 365.118305 
Q 305.217969 368.318305 308.417969 368.318305 
z
" style="fill: #ffffff; opacity: 0.8; stroke: #cccccc; stroke-linejoin: miter"/>
    </g>
    <g id="line2d_30">
     <path d="M 311.617969 308.619877 
L 327.617969 308.619877 
L 343.617969 308.619877 
" style="fill: none; stroke: #d66b6a; stroke-width: 1.5; stroke-linecap: square"/>
    </g>
    <g id="text_16">
     <!-- SAC -->
     <g transform="translate(356.417969 314.219877) scale(0.16 -0.16)">
      <defs>
       <path id="CMR17-41" d="M 2323 4441 
C 2291 4524 2278 4544 2214 4544 
C 2150 4544 2138 4524 2106 4441 
L 749 580 
C 627 236 371 166 147 166 
L 147 0 
C 262 12 518 12 640 12 
C 800 12 1056 12 1210 0 
L 1210 166 
C 909 179 864 382 864 459 
C 864 516 877 548 890 586 
L 1229 1536 
L 2906 1536 
L 3290 453 
C 3322 376 3322 363 3322 338 
C 3322 166 3046 166 2925 166 
L 2925 0 
C 3110 12 3443 12 3642 12 
C 3808 12 4128 12 4282 0 
L 4282 166 
C 3942 166 3827 166 3744 402 
L 2323 4441 
z
M 2067 3924 
L 2848 1702 
L 1286 1702 
L 2067 3924 
z
" transform="scale(0.015625)"/>
       <path id="CMR17-43" d="M 3974 4351 
C 3974 4467 3968 4473 3930 4473 
C 3904 4473 3898 4467 3853 4390 
L 3571 3849 
C 3258 4249 2874 4480 2381 4480 
C 1286 4480 294 3507 294 2179 
C 294 837 1286 -128 2387 -128 
C 3366 -128 3974 741 3974 1482 
C 3974 1547 3974 1573 3917 1573 
C 3866 1573 3866 1553 3859 1495 
C 3808 592 3168 38 2477 38 
C 1824 38 781 502 781 2179 
C 781 3862 1843 4313 2464 4313 
C 3187 4313 3712 3681 3834 2785 
C 3846 2707 3846 2695 3904 2695 
C 3974 2695 3974 2707 3974 2824 
L 3974 4351 
z
" transform="scale(0.015625)"/>
      </defs>
      <use xlink:href="#CMR17-53" transform="scale(0.996264)"/>
      <use xlink:href="#CMR17-41" transform="translate(50.89537 0) scale(0.996264)"/>
      <use xlink:href="#CMR17-43" transform="translate(117.365346 0) scale(0.996264)"/>
     </g>
    </g>
    <g id="line2d_31">
     <path d="M 311.617969 330.919353 
L 327.617969 330.919353 
L 343.617969 330.919353 
" style="fill: none; stroke: #5591e1; stroke-width: 1.5; stroke-linecap: square"/>
    </g>
    <g id="text_17">
     <!-- AFU -->
     <g transform="translate(356.417969 336.519353) scale(0.16 -0.16)">
      <defs>
       <path id="CMR17-46" d="M 3482 4339 
L 326 4339 
L 326 4172 
C 768 4172 838 4172 838 3883 
L 838 450 
C 838 166 768 166 326 166 
L 326 0 
C 512 12 870 12 1069 12 
C 1331 12 1638 12 1901 0 
L 1901 166 
L 1760 166 
C 1274 166 1261 229 1261 456 
L 1261 2073 
L 1837 2073 
C 2432 2073 2490 1865 2490 1334 
L 2605 1334 
L 2605 2991 
L 2490 2991 
C 2490 2451 2432 2240 1837 2240 
L 1261 2240 
L 1261 3922 
C 1261 4140 1274 4172 1530 4172 
L 2355 4172 
C 3322 4172 3430 3774 3520 2920 
L 3635 2920 
L 3482 4339 
z
" transform="scale(0.015625)"/>
       <path id="CMR17-55" d="M 3456 1442 
C 3456 583 2899 38 2291 38 
C 1965 38 1670 211 1491 480 
C 1286 788 1261 1185 1261 1410 
L 1261 3897 
C 1261 4185 1331 4185 1773 4185 
L 1773 4352 
C 1587 4339 1248 4339 1050 4339 
C 851 4339 512 4339 326 4352 
L 326 4185 
C 768 4185 838 4185 838 3897 
L 838 1442 
C 838 519 1536 -128 2278 -128 
C 3110 -128 3590 724 3590 1352 
L 3590 3788 
C 3590 4147 3917 4185 4102 4185 
L 4102 4352 
C 3955 4339 3686 4339 3526 4339 
C 3366 4339 3091 4339 2944 4352 
L 2944 4185 
C 3456 4185 3456 3884 3456 3724 
L 3456 1442 
z
" transform="scale(0.015625)"/>
      </defs>
      <use xlink:href="#CMR17-41" transform="scale(0.996264)"/>
      <use xlink:href="#CMR17-46" transform="translate(69.07243 0) scale(0.996264)"/>
      <use xlink:href="#CMR17-55" transform="translate(129.056276 0) scale(0.996264)"/>
     </g>
    </g>
    <g id="line2d_32">
     <path d="M 311.617969 353.218829 
L 327.617969 353.218829 
L 343.617969 353.218829 
" style="fill: none; stroke: #6ca247; stroke-width: 1.5; stroke-linecap: square"/>
    </g>
    <g id="text_18">
     <!-- DDPG -->
     <g transform="translate(356.417969 358.818829) scale(0.16 -0.16)">
      <defs>
       <path id="CMR17-44" d="M 333 4352 
L 333 4185 
C 774 4185 845 4185 845 3898 
L 845 453 
C 845 166 774 166 333 166 
L 333 0 
L 2368 0 
C 3398 0 4224 943 4224 2140 
C 4224 3344 3411 4352 2368 4352 
L 333 4352 
z
M 1523 166 
C 1267 166 1254 198 1254 414 
L 1254 3936 
C 1254 4153 1267 4185 1523 4185 
L 2240 4185 
C 2771 4185 3750 3873 3750 2140 
C 3750 1242 3488 879 3366 707 
C 3213 510 2848 166 2240 166 
L 1523 166 
z
" transform="scale(0.015625)"/>
       <path id="CMR17-50" d="M 1267 2048 
L 2291 2048 
C 3117 2048 3718 2583 3718 3187 
C 3718 3791 3130 4352 2291 4352 
L 333 4352 
L 333 4185 
C 774 4185 845 4185 845 3899 
L 845 453 
C 845 166 774 166 333 166 
L 333 0 
C 518 12 858 12 1056 12 
C 1254 12 1594 12 1779 0 
L 1779 166 
C 1338 166 1267 166 1267 453 
L 1267 2048 
z
M 1254 2182 
L 1254 3937 
C 1254 4153 1267 4185 1523 4185 
L 2170 4185 
C 2995 4185 3232 3715 3232 3187 
C 3232 2608 2950 2182 2170 2182 
L 1254 2182 
z
" transform="scale(0.015625)"/>
       <path id="CMR17-47" d="M 3974 1258 
C 3974 1503 3994 1536 4390 1536 
L 4390 1702 
C 4237 1689 3891 1689 3718 1689 
C 3539 1689 3040 1696 2797 1702 
L 2797 1536 
L 2989 1536 
C 3539 1536 3552 1464 3552 1232 
L 3552 806 
C 3552 96 2720 38 2522 38 
C 1862 38 781 496 781 2179 
C 781 3862 1843 4313 2464 4313 
C 3187 4313 3712 3681 3834 2785 
C 3846 2708 3846 2695 3904 2695 
C 3974 2695 3974 2708 3974 2824 
L 3974 4351 
C 3974 4467 3968 4473 3930 4473 
C 3904 4473 3898 4467 3853 4390 
L 3571 3849 
C 3258 4249 2874 4480 2381 4480 
C 1286 4480 294 3507 294 2179 
C 294 858 1267 -128 2394 -128 
C 2912 -128 3418 57 3616 425 
C 3725 161 3904 -20 3936 -20 
C 3968 -20 3974 -13 3974 102 
L 3974 1258 
z
" transform="scale(0.015625)"/>
      </defs>
      <use xlink:href="#CMR17-44" transform="scale(0.996264)"/>
      <use xlink:href="#CMR17-44" transform="translate(70.393556 0) scale(0.996264)"/>
      <use xlink:href="#CMR17-50" transform="translate(140.787112 0) scale(0.996264)"/>
      <use xlink:href="#CMR17-47" transform="translate(203.373412 0) scale(0.996264)"/>
     </g>
    </g>
   </g>
  </g>
 </g>
 <defs>
  <clipPath id="pf2fcda6848">
   <rect x="71.722587" y="7.2" width="345.801292" height="369.118305"/>
  </clipPath>
 </defs>
</svg>
