<?xml version="1.0" encoding="utf-8" standalone="no"?>
<!DOCTYPE svg PUBLIC "-//W3C//DTD SVG 1.1//EN"
  "http://www.w3.org/Graphics/SVG/1.1/DTD/svg11.dtd">
<svg xmlns:xlink="http://www.w3.org/1999/xlink" width="432pt" height="432pt" viewBox="0 0 432 432" xmlns="http://www.w3.org/2000/svg" version="1.1">
 <metadata>
  <rdf:RDF xmlns:dc="http://purl.org/dc/elements/1.1/" xmlns:cc="http://creativecommons.org/ns#" xmlns:rdf="http://www.w3.org/1999/02/22-rdf-syntax-ns#">
   <cc:Work>
    <dc:type rdf:resource="http://purl.org/dc/dcmitype/StillImage"/>
    <dc:date>1980-01-01T00:00:00+00:00</dc:date>
    <dc:format>image/svg+xml</dc:format>
    <dc:creator>
     <cc:Agent>
      <dc:title>Matplotlib v3.8.0, https://matplotlib.org/</dc:title>
     </cc:Agent>
    </dc:creator>
   </cc:Work>
  </rdf:RDF>
 </metadata>
 <defs>
  <style type="text/css">*{stroke-linejoin: round; stroke-linecap: butt}</style>
 </defs>
 <g id="figure_1">
  <g id="patch_1">
   <path d="M 0 432 
L 432 432 
L 432 0 
L 0 0 
z
" style="fill: #ffffff"/>
  </g>
  <g id="axes_1">
   <g id="patch_2">
    <path d="M 81.528578 367.518305 
L 410.4 367.518305 
L 410.4 21.6 
L 81.528578 21.6 
z
" style="fill: #ffffff"/>
   </g>
   <g id="patch_3">
    <path d="M 96.477279 367.518305 
L 100.517469 367.518305 
L 100.517469 367.518305 
L 96.477279 367.518305 
z
" clip-path="url(#p444e73a337)" style="fill: #5591e1; opacity: 0.7"/>
   </g>
   <g id="patch_4">
    <path d="M 116.678227 367.518305 
L 120.718416 367.518305 
L 120.718416 367.518305 
L 116.678227 367.518305 
z
" clip-path="url(#p444e73a337)" style="fill: #5591e1; opacity: 0.7"/>
   </g>
   <g id="patch_5">
    <path d="M 136.879174 367.518305 
L 140.919363 367.518305 
L 140.919363 367.518305 
L 136.879174 367.518305 
z
" clip-path="url(#p444e73a337)" style="fill: #5591e1; opacity: 0.7"/>
   </g>
   <g id="patch_6">
    <path d="M 157.080121 367.518305 
L 161.120311 367.518305 
L 161.120311 367.518305 
L 157.080121 367.518305 
z
" clip-path="url(#p444e73a337)" style="fill: #5591e1; opacity: 0.7"/>
   </g>
   <g id="patch_7">
    <path d="M 177.281068 367.518305 
L 181.321258 367.518305 
L 181.321258 367.518305 
L 177.281068 367.518305 
z
" clip-path="url(#p444e73a337)" style="fill: #5591e1; opacity: 0.7"/>
   </g>
   <g id="patch_8">
    <path d="M 197.482016 367.518305 
L 201.522205 367.518305 
L 201.522205 367.518305 
L 197.482016 367.518305 
z
" clip-path="url(#p444e73a337)" style="fill: #5591e1; opacity: 0.7"/>
   </g>
   <g id="patch_9">
    <path d="M 217.682963 367.518305 
L 221.723152 367.518305 
L 221.723152 367.518305 
L 217.682963 367.518305 
z
" clip-path="url(#p444e73a337)" style="fill: #5591e1; opacity: 0.7"/>
   </g>
   <g id="patch_10">
    <path d="M 237.88391 367.518305 
L 241.9241 367.518305 
L 241.9241 367.518305 
L 237.88391 367.518305 
z
" clip-path="url(#p444e73a337)" style="fill: #5591e1; opacity: 0.7"/>
   </g>
   <g id="patch_11">
    <path d="M 258.084858 367.518305 
L 262.125047 367.518305 
L 262.125047 367.518305 
L 258.084858 367.518305 
z
" clip-path="url(#p444e73a337)" style="fill: #5591e1; opacity: 0.7"/>
   </g>
   <g id="patch_12">
    <path d="M 278.285805 367.518305 
L 282.325994 367.518305 
L 282.325994 367.518305 
L 278.285805 367.518305 
z
" clip-path="url(#p444e73a337)" style="fill: #5591e1; opacity: 0.7"/>
   </g>
   <g id="patch_13">
    <path d="M 298.486752 367.518305 
L 302.526942 367.518305 
L 302.526942 367.518305 
L 298.486752 367.518305 
z
" clip-path="url(#p444e73a337)" style="fill: #5591e1; opacity: 0.7"/>
   </g>
   <g id="patch_14">
    <path d="M 318.687699 367.518305 
L 322.727889 367.518305 
L 322.727889 367.518305 
L 318.687699 367.518305 
z
" clip-path="url(#p444e73a337)" style="fill: #5591e1; opacity: 0.7"/>
   </g>
   <g id="patch_15">
    <path d="M 338.888647 367.518305 
L 342.928836 367.518305 
L 342.928836 364.831691 
L 338.888647 364.831691 
z
" clip-path="url(#p444e73a337)" style="fill: #5591e1; opacity: 0.7"/>
   </g>
   <g id="patch_16">
    <path d="M 359.089594 367.518305 
L 363.129783 367.518305 
L 363.129783 363.824211 
L 359.089594 363.824211 
z
" clip-path="url(#p444e73a337)" style="fill: #5591e1; opacity: 0.7"/>
   </g>
   <g id="patch_17">
    <path d="M 379.290541 367.518305 
L 383.330731 367.518305 
L 383.330731 38.0723 
L 379.290541 38.0723 
z
" clip-path="url(#p444e73a337)" style="fill: #5591e1; opacity: 0.7"/>
   </g>
   <g id="patch_18">
    <path d="M 100.517469 367.518305 
L 104.557658 367.518305 
L 104.557658 367.518305 
L 100.517469 367.518305 
z
" clip-path="url(#p444e73a337)" style="fill: #d66b6a; opacity: 0.7"/>
   </g>
   <g id="patch_19">
    <path d="M 120.718416 367.518305 
L 124.758606 367.518305 
L 124.758606 367.518305 
L 120.718416 367.518305 
z
" clip-path="url(#p444e73a337)" style="fill: #d66b6a; opacity: 0.7"/>
   </g>
   <g id="patch_20">
    <path d="M 140.919363 367.518305 
L 144.959553 367.518305 
L 144.959553 367.518305 
L 140.919363 367.518305 
z
" clip-path="url(#p444e73a337)" style="fill: #d66b6a; opacity: 0.7"/>
   </g>
   <g id="patch_21">
    <path d="M 161.120311 367.518305 
L 165.1605 367.518305 
L 165.1605 367.518305 
L 161.120311 367.518305 
z
" clip-path="url(#p444e73a337)" style="fill: #d66b6a; opacity: 0.7"/>
   </g>
   <g id="patch_22">
    <path d="M 181.321258 367.518305 
L 185.361447 367.518305 
L 185.361447 367.518305 
L 181.321258 367.518305 
z
" clip-path="url(#p444e73a337)" style="fill: #d66b6a; opacity: 0.7"/>
   </g>
   <g id="patch_23">
    <path d="M 201.522205 367.518305 
L 205.562395 367.518305 
L 205.562395 367.518305 
L 201.522205 367.518305 
z
" clip-path="url(#p444e73a337)" style="fill: #d66b6a; opacity: 0.7"/>
   </g>
   <g id="patch_24">
    <path d="M 221.723152 367.518305 
L 225.763342 367.518305 
L 225.763342 367.518305 
L 221.723152 367.518305 
z
" clip-path="url(#p444e73a337)" style="fill: #d66b6a; opacity: 0.7"/>
   </g>
   <g id="patch_25">
    <path d="M 241.9241 367.518305 
L 245.964289 367.518305 
L 245.964289 367.518305 
L 241.9241 367.518305 
z
" clip-path="url(#p444e73a337)" style="fill: #d66b6a; opacity: 0.7"/>
   </g>
   <g id="patch_26">
    <path d="M 262.125047 367.518305 
L 266.165236 367.518305 
L 266.165236 367.518305 
L 262.125047 367.518305 
z
" clip-path="url(#p444e73a337)" style="fill: #d66b6a; opacity: 0.7"/>
   </g>
   <g id="patch_27">
    <path d="M 282.325994 367.518305 
L 286.366184 367.518305 
L 286.366184 367.350392 
L 282.325994 367.350392 
z
" clip-path="url(#p444e73a337)" style="fill: #d66b6a; opacity: 0.7"/>
   </g>
   <g id="patch_28">
    <path d="M 302.526942 367.518305 
L 306.567131 367.518305 
L 306.567131 366.846652 
L 302.526942 366.846652 
z
" clip-path="url(#p444e73a337)" style="fill: #d66b6a; opacity: 0.7"/>
   </g>
   <g id="patch_29">
    <path d="M 322.727889 367.518305 
L 326.768078 367.518305 
L 326.768078 366.342912 
L 322.727889 366.342912 
z
" clip-path="url(#p444e73a337)" style="fill: #d66b6a; opacity: 0.7"/>
   </g>
   <g id="patch_30">
    <path d="M 342.928836 367.518305 
L 346.969026 367.518305 
L 346.969026 355.596457 
L 342.928836 355.596457 
z
" clip-path="url(#p444e73a337)" style="fill: #d66b6a; opacity: 0.7"/>
   </g>
   <g id="patch_31">
    <path d="M 363.129783 367.518305 
L 367.169973 367.518305 
L 367.169973 359.794291 
L 363.129783 359.794291 
z
" clip-path="url(#p444e73a337)" style="fill: #d66b6a; opacity: 0.7"/>
   </g>
   <g id="patch_32">
    <path d="M 383.330731 367.518305 
L 387.37092 367.518305 
L 387.37092 53.352416 
L 383.330731 53.352416 
z
" clip-path="url(#p444e73a337)" style="fill: #d66b6a; opacity: 0.7"/>
   </g>
   <g id="patch_33">
    <path d="M 104.557658 367.518305 
L 108.597848 367.518305 
L 108.597848 366.846652 
L 104.557658 366.846652 
z
" clip-path="url(#p444e73a337)" style="fill: #39a985; opacity: 0.7"/>
   </g>
   <g id="patch_34">
    <path d="M 124.758606 367.518305 
L 128.798795 367.518305 
L 128.798795 366.846652 
L 124.758606 366.846652 
z
" clip-path="url(#p444e73a337)" style="fill: #39a985; opacity: 0.7"/>
   </g>
   <g id="patch_35">
    <path d="M 144.959553 367.518305 
L 148.999742 367.518305 
L 148.999742 365.839172 
L 144.959553 365.839172 
z
" clip-path="url(#p444e73a337)" style="fill: #39a985; opacity: 0.7"/>
   </g>
   <g id="patch_36">
    <path d="M 165.1605 367.518305 
L 169.20069 367.518305 
L 169.20069 366.174998 
L 165.1605 366.174998 
z
" clip-path="url(#p444e73a337)" style="fill: #39a985; opacity: 0.7"/>
   </g>
   <g id="patch_37">
    <path d="M 185.361447 367.518305 
L 189.401637 367.518305 
L 189.401637 366.342912 
L 185.361447 366.342912 
z
" clip-path="url(#p444e73a337)" style="fill: #39a985; opacity: 0.7"/>
   </g>
   <g id="patch_38">
    <path d="M 205.562395 367.518305 
L 209.602584 367.518305 
L 209.602584 364.327951 
L 205.562395 364.327951 
z
" clip-path="url(#p444e73a337)" style="fill: #39a985; opacity: 0.7"/>
   </g>
   <g id="patch_39">
    <path d="M 225.763342 367.518305 
L 229.803531 367.518305 
L 229.803531 362.480904 
L 225.763342 362.480904 
z
" clip-path="url(#p444e73a337)" style="fill: #39a985; opacity: 0.7"/>
   </g>
   <g id="patch_40">
    <path d="M 245.964289 367.518305 
L 250.004479 367.518305 
L 250.004479 353.74941 
L 245.964289 353.74941 
z
" clip-path="url(#p444e73a337)" style="fill: #39a985; opacity: 0.7"/>
   </g>
   <g id="patch_41">
    <path d="M 266.165236 367.518305 
L 270.205426 367.518305 
L 270.205426 344.682089 
L 266.165236 344.682089 
z
" clip-path="url(#p444e73a337)" style="fill: #39a985; opacity: 0.7"/>
   </g>
   <g id="patch_42">
    <path d="M 286.366184 367.518305 
L 290.406373 367.518305 
L 290.406373 319.327172 
L 286.366184 319.327172 
z
" clip-path="url(#p444e73a337)" style="fill: #39a985; opacity: 0.7"/>
   </g>
   <g id="patch_43">
    <path d="M 306.567131 367.518305 
L 310.60732 367.518305 
L 310.60732 279.363793 
L 306.567131 279.363793 
z
" clip-path="url(#p444e73a337)" style="fill: #39a985; opacity: 0.7"/>
   </g>
   <g id="patch_44">
    <path d="M 326.768078 367.518305 
L 330.808268 367.518305 
L 330.808268 264.251591 
L 326.768078 264.251591 
z
" clip-path="url(#p444e73a337)" style="fill: #39a985; opacity: 0.7"/>
   </g>
   <g id="patch_45">
    <path d="M 346.969026 367.518305 
L 351.009215 367.518305 
L 351.009215 326.043706 
L 346.969026 326.043706 
z
" clip-path="url(#p444e73a337)" style="fill: #39a985; opacity: 0.7"/>
   </g>
   <g id="patch_46">
    <path d="M 367.169973 367.518305 
L 371.210162 367.518305 
L 371.210162 363.824211 
L 367.169973 363.824211 
z
" clip-path="url(#p444e73a337)" style="fill: #39a985; opacity: 0.7"/>
   </g>
   <g id="patch_47">
    <path d="M 387.37092 367.518305 
L 391.41111 367.518305 
L 391.41111 366.846652 
L 387.37092 366.846652 
z
" clip-path="url(#p444e73a337)" style="fill: #39a985; opacity: 0.7"/>
   </g>
   <g id="patch_48">
    <path d="M 108.597848 367.518305 
L 112.638037 367.518305 
L 112.638037 367.518305 
L 108.597848 367.518305 
z
" clip-path="url(#p444e73a337)" style="fill: #ad75ca; opacity: 0.7"/>
   </g>
   <g id="patch_49">
    <path d="M 128.798795 367.518305 
L 132.838984 367.518305 
L 132.838984 367.518305 
L 128.798795 367.518305 
z
" clip-path="url(#p444e73a337)" style="fill: #ad75ca; opacity: 0.7"/>
   </g>
   <g id="patch_50">
    <path d="M 148.999742 367.518305 
L 153.039932 367.518305 
L 153.039932 367.518305 
L 148.999742 367.518305 
z
" clip-path="url(#p444e73a337)" style="fill: #ad75ca; opacity: 0.7"/>
   </g>
   <g id="patch_51">
    <path d="M 169.20069 367.518305 
L 173.240879 367.518305 
L 173.240879 367.518305 
L 169.20069 367.518305 
z
" clip-path="url(#p444e73a337)" style="fill: #ad75ca; opacity: 0.7"/>
   </g>
   <g id="patch_52">
    <path d="M 189.401637 367.518305 
L 193.441826 367.518305 
L 193.441826 367.518305 
L 189.401637 367.518305 
z
" clip-path="url(#p444e73a337)" style="fill: #ad75ca; opacity: 0.7"/>
   </g>
   <g id="patch_53">
    <path d="M 209.602584 367.518305 
L 213.642774 367.518305 
L 213.642774 367.518305 
L 209.602584 367.518305 
z
" clip-path="url(#p444e73a337)" style="fill: #ad75ca; opacity: 0.7"/>
   </g>
   <g id="patch_54">
    <path d="M 229.803531 367.518305 
L 233.843721 367.518305 
L 233.843721 367.350392 
L 229.803531 367.350392 
z
" clip-path="url(#p444e73a337)" style="fill: #ad75ca; opacity: 0.7"/>
   </g>
   <g id="patch_55">
    <path d="M 250.004479 367.518305 
L 254.044668 367.518305 
L 254.044668 367.518305 
L 250.004479 367.518305 
z
" clip-path="url(#p444e73a337)" style="fill: #ad75ca; opacity: 0.7"/>
   </g>
   <g id="patch_56">
    <path d="M 270.205426 367.518305 
L 274.245615 367.518305 
L 274.245615 367.182478 
L 270.205426 367.182478 
z
" clip-path="url(#p444e73a337)" style="fill: #ad75ca; opacity: 0.7"/>
   </g>
   <g id="patch_57">
    <path d="M 290.406373 367.518305 
L 294.446563 367.518305 
L 294.446563 366.007085 
L 290.406373 366.007085 
z
" clip-path="url(#p444e73a337)" style="fill: #ad75ca; opacity: 0.7"/>
   </g>
   <g id="patch_58">
    <path d="M 310.60732 367.518305 
L 314.64751 367.518305 
L 314.64751 340.148428 
L 310.60732 340.148428 
z
" clip-path="url(#p444e73a337)" style="fill: #ad75ca; opacity: 0.7"/>
   </g>
   <g id="patch_59">
    <path d="M 330.808268 367.518305 
L 334.848457 367.518305 
L 334.848457 261.732891 
L 330.808268 261.732891 
z
" clip-path="url(#p444e73a337)" style="fill: #ad75ca; opacity: 0.7"/>
   </g>
   <g id="patch_60">
    <path d="M 351.009215 367.518305 
L 355.049404 367.518305 
L 355.049404 214.381324 
L 351.009215 214.381324 
z
" clip-path="url(#p444e73a337)" style="fill: #ad75ca; opacity: 0.7"/>
   </g>
   <g id="patch_61">
    <path d="M 371.210162 367.518305 
L 375.250352 367.518305 
L 375.250352 360.298031 
L 371.210162 360.298031 
z
" clip-path="url(#p444e73a337)" style="fill: #ad75ca; opacity: 0.7"/>
   </g>
   <g id="patch_62">
    <path d="M 391.41111 367.518305 
L 395.451299 367.518305 
L 395.451299 327.2191 
L 391.41111 327.2191 
z
" clip-path="url(#p444e73a337)" style="fill: #ad75ca; opacity: 0.7"/>
   </g>
   <g id="matplotlib.axis_1">
    <g id="xtick_1">
     <g id="line2d_1">
      <path d="M 131.075117 367.518305 
L 131.075117 21.6 
" clip-path="url(#p444e73a337)" style="fill: none; stroke: #b0b0b0; stroke-opacity: 0.3; stroke-width: 0.8; stroke-linecap: square"/>
     </g>
     <g id="line2d_2">
      <defs>
       <path id="m1a915c6c7f" d="M 0 0 
L 0 3.5 
" style="stroke: #000000; stroke-width: 0.8"/>
      </defs>
      <g>
       <use xlink:href="#m1a915c6c7f" x="131.075117" y="367.518305" style="stroke: #000000; stroke-width: 0.8"/>
      </g>
     </g>
     <g id="text_1">
      <!-- $\mathdefault{−1500}$ -->
      <g transform="translate(109.268145 385.587893) scale(0.16 -0.16)">
       <defs>
        <path id="CMSY10-0" d="M 4218 1472 
C 4326 1472 4442 1472 4442 1600 
C 4442 1728 4326 1728 4218 1728 
L 755 1728 
C 646 1728 531 1728 531 1600 
C 531 1472 646 1472 755 1472 
L 4218 1472 
z
" transform="scale(0.015625)"/>
        <path id="CMR17-31" d="M 1702 4083 
C 1702 4217 1696 4224 1606 4224 
C 1357 3927 979 3833 621 3820 
C 602 3820 570 3820 563 3808 
C 557 3795 557 3782 557 3648 
C 755 3648 1088 3686 1344 3839 
L 1344 467 
C 1344 243 1331 166 781 166 
L 589 166 
L 589 0 
C 896 6 1216 12 1523 12 
C 1830 12 2150 6 2458 0 
L 2458 166 
L 2266 166 
C 1715 166 1702 236 1702 467 
L 1702 4083 
z
" transform="scale(0.015625)"/>
        <path id="CMR17-35" d="M 730 3750 
C 794 3724 1056 3641 1325 3641 
C 1920 3641 2246 3961 2432 4140 
C 2432 4191 2432 4224 2394 4224 
C 2387 4224 2374 4224 2323 4198 
C 2099 4102 1837 4032 1517 4032 
C 1325 4032 1037 4055 723 4191 
C 653 4224 640 4224 634 4224 
C 602 4224 595 4217 595 4090 
L 595 2231 
C 595 2113 595 2080 659 2080 
C 691 2080 704 2093 736 2139 
C 941 2435 1222 2560 1542 2560 
C 1766 2560 2246 2415 2246 1293 
C 2246 1087 2246 716 2054 422 
C 1894 159 1645 25 1370 25 
C 947 25 518 319 403 812 
C 429 806 480 793 506 793 
C 589 793 749 838 749 1036 
C 749 1209 627 1280 506 1280 
C 358 1280 262 1190 262 1011 
C 262 454 704 -128 1382 -128 
C 2042 -128 2669 441 2669 1267 
C 2669 2054 2170 2662 1549 2662 
C 1222 2662 947 2540 730 2304 
L 730 3750 
z
" transform="scale(0.015625)"/>
        <path id="CMR17-30" d="M 2688 2038 
C 2688 2430 2682 3099 2413 3613 
C 2176 4063 1798 4224 1466 4224 
C 1158 4224 768 4082 525 3620 
C 269 3137 243 2539 243 2038 
C 243 1671 250 1112 448 623 
C 723 -39 1216 -128 1466 -128 
C 1760 -128 2208 -7 2470 604 
C 2662 1048 2688 1568 2688 2038 
z
M 1466 -26 
C 1056 -26 813 328 723 816 
C 653 1196 653 1749 653 2109 
C 653 2604 653 3015 736 3407 
C 858 3954 1216 4121 1466 4121 
C 1728 4121 2067 3947 2189 3420 
C 2272 3054 2278 2623 2278 2109 
C 2278 1691 2278 1176 2202 797 
C 2067 96 1690 -26 1466 -26 
z
" transform="scale(0.015625)"/>
       </defs>
       <use xlink:href="#CMSY10-0" transform="scale(0.996264)"/>
       <use xlink:href="#CMR17-31" transform="translate(77.487468 0) scale(0.996264)"/>
       <use xlink:href="#CMR17-35" transform="translate(123.177945 0) scale(0.996264)"/>
       <use xlink:href="#CMR17-30" transform="translate(168.868422 0) scale(0.996264)"/>
       <use xlink:href="#CMR17-30" transform="translate(214.558899 0) scale(0.996264)"/>
      </g>
     </g>
    </g>
    <g id="xtick_2">
     <g id="line2d_3">
      <path d="M 203.980277 367.518305 
L 203.980277 21.6 
" clip-path="url(#p444e73a337)" style="fill: none; stroke: #b0b0b0; stroke-opacity: 0.3; stroke-width: 0.8; stroke-linecap: square"/>
     </g>
     <g id="line2d_4">
      <g>
       <use xlink:href="#m1a915c6c7f" x="203.980277" y="367.518305" style="stroke: #000000; stroke-width: 0.8"/>
      </g>
     </g>
     <g id="text_2">
      <!-- $\mathdefault{−1000}$ -->
      <g transform="translate(182.173305 385.587893) scale(0.16 -0.16)">
       <use xlink:href="#CMSY10-0" transform="scale(0.996264)"/>
       <use xlink:href="#CMR17-31" transform="translate(77.487468 0) scale(0.996264)"/>
       <use xlink:href="#CMR17-30" transform="translate(123.177945 0) scale(0.996264)"/>
       <use xlink:href="#CMR17-30" transform="translate(168.868422 0) scale(0.996264)"/>
       <use xlink:href="#CMR17-30" transform="translate(214.558899 0) scale(0.996264)"/>
      </g>
     </g>
    </g>
    <g id="xtick_3">
     <g id="line2d_5">
      <path d="M 276.885438 367.518305 
L 276.885438 21.6 
" clip-path="url(#p444e73a337)" style="fill: none; stroke: #b0b0b0; stroke-opacity: 0.3; stroke-width: 0.8; stroke-linecap: square"/>
     </g>
     <g id="line2d_6">
      <g>
       <use xlink:href="#m1a915c6c7f" x="276.885438" y="367.518305" style="stroke: #000000; stroke-width: 0.8"/>
      </g>
     </g>
     <g id="text_3">
      <!-- $\mathdefault{−500}$ -->
      <g transform="translate(258.980459 385.587893) scale(0.16 -0.16)">
       <use xlink:href="#CMSY10-0" transform="scale(0.996264)"/>
       <use xlink:href="#CMR17-35" transform="translate(77.487468 0) scale(0.996264)"/>
       <use xlink:href="#CMR17-30" transform="translate(123.177945 0) scale(0.996264)"/>
       <use xlink:href="#CMR17-30" transform="translate(168.868422 0) scale(0.996264)"/>
      </g>
     </g>
    </g>
    <g id="xtick_4">
     <g id="line2d_7">
      <path d="M 349.790598 367.518305 
L 349.790598 21.6 
" clip-path="url(#p444e73a337)" style="fill: none; stroke: #b0b0b0; stroke-opacity: 0.3; stroke-width: 0.8; stroke-linecap: square"/>
     </g>
     <g id="line2d_8">
      <g>
       <use xlink:href="#m1a915c6c7f" x="349.790598" y="367.518305" style="stroke: #000000; stroke-width: 0.8"/>
      </g>
     </g>
     <g id="text_4">
      <!-- $\mathdefault{0}$ -->
      <g transform="translate(345.888605 385.587893) scale(0.16 -0.16)">
       <use xlink:href="#CMR17-30" transform="scale(0.996264)"/>
      </g>
     </g>
    </g>
    <g id="text_5">
     <!-- Return -->
     <g transform="translate(217.901404 406.524366) scale(0.2 -0.2)">
      <defs>
       <path id="CMR17-52" d="M 2509 2156 
C 3117 2278 3629 2689 3629 3203 
C 3629 3806 2950 4352 2054 4352 
L 333 4352 
L 333 4185 
C 774 4185 845 4185 845 3896 
L 845 428 
C 845 140 774 140 333 140 
L 333 -26 
C 518 -13 851 -13 1050 -13 
C 1248 -13 1581 -13 1766 -26 
L 1766 140 
C 1325 140 1254 140 1254 428 
L 1254 2112 
L 2003 2112 
C 2368 2112 2573 1964 2662 1881 
C 2918 1632 2918 1459 2918 1024 
C 2918 595 2918 377 3110 160 
C 3354 -103 3680 -128 3821 -128 
C 4294 -128 4365 403 4365 512 
C 4365 550 4365 595 4307 595 
C 4256 595 4250 556 4250 531 
C 4218 115 4032 -26 3834 -26 
C 3482 -26 3443 377 3405 768 
C 3386 902 3373 998 3360 1139 
C 3322 1459 3270 1926 2509 2156 
z
M 1984 2214 
L 1254 2214 
L 1254 3935 
C 1254 4153 1267 4185 1523 4185 
L 1990 4185 
C 2522 4185 3142 3999 3142 3203 
C 3142 2374 2464 2214 1984 2214 
z
" transform="scale(0.015625)"/>
       <path id="CMR17-65" d="M 2438 1503 
C 2464 1529 2464 1542 2464 1606 
C 2464 2251 2118 2816 1389 2816 
C 710 2816 173 2175 173 1394 
C 173 554 781 -64 1459 -64 
C 2176 -64 2458 619 2458 755 
C 2458 800 2419 800 2406 800 
C 2362 800 2355 787 2330 709 
C 2189 270 1837 51 1504 51 
C 1229 51 954 206 781 490 
C 582 819 582 1200 582 1503 
L 2438 1503 
z
M 589 1600 
C 634 2511 1126 2713 1382 2713 
C 1818 2713 2112 2308 2118 1600 
L 589 1600 
z
" transform="scale(0.015625)"/>
       <path id="CMR17-74" d="M 966 2585 
L 1862 2585 
L 1862 2752 
L 966 2752 
L 966 3968 
L 851 3968 
C 838 3292 614 2700 70 2687 
L 70 2585 
L 627 2585 
L 627 778 
C 627 655 627 -64 1370 -64 
C 1747 -64 1965 308 1965 784 
L 1965 1151 
L 1850 1151 
L 1850 790 
C 1850 347 1677 51 1408 51 
C 1222 51 966 179 966 765 
L 966 2585 
z
" transform="scale(0.015625)"/>
       <path id="CMR17-75" d="M 1882 2745 
L 1882 2579 
C 2259 2579 2317 2540 2317 2229 
L 2317 1053 
C 2317 510 2029 38 1555 38 
C 1030 38 986 355 986 691 
L 986 2816 
L 211 2745 
L 211 2579 
C 467 2579 640 2579 646 2320 
L 646 1079 
C 646 646 646 368 813 187 
C 896 103 1056 -64 1517 -64 
C 2061 -64 2272 400 2323 536 
L 2330 536 
L 2330 -64 
L 3091 -13 
L 3091 154 
C 2714 154 2656 193 2656 503 
L 2656 2816 
L 1882 2745 
z
" transform="scale(0.015625)"/>
       <path id="CMR17-72" d="M 960 1517 
C 960 2134 1222 2713 1702 2713 
C 1747 2713 1792 2707 1837 2687 
C 1837 2687 1696 2642 1696 2475 
C 1696 2321 1818 2257 1914 2257 
C 1990 2257 2131 2302 2131 2482 
C 2131 2687 1926 2816 1709 2816 
C 1222 2816 1011 2340 947 2115 
L 941 2115 
L 941 2816 
L 198 2745 
L 198 2578 
C 576 2578 634 2540 634 2231 
L 634 443 
C 634 198 608 166 198 166 
L 198 0 
C 352 12 646 12 813 12 
C 998 12 1325 12 1498 0 
L 1498 166 
C 1037 166 960 166 960 455 
L 960 1517 
z
" transform="scale(0.015625)"/>
       <path id="CMR17-6e" d="M 2656 1954 
C 2656 2282 2592 2816 1837 2816 
C 1331 2816 1069 2424 973 2166 
L 966 2166 
L 966 2816 
L 211 2745 
L 211 2578 
C 589 2578 646 2540 646 2231 
L 646 443 
C 646 198 621 166 211 166 
L 211 0 
C 365 12 646 12 813 12 
C 979 12 1267 12 1421 0 
L 1421 166 
C 1011 166 986 192 986 443 
L 986 1678 
C 986 2269 1344 2713 1792 2713 
C 2266 2713 2317 2289 2317 1980 
L 2317 443 
C 2317 198 2291 166 1882 166 
L 1882 0 
C 2035 12 2317 12 2483 12 
C 2650 12 2938 12 3091 0 
L 3091 166 
C 2682 166 2656 192 2656 443 
L 2656 1954 
z
" transform="scale(0.015625)"/>
      </defs>
      <use xlink:href="#CMR17-52" transform="scale(0.996264)"/>
      <use xlink:href="#CMR17-65" transform="translate(67.791102 0) scale(0.996264)"/>
      <use xlink:href="#CMR17-74" transform="translate(108.276762 0) scale(0.996264)"/>
      <use xlink:href="#CMR17-75" transform="translate(143.55753 0) scale(0.996264)"/>
      <use xlink:href="#CMR17-72" transform="translate(194.4529 0) scale(0.996264)"/>
      <use xlink:href="#CMR17-6e" transform="translate(229.733668 0) scale(0.996264)"/>
     </g>
    </g>
   </g>
   <g id="matplotlib.axis_2">
    <g id="ytick_1">
     <g id="line2d_9">
      <path d="M 81.528578 367.518305 
L 410.4 367.518305 
" clip-path="url(#p444e73a337)" style="fill: none; stroke: #b0b0b0; stroke-opacity: 0.3; stroke-width: 0.8; stroke-linecap: square"/>
     </g>
     <g id="line2d_10">
      <defs>
       <path id="mbe90e8d76a" d="M 0 0 
L -3.5 0 
" style="stroke: #000000; stroke-width: 0.8"/>
      </defs>
      <g>
       <use xlink:href="#mbe90e8d76a" x="81.528578" y="367.518305" style="stroke: #000000; stroke-width: 0.8"/>
      </g>
     </g>
     <g id="text_6">
      <!-- $\mathdefault{0}$ -->
      <g transform="translate(66.724591 373.053099) scale(0.16 -0.16)">
       <use xlink:href="#CMR17-30" transform="scale(0.996264)"/>
      </g>
     </g>
    </g>
    <g id="ytick_2">
     <g id="line2d_11">
      <path d="M 81.528578 325.539966 
L 410.4 325.539966 
" clip-path="url(#p444e73a337)" style="fill: none; stroke: #b0b0b0; stroke-opacity: 0.3; stroke-width: 0.8; stroke-linecap: square"/>
     </g>
     <g id="line2d_12">
      <g>
       <use xlink:href="#mbe90e8d76a" x="81.528578" y="325.539966" style="stroke: #000000; stroke-width: 0.8"/>
      </g>
     </g>
     <g id="text_7">
      <!-- $\mathdefault{250}$ -->
      <g transform="translate(51.116617 331.07476) scale(0.16 -0.16)">
       <defs>
        <path id="CMR17-32" d="M 2669 990 
L 2554 990 
C 2490 537 2438 460 2413 422 
C 2381 371 1920 371 1830 371 
L 602 371 
C 832 620 1280 1073 1824 1596 
C 2214 1966 2669 2400 2669 3033 
C 2669 3788 2067 4224 1395 4224 
C 691 4224 262 3603 262 3027 
C 262 2777 448 2745 525 2745 
C 589 2745 781 2783 781 3007 
C 781 3206 614 3264 525 3264 
C 486 3264 448 3257 422 3244 
C 544 3788 915 4057 1306 4057 
C 1862 4057 2227 3616 2227 3033 
C 2227 2477 1901 1998 1536 1583 
L 262 147 
L 262 0 
L 2515 0 
L 2669 990 
z
" transform="scale(0.015625)"/>
       </defs>
       <use xlink:href="#CMR17-32" transform="scale(0.996264)"/>
       <use xlink:href="#CMR17-35" transform="translate(45.690477 0) scale(0.996264)"/>
       <use xlink:href="#CMR17-30" transform="translate(91.380954 0) scale(0.996264)"/>
      </g>
     </g>
    </g>
    <g id="ytick_3">
     <g id="line2d_13">
      <path d="M 81.528578 283.561627 
L 410.4 283.561627 
" clip-path="url(#p444e73a337)" style="fill: none; stroke: #b0b0b0; stroke-opacity: 0.3; stroke-width: 0.8; stroke-linecap: square"/>
     </g>
     <g id="line2d_14">
      <g>
       <use xlink:href="#mbe90e8d76a" x="81.528578" y="283.561627" style="stroke: #000000; stroke-width: 0.8"/>
      </g>
     </g>
     <g id="text_8">
      <!-- $\mathdefault{500}$ -->
      <g transform="translate(51.116617 289.096421) scale(0.16 -0.16)">
       <use xlink:href="#CMR17-35" transform="scale(0.996264)"/>
       <use xlink:href="#CMR17-30" transform="translate(45.690477 0) scale(0.996264)"/>
       <use xlink:href="#CMR17-30" transform="translate(91.380954 0) scale(0.996264)"/>
      </g>
     </g>
    </g>
    <g id="ytick_4">
     <g id="line2d_15">
      <path d="M 81.528578 241.583288 
L 410.4 241.583288 
" clip-path="url(#p444e73a337)" style="fill: none; stroke: #b0b0b0; stroke-opacity: 0.3; stroke-width: 0.8; stroke-linecap: square"/>
     </g>
     <g id="line2d_16">
      <g>
       <use xlink:href="#mbe90e8d76a" x="81.528578" y="241.583288" style="stroke: #000000; stroke-width: 0.8"/>
      </g>
     </g>
     <g id="text_9">
      <!-- $\mathdefault{750}$ -->
      <g transform="translate(51.116617 247.118082) scale(0.16 -0.16)">
       <defs>
        <path id="CMR17-37" d="M 2886 3955 
L 2886 4096 
L 1382 4096 
C 634 4096 621 4166 595 4288 
L 480 4288 
L 294 3104 
L 410 3104 
C 429 3226 474 3552 550 3673 
C 589 3724 1062 3724 1171 3724 
L 2579 3724 
L 1869 2670 
C 1395 1961 1069 1003 1069 166 
C 1069 89 1069 -128 1299 -128 
C 1530 -128 1530 89 1530 172 
L 1530 466 
C 1530 1514 1709 2204 2003 2644 
L 2886 3955 
z
" transform="scale(0.015625)"/>
       </defs>
       <use xlink:href="#CMR17-37" transform="scale(0.996264)"/>
       <use xlink:href="#CMR17-35" transform="translate(45.690477 0) scale(0.996264)"/>
       <use xlink:href="#CMR17-30" transform="translate(91.380954 0) scale(0.996264)"/>
      </g>
     </g>
    </g>
    <g id="ytick_5">
     <g id="line2d_17">
      <path d="M 81.528578 199.604949 
L 410.4 199.604949 
" clip-path="url(#p444e73a337)" style="fill: none; stroke: #b0b0b0; stroke-opacity: 0.3; stroke-width: 0.8; stroke-linecap: square"/>
     </g>
     <g id="line2d_18">
      <g>
       <use xlink:href="#mbe90e8d76a" x="81.528578" y="199.604949" style="stroke: #000000; stroke-width: 0.8"/>
      </g>
     </g>
     <g id="text_10">
      <!-- $\mathdefault{1000}$ -->
      <g transform="translate(43.31263 205.139743) scale(0.16 -0.16)">
       <use xlink:href="#CMR17-31" transform="scale(0.996264)"/>
       <use xlink:href="#CMR17-30" transform="translate(45.690477 0) scale(0.996264)"/>
       <use xlink:href="#CMR17-30" transform="translate(91.380954 0) scale(0.996264)"/>
       <use xlink:href="#CMR17-30" transform="translate(137.071431 0) scale(0.996264)"/>
      </g>
     </g>
    </g>
    <g id="ytick_6">
     <g id="line2d_19">
      <path d="M 81.528578 157.62661 
L 410.4 157.62661 
" clip-path="url(#p444e73a337)" style="fill: none; stroke: #b0b0b0; stroke-opacity: 0.3; stroke-width: 0.8; stroke-linecap: square"/>
     </g>
     <g id="line2d_20">
      <g>
       <use xlink:href="#mbe90e8d76a" x="81.528578" y="157.62661" style="stroke: #000000; stroke-width: 0.8"/>
      </g>
     </g>
     <g id="text_11">
      <!-- $\mathdefault{1250}$ -->
      <g transform="translate(43.31263 163.161404) scale(0.16 -0.16)">
       <use xlink:href="#CMR17-31" transform="scale(0.996264)"/>
       <use xlink:href="#CMR17-32" transform="translate(45.690477 0) scale(0.996264)"/>
       <use xlink:href="#CMR17-35" transform="translate(91.380954 0) scale(0.996264)"/>
       <use xlink:href="#CMR17-30" transform="translate(137.071431 0) scale(0.996264)"/>
      </g>
     </g>
    </g>
    <g id="ytick_7">
     <g id="line2d_21">
      <path d="M 81.528578 115.648271 
L 410.4 115.648271 
" clip-path="url(#p444e73a337)" style="fill: none; stroke: #b0b0b0; stroke-opacity: 0.3; stroke-width: 0.8; stroke-linecap: square"/>
     </g>
     <g id="line2d_22">
      <g>
       <use xlink:href="#mbe90e8d76a" x="81.528578" y="115.648271" style="stroke: #000000; stroke-width: 0.8"/>
      </g>
     </g>
     <g id="text_12">
      <!-- $\mathdefault{1500}$ -->
      <g transform="translate(43.31263 121.183065) scale(0.16 -0.16)">
       <use xlink:href="#CMR17-31" transform="scale(0.996264)"/>
       <use xlink:href="#CMR17-35" transform="translate(45.690477 0) scale(0.996264)"/>
       <use xlink:href="#CMR17-30" transform="translate(91.380954 0) scale(0.996264)"/>
       <use xlink:href="#CMR17-30" transform="translate(137.071431 0) scale(0.996264)"/>
      </g>
     </g>
    </g>
    <g id="ytick_8">
     <g id="line2d_23">
      <path d="M 81.528578 73.669932 
L 410.4 73.669932 
" clip-path="url(#p444e73a337)" style="fill: none; stroke: #b0b0b0; stroke-opacity: 0.3; stroke-width: 0.8; stroke-linecap: square"/>
     </g>
     <g id="line2d_24">
      <g>
       <use xlink:href="#mbe90e8d76a" x="81.528578" y="73.669932" style="stroke: #000000; stroke-width: 0.8"/>
      </g>
     </g>
     <g id="text_13">
      <!-- $\mathdefault{1750}$ -->
      <g transform="translate(43.31263 79.204726) scale(0.16 -0.16)">
       <use xlink:href="#CMR17-31" transform="scale(0.996264)"/>
       <use xlink:href="#CMR17-37" transform="translate(45.690477 0) scale(0.996264)"/>
       <use xlink:href="#CMR17-35" transform="translate(91.380954 0) scale(0.996264)"/>
       <use xlink:href="#CMR17-30" transform="translate(137.071431 0) scale(0.996264)"/>
      </g>
     </g>
    </g>
    <g id="ytick_9">
     <g id="line2d_25">
      <path d="M 81.528578 31.691593 
L 410.4 31.691593 
" clip-path="url(#p444e73a337)" style="fill: none; stroke: #b0b0b0; stroke-opacity: 0.3; stroke-width: 0.8; stroke-linecap: square"/>
     </g>
     <g id="line2d_26">
      <g>
       <use xlink:href="#mbe90e8d76a" x="81.528578" y="31.691593" style="stroke: #000000; stroke-width: 0.8"/>
      </g>
     </g>
     <g id="text_14">
      <!-- $\mathdefault{2000}$ -->
      <g transform="translate(43.31263 37.226387) scale(0.16 -0.16)">
       <use xlink:href="#CMR17-32" transform="scale(0.996264)"/>
       <use xlink:href="#CMR17-30" transform="translate(45.690477 0) scale(0.996264)"/>
       <use xlink:href="#CMR17-30" transform="translate(91.380954 0) scale(0.996264)"/>
       <use xlink:href="#CMR17-30" transform="translate(137.071431 0) scale(0.996264)"/>
      </g>
     </g>
    </g>
    <g id="text_15">
     <!-- Frequency -->
     <g transform="translate(35.436997 235.288209) rotate(-90) scale(0.2 -0.2)">
      <defs>
       <path id="CMR17-46" d="M 3482 4339 
L 326 4339 
L 326 4172 
C 768 4172 838 4172 838 3883 
L 838 450 
C 838 166 768 166 326 166 
L 326 0 
C 512 12 870 12 1069 12 
C 1331 12 1638 12 1901 0 
L 1901 166 
L 1760 166 
C 1274 166 1261 229 1261 456 
L 1261 2073 
L 1837 2073 
C 2432 2073 2490 1865 2490 1334 
L 2605 1334 
L 2605 2991 
L 2490 2991 
C 2490 2451 2432 2240 1837 2240 
L 1261 2240 
L 1261 3922 
C 1261 4140 1274 4172 1530 4172 
L 2355 4172 
C 3322 4172 3430 3774 3520 2920 
L 3635 2920 
L 3482 4339 
z
" transform="scale(0.015625)"/>
       <path id="CMR17-71" d="M 2630 2816 
L 2528 2816 
L 2336 2177 
C 2189 2519 1920 2816 1491 2816 
C 838 2816 211 2228 211 1376 
C 211 529 800 -64 1440 -64 
C 1933 -64 2208 316 2291 458 
L 2291 -834 
C 2291 -1081 2266 -1114 1856 -1114 
L 1856 -1280 
C 2010 -1268 2291 -1268 2458 -1268 
C 2624 -1268 2912 -1268 3066 -1280 
L 3066 -1114 
C 2656 -1114 2630 -1088 2630 -834 
L 2630 2816 
z
M 2304 871 
C 2304 594 2074 335 2054 316 
C 1856 90 1626 38 1472 38 
C 992 38 621 652 621 1369 
C 621 2125 1043 2700 1536 2700 
C 2048 2700 2304 2112 2304 1776 
L 2304 871 
z
" transform="scale(0.015625)"/>
       <path id="CMR17-63" d="M 2234 2240 
C 2112 2240 1933 2240 1933 2015 
C 1933 1836 2080 1785 2163 1785 
C 2208 1785 2394 1804 2394 2028 
C 2394 2476 1958 2816 1466 2816 
C 787 2816 211 2201 211 1379 
C 211 521 813 -64 1466 -64 
C 2259 -64 2458 676 2458 747 
C 2458 773 2451 792 2406 792 
C 2362 792 2355 786 2330 702 
C 2163 180 1798 51 1523 51 
C 1114 51 621 431 621 1385 
C 621 2358 1094 2700 1472 2700 
C 1722 2700 2093 2582 2234 2240 
z
" transform="scale(0.015625)"/>
       <path id="CMR17-79" d="M 2496 2183 
C 2656 2579 2944 2585 3034 2585 
L 3034 2752 
C 2912 2745 2752 2739 2630 2739 
C 2496 2739 2285 2739 2157 2752 
L 2157 2585 
C 2400 2566 2406 2384 2406 2332 
C 2406 2268 2394 2235 2362 2158 
L 1664 409 
L 902 2300 
C 870 2378 870 2423 870 2430 
C 870 2572 1018 2585 1171 2585 
L 1171 2752 
C 1018 2739 742 2739 582 2739 
C 410 2739 205 2739 64 2752 
L 64 2585 
C 410 2585 448 2553 531 2345 
L 1485 -31 
C 1197 -795 1030 -1242 627 -1242 
C 557 -1242 397 -1223 282 -1106 
C 429 -1093 493 -1002 493 -892 
C 493 -782 416 -685 288 -685 
C 147 -685 77 -782 77 -899 
C 77 -1158 339 -1344 627 -1344 
C 998 -1344 1229 -983 1357 -659 
L 2496 2183 
z
" transform="scale(0.015625)"/>
      </defs>
      <use xlink:href="#CMR17-46" transform="scale(0.996264)"/>
      <use xlink:href="#CMR17-72" transform="translate(52.176591 0) scale(0.996264)"/>
      <use xlink:href="#CMR17-65" transform="translate(87.457359 0) scale(0.996264)"/>
      <use xlink:href="#CMR17-71" transform="translate(127.943019 0) scale(0.996264)"/>
      <use xlink:href="#CMR17-75" transform="translate(176.235935 0) scale(0.996264)"/>
      <use xlink:href="#CMR17-65" transform="translate(227.131305 0) scale(0.996264)"/>
      <use xlink:href="#CMR17-6e" transform="translate(267.616966 0) scale(0.996264)"/>
      <use xlink:href="#CMR17-63" transform="translate(318.512335 0) scale(0.996264)"/>
      <use xlink:href="#CMR17-79" transform="translate(358.997996 0) scale(0.996264)"/>
     </g>
    </g>
   </g>
   <g id="patch_63">
    <path d="M 81.528578 367.518305 
L 81.528578 21.6 
" style="fill: none; stroke: #000000; stroke-width: 0.8; stroke-linejoin: miter; stroke-linecap: square"/>
   </g>
   <g id="patch_64">
    <path d="M 410.4 367.518305 
L 410.4 21.6 
" style="fill: none; stroke: #000000; stroke-width: 0.8; stroke-linejoin: miter; stroke-linecap: square"/>
   </g>
   <g id="patch_65">
    <path d="M 81.528578 367.518305 
L 410.4 367.518305 
" style="fill: none; stroke: #000000; stroke-width: 0.8; stroke-linejoin: miter; stroke-linecap: square"/>
   </g>
   <g id="patch_66">
    <path d="M 81.528578 21.6 
L 410.4 21.6 
" style="fill: none; stroke: #000000; stroke-width: 0.8; stroke-linejoin: miter; stroke-linecap: square"/>
   </g>
   <g id="legend_1">
    <g id="patch_67">
     <path d="M 92.728578 123.597905 
L 198.545466 123.597905 
Q 201.745466 123.597905 201.745466 120.397905 
L 201.745466 32.8 
Q 201.745466 29.6 198.545466 29.6 
L 92.728578 29.6 
Q 89.528578 29.6 89.528578 32.8 
L 89.528578 120.397905 
Q 89.528578 123.597905 92.728578 123.597905 
z
" style="fill: #ffffff; opacity: 0.8; stroke: #cccccc; stroke-linejoin: miter"/>
    </g>
    <g id="patch_68">
     <path d="M 95.928578 47.2 
L 127.928578 47.2 
L 127.928578 36 
L 95.928578 36 
z
" style="fill: #5591e1; opacity: 0.7"/>
    </g>
    <g id="text_16">
     <!-- AFU -->
     <g transform="translate(140.728578 47.2) scale(0.16 -0.16)">
      <defs>
       <path id="CMR17-41" d="M 2323 4441 
C 2291 4524 2278 4544 2214 4544 
C 2150 4544 2138 4524 2106 4441 
L 749 580 
C 627 236 371 166 147 166 
L 147 0 
C 262 12 518 12 640 12 
C 800 12 1056 12 1210 0 
L 1210 166 
C 909 179 864 382 864 459 
C 864 516 877 548 890 586 
L 1229 1536 
L 2906 1536 
L 3290 453 
C 3322 376 3322 363 3322 338 
C 3322 166 3046 166 2925 166 
L 2925 0 
C 3110 12 3443 12 3642 12 
C 3808 12 4128 12 4282 0 
L 4282 166 
C 3942 166 3827 166 3744 402 
L 2323 4441 
z
M 2067 3924 
L 2848 1702 
L 1286 1702 
L 2067 3924 
z
" transform="scale(0.015625)"/>
       <path id="CMR17-55" d="M 3456 1442 
C 3456 583 2899 38 2291 38 
C 1965 38 1670 211 1491 480 
C 1286 788 1261 1185 1261 1410 
L 1261 3897 
C 1261 4185 1331 4185 1773 4185 
L 1773 4352 
C 1587 4339 1248 4339 1050 4339 
C 851 4339 512 4339 326 4352 
L 326 4185 
C 768 4185 838 4185 838 3897 
L 838 1442 
C 838 519 1536 -128 2278 -128 
C 3110 -128 3590 724 3590 1352 
L 3590 3788 
C 3590 4147 3917 4185 4102 4185 
L 4102 4352 
C 3955 4339 3686 4339 3526 4339 
C 3366 4339 3091 4339 2944 4352 
L 2944 4185 
C 3456 4185 3456 3884 3456 3724 
L 3456 1442 
z
" transform="scale(0.015625)"/>
      </defs>
      <use xlink:href="#CMR17-41" transform="scale(0.996264)"/>
      <use xlink:href="#CMR17-46" transform="translate(69.07243 0) scale(0.996264)"/>
      <use xlink:href="#CMR17-55" transform="translate(129.056276 0) scale(0.996264)"/>
     </g>
    </g>
    <g id="patch_69">
     <path d="M 95.928578 69.499476 
L 127.928578 69.499476 
L 127.928578 58.299476 
L 95.928578 58.299476 
z
" style="fill: #d66b6a; opacity: 0.7"/>
    </g>
    <g id="text_17">
     <!-- SAC -->
     <g transform="translate(140.728578 69.499476) scale(0.16 -0.16)">
      <defs>
       <path id="CMR17-53" d="M 2803 4351 
C 2803 4467 2797 4473 2758 4473 
C 2720 4473 2707 4447 2682 4390 
L 2490 3965 
C 2246 4320 1875 4480 1472 4480 
C 819 4480 294 3958 294 3301 
C 294 3101 339 2817 557 2546 
C 794 2250 1018 2198 1530 2063 
C 1722 2011 2042 1927 2106 1901 
C 2470 1747 2662 1360 2662 999 
C 2662 534 2336 38 1779 38 
C 1094 38 454 425 410 1328 
C 403 1431 397 1437 352 1437 
C 301 1437 294 1431 294 1302 
L 294 0 
C 294 -116 301 -122 339 -122 
C 384 -122 397 -90 486 109 
C 493 128 493 141 614 386 
C 934 -39 1472 -128 1779 -128 
C 2477 -128 2970 457 2970 1141 
C 2970 1476 2848 1734 2778 1850 
C 2509 2263 2221 2340 1914 2417 
C 1869 2437 1856 2437 1498 2527 
C 1152 2617 1005 2662 845 2836 
C 666 3036 602 3243 602 3449 
C 602 3868 934 4326 1478 4326 
C 2157 4326 2579 3842 2675 3036 
C 2694 2920 2701 2914 2746 2914 
C 2803 2914 2803 2933 2803 3043 
L 2803 4351 
z
" transform="scale(0.015625)"/>
       <path id="CMR17-43" d="M 3974 4351 
C 3974 4467 3968 4473 3930 4473 
C 3904 4473 3898 4467 3853 4390 
L 3571 3849 
C 3258 4249 2874 4480 2381 4480 
C 1286 4480 294 3507 294 2179 
C 294 837 1286 -128 2387 -128 
C 3366 -128 3974 741 3974 1482 
C 3974 1547 3974 1573 3917 1573 
C 3866 1573 3866 1553 3859 1495 
C 3808 592 3168 38 2477 38 
C 1824 38 781 502 781 2179 
C 781 3862 1843 4313 2464 4313 
C 3187 4313 3712 3681 3834 2785 
C 3846 2707 3846 2695 3904 2695 
C 3974 2695 3974 2707 3974 2824 
L 3974 4351 
z
" transform="scale(0.015625)"/>
      </defs>
      <use xlink:href="#CMR17-53" transform="scale(0.996264)"/>
      <use xlink:href="#CMR17-41" transform="translate(50.89537 0) scale(0.996264)"/>
      <use xlink:href="#CMR17-43" transform="translate(117.365346 0) scale(0.996264)"/>
     </g>
    </g>
    <g id="patch_70">
     <path d="M 95.928578 91.798952 
L 127.928578 91.798952 
L 127.928578 80.598952 
L 95.928578 80.598952 
z
" style="fill: #39a985; opacity: 0.7"/>
    </g>
    <g id="text_18">
     <!-- IQL -->
     <g transform="translate(140.728578 91.798952) scale(0.16 -0.16)">
      <defs>
       <path id="CMR17-49" d="M 1261 3898 
C 1261 4185 1338 4185 1798 4185 
L 1798 4352 
C 1594 4339 1267 4339 1050 4339 
C 832 4339 506 4339 301 4352 
L 301 4185 
C 762 4185 838 4185 838 3898 
L 838 453 
C 838 166 762 166 301 166 
L 301 0 
C 506 12 832 12 1050 12 
C 1267 12 1594 12 1798 0 
L 1798 166 
C 1338 166 1261 166 1261 453 
L 1261 3898 
z
" transform="scale(0.015625)"/>
       <path id="CMR17-51" d="M 3027 31 
C 3789 355 4307 1187 4307 2157 
C 4307 3484 3366 4480 2304 4480 
C 1216 4480 294 3471 294 2157 
C 294 863 1216 -128 2304 -128 
C 2451 -128 2656 -109 2899 -26 
C 3008 -813 3078 -1280 3629 -1280 
C 4307 -1280 4339 -277 4339 -96 
C 4339 -32 4339 12 4294 12 
C 4262 12 4256 -32 4256 -45 
C 4211 -665 3866 -794 3661 -794 
C 3283 -794 3149 -452 3027 31 
z
M 1958 38 
C 1293 247 768 954 768 2157 
C 768 3698 1606 4364 2298 4364 
C 3014 4364 3834 3672 3834 2157 
C 3834 1064 3405 463 2976 190 
C 2880 514 2726 896 2310 896 
C 2003 896 1830 628 1830 387 
C 1830 241 1888 120 1958 38 
z
M 2874 133 
C 2618 -1 2413 -13 2304 -13 
C 2016 -13 1933 247 1933 387 
C 1933 584 2067 793 2310 793 
C 2720 793 2822 431 2874 133 
z
" transform="scale(0.015625)"/>
       <path id="CMR17-4c" d="M 3469 1612 
L 3354 1612 
C 3302 981 3219 166 2125 166 
L 1530 166 
C 1274 166 1261 198 1261 414 
L 1261 3892 
C 1261 4121 1274 4185 1760 4185 
L 1901 4185 
L 1901 4352 
C 1638 4339 1331 4339 1069 4339 
C 870 4339 512 4339 326 4352 
L 326 4185 
C 768 4185 838 4185 838 3898 
L 838 453 
C 838 166 768 166 326 166 
L 326 0 
L 3315 0 
L 3469 1612 
z
" transform="scale(0.015625)"/>
      </defs>
      <use xlink:href="#CMR17-49" transform="scale(0.996264)"/>
      <use xlink:href="#CMR17-51" transform="translate(32.638409 0) scale(0.996264)"/>
      <use xlink:href="#CMR17-4c" transform="translate(104.353198 0) scale(0.996264)"/>
     </g>
    </g>
    <g id="patch_71">
     <path d="M 95.928578 114.098429 
L 127.928578 114.098429 
L 127.928578 102.898429 
L 95.928578 102.898429 
z
" style="fill: #ad75ca; opacity: 0.7"/>
    </g>
    <g id="text_19">
     <!-- CALQL -->
     <g transform="translate(140.728578 114.098429) scale(0.16 -0.16)">
      <use xlink:href="#CMR17-43" transform="scale(0.996264)"/>
      <use xlink:href="#CMR17-41" transform="translate(66.509881 0) scale(0.996264)"/>
      <use xlink:href="#CMR17-4c" transform="translate(135.58231 0) scale(0.996264)"/>
      <use xlink:href="#CMR17-51" transform="translate(192.963718 0) scale(0.996264)"/>
      <use xlink:href="#CMR17-4c" transform="translate(264.678507 0) scale(0.996264)"/>
     </g>
    </g>
   </g>
  </g>
 </g>
 <defs>
  <clipPath id="p444e73a337">
   <rect x="81.528578" y="21.6" width="328.871422" height="345.918305"/>
  </clipPath>
 </defs>
</svg>
