<?xml version="1.0" encoding="utf-8" standalone="no"?>
<!DOCTYPE svg PUBLIC "-//W3C//DTD SVG 1.1//EN"
  "http://www.w3.org/Graphics/SVG/1.1/DTD/svg11.dtd">
<svg xmlns:xlink="http://www.w3.org/1999/xlink" width="425.60529pt" height="426.4pt" viewBox="0 0 425.60529 426.4" xmlns="http://www.w3.org/2000/svg" version="1.1">
 <metadata>
  <rdf:RDF xmlns:dc="http://purl.org/dc/elements/1.1/" xmlns:cc="http://creativecommons.org/ns#" xmlns:rdf="http://www.w3.org/1999/02/22-rdf-syntax-ns#">
   <cc:Work>
    <dc:type rdf:resource="http://purl.org/dc/dcmitype/StillImage"/>
    <dc:date>1980-01-01T00:00:00+00:00</dc:date>
    <dc:format>image/svg+xml</dc:format>
    <dc:creator>
     <cc:Agent>
      <dc:title>Matplotlib v3.8.0, https://matplotlib.org/</dc:title>
     </cc:Agent>
    </dc:creator>
   </cc:Work>
  </rdf:RDF>
 </metadata>
 <defs>
  <style type="text/css">*{stroke-linejoin: round; stroke-linecap: butt}</style>
 </defs>
 <g id="figure_1">
  <g id="patch_1">
   <path d="M 0 426.4 
L 425.60529 426.4 
L 425.60529 0 
L 0 0 
z
" style="fill: #ffffff"/>
  </g>
  <g id="axes_1">
   <g id="patch_2">
    <path d="M 63.9186 376.318305 
L 417.523879 376.318305 
L 417.523879 7.2 
L 63.9186 7.2 
z
" style="fill: #ffffff"/>
   </g>
   <g id="PolyCollection_1">
    <defs>
     <path id="m29ce1b734b" d="M 79.991568 -180.571637 
L 79.991568 -180.56351 
L 81.282569 -179.931547 
L 82.57357 -177.641039 
L 83.864572 -118.646692 
L 85.155573 -96.810857 
L 86.446575 -94.549592 
L 87.737576 -340.511893 
L 89.028577 -350.396093 
L 90.319579 -359.622446 
L 91.61058 -366.423358 
L 92.901581 -371.974634 
L 94.192583 -373.111695 
L 95.483584 -373.03636 
L 96.774586 -388.685353 
L 98.065587 -389.337719 
L 99.356588 -384.809618 
L 100.64759 -372.938172 
L 101.938591 -373.45751 
L 103.229593 -388.612691 
L 104.520594 -387.3291 
L 105.811595 -388.056586 
L 107.102597 -389.484067 
L 108.393598 -393.523554 
L 109.684599 -398.220974 
L 110.975601 -398.593676 
L 112.266602 -398.299613 
L 113.557604 -398.324225 
L 114.848605 -398.520982 
L 116.139606 -399.350328 
L 117.430608 -398.873439 
L 118.721609 -399.298042 
L 120.012611 -398.657677 
L 121.303612 -398.649315 
L 122.594613 -398.401028 
L 123.885615 -398.155858 
L 125.176616 -397.938928 
L 126.467617 -398.089728 
L 127.758619 -396.965624 
L 129.04962 -397.753667 
L 130.340622 -392.632881 
L 131.631623 -396.583495 
L 132.922624 -397.586566 
L 134.213626 -397.729354 
L 135.504627 -397.168066 
L 136.795629 -395.084564 
L 138.08663 -398.302164 
L 139.377631 -397.715294 
L 140.668633 -398.100717 
L 141.959634 -397.93002 
L 143.250635 -397.572962 
L 144.541637 -398.075439 
L 145.832638 -397.621821 
L 147.12364 -397.697943 
L 148.414641 -397.907327 
L 149.705642 -397.861218 
L 150.996644 -398.075783 
L 152.287645 -398.059902 
L 153.578647 -398.069733 
L 154.869648 -397.627991 
L 156.160649 -397.614262 
L 157.451651 -398.457768 
L 158.742652 -394.524135 
L 160.033653 -397.862916 
L 161.324655 -398.354051 
L 162.615656 -397.939399 
L 163.906658 -398.853658 
L 165.197659 -398.575073 
L 166.48866 -398.119603 
L 167.779662 -398.60695 
L 169.070663 -398.578747 
L 170.361665 -398.350903 
L 171.652666 -398.144782 
L 172.943667 -397.906145 
L 174.234669 -397.920982 
L 175.52567 -397.944427 
L 176.816671 -397.718069 
L 178.107673 -397.777993 
L 179.398674 -397.607363 
L 180.689676 -397.857042 
L 181.980677 -398.29838 
L 183.271678 -397.298192 
L 184.56268 -398.169831 
L 185.853681 -397.638897 
L 187.144683 -397.979188 
L 188.435684 -398.023594 
L 189.726685 -398.054476 
L 191.017687 -397.510423 
L 192.308688 -398.243103 
L 193.599689 -397.994791 
L 194.890691 -397.970283 
L 196.181692 -398.012167 
L 197.472694 -397.804002 
L 198.763695 -398.006044 
L 200.054696 -398.0782 
L 201.345698 -398.266328 
L 202.636699 -398.056129 
L 203.9277 -398.014814 
L 205.218702 -397.968827 
L 206.509703 -397.708596 
L 207.800705 -398.06673 
L 209.091706 -398.320227 
L 210.382707 -397.894363 
L 211.673709 -397.938001 
L 212.96471 -397.793362 
L 214.255712 -398.079757 
L 215.546713 -397.884404 
L 216.837714 -398.171892 
L 218.128716 -398.223564 
L 219.419717 -398.172422 
L 220.710718 -397.889647 
L 222.00172 -398.022953 
L 223.292721 -397.825223 
L 224.583723 -397.819244 
L 225.874724 -398.114153 
L 227.165725 -397.806035 
L 228.456727 -397.795944 
L 229.747728 -397.993785 
L 231.03873 -398.045696 
L 232.329731 -397.892124 
L 233.620732 -397.726943 
L 234.911734 -397.452682 
L 236.202735 -397.870479 
L 237.493736 -398.067673 
L 238.784738 -398.095128 
L 240.075739 -397.908944 
L 241.366741 -397.863563 
L 242.657742 -398.00869 
L 243.948743 -398.248873 
L 245.239745 -398.048289 
L 246.530746 -397.544407 
L 247.821748 -397.967356 
L 249.112749 -397.960319 
L 250.40375 -398.166596 
L 251.694752 -397.908642 
L 252.985753 -398.046709 
L 254.276754 -398.153183 
L 255.567756 -397.889579 
L 256.858757 -397.705372 
L 258.149759 -398.175115 
L 259.44076 -397.875285 
L 260.731761 -398.001377 
L 262.022763 -398.027723 
L 263.313764 -398.095799 
L 264.604766 -397.672061 
L 265.895767 -397.766829 
L 267.186768 -397.737277 
L 268.47777 -397.894521 
L 269.768771 -397.862158 
L 271.059772 -397.811834 
L 272.350774 -397.885702 
L 273.641775 -397.850158 
L 274.932777 -397.866726 
L 276.223778 -397.918485 
L 277.514779 -397.848309 
L 278.805781 -397.598785 
L 280.096782 -397.771373 
L 281.387784 -397.34911 
L 282.678785 -397.819207 
L 283.969786 -397.697059 
L 285.260788 -397.710738 
L 286.551789 -397.691796 
L 287.84279 -397.897743 
L 289.133792 -397.7102 
L 290.424793 -397.464671 
L 291.715795 -397.860773 
L 293.006796 -397.671752 
L 294.297797 -397.568253 
L 295.588799 -397.499387 
L 296.8798 -397.472484 
L 298.170802 -397.512463 
L 299.461803 -397.702292 
L 300.752804 -397.546684 
L 302.043806 -397.423458 
L 303.334807 -397.446893 
L 304.625808 -397.780233 
L 305.91681 -397.847135 
L 307.207811 -397.462436 
L 308.498813 -397.656328 
L 309.789814 -397.39677 
L 311.080815 -397.652642 
L 312.371817 -397.645428 
L 313.662818 -397.412793 
L 314.95382 -397.568003 
L 316.244821 -397.370272 
L 317.535822 -397.923322 
L 318.826824 -397.580339 
L 320.117825 -397.652064 
L 321.408826 -397.754371 
L 322.699828 -397.514979 
L 323.990829 -397.651619 
L 325.281831 -397.736351 
L 326.572832 -397.677748 
L 327.863833 -397.559771 
L 329.154835 -397.711475 
L 330.445836 -397.623632 
L 331.736838 -397.598366 
L 333.027839 -397.549277 
L 334.31884 -397.887698 
L 335.609842 -397.539213 
L 336.900843 -397.693908 
L 338.191844 -397.680522 
L 339.482846 -397.379244 
L 340.773847 -397.797181 
L 342.064849 -397.591344 
L 343.35585 -397.672531 
L 344.646851 -397.584053 
L 345.937853 -397.622225 
L 347.228854 -397.631944 
L 348.519855 -397.591645 
L 349.810857 -397.424723 
L 351.101858 -397.624478 
L 352.39286 -397.572174 
L 353.683861 -397.48538 
L 354.974862 -397.583642 
L 356.265864 -397.58296 
L 357.556865 -397.603185 
L 358.847867 -397.52716 
L 360.138868 -397.492053 
L 361.429869 -397.539733 
L 362.720871 -397.720967 
L 364.011872 -397.595109 
L 365.302873 -397.572789 
L 366.593875 -397.632674 
L 367.884876 -397.259162 
L 369.175878 -397.783432 
L 370.466879 -397.540164 
L 371.75788 -397.58008 
L 373.048882 -397.574093 
L 374.339883 -397.86523 
L 375.630885 -397.87171 
L 376.921886 -397.54957 
L 378.212887 -397.401601 
L 379.503889 -397.897693 
L 380.79489 -397.79778 
L 382.085891 -397.785409 
L 383.376893 -397.790744 
L 384.667894 -397.782562 
L 385.958896 -397.956559 
L 387.249897 -397.762061 
L 388.540898 -397.726944 
L 389.8319 -397.730646 
L 391.122901 -397.629568 
L 392.413903 -397.626447 
L 393.704904 -397.713461 
L 394.995905 -397.794094 
L 396.286907 -397.969934 
L 397.577908 -397.619904 
L 398.868909 -397.50482 
L 400.159911 -397.783296 
L 401.450912 -397.722182 
L 401.450912 -398.057327 
L 401.450912 -398.057327 
L 400.159911 -398.351152 
L 398.868909 -398.063205 
L 397.577908 -398.352203 
L 396.286907 -398.232804 
L 394.995905 -398.29626 
L 393.704904 -398.081337 
L 392.413903 -398.319236 
L 391.122901 -398.308482 
L 389.8319 -398.362589 
L 388.540898 -398.283134 
L 387.249897 -398.381794 
L 385.958896 -398.479771 
L 384.667894 -398.317855 
L 383.376893 -398.292376 
L 382.085891 -398.410708 
L 380.79489 -398.120249 
L 379.503889 -398.424061 
L 378.212887 -398.024088 
L 376.921886 -398.160963 
L 375.630885 -398.341075 
L 374.339883 -398.380668 
L 373.048882 -398.059679 
L 371.75788 -398.184728 
L 370.466879 -398.122446 
L 369.175878 -398.339868 
L 367.884876 -398.04612 
L 366.593875 -398.036007 
L 365.302873 -398.004842 
L 364.011872 -397.98692 
L 362.720871 -398.25196 
L 361.429869 -397.849882 
L 360.138868 -397.954529 
L 358.847867 -398.122178 
L 357.556865 -398.233315 
L 356.265864 -398.330963 
L 354.974862 -397.972786 
L 353.683861 -397.889435 
L 352.39286 -398.13492 
L 351.101858 -398.150181 
L 349.810857 -398.086198 
L 348.519855 -398.171651 
L 347.228854 -398.353558 
L 345.937853 -398.188022 
L 344.646851 -398.42379 
L 343.35585 -398.443771 
L 342.064849 -398.213302 
L 340.773847 -398.278639 
L 339.482846 -398.303908 
L 338.191844 -398.196093 
L 336.900843 -398.280143 
L 335.609842 -398.110388 
L 334.31884 -398.42123 
L 333.027839 -398.468851 
L 331.736838 -398.399288 
L 330.445836 -398.251262 
L 329.154835 -398.469994 
L 327.863833 -398.319442 
L 326.572832 -398.613071 
L 325.281831 -398.134221 
L 323.990829 -398.299553 
L 322.699828 -398.008806 
L 321.408826 -398.246314 
L 320.117825 -398.341723 
L 318.826824 -398.326377 
L 317.535822 -398.549112 
L 316.244821 -398.137254 
L 314.95382 -398.38044 
L 313.662818 -398.033472 
L 312.371817 -398.355947 
L 311.080815 -398.444165 
L 309.789814 -398.073994 
L 308.498813 -398.317362 
L 307.207811 -398.120702 
L 305.91681 -398.330838 
L 304.625808 -398.732147 
L 303.334807 -397.999503 
L 302.043806 -398.010202 
L 300.752804 -398.0647 
L 299.461803 -398.504729 
L 298.170802 -398.351 
L 296.8798 -398.152337 
L 295.588799 -397.977191 
L 294.297797 -398.133468 
L 293.006796 -398.30032 
L 291.715795 -398.373024 
L 290.424793 -398.536217 
L 289.133792 -398.207765 
L 287.84279 -398.529521 
L 286.551789 -398.239426 
L 285.260788 -398.137039 
L 283.969786 -398.151111 
L 282.678785 -398.338255 
L 281.387784 -398.011331 
L 280.096782 -398.341399 
L 278.805781 -398.063902 
L 277.514779 -398.514209 
L 276.223778 -398.52836 
L 274.932777 -398.45249 
L 273.641775 -398.47465 
L 272.350774 -398.48199 
L 271.059772 -398.36804 
L 269.768771 -398.406528 
L 268.47777 -398.291326 
L 267.186768 -398.423843 
L 265.895767 -398.306066 
L 264.604766 -398.173614 
L 263.313764 -398.508701 
L 262.022763 -398.701857 
L 260.731761 -398.610634 
L 259.44076 -398.459912 
L 258.149759 -398.634522 
L 256.858757 -398.19588 
L 255.567756 -398.29584 
L 254.276754 -398.545597 
L 252.985753 -398.67255 
L 251.694752 -398.592678 
L 250.40375 -398.551599 
L 249.112749 -398.672691 
L 247.821748 -398.409133 
L 246.530746 -398.530599 
L 245.239745 -398.564338 
L 243.948743 -398.605788 
L 242.657742 -398.851404 
L 241.366741 -398.591788 
L 240.075739 -398.651887 
L 238.784738 -398.352188 
L 237.493736 -398.58694 
L 236.202735 -398.84917 
L 234.911734 -398.532228 
L 233.620732 -398.823178 
L 232.329731 -398.522224 
L 231.03873 -398.546255 
L 229.747728 -398.498623 
L 228.456727 -398.561814 
L 227.165725 -398.546302 
L 225.874724 -398.61982 
L 224.583723 -398.638156 
L 223.292721 -398.113498 
L 222.00172 -398.432673 
L 220.710718 -398.541652 
L 219.419717 -399.168792 
L 218.128716 -398.560848 
L 216.837714 -398.619888 
L 215.546713 -398.635021 
L 214.255712 -398.608697 
L 212.96471 -398.632712 
L 211.673709 -398.44114 
L 210.382707 -398.421907 
L 209.091706 -398.943919 
L 207.800705 -398.71633 
L 206.509703 -398.008766 
L 205.218702 -398.4366 
L 203.9277 -398.390315 
L 202.636699 -398.400631 
L 201.345698 -398.725224 
L 200.054696 -398.980972 
L 198.763695 -398.322508 
L 197.472694 -398.464562 
L 196.181692 -398.50853 
L 194.890691 -398.542385 
L 193.599689 -398.667238 
L 192.308688 -398.707457 
L 191.017687 -398.279769 
L 189.726685 -398.574122 
L 188.435684 -398.924973 
L 187.144683 -398.359428 
L 185.853681 -398.720925 
L 184.56268 -398.701842 
L 183.271678 -398.383633 
L 181.980677 -398.791444 
L 180.689676 -398.846678 
L 179.398674 -398.822859 
L 178.107673 -398.536437 
L 176.816671 -398.602521 
L 175.52567 -398.407517 
L 174.234669 -398.72815 
L 172.943667 -399.008762 
L 171.652666 -398.825949 
L 170.361665 -398.811282 
L 169.070663 -399.271592 
L 167.779662 -399.315964 
L 166.48866 -399.358272 
L 165.197659 -399.078884 
L 163.906658 -399.554456 
L 162.615656 -399.55208 
L 161.324655 -399.368179 
L 160.033653 -399.335197 
L 158.742652 -399.215363 
L 157.451651 -399.252619 
L 156.160649 -398.715385 
L 154.869648 -399.345227 
L 153.578647 -399.196977 
L 152.287645 -398.830315 
L 150.996644 -398.442297 
L 149.705642 -398.76606 
L 148.414641 -399.250439 
L 147.12364 -399.19891 
L 145.832638 -399.046891 
L 144.541637 -398.883144 
L 143.250635 -398.785712 
L 141.959634 -398.640235 
L 140.668633 -398.638749 
L 139.377631 -398.216314 
L 138.08663 -399.031554 
L 136.795629 -398.518091 
L 135.504627 -398.679633 
L 134.213626 -398.685448 
L 132.922624 -398.825228 
L 131.631623 -398.639066 
L 130.340622 -398.421666 
L 129.04962 -398.565394 
L 127.758619 -398.450043 
L 126.467617 -398.997517 
L 125.176616 -399.391551 
L 123.885615 -399.470618 
L 122.594613 -399.791137 
L 121.303612 -399.73717 
L 120.012611 -399.341719 
L 118.721609 -399.563924 
L 117.430608 -399.318515 
L 116.139606 -399.89878 
L 114.848605 -399.197717 
L 113.557604 -399.361964 
L 112.266602 -399.469334 
L 110.975601 -400.07416 
L 109.684599 -399.101429 
L 108.393598 -400.032753 
L 107.102597 -400.50301 
L 105.811595 -398.243525 
L 104.520594 -390.739065 
L 103.229593 -391.359719 
L 101.938591 -389.31926 
L 100.64759 -390.620128 
L 99.356588 -391.474282 
L 98.065587 -392.937029 
L 96.774586 -392.369237 
L 95.483584 -388.13458 
L 94.192583 -392.1879 
L 92.901581 -388.470551 
L 91.61058 -386.84013 
L 90.319579 -382.46029 
L 89.028577 -378.518342 
L 87.737576 -362.714376 
L 86.446575 -345.117347 
L 85.155573 -107.051102 
L 83.864572 -139.021073 
L 82.57357 -180.880473 
L 81.282569 -180.520019 
L 79.991568 -180.571637 
z
" style="stroke: #d66b6a; stroke-opacity: 0.2"/>
    </defs>
    <g clip-path="url(#p46541e5671)">
     <use xlink:href="#m29ce1b734b" x="0" y="426.4" style="fill: #d66b6a; fill-opacity: 0.2; stroke: #d66b6a; stroke-opacity: 0.2"/>
    </g>
   </g>
   <g id="PolyCollection_2">
    <defs>
     <path id="m36336a7535" d="M 79.991568 -181.629428 
L 79.991568 -181.627762 
L 81.282569 -178.979473 
L 82.57357 -170.786892 
L 83.864572 -165.190934 
L 85.155573 -136.023118 
L 86.446575 -83.323741 
L 87.737576 -66.8598 
L 89.028577 -76.290364 
L 90.319579 -113.538843 
L 91.61058 -173.421092 
L 92.901581 -387.705019 
L 94.192583 -390.196044 
L 95.483584 -394.96509 
L 96.774586 -382.294412 
L 98.065587 -369.574555 
L 99.356588 -376.688668 
L 100.64759 -348.922101 
L 101.938591 -193.015823 
L 103.229593 -384.466602 
L 104.520594 -390.362694 
L 105.811595 -392.814404 
L 107.102597 -391.090134 
L 108.393598 -394.356466 
L 109.684599 -397.240547 
L 110.975601 -394.499292 
L 112.266602 -393.318288 
L 113.557604 -397.97853 
L 114.848605 -398.774144 
L 116.139606 -398.44819 
L 117.430608 -398.623209 
L 118.721609 -398.484518 
L 120.012611 -398.805234 
L 121.303612 -398.881007 
L 122.594613 -398.18217 
L 123.885615 -397.481162 
L 125.176616 -397.621454 
L 126.467617 -397.106546 
L 127.758619 -396.81594 
L 129.04962 -397.506403 
L 130.340622 -397.324794 
L 131.631623 -397.001477 
L 132.922624 -397.558659 
L 134.213626 -397.354995 
L 135.504627 -397.023496 
L 136.795629 -396.978285 
L 138.08663 -397.188504 
L 139.377631 -396.744478 
L 140.668633 -397.275964 
L 141.959634 -397.024079 
L 143.250635 -396.790145 
L 144.541637 -396.984263 
L 145.832638 -396.954709 
L 147.12364 -396.82605 
L 148.414641 -396.525385 
L 149.705642 -396.375916 
L 150.996644 -396.888651 
L 152.287645 -397.151876 
L 153.578647 -396.724471 
L 154.869648 -397.250394 
L 156.160649 -396.537735 
L 157.451651 -396.223336 
L 158.742652 -396.552232 
L 160.033653 -396.973919 
L 161.324655 -396.839774 
L 162.615656 -396.669895 
L 163.906658 -396.991806 
L 165.197659 -396.798772 
L 166.48866 -396.284582 
L 167.779662 -396.834956 
L 169.070663 -396.712641 
L 170.361665 -396.571632 
L 171.652666 -396.794637 
L 172.943667 -396.682314 
L 174.234669 -396.785433 
L 175.52567 -396.562841 
L 176.816671 -396.142579 
L 178.107673 -396.594535 
L 179.398674 -396.871156 
L 180.689676 -396.769907 
L 181.980677 -397.12848 
L 183.271678 -396.717832 
L 184.56268 -396.507657 
L 185.853681 -396.423226 
L 187.144683 -396.374235 
L 188.435684 -396.754122 
L 189.726685 -394.299184 
L 191.017687 -396.614916 
L 192.308688 -395.778044 
L 193.599689 -394.045723 
L 194.890691 -396.041667 
L 196.181692 -396.583151 
L 197.472694 -396.572721 
L 198.763695 -397.042401 
L 200.054696 -396.763676 
L 201.345698 -396.536379 
L 202.636699 -396.853462 
L 203.9277 -395.335799 
L 205.218702 -395.772737 
L 206.509703 -395.642074 
L 207.800705 -397.013436 
L 209.091706 -396.598737 
L 210.382707 -396.054708 
L 211.673709 -394.600888 
L 212.96471 -394.786566 
L 214.255712 -394.025874 
L 215.546713 -395.052964 
L 216.837714 -393.628507 
L 218.128716 -395.536716 
L 219.419717 -395.227619 
L 220.710718 -396.734473 
L 222.00172 -396.606064 
L 223.292721 -395.081487 
L 224.583723 -396.23711 
L 225.874724 -395.864257 
L 227.165725 -393.93013 
L 228.456727 -395.388501 
L 229.747728 -394.932952 
L 231.03873 -394.459416 
L 232.329731 -394.329937 
L 233.620732 -394.609761 
L 234.911734 -393.823809 
L 236.202735 -394.330227 
L 237.493736 -394.18726 
L 238.784738 -393.723624 
L 240.075739 -394.161197 
L 241.366741 -393.649104 
L 242.657742 -394.078763 
L 243.948743 -393.628534 
L 245.239745 -393.576423 
L 246.530746 -393.314774 
L 247.821748 -393.472335 
L 249.112749 -394.220793 
L 250.40375 -394.226143 
L 251.694752 -392.956583 
L 252.985753 -393.030328 
L 254.276754 -393.459172 
L 255.567756 -393.825436 
L 256.858757 -393.167001 
L 258.149759 -393.395217 
L 259.44076 -393.533809 
L 260.731761 -393.123386 
L 262.022763 -393.042585 
L 263.313764 -393.073012 
L 264.604766 -393.671188 
L 265.895767 -393.051021 
L 267.186768 -393.474319 
L 268.47777 -394.029429 
L 269.768771 -393.302426 
L 271.059772 -393.666384 
L 272.350774 -394.055174 
L 273.641775 -394.397799 
L 274.932777 -394.360775 
L 276.223778 -394.221947 
L 277.514779 -394.041993 
L 278.805781 -393.396441 
L 280.096782 -395.181966 
L 281.387784 -395.212511 
L 282.678785 -395.490852 
L 283.969786 -394.16463 
L 285.260788 -395.238511 
L 286.551789 -393.762055 
L 287.84279 -394.011529 
L 289.133792 -394.475444 
L 290.424793 -393.906115 
L 291.715795 -393.269307 
L 293.006796 -394.252836 
L 294.297797 -393.679787 
L 295.588799 -393.722163 
L 296.8798 -393.483119 
L 298.170802 -394.109361 
L 299.461803 -394.35983 
L 300.752804 -393.160019 
L 302.043806 -393.855403 
L 303.334807 -394.340033 
L 304.625808 -394.480103 
L 305.91681 -393.089056 
L 307.207811 -393.978578 
L 308.498813 -394.008196 
L 309.789814 -393.090656 
L 311.080815 -392.504239 
L 312.371817 -393.5653 
L 313.662818 -393.121802 
L 314.95382 -392.938677 
L 316.244821 -393.136133 
L 317.535822 -393.188255 
L 318.826824 -392.452259 
L 320.117825 -393.044312 
L 321.408826 -392.926762 
L 322.699828 -392.830391 
L 323.990829 -393.775942 
L 325.281831 -393.407242 
L 326.572832 -392.60992 
L 327.863833 -393.430682 
L 329.154835 -392.89006 
L 330.445836 -393.222084 
L 331.736838 -392.989342 
L 333.027839 -392.60827 
L 334.31884 -393.008275 
L 335.609842 -393.126036 
L 336.900843 -392.041785 
L 338.191844 -392.843521 
L 339.482846 -392.810043 
L 340.773847 -392.541194 
L 342.064849 -393.392126 
L 343.35585 -392.853725 
L 344.646851 -392.116922 
L 345.937853 -392.153629 
L 347.228854 -392.479658 
L 348.519855 -391.697164 
L 349.810857 -392.644085 
L 351.101858 -391.707518 
L 352.39286 -392.677157 
L 353.683861 -393.390945 
L 354.974862 -392.69899 
L 356.265864 -392.31284 
L 357.556865 -393.492564 
L 358.847867 -392.409705 
L 360.138868 -393.087581 
L 361.429869 -393.322549 
L 362.720871 -392.309977 
L 364.011872 -393.486742 
L 365.302873 -392.973687 
L 366.593875 -393.026707 
L 367.884876 -392.090413 
L 369.175878 -392.188655 
L 370.466879 -391.866315 
L 371.75788 -393.037376 
L 373.048882 -392.603034 
L 374.339883 -392.011858 
L 375.630885 -392.159426 
L 376.921886 -392.252818 
L 378.212887 -392.382467 
L 379.503889 -392.464 
L 380.79489 -392.050043 
L 382.085891 -392.814197 
L 383.376893 -392.919228 
L 384.667894 -392.13385 
L 385.958896 -392.932301 
L 387.249897 -392.276085 
L 388.540898 -392.367695 
L 389.8319 -392.456924 
L 391.122901 -392.357145 
L 392.413903 -392.613186 
L 393.704904 -392.306483 
L 394.995905 -393.082996 
L 396.286907 -392.641864 
L 397.577908 -392.907292 
L 398.868909 -393.035402 
L 400.159911 -392.847749 
L 401.450912 -393.678389 
L 401.450912 -396.500338 
L 401.450912 -396.500338 
L 400.159911 -397.110809 
L 398.868909 -396.710412 
L 397.577908 -396.779508 
L 396.286907 -396.804202 
L 394.995905 -396.92743 
L 393.704904 -395.93211 
L 392.413903 -397.220235 
L 391.122901 -396.278918 
L 389.8319 -395.716688 
L 388.540898 -396.267243 
L 387.249897 -395.615935 
L 385.958896 -397.510616 
L 384.667894 -396.655521 
L 383.376893 -396.646603 
L 382.085891 -397.092739 
L 380.79489 -396.983695 
L 379.503889 -397.060441 
L 378.212887 -397.104899 
L 376.921886 -396.609706 
L 375.630885 -397.193873 
L 374.339883 -397.299147 
L 373.048882 -397.120305 
L 371.75788 -396.856422 
L 370.466879 -396.948321 
L 369.175878 -396.612659 
L 367.884876 -397.240645 
L 366.593875 -397.023535 
L 365.302873 -397.000447 
L 364.011872 -396.616784 
L 362.720871 -397.087405 
L 361.429869 -396.565473 
L 360.138868 -396.881224 
L 358.847867 -396.935859 
L 357.556865 -396.681196 
L 356.265864 -396.824075 
L 354.974862 -397.306899 
L 353.683861 -397.520557 
L 352.39286 -396.778328 
L 351.101858 -396.773308 
L 349.810857 -397.212472 
L 348.519855 -396.527727 
L 347.228854 -396.609069 
L 345.937853 -396.734122 
L 344.646851 -396.94568 
L 343.35585 -396.672684 
L 342.064849 -396.507606 
L 340.773847 -396.100953 
L 339.482846 -396.372976 
L 338.191844 -396.265748 
L 336.900843 -396.557591 
L 335.609842 -396.442125 
L 334.31884 -396.642673 
L 333.027839 -396.901535 
L 331.736838 -396.807794 
L 330.445836 -396.681089 
L 329.154835 -396.272628 
L 327.863833 -396.838228 
L 326.572832 -396.726296 
L 325.281831 -396.777964 
L 323.990829 -397.234235 
L 322.699828 -396.777773 
L 321.408826 -396.351927 
L 320.117825 -396.40119 
L 318.826824 -396.39627 
L 317.535822 -396.069593 
L 316.244821 -395.762316 
L 314.95382 -396.211064 
L 313.662818 -396.656124 
L 312.371817 -396.916118 
L 311.080815 -396.097775 
L 309.789814 -395.146213 
L 308.498813 -396.877028 
L 307.207811 -394.806452 
L 305.91681 -396.512906 
L 304.625808 -397.008683 
L 303.334807 -396.537371 
L 302.043806 -396.751499 
L 300.752804 -396.570344 
L 299.461803 -396.600604 
L 298.170802 -396.873745 
L 296.8798 -397.327103 
L 295.588799 -396.930676 
L 294.297797 -396.846854 
L 293.006796 -396.825342 
L 291.715795 -396.877077 
L 290.424793 -396.94917 
L 289.133792 -396.468045 
L 287.84279 -396.693611 
L 286.551789 -397.081404 
L 285.260788 -397.484048 
L 283.969786 -397.195263 
L 282.678785 -396.948828 
L 281.387784 -397.472336 
L 280.096782 -396.717927 
L 278.805781 -396.740178 
L 277.514779 -396.947893 
L 276.223778 -396.966018 
L 274.932777 -397.193546 
L 273.641775 -396.841072 
L 272.350774 -397.070626 
L 271.059772 -396.958694 
L 269.768771 -396.434414 
L 268.47777 -396.380459 
L 267.186768 -397.278249 
L 265.895767 -394.32064 
L 264.604766 -395.229771 
L 263.313764 -394.190973 
L 262.022763 -397.380031 
L 260.731761 -396.092346 
L 259.44076 -397.470857 
L 258.149759 -397.960981 
L 256.858757 -396.312989 
L 255.567756 -396.148261 
L 254.276754 -396.447598 
L 252.985753 -396.947034 
L 251.694752 -394.948739 
L 250.40375 -395.342949 
L 249.112749 -397.240473 
L 247.821748 -397.074005 
L 246.530746 -396.069955 
L 245.239745 -394.602627 
L 243.948743 -396.742021 
L 242.657742 -396.891882 
L 241.366741 -397.358393 
L 240.075739 -398.064758 
L 238.784738 -397.75777 
L 237.493736 -397.054966 
L 236.202735 -397.679779 
L 234.911734 -397.786843 
L 233.620732 -397.646675 
L 232.329731 -398.336299 
L 231.03873 -397.592619 
L 229.747728 -397.451701 
L 228.456727 -398.186822 
L 227.165725 -398.042031 
L 225.874724 -397.545742 
L 224.583723 -397.930602 
L 223.292721 -397.693427 
L 222.00172 -398.418976 
L 220.710718 -397.915158 
L 219.419717 -397.412288 
L 218.128716 -398.715167 
L 216.837714 -398.009122 
L 215.546713 -398.321553 
L 214.255712 -397.884679 
L 212.96471 -397.875193 
L 211.673709 -398.02293 
L 210.382707 -397.790606 
L 209.091706 -397.756112 
L 207.800705 -398.381872 
L 206.509703 -398.242019 
L 205.218702 -398.153271 
L 203.9277 -398.20806 
L 202.636699 -397.779842 
L 201.345698 -398.134707 
L 200.054696 -398.18409 
L 198.763695 -397.757839 
L 197.472694 -397.880285 
L 196.181692 -398.064565 
L 194.890691 -397.622193 
L 193.599689 -398.055864 
L 192.308688 -398.200924 
L 191.017687 -397.674922 
L 189.726685 -398.250002 
L 188.435684 -397.518205 
L 187.144683 -398.031851 
L 185.853681 -397.405633 
L 184.56268 -398.380845 
L 183.271678 -397.980646 
L 181.980677 -398.371772 
L 180.689676 -398.078753 
L 179.398674 -398.383381 
L 178.107673 -397.62623 
L 176.816671 -398.027812 
L 175.52567 -398.066575 
L 174.234669 -397.910629 
L 172.943667 -397.998021 
L 171.652666 -398.043235 
L 170.361665 -397.654174 
L 169.070663 -397.743205 
L 167.779662 -397.670634 
L 166.48866 -397.613329 
L 165.197659 -397.640525 
L 163.906658 -398.257956 
L 162.615656 -397.527621 
L 161.324655 -397.695387 
L 160.033653 -398.116016 
L 158.742652 -398.15402 
L 157.451651 -397.531389 
L 156.160649 -398.219675 
L 154.869648 -398.264079 
L 153.578647 -397.896057 
L 152.287645 -398.299026 
L 150.996644 -398.309795 
L 149.705642 -398.114845 
L 148.414641 -397.395333 
L 147.12364 -397.901964 
L 145.832638 -398.540475 
L 144.541637 -398.30013 
L 143.250635 -397.96133 
L 141.959634 -398.119717 
L 140.668633 -398.339939 
L 139.377631 -397.88996 
L 138.08663 -398.400875 
L 136.795629 -398.041191 
L 135.504627 -398.098993 
L 134.213626 -398.304378 
L 132.922624 -398.293861 
L 131.631623 -398.063863 
L 130.340622 -398.343818 
L 129.04962 -398.419291 
L 127.758619 -398.352704 
L 126.467617 -398.416246 
L 125.176616 -399.16985 
L 123.885615 -399.341969 
L 122.594613 -399.128975 
L 121.303612 -400.090735 
L 120.012611 -400.0826 
L 118.721609 -399.99292 
L 117.430608 -399.988706 
L 116.139606 -399.844546 
L 114.848605 -399.949467 
L 113.557604 -400.215835 
L 112.266602 -400.479266 
L 110.975601 -400.553061 
L 109.684599 -400.571146 
L 108.393598 -400.362967 
L 107.102597 -397.947643 
L 105.811595 -398.855452 
L 104.520594 -398.162232 
L 103.229593 -396.458077 
L 101.938591 -394.190162 
L 100.64759 -395.627574 
L 99.356588 -391.613942 
L 98.065587 -392.701553 
L 96.774586 -396.297841 
L 95.483584 -400.566035 
L 94.192583 -401.441444 
L 92.901581 -402.421895 
L 91.61058 -335.744103 
L 90.319579 -168.896075 
L 89.028577 -93.621834 
L 87.737576 -67.918573 
L 86.446575 -85.936223 
L 85.155573 -149.55558 
L 83.864572 -166.891583 
L 82.57357 -173.6605 
L 81.282569 -180.582558 
L 79.991568 -181.629428 
z
" style="stroke: #5591e1; stroke-opacity: 0.2"/>
    </defs>
    <g clip-path="url(#p46541e5671)">
     <use xlink:href="#m36336a7535" x="0" y="426.4" style="fill: #5591e1; fill-opacity: 0.2; stroke: #5591e1; stroke-opacity: 0.2"/>
    </g>
   </g>
   <g id="PolyCollection_3">
    <defs>
     <path id="m0206d5905d" d="M 79.991568 -181.739911 
L 79.991568 -181.737959 
L 81.282569 -66.860014 
L 82.57357 -66.859821 
L 83.864572 -66.859808 
L 85.155573 -66.859812 
L 86.446575 -66.859846 
L 87.737576 -113.483836 
L 89.028577 -107.234349 
L 90.319579 -90.264135 
L 91.61058 -84.676314 
L 92.901581 -67.071722 
L 94.192583 -66.922705 
L 95.483584 -66.862876 
L 96.774586 -66.860472 
L 98.065587 -66.860146 
L 99.356588 -66.860018 
L 100.64759 -66.859933 
L 101.938591 -66.859876 
L 103.229593 -66.859852 
L 104.520594 -66.859835 
L 105.811595 -66.859826 
L 107.102597 -66.859819 
L 108.393598 -66.859818 
L 109.684599 -66.859838 
L 110.975601 -66.859841 
L 112.266602 -66.860497 
L 113.557604 -66.881281 
L 114.848605 -162.254642 
L 116.139606 -162.23294 
L 117.430608 -161.74923 
L 118.721609 -158.941498 
L 120.012611 -159.549878 
L 121.303612 -156.590417 
L 122.594613 -154.224903 
L 123.885615 -154.732994 
L 125.176616 -153.482643 
L 126.467617 -155.482435 
L 127.758619 -154.943631 
L 129.04962 -153.869846 
L 130.340622 -148.987627 
L 131.631623 -148.016814 
L 132.922624 -146.046841 
L 134.213626 -145.957943 
L 135.504627 -152.196741 
L 136.795629 -148.260222 
L 138.08663 -149.558992 
L 139.377631 -149.123903 
L 140.668633 -147.306563 
L 141.959634 -148.011588 
L 143.250635 -147.393711 
L 144.541637 -150.000592 
L 145.832638 -149.203119 
L 147.12364 -156.536114 
L 148.414641 -396.740399 
L 149.705642 -396.355261 
L 150.996644 -396.680096 
L 152.287645 -396.408636 
L 153.578647 -396.3656 
L 154.869648 -396.660885 
L 156.160649 -396.398488 
L 157.451651 -396.649439 
L 158.742652 -396.613701 
L 160.033653 -396.553982 
L 161.324655 -396.731381 
L 162.615656 -396.74816 
L 163.906658 -396.614163 
L 165.197659 -396.748652 
L 166.48866 -396.347014 
L 167.779662 -396.519752 
L 169.070663 -396.548849 
L 170.361665 -396.553397 
L 171.652666 -396.365328 
L 172.943667 -396.515365 
L 174.234669 -396.4786 
L 175.52567 -396.402931 
L 176.816671 -396.537681 
L 178.107673 -396.49822 
L 179.398674 -396.503731 
L 180.689676 -396.551819 
L 181.980677 -396.587247 
L 183.271678 -396.520364 
L 184.56268 -396.712779 
L 185.853681 -396.582477 
L 187.144683 -396.584282 
L 188.435684 -396.541145 
L 189.726685 -396.611254 
L 191.017687 -396.615129 
L 192.308688 -396.553315 
L 193.599689 -396.698693 
L 194.890691 -396.531054 
L 196.181692 -396.703538 
L 197.472694 -396.480902 
L 198.763695 -396.617951 
L 200.054696 -396.731523 
L 201.345698 -396.546182 
L 202.636699 -396.432596 
L 203.9277 -396.517331 
L 205.218702 -396.667104 
L 206.509703 -396.724842 
L 207.800705 -396.493063 
L 209.091706 -396.575071 
L 210.382707 -396.594097 
L 211.673709 -396.602808 
L 212.96471 -396.513165 
L 214.255712 -396.509535 
L 215.546713 -396.51934 
L 216.837714 -396.520259 
L 218.128716 -396.532134 
L 219.419717 -396.522276 
L 220.710718 -396.528239 
L 222.00172 -396.517448 
L 223.292721 -396.527637 
L 224.583723 -396.519064 
L 225.874724 -396.527556 
L 227.165725 -396.717762 
L 228.456727 -396.605287 
L 229.747728 -396.718087 
L 231.03873 -396.692464 
L 232.329731 -396.699564 
L 233.620732 -396.692708 
L 234.911734 -396.55115 
L 236.202735 -396.651939 
L 237.493736 -396.501562 
L 238.784738 -396.609753 
L 240.075739 -396.687848 
L 241.366741 -396.648777 
L 242.657742 -396.561972 
L 243.948743 -396.643372 
L 245.239745 -396.664755 
L 246.530746 -396.684041 
L 247.821748 -396.660367 
L 249.112749 -396.652223 
L 250.40375 -396.442411 
L 251.694752 -396.680789 
L 252.985753 -396.632548 
L 254.276754 -396.48953 
L 255.567756 -396.502159 
L 256.858757 -396.634585 
L 258.149759 -396.544033 
L 259.44076 -396.547767 
L 260.731761 -396.594315 
L 262.022763 -396.687037 
L 263.313764 -396.490691 
L 264.604766 -396.614621 
L 265.895767 -396.557674 
L 267.186768 -396.651345 
L 268.47777 -396.600794 
L 269.768771 -396.5978 
L 271.059772 -396.620266 
L 272.350774 -396.63495 
L 273.641775 -396.565801 
L 274.932777 -396.648124 
L 276.223778 -396.61071 
L 277.514779 -396.633814 
L 278.805781 -396.612351 
L 280.096782 -396.652787 
L 281.387784 -396.62839 
L 282.678785 -396.615204 
L 283.969786 -396.528281 
L 285.260788 -396.589432 
L 286.551789 -396.500435 
L 287.84279 -396.618554 
L 289.133792 -396.605872 
L 290.424793 -396.578729 
L 291.715795 -396.620202 
L 293.006796 -396.613114 
L 294.297797 -396.531776 
L 295.588799 -396.276846 
L 296.8798 -396.51283 
L 298.170802 -396.602888 
L 299.461803 -396.532707 
L 300.752804 -396.594599 
L 302.043806 -396.607577 
L 303.334807 -396.520264 
L 304.625808 -396.571207 
L 305.91681 -396.500939 
L 307.207811 -396.598449 
L 308.498813 -396.384261 
L 309.789814 -396.535274 
L 311.080815 -396.537002 
L 312.371817 -396.579565 
L 313.662818 -396.589572 
L 314.95382 -396.665213 
L 316.244821 -396.664796 
L 317.535822 -396.571645 
L 318.826824 -396.573783 
L 320.117825 -396.563616 
L 321.408826 -396.51962 
L 322.699828 -396.425313 
L 323.990829 -396.518288 
L 325.281831 -396.601227 
L 326.572832 -396.527998 
L 327.863833 -396.549171 
L 329.154835 -396.676223 
L 330.445836 -396.599397 
L 331.736838 -396.598443 
L 333.027839 -396.569595 
L 334.31884 -396.4665 
L 335.609842 -396.63505 
L 336.900843 -396.487857 
L 338.191844 -396.51723 
L 339.482846 -396.528209 
L 340.773847 -396.69161 
L 342.064849 -396.574598 
L 343.35585 -396.609496 
L 344.646851 -396.576559 
L 345.937853 -396.584974 
L 347.228854 -396.591944 
L 348.519855 -396.552978 
L 349.810857 -396.620972 
L 351.101858 -396.538626 
L 352.39286 -396.598874 
L 353.683861 -396.547231 
L 354.974862 -396.563537 
L 356.265864 -396.341941 
L 357.556865 -396.399955 
L 358.847867 -396.629205 
L 360.138868 -396.526028 
L 361.429869 -396.608715 
L 362.720871 -396.636338 
L 364.011872 -396.543464 
L 365.302873 -396.616633 
L 366.593875 -396.565807 
L 367.884876 -396.47573 
L 369.175878 -396.505507 
L 370.466879 -396.603902 
L 371.75788 -396.574662 
L 373.048882 -396.502689 
L 374.339883 -396.507991 
L 375.630885 -396.578709 
L 376.921886 -396.600472 
L 378.212887 -396.586147 
L 379.503889 -396.57371 
L 380.79489 -396.559705 
L 382.085891 -396.532238 
L 383.376893 -396.634688 
L 384.667894 -396.574808 
L 385.958896 -396.438834 
L 387.249897 -396.60565 
L 388.540898 -396.565731 
L 389.8319 -396.562283 
L 391.122901 -396.590669 
L 392.413903 -396.561658 
L 393.704904 -396.620997 
L 394.995905 -396.577062 
L 396.286907 -396.625513 
L 397.577908 -396.403102 
L 398.868909 -396.377807 
L 400.159911 -396.561611 
L 401.450912 -396.602206 
L 401.450912 -396.884436 
L 401.450912 -396.884436 
L 400.159911 -396.943394 
L 398.868909 -396.882235 
L 397.577908 -396.955154 
L 396.286907 -396.962721 
L 394.995905 -396.958232 
L 393.704904 -396.931854 
L 392.413903 -396.920225 
L 391.122901 -396.926884 
L 389.8319 -396.938687 
L 388.540898 -396.880455 
L 387.249897 -397.010552 
L 385.958896 -396.962261 
L 384.667894 -397.043748 
L 383.376893 -396.891651 
L 382.085891 -397.078333 
L 380.79489 -396.964684 
L 379.503889 -396.952122 
L 378.212887 -396.962089 
L 376.921886 -397.068173 
L 375.630885 -396.9187 
L 374.339883 -396.990574 
L 373.048882 -396.916051 
L 371.75788 -396.939774 
L 370.466879 -396.954601 
L 369.175878 -396.788576 
L 367.884876 -396.863629 
L 366.593875 -396.82798 
L 365.302873 -397.072789 
L 364.011872 -396.954623 
L 362.720871 -396.954517 
L 361.429869 -396.852751 
L 360.138868 -396.9273 
L 358.847867 -396.930213 
L 357.556865 -396.822951 
L 356.265864 -396.885801 
L 354.974862 -396.943068 
L 353.683861 -396.846024 
L 352.39286 -396.951006 
L 351.101858 -396.831866 
L 349.810857 -396.952217 
L 348.519855 -396.929327 
L 347.228854 -396.981453 
L 345.937853 -396.974776 
L 344.646851 -396.946389 
L 343.35585 -396.92655 
L 342.064849 -396.964871 
L 340.773847 -396.907465 
L 339.482846 -396.887647 
L 338.191844 -396.884493 
L 336.900843 -396.877552 
L 335.609842 -396.890896 
L 334.31884 -396.819859 
L 333.027839 -396.84329 
L 331.736838 -396.885029 
L 330.445836 -396.915837 
L 329.154835 -396.965777 
L 327.863833 -396.946083 
L 326.572832 -396.952962 
L 325.281831 -396.948545 
L 323.990829 -396.833688 
L 322.699828 -396.80982 
L 321.408826 -396.841282 
L 320.117825 -396.850936 
L 318.826824 -396.939554 
L 317.535822 -396.989665 
L 316.244821 -396.95603 
L 314.95382 -396.929638 
L 313.662818 -396.896597 
L 312.371817 -396.932886 
L 311.080815 -396.93089 
L 309.789814 -396.890835 
L 308.498813 -396.963466 
L 307.207811 -396.94631 
L 305.91681 -396.832711 
L 304.625808 -396.918654 
L 303.334807 -396.886392 
L 302.043806 -396.931727 
L 300.752804 -396.926982 
L 299.461803 -396.918706 
L 298.170802 -396.831765 
L 296.8798 -396.841214 
L 295.588799 -396.861742 
L 294.297797 -396.85705 
L 293.006796 -396.928175 
L 291.715795 -396.907207 
L 290.424793 -396.818148 
L 289.133792 -396.842611 
L 287.84279 -396.876517 
L 286.551789 -396.888284 
L 285.260788 -396.846468 
L 283.969786 -396.916826 
L 282.678785 -396.952198 
L 281.387784 -396.932357 
L 280.096782 -396.892227 
L 278.805781 -396.89402 
L 277.514779 -396.916015 
L 276.223778 -396.906196 
L 274.932777 -396.913649 
L 273.641775 -396.940935 
L 272.350774 -396.932295 
L 271.059772 -396.942546 
L 269.768771 -396.947699 
L 268.47777 -396.922197 
L 267.186768 -396.88558 
L 265.895767 -396.816003 
L 264.604766 -396.898482 
L 263.313764 -396.751361 
L 262.022763 -396.875767 
L 260.731761 -396.844822 
L 259.44076 -396.870842 
L 258.149759 -396.971335 
L 256.858757 -396.952355 
L 255.567756 -396.944643 
L 254.276754 -396.963042 
L 252.985753 -396.944426 
L 251.694752 -396.969063 
L 250.40375 -396.943325 
L 249.112749 -396.959544 
L 247.821748 -396.974193 
L 246.530746 -396.949192 
L 245.239745 -396.935362 
L 243.948743 -396.968717 
L 242.657742 -396.957876 
L 241.366741 -396.971752 
L 240.075739 -396.974255 
L 238.784738 -396.946828 
L 237.493736 -396.952916 
L 236.202735 -396.915988 
L 234.911734 -396.944304 
L 233.620732 -396.928823 
L 232.329731 -396.957972 
L 231.03873 -396.954585 
L 229.747728 -397.023669 
L 228.456727 -396.852011 
L 227.165725 -396.888234 
L 225.874724 -396.907678 
L 224.583723 -396.895791 
L 223.292721 -396.86903 
L 222.00172 -396.865338 
L 220.710718 -396.957618 
L 219.419717 -396.954392 
L 218.128716 -396.845955 
L 216.837714 -396.928814 
L 215.546713 -396.900074 
L 214.255712 -396.874417 
L 212.96471 -396.878291 
L 211.673709 -396.897979 
L 210.382707 -396.87927 
L 209.091706 -396.951995 
L 207.800705 -396.957135 
L 206.509703 -396.959982 
L 205.218702 -396.951769 
L 203.9277 -396.827527 
L 202.636699 -396.924979 
L 201.345698 -396.932551 
L 200.054696 -396.915105 
L 198.763695 -396.932325 
L 197.472694 -396.830887 
L 196.181692 -396.872047 
L 194.890691 -396.766259 
L 193.599689 -396.856919 
L 192.308688 -396.776817 
L 191.017687 -396.810811 
L 189.726685 -396.821765 
L 188.435684 -396.814902 
L 187.144683 -396.89301 
L 185.853681 -396.836904 
L 184.56268 -396.875427 
L 183.271678 -396.763463 
L 181.980677 -396.849803 
L 180.689676 -396.736315 
L 179.398674 -396.736972 
L 178.107673 -396.722683 
L 176.816671 -396.893282 
L 175.52567 -396.718204 
L 174.234669 -396.734621 
L 172.943667 -396.7534 
L 171.652666 -396.814209 
L 170.361665 -396.981871 
L 169.070663 -396.965219 
L 167.779662 -396.952321 
L 166.48866 -397.037151 
L 165.197659 -397.16455 
L 163.906658 -397.099682 
L 162.615656 -396.966267 
L 161.324655 -396.949534 
L 160.033653 -396.974055 
L 158.742652 -396.979758 
L 157.451651 -396.95157 
L 156.160649 -396.985738 
L 154.869648 -396.991122 
L 153.578647 -396.740091 
L 152.287645 -396.924044 
L 150.996644 -396.896577 
L 149.705642 -396.92186 
L 148.414641 -397.094077 
L 147.12364 -396.736671 
L 145.832638 -396.785376 
L 144.541637 -396.836106 
L 143.250635 -396.791339 
L 141.959634 -396.977758 
L 140.668633 -397.012957 
L 139.377631 -397.03706 
L 138.08663 -397.030622 
L 136.795629 -397.034851 
L 135.504627 -397.059247 
L 134.213626 -397.050471 
L 132.922624 -397.086625 
L 131.631623 -396.886905 
L 130.340622 -396.860868 
L 129.04962 -397.029735 
L 127.758619 -396.980734 
L 126.467617 -396.986848 
L 125.176616 -396.913797 
L 123.885615 -396.972981 
L 122.594613 -396.987845 
L 121.303612 -396.813316 
L 120.012611 -397.5228 
L 118.721609 -398.079645 
L 117.430608 -397.398685 
L 116.139606 -397.167381 
L 114.848605 -396.698079 
L 113.557604 -397.073594 
L 112.266602 -395.972176 
L 110.975601 -396.536656 
L 109.684599 -396.840094 
L 108.393598 -396.605937 
L 107.102597 -396.418424 
L 105.811595 -396.31079 
L 104.520594 -396.038191 
L 103.229593 -395.789142 
L 101.938591 -174.886408 
L 100.64759 -165.886459 
L 99.356588 -166.206339 
L 98.065587 -167.118758 
L 96.774586 -166.717946 
L 95.483584 -176.582246 
L 94.192583 -176.052409 
L 92.901581 -162.479536 
L 91.61058 -166.075575 
L 90.319579 -168.697604 
L 89.028577 -174.280955 
L 87.737576 -176.382 
L 86.446575 -144.883906 
L 85.155573 -66.859853 
L 83.864572 -66.859812 
L 82.57357 -66.85983 
L 81.282569 -66.860047 
L 79.991568 -181.739911 
z
" style="stroke: #6ca247; stroke-opacity: 0.2"/>
    </defs>
    <g clip-path="url(#p46541e5671)">
     <use xlink:href="#m0206d5905d" x="0" y="426.4" style="fill: #6ca247; fill-opacity: 0.2; stroke: #6ca247; stroke-opacity: 0.2"/>
    </g>
   </g>
   <g id="matplotlib.axis_1">
    <g id="xtick_1">
     <g id="line2d_1">
      <path d="M 79.830192 376.318305 
L 79.830192 7.2 
" clip-path="url(#p46541e5671)" style="fill: none; stroke: #b0b0b0; stroke-opacity: 0.3; stroke-width: 0.8; stroke-linecap: square"/>
     </g>
     <g id="line2d_2">
      <defs>
       <path id="m7408b312a1" d="M 0 0 
L 0 3.5 
" style="stroke: #000000; stroke-width: 0.8"/>
      </defs>
      <g>
       <use xlink:href="#m7408b312a1" x="79.830192" y="376.318305" style="stroke: #000000; stroke-width: 0.8"/>
      </g>
     </g>
     <g id="text_1">
      <!-- 0k -->
      <g transform="translate(71.809428 394.387893) scale(0.16 -0.16)">
       <defs>
        <path id="CMR17-30" d="M 2688 2038 
C 2688 2430 2682 3099 2413 3613 
C 2176 4063 1798 4224 1466 4224 
C 1158 4224 768 4082 525 3620 
C 269 3137 243 2539 243 2038 
C 243 1671 250 1112 448 623 
C 723 -39 1216 -128 1466 -128 
C 1760 -128 2208 -7 2470 604 
C 2662 1048 2688 1568 2688 2038 
z
M 1466 -26 
C 1056 -26 813 328 723 816 
C 653 1196 653 1749 653 2109 
C 653 2604 653 3015 736 3407 
C 858 3954 1216 4121 1466 4121 
C 1728 4121 2067 3947 2189 3420 
C 2272 3054 2278 2623 2278 2109 
C 2278 1691 2278 1176 2202 797 
C 2067 96 1690 -26 1466 -26 
z
" transform="scale(0.015625)"/>
        <path id="CMR17-6b" d="M 1670 1679 
C 1664 1692 1632 1730 1632 1749 
C 1632 1762 2086 2175 2144 2226 
C 2509 2532 2739 2563 2906 2570 
L 2906 2735 
C 2867 2735 2854 2735 2848 2729 
L 2534 2722 
C 2355 2722 2080 2722 1907 2735 
L 1907 2570 
C 1997 2563 2061 2513 2061 2423 
C 2061 2296 1933 2175 1926 2175 
L 960 1298 
L 960 4416 
L 198 4345 
L 198 4179 
C 576 4179 634 4141 634 3835 
L 634 439 
C 634 198 608 166 198 166 
L 198 0 
C 352 12 634 12 794 12 
C 954 12 1235 12 1389 0 
L 1389 166 
C 979 166 954 191 954 439 
L 954 1139 
L 1395 1540 
L 2042 586 
C 2118 471 2182 382 2182 299 
C 2182 185 2067 166 1990 166 
L 1990 0 
C 2144 12 2419 12 2579 12 
C 2694 12 2931 6 3040 0 
L 3040 166 
C 2739 166 2669 223 2477 503 
L 1670 1679 
z
" transform="scale(0.015625)"/>
       </defs>
       <use xlink:href="#CMR17-30" transform="scale(0.996264)"/>
       <use xlink:href="#CMR17-6b" transform="translate(45.690477 0) scale(0.996264)"/>
      </g>
     </g>
    </g>
    <g id="xtick_2">
     <g id="line2d_3">
      <path d="M 160.517779 376.318305 
L 160.517779 7.2 
" clip-path="url(#p46541e5671)" style="fill: none; stroke: #b0b0b0; stroke-opacity: 0.3; stroke-width: 0.8; stroke-linecap: square"/>
     </g>
     <g id="line2d_4">
      <g>
       <use xlink:href="#m7408b312a1" x="160.517779" y="376.318305" style="stroke: #000000; stroke-width: 0.8"/>
      </g>
     </g>
     <g id="text_2">
      <!-- 50k -->
      <g transform="translate(148.595021 394.387893) scale(0.16 -0.16)">
       <defs>
        <path id="CMR17-35" d="M 730 3750 
C 794 3724 1056 3641 1325 3641 
C 1920 3641 2246 3961 2432 4140 
C 2432 4191 2432 4224 2394 4224 
C 2387 4224 2374 4224 2323 4198 
C 2099 4102 1837 4032 1517 4032 
C 1325 4032 1037 4055 723 4191 
C 653 4224 640 4224 634 4224 
C 602 4224 595 4217 595 4090 
L 595 2231 
C 595 2113 595 2080 659 2080 
C 691 2080 704 2093 736 2139 
C 941 2435 1222 2560 1542 2560 
C 1766 2560 2246 2415 2246 1293 
C 2246 1087 2246 716 2054 422 
C 1894 159 1645 25 1370 25 
C 947 25 518 319 403 812 
C 429 806 480 793 506 793 
C 589 793 749 838 749 1036 
C 749 1209 627 1280 506 1280 
C 358 1280 262 1190 262 1011 
C 262 454 704 -128 1382 -128 
C 2042 -128 2669 441 2669 1267 
C 2669 2054 2170 2662 1549 2662 
C 1222 2662 947 2540 730 2304 
L 730 3750 
z
" transform="scale(0.015625)"/>
       </defs>
       <use xlink:href="#CMR17-35" transform="scale(0.996264)"/>
       <use xlink:href="#CMR17-30" transform="translate(45.690477 0) scale(0.996264)"/>
       <use xlink:href="#CMR17-6b" transform="translate(91.380954 0) scale(0.996264)"/>
      </g>
     </g>
    </g>
    <g id="xtick_3">
     <g id="line2d_5">
      <path d="M 241.205365 376.318305 
L 241.205365 7.2 
" clip-path="url(#p46541e5671)" style="fill: none; stroke: #b0b0b0; stroke-opacity: 0.3; stroke-width: 0.8; stroke-linecap: square"/>
     </g>
     <g id="line2d_6">
      <g>
       <use xlink:href="#m7408b312a1" x="241.205365" y="376.318305" style="stroke: #000000; stroke-width: 0.8"/>
      </g>
     </g>
     <g id="text_3">
      <!-- 100k -->
      <g transform="translate(225.380614 394.387893) scale(0.16 -0.16)">
       <defs>
        <path id="CMR17-31" d="M 1702 4083 
C 1702 4217 1696 4224 1606 4224 
C 1357 3927 979 3833 621 3820 
C 602 3820 570 3820 563 3808 
C 557 3795 557 3782 557 3648 
C 755 3648 1088 3686 1344 3839 
L 1344 467 
C 1344 243 1331 166 781 166 
L 589 166 
L 589 0 
C 896 6 1216 12 1523 12 
C 1830 12 2150 6 2458 0 
L 2458 166 
L 2266 166 
C 1715 166 1702 236 1702 467 
L 1702 4083 
z
" transform="scale(0.015625)"/>
       </defs>
       <use xlink:href="#CMR17-31" transform="scale(0.996264)"/>
       <use xlink:href="#CMR17-30" transform="translate(45.690477 0) scale(0.996264)"/>
       <use xlink:href="#CMR17-30" transform="translate(91.380954 0) scale(0.996264)"/>
       <use xlink:href="#CMR17-6b" transform="translate(137.071431 0) scale(0.996264)"/>
      </g>
     </g>
    </g>
    <g id="xtick_4">
     <g id="line2d_7">
      <path d="M 321.892952 376.318305 
L 321.892952 7.2 
" clip-path="url(#p46541e5671)" style="fill: none; stroke: #b0b0b0; stroke-opacity: 0.3; stroke-width: 0.8; stroke-linecap: square"/>
     </g>
     <g id="line2d_8">
      <g>
       <use xlink:href="#m7408b312a1" x="321.892952" y="376.318305" style="stroke: #000000; stroke-width: 0.8"/>
      </g>
     </g>
     <g id="text_4">
      <!-- 150k -->
      <g transform="translate(306.068201 394.387893) scale(0.16 -0.16)">
       <use xlink:href="#CMR17-31" transform="scale(0.996264)"/>
       <use xlink:href="#CMR17-35" transform="translate(45.690477 0) scale(0.996264)"/>
       <use xlink:href="#CMR17-30" transform="translate(91.380954 0) scale(0.996264)"/>
       <use xlink:href="#CMR17-6b" transform="translate(137.071431 0) scale(0.996264)"/>
      </g>
     </g>
    </g>
    <g id="xtick_5">
     <g id="line2d_9">
      <path d="M 402.580538 376.318305 
L 402.580538 7.2 
" clip-path="url(#p46541e5671)" style="fill: none; stroke: #b0b0b0; stroke-opacity: 0.3; stroke-width: 0.8; stroke-linecap: square"/>
     </g>
     <g id="line2d_10">
      <g>
       <use xlink:href="#m7408b312a1" x="402.580538" y="376.318305" style="stroke: #000000; stroke-width: 0.8"/>
      </g>
     </g>
     <g id="text_5">
      <!-- 200k -->
      <g transform="translate(386.755787 394.387893) scale(0.16 -0.16)">
       <defs>
        <path id="CMR17-32" d="M 2669 990 
L 2554 990 
C 2490 537 2438 460 2413 422 
C 2381 371 1920 371 1830 371 
L 602 371 
C 832 620 1280 1073 1824 1596 
C 2214 1966 2669 2400 2669 3033 
C 2669 3788 2067 4224 1395 4224 
C 691 4224 262 3603 262 3027 
C 262 2777 448 2745 525 2745 
C 589 2745 781 2783 781 3007 
C 781 3206 614 3264 525 3264 
C 486 3264 448 3257 422 3244 
C 544 3788 915 4057 1306 4057 
C 1862 4057 2227 3616 2227 3033 
C 2227 2477 1901 1998 1536 1583 
L 262 147 
L 262 0 
L 2515 0 
L 2669 990 
z
" transform="scale(0.015625)"/>
       </defs>
       <use xlink:href="#CMR17-32" transform="scale(0.996264)"/>
       <use xlink:href="#CMR17-30" transform="translate(45.690477 0) scale(0.996264)"/>
       <use xlink:href="#CMR17-30" transform="translate(91.380954 0) scale(0.996264)"/>
       <use xlink:href="#CMR17-6b" transform="translate(137.071431 0) scale(0.996264)"/>
      </g>
     </g>
    </g>
    <g id="text_6">
     <!-- Training Steps -->
     <g transform="translate(182.688101 415.324366) scale(0.2 -0.2)">
      <defs>
       <path id="CMR17-54" d="M 3981 4332 
L 288 4332 
L 179 2924 
L 294 2924 
C 378 3981 467 4166 1453 4166 
C 1568 4166 1754 4166 1805 4159 
C 1926 4140 1926 4064 1926 3917 
L 1926 465 
C 1926 236 1907 166 1376 166 
L 1197 166 
L 1197 0 
C 1504 6 1824 12 2138 12 
C 2451 12 2771 6 3078 0 
L 3078 166 
L 2899 166 
C 2368 166 2349 236 2349 465 
L 2349 3917 
C 2349 4057 2349 4134 2464 4159 
C 2515 4166 2701 4166 2816 4166 
C 3795 4166 3891 3981 3974 2924 
L 4090 2924 
L 3981 4332 
z
" transform="scale(0.015625)"/>
       <path id="CMR17-72" d="M 960 1517 
C 960 2134 1222 2713 1702 2713 
C 1747 2713 1792 2707 1837 2687 
C 1837 2687 1696 2642 1696 2475 
C 1696 2321 1818 2257 1914 2257 
C 1990 2257 2131 2302 2131 2482 
C 2131 2687 1926 2816 1709 2816 
C 1222 2816 1011 2340 947 2115 
L 941 2115 
L 941 2816 
L 198 2745 
L 198 2578 
C 576 2578 634 2540 634 2231 
L 634 443 
C 634 198 608 166 198 166 
L 198 0 
C 352 12 646 12 813 12 
C 998 12 1325 12 1498 0 
L 1498 166 
C 1037 166 960 166 960 455 
L 960 1517 
z
" transform="scale(0.015625)"/>
       <path id="CMR17-61" d="M 2304 1656 
C 2304 2048 2304 2275 2035 2534 
C 1798 2751 1523 2816 1306 2816 
C 800 2816 435 2408 435 1977 
C 435 1740 627 1728 666 1728 
C 749 1728 896 1779 896 1958 
C 896 2118 774 2188 666 2188 
C 640 2188 608 2182 589 2176 
C 723 2594 1069 2713 1293 2713 
C 1613 2713 1965 2421 1965 1875 
L 1965 1632 
C 1587 1619 1133 1568 774 1373 
C 371 1147 256 822 256 576 
C 256 77 832 -64 1171 -64 
C 1523 -64 1850 135 1990 505 
C 2003 219 2182 -39 2464 -39 
C 2598 -39 2938 51 2938 563 
L 2938 926 
L 2822 926 
L 2822 557 
C 2822 161 2650 109 2566 109 
C 2304 109 2304 446 2304 732 
L 2304 1656 
z
M 1965 887 
C 1965 323 1568 38 1216 38 
C 896 38 646 278 646 576 
C 646 771 730 1114 1101 1322 
C 1408 1497 1760 1523 1965 1536 
L 1965 887 
z
" transform="scale(0.015625)"/>
       <path id="CMR17-69" d="M 992 3961 
C 992 4102 877 4224 730 4224 
C 589 4224 467 4108 467 3961 
C 467 3820 582 3699 730 3699 
C 870 3699 992 3814 992 3961 
z
M 243 2745 
L 243 2579 
C 602 2579 653 2540 653 2231 
L 653 443 
C 653 198 627 166 218 166 
L 218 0 
C 371 12 646 12 806 12 
C 960 12 1222 12 1370 0 
L 1370 166 
C 992 166 979 205 979 436 
L 979 2816 
L 243 2745 
z
" transform="scale(0.015625)"/>
       <path id="CMR17-6e" d="M 2656 1954 
C 2656 2282 2592 2816 1837 2816 
C 1331 2816 1069 2424 973 2166 
L 966 2166 
L 966 2816 
L 211 2745 
L 211 2578 
C 589 2578 646 2540 646 2231 
L 646 443 
C 646 198 621 166 211 166 
L 211 0 
C 365 12 646 12 813 12 
C 979 12 1267 12 1421 0 
L 1421 166 
C 1011 166 986 192 986 443 
L 986 1678 
C 986 2269 1344 2713 1792 2713 
C 2266 2713 2317 2289 2317 1980 
L 2317 443 
C 2317 198 2291 166 1882 166 
L 1882 0 
C 2035 12 2317 12 2483 12 
C 2650 12 2938 12 3091 0 
L 3091 166 
C 2682 166 2656 192 2656 443 
L 2656 1954 
z
" transform="scale(0.015625)"/>
       <path id="CMR17-67" d="M 710 1165 
C 832 1068 1043 960 1299 960 
C 1805 960 2240 1359 2240 1895 
C 2240 2063 2189 2321 1997 2521 
C 2176 2713 2438 2777 2586 2777 
C 2611 2777 2650 2777 2682 2758 
C 2656 2751 2598 2726 2598 2623 
C 2598 2540 2656 2483 2739 2483 
C 2835 2483 2886 2547 2886 2630 
C 2886 2751 2790 2880 2586 2880 
C 2330 2880 2106 2758 1926 2591 
C 1734 2764 1504 2828 1299 2828 
C 794 2828 358 2431 358 1895 
C 358 1527 570 1294 634 1230 
C 442 1004 442 742 442 710 
C 442 544 506 300 723 166 
C 390 82 128 -184 128 -517 
C 128 -996 736 -1344 1466 -1344 
C 2170 -1344 2803 -1009 2803 -510 
C 2803 384 1856 384 1363 384 
C 1216 384 954 384 922 390 
C 723 422 589 601 589 825 
C 589 883 589 1024 710 1165 
z
M 1299 1068 
C 736 1068 736 1766 736 1895 
C 736 2024 736 2719 1299 2719 
C 1862 2719 1862 2024 1862 1895 
C 1862 1766 1862 1068 1299 1068 
z
M 1466 -1236 
C 826 -1236 384 -883 384 -517 
C 384 -311 493 -118 634 -11 
C 794 102 858 102 1293 102 
C 1818 102 2547 102 2547 -517 
C 2547 -883 2106 -1236 1466 -1236 
z
" transform="scale(0.015625)"/>
       <path id="CMR17-53" d="M 2803 4351 
C 2803 4467 2797 4473 2758 4473 
C 2720 4473 2707 4447 2682 4390 
L 2490 3965 
C 2246 4320 1875 4480 1472 4480 
C 819 4480 294 3958 294 3301 
C 294 3101 339 2817 557 2546 
C 794 2250 1018 2198 1530 2063 
C 1722 2011 2042 1927 2106 1901 
C 2470 1747 2662 1360 2662 999 
C 2662 534 2336 38 1779 38 
C 1094 38 454 425 410 1328 
C 403 1431 397 1437 352 1437 
C 301 1437 294 1431 294 1302 
L 294 0 
C 294 -116 301 -122 339 -122 
C 384 -122 397 -90 486 109 
C 493 128 493 141 614 386 
C 934 -39 1472 -128 1779 -128 
C 2477 -128 2970 457 2970 1141 
C 2970 1476 2848 1734 2778 1850 
C 2509 2263 2221 2340 1914 2417 
C 1869 2437 1856 2437 1498 2527 
C 1152 2617 1005 2662 845 2836 
C 666 3036 602 3243 602 3449 
C 602 3868 934 4326 1478 4326 
C 2157 4326 2579 3842 2675 3036 
C 2694 2920 2701 2914 2746 2914 
C 2803 2914 2803 2933 2803 3043 
L 2803 4351 
z
" transform="scale(0.015625)"/>
       <path id="CMR17-74" d="M 966 2585 
L 1862 2585 
L 1862 2752 
L 966 2752 
L 966 3968 
L 851 3968 
C 838 3292 614 2700 70 2687 
L 70 2585 
L 627 2585 
L 627 778 
C 627 655 627 -64 1370 -64 
C 1747 -64 1965 308 1965 784 
L 1965 1151 
L 1850 1151 
L 1850 790 
C 1850 347 1677 51 1408 51 
C 1222 51 966 179 966 765 
L 966 2585 
z
" transform="scale(0.015625)"/>
       <path id="CMR17-65" d="M 2438 1503 
C 2464 1529 2464 1542 2464 1606 
C 2464 2251 2118 2816 1389 2816 
C 710 2816 173 2175 173 1394 
C 173 554 781 -64 1459 -64 
C 2176 -64 2458 619 2458 755 
C 2458 800 2419 800 2406 800 
C 2362 800 2355 787 2330 709 
C 2189 270 1837 51 1504 51 
C 1229 51 954 206 781 490 
C 582 819 582 1200 582 1503 
L 2438 1503 
z
M 589 1600 
C 634 2511 1126 2713 1382 2713 
C 1818 2713 2112 2308 2118 1600 
L 589 1600 
z
" transform="scale(0.015625)"/>
       <path id="CMR17-70" d="M 1408 -1114 
C 998 -1114 973 -1088 973 -834 
L 973 380 
C 1158 109 1427 -64 1766 -64 
C 2406 -64 3053 503 3053 1382 
C 3053 2196 2496 2816 1837 2816 
C 1453 2816 1139 2603 960 2345 
L 960 2816 
L 198 2745 
L 198 2577 
C 576 2577 634 2539 634 2228 
L 634 -834 
C 634 -1081 608 -1114 198 -1114 
L 198 -1280 
C 352 -1268 634 -1268 800 -1268 
C 966 -1268 1254 -1268 1408 -1280 
L 1408 -1114 
z
M 973 2015 
C 973 2106 973 2241 1222 2481 
C 1254 2506 1472 2700 1792 2700 
C 2259 2700 2643 2112 2643 1376 
C 2643 639 2234 38 1728 38 
C 1498 38 1248 148 1056 451 
C 973 594 973 632 973 736 
L 973 2015 
z
" transform="scale(0.015625)"/>
       <path id="CMR17-73" d="M 1978 2688 
C 1978 2803 1971 2809 1933 2809 
C 1907 2809 1901 2803 1824 2707 
C 1805 2681 1747 2617 1728 2592 
C 1523 2809 1235 2816 1126 2816 
C 416 2816 160 2444 160 2073 
C 160 1497 813 1363 998 1324 
C 1402 1241 1542 1216 1677 1100 
C 1760 1024 1901 883 1901 652 
C 1901 384 1747 38 1158 38 
C 602 38 403 460 288 1024 
C 269 1113 269 1120 218 1120 
C 166 1120 160 1113 160 985 
L 160 64 
C 160 -52 166 -58 205 -58 
C 237 -58 243 -52 275 0 
C 314 57 410 211 448 275 
C 576 102 800 -64 1158 -64 
C 1792 -64 2131 281 2131 780 
C 2131 1107 1958 1280 1875 1356 
C 1683 1555 1459 1600 1190 1651 
C 838 1728 390 1817 390 2208 
C 390 2374 480 2726 1126 2726 
C 1811 2726 1850 2086 1862 1881 
C 1869 1849 1901 1843 1920 1843 
C 1978 1843 1978 1862 1978 1971 
L 1978 2688 
z
" transform="scale(0.015625)"/>
      </defs>
      <use xlink:href="#CMR17-54" transform="scale(0.996264)"/>
      <use xlink:href="#CMR17-72" transform="translate(58.702625 0) scale(0.996264)"/>
      <use xlink:href="#CMR17-61" transform="translate(93.983393 0) scale(0.996264)"/>
      <use xlink:href="#CMR17-69" transform="translate(139.67387 0) scale(0.996264)"/>
      <use xlink:href="#CMR17-6e" transform="translate(164.544929 0) scale(0.996264)"/>
      <use xlink:href="#CMR17-69" transform="translate(215.440298 0) scale(0.996264)"/>
      <use xlink:href="#CMR17-6e" transform="translate(240.311357 0) scale(0.996264)"/>
      <use xlink:href="#CMR17-67" transform="translate(291.206727 0) scale(0.996264)"/>
      <use xlink:href="#CMR17-53" transform="translate(366.97317 0) scale(0.996264)"/>
      <use xlink:href="#CMR17-74" transform="translate(417.86854 0) scale(0.996264)"/>
      <use xlink:href="#CMR17-65" transform="translate(453.149308 0) scale(0.996264)"/>
      <use xlink:href="#CMR17-70" transform="translate(493.634968 0) scale(0.996264)"/>
      <use xlink:href="#CMR17-73" transform="translate(544.530338 0) scale(0.996264)"/>
     </g>
    </g>
   </g>
   <g id="matplotlib.axis_2">
    <g id="ytick_1">
     <g id="line2d_11">
      <path d="M 63.9186 336.536974 
L 417.523879 336.536974 
" clip-path="url(#p46541e5671)" style="fill: none; stroke: #b0b0b0; stroke-opacity: 0.3; stroke-width: 0.8; stroke-linecap: square"/>
     </g>
     <g id="line2d_12">
      <defs>
       <path id="m95f0cda963" d="M 0 0 
L -3.5 0 
" style="stroke: #000000; stroke-width: 0.8"/>
      </defs>
      <g>
       <use xlink:href="#m95f0cda963" x="63.9186" y="336.536974" style="stroke: #000000; stroke-width: 0.8"/>
      </g>
     </g>
     <g id="text_7">
      <!-- $\mathdefault{40}$ -->
      <g transform="translate(28.91263 342.071768) scale(0.16 -0.16)">
       <defs>
        <path id="CMSY10-0" d="M 4218 1472 
C 4326 1472 4442 1472 4442 1600 
C 4442 1728 4326 1728 4218 1728 
L 755 1728 
C 646 1728 531 1728 531 1600 
C 531 1472 646 1472 755 1472 
L 4218 1472 
z
" transform="scale(0.015625)"/>
        <path id="CMR17-34" d="M 2150 4147 
C 2150 4281 2144 4288 2029 4288 
L 128 1254 
L 128 1088 
L 1779 1088 
L 1779 460 
C 1779 230 1766 166 1318 166 
L 1197 166 
L 1197 0 
C 1402 12 1747 12 1965 12 
C 2182 12 2528 12 2733 0 
L 2733 166 
L 2611 166 
C 2163 166 2150 230 2150 460 
L 2150 1088 
L 2803 1088 
L 2803 1254 
L 2150 1254 
L 2150 4147 
z
M 1798 3723 
L 1798 1254 
L 256 1254 
L 1798 3723 
z
" transform="scale(0.015625)"/>
       </defs>
       <use xlink:href="#CMSY10-0" transform="scale(0.996264)"/>
       <use xlink:href="#CMR17-34" transform="translate(77.487468 0) scale(0.996264)"/>
       <use xlink:href="#CMR17-30" transform="translate(123.177945 0) scale(0.996264)"/>
      </g>
     </g>
    </g>
    <g id="ytick_2">
     <g id="line2d_13">
      <path d="M 63.9186 290.530522 
L 417.523879 290.530522 
" clip-path="url(#p46541e5671)" style="fill: none; stroke: #b0b0b0; stroke-opacity: 0.3; stroke-width: 0.8; stroke-linecap: square"/>
     </g>
     <g id="line2d_14">
      <g>
       <use xlink:href="#m95f0cda963" x="63.9186" y="290.530522" style="stroke: #000000; stroke-width: 0.8"/>
      </g>
     </g>
     <g id="text_8">
      <!-- $\mathdefault{20}$ -->
      <g transform="translate(28.91263 296.065316) scale(0.16 -0.16)">
       <use xlink:href="#CMSY10-0" transform="scale(0.996264)"/>
       <use xlink:href="#CMR17-32" transform="translate(77.487468 0) scale(0.996264)"/>
       <use xlink:href="#CMR17-30" transform="translate(123.177945 0) scale(0.996264)"/>
      </g>
     </g>
    </g>
    <g id="ytick_3">
     <g id="line2d_15">
      <path d="M 63.9186 244.52407 
L 417.523879 244.52407 
" clip-path="url(#p46541e5671)" style="fill: none; stroke: #b0b0b0; stroke-opacity: 0.3; stroke-width: 0.8; stroke-linecap: square"/>
     </g>
     <g id="line2d_16">
      <g>
       <use xlink:href="#m95f0cda963" x="63.9186" y="244.52407" style="stroke: #000000; stroke-width: 0.8"/>
      </g>
     </g>
     <g id="text_9">
      <!-- $\mathdefault{0}$ -->
      <g transform="translate(49.114613 250.058864) scale(0.16 -0.16)">
       <use xlink:href="#CMR17-30" transform="scale(0.996264)"/>
      </g>
     </g>
    </g>
    <g id="ytick_4">
     <g id="line2d_17">
      <path d="M 63.9186 198.517618 
L 417.523879 198.517618 
" clip-path="url(#p46541e5671)" style="fill: none; stroke: #b0b0b0; stroke-opacity: 0.3; stroke-width: 0.8; stroke-linecap: square"/>
     </g>
     <g id="line2d_18">
      <g>
       <use xlink:href="#m95f0cda963" x="63.9186" y="198.517618" style="stroke: #000000; stroke-width: 0.8"/>
      </g>
     </g>
     <g id="text_10">
      <!-- $\mathdefault{20}$ -->
      <g transform="translate(41.310626 204.052412) scale(0.16 -0.16)">
       <use xlink:href="#CMR17-32" transform="scale(0.996264)"/>
       <use xlink:href="#CMR17-30" transform="translate(45.690477 0) scale(0.996264)"/>
      </g>
     </g>
    </g>
    <g id="ytick_5">
     <g id="line2d_19">
      <path d="M 63.9186 152.511166 
L 417.523879 152.511166 
" clip-path="url(#p46541e5671)" style="fill: none; stroke: #b0b0b0; stroke-opacity: 0.3; stroke-width: 0.8; stroke-linecap: square"/>
     </g>
     <g id="line2d_20">
      <g>
       <use xlink:href="#m95f0cda963" x="63.9186" y="152.511166" style="stroke: #000000; stroke-width: 0.8"/>
      </g>
     </g>
     <g id="text_11">
      <!-- $\mathdefault{40}$ -->
      <g transform="translate(41.310626 158.04596) scale(0.16 -0.16)">
       <use xlink:href="#CMR17-34" transform="scale(0.996264)"/>
       <use xlink:href="#CMR17-30" transform="translate(45.690477 0) scale(0.996264)"/>
      </g>
     </g>
    </g>
    <g id="ytick_6">
     <g id="line2d_21">
      <path d="M 63.9186 106.504714 
L 417.523879 106.504714 
" clip-path="url(#p46541e5671)" style="fill: none; stroke: #b0b0b0; stroke-opacity: 0.3; stroke-width: 0.8; stroke-linecap: square"/>
     </g>
     <g id="line2d_22">
      <g>
       <use xlink:href="#m95f0cda963" x="63.9186" y="106.504714" style="stroke: #000000; stroke-width: 0.8"/>
      </g>
     </g>
     <g id="text_12">
      <!-- $\mathdefault{60}$ -->
      <g transform="translate(41.310626 112.039508) scale(0.16 -0.16)">
       <defs>
        <path id="CMR17-36" d="M 678 2198 
C 678 3712 1395 4076 1811 4076 
C 1946 4076 2272 4049 2400 3782 
C 2298 3782 2106 3782 2106 3558 
C 2106 3385 2246 3328 2336 3328 
C 2394 3328 2566 3353 2566 3571 
C 2566 3987 2246 4224 1805 4224 
C 1043 4224 243 3411 243 2011 
C 243 257 966 -128 1478 -128 
C 2099 -128 2688 431 2688 1295 
C 2688 2101 2170 2688 1517 2688 
C 1126 2688 838 2430 678 1979 
L 678 2198 
z
M 1478 25 
C 691 25 691 1212 691 1450 
C 691 1914 909 2585 1504 2585 
C 1613 2585 1926 2585 2138 2140 
C 2253 1889 2253 1624 2253 1302 
C 2253 954 2253 696 2118 438 
C 1978 173 1773 25 1478 25 
z
" transform="scale(0.015625)"/>
       </defs>
       <use xlink:href="#CMR17-36" transform="scale(0.996264)"/>
       <use xlink:href="#CMR17-30" transform="translate(45.690477 0) scale(0.996264)"/>
      </g>
     </g>
    </g>
    <g id="ytick_7">
     <g id="line2d_23">
      <path d="M 63.9186 60.498262 
L 417.523879 60.498262 
" clip-path="url(#p46541e5671)" style="fill: none; stroke: #b0b0b0; stroke-opacity: 0.3; stroke-width: 0.8; stroke-linecap: square"/>
     </g>
     <g id="line2d_24">
      <g>
       <use xlink:href="#m95f0cda963" x="63.9186" y="60.498262" style="stroke: #000000; stroke-width: 0.8"/>
      </g>
     </g>
     <g id="text_13">
      <!-- $\mathdefault{80}$ -->
      <g transform="translate(41.310626 66.033056) scale(0.16 -0.16)">
       <defs>
        <path id="CMR17-38" d="M 1741 2289 
C 2144 2494 2554 2803 2554 3298 
C 2554 3884 1990 4224 1472 4224 
C 890 4224 378 3800 378 3215 
C 378 3054 416 2777 666 2533 
C 730 2469 998 2276 1171 2154 
C 883 2006 211 1652 211 945 
C 211 282 838 -128 1459 -128 
C 2144 -128 2720 366 2720 1022 
C 2720 1607 2330 1877 2074 2051 
L 1741 2289 
z
M 902 2855 
C 851 2887 595 3086 595 3388 
C 595 3781 998 4076 1459 4076 
C 1965 4076 2336 3716 2336 3298 
C 2336 2700 1670 2359 1638 2359 
C 1632 2359 1626 2359 1574 2398 
L 902 2855 
z
M 2080 1536 
C 2176 1466 2483 1253 2483 861 
C 2483 385 2010 25 1472 25 
C 890 25 448 443 448 951 
C 448 1459 838 1884 1280 2083 
L 2080 1536 
z
" transform="scale(0.015625)"/>
       </defs>
       <use xlink:href="#CMR17-38" transform="scale(0.996264)"/>
       <use xlink:href="#CMR17-30" transform="translate(45.690477 0) scale(0.996264)"/>
      </g>
     </g>
    </g>
    <g id="ytick_8">
     <g id="line2d_25">
      <path d="M 63.9186 14.49181 
L 417.523879 14.49181 
" clip-path="url(#p46541e5671)" style="fill: none; stroke: #b0b0b0; stroke-opacity: 0.3; stroke-width: 0.8; stroke-linecap: square"/>
     </g>
     <g id="line2d_26">
      <g>
       <use xlink:href="#m95f0cda963" x="63.9186" y="14.49181" style="stroke: #000000; stroke-width: 0.8"/>
      </g>
     </g>
     <g id="text_14">
      <!-- $\mathdefault{100}$ -->
      <g transform="translate(33.506639 20.026604) scale(0.16 -0.16)">
       <use xlink:href="#CMR17-31" transform="scale(0.996264)"/>
       <use xlink:href="#CMR17-30" transform="translate(45.690477 0) scale(0.996264)"/>
       <use xlink:href="#CMR17-30" transform="translate(91.380954 0) scale(0.996264)"/>
      </g>
     </g>
    </g>
    <g id="text_15">
     <!-- Return -->
     <g transform="translate(21.036997 219.822038) rotate(-90) scale(0.2 -0.2)">
      <defs>
       <path id="CMR17-52" d="M 2509 2156 
C 3117 2278 3629 2689 3629 3203 
C 3629 3806 2950 4352 2054 4352 
L 333 4352 
L 333 4185 
C 774 4185 845 4185 845 3896 
L 845 428 
C 845 140 774 140 333 140 
L 333 -26 
C 518 -13 851 -13 1050 -13 
C 1248 -13 1581 -13 1766 -26 
L 1766 140 
C 1325 140 1254 140 1254 428 
L 1254 2112 
L 2003 2112 
C 2368 2112 2573 1964 2662 1881 
C 2918 1632 2918 1459 2918 1024 
C 2918 595 2918 377 3110 160 
C 3354 -103 3680 -128 3821 -128 
C 4294 -128 4365 403 4365 512 
C 4365 550 4365 595 4307 595 
C 4256 595 4250 556 4250 531 
C 4218 115 4032 -26 3834 -26 
C 3482 -26 3443 377 3405 768 
C 3386 902 3373 998 3360 1139 
C 3322 1459 3270 1926 2509 2156 
z
M 1984 2214 
L 1254 2214 
L 1254 3935 
C 1254 4153 1267 4185 1523 4185 
L 1990 4185 
C 2522 4185 3142 3999 3142 3203 
C 3142 2374 2464 2214 1984 2214 
z
" transform="scale(0.015625)"/>
       <path id="CMR17-75" d="M 1882 2745 
L 1882 2579 
C 2259 2579 2317 2540 2317 2229 
L 2317 1053 
C 2317 510 2029 38 1555 38 
C 1030 38 986 355 986 691 
L 986 2816 
L 211 2745 
L 211 2579 
C 467 2579 640 2579 646 2320 
L 646 1079 
C 646 646 646 368 813 187 
C 896 103 1056 -64 1517 -64 
C 2061 -64 2272 400 2323 536 
L 2330 536 
L 2330 -64 
L 3091 -13 
L 3091 154 
C 2714 154 2656 193 2656 503 
L 2656 2816 
L 1882 2745 
z
" transform="scale(0.015625)"/>
      </defs>
      <use xlink:href="#CMR17-52" transform="scale(0.996264)"/>
      <use xlink:href="#CMR17-65" transform="translate(67.791102 0) scale(0.996264)"/>
      <use xlink:href="#CMR17-74" transform="translate(108.276762 0) scale(0.996264)"/>
      <use xlink:href="#CMR17-75" transform="translate(143.55753 0) scale(0.996264)"/>
      <use xlink:href="#CMR17-72" transform="translate(194.4529 0) scale(0.996264)"/>
      <use xlink:href="#CMR17-6e" transform="translate(229.733668 0) scale(0.996264)"/>
     </g>
    </g>
   </g>
   <g id="line2d_27">
    <path d="M 79.991568 245.831682 
L 81.282569 246.22562 
L 82.57357 246.496847 
L 83.864572 296.195902 
L 85.155573 323.234237 
L 86.446575 171.635238 
L 87.737576 75.850323 
L 89.028577 60.201636 
L 90.319579 56.223125 
L 91.61058 48.468416 
L 92.901581 46.588978 
L 94.192583 40.593053 
L 95.483584 45.059323 
L 96.774586 35.330867 
L 98.065587 34.716062 
L 99.356588 36.924904 
L 101.938591 40.066939 
L 103.229593 36.702486 
L 104.520594 37.25357 
L 105.811595 35.708188 
L 107.102597 30.637247 
L 108.393598 27.705169 
L 109.684599 27.866939 
L 110.975601 27.379244 
L 113.557604 27.790616 
L 114.848605 27.503497 
L 116.139606 26.863548 
L 117.430608 27.276335 
L 118.721609 26.959503 
L 120.012611 27.342352 
L 121.303612 27.501528 
L 122.594613 27.262019 
L 125.176616 27.863417 
L 126.467617 27.580122 
L 127.758619 28.336325 
L 129.04962 28.137971 
L 130.340622 29.266053 
L 131.631623 28.429429 
L 132.922624 27.982019 
L 135.504627 28.387561 
L 136.795629 28.324342 
L 138.08663 27.686185 
L 139.377631 28.497206 
L 140.668633 27.995303 
L 143.250635 28.285535 
L 144.541637 27.891109 
L 145.832638 28.121204 
L 147.12364 28.093851 
L 148.414641 27.907398 
L 150.996644 28.139509 
L 154.869648 27.706339 
L 156.160649 27.964299 
L 157.451651 27.557316 
L 158.742652 28.924184 
L 160.033653 27.953722 
L 161.324655 27.443255 
L 162.615656 27.511298 
L 163.906658 27.210224 
L 165.197659 27.588554 
L 169.070663 27.437833 
L 170.361665 27.876755 
L 174.234669 27.960754 
L 176.816671 28.246619 
L 178.107673 28.305899 
L 180.689676 27.995164 
L 181.980677 27.919447 
L 183.271678 28.460327 
L 184.56268 27.978617 
L 187.144683 28.248217 
L 188.435684 28.079274 
L 189.726685 28.055827 
L 191.017687 28.508202 
L 192.308688 27.955831 
L 193.599689 28.184145 
L 194.890691 28.105206 
L 197.472694 28.239614 
L 198.763695 28.203745 
L 200.054696 27.915144 
L 201.345698 27.955564 
L 203.9277 28.257744 
L 205.218702 28.23943 
L 206.509703 28.524431 
L 207.800705 28.069419 
L 209.091706 27.792913 
L 210.382707 28.258974 
L 212.96471 28.300705 
L 214.255712 28.044441 
L 215.546713 28.273605 
L 216.837714 28.003874 
L 218.128716 28.01561 
L 219.419717 27.854416 
L 220.710718 28.210038 
L 222.00172 28.132024 
L 223.292721 28.405325 
L 225.874724 28.00425 
L 227.165725 28.164155 
L 233.620732 28.094646 
L 234.911734 28.651016 
L 236.202735 28.163623 
L 237.493736 28.086034 
L 241.366741 28.169853 
L 242.657742 27.968848 
L 245.239745 28.046102 
L 246.530746 28.515109 
L 247.821748 28.203178 
L 249.112749 28.229556 
L 250.40375 27.99334 
L 251.694752 28.144399 
L 254.276754 28.08323 
L 256.858757 28.404885 
L 258.149759 28.024243 
L 259.44076 28.231381 
L 260.731761 28.016947 
L 263.313764 28.059524 
L 264.604766 28.428233 
L 267.186768 28.300772 
L 277.514779 28.28428 
L 278.805781 28.537553 
L 280.096782 28.400835 
L 281.387784 28.615957 
L 282.678785 28.316226 
L 285.260788 28.422773 
L 286.551789 28.388512 
L 287.84279 28.146366 
L 289.133792 28.463349 
L 290.424793 28.410117 
L 291.715795 28.229245 
L 294.297797 28.594321 
L 295.588799 28.641563 
L 299.461803 28.313369 
L 300.752804 28.580012 
L 302.043806 28.725067 
L 303.334807 28.716257 
L 304.625808 28.204767 
L 305.91681 28.287382 
L 307.207811 28.653912 
L 308.498813 28.367321 
L 309.789814 28.713604 
L 311.080815 28.353375 
L 312.371817 28.394743 
L 313.662818 28.649717 
L 314.95382 28.387688 
L 316.244821 28.624521 
L 317.535822 28.136247 
L 318.826824 28.475332 
L 321.408826 28.414974 
L 322.699828 28.634938 
L 323.990829 28.47925 
L 325.281831 28.468895 
L 326.572832 28.291169 
L 327.863833 28.489364 
L 329.154835 28.192296 
L 330.445836 28.500196 
L 331.736838 28.50909 
L 334.31884 28.26314 
L 335.609842 28.502041 
L 344.646851 28.406159 
L 345.937853 28.50193 
L 347.228854 28.369573 
L 349.810857 28.633073 
L 351.101858 28.45382 
L 353.683861 28.721446 
L 356.265864 28.443817 
L 361.429869 28.716902 
L 362.720871 28.392278 
L 364.011872 28.581943 
L 365.302873 28.65284 
L 366.593875 28.56243 
L 367.884876 28.733349 
L 369.175878 28.298559 
L 370.466879 28.554037 
L 371.75788 28.61676 
L 373.048882 28.555353 
L 374.339883 28.271498 
L 375.630885 28.344313 
L 378.212887 28.770896 
L 379.503889 28.271195 
L 380.79489 28.46274 
L 382.085891 28.286181 
L 384.667894 28.384761 
L 385.958896 28.196538 
L 391.122901 28.440792 
L 392.413903 28.40264 
L 393.704904 28.516449 
L 396.286907 28.291462 
L 398.868909 28.558902 
L 400.159911 28.380409 
L 401.450912 28.496383 
L 401.450912 28.496383 
" clip-path="url(#p46541e5671)" style="fill: none; stroke: #d66b6a; stroke-width: 1.5; stroke-linecap: square"/>
   </g>
   <g id="line2d_28">
    <path d="M 79.991568 244.771214 
L 81.282569 246.544623 
L 83.864572 260.196141 
L 85.155573 281.715709 
L 86.446575 341.845829 
L 87.737576 359.518524 
L 89.028577 342.300074 
L 90.319579 290.432466 
L 91.61058 246.920197 
L 92.901581 28.518614 
L 94.192583 30.057117 
L 95.483584 28.086681 
L 96.774586 35.52814 
L 98.065587 41.859437 
L 99.356588 41.12081 
L 100.64759 44.435458 
L 101.938591 49.39693 
L 103.229593 36.502395 
L 104.520594 31.978358 
L 105.811595 30.962705 
L 107.102597 31.862062 
L 108.393598 27.846396 
L 109.684599 27.208593 
L 110.975601 27.810791 
L 112.266602 28.20099 
L 113.557604 26.826541 
L 116.139606 27.227084 
L 117.430608 26.991313 
L 120.012611 27.110674 
L 121.303612 26.950324 
L 122.594613 27.691668 
L 123.885615 27.937194 
L 125.176616 28.06447 
L 126.467617 28.434493 
L 127.758619 28.640892 
L 129.04962 28.361212 
L 131.631623 28.769402 
L 132.922624 28.395207 
L 134.213626 28.410359 
L 135.504627 28.8532 
L 138.08663 28.583169 
L 139.377631 28.965311 
L 140.668633 28.509958 
L 141.959634 28.873561 
L 144.541637 28.993959 
L 145.832638 28.729717 
L 147.12364 29.180132 
L 148.414641 29.475722 
L 149.705642 28.963971 
L 150.996644 28.729082 
L 152.287645 28.612448 
L 153.578647 29.091683 
L 154.869648 28.684627 
L 156.160649 29.048022 
L 157.451651 29.662174 
L 158.742652 29.092998 
L 160.033653 28.805189 
L 162.615656 29.339265 
L 163.906658 28.679009 
L 165.197659 29.275103 
L 166.48866 29.392829 
L 167.779662 29.206459 
L 169.070663 29.380637 
L 171.652666 29.066287 
L 175.52567 29.210887 
L 176.816671 29.422045 
L 178.107673 29.217624 
L 179.398674 28.78953 
L 180.689676 28.983493 
L 181.980677 28.626877 
L 183.271678 29.131325 
L 184.56268 29.033976 
L 185.853681 29.381551 
L 187.144683 29.12854 
L 188.435684 29.415472 
L 189.726685 29.563071 
L 191.017687 29.143406 
L 192.308688 28.882779 
L 193.599689 29.42098 
L 194.890691 29.57693 
L 196.181692 28.879791 
L 197.472694 29.135106 
L 198.763695 28.873819 
L 201.345698 29.060914 
L 202.636699 28.999637 
L 203.9277 29.333871 
L 205.218702 29.222749 
L 206.509703 29.24501 
L 207.800705 28.611392 
L 209.091706 29.145043 
L 210.382707 29.055258 
L 211.673709 29.614521 
L 212.96471 29.408927 
L 214.255712 29.586811 
L 215.546713 29.290129 
L 216.837714 29.524809 
L 218.128716 29.316091 
L 219.419717 30.057688 
L 220.710718 29.140138 
L 222.00172 29.236643 
L 223.292721 29.777201 
L 224.583723 29.432642 
L 225.874724 29.547437 
L 227.165725 29.919158 
L 228.456727 29.237936 
L 229.747728 30.614783 
L 232.329731 29.730145 
L 233.620732 30.647746 
L 234.911734 30.790745 
L 236.202735 30.594825 
L 237.493736 30.962575 
L 238.784738 30.903805 
L 241.366741 31.895276 
L 243.948743 31.576712 
L 245.239745 32.227008 
L 246.530746 31.831474 
L 247.821748 32.180975 
L 249.112749 31.524488 
L 250.40375 31.741623 
L 251.694752 32.603097 
L 252.985753 31.952431 
L 254.276754 32.112288 
L 256.858757 31.691184 
L 258.149759 31.689567 
L 259.44076 32.076581 
L 260.731761 32.331739 
L 262.022763 31.931994 
L 263.313764 32.686416 
L 264.604766 31.972438 
L 265.895767 32.681284 
L 267.186768 31.851069 
L 268.47777 31.758392 
L 269.768771 32.202073 
L 271.059772 31.320594 
L 272.350774 30.660502 
L 273.641775 30.677747 
L 274.932777 30.286015 
L 276.223778 30.895097 
L 277.514779 31.297028 
L 278.805781 31.532684 
L 280.096782 30.730275 
L 281.387784 30.151225 
L 282.678785 30.211697 
L 283.969786 30.574089 
L 285.260788 30.592781 
L 286.551789 30.913643 
L 287.84279 30.561337 
L 289.133792 31.050914 
L 290.424793 30.93337 
L 291.715795 31.506006 
L 293.006796 31.092133 
L 294.297797 31.782704 
L 295.588799 31.139222 
L 296.8798 31.427446 
L 298.170802 31.476807 
L 299.461803 30.829038 
L 300.752804 31.93628 
L 302.043806 31.30733 
L 303.334807 31.580165 
L 304.625808 31.141975 
L 305.91681 32.065405 
L 307.207811 32.144549 
L 308.498813 31.622371 
L 309.789814 32.434851 
L 311.080815 32.498951 
L 312.371817 31.851995 
L 314.95382 32.210749 
L 316.244821 32.8928 
L 318.826824 31.927387 
L 322.699828 32.636912 
L 323.990829 30.981587 
L 325.281831 31.565263 
L 326.572832 32.33558 
L 327.863833 30.712301 
L 329.154835 32.759684 
L 330.445836 31.356001 
L 331.736838 31.984486 
L 333.027839 31.817235 
L 334.31884 31.505313 
L 335.609842 31.318353 
L 336.900843 31.8713 
L 338.191844 31.993917 
L 339.482846 30.899081 
L 340.773847 31.369652 
L 342.064849 31.105781 
L 343.35585 31.398669 
L 344.646851 30.772148 
L 345.937853 31.523239 
L 347.228854 31.312403 
L 348.519855 31.856347 
L 349.810857 31.210191 
L 351.101858 32.270319 
L 352.39286 31.693792 
L 353.683861 30.891153 
L 354.974862 31.045409 
L 356.265864 31.666332 
L 358.847867 32.004376 
L 360.138868 31.552069 
L 361.429869 31.443787 
L 362.720871 31.472671 
L 364.011872 32.461368 
L 365.302873 31.351845 
L 366.593875 31.457135 
L 367.884876 32.097686 
L 369.175878 32.427563 
L 370.466879 31.821939 
L 373.048882 31.063974 
L 374.339883 31.900695 
L 375.630885 32.185747 
L 376.921886 32.238243 
L 378.212887 32.478173 
L 379.503889 31.884719 
L 382.085891 32.303924 
L 383.376893 32.157353 
L 384.667894 32.43994 
L 385.958896 31.848627 
L 387.249897 33.493935 
L 388.540898 33.096981 
L 389.8319 33.161873 
L 391.122901 33.013404 
L 392.413903 31.307786 
L 393.704904 32.733322 
L 394.995905 32.04959 
L 396.286907 32.659406 
L 397.577908 31.744112 
L 401.450912 31.090276 
L 401.450912 31.090276 
" clip-path="url(#p46541e5671)" style="fill: none; stroke: #5591e1; stroke-width: 1.5; stroke-linecap: square"/>
   </g>
   <g id="line2d_29">
    <path d="M 79.991568 244.661089 
L 81.282569 359.539971 
L 85.155573 359.540169 
L 86.446575 317.749763 
L 87.737576 263.676456 
L 89.028577 266.57031 
L 90.319579 273.144877 
L 91.61058 283.080053 
L 92.901581 290.863509 
L 94.192583 289.948425 
L 95.483584 286.062423 
L 96.774586 330.393383 
L 98.065587 330.370897 
L 99.356588 330.606264 
L 100.64759 330.347315 
L 101.938591 287.118574 
L 103.229593 223.823179 
L 104.520594 223.949229 
L 105.811595 224.647241 
L 107.102597 224.237643 
L 109.684599 222.994676 
L 110.975601 223.294925 
L 112.266602 223.328678 
L 113.557604 199.236684 
L 114.848605 99.643273 
L 116.139606 99.683096 
L 117.430608 98.937875 
L 118.721609 99.083799 
L 120.012611 98.458523 
L 122.594613 99.860204 
L 123.885615 99.520703 
L 125.176616 100.254621 
L 126.467617 99.567405 
L 127.758619 99.622702 
L 129.04962 99.905987 
L 130.340622 101.546369 
L 131.631623 101.471434 
L 132.922624 101.825155 
L 134.213626 101.542758 
L 135.504627 100.239312 
L 136.795629 101.503702 
L 138.08663 100.525516 
L 139.377631 101.261497 
L 140.668633 101.77582 
L 141.959634 101.967606 
L 143.250635 101.705088 
L 144.541637 101.126439 
L 145.832638 100.911613 
L 147.12364 99.385109 
L 148.414641 29.543531 
L 149.705642 29.821043 
L 150.996644 29.635354 
L 153.578647 29.794371 
L 154.869648 29.591713 
L 170.361665 29.629149 
L 171.652666 29.754218 
L 183.271678 29.716227 
L 184.56268 29.600308 
L 188.435684 29.692655 
L 191.017687 29.648293 
L 192.308688 29.732912 
L 193.599689 29.629944 
L 194.890691 29.721966 
L 196.181692 29.592732 
L 197.472694 29.736956 
L 200.054696 29.579518 
L 203.9277 29.713639 
L 206.509703 29.587948 
L 207.800705 29.684726 
L 209.091706 29.579531 
L 210.382707 29.680164 
L 216.837714 29.69036 
L 219.419717 29.633993 
L 224.583723 29.663963 
L 228.456727 29.646166 
L 231.03873 29.581309 
L 237.493736 29.656455 
L 245.239745 29.591204 
L 247.821748 29.582975 
L 255.567756 29.623246 
L 262.022763 29.639728 
L 264.604766 29.677649 
L 268.47777 29.658154 
L 272.350774 29.620722 
L 283.969786 29.655257 
L 286.551789 29.699444 
L 289.133792 29.690054 
L 299.461803 29.69012 
L 304.625808 29.65997 
L 305.91681 29.703517 
L 307.207811 29.619701 
L 312.371817 29.651807 
L 318.826824 29.628474 
L 323.990829 29.725761 
L 325.281831 29.643315 
L 327.863833 29.629014 
L 329.154835 29.578522 
L 331.736838 29.694164 
L 340.773847 29.606428 
L 342.064849 29.695262 
L 347.228854 29.591982 
L 348.519855 29.654281 
L 349.810857 29.586923 
L 351.101858 29.702903 
L 352.39286 29.624414 
L 353.683861 29.707212 
L 354.974862 29.613964 
L 357.556865 29.716813 
L 360.138868 29.610629 
L 361.429869 29.695173 
L 364.011872 29.652582 
L 365.302873 29.610278 
L 366.593875 29.714333 
L 374.339883 29.612322 
L 375.630885 29.675836 
L 378.212887 29.582853 
L 380.79489 29.633086 
L 382.085891 29.562162 
L 385.958896 29.62589 
L 391.122901 29.591537 
L 393.704904 29.643302 
L 401.450912 29.673445 
L 401.450912 29.673445 
" clip-path="url(#p46541e5671)" style="fill: none; stroke: #6ca247; stroke-width: 1.5; stroke-linecap: square"/>
   </g>
   <g id="patch_3">
    <path d="M 63.9186 376.318305 
L 63.9186 7.2 
" style="fill: none; stroke: #000000; stroke-width: 0.8; stroke-linejoin: miter; stroke-linecap: square"/>
   </g>
   <g id="patch_4">
    <path d="M 417.523879 376.318305 
L 417.523879 7.2 
" style="fill: none; stroke: #000000; stroke-width: 0.8; stroke-linejoin: miter; stroke-linecap: square"/>
   </g>
   <g id="patch_5">
    <path d="M 63.9186 376.318305 
L 417.523879 376.318305 
" style="fill: none; stroke: #000000; stroke-width: 0.8; stroke-linejoin: miter; stroke-linecap: square"/>
   </g>
   <g id="patch_6">
    <path d="M 63.9186 7.2 
L 417.523879 7.2 
" style="fill: none; stroke: #000000; stroke-width: 0.8; stroke-linejoin: miter; stroke-linecap: square"/>
   </g>
   <g id="legend_1">
    <g id="patch_7">
     <path d="M 308.417969 368.318305 
L 406.323879 368.318305 
Q 409.523879 368.318305 409.523879 365.118305 
L 409.523879 299.819877 
Q 409.523879 296.619877 406.323879 296.619877 
L 308.417969 296.619877 
Q 305.217969 296.619877 305.217969 299.819877 
L 305.217969 365.118305 
Q 305.217969 368.318305 308.417969 368.318305 
z
" style="fill: #ffffff; opacity: 0.8; stroke: #cccccc; stroke-linejoin: miter"/>
    </g>
    <g id="line2d_30">
     <path d="M 311.617969 308.619877 
L 327.617969 308.619877 
L 343.617969 308.619877 
" style="fill: none; stroke: #d66b6a; stroke-width: 1.5; stroke-linecap: square"/>
    </g>
    <g id="text_16">
     <!-- SAC -->
     <g transform="translate(356.417969 314.219877) scale(0.16 -0.16)">
      <defs>
       <path id="CMR17-41" d="M 2323 4441 
C 2291 4524 2278 4544 2214 4544 
C 2150 4544 2138 4524 2106 4441 
L 749 580 
C 627 236 371 166 147 166 
L 147 0 
C 262 12 518 12 640 12 
C 800 12 1056 12 1210 0 
L 1210 166 
C 909 179 864 382 864 459 
C 864 516 877 548 890 586 
L 1229 1536 
L 2906 1536 
L 3290 453 
C 3322 376 3322 363 3322 338 
C 3322 166 3046 166 2925 166 
L 2925 0 
C 3110 12 3443 12 3642 12 
C 3808 12 4128 12 4282 0 
L 4282 166 
C 3942 166 3827 166 3744 402 
L 2323 4441 
z
M 2067 3924 
L 2848 1702 
L 1286 1702 
L 2067 3924 
z
" transform="scale(0.015625)"/>
       <path id="CMR17-43" d="M 3974 4351 
C 3974 4467 3968 4473 3930 4473 
C 3904 4473 3898 4467 3853 4390 
L 3571 3849 
C 3258 4249 2874 4480 2381 4480 
C 1286 4480 294 3507 294 2179 
C 294 837 1286 -128 2387 -128 
C 3366 -128 3974 741 3974 1482 
C 3974 1547 3974 1573 3917 1573 
C 3866 1573 3866 1553 3859 1495 
C 3808 592 3168 38 2477 38 
C 1824 38 781 502 781 2179 
C 781 3862 1843 4313 2464 4313 
C 3187 4313 3712 3681 3834 2785 
C 3846 2707 3846 2695 3904 2695 
C 3974 2695 3974 2707 3974 2824 
L 3974 4351 
z
" transform="scale(0.015625)"/>
      </defs>
      <use xlink:href="#CMR17-53" transform="scale(0.996264)"/>
      <use xlink:href="#CMR17-41" transform="translate(50.89537 0) scale(0.996264)"/>
      <use xlink:href="#CMR17-43" transform="translate(117.365346 0) scale(0.996264)"/>
     </g>
    </g>
    <g id="line2d_31">
     <path d="M 311.617969 330.919353 
L 327.617969 330.919353 
L 343.617969 330.919353 
" style="fill: none; stroke: #5591e1; stroke-width: 1.5; stroke-linecap: square"/>
    </g>
    <g id="text_17">
     <!-- AFU -->
     <g transform="translate(356.417969 336.519353) scale(0.16 -0.16)">
      <defs>
       <path id="CMR17-46" d="M 3482 4339 
L 326 4339 
L 326 4172 
C 768 4172 838 4172 838 3883 
L 838 450 
C 838 166 768 166 326 166 
L 326 0 
C 512 12 870 12 1069 12 
C 1331 12 1638 12 1901 0 
L 1901 166 
L 1760 166 
C 1274 166 1261 229 1261 456 
L 1261 2073 
L 1837 2073 
C 2432 2073 2490 1865 2490 1334 
L 2605 1334 
L 2605 2991 
L 2490 2991 
C 2490 2451 2432 2240 1837 2240 
L 1261 2240 
L 1261 3922 
C 1261 4140 1274 4172 1530 4172 
L 2355 4172 
C 3322 4172 3430 3774 3520 2920 
L 3635 2920 
L 3482 4339 
z
" transform="scale(0.015625)"/>
       <path id="CMR17-55" d="M 3456 1442 
C 3456 583 2899 38 2291 38 
C 1965 38 1670 211 1491 480 
C 1286 788 1261 1185 1261 1410 
L 1261 3897 
C 1261 4185 1331 4185 1773 4185 
L 1773 4352 
C 1587 4339 1248 4339 1050 4339 
C 851 4339 512 4339 326 4352 
L 326 4185 
C 768 4185 838 4185 838 3897 
L 838 1442 
C 838 519 1536 -128 2278 -128 
C 3110 -128 3590 724 3590 1352 
L 3590 3788 
C 3590 4147 3917 4185 4102 4185 
L 4102 4352 
C 3955 4339 3686 4339 3526 4339 
C 3366 4339 3091 4339 2944 4352 
L 2944 4185 
C 3456 4185 3456 3884 3456 3724 
L 3456 1442 
z
" transform="scale(0.015625)"/>
      </defs>
      <use xlink:href="#CMR17-41" transform="scale(0.996264)"/>
      <use xlink:href="#CMR17-46" transform="translate(69.07243 0) scale(0.996264)"/>
      <use xlink:href="#CMR17-55" transform="translate(129.056276 0) scale(0.996264)"/>
     </g>
    </g>
    <g id="line2d_32">
     <path d="M 311.617969 353.218829 
L 327.617969 353.218829 
L 343.617969 353.218829 
" style="fill: none; stroke: #6ca247; stroke-width: 1.5; stroke-linecap: square"/>
    </g>
    <g id="text_18">
     <!-- DDPG -->
     <g transform="translate(356.417969 358.818829) scale(0.16 -0.16)">
      <defs>
       <path id="CMR17-44" d="M 333 4352 
L 333 4185 
C 774 4185 845 4185 845 3898 
L 845 453 
C 845 166 774 166 333 166 
L 333 0 
L 2368 0 
C 3398 0 4224 943 4224 2140 
C 4224 3344 3411 4352 2368 4352 
L 333 4352 
z
M 1523 166 
C 1267 166 1254 198 1254 414 
L 1254 3936 
C 1254 4153 1267 4185 1523 4185 
L 2240 4185 
C 2771 4185 3750 3873 3750 2140 
C 3750 1242 3488 879 3366 707 
C 3213 510 2848 166 2240 166 
L 1523 166 
z
" transform="scale(0.015625)"/>
       <path id="CMR17-50" d="M 1267 2048 
L 2291 2048 
C 3117 2048 3718 2583 3718 3187 
C 3718 3791 3130 4352 2291 4352 
L 333 4352 
L 333 4185 
C 774 4185 845 4185 845 3899 
L 845 453 
C 845 166 774 166 333 166 
L 333 0 
C 518 12 858 12 1056 12 
C 1254 12 1594 12 1779 0 
L 1779 166 
C 1338 166 1267 166 1267 453 
L 1267 2048 
z
M 1254 2182 
L 1254 3937 
C 1254 4153 1267 4185 1523 4185 
L 2170 4185 
C 2995 4185 3232 3715 3232 3187 
C 3232 2608 2950 2182 2170 2182 
L 1254 2182 
z
" transform="scale(0.015625)"/>
       <path id="CMR17-47" d="M 3974 1258 
C 3974 1503 3994 1536 4390 1536 
L 4390 1702 
C 4237 1689 3891 1689 3718 1689 
C 3539 1689 3040 1696 2797 1702 
L 2797 1536 
L 2989 1536 
C 3539 1536 3552 1464 3552 1232 
L 3552 806 
C 3552 96 2720 38 2522 38 
C 1862 38 781 496 781 2179 
C 781 3862 1843 4313 2464 4313 
C 3187 4313 3712 3681 3834 2785 
C 3846 2708 3846 2695 3904 2695 
C 3974 2695 3974 2708 3974 2824 
L 3974 4351 
C 3974 4467 3968 4473 3930 4473 
C 3904 4473 3898 4467 3853 4390 
L 3571 3849 
C 3258 4249 2874 4480 2381 4480 
C 1286 4480 294 3507 294 2179 
C 294 858 1267 -128 2394 -128 
C 2912 -128 3418 57 3616 425 
C 3725 161 3904 -20 3936 -20 
C 3968 -20 3974 -13 3974 102 
L 3974 1258 
z
" transform="scale(0.015625)"/>
      </defs>
      <use xlink:href="#CMR17-44" transform="scale(0.996264)"/>
      <use xlink:href="#CMR17-44" transform="translate(70.393556 0) scale(0.996264)"/>
      <use xlink:href="#CMR17-50" transform="translate(140.787112 0) scale(0.996264)"/>
      <use xlink:href="#CMR17-47" transform="translate(203.373412 0) scale(0.996264)"/>
     </g>
    </g>
   </g>
  </g>
 </g>
 <defs>
  <clipPath id="p46541e5671">
   <rect x="63.9186" y="7.2" width="353.605279" height="369.118305"/>
  </clipPath>
 </defs>
</svg>
