<?xml version="1.0" encoding="utf-8" standalone="no"?>
<!DOCTYPE svg PUBLIC "-//W3C//DTD SVG 1.1//EN"
  "http://www.w3.org/Graphics/SVG/1.1/DTD/svg11.dtd">
<svg xmlns:xlink="http://www.w3.org/1999/xlink" width="432pt" height="432pt" viewBox="0 0 432 432" xmlns="http://www.w3.org/2000/svg" version="1.1">
 <metadata>
  <rdf:RDF xmlns:dc="http://purl.org/dc/elements/1.1/" xmlns:cc="http://creativecommons.org/ns#" xmlns:rdf="http://www.w3.org/1999/02/22-rdf-syntax-ns#">
   <cc:Work>
    <dc:type rdf:resource="http://purl.org/dc/dcmitype/StillImage"/>
    <dc:date>1980-01-01T00:00:00+00:00</dc:date>
    <dc:format>image/svg+xml</dc:format>
    <dc:creator>
     <cc:Agent>
      <dc:title>Matplotlib v3.8.0, https://matplotlib.org/</dc:title>
     </cc:Agent>
    </dc:creator>
   </cc:Work>
  </rdf:RDF>
 </metadata>
 <defs>
  <style type="text/css">*{stroke-linejoin: round; stroke-linecap: butt}</style>
 </defs>
 <g id="figure_1">
  <g id="patch_1">
   <path d="M 0 432 
L 432 432 
L 432 0 
L 0 0 
z
" style="fill: #ffffff"/>
  </g>
  <g id="axes_1">
   <g id="patch_2">
    <path d="M 73.724591 367.518305 
L 409.68683 367.518305 
L 409.68683 21.6 
L 73.724591 21.6 
z
" style="fill: #ffffff"/>
   </g>
   <g id="patch_3">
    <path d="M 88.995602 367.518305 
L 94.498669 367.518305 
L 94.498669 367.518305 
L 88.995602 367.518305 
z
" clip-path="url(#p6e21b73f97)" style="fill: #d66b6a; opacity: 0.7"/>
   </g>
   <g id="patch_4">
    <path d="M 109.632103 367.518305 
L 115.13517 367.518305 
L 115.13517 367.518305 
L 109.632103 367.518305 
z
" clip-path="url(#p6e21b73f97)" style="fill: #d66b6a; opacity: 0.7"/>
   </g>
   <g id="patch_5">
    <path d="M 130.268605 367.518305 
L 135.771671 367.518305 
L 135.771671 367.518305 
L 130.268605 367.518305 
z
" clip-path="url(#p6e21b73f97)" style="fill: #d66b6a; opacity: 0.7"/>
   </g>
   <g id="patch_6">
    <path d="M 150.905106 367.518305 
L 156.408173 367.518305 
L 156.408173 367.518305 
L 150.905106 367.518305 
z
" clip-path="url(#p6e21b73f97)" style="fill: #d66b6a; opacity: 0.7"/>
   </g>
   <g id="patch_7">
    <path d="M 171.541607 367.518305 
L 177.044674 367.518305 
L 177.044674 367.518305 
L 171.541607 367.518305 
z
" clip-path="url(#p6e21b73f97)" style="fill: #d66b6a; opacity: 0.7"/>
   </g>
   <g id="patch_8">
    <path d="M 192.178108 367.518305 
L 197.681175 367.518305 
L 197.681175 367.518305 
L 192.178108 367.518305 
z
" clip-path="url(#p6e21b73f97)" style="fill: #d66b6a; opacity: 0.7"/>
   </g>
   <g id="patch_9">
    <path d="M 212.814609 367.518305 
L 218.317676 367.518305 
L 218.317676 367.518305 
L 212.814609 367.518305 
z
" clip-path="url(#p6e21b73f97)" style="fill: #d66b6a; opacity: 0.7"/>
   </g>
   <g id="patch_10">
    <path d="M 233.45111 367.518305 
L 238.954177 367.518305 
L 238.954177 367.518305 
L 233.45111 367.518305 
z
" clip-path="url(#p6e21b73f97)" style="fill: #d66b6a; opacity: 0.7"/>
   </g>
   <g id="patch_11">
    <path d="M 254.087611 367.518305 
L 259.590678 367.518305 
L 259.590678 367.049676 
L 254.087611 367.049676 
z
" clip-path="url(#p6e21b73f97)" style="fill: #d66b6a; opacity: 0.7"/>
   </g>
   <g id="patch_12">
    <path d="M 274.724113 367.518305 
L 280.227179 367.518305 
L 280.227179 366.112419 
L 274.724113 366.112419 
z
" clip-path="url(#p6e21b73f97)" style="fill: #d66b6a; opacity: 0.7"/>
   </g>
   <g id="patch_13">
    <path d="M 295.360614 367.518305 
L 300.863681 367.518305 
L 300.863681 366.581048 
L 295.360614 366.581048 
z
" clip-path="url(#p6e21b73f97)" style="fill: #d66b6a; opacity: 0.7"/>
   </g>
   <g id="patch_14">
    <path d="M 315.997115 367.518305 
L 321.500182 367.518305 
L 321.500182 361.426132 
L 315.997115 361.426132 
z
" clip-path="url(#p6e21b73f97)" style="fill: #d66b6a; opacity: 0.7"/>
   </g>
   <g id="patch_15">
    <path d="M 336.633616 367.518305 
L 342.136683 367.518305 
L 342.136683 336.588808 
L 336.633616 336.588808 
z
" clip-path="url(#p6e21b73f97)" style="fill: #d66b6a; opacity: 0.7"/>
   </g>
   <g id="patch_16">
    <path d="M 357.270117 367.518305 
L 362.773184 367.518305 
L 362.773184 268.169012 
L 357.270117 268.169012 
z
" clip-path="url(#p6e21b73f97)" style="fill: #d66b6a; opacity: 0.7"/>
   </g>
   <g id="patch_17">
    <path d="M 377.906618 367.518305 
L 383.409685 367.518305 
L 383.409685 38.0723 
L 377.906618 38.0723 
z
" clip-path="url(#p6e21b73f97)" style="fill: #d66b6a; opacity: 0.7"/>
   </g>
   <g id="patch_18">
    <path d="M 94.498669 367.518305 
L 100.001736 367.518305 
L 100.001736 360.488874 
L 94.498669 360.488874 
z
" clip-path="url(#p6e21b73f97)" style="fill: #5591e1; opacity: 0.7"/>
   </g>
   <g id="patch_19">
    <path d="M 115.13517 367.518305 
L 120.638237 367.518305 
L 120.638237 363.300646 
L 115.13517 363.300646 
z
" clip-path="url(#p6e21b73f97)" style="fill: #5591e1; opacity: 0.7"/>
   </g>
   <g id="patch_20">
    <path d="M 135.771671 367.518305 
L 141.274738 367.518305 
L 141.274738 358.614359 
L 135.771671 358.614359 
z
" clip-path="url(#p6e21b73f97)" style="fill: #5591e1; opacity: 0.7"/>
   </g>
   <g id="patch_21">
    <path d="M 156.408173 367.518305 
L 161.91124 367.518305 
L 161.91124 356.271215 
L 156.408173 356.271215 
z
" clip-path="url(#p6e21b73f97)" style="fill: #5591e1; opacity: 0.7"/>
   </g>
   <g id="patch_22">
    <path d="M 177.044674 367.518305 
L 182.547741 367.518305 
L 182.547741 352.990814 
L 177.044674 352.990814 
z
" clip-path="url(#p6e21b73f97)" style="fill: #5591e1; opacity: 0.7"/>
   </g>
   <g id="patch_23">
    <path d="M 197.681175 367.518305 
L 203.184242 367.518305 
L 203.184242 346.430012 
L 197.681175 346.430012 
z
" clip-path="url(#p6e21b73f97)" style="fill: #5591e1; opacity: 0.7"/>
   </g>
   <g id="patch_24">
    <path d="M 218.317676 367.518305 
L 223.820743 367.518305 
L 223.820743 340.337838 
L 218.317676 340.337838 
z
" clip-path="url(#p6e21b73f97)" style="fill: #5591e1; opacity: 0.7"/>
   </g>
   <g id="patch_25">
    <path d="M 238.954177 367.518305 
L 244.457244 367.518305 
L 244.457244 337.057437 
L 238.954177 337.057437 
z
" clip-path="url(#p6e21b73f97)" style="fill: #5591e1; opacity: 0.7"/>
   </g>
   <g id="patch_26">
    <path d="M 259.590678 367.518305 
L 265.093745 367.518305 
L 265.093745 330.028006 
L 259.590678 330.028006 
z
" clip-path="url(#p6e21b73f97)" style="fill: #5591e1; opacity: 0.7"/>
   </g>
   <g id="patch_27">
    <path d="M 280.227179 367.518305 
L 285.730246 367.518305 
L 285.730246 321.12406 
L 280.227179 321.12406 
z
" clip-path="url(#p6e21b73f97)" style="fill: #5591e1; opacity: 0.7"/>
   </g>
   <g id="patch_28">
    <path d="M 300.863681 367.518305 
L 306.366748 367.518305 
L 306.366748 317.843659 
L 300.863681 317.843659 
z
" clip-path="url(#p6e21b73f97)" style="fill: #5591e1; opacity: 0.7"/>
   </g>
   <g id="patch_29">
    <path d="M 321.500182 367.518305 
L 327.003249 367.518305 
L 327.003249 317.843659 
L 321.500182 317.843659 
z
" clip-path="url(#p6e21b73f97)" style="fill: #5591e1; opacity: 0.7"/>
   </g>
   <g id="patch_30">
    <path d="M 342.136683 367.518305 
L 347.63975 367.518305 
L 347.63975 321.592689 
L 342.136683 321.592689 
z
" clip-path="url(#p6e21b73f97)" style="fill: #5591e1; opacity: 0.7"/>
   </g>
   <g id="patch_31">
    <path d="M 362.773184 367.518305 
L 368.276251 367.518305 
L 368.276251 314.094629 
L 362.773184 314.094629 
z
" clip-path="url(#p6e21b73f97)" style="fill: #5591e1; opacity: 0.7"/>
   </g>
   <g id="patch_32">
    <path d="M 383.409685 367.518305 
L 388.912752 367.518305 
L 388.912752 306.12794 
L 383.409685 306.12794 
z
" clip-path="url(#p6e21b73f97)" style="fill: #5591e1; opacity: 0.7"/>
   </g>
   <g id="patch_33">
    <path d="M 100.001736 367.518305 
L 105.504803 367.518305 
L 105.504803 367.518305 
L 100.001736 367.518305 
z
" clip-path="url(#p6e21b73f97)" style="fill: #6ca247; opacity: 0.7"/>
   </g>
   <g id="patch_34">
    <path d="M 120.638237 367.518305 
L 126.141304 367.518305 
L 126.141304 367.518305 
L 120.638237 367.518305 
z
" clip-path="url(#p6e21b73f97)" style="fill: #6ca247; opacity: 0.7"/>
   </g>
   <g id="patch_35">
    <path d="M 141.274738 367.518305 
L 146.777805 367.518305 
L 146.777805 367.518305 
L 141.274738 367.518305 
z
" clip-path="url(#p6e21b73f97)" style="fill: #6ca247; opacity: 0.7"/>
   </g>
   <g id="patch_36">
    <path d="M 161.91124 367.518305 
L 167.414307 367.518305 
L 167.414307 367.518305 
L 161.91124 367.518305 
z
" clip-path="url(#p6e21b73f97)" style="fill: #6ca247; opacity: 0.7"/>
   </g>
   <g id="patch_37">
    <path d="M 182.547741 367.518305 
L 188.050808 367.518305 
L 188.050808 367.518305 
L 182.547741 367.518305 
z
" clip-path="url(#p6e21b73f97)" style="fill: #6ca247; opacity: 0.7"/>
   </g>
   <g id="patch_38">
    <path d="M 203.184242 367.518305 
L 208.687309 367.518305 
L 208.687309 367.518305 
L 203.184242 367.518305 
z
" clip-path="url(#p6e21b73f97)" style="fill: #6ca247; opacity: 0.7"/>
   </g>
   <g id="patch_39">
    <path d="M 223.820743 367.518305 
L 229.32381 367.518305 
L 229.32381 367.518305 
L 223.820743 367.518305 
z
" clip-path="url(#p6e21b73f97)" style="fill: #6ca247; opacity: 0.7"/>
   </g>
   <g id="patch_40">
    <path d="M 244.457244 367.518305 
L 249.960311 367.518305 
L 249.960311 367.518305 
L 244.457244 367.518305 
z
" clip-path="url(#p6e21b73f97)" style="fill: #6ca247; opacity: 0.7"/>
   </g>
   <g id="patch_41">
    <path d="M 265.093745 367.518305 
L 270.596812 367.518305 
L 270.596812 367.518305 
L 265.093745 367.518305 
z
" clip-path="url(#p6e21b73f97)" style="fill: #6ca247; opacity: 0.7"/>
   </g>
   <g id="patch_42">
    <path d="M 285.730246 367.518305 
L 291.233313 367.518305 
L 291.233313 367.518305 
L 285.730246 367.518305 
z
" clip-path="url(#p6e21b73f97)" style="fill: #6ca247; opacity: 0.7"/>
   </g>
   <g id="patch_43">
    <path d="M 306.366748 367.518305 
L 311.869815 367.518305 
L 311.869815 366.581048 
L 306.366748 366.581048 
z
" clip-path="url(#p6e21b73f97)" style="fill: #6ca247; opacity: 0.7"/>
   </g>
   <g id="patch_44">
    <path d="M 327.003249 367.518305 
L 332.506316 367.518305 
L 332.506316 362.832018 
L 327.003249 362.832018 
z
" clip-path="url(#p6e21b73f97)" style="fill: #6ca247; opacity: 0.7"/>
   </g>
   <g id="patch_45">
    <path d="M 347.63975 367.518305 
L 353.142817 367.518305 
L 353.142817 347.835898 
L 347.63975 347.835898 
z
" clip-path="url(#p6e21b73f97)" style="fill: #6ca247; opacity: 0.7"/>
   </g>
   <g id="patch_46">
    <path d="M 368.276251 367.518305 
L 373.779318 367.518305 
L 373.779318 102.743066 
L 368.276251 102.743066 
z
" clip-path="url(#p6e21b73f97)" style="fill: #6ca247; opacity: 0.7"/>
   </g>
   <g id="patch_47">
    <path d="M 388.912752 367.518305 
L 394.415819 367.518305 
L 394.415819 188.970755 
L 388.912752 188.970755 
z
" clip-path="url(#p6e21b73f97)" style="fill: #6ca247; opacity: 0.7"/>
   </g>
   <g id="matplotlib.axis_1">
    <g id="xtick_1">
     <g id="line2d_1">
      <path d="M 104.369566 367.518305 
L 104.369566 21.6 
" clip-path="url(#p6e21b73f97)" style="fill: none; stroke: #b0b0b0; stroke-opacity: 0.3; stroke-width: 0.8; stroke-linecap: square"/>
     </g>
     <g id="line2d_2">
      <defs>
       <path id="m448b98ced2" d="M 0 0 
L 0 3.5 
" style="stroke: #000000; stroke-width: 0.8"/>
      </defs>
      <g>
       <use xlink:href="#m448b98ced2" x="104.369566" y="367.518305" style="stroke: #000000; stroke-width: 0.8"/>
      </g>
     </g>
     <g id="text_1">
      <!-- $\mathdefault{−0.04}$ -->
      <g transform="translate(84.296814 385.587893) scale(0.16 -0.16)">
       <defs>
        <path id="CMSY10-0" d="M 4218 1472 
C 4326 1472 4442 1472 4442 1600 
C 4442 1728 4326 1728 4218 1728 
L 755 1728 
C 646 1728 531 1728 531 1600 
C 531 1472 646 1472 755 1472 
L 4218 1472 
z
" transform="scale(0.015625)"/>
        <path id="CMR17-30" d="M 2688 2038 
C 2688 2430 2682 3099 2413 3613 
C 2176 4063 1798 4224 1466 4224 
C 1158 4224 768 4082 525 3620 
C 269 3137 243 2539 243 2038 
C 243 1671 250 1112 448 623 
C 723 -39 1216 -128 1466 -128 
C 1760 -128 2208 -7 2470 604 
C 2662 1048 2688 1568 2688 2038 
z
M 1466 -26 
C 1056 -26 813 328 723 816 
C 653 1196 653 1749 653 2109 
C 653 2604 653 3015 736 3407 
C 858 3954 1216 4121 1466 4121 
C 1728 4121 2067 3947 2189 3420 
C 2272 3054 2278 2623 2278 2109 
C 2278 1691 2278 1176 2202 797 
C 2067 96 1690 -26 1466 -26 
z
" transform="scale(0.015625)"/>
        <path id="CMMI12-3a" d="M 1178 307 
C 1178 492 1024 620 870 620 
C 685 620 557 467 557 313 
C 557 128 710 0 864 0 
C 1050 0 1178 153 1178 307 
z
" transform="scale(0.015625)"/>
        <path id="CMR17-34" d="M 2150 4147 
C 2150 4281 2144 4288 2029 4288 
L 128 1254 
L 128 1088 
L 1779 1088 
L 1779 460 
C 1779 230 1766 166 1318 166 
L 1197 166 
L 1197 0 
C 1402 12 1747 12 1965 12 
C 2182 12 2528 12 2733 0 
L 2733 166 
L 2611 166 
C 2163 166 2150 230 2150 460 
L 2150 1088 
L 2803 1088 
L 2803 1254 
L 2150 1254 
L 2150 4147 
z
M 1798 3723 
L 1798 1254 
L 256 1254 
L 1798 3723 
z
" transform="scale(0.015625)"/>
       </defs>
       <use xlink:href="#CMSY10-0" transform="scale(0.996264)"/>
       <use xlink:href="#CMR17-30" transform="translate(77.487468 0) scale(0.996264)"/>
       <use xlink:href="#CMMI12-3a" transform="translate(123.177945 0) scale(0.996264)"/>
       <use xlink:href="#CMR17-30" transform="translate(150.275122 0) scale(0.996264)"/>
       <use xlink:href="#CMR17-34" transform="translate(195.965599 0) scale(0.996264)"/>
      </g>
     </g>
    </g>
    <g id="xtick_2">
     <g id="line2d_3">
      <path d="M 177.397315 367.518305 
L 177.397315 21.6 
" clip-path="url(#p6e21b73f97)" style="fill: none; stroke: #b0b0b0; stroke-opacity: 0.3; stroke-width: 0.8; stroke-linecap: square"/>
     </g>
     <g id="line2d_4">
      <g>
       <use xlink:href="#m448b98ced2" x="177.397315" y="367.518305" style="stroke: #000000; stroke-width: 0.8"/>
      </g>
     </g>
     <g id="text_2">
      <!-- $\mathdefault{−0.03}$ -->
      <g transform="translate(157.324562 385.587893) scale(0.16 -0.16)">
       <defs>
        <path id="CMR17-33" d="M 1414 2176 
C 1984 2176 2234 1673 2234 1094 
C 2234 322 1824 25 1453 25 
C 1114 25 563 193 390 691 
C 422 678 454 678 486 678 
C 640 678 755 780 755 947 
C 755 1132 614 1216 486 1216 
C 378 1216 211 1164 211 927 
C 211 335 787 -128 1466 -128 
C 2176 -128 2720 432 2720 1087 
C 2720 1718 2208 2176 1600 2246 
C 2086 2347 2554 2776 2554 3353 
C 2554 3856 2048 4224 1472 4224 
C 890 4224 378 3862 378 3347 
C 378 3123 544 3084 627 3084 
C 762 3084 877 3167 877 3334 
C 877 3500 762 3584 627 3584 
C 602 3584 570 3584 544 3571 
C 730 3999 1235 4076 1459 4076 
C 1683 4076 2106 3966 2106 3347 
C 2106 3167 2080 2851 1862 2574 
C 1670 2329 1453 2316 1242 2297 
C 1210 2297 1062 2284 1037 2284 
C 992 2278 966 2272 966 2227 
C 966 2182 973 2176 1101 2176 
L 1414 2176 
z
" transform="scale(0.015625)"/>
       </defs>
       <use xlink:href="#CMSY10-0" transform="scale(0.996264)"/>
       <use xlink:href="#CMR17-30" transform="translate(77.487468 0) scale(0.996264)"/>
       <use xlink:href="#CMMI12-3a" transform="translate(123.177945 0) scale(0.996264)"/>
       <use xlink:href="#CMR17-30" transform="translate(150.275122 0) scale(0.996264)"/>
       <use xlink:href="#CMR17-33" transform="translate(195.965599 0) scale(0.996264)"/>
      </g>
     </g>
    </g>
    <g id="xtick_3">
     <g id="line2d_5">
      <path d="M 250.425063 367.518305 
L 250.425063 21.6 
" clip-path="url(#p6e21b73f97)" style="fill: none; stroke: #b0b0b0; stroke-opacity: 0.3; stroke-width: 0.8; stroke-linecap: square"/>
     </g>
     <g id="line2d_6">
      <g>
       <use xlink:href="#m448b98ced2" x="250.425063" y="367.518305" style="stroke: #000000; stroke-width: 0.8"/>
      </g>
     </g>
     <g id="text_3">
      <!-- $\mathdefault{−0.02}$ -->
      <g transform="translate(230.35231 385.587893) scale(0.16 -0.16)">
       <defs>
        <path id="CMR17-32" d="M 2669 990 
L 2554 990 
C 2490 537 2438 460 2413 422 
C 2381 371 1920 371 1830 371 
L 602 371 
C 832 620 1280 1073 1824 1596 
C 2214 1966 2669 2400 2669 3033 
C 2669 3788 2067 4224 1395 4224 
C 691 4224 262 3603 262 3027 
C 262 2777 448 2745 525 2745 
C 589 2745 781 2783 781 3007 
C 781 3206 614 3264 525 3264 
C 486 3264 448 3257 422 3244 
C 544 3788 915 4057 1306 4057 
C 1862 4057 2227 3616 2227 3033 
C 2227 2477 1901 1998 1536 1583 
L 262 147 
L 262 0 
L 2515 0 
L 2669 990 
z
" transform="scale(0.015625)"/>
       </defs>
       <use xlink:href="#CMSY10-0" transform="scale(0.996264)"/>
       <use xlink:href="#CMR17-30" transform="translate(77.487468 0) scale(0.996264)"/>
       <use xlink:href="#CMMI12-3a" transform="translate(123.177945 0) scale(0.996264)"/>
       <use xlink:href="#CMR17-30" transform="translate(150.275122 0) scale(0.996264)"/>
       <use xlink:href="#CMR17-32" transform="translate(195.965599 0) scale(0.996264)"/>
      </g>
     </g>
    </g>
    <g id="xtick_4">
     <g id="line2d_7">
      <path d="M 323.452811 367.518305 
L 323.452811 21.6 
" clip-path="url(#p6e21b73f97)" style="fill: none; stroke: #b0b0b0; stroke-opacity: 0.3; stroke-width: 0.8; stroke-linecap: square"/>
     </g>
     <g id="line2d_8">
      <g>
       <use xlink:href="#m448b98ced2" x="323.452811" y="367.518305" style="stroke: #000000; stroke-width: 0.8"/>
      </g>
     </g>
     <g id="text_4">
      <!-- $\mathdefault{−0.01}$ -->
      <g transform="translate(303.380058 385.587893) scale(0.16 -0.16)">
       <defs>
        <path id="CMR17-31" d="M 1702 4083 
C 1702 4217 1696 4224 1606 4224 
C 1357 3927 979 3833 621 3820 
C 602 3820 570 3820 563 3808 
C 557 3795 557 3782 557 3648 
C 755 3648 1088 3686 1344 3839 
L 1344 467 
C 1344 243 1331 166 781 166 
L 589 166 
L 589 0 
C 896 6 1216 12 1523 12 
C 1830 12 2150 6 2458 0 
L 2458 166 
L 2266 166 
C 1715 166 1702 236 1702 467 
L 1702 4083 
z
" transform="scale(0.015625)"/>
       </defs>
       <use xlink:href="#CMSY10-0" transform="scale(0.996264)"/>
       <use xlink:href="#CMR17-30" transform="translate(77.487468 0) scale(0.996264)"/>
       <use xlink:href="#CMMI12-3a" transform="translate(123.177945 0) scale(0.996264)"/>
       <use xlink:href="#CMR17-30" transform="translate(150.275122 0) scale(0.996264)"/>
       <use xlink:href="#CMR17-31" transform="translate(195.965599 0) scale(0.996264)"/>
      </g>
     </g>
    </g>
    <g id="xtick_5">
     <g id="line2d_9">
      <path d="M 396.480559 367.518305 
L 396.480559 21.6 
" clip-path="url(#p6e21b73f97)" style="fill: none; stroke: #b0b0b0; stroke-opacity: 0.3; stroke-width: 0.8; stroke-linecap: square"/>
     </g>
     <g id="line2d_10">
      <g>
       <use xlink:href="#m448b98ced2" x="396.480559" y="367.518305" style="stroke: #000000; stroke-width: 0.8"/>
      </g>
     </g>
     <g id="text_5">
      <!-- $\mathdefault{0.00}$ -->
      <g transform="translate(382.606804 385.587893) scale(0.16 -0.16)">
       <use xlink:href="#CMR17-30" transform="scale(0.996264)"/>
       <use xlink:href="#CMMI12-3a" transform="translate(45.690477 0) scale(0.996264)"/>
       <use xlink:href="#CMR17-30" transform="translate(72.787654 0) scale(0.996264)"/>
       <use xlink:href="#CMR17-30" transform="translate(118.478131 0) scale(0.996264)"/>
      </g>
     </g>
    </g>
    <g id="text_6">
     <!-- Return -->
     <g transform="translate(213.642825 406.524366) scale(0.2 -0.2)">
      <defs>
       <path id="CMR17-52" d="M 2509 2156 
C 3117 2278 3629 2689 3629 3203 
C 3629 3806 2950 4352 2054 4352 
L 333 4352 
L 333 4185 
C 774 4185 845 4185 845 3896 
L 845 428 
C 845 140 774 140 333 140 
L 333 -26 
C 518 -13 851 -13 1050 -13 
C 1248 -13 1581 -13 1766 -26 
L 1766 140 
C 1325 140 1254 140 1254 428 
L 1254 2112 
L 2003 2112 
C 2368 2112 2573 1964 2662 1881 
C 2918 1632 2918 1459 2918 1024 
C 2918 595 2918 377 3110 160 
C 3354 -103 3680 -128 3821 -128 
C 4294 -128 4365 403 4365 512 
C 4365 550 4365 595 4307 595 
C 4256 595 4250 556 4250 531 
C 4218 115 4032 -26 3834 -26 
C 3482 -26 3443 377 3405 768 
C 3386 902 3373 998 3360 1139 
C 3322 1459 3270 1926 2509 2156 
z
M 1984 2214 
L 1254 2214 
L 1254 3935 
C 1254 4153 1267 4185 1523 4185 
L 1990 4185 
C 2522 4185 3142 3999 3142 3203 
C 3142 2374 2464 2214 1984 2214 
z
" transform="scale(0.015625)"/>
       <path id="CMR17-65" d="M 2438 1503 
C 2464 1529 2464 1542 2464 1606 
C 2464 2251 2118 2816 1389 2816 
C 710 2816 173 2175 173 1394 
C 173 554 781 -64 1459 -64 
C 2176 -64 2458 619 2458 755 
C 2458 800 2419 800 2406 800 
C 2362 800 2355 787 2330 709 
C 2189 270 1837 51 1504 51 
C 1229 51 954 206 781 490 
C 582 819 582 1200 582 1503 
L 2438 1503 
z
M 589 1600 
C 634 2511 1126 2713 1382 2713 
C 1818 2713 2112 2308 2118 1600 
L 589 1600 
z
" transform="scale(0.015625)"/>
       <path id="CMR17-74" d="M 966 2585 
L 1862 2585 
L 1862 2752 
L 966 2752 
L 966 3968 
L 851 3968 
C 838 3292 614 2700 70 2687 
L 70 2585 
L 627 2585 
L 627 778 
C 627 655 627 -64 1370 -64 
C 1747 -64 1965 308 1965 784 
L 1965 1151 
L 1850 1151 
L 1850 790 
C 1850 347 1677 51 1408 51 
C 1222 51 966 179 966 765 
L 966 2585 
z
" transform="scale(0.015625)"/>
       <path id="CMR17-75" d="M 1882 2745 
L 1882 2579 
C 2259 2579 2317 2540 2317 2229 
L 2317 1053 
C 2317 510 2029 38 1555 38 
C 1030 38 986 355 986 691 
L 986 2816 
L 211 2745 
L 211 2579 
C 467 2579 640 2579 646 2320 
L 646 1079 
C 646 646 646 368 813 187 
C 896 103 1056 -64 1517 -64 
C 2061 -64 2272 400 2323 536 
L 2330 536 
L 2330 -64 
L 3091 -13 
L 3091 154 
C 2714 154 2656 193 2656 503 
L 2656 2816 
L 1882 2745 
z
" transform="scale(0.015625)"/>
       <path id="CMR17-72" d="M 960 1517 
C 960 2134 1222 2713 1702 2713 
C 1747 2713 1792 2707 1837 2687 
C 1837 2687 1696 2642 1696 2475 
C 1696 2321 1818 2257 1914 2257 
C 1990 2257 2131 2302 2131 2482 
C 2131 2687 1926 2816 1709 2816 
C 1222 2816 1011 2340 947 2115 
L 941 2115 
L 941 2816 
L 198 2745 
L 198 2578 
C 576 2578 634 2540 634 2231 
L 634 443 
C 634 198 608 166 198 166 
L 198 0 
C 352 12 646 12 813 12 
C 998 12 1325 12 1498 0 
L 1498 166 
C 1037 166 960 166 960 455 
L 960 1517 
z
" transform="scale(0.015625)"/>
       <path id="CMR17-6e" d="M 2656 1954 
C 2656 2282 2592 2816 1837 2816 
C 1331 2816 1069 2424 973 2166 
L 966 2166 
L 966 2816 
L 211 2745 
L 211 2578 
C 589 2578 646 2540 646 2231 
L 646 443 
C 646 198 621 166 211 166 
L 211 0 
C 365 12 646 12 813 12 
C 979 12 1267 12 1421 0 
L 1421 166 
C 1011 166 986 192 986 443 
L 986 1678 
C 986 2269 1344 2713 1792 2713 
C 2266 2713 2317 2289 2317 1980 
L 2317 443 
C 2317 198 2291 166 1882 166 
L 1882 0 
C 2035 12 2317 12 2483 12 
C 2650 12 2938 12 3091 0 
L 3091 166 
C 2682 166 2656 192 2656 443 
L 2656 1954 
z
" transform="scale(0.015625)"/>
      </defs>
      <use xlink:href="#CMR17-52" transform="scale(0.996264)"/>
      <use xlink:href="#CMR17-65" transform="translate(67.791102 0) scale(0.996264)"/>
      <use xlink:href="#CMR17-74" transform="translate(108.276762 0) scale(0.996264)"/>
      <use xlink:href="#CMR17-75" transform="translate(143.55753 0) scale(0.996264)"/>
      <use xlink:href="#CMR17-72" transform="translate(194.4529 0) scale(0.996264)"/>
      <use xlink:href="#CMR17-6e" transform="translate(229.733668 0) scale(0.996264)"/>
     </g>
    </g>
   </g>
   <g id="matplotlib.axis_2">
    <g id="ytick_1">
     <g id="line2d_11">
      <path d="M 73.724591 367.518305 
L 409.68683 367.518305 
" clip-path="url(#p6e21b73f97)" style="fill: none; stroke: #b0b0b0; stroke-opacity: 0.3; stroke-width: 0.8; stroke-linecap: square"/>
     </g>
     <g id="line2d_12">
      <defs>
       <path id="m7b8c01608b" d="M 0 0 
L -3.5 0 
" style="stroke: #000000; stroke-width: 0.8"/>
      </defs>
      <g>
       <use xlink:href="#m7b8c01608b" x="73.724591" y="367.518305" style="stroke: #000000; stroke-width: 0.8"/>
      </g>
     </g>
     <g id="text_7">
      <!-- $\mathdefault{0}$ -->
      <g transform="translate(58.920604 373.053099) scale(0.16 -0.16)">
       <use xlink:href="#CMR17-30" transform="scale(0.996264)"/>
      </g>
     </g>
    </g>
    <g id="ytick_2">
     <g id="line2d_13">
      <path d="M 73.724591 320.655431 
L 409.68683 320.655431 
" clip-path="url(#p6e21b73f97)" style="fill: none; stroke: #b0b0b0; stroke-opacity: 0.3; stroke-width: 0.8; stroke-linecap: square"/>
     </g>
     <g id="line2d_14">
      <g>
       <use xlink:href="#m7b8c01608b" x="73.724591" y="320.655431" style="stroke: #000000; stroke-width: 0.8"/>
      </g>
     </g>
     <g id="text_8">
      <!-- $\mathdefault{100}$ -->
      <g transform="translate(43.31263 326.190225) scale(0.16 -0.16)">
       <use xlink:href="#CMR17-31" transform="scale(0.996264)"/>
       <use xlink:href="#CMR17-30" transform="translate(45.690477 0) scale(0.996264)"/>
       <use xlink:href="#CMR17-30" transform="translate(91.380954 0) scale(0.996264)"/>
      </g>
     </g>
    </g>
    <g id="ytick_3">
     <g id="line2d_15">
      <path d="M 73.724591 273.792557 
L 409.68683 273.792557 
" clip-path="url(#p6e21b73f97)" style="fill: none; stroke: #b0b0b0; stroke-opacity: 0.3; stroke-width: 0.8; stroke-linecap: square"/>
     </g>
     <g id="line2d_16">
      <g>
       <use xlink:href="#m7b8c01608b" x="73.724591" y="273.792557" style="stroke: #000000; stroke-width: 0.8"/>
      </g>
     </g>
     <g id="text_9">
      <!-- $\mathdefault{200}$ -->
      <g transform="translate(43.31263 279.327351) scale(0.16 -0.16)">
       <use xlink:href="#CMR17-32" transform="scale(0.996264)"/>
       <use xlink:href="#CMR17-30" transform="translate(45.690477 0) scale(0.996264)"/>
       <use xlink:href="#CMR17-30" transform="translate(91.380954 0) scale(0.996264)"/>
      </g>
     </g>
    </g>
    <g id="ytick_4">
     <g id="line2d_17">
      <path d="M 73.724591 226.929683 
L 409.68683 226.929683 
" clip-path="url(#p6e21b73f97)" style="fill: none; stroke: #b0b0b0; stroke-opacity: 0.3; stroke-width: 0.8; stroke-linecap: square"/>
     </g>
     <g id="line2d_18">
      <g>
       <use xlink:href="#m7b8c01608b" x="73.724591" y="226.929683" style="stroke: #000000; stroke-width: 0.8"/>
      </g>
     </g>
     <g id="text_10">
      <!-- $\mathdefault{300}$ -->
      <g transform="translate(43.31263 232.464477) scale(0.16 -0.16)">
       <use xlink:href="#CMR17-33" transform="scale(0.996264)"/>
       <use xlink:href="#CMR17-30" transform="translate(45.690477 0) scale(0.996264)"/>
       <use xlink:href="#CMR17-30" transform="translate(91.380954 0) scale(0.996264)"/>
      </g>
     </g>
    </g>
    <g id="ytick_5">
     <g id="line2d_19">
      <path d="M 73.724591 180.066809 
L 409.68683 180.066809 
" clip-path="url(#p6e21b73f97)" style="fill: none; stroke: #b0b0b0; stroke-opacity: 0.3; stroke-width: 0.8; stroke-linecap: square"/>
     </g>
     <g id="line2d_20">
      <g>
       <use xlink:href="#m7b8c01608b" x="73.724591" y="180.066809" style="stroke: #000000; stroke-width: 0.8"/>
      </g>
     </g>
     <g id="text_11">
      <!-- $\mathdefault{400}$ -->
      <g transform="translate(43.31263 185.601603) scale(0.16 -0.16)">
       <use xlink:href="#CMR17-34" transform="scale(0.996264)"/>
       <use xlink:href="#CMR17-30" transform="translate(45.690477 0) scale(0.996264)"/>
       <use xlink:href="#CMR17-30" transform="translate(91.380954 0) scale(0.996264)"/>
      </g>
     </g>
    </g>
    <g id="ytick_6">
     <g id="line2d_21">
      <path d="M 73.724591 133.203935 
L 409.68683 133.203935 
" clip-path="url(#p6e21b73f97)" style="fill: none; stroke: #b0b0b0; stroke-opacity: 0.3; stroke-width: 0.8; stroke-linecap: square"/>
     </g>
     <g id="line2d_22">
      <g>
       <use xlink:href="#m7b8c01608b" x="73.724591" y="133.203935" style="stroke: #000000; stroke-width: 0.8"/>
      </g>
     </g>
     <g id="text_12">
      <!-- $\mathdefault{500}$ -->
      <g transform="translate(43.31263 138.738729) scale(0.16 -0.16)">
       <defs>
        <path id="CMR17-35" d="M 730 3750 
C 794 3724 1056 3641 1325 3641 
C 1920 3641 2246 3961 2432 4140 
C 2432 4191 2432 4224 2394 4224 
C 2387 4224 2374 4224 2323 4198 
C 2099 4102 1837 4032 1517 4032 
C 1325 4032 1037 4055 723 4191 
C 653 4224 640 4224 634 4224 
C 602 4224 595 4217 595 4090 
L 595 2231 
C 595 2113 595 2080 659 2080 
C 691 2080 704 2093 736 2139 
C 941 2435 1222 2560 1542 2560 
C 1766 2560 2246 2415 2246 1293 
C 2246 1087 2246 716 2054 422 
C 1894 159 1645 25 1370 25 
C 947 25 518 319 403 812 
C 429 806 480 793 506 793 
C 589 793 749 838 749 1036 
C 749 1209 627 1280 506 1280 
C 358 1280 262 1190 262 1011 
C 262 454 704 -128 1382 -128 
C 2042 -128 2669 441 2669 1267 
C 2669 2054 2170 2662 1549 2662 
C 1222 2662 947 2540 730 2304 
L 730 3750 
z
" transform="scale(0.015625)"/>
       </defs>
       <use xlink:href="#CMR17-35" transform="scale(0.996264)"/>
       <use xlink:href="#CMR17-30" transform="translate(45.690477 0) scale(0.996264)"/>
       <use xlink:href="#CMR17-30" transform="translate(91.380954 0) scale(0.996264)"/>
      </g>
     </g>
    </g>
    <g id="ytick_7">
     <g id="line2d_23">
      <path d="M 73.724591 86.341061 
L 409.68683 86.341061 
" clip-path="url(#p6e21b73f97)" style="fill: none; stroke: #b0b0b0; stroke-opacity: 0.3; stroke-width: 0.8; stroke-linecap: square"/>
     </g>
     <g id="line2d_24">
      <g>
       <use xlink:href="#m7b8c01608b" x="73.724591" y="86.341061" style="stroke: #000000; stroke-width: 0.8"/>
      </g>
     </g>
     <g id="text_13">
      <!-- $\mathdefault{600}$ -->
      <g transform="translate(43.31263 91.875855) scale(0.16 -0.16)">
       <defs>
        <path id="CMR17-36" d="M 678 2198 
C 678 3712 1395 4076 1811 4076 
C 1946 4076 2272 4049 2400 3782 
C 2298 3782 2106 3782 2106 3558 
C 2106 3385 2246 3328 2336 3328 
C 2394 3328 2566 3353 2566 3571 
C 2566 3987 2246 4224 1805 4224 
C 1043 4224 243 3411 243 2011 
C 243 257 966 -128 1478 -128 
C 2099 -128 2688 431 2688 1295 
C 2688 2101 2170 2688 1517 2688 
C 1126 2688 838 2430 678 1979 
L 678 2198 
z
M 1478 25 
C 691 25 691 1212 691 1450 
C 691 1914 909 2585 1504 2585 
C 1613 2585 1926 2585 2138 2140 
C 2253 1889 2253 1624 2253 1302 
C 2253 954 2253 696 2118 438 
C 1978 173 1773 25 1478 25 
z
" transform="scale(0.015625)"/>
       </defs>
       <use xlink:href="#CMR17-36" transform="scale(0.996264)"/>
       <use xlink:href="#CMR17-30" transform="translate(45.690477 0) scale(0.996264)"/>
       <use xlink:href="#CMR17-30" transform="translate(91.380954 0) scale(0.996264)"/>
      </g>
     </g>
    </g>
    <g id="ytick_8">
     <g id="line2d_25">
      <path d="M 73.724591 39.478186 
L 409.68683 39.478186 
" clip-path="url(#p6e21b73f97)" style="fill: none; stroke: #b0b0b0; stroke-opacity: 0.3; stroke-width: 0.8; stroke-linecap: square"/>
     </g>
     <g id="line2d_26">
      <g>
       <use xlink:href="#m7b8c01608b" x="73.724591" y="39.478186" style="stroke: #000000; stroke-width: 0.8"/>
      </g>
     </g>
     <g id="text_14">
      <!-- $\mathdefault{700}$ -->
      <g transform="translate(43.31263 45.012981) scale(0.16 -0.16)">
       <defs>
        <path id="CMR17-37" d="M 2886 3955 
L 2886 4096 
L 1382 4096 
C 634 4096 621 4166 595 4288 
L 480 4288 
L 294 3104 
L 410 3104 
C 429 3226 474 3552 550 3673 
C 589 3724 1062 3724 1171 3724 
L 2579 3724 
L 1869 2670 
C 1395 1961 1069 1003 1069 166 
C 1069 89 1069 -128 1299 -128 
C 1530 -128 1530 89 1530 172 
L 1530 466 
C 1530 1514 1709 2204 2003 2644 
L 2886 3955 
z
" transform="scale(0.015625)"/>
       </defs>
       <use xlink:href="#CMR17-37" transform="scale(0.996264)"/>
       <use xlink:href="#CMR17-30" transform="translate(45.690477 0) scale(0.996264)"/>
       <use xlink:href="#CMR17-30" transform="translate(91.380954 0) scale(0.996264)"/>
      </g>
     </g>
    </g>
    <g id="text_15">
     <!-- Frequency -->
     <g transform="translate(35.436997 235.288209) rotate(-90) scale(0.2 -0.2)">
      <defs>
       <path id="CMR17-46" d="M 3482 4339 
L 326 4339 
L 326 4172 
C 768 4172 838 4172 838 3883 
L 838 450 
C 838 166 768 166 326 166 
L 326 0 
C 512 12 870 12 1069 12 
C 1331 12 1638 12 1901 0 
L 1901 166 
L 1760 166 
C 1274 166 1261 229 1261 456 
L 1261 2073 
L 1837 2073 
C 2432 2073 2490 1865 2490 1334 
L 2605 1334 
L 2605 2991 
L 2490 2991 
C 2490 2451 2432 2240 1837 2240 
L 1261 2240 
L 1261 3922 
C 1261 4140 1274 4172 1530 4172 
L 2355 4172 
C 3322 4172 3430 3774 3520 2920 
L 3635 2920 
L 3482 4339 
z
" transform="scale(0.015625)"/>
       <path id="CMR17-71" d="M 2630 2816 
L 2528 2816 
L 2336 2177 
C 2189 2519 1920 2816 1491 2816 
C 838 2816 211 2228 211 1376 
C 211 529 800 -64 1440 -64 
C 1933 -64 2208 316 2291 458 
L 2291 -834 
C 2291 -1081 2266 -1114 1856 -1114 
L 1856 -1280 
C 2010 -1268 2291 -1268 2458 -1268 
C 2624 -1268 2912 -1268 3066 -1280 
L 3066 -1114 
C 2656 -1114 2630 -1088 2630 -834 
L 2630 2816 
z
M 2304 871 
C 2304 594 2074 335 2054 316 
C 1856 90 1626 38 1472 38 
C 992 38 621 652 621 1369 
C 621 2125 1043 2700 1536 2700 
C 2048 2700 2304 2112 2304 1776 
L 2304 871 
z
" transform="scale(0.015625)"/>
       <path id="CMR17-63" d="M 2234 2240 
C 2112 2240 1933 2240 1933 2015 
C 1933 1836 2080 1785 2163 1785 
C 2208 1785 2394 1804 2394 2028 
C 2394 2476 1958 2816 1466 2816 
C 787 2816 211 2201 211 1379 
C 211 521 813 -64 1466 -64 
C 2259 -64 2458 676 2458 747 
C 2458 773 2451 792 2406 792 
C 2362 792 2355 786 2330 702 
C 2163 180 1798 51 1523 51 
C 1114 51 621 431 621 1385 
C 621 2358 1094 2700 1472 2700 
C 1722 2700 2093 2582 2234 2240 
z
" transform="scale(0.015625)"/>
       <path id="CMR17-79" d="M 2496 2183 
C 2656 2579 2944 2585 3034 2585 
L 3034 2752 
C 2912 2745 2752 2739 2630 2739 
C 2496 2739 2285 2739 2157 2752 
L 2157 2585 
C 2400 2566 2406 2384 2406 2332 
C 2406 2268 2394 2235 2362 2158 
L 1664 409 
L 902 2300 
C 870 2378 870 2423 870 2430 
C 870 2572 1018 2585 1171 2585 
L 1171 2752 
C 1018 2739 742 2739 582 2739 
C 410 2739 205 2739 64 2752 
L 64 2585 
C 410 2585 448 2553 531 2345 
L 1485 -31 
C 1197 -795 1030 -1242 627 -1242 
C 557 -1242 397 -1223 282 -1106 
C 429 -1093 493 -1002 493 -892 
C 493 -782 416 -685 288 -685 
C 147 -685 77 -782 77 -899 
C 77 -1158 339 -1344 627 -1344 
C 998 -1344 1229 -983 1357 -659 
L 2496 2183 
z
" transform="scale(0.015625)"/>
      </defs>
      <use xlink:href="#CMR17-46" transform="scale(0.996264)"/>
      <use xlink:href="#CMR17-72" transform="translate(52.176591 0) scale(0.996264)"/>
      <use xlink:href="#CMR17-65" transform="translate(87.457359 0) scale(0.996264)"/>
      <use xlink:href="#CMR17-71" transform="translate(127.943019 0) scale(0.996264)"/>
      <use xlink:href="#CMR17-75" transform="translate(176.235935 0) scale(0.996264)"/>
      <use xlink:href="#CMR17-65" transform="translate(227.131305 0) scale(0.996264)"/>
      <use xlink:href="#CMR17-6e" transform="translate(267.616966 0) scale(0.996264)"/>
      <use xlink:href="#CMR17-63" transform="translate(318.512335 0) scale(0.996264)"/>
      <use xlink:href="#CMR17-79" transform="translate(358.997996 0) scale(0.996264)"/>
     </g>
    </g>
   </g>
   <g id="patch_48">
    <path d="M 73.724591 367.518305 
L 73.724591 21.6 
" style="fill: none; stroke: #000000; stroke-width: 0.8; stroke-linejoin: miter; stroke-linecap: square"/>
   </g>
   <g id="patch_49">
    <path d="M 409.68683 367.518305 
L 409.68683 21.6 
" style="fill: none; stroke: #000000; stroke-width: 0.8; stroke-linejoin: miter; stroke-linecap: square"/>
   </g>
   <g id="patch_50">
    <path d="M 73.724591 367.518305 
L 409.68683 367.518305 
" style="fill: none; stroke: #000000; stroke-width: 0.8; stroke-linejoin: miter; stroke-linecap: square"/>
   </g>
   <g id="patch_51">
    <path d="M 73.724591 21.6 
L 409.68683 21.6 
" style="fill: none; stroke: #000000; stroke-width: 0.8; stroke-linejoin: miter; stroke-linecap: square"/>
   </g>
   <g id="legend_1">
    <g id="patch_52">
     <path d="M 84.924591 101.298429 
L 182.830502 101.298429 
Q 186.030502 101.298429 186.030502 98.098429 
L 186.030502 32.8 
Q 186.030502 29.6 182.830502 29.6 
L 84.924591 29.6 
Q 81.724591 29.6 81.724591 32.8 
L 81.724591 98.098429 
Q 81.724591 101.298429 84.924591 101.298429 
z
" style="fill: #ffffff; opacity: 0.8; stroke: #cccccc; stroke-linejoin: miter"/>
    </g>
    <g id="patch_53">
     <path d="M 88.124591 47.2 
L 120.124591 47.2 
L 120.124591 36 
L 88.124591 36 
z
" style="fill: #d66b6a; opacity: 0.7"/>
    </g>
    <g id="text_16">
     <!-- SAC -->
     <g transform="translate(132.924591 47.2) scale(0.16 -0.16)">
      <defs>
       <path id="CMR17-53" d="M 2803 4351 
C 2803 4467 2797 4473 2758 4473 
C 2720 4473 2707 4447 2682 4390 
L 2490 3965 
C 2246 4320 1875 4480 1472 4480 
C 819 4480 294 3958 294 3301 
C 294 3101 339 2817 557 2546 
C 794 2250 1018 2198 1530 2063 
C 1722 2011 2042 1927 2106 1901 
C 2470 1747 2662 1360 2662 999 
C 2662 534 2336 38 1779 38 
C 1094 38 454 425 410 1328 
C 403 1431 397 1437 352 1437 
C 301 1437 294 1431 294 1302 
L 294 0 
C 294 -116 301 -122 339 -122 
C 384 -122 397 -90 486 109 
C 493 128 493 141 614 386 
C 934 -39 1472 -128 1779 -128 
C 2477 -128 2970 457 2970 1141 
C 2970 1476 2848 1734 2778 1850 
C 2509 2263 2221 2340 1914 2417 
C 1869 2437 1856 2437 1498 2527 
C 1152 2617 1005 2662 845 2836 
C 666 3036 602 3243 602 3449 
C 602 3868 934 4326 1478 4326 
C 2157 4326 2579 3842 2675 3036 
C 2694 2920 2701 2914 2746 2914 
C 2803 2914 2803 2933 2803 3043 
L 2803 4351 
z
" transform="scale(0.015625)"/>
       <path id="CMR17-41" d="M 2323 4441 
C 2291 4524 2278 4544 2214 4544 
C 2150 4544 2138 4524 2106 4441 
L 749 580 
C 627 236 371 166 147 166 
L 147 0 
C 262 12 518 12 640 12 
C 800 12 1056 12 1210 0 
L 1210 166 
C 909 179 864 382 864 459 
C 864 516 877 548 890 586 
L 1229 1536 
L 2906 1536 
L 3290 453 
C 3322 376 3322 363 3322 338 
C 3322 166 3046 166 2925 166 
L 2925 0 
C 3110 12 3443 12 3642 12 
C 3808 12 4128 12 4282 0 
L 4282 166 
C 3942 166 3827 166 3744 402 
L 2323 4441 
z
M 2067 3924 
L 2848 1702 
L 1286 1702 
L 2067 3924 
z
" transform="scale(0.015625)"/>
       <path id="CMR17-43" d="M 3974 4351 
C 3974 4467 3968 4473 3930 4473 
C 3904 4473 3898 4467 3853 4390 
L 3571 3849 
C 3258 4249 2874 4480 2381 4480 
C 1286 4480 294 3507 294 2179 
C 294 837 1286 -128 2387 -128 
C 3366 -128 3974 741 3974 1482 
C 3974 1547 3974 1573 3917 1573 
C 3866 1573 3866 1553 3859 1495 
C 3808 592 3168 38 2477 38 
C 1824 38 781 502 781 2179 
C 781 3862 1843 4313 2464 4313 
C 3187 4313 3712 3681 3834 2785 
C 3846 2707 3846 2695 3904 2695 
C 3974 2695 3974 2707 3974 2824 
L 3974 4351 
z
" transform="scale(0.015625)"/>
      </defs>
      <use xlink:href="#CMR17-53" transform="scale(0.996264)"/>
      <use xlink:href="#CMR17-41" transform="translate(50.89537 0) scale(0.996264)"/>
      <use xlink:href="#CMR17-43" transform="translate(117.365346 0) scale(0.996264)"/>
     </g>
    </g>
    <g id="patch_54">
     <path d="M 88.124591 69.499476 
L 120.124591 69.499476 
L 120.124591 58.299476 
L 88.124591 58.299476 
z
" style="fill: #5591e1; opacity: 0.7"/>
    </g>
    <g id="text_17">
     <!-- AFU -->
     <g transform="translate(132.924591 69.499476) scale(0.16 -0.16)">
      <defs>
       <path id="CMR17-55" d="M 3456 1442 
C 3456 583 2899 38 2291 38 
C 1965 38 1670 211 1491 480 
C 1286 788 1261 1185 1261 1410 
L 1261 3897 
C 1261 4185 1331 4185 1773 4185 
L 1773 4352 
C 1587 4339 1248 4339 1050 4339 
C 851 4339 512 4339 326 4352 
L 326 4185 
C 768 4185 838 4185 838 3897 
L 838 1442 
C 838 519 1536 -128 2278 -128 
C 3110 -128 3590 724 3590 1352 
L 3590 3788 
C 3590 4147 3917 4185 4102 4185 
L 4102 4352 
C 3955 4339 3686 4339 3526 4339 
C 3366 4339 3091 4339 2944 4352 
L 2944 4185 
C 3456 4185 3456 3884 3456 3724 
L 3456 1442 
z
" transform="scale(0.015625)"/>
      </defs>
      <use xlink:href="#CMR17-41" transform="scale(0.996264)"/>
      <use xlink:href="#CMR17-46" transform="translate(69.07243 0) scale(0.996264)"/>
      <use xlink:href="#CMR17-55" transform="translate(129.056276 0) scale(0.996264)"/>
     </g>
    </g>
    <g id="patch_55">
     <path d="M 88.124591 91.798952 
L 120.124591 91.798952 
L 120.124591 80.598952 
L 88.124591 80.598952 
z
" style="fill: #6ca247; opacity: 0.7"/>
    </g>
    <g id="text_18">
     <!-- DDPG -->
     <g transform="translate(132.924591 91.798952) scale(0.16 -0.16)">
      <defs>
       <path id="CMR17-44" d="M 333 4352 
L 333 4185 
C 774 4185 845 4185 845 3898 
L 845 453 
C 845 166 774 166 333 166 
L 333 0 
L 2368 0 
C 3398 0 4224 943 4224 2140 
C 4224 3344 3411 4352 2368 4352 
L 333 4352 
z
M 1523 166 
C 1267 166 1254 198 1254 414 
L 1254 3936 
C 1254 4153 1267 4185 1523 4185 
L 2240 4185 
C 2771 4185 3750 3873 3750 2140 
C 3750 1242 3488 879 3366 707 
C 3213 510 2848 166 2240 166 
L 1523 166 
z
" transform="scale(0.015625)"/>
       <path id="CMR17-50" d="M 1267 2048 
L 2291 2048 
C 3117 2048 3718 2583 3718 3187 
C 3718 3791 3130 4352 2291 4352 
L 333 4352 
L 333 4185 
C 774 4185 845 4185 845 3899 
L 845 453 
C 845 166 774 166 333 166 
L 333 0 
C 518 12 858 12 1056 12 
C 1254 12 1594 12 1779 0 
L 1779 166 
C 1338 166 1267 166 1267 453 
L 1267 2048 
z
M 1254 2182 
L 1254 3937 
C 1254 4153 1267 4185 1523 4185 
L 2170 4185 
C 2995 4185 3232 3715 3232 3187 
C 3232 2608 2950 2182 2170 2182 
L 1254 2182 
z
" transform="scale(0.015625)"/>
       <path id="CMR17-47" d="M 3974 1258 
C 3974 1503 3994 1536 4390 1536 
L 4390 1702 
C 4237 1689 3891 1689 3718 1689 
C 3539 1689 3040 1696 2797 1702 
L 2797 1536 
L 2989 1536 
C 3539 1536 3552 1464 3552 1232 
L 3552 806 
C 3552 96 2720 38 2522 38 
C 1862 38 781 496 781 2179 
C 781 3862 1843 4313 2464 4313 
C 3187 4313 3712 3681 3834 2785 
C 3846 2708 3846 2695 3904 2695 
C 3974 2695 3974 2708 3974 2824 
L 3974 4351 
C 3974 4467 3968 4473 3930 4473 
C 3904 4473 3898 4467 3853 4390 
L 3571 3849 
C 3258 4249 2874 4480 2381 4480 
C 1286 4480 294 3507 294 2179 
C 294 858 1267 -128 2394 -128 
C 2912 -128 3418 57 3616 425 
C 3725 161 3904 -20 3936 -20 
C 3968 -20 3974 -13 3974 102 
L 3974 1258 
z
" transform="scale(0.015625)"/>
      </defs>
      <use xlink:href="#CMR17-44" transform="scale(0.996264)"/>
      <use xlink:href="#CMR17-44" transform="translate(70.393556 0) scale(0.996264)"/>
      <use xlink:href="#CMR17-50" transform="translate(140.787112 0) scale(0.996264)"/>
      <use xlink:href="#CMR17-47" transform="translate(203.373412 0) scale(0.996264)"/>
     </g>
    </g>
   </g>
  </g>
 </g>
 <defs>
  <clipPath id="p6e21b73f97">
   <rect x="73.724591" y="21.6" width="335.962239" height="345.918305"/>
  </clipPath>
 </defs>
</svg>
