<?xml version="1.0" encoding="utf-8" standalone="no"?>
<!DOCTYPE svg PUBLIC "-//W3C//DTD SVG 1.1//EN"
  "http://www.w3.org/Graphics/SVG/1.1/DTD/svg11.dtd">
<svg xmlns:xlink="http://www.w3.org/1999/xlink" width="720pt" height="432pt" viewBox="0 0 720 432" xmlns="http://www.w3.org/2000/svg" version="1.1">
 <metadata>
  <rdf:RDF xmlns:dc="http://purl.org/dc/elements/1.1/" xmlns:cc="http://creativecommons.org/ns#" xmlns:rdf="http://www.w3.org/1999/02/22-rdf-syntax-ns#">
   <cc:Work>
    <dc:type rdf:resource="http://purl.org/dc/dcmitype/StillImage"/>
    <dc:date>2025-05-06T17:20:09.842056</dc:date>
    <dc:format>image/svg+xml</dc:format>
    <dc:creator>
     <cc:Agent>
      <dc:title>Matplotlib v3.10.0, https://matplotlib.org/</dc:title>
     </cc:Agent>
    </dc:creator>
   </cc:Work>
  </rdf:RDF>
 </metadata>
 <defs>
  <style type="text/css">*{stroke-linejoin: round; stroke-linecap: butt}</style>
 </defs>
 <g id="figure_1">
  <g id="patch_1">
   <path d="M 0 432 
L 720 432 
L 720 0 
L 0 0 
z
" style="fill: #ffffff"/>
  </g>
  <g id="axes_1">
   <g id="patch_2">
    <path d="M 90 384.48 
L 648 384.48 
L 648 51.84 
L 90 51.84 
z
" style="fill: #ffffff"/>
   </g>
   <g id="FillBetweenPolyCollection_1">
    <defs>
     <path id="mfde973ea7e" d="M 115.363636 -64.471623 
L 115.363636 -62.64 
L 117.400876 -330.656104 
L 119.438116 -335.989976 
L 121.475356 -325.947363 
L 123.512596 -354.536756 
L 125.549836 -353.026866 
L 127.587076 -354.007278 
L 129.624315 -353.123968 
L 131.661555 -349.781907 
L 133.698795 -350.825102 
L 135.736035 -354.633433 
L 137.773275 -348.605121 
L 139.810515 -347.295865 
L 141.847755 -353.488576 
L 143.884995 -351.609157 
L 145.922234 -349.346338 
L 147.959474 -357.802781 
L 149.996714 -355.885436 
L 152.033954 -353.006444 
L 154.071194 -356.39689 
L 156.108434 -355.362045 
L 158.145674 -357.654634 
L 160.182913 -359.634755 
L 162.220153 -359.327509 
L 164.257393 -361.004803 
L 166.294633 -359.419885 
L 168.331873 -359.733176 
L 170.369113 -360.568788 
L 172.406353 -356.806393 
L 174.443593 -359.649363 
L 176.480832 -358.995242 
L 178.518072 -361.910211 
L 180.555312 -361.760482 
L 182.592552 -359.701653 
L 184.629792 -360.377851 
L 186.667032 -360.499184 
L 188.704272 -360.838465 
L 190.741512 -361.028894 
L 192.778751 -360.624355 
L 194.815991 -360.604541 
L 196.853231 -360.734962 
L 198.890471 -360.648622 
L 200.927711 -360.509537 
L 202.964951 -360.50618 
L 205.002191 -360.021138 
L 207.03943 -361.005464 
L 209.07667 -361.399028 
L 211.11391 -360.969654 
L 213.15115 -361.051493 
L 215.18839 -361.719769 
L 217.22563 -361.43806 
L 219.26287 -361.477588 
L 221.30011 -361.448693 
L 223.337349 -361.25374 
L 225.374589 -361.466591 
L 227.411829 -361.612775 
L 229.449069 -360.984496 
L 231.486309 -360.977083 
L 233.523549 -360.814743 
L 235.560789 -360.913984 
L 237.598028 -360.636399 
L 239.635268 -360.542932 
L 241.672508 -360.328466 
L 243.709748 -360.462427 
L 245.746988 -360.336938 
L 247.784228 -360.795151 
L 249.821468 -360.984715 
L 251.858708 -360.635075 
L 253.895947 -361.104323 
L 255.933187 -362.022302 
L 257.970427 -361.12788 
L 260.007667 -361.34145 
L 262.044907 -361.374447 
L 264.082147 -360.851174 
L 266.119387 -361.332737 
L 268.156627 -360.78475 
L 270.193866 -360.738975 
L 272.231106 -360.732733 
L 274.268346 -360.776971 
L 276.305586 -360.648256 
L 278.342826 -361.035947 
L 280.380066 -360.648409 
L 282.417306 -360.782178 
L 284.454545 -360.490116 
L 286.491785 -361.356789 
L 288.529025 -361.061857 
L 290.566265 -361.53223 
L 292.603505 -361.365229 
L 294.640745 -361.833654 
L 296.677985 -361.514583 
L 298.715225 -362.141127 
L 300.752464 -361.509346 
L 302.789704 -362.059851 
L 304.826944 -362.470929 
L 306.864184 -362.6442 
L 308.901424 -362.213331 
L 310.938664 -362.234005 
L 312.975904 -362.565842 
L 315.013143 -362.452204 
L 317.050383 -362.213091 
L 319.087623 -362.112265 
L 321.124863 -361.947154 
L 323.162103 -362.416982 
L 325.199343 -362.178014 
L 327.236583 -362.492104 
L 329.273823 -362.36641 
L 331.311062 -362.728133 
L 333.348302 -362.958533 
L 335.385542 -362.611434 
L 337.422782 -362.939717 
L 339.460022 -363.109001 
L 341.497262 -362.425535 
L 343.534502 -362.664721 
L 345.571742 -363.191083 
L 347.608981 -362.979576 
L 349.646221 -363.06445 
L 351.683461 -362.990726 
L 353.720701 -362.870082 
L 355.757941 -362.89077 
L 357.795181 -362.830102 
L 359.832421 -362.667971 
L 361.86966 -362.697718 
L 363.9069 -362.719601 
L 365.94414 -362.704841 
L 367.98138 -362.702747 
L 370.01862 -362.485028 
L 372.05586 -362.329679 
L 374.0931 -362.184756 
L 376.13034 -362.409047 
L 378.167579 -362.300856 
L 380.204819 -362.084341 
L 382.242059 -362.070004 
L 384.279299 -362.380276 
L 386.316539 -362.791365 
L 388.353779 -362.785696 
L 390.391019 -361.969663 
L 392.428258 -362.169756 
L 394.465498 -362.001676 
L 396.502738 -362.094183 
L 398.539978 -362.850904 
L 400.577218 -362.345811 
L 402.614458 -362.593886 
L 404.651698 -362.050482 
L 406.688938 -361.883879 
L 408.726177 -362.32068 
L 410.763417 -362.370916 
L 412.800657 -362.50927 
L 414.837897 -361.874428 
L 416.875137 -362.075239 
L 418.912377 -361.996407 
L 420.949617 -362.550232 
L 422.986857 -362.548872 
L 425.024096 -362.725183 
L 427.061336 -362.444708 
L 429.098576 -362.658012 
L 431.135816 -362.552548 
L 433.173056 -362.261355 
L 435.210296 -362.614254 
L 437.247536 -362.463278 
L 439.284775 -362.615953 
L 441.322015 -362.547457 
L 443.359255 -362.402254 
L 445.396495 -362.037772 
L 447.433735 -362.330216 
L 449.470975 -362.394684 
L 451.508215 -362.352442 
L 453.545455 -362.782049 
L 455.582694 -362.383991 
L 457.619934 -362.767514 
L 459.657174 -362.641115 
L 461.694414 -362.792225 
L 463.731654 -362.520965 
L 465.768894 -362.142379 
L 467.806134 -363.101475 
L 469.843373 -362.593804 
L 471.880613 -363.364964 
L 473.917853 -363.152006 
L 475.955093 -363.565922 
L 477.992333 -363.284007 
L 480.029573 -363.025047 
L 482.066813 -363.514437 
L 484.104053 -363.18948 
L 486.141292 -363.29464 
L 488.178532 -363.597162 
L 490.215772 -363.522476 
L 492.253012 -363.68418 
L 494.290252 -363.411493 
L 496.327492 -363.428756 
L 498.364732 -363.298146 
L 500.401972 -363.527078 
L 502.439211 -363.108237 
L 504.476451 -363.40106 
L 506.513691 -363.476222 
L 508.550931 -363.544502 
L 510.588171 -363.465551 
L 512.625411 -363.451294 
L 514.662651 -363.687617 
L 516.69989 -363.443795 
L 518.73713 -363.406638 
L 520.77437 -363.238409 
L 522.81161 -363.359641 
L 524.84885 -363.583786 
L 526.88609 -363.230733 
L 528.92333 -363.611439 
L 530.96057 -363.231927 
L 532.997809 -363.324988 
L 535.035049 -363.334814 
L 537.072289 -363.278811 
L 539.109529 -363.490152 
L 541.146769 -363.485802 
L 543.184009 -363.531863 
L 545.221249 -363.450093 
L 547.258488 -363.375643 
L 549.295728 -363.510359 
L 551.332968 -363.341523 
L 553.370208 -363.283387 
L 555.407448 -363.618548 
L 557.444688 -363.39173 
L 559.481928 -363.435167 
L 561.519168 -363.233568 
L 563.556407 -363.17462 
L 565.593647 -363.294371 
L 567.630887 -363.472222 
L 569.668127 -363.492067 
L 571.705367 -363.655887 
L 573.742607 -363.772364 
L 575.779847 -363.60459 
L 577.817087 -363.500129 
L 579.854326 -363.822315 
L 581.891566 -363.801254 
L 583.928806 -363.515137 
L 585.966046 -363.779097 
L 588.003286 -363.591618 
L 590.040526 -363.392641 
L 592.077766 -363.650369 
L 594.115005 -363.442363 
L 596.152245 -363.396742 
L 598.189485 -363.518529 
L 600.226725 -363.528536 
L 602.263965 -363.617037 
L 604.301205 -363.542645 
L 606.338445 -363.553792 
L 608.375685 -363.317845 
L 610.412924 -363.603199 
L 612.450164 -363.236105 
L 614.487404 -363.35226 
L 616.524644 -363.347943 
L 618.561884 -363.167586 
L 620.599124 -363.122025 
L 622.636364 -363.345222 
L 622.636364 -363.901319 
L 622.636364 -363.901319 
L 620.599124 -363.790915 
L 618.561884 -363.796075 
L 616.524644 -363.749688 
L 614.487404 -363.780469 
L 612.450164 -363.79856 
L 610.412924 -363.855587 
L 608.375685 -363.711065 
L 606.338445 -364.210118 
L 604.301205 -363.970497 
L 602.263965 -364.164316 
L 600.226725 -364.092328 
L 598.189485 -364.216691 
L 596.152245 -364.133274 
L 594.115005 -364.183573 
L 592.077766 -364.389765 
L 590.040526 -364.138739 
L 588.003286 -364.298425 
L 585.966046 -364.307084 
L 583.928806 -364.388637 
L 581.891566 -364.457849 
L 579.854326 -364.511362 
L 577.817087 -364.443251 
L 575.779847 -364.485652 
L 573.742607 -364.424992 
L 571.705367 -364.304047 
L 569.668127 -364.335492 
L 567.630887 -364.396893 
L 565.593647 -364.206651 
L 563.556407 -364.348897 
L 561.519168 -364.319102 
L 559.481928 -364.286177 
L 557.444688 -364.155094 
L 555.407448 -364.363379 
L 553.370208 -364.198213 
L 551.332968 -364.396796 
L 549.295728 -364.162169 
L 547.258488 -364.439252 
L 545.221249 -364.286387 
L 543.184009 -364.331402 
L 541.146769 -364.257536 
L 539.109529 -364.210993 
L 537.072289 -364.188889 
L 535.035049 -364.213788 
L 532.997809 -364.307098 
L 530.96057 -364.293027 
L 528.92333 -364.582662 
L 526.88609 -364.461326 
L 524.84885 -364.394309 
L 522.81161 -364.53936 
L 520.77437 -364.375677 
L 518.73713 -364.565666 
L 516.69989 -364.483205 
L 514.662651 -364.369371 
L 512.625411 -364.437989 
L 510.588171 -364.245548 
L 508.550931 -364.333103 
L 506.513691 -364.450848 
L 504.476451 -364.302696 
L 502.439211 -364.561869 
L 500.401972 -364.50237 
L 498.364732 -364.090217 
L 496.327492 -364.289412 
L 494.290252 -364.15284 
L 492.253012 -364.316517 
L 490.215772 -364.370803 
L 488.178532 -364.579293 
L 486.141292 -364.276511 
L 484.104053 -364.221737 
L 482.066813 -364.177198 
L 480.029573 -364.134601 
L 477.992333 -364.622821 
L 475.955093 -364.63574 
L 473.917853 -364.398547 
L 471.880613 -364.357842 
L 469.843373 -364.131678 
L 467.806134 -364.175661 
L 465.768894 -364.155392 
L 463.731654 -364.324797 
L 461.694414 -364.376346 
L 459.657174 -364.264603 
L 457.619934 -364.072352 
L 455.582694 -364.342672 
L 453.545455 -364.219996 
L 451.508215 -363.570443 
L 449.470975 -364.413875 
L 447.433735 -363.612149 
L 445.396495 -363.983675 
L 443.359255 -363.754465 
L 441.322015 -364.28454 
L 439.284775 -364.412311 
L 437.247536 -364.570363 
L 435.210296 -364.318488 
L 433.173056 -364.291885 
L 431.135816 -364.060819 
L 429.098576 -364.144814 
L 427.061336 -363.612767 
L 425.024096 -364.411943 
L 422.986857 -364.266882 
L 420.949617 -364.242103 
L 418.912377 -364.485207 
L 416.875137 -364.339695 
L 414.837897 -363.871466 
L 412.800657 -364.025516 
L 410.763417 -363.495287 
L 408.726177 -363.423743 
L 406.688938 -363.976031 
L 404.651698 -363.864067 
L 402.614458 -364.22388 
L 400.577218 -364.005562 
L 398.539978 -364.373498 
L 396.502738 -363.943772 
L 394.465498 -364.328986 
L 392.428258 -364.080964 
L 390.391019 -363.499167 
L 388.353779 -363.76323 
L 386.316539 -363.652435 
L 384.279299 -363.304216 
L 382.242059 -363.457708 
L 380.204819 -363.258677 
L 378.167579 -363.467727 
L 376.13034 -363.779677 
L 374.0931 -363.438192 
L 372.05586 -363.384233 
L 370.01862 -363.540162 
L 367.98138 -363.600806 
L 365.94414 -363.767305 
L 363.9069 -363.745932 
L 361.86966 -363.754046 
L 359.832421 -363.932266 
L 357.795181 -363.829961 
L 355.757941 -363.765383 
L 353.720701 -363.655225 
L 351.683461 -364.036342 
L 349.646221 -363.668452 
L 347.608981 -364.154968 
L 345.571742 -364.270895 
L 343.534502 -363.941752 
L 341.497262 -363.798626 
L 339.460022 -363.995574 
L 337.422782 -363.867208 
L 335.385542 -363.677822 
L 333.348302 -363.939899 
L 331.311062 -363.852732 
L 329.273823 -363.856476 
L 327.236583 -363.448352 
L 325.199343 -363.802382 
L 323.162103 -363.421407 
L 321.124863 -362.991268 
L 319.087623 -363.479772 
L 317.050383 -363.293316 
L 315.013143 -363.378904 
L 312.975904 -363.465416 
L 310.938664 -363.469703 
L 308.901424 -363.261944 
L 306.864184 -363.509446 
L 304.826944 -363.548144 
L 302.789704 -363.323355 
L 300.752464 -363.180074 
L 298.715225 -363.289127 
L 296.677985 -363.255142 
L 294.640745 -363.871859 
L 292.603505 -362.830784 
L 290.566265 -363.35432 
L 288.529025 -363.005041 
L 286.491785 -363.154117 
L 284.454545 -363.028321 
L 282.417306 -363.401653 
L 280.380066 -363.024284 
L 278.342826 -363.181977 
L 276.305586 -363.020531 
L 274.268346 -362.864576 
L 272.231106 -362.985179 
L 270.193866 -362.966522 
L 268.156627 -363.035262 
L 266.119387 -363.013842 
L 264.082147 -362.934169 
L 262.044907 -363.288889 
L 260.007667 -363.438311 
L 257.970427 -363.669793 
L 255.933187 -363.495818 
L 253.895947 -363.405111 
L 251.858708 -363.171721 
L 249.821468 -362.874981 
L 247.784228 -362.838045 
L 245.746988 -362.523676 
L 243.709748 -362.087521 
L 241.672508 -362.389815 
L 239.635268 -362.054103 
L 237.598028 -362.600325 
L 235.560789 -362.148779 
L 233.523549 -362.430729 
L 231.486309 -362.030069 
L 229.449069 -362.57472 
L 227.411829 -362.679622 
L 225.374589 -363.111456 
L 223.337349 -363.498718 
L 221.30011 -363.676507 
L 219.26287 -363.477618 
L 217.22563 -363.604064 
L 215.18839 -363.646105 
L 213.15115 -363.751813 
L 211.11391 -363.835567 
L 209.07667 -363.601714 
L 207.03943 -363.865402 
L 205.002191 -363.290154 
L 202.964951 -362.668238 
L 200.927711 -362.694624 
L 198.890471 -362.588167 
L 196.853231 -363.113725 
L 194.815991 -363.155151 
L 192.778751 -364.179082 
L 190.741512 -363.81917 
L 188.704272 -362.730174 
L 186.667032 -362.67747 
L 184.629792 -363.315654 
L 182.592552 -361.981035 
L 180.555312 -362.851402 
L 178.518072 -364.146369 
L 176.480832 -363.030698 
L 174.443593 -363.683182 
L 172.406353 -362.435925 
L 170.369113 -363.35727 
L 168.331873 -362.441023 
L 166.294633 -361.569881 
L 164.257393 -363.159004 
L 162.220153 -362.474144 
L 160.182913 -362.138173 
L 158.145674 -362.47799 
L 156.108434 -362.04635 
L 154.071194 -364.100011 
L 152.033954 -361.58672 
L 149.996714 -361.136131 
L 147.959474 -361.784954 
L 145.922234 -362.466948 
L 143.884995 -363.05273 
L 141.847755 -361.523115 
L 139.810515 -359.649968 
L 137.773275 -360.28108 
L 135.736035 -362.08818 
L 133.698795 -360.143036 
L 131.661555 -360.700124 
L 129.624315 -362.932436 
L 127.587076 -361.306634 
L 125.549836 -362.21981 
L 123.512596 -361.30511 
L 121.475356 -361.259195 
L 119.438116 -353.201075 
L 117.400876 -356.164063 
L 115.363636 -64.471623 
z
" style="stroke: #d00000; stroke-opacity: 0.2"/>
    </defs>
    <g clip-path="url(#pe44a1ce44b)">
     <use xlink:href="#mfde973ea7e" x="0" y="432" style="fill: #d00000; fill-opacity: 0.2; stroke: #d00000; stroke-opacity: 0.2"/>
    </g>
   </g>
   <g id="FillBetweenPolyCollection_2">
    <defs>
     <path id="m0250dd2c4f" d="M 115.363636 -348.180064 
L 115.363636 -347.685369 
L 117.400876 -356.56361 
L 119.438116 -357.396462 
L 121.475356 -298.768398 
L 123.512596 -361.32586 
L 125.549836 -330.614436 
L 127.587076 -354.695485 
L 129.624315 -349.477108 
L 131.661555 -332.009591 
L 133.698795 -341.968095 
L 135.736035 -350.601228 
L 137.773275 -313.074324 
L 139.810515 -291.137991 
L 141.847755 -294.254876 
L 143.884995 -335.995985 
L 145.922234 -346.44078 
L 147.959474 -353.025262 
L 149.996714 -351.341485 
L 152.033954 -334.192031 
L 154.071194 -315.890444 
L 156.108434 -321.541528 
L 158.145674 -323.546348 
L 160.182913 -294.18683 
L 162.220153 -303.72098 
L 164.257393 -279.401301 
L 166.294633 -153.431916 
L 168.331873 -283.537767 
L 170.369113 -211.041106 
L 172.406353 -257.518082 
L 174.443593 -268.848677 
L 176.480832 -320.238714 
L 178.518072 -338.32456 
L 180.555312 -316.012511 
L 182.592552 -336.872234 
L 184.629792 -290.459881 
L 186.667032 -284.241567 
L 188.704272 -302.418787 
L 190.741512 -344.949268 
L 192.778751 -347.966031 
L 194.815991 -348.358017 
L 196.853231 -352.651758 
L 198.890471 -354.347223 
L 200.927711 -360.062615 
L 202.964951 -355.646988 
L 205.002191 -360.702736 
L 207.03943 -355.625539 
L 209.07667 -361.723717 
L 211.11391 -362.203126 
L 213.15115 -361.679169 
L 215.18839 -363.029952 
L 217.22563 -360.913976 
L 219.26287 -358.870395 
L 221.30011 -362.454477 
L 223.337349 -363.446728 
L 225.374589 -362.451455 
L 227.411829 -362.502459 
L 229.449069 -363.338152 
L 231.486309 -362.092951 
L 233.523549 -358.475816 
L 235.560789 -361.562571 
L 237.598028 -362.578506 
L 239.635268 -363.235573 
L 241.672508 -363.181101 
L 243.709748 -358.977382 
L 245.746988 -354.853437 
L 247.784228 -363.027896 
L 249.821468 -362.598961 
L 251.858708 -359.491232 
L 253.895947 -362.984163 
L 255.933187 -362.252286 
L 257.970427 -360.713407 
L 260.007667 -361.901539 
L 262.044907 -360.561488 
L 264.082147 -364.085929 
L 266.119387 -362.05868 
L 268.156627 -361.894097 
L 270.193866 -362.716327 
L 272.231106 -362.884615 
L 274.268346 -359.131446 
L 276.305586 -363.218335 
L 278.342826 -361.994322 
L 280.380066 -362.429133 
L 282.417306 -362.141686 
L 284.454545 -362.414972 
L 286.491785 -362.738285 
L 288.529025 -362.732333 
L 290.566265 -363.614102 
L 292.603505 -363.10329 
L 294.640745 -359.855514 
L 296.677985 -361.999483 
L 298.715225 -362.108557 
L 300.752464 -363.622643 
L 302.789704 -362.314968 
L 304.826944 -363.656714 
L 306.864184 -360.785455 
L 308.901424 -362.353197 
L 310.938664 -362.307488 
L 312.975904 -362.820159 
L 315.013143 -363.497023 
L 317.050383 -362.520119 
L 319.087623 -363.88224 
L 321.124863 -362.791809 
L 323.162103 -362.641358 
L 325.199343 -362.835433 
L 327.236583 -362.891591 
L 329.273823 -362.30303 
L 331.311062 -363.501811 
L 333.348302 -362.819981 
L 335.385542 -363.38645 
L 337.422782 -363.963453 
L 339.460022 -363.373849 
L 341.497262 -363.321671 
L 343.534502 -363.512184 
L 345.571742 -363.223248 
L 347.608981 -362.240767 
L 349.646221 -363.625514 
L 351.683461 -364.128111 
L 353.720701 -363.89916 
L 355.757941 -364.145356 
L 357.795181 -363.442117 
L 359.832421 -364.2306 
L 361.86966 -363.338017 
L 363.9069 -363.974357 
L 365.94414 -363.906519 
L 367.98138 -363.917406 
L 370.01862 -363.996992 
L 372.05586 -364.337675 
L 374.0931 -364.357304 
L 376.13034 -364.122645 
L 378.167579 -363.89113 
L 380.204819 -363.467536 
L 382.242059 -363.241937 
L 384.279299 -364.032726 
L 386.316539 -363.378643 
L 388.353779 -361.144952 
L 390.391019 -364.096194 
L 392.428258 -362.973178 
L 394.465498 -363.827992 
L 396.502738 -364.068817 
L 398.539978 -363.811575 
L 400.577218 -363.911269 
L 402.614458 -363.473918 
L 404.651698 -363.313349 
L 406.688938 -362.376943 
L 408.726177 -364.243611 
L 410.763417 -362.901472 
L 412.800657 -362.713331 
L 414.837897 -363.942226 
L 416.875137 -363.539748 
L 418.912377 -356.424116 
L 420.949617 -362.51111 
L 422.986857 -363.90851 
L 425.024096 -364.009401 
L 427.061336 -363.416001 
L 429.098576 -361.559454 
L 431.135816 -361.622771 
L 433.173056 -363.518553 
L 435.210296 -364.525576 
L 437.247536 -364.359996 
L 439.284775 -363.171481 
L 441.322015 -362.999479 
L 443.359255 -363.099604 
L 445.396495 -363.999072 
L 447.433735 -363.409447 
L 449.470975 -361.555354 
L 451.508215 -363.480241 
L 453.545455 -362.938163 
L 455.582694 -363.565684 
L 457.619934 -363.756841 
L 459.657174 -363.477824 
L 461.694414 -363.871964 
L 463.731654 -363.703142 
L 465.768894 -363.482106 
L 467.806134 -364.669186 
L 469.843373 -362.232278 
L 471.880613 -363.061561 
L 473.917853 -364.136515 
L 475.955093 -363.672415 
L 477.992333 -361.822683 
L 480.029573 -362.318985 
L 482.066813 -363.757922 
L 484.104053 -363.353275 
L 486.141292 -364.196626 
L 488.178532 -362.578079 
L 490.215772 -363.303965 
L 492.253012 -363.910989 
L 494.290252 -363.341558 
L 496.327492 -363.908803 
L 498.364732 -363.569166 
L 500.401972 -364.038879 
L 502.439211 -362.744255 
L 504.476451 -362.31699 
L 506.513691 -364.357667 
L 508.550931 -363.01788 
L 510.588171 -363.876686 
L 512.625411 -363.673565 
L 514.662651 -364.224648 
L 516.69989 -364.442423 
L 518.73713 -363.322176 
L 520.77437 -363.313549 
L 522.81161 -363.731385 
L 524.84885 -364.513598 
L 526.88609 -363.018454 
L 528.92333 -364.484002 
L 530.96057 -364.420587 
L 532.997809 -364.017382 
L 535.035049 -363.422219 
L 537.072289 -363.871889 
L 539.109529 -363.475016 
L 541.146769 -363.386403 
L 543.184009 -364.133021 
L 545.221249 -363.262342 
L 547.258488 -363.070736 
L 549.295728 -362.504095 
L 551.332968 -362.103685 
L 553.370208 -362.484662 
L 555.407448 -363.977577 
L 557.444688 -364.295174 
L 559.481928 -363.267687 
L 561.519168 -363.333177 
L 563.556407 -363.923036 
L 565.593647 -363.799397 
L 567.630887 -363.233777 
L 569.668127 -364.284253 
L 571.705367 -364.214788 
L 573.742607 -363.94852 
L 575.779847 -363.991488 
L 577.817087 -364.406676 
L 579.854326 -363.607387 
L 581.891566 -364.044002 
L 583.928806 -363.590617 
L 585.966046 -363.955767 
L 588.003286 -364.361386 
L 590.040526 -363.982103 
L 592.077766 -363.706617 
L 594.115005 -363.039496 
L 596.152245 -364.486691 
L 598.189485 -363.120743 
L 600.226725 -363.528111 
L 602.263965 -364.581403 
L 604.301205 -364.37014 
L 606.338445 -363.157244 
L 608.375685 -363.789922 
L 610.412924 -362.989096 
L 612.450164 -363.708799 
L 614.487404 -362.390108 
L 616.524644 -364.471063 
L 618.561884 -363.815673 
L 620.599124 -363.149873 
L 622.636364 -364.111309 
L 622.636364 -364.771135 
L 622.636364 -364.771135 
L 620.599124 -364.588033 
L 618.561884 -364.828911 
L 616.524644 -365.003803 
L 614.487404 -364.748592 
L 612.450164 -364.669565 
L 610.412924 -363.695603 
L 608.375685 -364.727344 
L 606.338445 -364.61097 
L 604.301205 -364.646401 
L 602.263965 -364.997572 
L 600.226725 -364.625833 
L 598.189485 -364.848464 
L 596.152245 -364.91036 
L 594.115005 -364.398329 
L 592.077766 -364.929617 
L 590.040526 -364.851504 
L 588.003286 -364.700375 
L 585.966046 -364.919677 
L 583.928806 -364.804928 
L 581.891566 -364.834318 
L 579.854326 -365.007731 
L 577.817087 -364.796454 
L 575.779847 -364.283697 
L 573.742607 -364.702783 
L 571.705367 -364.956837 
L 569.668127 -364.891173 
L 567.630887 -364.714094 
L 565.593647 -364.890733 
L 563.556407 -364.39075 
L 561.519168 -364.985877 
L 559.481928 -364.687476 
L 557.444688 -364.895267 
L 555.407448 -364.870811 
L 553.370208 -364.108734 
L 551.332968 -364.64465 
L 549.295728 -364.901192 
L 547.258488 -364.414168 
L 545.221249 -364.555858 
L 543.184009 -364.737778 
L 541.146769 -364.635868 
L 539.109529 -364.921711 
L 537.072289 -364.700388 
L 535.035049 -364.639533 
L 532.997809 -364.944409 
L 530.96057 -364.845829 
L 528.92333 -364.870278 
L 526.88609 -364.757748 
L 524.84885 -365.004297 
L 522.81161 -364.402536 
L 520.77437 -364.481766 
L 518.73713 -364.977634 
L 516.69989 -364.822937 
L 514.662651 -364.967725 
L 512.625411 -364.795602 
L 510.588171 -364.786152 
L 508.550931 -364.490011 
L 506.513691 -364.883964 
L 504.476451 -365.021727 
L 502.439211 -364.965375 
L 500.401972 -364.929005 
L 498.364732 -365.011367 
L 496.327492 -364.884761 
L 494.290252 -364.669736 
L 492.253012 -364.873234 
L 490.215772 -364.980358 
L 488.178532 -364.951965 
L 486.141292 -364.931944 
L 484.104053 -364.911702 
L 482.066813 -364.750259 
L 480.029573 -364.866053 
L 477.992333 -364.916657 
L 475.955093 -364.769792 
L 473.917853 -364.865242 
L 471.880613 -364.500925 
L 469.843373 -364.301437 
L 467.806134 -364.997977 
L 465.768894 -364.757794 
L 463.731654 -364.831301 
L 461.694414 -364.794325 
L 459.657174 -364.644021 
L 457.619934 -364.889683 
L 455.582694 -364.895755 
L 453.545455 -364.921401 
L 451.508215 -364.828703 
L 449.470975 -364.728042 
L 447.433735 -364.789833 
L 445.396495 -364.932892 
L 443.359255 -364.408697 
L 441.322015 -364.412278 
L 439.284775 -364.792857 
L 437.247536 -364.962269 
L 435.210296 -364.841306 
L 433.173056 -364.797259 
L 431.135816 -364.645186 
L 429.098576 -364.686489 
L 427.061336 -364.347594 
L 425.024096 -364.792103 
L 422.986857 -364.734348 
L 420.949617 -365.012394 
L 418.912377 -364.223797 
L 416.875137 -364.727247 
L 414.837897 -364.978662 
L 412.800657 -363.671146 
L 410.763417 -364.938099 
L 408.726177 -364.81118 
L 406.688938 -364.362119 
L 404.651698 -364.847131 
L 402.614458 -364.849469 
L 400.577218 -364.586597 
L 398.539978 -364.641222 
L 396.502738 -364.779704 
L 394.465498 -364.728997 
L 392.428258 -364.91826 
L 390.391019 -364.713206 
L 388.353779 -364.862126 
L 386.316539 -364.732944 
L 384.279299 -365.00188 
L 382.242059 -364.915033 
L 380.204819 -364.833472 
L 378.167579 -364.580368 
L 376.13034 -364.723291 
L 374.0931 -364.849185 
L 372.05586 -364.794972 
L 370.01862 -364.809093 
L 367.98138 -364.934096 
L 365.94414 -364.892878 
L 363.9069 -364.42135 
L 361.86966 -364.495075 
L 359.832421 -364.690802 
L 357.795181 -364.409701 
L 355.757941 -364.682181 
L 353.720701 -364.788833 
L 351.683461 -364.814626 
L 349.646221 -365.004179 
L 347.608981 -364.127778 
L 345.571742 -364.796808 
L 343.534502 -364.423447 
L 341.497262 -364.330023 
L 339.460022 -364.332718 
L 337.422782 -364.59233 
L 335.385542 -364.054565 
L 333.348302 -363.884586 
L 331.311062 -364.835252 
L 329.273823 -364.188657 
L 327.236583 -364.867095 
L 325.199343 -364.749463 
L 323.162103 -365.026139 
L 321.124863 -364.907797 
L 319.087623 -364.606498 
L 317.050383 -363.761185 
L 315.013143 -364.798232 
L 312.975904 -364.814316 
L 310.938664 -364.798525 
L 308.901424 -364.19596 
L 306.864184 -364.607529 
L 304.826944 -364.532341 
L 302.789704 -364.811075 
L 300.752464 -364.717464 
L 298.715225 -364.467948 
L 296.677985 -364.261013 
L 294.640745 -364.272655 
L 292.603505 -364.611674 
L 290.566265 -364.822588 
L 288.529025 -364.585286 
L 286.491785 -364.987945 
L 284.454545 -364.975447 
L 282.417306 -364.512246 
L 280.380066 -364.96224 
L 278.342826 -364.132425 
L 276.305586 -364.901107 
L 274.268346 -364.866347 
L 272.231106 -364.82766 
L 270.193866 -364.774676 
L 268.156627 -364.809977 
L 266.119387 -364.020449 
L 264.082147 -364.731339 
L 262.044907 -364.695252 
L 260.007667 -364.529359 
L 257.970427 -364.69512 
L 255.933187 -364.87927 
L 253.895947 -364.321121 
L 251.858708 -364.134982 
L 249.821468 -364.719218 
L 247.784228 -364.604103 
L 245.746988 -364.334072 
L 243.709748 -365.004665 
L 241.672508 -364.412915 
L 239.635268 -364.715033 
L 237.598028 -364.703221 
L 235.560789 -364.542576 
L 233.523549 -363.917424 
L 231.486309 -364.6842 
L 229.449069 -364.862089 
L 227.411829 -364.472267 
L 225.374589 -364.569868 
L 223.337349 -364.921555 
L 221.30011 -364.228526 
L 219.26287 -364.871651 
L 217.22563 -364.587071 
L 215.18839 -364.643339 
L 213.15115 -364.602075 
L 211.11391 -364.745422 
L 209.07667 -364.563615 
L 207.03943 -364.22881 
L 205.002191 -363.586697 
L 202.964951 -362.22098 
L 200.927711 -362.979137 
L 198.890471 -359.490738 
L 196.853231 -360.232218 
L 194.815991 -362.851647 
L 192.778751 -359.737688 
L 190.741512 -358.790417 
L 188.704272 -348.214269 
L 186.667032 -355.91951 
L 184.629792 -358.266635 
L 182.592552 -353.508406 
L 180.555312 -351.739415 
L 178.518072 -364.030907 
L 176.480832 -344.7384 
L 174.443593 -315.298236 
L 172.406353 -344.704743 
L 170.369113 -330.81153 
L 168.331873 -344.213726 
L 166.294633 -353.485763 
L 164.257393 -341.502125 
L 162.220153 -330.37065 
L 160.182913 -354.322701 
L 158.145674 -355.056735 
L 156.108434 -349.181844 
L 154.071194 -351.110152 
L 152.033954 -363.6536 
L 149.996714 -358.368076 
L 147.959474 -360.516769 
L 145.922234 -364.174214 
L 143.884995 -359.983281 
L 141.847755 -362.6988 
L 139.810515 -357.476605 
L 137.773275 -361.926644 
L 135.736035 -360.832228 
L 133.698795 -363.534179 
L 131.661555 -363.726734 
L 129.624315 -363.030542 
L 127.587076 -364.997478 
L 125.549836 -334.759108 
L 123.512596 -363.11114 
L 121.475356 -334.822644 
L 119.438116 -360.119343 
L 117.400876 -362.768966 
L 115.363636 -348.180064 
z
" style="stroke: #38b000; stroke-opacity: 0.2"/>
    </defs>
    <g clip-path="url(#pe44a1ce44b)">
     <use xlink:href="#m0250dd2c4f" x="0" y="432" style="fill: #38b000; fill-opacity: 0.2; stroke: #38b000; stroke-opacity: 0.2"/>
    </g>
   </g>
   <g id="FillBetweenPolyCollection_3">
    <defs>
     <path id="m7d1b529a5a" d="M 115.363636 -363.532043 
L 115.363636 -363.503264 
L 117.400876 -277.895952 
L 119.438116 -351.402126 
L 121.475356 -357.287445 
L 123.512596 -364.901571 
L 125.549836 -363.210316 
L 127.587076 -364.988803 
L 129.624315 -359.90164 
L 131.661555 -364.293365 
L 133.698795 -364.751908 
L 135.736035 -363.881636 
L 137.773275 -364.920765 
L 139.810515 -364.024286 
L 141.847755 -364.721102 
L 143.884995 -364.897455 
L 145.922234 -363.189542 
L 147.959474 -364.841987 
L 149.996714 -364.282572 
L 152.033954 -364.787978 
L 154.071194 -364.942146 
L 156.108434 -364.962238 
L 158.145674 -364.639282 
L 160.182913 -364.392185 
L 162.220153 -362.955439 
L 164.257393 -362.226413 
L 166.294633 -364.330384 
L 168.331873 -363.550603 
L 170.369113 -363.656504 
L 172.406353 -364.054624 
L 174.443593 -362.99191 
L 176.480832 -364.213864 
L 178.518072 -363.957801 
L 180.555312 -364.685458 
L 182.592552 -362.685295 
L 184.629792 -364.293846 
L 186.667032 -363.937465 
L 188.704272 -364.556858 
L 190.741512 -363.392505 
L 192.778751 -362.385274 
L 194.815991 -364.301661 
L 196.853231 -363.648466 
L 198.890471 -364.754285 
L 200.927711 -363.885711 
L 202.964951 -364.449733 
L 205.002191 -361.45174 
L 207.03943 -363.182567 
L 209.07667 -363.900714 
L 211.11391 -363.849398 
L 213.15115 -363.49377 
L 215.18839 -362.298553 
L 217.22563 -363.190909 
L 219.26287 -362.803546 
L 221.30011 -362.867602 
L 223.337349 -362.619233 
L 225.374589 -362.561403 
L 227.411829 -362.482212 
L 229.449069 -360.950701 
L 231.486309 -361.607206 
L 233.523549 -362.236671 
L 235.560789 -360.084682 
L 237.598028 -360.534233 
L 239.635268 -361.783348 
L 241.672508 -360.950788 
L 243.709748 -360.524626 
L 245.746988 -360.582664 
L 247.784228 -359.70171 
L 249.821468 -358.815334 
L 251.858708 -361.711419 
L 253.895947 -360.212824 
L 255.933187 -361.771897 
L 257.970427 -361.511959 
L 260.007667 -361.39286 
L 262.044907 -360.46625 
L 264.082147 -359.39768 
L 266.119387 -358.220811 
L 268.156627 -360.81809 
L 270.193866 -360.297053 
L 272.231106 -358.547282 
L 274.268346 -361.277227 
L 276.305586 -359.893488 
L 278.342826 -360.224231 
L 280.380066 -356.067046 
L 282.417306 -357.84582 
L 284.454545 -358.15751 
L 286.491785 -359.545117 
L 288.529025 -360.759096 
L 290.566265 -355.94197 
L 292.603505 -357.196037 
L 294.640745 -357.307855 
L 296.677985 -356.834128 
L 298.715225 -360.580646 
L 300.752464 -358.547786 
L 302.789704 -356.425173 
L 304.826944 -360.419376 
L 306.864184 -358.130915 
L 308.901424 -358.511544 
L 310.938664 -357.060126 
L 312.975904 -359.206519 
L 315.013143 -357.927018 
L 317.050383 -353.200678 
L 319.087623 -359.328361 
L 321.124863 -358.007403 
L 323.162103 -356.56094 
L 325.199343 -356.212606 
L 327.236583 -356.949119 
L 329.273823 -358.113282 
L 331.311062 -357.824191 
L 333.348302 -353.130799 
L 335.385542 -357.805739 
L 337.422782 -352.503236 
L 339.460022 -357.224169 
L 341.497262 -356.171101 
L 343.534502 -358.013762 
L 345.571742 -359.049141 
L 347.608981 -356.203844 
L 349.646221 -356.713687 
L 351.683461 -353.661614 
L 353.720701 -356.875912 
L 355.757941 -355.716021 
L 357.795181 -356.090449 
L 359.832421 -357.048365 
L 361.86966 -356.096696 
L 363.9069 -355.617637 
L 365.94414 -357.294328 
L 367.98138 -355.000821 
L 370.01862 -355.144205 
L 372.05586 -357.116638 
L 374.0931 -354.636297 
L 376.13034 -351.348034 
L 378.167579 -353.704361 
L 380.204819 -354.760137 
L 382.242059 -356.104591 
L 384.279299 -355.241912 
L 386.316539 -356.605755 
L 388.353779 -353.88629 
L 390.391019 -355.780029 
L 392.428258 -356.865643 
L 394.465498 -356.010833 
L 396.502738 -354.146865 
L 398.539978 -357.286856 
L 400.577218 -355.479128 
L 402.614458 -350.921709 
L 404.651698 -355.324937 
L 406.688938 -353.204388 
L 408.726177 -354.722007 
L 410.763417 -353.776977 
L 412.800657 -354.189029 
L 414.837897 -355.19304 
L 416.875137 -355.517706 
L 418.912377 -356.713568 
L 420.949617 -354.317184 
L 422.986857 -354.270813 
L 425.024096 -354.608356 
L 427.061336 -356.317756 
L 429.098576 -357.46355 
L 431.135816 -355.742539 
L 433.173056 -353.365382 
L 435.210296 -355.33348 
L 437.247536 -354.485118 
L 439.284775 -352.881574 
L 441.322015 -355.406552 
L 443.359255 -352.447125 
L 445.396495 -355.443266 
L 447.433735 -353.536116 
L 449.470975 -352.011076 
L 451.508215 -356.683761 
L 453.545455 -353.477032 
L 455.582694 -356.236881 
L 457.619934 -354.540728 
L 459.657174 -353.910825 
L 461.694414 -356.155088 
L 463.731654 -354.818769 
L 465.768894 -352.608565 
L 467.806134 -357.755543 
L 469.843373 -353.607474 
L 471.880613 -356.809016 
L 473.917853 -357.088869 
L 475.955093 -358.325462 
L 477.992333 -354.293631 
L 480.029573 -354.059716 
L 482.066813 -355.903005 
L 484.104053 -356.165214 
L 486.141292 -354.020614 
L 488.178532 -353.183249 
L 490.215772 -356.688904 
L 492.253012 -354.631171 
L 494.290252 -358.632308 
L 496.327492 -354.648245 
L 498.364732 -354.453462 
L 500.401972 -357.152599 
L 502.439211 -355.789637 
L 504.476451 -355.617734 
L 506.513691 -355.038198 
L 508.550931 -356.795422 
L 510.588171 -354.343577 
L 512.625411 -352.456677 
L 514.662651 -356.494338 
L 516.69989 -355.760825 
L 518.73713 -355.822991 
L 520.77437 -357.115232 
L 522.81161 -357.66146 
L 524.84885 -353.502956 
L 526.88609 -354.1642 
L 528.92333 -356.82347 
L 530.96057 -355.183235 
L 532.997809 -355.346764 
L 535.035049 -354.279523 
L 537.072289 -356.35599 
L 539.109529 -354.474359 
L 541.146769 -356.361832 
L 543.184009 -354.265874 
L 545.221249 -354.343997 
L 547.258488 -356.570134 
L 549.295728 -357.290641 
L 551.332968 -355.219615 
L 553.370208 -358.619032 
L 555.407448 -355.559728 
L 557.444688 -356.189335 
L 559.481928 -356.511014 
L 561.519168 -355.847878 
L 563.556407 -354.531515 
L 565.593647 -357.777449 
L 567.630887 -355.303543 
L 569.668127 -355.163107 
L 571.705367 -357.851169 
L 573.742607 -355.607671 
L 575.779847 -351.422604 
L 577.817087 -355.909252 
L 579.854326 -354.63156 
L 581.891566 -355.100809 
L 583.928806 -356.792635 
L 585.966046 -356.497157 
L 588.003286 -358.00132 
L 590.040526 -355.672083 
L 592.077766 -356.977312 
L 594.115005 -354.037045 
L 596.152245 -354.283738 
L 598.189485 -357.361907 
L 600.226725 -355.487955 
L 602.263965 -357.051424 
L 604.301205 -354.101252 
L 606.338445 -356.783332 
L 608.375685 -356.02181 
L 610.412924 -354.194839 
L 612.450164 -358.222597 
L 614.487404 -355.867484 
L 616.524644 -354.413095 
L 618.561884 -355.113596 
L 620.599124 -355.124129 
L 622.636364 -352.549542 
L 622.636364 -360.122038 
L 622.636364 -360.122038 
L 620.599124 -362.293826 
L 618.561884 -361.963573 
L 616.524644 -362.218041 
L 614.487404 -363.049304 
L 612.450164 -363.178943 
L 610.412924 -359.83523 
L 608.375685 -362.798635 
L 606.338445 -361.583367 
L 604.301205 -362.190731 
L 602.263965 -361.673916 
L 600.226725 -361.0801 
L 598.189485 -363.18156 
L 596.152245 -362.457326 
L 594.115005 -360.714793 
L 592.077766 -364.242631 
L 590.040526 -363.112319 
L 588.003286 -363.415212 
L 585.966046 -362.551059 
L 583.928806 -362.705497 
L 581.891566 -362.921641 
L 579.854326 -361.586855 
L 577.817087 -362.234512 
L 575.779847 -361.393582 
L 573.742607 -361.937011 
L 571.705367 -363.469692 
L 569.668127 -362.938329 
L 567.630887 -361.259201 
L 565.593647 -363.539094 
L 563.556407 -361.907929 
L 561.519168 -362.480106 
L 559.481928 -362.782443 
L 557.444688 -363.253769 
L 555.407448 -361.517191 
L 553.370208 -363.757146 
L 551.332968 -362.127255 
L 549.295728 -361.438555 
L 547.258488 -362.721715 
L 545.221249 -361.215393 
L 543.184009 -361.375742 
L 541.146769 -363.066206 
L 539.109529 -362.482858 
L 537.072289 -361.14267 
L 535.035049 -361.099926 
L 532.997809 -362.964116 
L 530.96057 -361.071062 
L 528.92333 -363.165137 
L 526.88609 -362.199535 
L 524.84885 -361.001646 
L 522.81161 -363.98114 
L 520.77437 -362.985171 
L 518.73713 -363.145256 
L 516.69989 -362.734788 
L 514.662651 -363.376894 
L 512.625411 -360.187053 
L 510.588171 -362.216294 
L 508.550931 -363.625329 
L 506.513691 -362.068489 
L 504.476451 -361.413272 
L 502.439211 -360.519078 
L 500.401972 -363.108372 
L 498.364732 -362.138757 
L 496.327492 -362.694159 
L 494.290252 -364.150894 
L 492.253012 -362.65425 
L 490.215772 -363.297659 
L 488.178532 -361.358161 
L 486.141292 -362.216479 
L 484.104053 -362.607994 
L 482.066813 -362.913163 
L 480.029573 -361.683398 
L 477.992333 -363.627545 
L 475.955093 -363.882941 
L 473.917853 -362.451239 
L 471.880613 -363.274875 
L 469.843373 -360.886128 
L 467.806134 -363.988345 
L 465.768894 -362.316686 
L 463.731654 -363.837256 
L 461.694414 -362.770448 
L 459.657174 -362.936683 
L 457.619934 -362.561765 
L 455.582694 -361.735654 
L 453.545455 -363.265948 
L 451.508215 -361.227319 
L 449.470975 -360.717397 
L 447.433735 -362.19714 
L 445.396495 -361.886731 
L 443.359255 -360.988711 
L 441.322015 -363.26135 
L 439.284775 -362.461432 
L 437.247536 -363.016123 
L 435.210296 -363.719548 
L 433.173056 -361.415458 
L 431.135816 -363.090579 
L 429.098576 -362.737314 
L 427.061336 -363.536972 
L 425.024096 -363.068091 
L 422.986857 -361.887033 
L 420.949617 -361.445884 
L 418.912377 -362.960673 
L 416.875137 -364.405679 
L 414.837897 -363.070095 
L 412.800657 -361.710771 
L 410.763417 -361.914706 
L 408.726177 -362.420713 
L 406.688938 -361.330832 
L 404.651698 -362.10635 
L 402.614458 -362.943527 
L 400.577218 -363.070964 
L 398.539978 -363.108622 
L 396.502738 -363.387357 
L 394.465498 -362.395998 
L 392.428258 -363.35003 
L 390.391019 -362.758265 
L 388.353779 -361.088217 
L 386.316539 -363.510772 
L 384.279299 -363.926432 
L 382.242059 -361.659234 
L 380.204819 -362.811341 
L 378.167579 -363.147065 
L 376.13034 -359.870477 
L 374.0931 -361.470861 
L 372.05586 -363.414903 
L 370.01862 -363.21742 
L 367.98138 -362.133963 
L 365.94414 -363.747846 
L 363.9069 -363.624422 
L 361.86966 -362.934287 
L 359.832421 -363.020812 
L 357.795181 -362.817225 
L 355.757941 -361.764845 
L 353.720701 -362.813391 
L 351.683461 -363.869332 
L 349.646221 -363.754824 
L 347.608981 -363.7286 
L 345.571742 -363.968935 
L 343.534502 -363.317782 
L 341.497262 -362.55074 
L 339.460022 -363.995356 
L 337.422782 -361.632616 
L 335.385542 -363.737568 
L 333.348302 -360.634406 
L 331.311062 -362.610828 
L 329.273823 -363.775966 
L 327.236583 -364.086793 
L 325.199343 -362.98532 
L 323.162103 -363.716031 
L 321.124863 -362.764114 
L 319.087623 -363.925235 
L 317.050383 -362.550006 
L 315.013143 -364.382672 
L 312.975904 -363.492311 
L 310.938664 -362.480996 
L 308.901424 -364.365012 
L 306.864184 -363.237805 
L 304.826944 -364.360103 
L 302.789704 -363.672721 
L 300.752464 -363.40397 
L 298.715225 -363.230054 
L 296.677985 -363.035749 
L 294.640745 -363.091257 
L 292.603505 -363.367579 
L 290.566265 -363.658109 
L 288.529025 -363.503266 
L 286.491785 -364.438346 
L 284.454545 -363.560301 
L 282.417306 -363.297828 
L 280.380066 -362.442857 
L 278.342826 -363.270843 
L 276.305586 -363.907213 
L 274.268346 -364.277904 
L 272.231106 -364.167849 
L 270.193866 -363.925838 
L 268.156627 -364.011308 
L 266.119387 -363.284631 
L 264.082147 -363.670846 
L 262.044907 -363.329841 
L 260.007667 -364.35729 
L 257.970427 -363.951846 
L 255.933187 -364.46395 
L 253.895947 -364.386366 
L 251.858708 -364.518815 
L 249.821468 -363.895533 
L 247.784228 -364.236124 
L 245.746988 -363.940528 
L 243.709748 -364.017928 
L 241.672508 -364.731877 
L 239.635268 -364.858152 
L 237.598028 -364.248067 
L 235.560789 -364.145312 
L 233.523549 -364.681589 
L 231.486309 -364.711347 
L 229.449069 -363.946784 
L 227.411829 -364.52959 
L 225.374589 -364.875652 
L 223.337349 -364.735797 
L 221.30011 -364.752784 
L 219.26287 -364.848187 
L 217.22563 -364.983836 
L 215.18839 -364.908988 
L 213.15115 -364.845189 
L 211.11391 -364.713379 
L 209.07667 -364.887002 
L 207.03943 -365.00076 
L 205.002191 -364.979502 
L 202.964951 -364.951396 
L 200.927711 -364.793979 
L 198.890471 -365.039242 
L 196.853231 -364.926425 
L 194.815991 -364.994915 
L 192.778751 -364.290691 
L 190.741512 -364.787454 
L 188.704272 -364.867497 
L 186.667032 -364.820337 
L 184.629792 -364.860802 
L 182.592552 -364.232444 
L 180.555312 -365.034986 
L 178.518072 -364.794609 
L 176.480832 -364.927879 
L 174.443593 -364.348378 
L 172.406353 -364.951391 
L 170.369113 -364.706017 
L 168.331873 -364.759237 
L 166.294633 -364.640498 
L 164.257393 -363.171458 
L 162.220153 -365.03212 
L 160.182913 -364.845545 
L 158.145674 -365.033107 
L 156.108434 -365.011352 
L 154.071194 -365.005673 
L 152.033954 -364.949225 
L 149.996714 -364.937681 
L 147.959474 -365.038411 
L 145.922234 -364.418162 
L 143.884995 -364.994359 
L 141.847755 -365.017376 
L 139.810515 -364.651321 
L 137.773275 -365.04 
L 135.736035 -364.402765 
L 133.698795 -364.857969 
L 131.661555 -364.521065 
L 129.624315 -360.393562 
L 127.587076 -365.036667 
L 125.549836 -363.524958 
L 123.512596 -365.002309 
L 121.475356 -357.980472 
L 119.438116 -353.27724 
L 117.400876 -286.327717 
L 115.363636 -363.532043 
z
" style="stroke: #023e8a; stroke-opacity: 0.2"/>
    </defs>
    <g clip-path="url(#pe44a1ce44b)">
     <use xlink:href="#m7d1b529a5a" x="0" y="432" style="fill: #023e8a; fill-opacity: 0.2; stroke: #023e8a; stroke-opacity: 0.2"/>
    </g>
   </g>
   <g id="matplotlib.axis_1">
    <g id="xtick_1">
     <g id="line2d_1">
      <path d="M 115.108981 384.48 
L 115.108981 51.84 
" clip-path="url(#pe44a1ce44b)" style="fill: none; stroke: #b0b0b0; stroke-opacity: 0.3; stroke-width: 0.8; stroke-linecap: square"/>
     </g>
     <g id="line2d_2">
      <defs>
       <path id="m3767f7d2c2" d="M 0 0 
L 0 3.5 
" style="stroke: #000000; stroke-width: 0.8"/>
      </defs>
      <g>
       <use xlink:href="#m3767f7d2c2" x="115.108981" y="384.48" style="stroke: #000000; stroke-width: 0.8"/>
      </g>
     </g>
     <g id="text_1">
      <!-- 0 -->
      <g transform="translate(111.927731 399.078438) scale(0.1 -0.1)">
       <defs>
        <path id="DejaVuSans-30" d="M 2034 4250 
Q 1547 4250 1301 3770 
Q 1056 3291 1056 2328 
Q 1056 1369 1301 889 
Q 1547 409 2034 409 
Q 2525 409 2770 889 
Q 3016 1369 3016 2328 
Q 3016 3291 2770 3770 
Q 2525 4250 2034 4250 
z
M 2034 4750 
Q 2819 4750 3233 4129 
Q 3647 3509 3647 2328 
Q 3647 1150 3233 529 
Q 2819 -91 2034 -91 
Q 1250 -91 836 529 
Q 422 1150 422 2328 
Q 422 3509 836 4129 
Q 1250 4750 2034 4750 
z
" transform="scale(0.015625)"/>
       </defs>
       <use xlink:href="#DejaVuSans-30"/>
      </g>
     </g>
    </g>
    <g id="xtick_2">
     <g id="line2d_3">
      <path d="M 178.772727 384.48 
L 178.772727 51.84 
" clip-path="url(#pe44a1ce44b)" style="fill: none; stroke: #b0b0b0; stroke-opacity: 0.3; stroke-width: 0.8; stroke-linecap: square"/>
     </g>
     <g id="line2d_4">
      <g>
       <use xlink:href="#m3767f7d2c2" x="178.772727" y="384.48" style="stroke: #000000; stroke-width: 0.8"/>
      </g>
     </g>
     <g id="text_2">
      <!-- 25000 -->
      <g transform="translate(162.866477 399.078438) scale(0.1 -0.1)">
       <defs>
        <path id="DejaVuSans-32" d="M 1228 531 
L 3431 531 
L 3431 0 
L 469 0 
L 469 531 
Q 828 903 1448 1529 
Q 2069 2156 2228 2338 
Q 2531 2678 2651 2914 
Q 2772 3150 2772 3378 
Q 2772 3750 2511 3984 
Q 2250 4219 1831 4219 
Q 1534 4219 1204 4116 
Q 875 4013 500 3803 
L 500 4441 
Q 881 4594 1212 4672 
Q 1544 4750 1819 4750 
Q 2544 4750 2975 4387 
Q 3406 4025 3406 3419 
Q 3406 3131 3298 2873 
Q 3191 2616 2906 2266 
Q 2828 2175 2409 1742 
Q 1991 1309 1228 531 
z
" transform="scale(0.015625)"/>
        <path id="DejaVuSans-35" d="M 691 4666 
L 3169 4666 
L 3169 4134 
L 1269 4134 
L 1269 2991 
Q 1406 3038 1543 3061 
Q 1681 3084 1819 3084 
Q 2600 3084 3056 2656 
Q 3513 2228 3513 1497 
Q 3513 744 3044 326 
Q 2575 -91 1722 -91 
Q 1428 -91 1123 -41 
Q 819 9 494 109 
L 494 744 
Q 775 591 1075 516 
Q 1375 441 1709 441 
Q 2250 441 2565 725 
Q 2881 1009 2881 1497 
Q 2881 1984 2565 2268 
Q 2250 2553 1709 2553 
Q 1456 2553 1204 2497 
Q 953 2441 691 2322 
L 691 4666 
z
" transform="scale(0.015625)"/>
       </defs>
       <use xlink:href="#DejaVuSans-32"/>
       <use xlink:href="#DejaVuSans-35" transform="translate(63.623047 0)"/>
       <use xlink:href="#DejaVuSans-30" transform="translate(127.246094 0)"/>
       <use xlink:href="#DejaVuSans-30" transform="translate(190.869141 0)"/>
       <use xlink:href="#DejaVuSans-30" transform="translate(254.492188 0)"/>
      </g>
     </g>
    </g>
    <g id="xtick_3">
     <g id="line2d_5">
      <path d="M 242.436473 384.48 
L 242.436473 51.84 
" clip-path="url(#pe44a1ce44b)" style="fill: none; stroke: #b0b0b0; stroke-opacity: 0.3; stroke-width: 0.8; stroke-linecap: square"/>
     </g>
     <g id="line2d_6">
      <g>
       <use xlink:href="#m3767f7d2c2" x="242.436473" y="384.48" style="stroke: #000000; stroke-width: 0.8"/>
      </g>
     </g>
     <g id="text_3">
      <!-- 50000 -->
      <g transform="translate(226.530223 399.078438) scale(0.1 -0.1)">
       <use xlink:href="#DejaVuSans-35"/>
       <use xlink:href="#DejaVuSans-30" transform="translate(63.623047 0)"/>
       <use xlink:href="#DejaVuSans-30" transform="translate(127.246094 0)"/>
       <use xlink:href="#DejaVuSans-30" transform="translate(190.869141 0)"/>
       <use xlink:href="#DejaVuSans-30" transform="translate(254.492188 0)"/>
      </g>
     </g>
    </g>
    <g id="xtick_4">
     <g id="line2d_7">
      <path d="M 306.100219 384.48 
L 306.100219 51.84 
" clip-path="url(#pe44a1ce44b)" style="fill: none; stroke: #b0b0b0; stroke-opacity: 0.3; stroke-width: 0.8; stroke-linecap: square"/>
     </g>
     <g id="line2d_8">
      <g>
       <use xlink:href="#m3767f7d2c2" x="306.100219" y="384.48" style="stroke: #000000; stroke-width: 0.8"/>
      </g>
     </g>
     <g id="text_4">
      <!-- 75000 -->
      <g transform="translate(290.193969 399.078438) scale(0.1 -0.1)">
       <defs>
        <path id="DejaVuSans-37" d="M 525 4666 
L 3525 4666 
L 3525 4397 
L 1831 0 
L 1172 0 
L 2766 4134 
L 525 4134 
L 525 4666 
z
" transform="scale(0.015625)"/>
       </defs>
       <use xlink:href="#DejaVuSans-37"/>
       <use xlink:href="#DejaVuSans-35" transform="translate(63.623047 0)"/>
       <use xlink:href="#DejaVuSans-30" transform="translate(127.246094 0)"/>
       <use xlink:href="#DejaVuSans-30" transform="translate(190.869141 0)"/>
       <use xlink:href="#DejaVuSans-30" transform="translate(254.492188 0)"/>
      </g>
     </g>
    </g>
    <g id="xtick_5">
     <g id="line2d_9">
      <path d="M 369.763965 384.48 
L 369.763965 51.84 
" clip-path="url(#pe44a1ce44b)" style="fill: none; stroke: #b0b0b0; stroke-opacity: 0.3; stroke-width: 0.8; stroke-linecap: square"/>
     </g>
     <g id="line2d_10">
      <g>
       <use xlink:href="#m3767f7d2c2" x="369.763965" y="384.48" style="stroke: #000000; stroke-width: 0.8"/>
      </g>
     </g>
     <g id="text_5">
      <!-- 100000 -->
      <g transform="translate(350.676465 399.078438) scale(0.1 -0.1)">
       <defs>
        <path id="DejaVuSans-31" d="M 794 531 
L 1825 531 
L 1825 4091 
L 703 3866 
L 703 4441 
L 1819 4666 
L 2450 4666 
L 2450 531 
L 3481 531 
L 3481 0 
L 794 0 
L 794 531 
z
" transform="scale(0.015625)"/>
       </defs>
       <use xlink:href="#DejaVuSans-31"/>
       <use xlink:href="#DejaVuSans-30" transform="translate(63.623047 0)"/>
       <use xlink:href="#DejaVuSans-30" transform="translate(127.246094 0)"/>
       <use xlink:href="#DejaVuSans-30" transform="translate(190.869141 0)"/>
       <use xlink:href="#DejaVuSans-30" transform="translate(254.492188 0)"/>
       <use xlink:href="#DejaVuSans-30" transform="translate(318.115234 0)"/>
      </g>
     </g>
    </g>
    <g id="xtick_6">
     <g id="line2d_11">
      <path d="M 433.427711 384.48 
L 433.427711 51.84 
" clip-path="url(#pe44a1ce44b)" style="fill: none; stroke: #b0b0b0; stroke-opacity: 0.3; stroke-width: 0.8; stroke-linecap: square"/>
     </g>
     <g id="line2d_12">
      <g>
       <use xlink:href="#m3767f7d2c2" x="433.427711" y="384.48" style="stroke: #000000; stroke-width: 0.8"/>
      </g>
     </g>
     <g id="text_6">
      <!-- 125000 -->
      <g transform="translate(414.340211 399.078438) scale(0.1 -0.1)">
       <use xlink:href="#DejaVuSans-31"/>
       <use xlink:href="#DejaVuSans-32" transform="translate(63.623047 0)"/>
       <use xlink:href="#DejaVuSans-35" transform="translate(127.246094 0)"/>
       <use xlink:href="#DejaVuSans-30" transform="translate(190.869141 0)"/>
       <use xlink:href="#DejaVuSans-30" transform="translate(254.492188 0)"/>
       <use xlink:href="#DejaVuSans-30" transform="translate(318.115234 0)"/>
      </g>
     </g>
    </g>
    <g id="xtick_7">
     <g id="line2d_13">
      <path d="M 497.091457 384.48 
L 497.091457 51.84 
" clip-path="url(#pe44a1ce44b)" style="fill: none; stroke: #b0b0b0; stroke-opacity: 0.3; stroke-width: 0.8; stroke-linecap: square"/>
     </g>
     <g id="line2d_14">
      <g>
       <use xlink:href="#m3767f7d2c2" x="497.091457" y="384.48" style="stroke: #000000; stroke-width: 0.8"/>
      </g>
     </g>
     <g id="text_7">
      <!-- 150000 -->
      <g transform="translate(478.003957 399.078438) scale(0.1 -0.1)">
       <use xlink:href="#DejaVuSans-31"/>
       <use xlink:href="#DejaVuSans-35" transform="translate(63.623047 0)"/>
       <use xlink:href="#DejaVuSans-30" transform="translate(127.246094 0)"/>
       <use xlink:href="#DejaVuSans-30" transform="translate(190.869141 0)"/>
       <use xlink:href="#DejaVuSans-30" transform="translate(254.492188 0)"/>
       <use xlink:href="#DejaVuSans-30" transform="translate(318.115234 0)"/>
      </g>
     </g>
    </g>
    <g id="xtick_8">
     <g id="line2d_15">
      <path d="M 560.755203 384.48 
L 560.755203 51.84 
" clip-path="url(#pe44a1ce44b)" style="fill: none; stroke: #b0b0b0; stroke-opacity: 0.3; stroke-width: 0.8; stroke-linecap: square"/>
     </g>
     <g id="line2d_16">
      <g>
       <use xlink:href="#m3767f7d2c2" x="560.755203" y="384.48" style="stroke: #000000; stroke-width: 0.8"/>
      </g>
     </g>
     <g id="text_8">
      <!-- 175000 -->
      <g transform="translate(541.667703 399.078438) scale(0.1 -0.1)">
       <use xlink:href="#DejaVuSans-31"/>
       <use xlink:href="#DejaVuSans-37" transform="translate(63.623047 0)"/>
       <use xlink:href="#DejaVuSans-35" transform="translate(127.246094 0)"/>
       <use xlink:href="#DejaVuSans-30" transform="translate(190.869141 0)"/>
       <use xlink:href="#DejaVuSans-30" transform="translate(254.492188 0)"/>
       <use xlink:href="#DejaVuSans-30" transform="translate(318.115234 0)"/>
      </g>
     </g>
    </g>
    <g id="xtick_9">
     <g id="line2d_17">
      <path d="M 624.418949 384.48 
L 624.418949 51.84 
" clip-path="url(#pe44a1ce44b)" style="fill: none; stroke: #b0b0b0; stroke-opacity: 0.3; stroke-width: 0.8; stroke-linecap: square"/>
     </g>
     <g id="line2d_18">
      <g>
       <use xlink:href="#m3767f7d2c2" x="624.418949" y="384.48" style="stroke: #000000; stroke-width: 0.8"/>
      </g>
     </g>
     <g id="text_9">
      <!-- 200000 -->
      <g transform="translate(605.331449 399.078438) scale(0.1 -0.1)">
       <use xlink:href="#DejaVuSans-32"/>
       <use xlink:href="#DejaVuSans-30" transform="translate(63.623047 0)"/>
       <use xlink:href="#DejaVuSans-30" transform="translate(127.246094 0)"/>
       <use xlink:href="#DejaVuSans-30" transform="translate(190.869141 0)"/>
       <use xlink:href="#DejaVuSans-30" transform="translate(254.492188 0)"/>
       <use xlink:href="#DejaVuSans-30" transform="translate(318.115234 0)"/>
      </g>
     </g>
    </g>
    <g id="text_10">
     <!-- Training Steps -->
     <g transform="translate(333.695312 412.756563) scale(0.1 -0.1)">
      <defs>
       <path id="DejaVuSans-54" d="M -19 4666 
L 3928 4666 
L 3928 4134 
L 2272 4134 
L 2272 0 
L 1638 0 
L 1638 4134 
L -19 4134 
L -19 4666 
z
" transform="scale(0.015625)"/>
       <path id="DejaVuSans-72" d="M 2631 2963 
Q 2534 3019 2420 3045 
Q 2306 3072 2169 3072 
Q 1681 3072 1420 2755 
Q 1159 2438 1159 1844 
L 1159 0 
L 581 0 
L 581 3500 
L 1159 3500 
L 1159 2956 
Q 1341 3275 1631 3429 
Q 1922 3584 2338 3584 
Q 2397 3584 2469 3576 
Q 2541 3569 2628 3553 
L 2631 2963 
z
" transform="scale(0.015625)"/>
       <path id="DejaVuSans-61" d="M 2194 1759 
Q 1497 1759 1228 1600 
Q 959 1441 959 1056 
Q 959 750 1161 570 
Q 1363 391 1709 391 
Q 2188 391 2477 730 
Q 2766 1069 2766 1631 
L 2766 1759 
L 2194 1759 
z
M 3341 1997 
L 3341 0 
L 2766 0 
L 2766 531 
Q 2569 213 2275 61 
Q 1981 -91 1556 -91 
Q 1019 -91 701 211 
Q 384 513 384 1019 
Q 384 1609 779 1909 
Q 1175 2209 1959 2209 
L 2766 2209 
L 2766 2266 
Q 2766 2663 2505 2880 
Q 2244 3097 1772 3097 
Q 1472 3097 1187 3025 
Q 903 2953 641 2809 
L 641 3341 
Q 956 3463 1253 3523 
Q 1550 3584 1831 3584 
Q 2591 3584 2966 3190 
Q 3341 2797 3341 1997 
z
" transform="scale(0.015625)"/>
       <path id="DejaVuSans-69" d="M 603 3500 
L 1178 3500 
L 1178 0 
L 603 0 
L 603 3500 
z
M 603 4863 
L 1178 4863 
L 1178 4134 
L 603 4134 
L 603 4863 
z
" transform="scale(0.015625)"/>
       <path id="DejaVuSans-6e" d="M 3513 2113 
L 3513 0 
L 2938 0 
L 2938 2094 
Q 2938 2591 2744 2837 
Q 2550 3084 2163 3084 
Q 1697 3084 1428 2787 
Q 1159 2491 1159 1978 
L 1159 0 
L 581 0 
L 581 3500 
L 1159 3500 
L 1159 2956 
Q 1366 3272 1645 3428 
Q 1925 3584 2291 3584 
Q 2894 3584 3203 3211 
Q 3513 2838 3513 2113 
z
" transform="scale(0.015625)"/>
       <path id="DejaVuSans-67" d="M 2906 1791 
Q 2906 2416 2648 2759 
Q 2391 3103 1925 3103 
Q 1463 3103 1205 2759 
Q 947 2416 947 1791 
Q 947 1169 1205 825 
Q 1463 481 1925 481 
Q 2391 481 2648 825 
Q 2906 1169 2906 1791 
z
M 3481 434 
Q 3481 -459 3084 -895 
Q 2688 -1331 1869 -1331 
Q 1566 -1331 1297 -1286 
Q 1028 -1241 775 -1147 
L 775 -588 
Q 1028 -725 1275 -790 
Q 1522 -856 1778 -856 
Q 2344 -856 2625 -561 
Q 2906 -266 2906 331 
L 2906 616 
Q 2728 306 2450 153 
Q 2172 0 1784 0 
Q 1141 0 747 490 
Q 353 981 353 1791 
Q 353 2603 747 3093 
Q 1141 3584 1784 3584 
Q 2172 3584 2450 3431 
Q 2728 3278 2906 2969 
L 2906 3500 
L 3481 3500 
L 3481 434 
z
" transform="scale(0.015625)"/>
       <path id="DejaVuSans-20" transform="scale(0.015625)"/>
       <path id="DejaVuSans-53" d="M 3425 4513 
L 3425 3897 
Q 3066 4069 2747 4153 
Q 2428 4238 2131 4238 
Q 1616 4238 1336 4038 
Q 1056 3838 1056 3469 
Q 1056 3159 1242 3001 
Q 1428 2844 1947 2747 
L 2328 2669 
Q 3034 2534 3370 2195 
Q 3706 1856 3706 1288 
Q 3706 609 3251 259 
Q 2797 -91 1919 -91 
Q 1588 -91 1214 -16 
Q 841 59 441 206 
L 441 856 
Q 825 641 1194 531 
Q 1563 422 1919 422 
Q 2459 422 2753 634 
Q 3047 847 3047 1241 
Q 3047 1584 2836 1778 
Q 2625 1972 2144 2069 
L 1759 2144 
Q 1053 2284 737 2584 
Q 422 2884 422 3419 
Q 422 4038 858 4394 
Q 1294 4750 2059 4750 
Q 2388 4750 2728 4690 
Q 3069 4631 3425 4513 
z
" transform="scale(0.015625)"/>
       <path id="DejaVuSans-74" d="M 1172 4494 
L 1172 3500 
L 2356 3500 
L 2356 3053 
L 1172 3053 
L 1172 1153 
Q 1172 725 1289 603 
Q 1406 481 1766 481 
L 2356 481 
L 2356 0 
L 1766 0 
Q 1100 0 847 248 
Q 594 497 594 1153 
L 594 3053 
L 172 3053 
L 172 3500 
L 594 3500 
L 594 4494 
L 1172 4494 
z
" transform="scale(0.015625)"/>
       <path id="DejaVuSans-65" d="M 3597 1894 
L 3597 1613 
L 953 1613 
Q 991 1019 1311 708 
Q 1631 397 2203 397 
Q 2534 397 2845 478 
Q 3156 559 3463 722 
L 3463 178 
Q 3153 47 2828 -22 
Q 2503 -91 2169 -91 
Q 1331 -91 842 396 
Q 353 884 353 1716 
Q 353 2575 817 3079 
Q 1281 3584 2069 3584 
Q 2775 3584 3186 3129 
Q 3597 2675 3597 1894 
z
M 3022 2063 
Q 3016 2534 2758 2815 
Q 2500 3097 2075 3097 
Q 1594 3097 1305 2825 
Q 1016 2553 972 2059 
L 3022 2063 
z
" transform="scale(0.015625)"/>
       <path id="DejaVuSans-70" d="M 1159 525 
L 1159 -1331 
L 581 -1331 
L 581 3500 
L 1159 3500 
L 1159 2969 
Q 1341 3281 1617 3432 
Q 1894 3584 2278 3584 
Q 2916 3584 3314 3078 
Q 3713 2572 3713 1747 
Q 3713 922 3314 415 
Q 2916 -91 2278 -91 
Q 1894 -91 1617 61 
Q 1341 213 1159 525 
z
M 3116 1747 
Q 3116 2381 2855 2742 
Q 2594 3103 2138 3103 
Q 1681 3103 1420 2742 
Q 1159 2381 1159 1747 
Q 1159 1113 1420 752 
Q 1681 391 2138 391 
Q 2594 391 2855 752 
Q 3116 1113 3116 1747 
z
" transform="scale(0.015625)"/>
       <path id="DejaVuSans-73" d="M 2834 3397 
L 2834 2853 
Q 2591 2978 2328 3040 
Q 2066 3103 1784 3103 
Q 1356 3103 1142 2972 
Q 928 2841 928 2578 
Q 928 2378 1081 2264 
Q 1234 2150 1697 2047 
L 1894 2003 
Q 2506 1872 2764 1633 
Q 3022 1394 3022 966 
Q 3022 478 2636 193 
Q 2250 -91 1575 -91 
Q 1294 -91 989 -36 
Q 684 19 347 128 
L 347 722 
Q 666 556 975 473 
Q 1284 391 1588 391 
Q 1994 391 2212 530 
Q 2431 669 2431 922 
Q 2431 1156 2273 1281 
Q 2116 1406 1581 1522 
L 1381 1569 
Q 847 1681 609 1914 
Q 372 2147 372 2553 
Q 372 3047 722 3315 
Q 1072 3584 1716 3584 
Q 2034 3584 2315 3537 
Q 2597 3491 2834 3397 
z
" transform="scale(0.015625)"/>
      </defs>
      <use xlink:href="#DejaVuSans-54"/>
      <use xlink:href="#DejaVuSans-72" transform="translate(46.333984 0)"/>
      <use xlink:href="#DejaVuSans-61" transform="translate(87.447266 0)"/>
      <use xlink:href="#DejaVuSans-69" transform="translate(148.726562 0)"/>
      <use xlink:href="#DejaVuSans-6e" transform="translate(176.509766 0)"/>
      <use xlink:href="#DejaVuSans-69" transform="translate(239.888672 0)"/>
      <use xlink:href="#DejaVuSans-6e" transform="translate(267.671875 0)"/>
      <use xlink:href="#DejaVuSans-67" transform="translate(331.050781 0)"/>
      <use xlink:href="#DejaVuSans-20" transform="translate(394.527344 0)"/>
      <use xlink:href="#DejaVuSans-53" transform="translate(426.314453 0)"/>
      <use xlink:href="#DejaVuSans-74" transform="translate(489.791016 0)"/>
      <use xlink:href="#DejaVuSans-65" transform="translate(529 0)"/>
      <use xlink:href="#DejaVuSans-70" transform="translate(590.523438 0)"/>
      <use xlink:href="#DejaVuSans-73" transform="translate(654 0)"/>
     </g>
    </g>
   </g>
   <g id="matplotlib.axis_2">
    <g id="ytick_1">
     <g id="line2d_19">
      <path d="M 90 342.467615 
L 648 342.467615 
" clip-path="url(#pe44a1ce44b)" style="fill: none; stroke: #b0b0b0; stroke-opacity: 0.3; stroke-width: 0.8; stroke-linecap: square"/>
     </g>
     <g id="line2d_20">
      <defs>
       <path id="me955c7a651" d="M 0 0 
L -3.5 0 
" style="stroke: #000000; stroke-width: 0.8"/>
      </defs>
      <g>
       <use xlink:href="#me955c7a651" x="90" y="342.467615" style="stroke: #000000; stroke-width: 0.8"/>
      </g>
     </g>
     <g id="text_11">
      <!-- 0.6 -->
      <g transform="translate(58.717187 346.266834) scale(0.1 -0.1)">
       <defs>
        <path id="DejaVuSans-2212" d="M 678 2272 
L 4684 2272 
L 4684 1741 
L 678 1741 
L 678 2272 
z
" transform="scale(0.015625)"/>
        <path id="DejaVuSans-2e" d="M 684 794 
L 1344 794 
L 1344 0 
L 684 0 
L 684 794 
z
" transform="scale(0.015625)"/>
        <path id="DejaVuSans-36" d="M 2113 2584 
Q 1688 2584 1439 2293 
Q 1191 2003 1191 1497 
Q 1191 994 1439 701 
Q 1688 409 2113 409 
Q 2538 409 2786 701 
Q 3034 994 3034 1497 
Q 3034 2003 2786 2293 
Q 2538 2584 2113 2584 
z
M 3366 4563 
L 3366 3988 
Q 3128 4100 2886 4159 
Q 2644 4219 2406 4219 
Q 1781 4219 1451 3797 
Q 1122 3375 1075 2522 
Q 1259 2794 1537 2939 
Q 1816 3084 2150 3084 
Q 2853 3084 3261 2657 
Q 3669 2231 3669 1497 
Q 3669 778 3244 343 
Q 2819 -91 2113 -91 
Q 1303 -91 875 529 
Q 447 1150 447 2328 
Q 447 3434 972 4092 
Q 1497 4750 2381 4750 
Q 2619 4750 2861 4703 
Q 3103 4656 3366 4563 
z
" transform="scale(0.015625)"/>
       </defs>
       <use xlink:href="#DejaVuSans-2212"/>
       <use xlink:href="#DejaVuSans-30" transform="translate(83.789062 0)"/>
       <use xlink:href="#DejaVuSans-2e" transform="translate(147.412109 0)"/>
       <use xlink:href="#DejaVuSans-36" transform="translate(179.199219 0)"/>
      </g>
     </g>
    </g>
    <g id="ytick_2">
     <g id="line2d_21">
      <path d="M 90 296.548826 
L 648 296.548826 
" clip-path="url(#pe44a1ce44b)" style="fill: none; stroke: #b0b0b0; stroke-opacity: 0.3; stroke-width: 0.8; stroke-linecap: square"/>
     </g>
     <g id="line2d_22">
      <g>
       <use xlink:href="#me955c7a651" x="90" y="296.548826" style="stroke: #000000; stroke-width: 0.8"/>
      </g>
     </g>
     <g id="text_12">
      <!-- 0.5 -->
      <g transform="translate(58.717187 300.348045) scale(0.1 -0.1)">
       <use xlink:href="#DejaVuSans-2212"/>
       <use xlink:href="#DejaVuSans-30" transform="translate(83.789062 0)"/>
       <use xlink:href="#DejaVuSans-2e" transform="translate(147.412109 0)"/>
       <use xlink:href="#DejaVuSans-35" transform="translate(179.199219 0)"/>
      </g>
     </g>
    </g>
    <g id="ytick_3">
     <g id="line2d_23">
      <path d="M 90 250.630037 
L 648 250.630037 
" clip-path="url(#pe44a1ce44b)" style="fill: none; stroke: #b0b0b0; stroke-opacity: 0.3; stroke-width: 0.8; stroke-linecap: square"/>
     </g>
     <g id="line2d_24">
      <g>
       <use xlink:href="#me955c7a651" x="90" y="250.630037" style="stroke: #000000; stroke-width: 0.8"/>
      </g>
     </g>
     <g id="text_13">
      <!-- 0.4 -->
      <g transform="translate(58.717187 254.429256) scale(0.1 -0.1)">
       <defs>
        <path id="DejaVuSans-34" d="M 2419 4116 
L 825 1625 
L 2419 1625 
L 2419 4116 
z
M 2253 4666 
L 3047 4666 
L 3047 1625 
L 3713 1625 
L 3713 1100 
L 3047 1100 
L 3047 0 
L 2419 0 
L 2419 1100 
L 313 1100 
L 313 1709 
L 2253 4666 
z
" transform="scale(0.015625)"/>
       </defs>
       <use xlink:href="#DejaVuSans-2212"/>
       <use xlink:href="#DejaVuSans-30" transform="translate(83.789062 0)"/>
       <use xlink:href="#DejaVuSans-2e" transform="translate(147.412109 0)"/>
       <use xlink:href="#DejaVuSans-34" transform="translate(179.199219 0)"/>
      </g>
     </g>
    </g>
    <g id="ytick_4">
     <g id="line2d_25">
      <path d="M 90 204.711248 
L 648 204.711248 
" clip-path="url(#pe44a1ce44b)" style="fill: none; stroke: #b0b0b0; stroke-opacity: 0.3; stroke-width: 0.8; stroke-linecap: square"/>
     </g>
     <g id="line2d_26">
      <g>
       <use xlink:href="#me955c7a651" x="90" y="204.711248" style="stroke: #000000; stroke-width: 0.8"/>
      </g>
     </g>
     <g id="text_14">
      <!-- 0.3 -->
      <g transform="translate(58.717187 208.510467) scale(0.1 -0.1)">
       <defs>
        <path id="DejaVuSans-33" d="M 2597 2516 
Q 3050 2419 3304 2112 
Q 3559 1806 3559 1356 
Q 3559 666 3084 287 
Q 2609 -91 1734 -91 
Q 1441 -91 1130 -33 
Q 819 25 488 141 
L 488 750 
Q 750 597 1062 519 
Q 1375 441 1716 441 
Q 2309 441 2620 675 
Q 2931 909 2931 1356 
Q 2931 1769 2642 2001 
Q 2353 2234 1838 2234 
L 1294 2234 
L 1294 2753 
L 1863 2753 
Q 2328 2753 2575 2939 
Q 2822 3125 2822 3475 
Q 2822 3834 2567 4026 
Q 2313 4219 1838 4219 
Q 1578 4219 1281 4162 
Q 984 4106 628 3988 
L 628 4550 
Q 988 4650 1302 4700 
Q 1616 4750 1894 4750 
Q 2613 4750 3031 4423 
Q 3450 4097 3450 3541 
Q 3450 3153 3228 2886 
Q 3006 2619 2597 2516 
z
" transform="scale(0.015625)"/>
       </defs>
       <use xlink:href="#DejaVuSans-2212"/>
       <use xlink:href="#DejaVuSans-30" transform="translate(83.789062 0)"/>
       <use xlink:href="#DejaVuSans-2e" transform="translate(147.412109 0)"/>
       <use xlink:href="#DejaVuSans-33" transform="translate(179.199219 0)"/>
      </g>
     </g>
    </g>
    <g id="ytick_5">
     <g id="line2d_27">
      <path d="M 90 158.792459 
L 648 158.792459 
" clip-path="url(#pe44a1ce44b)" style="fill: none; stroke: #b0b0b0; stroke-opacity: 0.3; stroke-width: 0.8; stroke-linecap: square"/>
     </g>
     <g id="line2d_28">
      <g>
       <use xlink:href="#me955c7a651" x="90" y="158.792459" style="stroke: #000000; stroke-width: 0.8"/>
      </g>
     </g>
     <g id="text_15">
      <!-- 0.2 -->
      <g transform="translate(58.717187 162.591678) scale(0.1 -0.1)">
       <use xlink:href="#DejaVuSans-2212"/>
       <use xlink:href="#DejaVuSans-30" transform="translate(83.789062 0)"/>
       <use xlink:href="#DejaVuSans-2e" transform="translate(147.412109 0)"/>
       <use xlink:href="#DejaVuSans-32" transform="translate(179.199219 0)"/>
      </g>
     </g>
    </g>
    <g id="ytick_6">
     <g id="line2d_29">
      <path d="M 90 112.87367 
L 648 112.87367 
" clip-path="url(#pe44a1ce44b)" style="fill: none; stroke: #b0b0b0; stroke-opacity: 0.3; stroke-width: 0.8; stroke-linecap: square"/>
     </g>
     <g id="line2d_30">
      <g>
       <use xlink:href="#me955c7a651" x="90" y="112.87367" style="stroke: #000000; stroke-width: 0.8"/>
      </g>
     </g>
     <g id="text_16">
      <!-- 0.1 -->
      <g transform="translate(58.717187 116.672889) scale(0.1 -0.1)">
       <use xlink:href="#DejaVuSans-2212"/>
       <use xlink:href="#DejaVuSans-30" transform="translate(83.789062 0)"/>
       <use xlink:href="#DejaVuSans-2e" transform="translate(147.412109 0)"/>
       <use xlink:href="#DejaVuSans-31" transform="translate(179.199219 0)"/>
      </g>
     </g>
    </g>
    <g id="ytick_7">
     <g id="line2d_31">
      <path d="M 90 66.954881 
L 648 66.954881 
" clip-path="url(#pe44a1ce44b)" style="fill: none; stroke: #b0b0b0; stroke-opacity: 0.3; stroke-width: 0.8; stroke-linecap: square"/>
     </g>
     <g id="line2d_32">
      <g>
       <use xlink:href="#me955c7a651" x="90" y="66.954881" style="stroke: #000000; stroke-width: 0.8"/>
      </g>
     </g>
     <g id="text_17">
      <!-- 0.0 -->
      <g transform="translate(67.096875 70.7541) scale(0.1 -0.1)">
       <use xlink:href="#DejaVuSans-30"/>
       <use xlink:href="#DejaVuSans-2e" transform="translate(63.623047 0)"/>
       <use xlink:href="#DejaVuSans-30" transform="translate(95.410156 0)"/>
      </g>
     </g>
    </g>
    <g id="text_18">
     <!-- Return -->
     <g transform="translate(52.6375 234.751406) rotate(-90) scale(0.1 -0.1)">
      <defs>
       <path id="DejaVuSans-52" d="M 2841 2188 
Q 3044 2119 3236 1894 
Q 3428 1669 3622 1275 
L 4263 0 
L 3584 0 
L 2988 1197 
Q 2756 1666 2539 1819 
Q 2322 1972 1947 1972 
L 1259 1972 
L 1259 0 
L 628 0 
L 628 4666 
L 2053 4666 
Q 2853 4666 3247 4331 
Q 3641 3997 3641 3322 
Q 3641 2881 3436 2590 
Q 3231 2300 2841 2188 
z
M 1259 4147 
L 1259 2491 
L 2053 2491 
Q 2509 2491 2742 2702 
Q 2975 2913 2975 3322 
Q 2975 3731 2742 3939 
Q 2509 4147 2053 4147 
L 1259 4147 
z
" transform="scale(0.015625)"/>
       <path id="DejaVuSans-75" d="M 544 1381 
L 544 3500 
L 1119 3500 
L 1119 1403 
Q 1119 906 1312 657 
Q 1506 409 1894 409 
Q 2359 409 2629 706 
Q 2900 1003 2900 1516 
L 2900 3500 
L 3475 3500 
L 3475 0 
L 2900 0 
L 2900 538 
Q 2691 219 2414 64 
Q 2138 -91 1772 -91 
Q 1169 -91 856 284 
Q 544 659 544 1381 
z
M 1991 3584 
L 1991 3584 
z
" transform="scale(0.015625)"/>
      </defs>
      <use xlink:href="#DejaVuSans-52"/>
      <use xlink:href="#DejaVuSans-65" transform="translate(64.982422 0)"/>
      <use xlink:href="#DejaVuSans-74" transform="translate(126.505859 0)"/>
      <use xlink:href="#DejaVuSans-75" transform="translate(165.714844 0)"/>
      <use xlink:href="#DejaVuSans-72" transform="translate(229.09375 0)"/>
      <use xlink:href="#DejaVuSans-6e" transform="translate(268.457031 0)"/>
     </g>
    </g>
   </g>
   <g id="line2d_33">
    <path d="M 115.363636 368.744242 
L 117.400876 81.162715 
L 119.438116 86.285649 
L 121.475356 78.720986 
L 123.512596 74.202536 
L 125.549836 73.643132 
L 127.587076 74.35191 
L 129.624315 73.003386 
L 131.661555 75.015581 
L 133.698795 76.269319 
L 135.736035 73.834053 
L 137.773275 76.724859 
L 139.810515 78.254787 
L 141.847755 75.791514 
L 143.884995 74.485621 
L 145.922234 75.076125 
L 147.959474 72.363431 
L 149.996714 73.26659 
L 152.033954 73.706508 
L 154.071194 71.529054 
L 156.108434 72.675344 
L 158.145674 72.340398 
L 160.182913 70.897332 
L 162.220153 71.303179 
L 164.257393 69.907798 
L 166.294633 71.31975 
L 168.331873 70.726217 
L 170.369113 70.253194 
L 172.406353 71.60551 
L 174.443593 70.319105 
L 176.480832 71.091302 
L 178.518072 68.902901 
L 180.555312 69.473993 
L 182.592552 71.043896 
L 184.629792 70.386751 
L 186.667032 70.396911 
L 188.704272 70.163831 
L 190.741512 69.736555 
L 192.778751 69.502547 
L 196.853231 70.219643 
L 200.927711 70.479072 
L 202.964951 70.229905 
L 205.002191 70.161765 
L 209.07667 69.596323 
L 211.11391 69.693418 
L 213.15115 69.445004 
L 217.22563 69.653963 
L 219.26287 69.931704 
L 221.30011 69.503304 
L 223.337349 69.666533 
L 225.374589 69.613144 
L 227.411829 69.815251 
L 229.449069 70.218988 
L 231.486309 70.365946 
L 235.560789 70.414766 
L 241.672508 70.478293 
L 243.709748 70.749998 
L 249.821468 69.874525 
L 251.858708 69.871606 
L 253.895947 69.676084 
L 255.933187 69.16099 
L 257.970427 69.659479 
L 264.082147 69.771385 
L 266.119387 69.718968 
L 268.156627 70.048973 
L 270.193866 69.94905 
L 274.268346 70.066164 
L 276.305586 69.934767 
L 278.342826 69.432118 
L 280.380066 70.093568 
L 282.417306 69.696942 
L 284.454545 70.088371 
L 286.491785 69.822501 
L 288.529025 70.056952 
L 290.566265 69.593755 
L 292.603505 69.886934 
L 294.640745 69.19192 
L 296.677985 69.57128 
L 298.715225 69.164424 
L 300.752464 69.527538 
L 304.826944 69.118898 
L 306.864184 68.911769 
L 308.901424 69.173259 
L 310.938664 69.160266 
L 312.975904 68.997202 
L 319.087623 69.183635 
L 321.124863 69.45136 
L 325.199343 68.94726 
L 327.236583 69.106647 
L 333.348302 68.599944 
L 335.385542 68.914939 
L 337.422782 68.578438 
L 339.460022 68.425889 
L 341.497262 68.839091 
L 345.571742 68.341401 
L 349.646221 68.536414 
L 351.683461 68.488942 
L 353.720701 68.715343 
L 355.757941 68.567012 
L 359.832421 68.588559 
L 370.01862 68.813909 
L 372.05586 69.102016 
L 374.0931 69.208191 
L 376.13034 68.970441 
L 378.167579 69.012258 
L 380.204819 69.179144 
L 382.242059 68.96334 
L 384.279299 69.062047 
L 386.316539 68.729215 
L 388.353779 68.632446 
L 390.391019 68.993303 
L 392.428258 68.894107 
L 396.502738 68.926135 
L 398.539978 68.305633 
L 402.614458 68.699334 
L 404.651698 68.766799 
L 406.688938 69.229194 
L 408.726177 69.065914 
L 410.763417 69.074126 
L 412.800657 68.73279 
L 414.837897 68.890681 
L 416.875137 68.544227 
L 418.912377 68.482082 
L 420.949617 68.776443 
L 422.986857 68.555551 
L 425.024096 68.651811 
L 427.061336 68.990286 
L 429.098576 68.560947 
L 435.210296 68.720533 
L 437.247536 68.473128 
L 439.284775 68.642439 
L 441.322015 68.581042 
L 447.433735 68.970195 
L 449.470975 68.592489 
L 451.508215 69.067811 
L 453.545455 68.491229 
L 457.619934 68.615341 
L 459.657174 68.328623 
L 461.694414 68.170785 
L 463.731654 68.221374 
L 465.768894 68.531722 
L 467.806134 68.285784 
L 469.843373 68.342803 
L 471.880613 67.974258 
L 473.917853 68.147484 
L 475.955093 67.963235 
L 477.992333 67.947946 
L 480.029573 68.210573 
L 482.066813 68.058504 
L 484.104053 68.290425 
L 486.141292 68.221842 
L 488.178532 67.963766 
L 492.253012 67.934144 
L 494.290252 68.186485 
L 496.327492 68.141094 
L 498.364732 68.232083 
L 500.401972 68.030964 
L 502.439211 68.256282 
L 506.513691 68.026361 
L 508.550931 67.935124 
L 510.588171 68.102487 
L 514.662651 67.818136 
L 516.69989 67.911532 
L 518.73713 67.817132 
L 520.77437 68.205875 
L 522.81161 67.938152 
L 524.84885 67.878281 
L 526.88609 68.035011 
L 528.92333 67.866716 
L 530.96057 68.23548 
L 532.997809 68.063724 
L 539.109529 68.135974 
L 543.184009 68.000118 
L 545.221249 68.218914 
L 547.258488 68.126769 
L 551.332968 68.149135 
L 553.370208 68.143847 
L 555.407448 68.026148 
L 557.444688 68.223091 
L 559.481928 68.164244 
L 561.519168 68.296282 
L 563.556407 68.179153 
L 565.593647 68.188188 
L 569.668127 68.006429 
L 571.705367 68.077819 
L 573.742607 67.904929 
L 577.817087 68.043105 
L 579.854326 67.835957 
L 581.891566 67.979383 
L 588.003286 68.112219 
L 590.040526 68.194499 
L 592.077766 68.024396 
L 600.226725 68.168119 
L 602.263965 68.061193 
L 604.301205 68.229135 
L 606.338445 68.099152 
L 608.375685 68.439901 
L 610.412924 68.284102 
L 612.450164 68.430776 
L 616.524644 68.44627 
L 620.599124 68.584626 
L 622.636364 68.372045 
L 622.636364 68.372045 
" clip-path="url(#pe44a1ce44b)" style="fill: none; stroke: #d00000; stroke-width: 1.5; stroke-linecap: square"/>
   </g>
   <g id="line2d_34">
    <path d="M 115.363636 84.01021 
L 117.400876 71.373733 
L 119.438116 73.73162 
L 121.475356 119.190044 
L 123.512596 69.82634 
L 125.549836 99.85955 
L 127.587076 71.333332 
L 129.624315 74.812275 
L 131.661555 81.95846 
L 133.698795 75.210431 
L 135.736035 75.823421 
L 137.773275 102.237625 
L 139.810515 113.555518 
L 141.847755 88.552732 
L 143.884995 87.056824 
L 145.922234 75.982988 
L 147.959474 73.373437 
L 149.996714 76.202044 
L 152.033954 82.023944 
L 154.071194 97.424744 
L 156.108434 90.723109 
L 158.145674 97.304914 
L 160.182913 95.472779 
L 162.220153 111.364876 
L 164.257393 120.616169 
L 166.294633 170.625417 
L 168.331873 98.281717 
L 170.369113 161.373242 
L 172.406353 127.425292 
L 174.443593 135.078643 
L 176.480832 103.300546 
L 178.518072 76.178438 
L 180.555312 92.923924 
L 182.592552 88.999282 
L 184.629792 109.020592 
L 186.667032 101.507862 
L 188.704272 103.654815 
L 190.741512 80.699395 
L 192.778751 75.918016 
L 194.815991 71.902422 
L 196.853231 75.923924 
L 198.890471 75.038117 
L 200.927711 70.462276 
L 202.964951 73.846203 
L 205.002191 69.305659 
L 207.03943 71.672773 
L 209.07667 68.571721 
L 213.15115 68.991772 
L 215.18839 68.099493 
L 217.22563 69.365556 
L 219.26287 68.241318 
L 221.30011 68.522118 
L 223.337349 67.615623 
L 225.374589 68.096887 
L 227.411829 68.258471 
L 229.449069 67.572177 
L 231.486309 68.547913 
L 233.523549 70.216969 
L 235.560789 68.489624 
L 237.598028 67.951664 
L 239.635268 68.178527 
L 243.709748 68.042994 
L 245.746988 70.454671 
L 247.784228 67.918523 
L 249.821468 68.005541 
L 251.858708 68.73292 
L 253.895947 68.435663 
L 255.933187 67.726449 
L 257.970427 68.864392 
L 260.007667 68.902096 
L 262.044907 67.831678 
L 264.082147 67.53904 
L 266.119387 69.005717 
L 268.156627 68.41747 
L 270.193866 67.97103 
L 272.231106 67.996173 
L 274.268346 68.525549 
L 276.305586 67.694812 
L 278.342826 68.994839 
L 280.380066 67.547304 
L 282.417306 68.665014 
L 286.491785 67.570832 
L 288.529025 67.85767 
L 292.603505 67.816911 
L 294.640745 69.047862 
L 296.677985 68.519619 
L 298.715225 69.316269 
L 300.752464 67.661709 
L 302.789704 68.305595 
L 304.826944 67.769088 
L 306.864184 68.719882 
L 310.938664 68.008728 
L 312.975904 68.390643 
L 315.013143 67.529151 
L 317.050383 68.580546 
L 319.087623 67.647257 
L 321.124863 67.523002 
L 323.162103 67.658812 
L 325.199343 67.679775 
L 327.236583 67.955573 
L 329.273823 68.603944 
L 331.311062 67.734994 
L 333.348302 68.580186 
L 335.385542 68.308838 
L 337.422782 67.795274 
L 339.460022 67.896876 
L 341.497262 68.20657 
L 345.571742 67.943776 
L 347.608981 68.563314 
L 349.646221 67.323734 
L 351.683461 67.372447 
L 353.720701 67.754462 
L 355.757941 67.612468 
L 357.795181 68.139108 
L 359.832421 67.491981 
L 361.86966 67.83173 
L 365.94414 67.642482 
L 367.98138 67.420302 
L 376.13034 67.459783 
L 380.204819 68.074214 
L 382.242059 67.897697 
L 384.279299 67.46184 
L 388.353779 68.295353 
L 390.391019 67.721583 
L 392.428258 68.061949 
L 394.465498 67.64736 
L 396.502738 67.510644 
L 398.539978 67.796249 
L 400.577218 67.782953 
L 402.614458 67.627085 
L 404.651698 67.841163 
L 406.688938 68.536311 
L 408.726177 67.332433 
L 410.763417 67.634107 
L 412.800657 68.678418 
L 414.837897 67.411782 
L 416.875137 67.687725 
L 418.912377 68.712142 
L 420.949617 67.931983 
L 422.986857 67.866752 
L 425.024096 67.571696 
L 427.061336 68.136368 
L 429.098576 69.204407 
L 433.173056 67.63674 
L 435.210296 67.308666 
L 437.247536 67.272113 
L 441.322015 68.102252 
L 443.359255 68.306282 
L 445.396495 67.672109 
L 447.433735 67.877913 
L 449.470975 68.444947 
L 451.508215 67.65073 
L 453.545455 68.169785 
L 455.582694 67.572316 
L 457.619934 67.472202 
L 459.657174 67.538141 
L 461.694414 67.452612 
L 465.768894 68.171477 
L 467.806134 67.216514 
L 469.843373 68.651636 
L 473.917853 67.323005 
L 475.955093 67.890843 
L 477.992333 68.799439 
L 480.029573 67.772448 
L 482.066813 67.577113 
L 484.104053 68.088485 
L 486.141292 67.30371 
L 488.178532 67.589781 
L 490.215772 67.467319 
L 492.253012 67.566103 
L 494.290252 68.122622 
L 496.327492 67.463285 
L 498.364732 67.430066 
L 500.401972 67.285701 
L 502.439211 67.81814 
L 504.476451 68.715302 
L 506.513691 67.466348 
L 508.550931 68.299734 
L 510.588171 67.442208 
L 512.625411 67.95457 
L 514.662651 67.521734 
L 516.69989 67.34036 
L 518.73713 67.295135 
L 520.77437 67.930351 
L 522.81161 67.825161 
L 524.84885 67.25933 
L 526.88609 68.109494 
L 528.92333 67.32308 
L 532.997809 67.317154 
L 535.035049 67.829876 
L 539.109529 67.432473 
L 541.146769 67.702059 
L 543.184009 67.419979 
L 545.221249 68.404384 
L 549.295728 67.786793 
L 551.332968 67.835868 
L 553.370208 68.699028 
L 555.407448 67.446905 
L 557.444688 67.416567 
L 559.481928 67.607928 
L 561.519168 67.60935 
L 563.556407 67.831266 
L 565.593647 67.464711 
L 567.630887 67.90279 
L 569.668127 67.449546 
L 571.705367 67.572273 
L 573.742607 67.559485 
L 575.779847 67.848675 
L 577.817087 67.359913 
L 581.891566 67.479407 
L 583.928806 67.791886 
L 585.966046 67.394505 
L 588.003286 67.446561 
L 590.040526 67.613722 
L 592.077766 67.44898 
L 594.115005 68.102875 
L 596.152245 67.219305 
L 598.189485 67.774334 
L 600.226725 67.844006 
L 602.263965 67.184395 
L 604.301205 67.518627 
L 606.338445 68.142261 
L 608.375685 67.672864 
L 610.412924 68.590387 
L 612.450164 67.61301 
L 614.487404 68.515621 
L 616.524644 67.200396 
L 620.599124 68.016209 
L 622.636364 67.402439 
L 622.636364 67.402439 
" clip-path="url(#pe44a1ce44b)" style="fill: none; stroke: #38b000; stroke-width: 1.5; stroke-linecap: square"/>
   </g>
   <g id="line2d_35">
    <path d="M 115.363636 68.487366 
L 117.400876 151.278658 
L 119.438116 79.766919 
L 121.475356 74.279562 
L 123.512596 67.039808 
L 125.549836 68.672518 
L 127.587076 66.980697 
L 129.624315 71.883347 
L 131.661555 67.617158 
L 133.698795 67.204474 
L 135.736035 67.818371 
L 137.773275 67.028121 
L 139.810515 67.696308 
L 141.847755 67.164299 
L 143.884995 67.055498 
L 145.922234 68.025668 
L 147.959474 67.085143 
L 149.996714 67.36281 
L 152.033954 67.113166 
L 156.108434 67.001819 
L 160.182913 67.35444 
L 162.220153 67.960688 
L 164.257393 69.233704 
L 166.294633 67.521338 
L 170.369113 67.741477 
L 172.406353 67.5428 
L 174.443593 68.052953 
L 176.480832 67.231236 
L 178.518072 67.541231 
L 180.555312 67.081934 
L 182.592552 68.409898 
L 184.629792 67.335529 
L 186.667032 67.601807 
L 188.704272 67.24375 
L 190.741512 67.709513 
L 192.778751 68.316753 
L 194.815991 67.177639 
L 196.853231 67.513954 
L 198.890471 67.10439 
L 200.927711 67.464744 
L 202.964951 67.266246 
L 205.002191 67.975268 
L 207.03943 67.446785 
L 209.07667 67.377427 
L 213.15115 67.622311 
L 215.18839 67.99271 
L 217.22563 67.453997 
L 227.411829 68.252776 
L 229.449069 69.809551 
L 231.486309 68.586145 
L 233.523549 68.323182 
L 235.560789 69.743716 
L 237.598028 69.379708 
L 239.635268 68.370294 
L 241.672508 68.678461 
L 243.709748 69.624894 
L 245.746988 69.661463 
L 247.784228 69.409375 
L 249.821468 70.32146 
L 251.858708 68.559624 
L 253.895947 69.229125 
L 255.933187 68.855043 
L 257.970427 69.10352 
L 260.007667 68.731629 
L 262.044907 69.958043 
L 264.082147 69.96253 
L 266.119387 70.635397 
L 268.156627 69.220913 
L 270.193866 69.334405 
L 272.231106 70.380622 
L 274.268346 68.592939 
L 276.305586 69.473928 
L 278.342826 69.872501 
L 280.380066 72.447236 
L 282.417306 70.590226 
L 286.491785 70.249468 
L 288.529025 69.761035 
L 290.566265 71.368477 
L 292.603505 70.944518 
L 294.640745 71.51753 
L 296.677985 71.61755 
L 298.715225 69.858521 
L 302.789704 70.816217 
L 304.826944 69.796856 
L 306.864184 70.864481 
L 308.901424 70.129033 
L 310.938664 71.797003 
L 312.975904 70.482753 
L 315.013143 70.651293 
L 317.050383 74.241057 
L 319.087623 70.083862 
L 321.124863 70.658941 
L 323.162103 70.963073 
L 325.199343 72.274746 
L 327.236583 70.76828 
L 329.273823 71.213629 
L 331.311062 71.336431 
L 333.348302 74.378215 
L 335.385542 70.698039 
L 337.422782 74.140623 
L 339.460022 70.908211 
L 341.497262 71.843647 
L 343.534502 71.507305 
L 345.571742 70.118126 
L 347.608981 71.934139 
L 349.646221 71.133158 
L 351.683461 72.468694 
L 353.720701 71.932334 
L 355.757941 73.196488 
L 357.795181 71.948047 
L 359.832421 71.985436 
L 361.86966 71.55209 
L 363.9069 71.563151 
L 365.94414 71.148092 
L 367.98138 74.65862 
L 370.01862 72.782289 
L 372.05586 71.374804 
L 374.0931 73.850015 
L 376.13034 74.96878 
L 378.167579 73.558605 
L 380.204819 73.407697 
L 382.242059 73.08358 
L 384.279299 72.025309 
L 386.316539 71.121581 
L 388.353779 73.745186 
L 390.391019 72.115013 
L 392.428258 71.867932 
L 394.465498 72.890246 
L 396.502738 72.591484 
L 398.539978 71.404902 
L 400.577218 72.492859 
L 402.614458 73.771382 
L 404.651698 72.366749 
L 406.688938 73.996066 
L 408.726177 72.724236 
L 410.763417 73.888951 
L 412.800657 73.530009 
L 414.837897 72.779645 
L 416.875137 71.322908 
L 420.949617 73.227512 
L 422.986857 73.739621 
L 425.024096 72.875217 
L 427.061336 71.871468 
L 429.098576 72.193473 
L 431.135816 72.707661 
L 433.173056 74.686602 
L 435.210296 72.792078 
L 437.247536 72.079315 
L 439.284775 75.826255 
L 441.322015 72.63638 
L 443.359255 74.416408 
L 445.396495 73.608889 
L 447.433735 74.025358 
L 449.470975 74.740996 
L 451.508215 72.647697 
L 453.545455 72.51627 
L 455.582694 72.89395 
L 459.657174 73.313447 
L 461.694414 71.706683 
L 463.731654 73.020165 
L 465.768894 73.377037 
L 467.806134 70.91849 
L 469.843373 73.695263 
L 471.880613 71.443684 
L 473.917853 72.111052 
L 475.955093 70.890267 
L 477.992333 72.78494 
L 480.029573 74.33482 
L 482.066813 72.207265 
L 484.104053 72.799791 
L 486.141292 72.984861 
L 488.178532 73.528853 
L 490.215772 71.576919 
L 492.253012 72.822478 
L 494.290252 69.992456 
L 496.327492 72.714555 
L 498.364732 73.097566 
L 500.401972 71.06927 
L 502.439211 73.920746 
L 504.476451 73.216181 
L 506.513691 72.92438 
L 508.550931 71.306624 
L 510.588171 72.978861 
L 512.625411 75.010744 
L 514.662651 72.075911 
L 516.69989 72.541628 
L 520.77437 71.678719 
L 522.81161 70.453149 
L 524.84885 75.198315 
L 526.88609 73.353295 
L 528.92333 71.302759 
L 530.96057 74.137592 
L 532.997809 73.085075 
L 535.035049 74.406125 
L 537.072289 73.574742 
L 539.109529 73.430855 
L 541.146769 71.866904 
L 543.184009 74.168592 
L 545.221249 74.061537 
L 547.258488 71.929635 
L 551.332968 73.119304 
L 553.370208 70.909849 
L 555.407448 73.097765 
L 557.444688 72.122043 
L 559.481928 72.596926 
L 561.519168 72.815971 
L 563.556407 73.818143 
L 565.593647 70.602757 
L 567.630887 73.58691 
L 569.668127 73.21244 
L 571.705367 71.232391 
L 573.742607 72.749495 
L 575.779847 75.200125 
L 577.817087 72.629837 
L 579.854326 74.032763 
L 581.891566 71.798355 
L 583.928806 71.994107 
L 585.966046 72.619923 
L 588.003286 71.637641 
L 590.040526 71.676849 
L 592.077766 70.694347 
L 594.115005 74.740328 
L 596.152245 73.312207 
L 598.189485 71.286372 
L 600.226725 73.089589 
L 602.263965 72.621907 
L 604.301205 72.89156 
L 606.338445 72.169444 
L 608.375685 72.337814 
L 610.412924 74.778348 
L 612.450164 71.098486 
L 614.487404 73.216992 
L 616.524644 73.377394 
L 620.599124 73.109488 
L 622.636364 75.840642 
L 622.636364 75.840642 
" clip-path="url(#pe44a1ce44b)" style="fill: none; stroke: #023e8a; stroke-width: 1.5; stroke-linecap: square"/>
   </g>
   <g id="patch_3">
    <path d="M 90 384.48 
L 90 51.84 
" style="fill: none; stroke: #000000; stroke-width: 0.8; stroke-linejoin: miter; stroke-linecap: square"/>
   </g>
   <g id="patch_4">
    <path d="M 648 384.48 
L 648 51.84 
" style="fill: none; stroke: #000000; stroke-width: 0.8; stroke-linejoin: miter; stroke-linecap: square"/>
   </g>
   <g id="patch_5">
    <path d="M 90 384.48 
L 648 384.48 
" style="fill: none; stroke: #000000; stroke-width: 0.8; stroke-linejoin: miter; stroke-linecap: square"/>
   </g>
   <g id="patch_6">
    <path d="M 90 51.84 
L 648 51.84 
" style="fill: none; stroke: #000000; stroke-width: 0.8; stroke-linejoin: miter; stroke-linecap: square"/>
   </g>
   <g id="text_19">
    <!-- Mountain Car OnPolicy Training Progress -->
    <g transform="translate(248.03625 45.84) scale(0.12 -0.12)">
     <defs>
      <path id="DejaVuSans-4d" d="M 628 4666 
L 1569 4666 
L 2759 1491 
L 3956 4666 
L 4897 4666 
L 4897 0 
L 4281 0 
L 4281 4097 
L 3078 897 
L 2444 897 
L 1241 4097 
L 1241 0 
L 628 0 
L 628 4666 
z
" transform="scale(0.015625)"/>
      <path id="DejaVuSans-6f" d="M 1959 3097 
Q 1497 3097 1228 2736 
Q 959 2375 959 1747 
Q 959 1119 1226 758 
Q 1494 397 1959 397 
Q 2419 397 2687 759 
Q 2956 1122 2956 1747 
Q 2956 2369 2687 2733 
Q 2419 3097 1959 3097 
z
M 1959 3584 
Q 2709 3584 3137 3096 
Q 3566 2609 3566 1747 
Q 3566 888 3137 398 
Q 2709 -91 1959 -91 
Q 1206 -91 779 398 
Q 353 888 353 1747 
Q 353 2609 779 3096 
Q 1206 3584 1959 3584 
z
" transform="scale(0.015625)"/>
      <path id="DejaVuSans-43" d="M 4122 4306 
L 4122 3641 
Q 3803 3938 3442 4084 
Q 3081 4231 2675 4231 
Q 1875 4231 1450 3742 
Q 1025 3253 1025 2328 
Q 1025 1406 1450 917 
Q 1875 428 2675 428 
Q 3081 428 3442 575 
Q 3803 722 4122 1019 
L 4122 359 
Q 3791 134 3420 21 
Q 3050 -91 2638 -91 
Q 1578 -91 968 557 
Q 359 1206 359 2328 
Q 359 3453 968 4101 
Q 1578 4750 2638 4750 
Q 3056 4750 3426 4639 
Q 3797 4528 4122 4306 
z
" transform="scale(0.015625)"/>
      <path id="DejaVuSans-4f" d="M 2522 4238 
Q 1834 4238 1429 3725 
Q 1025 3213 1025 2328 
Q 1025 1447 1429 934 
Q 1834 422 2522 422 
Q 3209 422 3611 934 
Q 4013 1447 4013 2328 
Q 4013 3213 3611 3725 
Q 3209 4238 2522 4238 
z
M 2522 4750 
Q 3503 4750 4090 4092 
Q 4678 3434 4678 2328 
Q 4678 1225 4090 567 
Q 3503 -91 2522 -91 
Q 1538 -91 948 565 
Q 359 1222 359 2328 
Q 359 3434 948 4092 
Q 1538 4750 2522 4750 
z
" transform="scale(0.015625)"/>
      <path id="DejaVuSans-50" d="M 1259 4147 
L 1259 2394 
L 2053 2394 
Q 2494 2394 2734 2622 
Q 2975 2850 2975 3272 
Q 2975 3691 2734 3919 
Q 2494 4147 2053 4147 
L 1259 4147 
z
M 628 4666 
L 2053 4666 
Q 2838 4666 3239 4311 
Q 3641 3956 3641 3272 
Q 3641 2581 3239 2228 
Q 2838 1875 2053 1875 
L 1259 1875 
L 1259 0 
L 628 0 
L 628 4666 
z
" transform="scale(0.015625)"/>
      <path id="DejaVuSans-6c" d="M 603 4863 
L 1178 4863 
L 1178 0 
L 603 0 
L 603 4863 
z
" transform="scale(0.015625)"/>
      <path id="DejaVuSans-63" d="M 3122 3366 
L 3122 2828 
Q 2878 2963 2633 3030 
Q 2388 3097 2138 3097 
Q 1578 3097 1268 2742 
Q 959 2388 959 1747 
Q 959 1106 1268 751 
Q 1578 397 2138 397 
Q 2388 397 2633 464 
Q 2878 531 3122 666 
L 3122 134 
Q 2881 22 2623 -34 
Q 2366 -91 2075 -91 
Q 1284 -91 818 406 
Q 353 903 353 1747 
Q 353 2603 823 3093 
Q 1294 3584 2113 3584 
Q 2378 3584 2631 3529 
Q 2884 3475 3122 3366 
z
" transform="scale(0.015625)"/>
      <path id="DejaVuSans-79" d="M 2059 -325 
Q 1816 -950 1584 -1140 
Q 1353 -1331 966 -1331 
L 506 -1331 
L 506 -850 
L 844 -850 
Q 1081 -850 1212 -737 
Q 1344 -625 1503 -206 
L 1606 56 
L 191 3500 
L 800 3500 
L 1894 763 
L 2988 3500 
L 3597 3500 
L 2059 -325 
z
" transform="scale(0.015625)"/>
     </defs>
     <use xlink:href="#DejaVuSans-4d"/>
     <use xlink:href="#DejaVuSans-6f" transform="translate(86.279297 0)"/>
     <use xlink:href="#DejaVuSans-75" transform="translate(147.460938 0)"/>
     <use xlink:href="#DejaVuSans-6e" transform="translate(210.839844 0)"/>
     <use xlink:href="#DejaVuSans-74" transform="translate(274.21875 0)"/>
     <use xlink:href="#DejaVuSans-61" transform="translate(313.427734 0)"/>
     <use xlink:href="#DejaVuSans-69" transform="translate(374.707031 0)"/>
     <use xlink:href="#DejaVuSans-6e" transform="translate(402.490234 0)"/>
     <use xlink:href="#DejaVuSans-20" transform="translate(465.869141 0)"/>
     <use xlink:href="#DejaVuSans-43" transform="translate(497.65625 0)"/>
     <use xlink:href="#DejaVuSans-61" transform="translate(567.480469 0)"/>
     <use xlink:href="#DejaVuSans-72" transform="translate(628.759766 0)"/>
     <use xlink:href="#DejaVuSans-20" transform="translate(669.873047 0)"/>
     <use xlink:href="#DejaVuSans-4f" transform="translate(701.660156 0)"/>
     <use xlink:href="#DejaVuSans-6e" transform="translate(780.371094 0)"/>
     <use xlink:href="#DejaVuSans-50" transform="translate(843.75 0)"/>
     <use xlink:href="#DejaVuSans-6f" transform="translate(900.427734 0)"/>
     <use xlink:href="#DejaVuSans-6c" transform="translate(961.609375 0)"/>
     <use xlink:href="#DejaVuSans-69" transform="translate(989.392578 0)"/>
     <use xlink:href="#DejaVuSans-63" transform="translate(1017.175781 0)"/>
     <use xlink:href="#DejaVuSans-79" transform="translate(1072.15625 0)"/>
     <use xlink:href="#DejaVuSans-20" transform="translate(1131.335938 0)"/>
     <use xlink:href="#DejaVuSans-54" transform="translate(1163.123047 0)"/>
     <use xlink:href="#DejaVuSans-72" transform="translate(1209.457031 0)"/>
     <use xlink:href="#DejaVuSans-61" transform="translate(1250.570312 0)"/>
     <use xlink:href="#DejaVuSans-69" transform="translate(1311.849609 0)"/>
     <use xlink:href="#DejaVuSans-6e" transform="translate(1339.632812 0)"/>
     <use xlink:href="#DejaVuSans-69" transform="translate(1403.011719 0)"/>
     <use xlink:href="#DejaVuSans-6e" transform="translate(1430.794922 0)"/>
     <use xlink:href="#DejaVuSans-67" transform="translate(1494.173828 0)"/>
     <use xlink:href="#DejaVuSans-20" transform="translate(1557.650391 0)"/>
     <use xlink:href="#DejaVuSans-50" transform="translate(1589.4375 0)"/>
     <use xlink:href="#DejaVuSans-72" transform="translate(1647.990234 0)"/>
     <use xlink:href="#DejaVuSans-6f" transform="translate(1686.853516 0)"/>
     <use xlink:href="#DejaVuSans-67" transform="translate(1748.035156 0)"/>
     <use xlink:href="#DejaVuSans-72" transform="translate(1811.511719 0)"/>
     <use xlink:href="#DejaVuSans-65" transform="translate(1850.375 0)"/>
     <use xlink:href="#DejaVuSans-73" transform="translate(1911.898438 0)"/>
     <use xlink:href="#DejaVuSans-73" transform="translate(1963.998047 0)"/>
    </g>
   </g>
   <g id="legend_1">
    <g id="patch_7">
     <path d="M 557.19375 379.48 
L 641 379.48 
Q 643 379.48 643 377.48 
L 643 334.445625 
Q 643 332.445625 641 332.445625 
L 557.19375 332.445625 
Q 555.19375 332.445625 555.19375 334.445625 
L 555.19375 377.48 
Q 555.19375 379.48 557.19375 379.48 
z
" style="fill: #ffffff; opacity: 0.8; stroke: #cccccc; stroke-linejoin: miter"/>
    </g>
    <g id="line2d_36">
     <path d="M 559.19375 340.544062 
L 569.19375 340.544062 
L 579.19375 340.544062 
" style="fill: none; stroke: #d00000; stroke-width: 1.5; stroke-linecap: square"/>
    </g>
    <g id="text_20">
     <!-- DDPG IQM -->
     <g transform="translate(587.19375 344.044062) scale(0.1 -0.1)">
      <defs>
       <path id="DejaVuSans-44" d="M 1259 4147 
L 1259 519 
L 2022 519 
Q 2988 519 3436 956 
Q 3884 1394 3884 2338 
Q 3884 3275 3436 3711 
Q 2988 4147 2022 4147 
L 1259 4147 
z
M 628 4666 
L 1925 4666 
Q 3281 4666 3915 4102 
Q 4550 3538 4550 2338 
Q 4550 1131 3912 565 
Q 3275 0 1925 0 
L 628 0 
L 628 4666 
z
" transform="scale(0.015625)"/>
       <path id="DejaVuSans-47" d="M 3809 666 
L 3809 1919 
L 2778 1919 
L 2778 2438 
L 4434 2438 
L 4434 434 
Q 4069 175 3628 42 
Q 3188 -91 2688 -91 
Q 1594 -91 976 548 
Q 359 1188 359 2328 
Q 359 3472 976 4111 
Q 1594 4750 2688 4750 
Q 3144 4750 3555 4637 
Q 3966 4525 4313 4306 
L 4313 3634 
Q 3963 3931 3569 4081 
Q 3175 4231 2741 4231 
Q 1884 4231 1454 3753 
Q 1025 3275 1025 2328 
Q 1025 1384 1454 906 
Q 1884 428 2741 428 
Q 3075 428 3337 486 
Q 3600 544 3809 666 
z
" transform="scale(0.015625)"/>
       <path id="DejaVuSans-49" d="M 628 4666 
L 1259 4666 
L 1259 0 
L 628 0 
L 628 4666 
z
" transform="scale(0.015625)"/>
       <path id="DejaVuSans-51" d="M 2522 4238 
Q 1834 4238 1429 3725 
Q 1025 3213 1025 2328 
Q 1025 1447 1429 934 
Q 1834 422 2522 422 
Q 3209 422 3611 934 
Q 4013 1447 4013 2328 
Q 4013 3213 3611 3725 
Q 3209 4238 2522 4238 
z
M 3406 84 
L 4238 -825 
L 3475 -825 
L 2784 -78 
Q 2681 -84 2626 -87 
Q 2572 -91 2522 -91 
Q 1538 -91 948 567 
Q 359 1225 359 2328 
Q 359 3434 948 4092 
Q 1538 4750 2522 4750 
Q 3503 4750 4090 4092 
Q 4678 3434 4678 2328 
Q 4678 1516 4351 937 
Q 4025 359 3406 84 
z
" transform="scale(0.015625)"/>
      </defs>
      <use xlink:href="#DejaVuSans-44"/>
      <use xlink:href="#DejaVuSans-44" transform="translate(77.001953 0)"/>
      <use xlink:href="#DejaVuSans-50" transform="translate(154.003906 0)"/>
      <use xlink:href="#DejaVuSans-47" transform="translate(214.306641 0)"/>
      <use xlink:href="#DejaVuSans-20" transform="translate(291.796875 0)"/>
      <use xlink:href="#DejaVuSans-49" transform="translate(323.583984 0)"/>
      <use xlink:href="#DejaVuSans-51" transform="translate(353.076172 0)"/>
      <use xlink:href="#DejaVuSans-4d" transform="translate(431.787109 0)"/>
     </g>
    </g>
    <g id="line2d_37">
     <path d="M 559.19375 355.222188 
L 569.19375 355.222188 
L 579.19375 355.222188 
" style="fill: none; stroke: #38b000; stroke-width: 1.5; stroke-linecap: square"/>
    </g>
    <g id="text_21">
     <!-- SAC IQM -->
     <g transform="translate(587.19375 358.722188) scale(0.1 -0.1)">
      <defs>
       <path id="DejaVuSans-41" d="M 2188 4044 
L 1331 1722 
L 3047 1722 
L 2188 4044 
z
M 1831 4666 
L 2547 4666 
L 4325 0 
L 3669 0 
L 3244 1197 
L 1141 1197 
L 716 0 
L 50 0 
L 1831 4666 
z
" transform="scale(0.015625)"/>
      </defs>
      <use xlink:href="#DejaVuSans-53"/>
      <use xlink:href="#DejaVuSans-41" transform="translate(65.351562 0)"/>
      <use xlink:href="#DejaVuSans-43" transform="translate(132.009766 0)"/>
      <use xlink:href="#DejaVuSans-20" transform="translate(201.833984 0)"/>
      <use xlink:href="#DejaVuSans-49" transform="translate(233.621094 0)"/>
      <use xlink:href="#DejaVuSans-51" transform="translate(263.113281 0)"/>
      <use xlink:href="#DejaVuSans-4d" transform="translate(341.824219 0)"/>
     </g>
    </g>
    <g id="line2d_38">
     <path d="M 559.19375 369.900312 
L 569.19375 369.900312 
L 579.19375 369.900312 
" style="fill: none; stroke: #023e8a; stroke-width: 1.5; stroke-linecap: square"/>
    </g>
    <g id="text_22">
     <!-- AFU IQM -->
     <g transform="translate(587.19375 373.400312) scale(0.1 -0.1)">
      <defs>
       <path id="DejaVuSans-46" d="M 628 4666 
L 3309 4666 
L 3309 4134 
L 1259 4134 
L 1259 2759 
L 3109 2759 
L 3109 2228 
L 1259 2228 
L 1259 0 
L 628 0 
L 628 4666 
z
" transform="scale(0.015625)"/>
       <path id="DejaVuSans-55" d="M 556 4666 
L 1191 4666 
L 1191 1831 
Q 1191 1081 1462 751 
Q 1734 422 2344 422 
Q 2950 422 3222 751 
Q 3494 1081 3494 1831 
L 3494 4666 
L 4128 4666 
L 4128 1753 
Q 4128 841 3676 375 
Q 3225 -91 2344 -91 
Q 1459 -91 1007 375 
Q 556 841 556 1753 
L 556 4666 
z
" transform="scale(0.015625)"/>
      </defs>
      <use xlink:href="#DejaVuSans-41"/>
      <use xlink:href="#DejaVuSans-46" transform="translate(68.408203 0)"/>
      <use xlink:href="#DejaVuSans-55" transform="translate(125.927734 0)"/>
      <use xlink:href="#DejaVuSans-20" transform="translate(199.121094 0)"/>
      <use xlink:href="#DejaVuSans-49" transform="translate(230.908203 0)"/>
      <use xlink:href="#DejaVuSans-51" transform="translate(260.400391 0)"/>
      <use xlink:href="#DejaVuSans-4d" transform="translate(339.111328 0)"/>
     </g>
    </g>
   </g>
  </g>
 </g>
 <defs>
  <clipPath id="pe44a1ce44b">
   <rect x="90" y="51.84" width="558" height="332.64"/>
  </clipPath>
 </defs>
</svg>
