<?xml version="1.0" encoding="utf-8" standalone="no"?>
<!DOCTYPE svg PUBLIC "-//W3C//DTD SVG 1.1//EN"
  "http://www.w3.org/Graphics/SVG/1.1/DTD/svg11.dtd">
<svg xmlns:xlink="http://www.w3.org/1999/xlink" width="425.78851pt" height="426.4pt" viewBox="0 0 425.78851 426.4" xmlns="http://www.w3.org/2000/svg" version="1.1">
 <metadata>
  <rdf:RDF xmlns:dc="http://purl.org/dc/elements/1.1/" xmlns:cc="http://creativecommons.org/ns#" xmlns:rdf="http://www.w3.org/1999/02/22-rdf-syntax-ns#">
   <cc:Work>
    <dc:type rdf:resource="http://purl.org/dc/dcmitype/StillImage"/>
    <dc:date>1980-01-01T00:00:00+00:00</dc:date>
    <dc:format>image/svg+xml</dc:format>
    <dc:creator>
     <cc:Agent>
      <dc:title>Matplotlib v3.8.0, https://matplotlib.org/</dc:title>
     </cc:Agent>
    </dc:creator>
   </cc:Work>
  </rdf:RDF>
 </metadata>
 <defs>
  <style type="text/css">*{stroke-linejoin: round; stroke-linecap: butt}</style>
 </defs>
 <g id="figure_1">
  <g id="patch_1">
   <path d="M 0 426.4 
L 425.78851 426.4 
L 425.78851 0 
L 0 0 
z
" style="fill: #ffffff"/>
  </g>
  <g id="axes_1">
   <g id="patch_2">
    <path d="M 68.254149 376.318305 
L 417.523879 376.318305 
L 417.523879 7.2 
L 68.254149 7.2 
z
" style="fill: #ffffff"/>
   </g>
   <g id="PolyCollection_1">
    <defs>
     <path id="m78b6805db0" d="M 84.130046 -383.713047 
L 84.130046 -383.164103 
L 85.405218 -393.015959 
L 86.68039 -393.940144 
L 87.955563 -328.882749 
L 89.230735 -398.300451 
L 90.505908 -364.22112 
L 91.78108 -390.942969 
L 93.056253 -385.152329 
L 94.331425 -365.769272 
L 95.606598 -376.819855 
L 96.88177 -386.399723 
L 98.156942 -344.757506 
L 99.432115 -320.415569 
L 100.707287 -323.874261 
L 101.98246 -370.192826 
L 103.257632 -381.783028 
L 104.532805 -389.089585 
L 105.807977 -387.22116 
L 107.083149 -368.191045 
L 108.358322 -347.882451 
L 109.633494 -354.15325 
L 110.908667 -356.377924 
L 112.183839 -323.798753 
L 113.459012 -334.378447 
L 114.734184 -307.391798 
L 116.009357 -167.608231 
L 117.284529 -311.981881 
L 118.559701 -231.535018 
L 119.834874 -283.108799 
L 121.110046 -295.681942 
L 122.385219 -352.707565 
L 123.660391 -372.776759 
L 124.935564 -348.017904 
L 126.210736 -371.165167 
L 127.485908 -319.663095 
L 128.761081 -312.762862 
L 130.036253 -332.933451 
L 131.311426 -380.127953 
L 132.586598 -383.475544 
L 133.861771 -383.910516 
L 135.136943 -388.675121 
L 136.412116 -390.556516 
L 137.687288 -396.898675 
L 138.96246 -391.998818 
L 140.237633 -397.608994 
L 141.512805 -391.975016 
L 142.787978 -398.741938 
L 144.06315 -399.273921 
L 145.338323 -398.692505 
L 146.613495 -400.19142 
L 147.888667 -397.843399 
L 149.16384 -395.575712 
L 150.439012 -399.552836 
L 151.714185 -400.6539 
L 152.989357 -399.549482 
L 154.26453 -399.60608 
L 155.539702 -400.533418 
L 156.814875 -399.151664 
L 158.090047 -395.137863 
L 159.365219 -398.563121 
L 160.640392 -399.690466 
L 161.915564 -400.419589 
L 163.190737 -400.359144 
L 164.465909 -395.694432 
L 165.741082 -391.118243 
L 167.016254 -400.189138 
L 168.291426 -399.713164 
L 169.566599 -396.264633 
L 170.841771 -400.140609 
L 172.116944 -399.328473 
L 173.392116 -397.620834 
L 174.667289 -398.939261 
L 175.942461 -397.452256 
L 177.217634 -401.363198 
L 178.492806 -399.113634 
L 179.767978 -398.931003 
L 181.043151 -399.843401 
L 182.318323 -400.030144 
L 183.593496 -395.865391 
L 184.868668 -400.400461 
L 186.143841 -399.042218 
L 187.419013 -399.524712 
L 188.694186 -399.205743 
L 189.969358 -399.508999 
L 191.24453 -399.867767 
L 192.519703 -399.861162 
L 193.794875 -400.839629 
L 195.070048 -400.2728 
L 196.34522 -396.668862 
L 197.620393 -399.047946 
L 198.895565 -399.168981 
L 200.170737 -400.849107 
L 201.44591 -399.398028 
L 202.721082 -400.886913 
L 203.996255 -397.700784 
L 205.271427 -399.44045 
L 206.5466 -399.389728 
L 207.821772 -399.95862 
L 209.096945 -400.709711 
L 210.372117 -399.625676 
L 211.647289 -401.137172 
L 212.922462 -399.927161 
L 214.197634 -399.760211 
L 215.472807 -399.975569 
L 216.747979 -400.037885 
L 218.023152 -399.384781 
L 219.298324 -400.715024 
L 220.573496 -399.958422 
L 221.848669 -400.587012 
L 223.123841 -401.227291 
L 224.399014 -400.573029 
L 225.674186 -400.515129 
L 226.949359 -400.726534 
L 228.224531 -400.405913 
L 229.499704 -399.31569 
L 230.774876 -400.852292 
L 232.050048 -401.410006 
L 233.325221 -401.155948 
L 234.600393 -401.429142 
L 235.875566 -400.648783 
L 237.150738 -401.523734 
L 238.425911 -400.533268 
L 239.701083 -401.239391 
L 240.976255 -401.164113 
L 242.251428 -401.176194 
L 243.5266 -401.264508 
L 244.801773 -401.642552 
L 246.076945 -401.664333 
L 247.352118 -401.403941 
L 248.62729 -401.147037 
L 249.902463 -400.67699 
L 251.177635 -400.426651 
L 252.452807 -401.304161 
L 253.72798 -400.578349 
L 255.003152 -398.099705 
L 256.278325 -401.374589 
L 257.553497 -400.128419 
L 258.82867 -401.076974 
L 260.103842 -401.34421 
L 261.379014 -401.058757 
L 262.654187 -401.169384 
L 263.929359 -400.684072 
L 265.204532 -400.505895 
L 266.479704 -399.466799 
L 267.754877 -401.538172 
L 269.030049 -400.04885 
L 270.305222 -399.840077 
L 271.580394 -401.203736 
L 272.855566 -400.757121 
L 274.130739 -392.861168 
L 275.405911 -399.61568 
L 276.681084 -401.166322 
L 277.956256 -401.278277 
L 279.231429 -400.619804 
L 280.506601 -398.559662 
L 281.781773 -398.629923 
L 283.056946 -400.733602 
L 284.332118 -401.851058 
L 285.607291 -401.66732 
L 286.882463 -400.348469 
L 288.157636 -400.157605 
L 289.432808 -400.268709 
L 290.707981 -401.266816 
L 291.983153 -400.612531 
L 293.258325 -398.555113 
L 294.533498 -400.691088 
L 295.80867 -400.089564 
L 297.083843 -400.785902 
L 298.359015 -400.998021 
L 299.634188 -400.688406 
L 300.90936 -401.125769 
L 302.184532 -400.938433 
L 303.459705 -400.693158 
L 304.734877 -402.010417 
L 306.01005 -399.306269 
L 307.285222 -400.226495 
L 308.560395 -401.419331 
L 309.835567 -400.904337 
L 311.11074 -398.851757 
L 312.385912 -399.402486 
L 313.661084 -400.99922 
L 314.936257 -400.550199 
L 316.211429 -401.486035 
L 317.486602 -399.689993 
L 318.761774 -400.495481 
L 320.036947 -401.169073 
L 321.312119 -400.537197 
L 322.587291 -401.166647 
L 323.862464 -400.789765 
L 325.137636 -401.310988 
L 326.412809 -399.874392 
L 327.687981 -399.400272 
L 328.963154 -401.664736 
L 330.238326 -400.178024 
L 331.513499 -401.131009 
L 332.788671 -400.905612 
L 334.063843 -401.51713 
L 335.339016 -401.758786 
L 336.614188 -400.51569 
L 337.889361 -400.506116 
L 339.164533 -400.969774 
L 340.439706 -401.837766 
L 341.714878 -400.17866 
L 342.99005 -401.804925 
L 344.265223 -401.734556 
L 345.540395 -401.287134 
L 346.815568 -400.626703 
L 348.09074 -401.125685 
L 349.365913 -400.685291 
L 350.641085 -400.586959 
L 351.916258 -401.415454 
L 353.19143 -400.449293 
L 354.466602 -400.236675 
L 355.741775 -399.607895 
L 357.016947 -399.163575 
L 358.29212 -399.586332 
L 359.567292 -401.242964 
L 360.842465 -401.595389 
L 362.117637 -400.455225 
L 363.392809 -400.527897 
L 364.667982 -401.182441 
L 365.943154 -401.045244 
L 367.218327 -400.417596 
L 368.493499 -401.583271 
L 369.768672 -401.506188 
L 371.043844 -401.21072 
L 372.319017 -401.258401 
L 373.594189 -401.719119 
L 374.869361 -400.832178 
L 376.144534 -401.316673 
L 377.419706 -400.813569 
L 378.694879 -401.218762 
L 379.970051 -401.668862 
L 381.245224 -401.247986 
L 382.520396 -400.94229 
L 383.795568 -400.20201 
L 385.070741 -401.807909 
L 386.345913 -400.292166 
L 387.621086 -400.744208 
L 388.896258 -401.913007 
L 390.171431 -401.678576 
L 391.446603 -400.332671 
L 392.721776 -401.03473 
L 393.996948 -400.146082 
L 395.27212 -400.944711 
L 396.547293 -399.481408 
L 397.822465 -401.790567 
L 399.097638 -401.063305 
L 400.37281 -400.324491 
L 401.647983 -401.391362 
L 401.647983 -402.123546 
L 401.647983 -402.123546 
L 400.37281 -401.920364 
L 399.097638 -402.187658 
L 397.822465 -402.381728 
L 396.547293 -402.09853 
L 395.27212 -402.010837 
L 393.996948 -400.930067 
L 392.721776 -402.074953 
L 391.446603 -401.945816 
L 390.171431 -401.985133 
L 388.896258 -402.374814 
L 387.621086 -401.962309 
L 386.345913 -402.209355 
L 385.070741 -402.278039 
L 383.795568 -401.709856 
L 382.520396 -402.299407 
L 381.245224 -402.212728 
L 379.970051 -402.045026 
L 378.694879 -402.288377 
L 377.419706 -402.161045 
L 376.144534 -402.193657 
L 374.869361 -402.386087 
L 373.594189 -402.151641 
L 372.319017 -401.582653 
L 371.043844 -402.047698 
L 369.768672 -402.329613 
L 368.493499 -402.256748 
L 367.218327 -402.06025 
L 365.943154 -402.25626 
L 364.667982 -401.701447 
L 363.392809 -402.361837 
L 362.117637 -402.030712 
L 360.842465 -402.26129 
L 359.567292 -402.234152 
L 358.29212 -401.388504 
L 357.016947 -401.98319 
L 355.741775 -402.267865 
L 354.466602 -401.727432 
L 353.19143 -401.884661 
L 351.916258 -402.08653 
L 350.641085 -401.973445 
L 349.365913 -402.290634 
L 348.09074 -402.04504 
L 346.815568 -401.977512 
L 345.540395 -402.315821 
L 344.265223 -402.206431 
L 342.99005 -402.233561 
L 341.714878 -402.10869 
L 340.439706 -402.382276 
L 339.164533 -401.714526 
L 337.889361 -401.802444 
L 336.614188 -402.35269 
L 335.339016 -402.181029 
L 334.063843 -402.341695 
L 332.788671 -402.150696 
L 331.513499 -402.140209 
L 330.238326 -401.811593 
L 328.963154 -402.248747 
L 327.687981 -402.401618 
L 326.412809 -402.339086 
L 325.137636 -402.298728 
L 323.862464 -402.390123 
L 322.587291 -402.249632 
L 321.312119 -402.011027 
L 320.036947 -402.236841 
L 318.761774 -402.355712 
L 317.486602 -402.324206 
L 316.211429 -402.30199 
L 314.936257 -402.279528 
L 313.661084 -402.10038 
L 312.385912 -402.228872 
L 311.11074 -402.285026 
L 309.835567 -402.122056 
L 308.560395 -402.227972 
L 307.285222 -401.823704 
L 306.01005 -401.60234 
L 304.734877 -402.375264 
L 303.459705 -402.108742 
L 302.184532 -402.19031 
L 300.90936 -402.149279 
L 299.634188 -401.982492 
L 298.359015 -402.255094 
L 297.083843 -402.261832 
L 295.80867 -402.290291 
L 294.533498 -402.187426 
L 293.258325 -402.075727 
L 291.983153 -402.144294 
L 290.707981 -402.303042 
L 289.432808 -401.721361 
L 288.157636 -401.725335 
L 286.882463 -402.14765 
L 285.607291 -402.33564 
L 284.332118 -402.201412 
L 283.056946 -402.152534 
L 281.781773 -401.983785 
L 280.506601 -402.029617 
L 279.231429 -401.653558 
L 277.956256 -402.146814 
L 276.681084 -402.082724 
L 275.405911 -402.391261 
L 274.130739 -401.516185 
L 272.855566 -402.074845 
L 271.580394 -402.353831 
L 270.305222 -400.902928 
L 269.030049 -402.308819 
L 267.754877 -402.167982 
L 266.479704 -401.669676 
L 265.204532 -402.207876 
L 263.929359 -402.21047 
L 262.654187 -401.918771 
L 261.379014 -401.979386 
L 260.103842 -402.133054 
L 258.82867 -402.076786 
L 257.553497 -402.286805 
L 256.278325 -402.059264 
L 255.003152 -402.224515 
L 253.72798 -402.081166 
L 252.452807 -402.379595 
L 251.177635 -402.283224 
L 249.902463 -402.192718 
L 248.62729 -401.911858 
L 247.352118 -402.070455 
L 246.076945 -402.210155 
L 244.801773 -402.149997 
L 243.5266 -402.165666 
L 242.251428 -402.304377 
L 240.976255 -402.258639 
L 239.701083 -401.735403 
L 238.425911 -401.817212 
L 237.150738 -402.034403 
L 235.875566 -401.722476 
L 234.600393 -402.024837 
L 233.325221 -402.143184 
L 232.050048 -402.171806 
L 230.774876 -402.382146 
L 229.499704 -401.409636 
L 228.224531 -402.152034 
L 226.949359 -401.737729 
L 225.674186 -401.63406 
L 224.399014 -401.637051 
L 223.123841 -401.925133 
L 221.848669 -401.328395 
L 220.573496 -401.139776 
L 219.298324 -402.194694 
L 218.023152 -401.477192 
L 216.747979 -402.230029 
L 215.472807 -402.099497 
L 214.197634 -402.406514 
L 212.922462 -402.275194 
L 211.647289 -401.940854 
L 210.372117 -401.002842 
L 209.096945 -402.153615 
L 207.821772 -402.171462 
L 206.5466 -402.153939 
L 205.271427 -401.485295 
L 203.996255 -401.941998 
L 202.721082 -401.858565 
L 201.44591 -402.167866 
L 200.170737 -402.063989 
L 198.895565 -401.787111 
L 197.620393 -401.557483 
L 196.34522 -401.570401 
L 195.070048 -401.946598 
L 193.794875 -402.180641 
L 192.519703 -401.917315 
L 191.24453 -402.364132 
L 189.969358 -402.350264 
L 188.694186 -401.836266 
L 187.419013 -402.335608 
L 186.143841 -401.414793 
L 184.868668 -402.267771 
L 183.593496 -402.229199 
L 182.318323 -402.186269 
L 181.043151 -402.127475 
L 179.767978 -402.166648 
L 178.492806 -401.290537 
L 177.217634 -402.079386 
L 175.942461 -402.039342 
L 174.667289 -401.855256 
L 173.392116 -402.039195 
L 172.116944 -402.243539 
L 170.841771 -401.624182 
L 169.566599 -401.41763 
L 168.291426 -402.065935 
L 167.016254 -401.938197 
L 165.741082 -401.638553 
L 164.465909 -402.382685 
L 163.190737 -401.726042 
L 161.915564 -402.061291 
L 160.640392 -402.048184 
L 159.365219 -401.869922 
L 158.090047 -401.176214 
L 156.814875 -402.027077 
L 155.539702 -402.224474 
L 154.26453 -401.791903 
L 152.989357 -401.900207 
L 151.714185 -402.290461 
L 150.439012 -401.521433 
L 149.16384 -402.235085 
L 147.888667 -401.919296 
L 146.613495 -401.981735 
L 145.338323 -401.935946 
L 144.06315 -402.095013 
L 142.787978 -401.893268 
L 141.512805 -401.521748 
L 140.237633 -400.809218 
L 138.96246 -399.293732 
L 137.687288 -400.135032 
L 136.412116 -396.264084 
L 135.136943 -397.086877 
L 133.861771 -399.993561 
L 132.586598 -396.538115 
L 131.311426 -395.486964 
L 130.036253 -383.751004 
L 128.761081 -392.301225 
L 127.485908 -394.905742 
L 126.210736 -389.625712 
L 124.935564 -387.662728 
L 123.660391 -401.302142 
L 122.385219 -379.89396 
L 121.110046 -347.2253 
L 119.834874 -379.856612 
L 118.559701 -364.439828 
L 117.284529 -379.31175 
L 116.009357 -389.600586 
L 114.734184 -376.302786 
L 113.459012 -363.950599 
L 112.183839 -390.529304 
L 110.908667 -391.343835 
L 109.633494 -384.824685 
L 108.358322 -386.964458 
L 107.083149 -400.883458 
L 105.807977 -395.018308 
L 104.532805 -397.402633 
L 103.257632 -401.461165 
L 101.98246 -396.810641 
L 100.707287 -399.823953 
L 99.432115 -394.029075 
L 98.156942 -398.967119 
L 96.88177 -397.752686 
L 95.606598 -400.750941 
L 94.331425 -400.964612 
L 93.056253 -400.192074 
L 91.78108 -402.37471 
L 90.505908 -368.820309 
L 89.230735 -400.28151 
L 87.955563 -368.890812 
L 86.68039 -396.961624 
L 85.405218 -399.901813 
L 84.130046 -383.713047 
z
" style="stroke: #d66b6a; stroke-opacity: 0.2"/>
    </defs>
    <g clip-path="url(#p0528f17080)">
     <use xlink:href="#m78b6805db0" x="0" y="426.4" style="fill: #d66b6a; fill-opacity: 0.2; stroke: #d66b6a; stroke-opacity: 0.2"/>
    </g>
   </g>
   <g id="PolyCollection_2">
    <defs>
     <path id="m0c520dc3cd" d="M 84.130046 -400.748571 
L 84.130046 -400.716637 
L 85.405218 -305.721368 
L 86.68039 -387.288451 
L 87.955563 -393.819172 
L 89.230735 -402.268286 
L 90.505908 -400.391562 
L 91.78108 -402.365083 
L 93.056253 -396.720047 
L 94.331425 -401.593382 
L 95.606598 -402.10221 
L 96.88177 -401.136502 
L 98.156942 -402.289584 
L 99.432115 -401.294795 
L 100.707287 -402.068026 
L 101.98246 -402.263719 
L 103.257632 -400.368511 
L 104.532805 -402.202168 
L 105.807977 -401.581406 
L 107.083149 -402.142236 
L 108.358322 -402.31331 
L 109.633494 -402.335605 
L 110.908667 -401.977233 
L 112.183839 -401.703039 
L 113.459012 -400.108735 
L 114.734184 -399.299762 
L 116.009357 -401.634461 
L 117.284529 -400.769166 
L 118.559701 -400.886681 
L 119.834874 -401.32846 
L 121.110046 -400.149205 
L 122.385219 -401.505163 
L 123.660391 -401.221019 
L 124.935564 -402.028473 
L 126.210736 -399.808966 
L 127.485908 -401.593915 
L 128.761081 -401.198453 
L 130.036253 -401.885771 
L 131.311426 -400.593731 
L 132.586598 -399.476044 
L 133.861771 -401.602588 
L 135.136943 -400.877761 
L 136.412116 -402.104847 
L 137.687288 -401.141023 
L 138.96246 -401.766898 
L 140.237633 -398.440136 
L 141.512805 -400.36077 
L 142.787978 -401.157672 
L 144.06315 -401.100729 
L 145.338323 -400.706101 
L 146.613495 -399.379813 
L 147.888667 -400.370027 
L 149.16384 -399.940185 
L 150.439012 -400.011265 
L 151.714185 -399.735659 
L 152.989357 -399.671488 
L 154.26453 -399.583612 
L 155.539702 -397.884151 
L 156.814875 -398.612651 
L 158.090047 -399.311145 
L 159.365219 -396.923162 
L 160.640392 -397.422012 
L 161.915564 -398.808108 
L 163.190737 -397.884248 
L 164.465909 -397.411352 
L 165.741082 -397.475755 
L 167.016254 -396.498193 
L 168.291426 -395.514614 
L 169.566599 -398.728292 
L 170.841771 -397.065357 
L 172.116944 -398.795402 
L 173.392116 -398.506958 
L 174.667289 -398.374798 
L 175.942461 -397.346574 
L 177.217634 -396.160822 
L 178.492806 -394.854893 
L 179.767978 -397.736998 
L 181.043151 -397.158822 
L 182.318323 -395.217166 
L 183.593496 -398.246485 
L 184.868668 -396.711001 
L 186.143841 -397.078015 
L 187.419013 -392.46494 
L 188.694186 -394.438779 
L 189.969358 -394.78465 
L 191.24453 -396.324426 
L 192.519703 -397.671535 
L 193.794875 -392.326148 
L 195.070048 -393.71774 
L 196.34522 -393.84182 
L 197.620393 -393.316142 
L 198.895565 -397.473515 
L 200.170737 -395.217725 
L 201.44591 -392.86234 
L 202.721082 -397.29456 
L 203.996255 -394.755139 
L 205.271427 -395.177509 
L 206.5466 -393.566925 
L 207.821772 -395.948697 
L 209.096945 -394.528882 
L 210.372117 -389.284237 
L 211.647289 -396.083901 
L 212.922462 -394.618082 
L 214.197634 -393.012995 
L 215.472807 -392.626463 
L 216.747979 -393.443744 
L 218.023152 -394.735573 
L 219.298324 -394.414779 
L 220.573496 -389.206695 
L 221.848669 -394.394303 
L 223.123841 -388.510311 
L 224.399014 -393.748957 
L 225.674186 -392.580407 
L 226.949359 -394.625139 
L 228.224531 -395.77406 
L 229.499704 -392.616739 
L 230.774876 -393.182493 
L 232.050048 -389.795722 
L 233.325221 -393.362509 
L 234.600393 -392.075421 
L 235.875566 -392.490909 
L 237.150738 -393.553874 
L 238.425911 -392.497842 
L 239.701083 -391.966247 
L 240.976255 -393.826809 
L 242.251428 -391.28179 
L 243.5266 -391.440898 
L 244.801773 -393.629633 
L 246.076945 -390.877291 
L 247.352118 -387.228427 
L 248.62729 -389.843156 
L 249.902463 -391.014711 
L 251.177635 -392.506603 
L 252.452807 -391.549319 
L 253.72798 -393.062725 
L 255.003152 -390.045036 
L 256.278325 -392.146448 
L 257.553497 -393.351113 
L 258.82867 -392.402563 
L 260.103842 -390.334186 
L 261.379014 -393.818518 
L 262.654187 -391.812549 
L 263.929359 -386.75535 
L 265.204532 -391.641449 
L 266.479704 -389.288354 
L 267.754877 -390.9724 
L 269.030049 -389.923736 
L 270.305222 -390.380974 
L 271.580394 -391.495088 
L 272.855566 -391.855358 
L 274.130739 -393.182361 
L 275.405911 -390.523183 
L 276.681084 -390.471726 
L 277.956256 -390.846286 
L 279.231429 -392.743144 
L 280.506601 -394.014589 
L 281.781773 -392.104846 
L 283.056946 -389.467003 
L 284.332118 -391.650929 
L 285.607291 -390.709533 
L 286.882463 -388.93014 
L 288.157636 -391.732015 
L 289.432808 -388.448048 
L 290.707981 -391.772755 
L 291.983153 -389.65646 
L 293.258325 -387.964181 
L 294.533498 -393.149286 
L 295.80867 -389.590897 
L 297.083843 -392.653399 
L 298.359015 -390.771241 
L 299.634188 -390.072262 
L 300.90936 -392.562636 
L 302.184532 -391.079773 
L 303.459705 -388.627192 
L 304.734877 -394.338603 
L 306.01005 -389.735644 
L 307.285222 -393.288276 
L 308.560395 -393.598819 
L 309.835567 -394.97102 
L 311.11074 -390.497048 
L 312.385912 -390.23748 
L 313.661084 -392.28291 
L 314.936257 -392.573873 
L 316.211429 -390.19409 
L 317.486602 -389.264897 
L 318.761774 -393.154993 
L 320.036947 -390.871603 
L 321.312119 -395.311516 
L 322.587291 -390.890549 
L 323.862464 -390.674406 
L 325.137636 -393.669538 
L 326.412809 -392.15711 
L 327.687981 -391.966355 
L 328.963154 -391.323266 
L 330.238326 -393.273192 
L 331.513499 -390.552471 
L 332.788671 -388.458647 
L 334.063843 -392.93909 
L 335.339016 -392.125138 
L 336.614188 -392.194121 
L 337.889361 -393.628073 
L 339.164533 -394.234203 
L 340.439706 -389.619664 
L 341.714878 -390.353423 
L 342.99005 -393.304316 
L 344.265223 -391.484208 
L 345.540395 -391.665669 
L 346.815568 -390.481392 
L 348.09074 -392.78557 
L 349.365913 -390.697594 
L 350.641085 -392.792053 
L 351.916258 -390.466247 
L 353.19143 -390.552937 
L 354.466602 -393.023198 
L 355.741775 -393.822719 
L 357.016947 -391.524577 
L 358.29212 -395.296785 
L 359.567292 -391.901988 
L 360.842465 -392.60064 
L 362.117637 -392.957595 
L 363.392809 -392.221738 
L 364.667982 -390.761018 
L 365.943154 -394.362911 
L 367.218327 -391.61771 
L 368.493499 -391.461872 
L 369.768672 -394.444715 
L 371.043844 -391.955189 
L 372.319017 -387.311175 
L 373.594189 -392.289842 
L 374.869361 -390.872035 
L 376.144534 -391.392743 
L 377.419706 -393.270099 
L 378.694879 -392.942218 
L 379.970051 -394.611332 
L 381.245224 -392.026665 
L 382.520396 -393.475028 
L 383.795568 -390.212323 
L 385.070741 -390.486069 
L 386.345913 -393.901799 
L 387.621086 -391.822345 
L 388.896258 -393.557268 
L 390.171431 -390.283571 
L 391.446603 -393.259776 
L 392.721776 -392.414743 
L 393.996948 -390.387422 
L 395.27212 -394.856875 
L 396.547293 -392.243494 
L 397.822465 -390.629612 
L 399.097638 -391.406932 
L 400.37281 -391.41862 
L 401.647983 -388.561696 
L 401.647983 -396.964614 
L 401.647983 -396.964614 
L 400.37281 -399.374568 
L 399.097638 -399.008098 
L 397.822465 -399.290472 
L 396.547293 -400.212893 
L 395.27212 -400.356749 
L 393.996948 -396.646354 
L 392.721776 -399.934736 
L 391.446603 -398.586198 
L 390.171431 -399.260167 
L 388.896258 -398.686676 
L 387.621086 -398.027741 
L 386.345913 -400.359653 
L 385.070741 -399.555998 
L 383.795568 -397.622373 
L 382.520396 -401.537084 
L 381.245224 -400.282819 
L 379.970051 -400.618928 
L 378.694879 -399.660009 
L 377.419706 -399.831384 
L 376.144534 -400.07123 
L 374.869361 -398.590068 
L 373.594189 -399.308749 
L 372.319017 -398.3756 
L 371.043844 -398.978623 
L 369.768672 -400.679382 
L 368.493499 -400.089748 
L 367.218327 -398.226483 
L 365.943154 -400.756396 
L 364.667982 -398.946352 
L 363.392809 -399.581275 
L 362.117637 -399.916767 
L 360.842465 -400.43978 
L 359.567292 -398.512764 
L 358.29212 -400.998359 
L 357.016947 -399.189729 
L 355.741775 -398.425504 
L 354.466602 -399.84938 
L 353.19143 -398.177871 
L 351.916258 -398.355803 
L 350.641085 -400.231649 
L 349.365913 -399.584329 
L 348.09074 -398.097172 
L 346.815568 -398.049741 
L 345.540395 -400.118364 
L 344.265223 -398.017712 
L 342.99005 -400.34143 
L 341.714878 -399.269936 
L 340.439706 -397.940683 
L 339.164533 -401.246918 
L 337.889361 -400.141727 
L 336.614188 -400.319368 
L 335.339016 -399.863886 
L 334.063843 -400.576408 
L 332.788671 -397.036759 
L 331.513499 -399.288533 
L 330.238326 -400.852087 
L 328.963154 -399.124519 
L 327.687981 -398.39745 
L 326.412809 -397.405195 
L 325.137636 -400.278439 
L 323.862464 -399.202493 
L 322.587291 -399.818802 
L 321.312119 -401.435287 
L 320.036947 -399.774517 
L 318.761774 -400.488484 
L 317.486602 -398.336295 
L 316.211429 -399.288738 
L 314.936257 -399.723188 
L 313.661084 -400.061823 
L 312.385912 -398.697198 
L 311.11074 -400.854546 
L 309.835567 -401.13795 
L 308.560395 -399.549243 
L 307.285222 -400.463201 
L 306.01005 -397.812497 
L 304.734877 -401.254912 
L 303.459705 -399.399935 
L 302.184532 -401.087255 
L 300.90936 -399.903457 
L 299.634188 -400.087922 
L 298.359015 -399.671889 
L 297.083843 -398.755185 
L 295.80867 -400.453295 
L 294.533498 -398.191104 
L 293.258325 -397.625263 
L 291.983153 -399.267279 
L 290.707981 -398.922829 
L 289.432808 -397.92633 
L 288.157636 -400.448193 
L 286.882463 -399.560554 
L 285.607291 -400.176074 
L 284.332118 -400.956638 
L 283.056946 -398.399875 
L 281.781773 -400.258694 
L 280.506601 -399.866689 
L 279.231429 -400.754041 
L 277.956256 -400.23374 
L 276.681084 -398.923165 
L 275.405911 -398.433637 
L 274.130739 -400.114543 
L 272.855566 -401.718013 
L 271.580394 -400.235964 
L 270.305222 -398.727573 
L 269.030049 -398.953872 
L 267.754877 -399.515369 
L 266.479704 -398.305968 
L 265.204532 -399.166532 
L 263.929359 -400.095517 
L 262.654187 -400.236929 
L 261.379014 -400.278716 
L 260.103842 -400.588018 
L 258.82867 -399.487944 
L 257.553497 -400.546598 
L 256.278325 -399.889939 
L 255.003152 -398.036748 
L 253.72798 -400.724968 
L 252.452807 -401.18621 
L 251.177635 -398.670384 
L 249.902463 -399.948835 
L 248.62729 -400.321375 
L 247.352118 -396.685467 
L 246.076945 -398.461354 
L 244.801773 -400.618585 
L 243.5266 -400.399446 
L 242.251428 -399.197173 
L 240.976255 -400.98804 
L 239.701083 -400.851081 
L 238.425911 -400.085263 
L 237.150738 -400.181277 
L 235.875566 -399.955364 
L 234.600393 -398.787577 
L 233.325221 -399.95111 
L 232.050048 -401.122848 
L 230.774876 -400.995783 
L 229.499704 -400.966683 
L 228.224531 -401.233374 
L 226.949359 -400.510814 
L 225.674186 -399.659656 
L 224.399014 -401.262692 
L 223.123841 -398.640847 
L 221.848669 -400.976635 
L 220.573496 -397.53317 
L 219.298324 -399.726333 
L 218.023152 -401.019244 
L 216.747979 -401.364156 
L 215.472807 -400.141893 
L 214.197634 -400.952736 
L 212.922462 -399.896429 
L 211.647289 -401.184882 
L 210.372117 -399.658841 
L 209.096945 -401.692482 
L 207.821772 -400.704482 
L 206.5466 -399.582263 
L 205.271427 -401.672886 
L 203.996255 -400.422066 
L 202.721082 -401.667439 
L 201.44591 -400.904676 
L 200.170737 -400.606454 
L 198.895565 -400.413465 
L 197.620393 -400.197852 
L 196.34522 -400.259448 
L 195.070048 -400.566071 
L 193.794875 -400.888461 
L 192.519703 -400.716639 
L 191.24453 -401.754262 
L 189.969358 -400.779928 
L 188.694186 -400.488671 
L 187.419013 -399.539941 
L 186.143841 -400.458727 
L 184.868668 -401.164883 
L 183.593496 -401.576226 
L 182.318323 -401.454102 
L 181.043151 -401.18555 
L 179.767978 -401.280394 
L 178.492806 -400.474027 
L 177.217634 -400.902595 
L 175.942461 -400.524195 
L 174.667289 -401.664318 
L 173.392116 -401.214411 
L 172.116944 -401.782674 
L 170.841771 -401.696582 
L 169.566599 -401.843555 
L 168.291426 -401.151922 
L 167.016254 -401.529864 
L 165.741082 -401.201852 
L 164.465909 -401.287739 
L 163.190737 -402.079982 
L 161.915564 -402.220105 
L 160.640392 -401.543116 
L 159.365219 -401.429093 
L 158.090047 -402.02418 
L 156.814875 -402.057201 
L 155.539702 -401.208793 
L 154.26453 -401.855512 
L 152.989357 -402.239524 
L 151.714185 -402.084332 
L 150.439012 -402.103182 
L 149.16384 -402.209047 
L 147.888667 -402.359572 
L 146.613495 -402.276516 
L 145.338323 -402.20572 
L 144.06315 -402.059456 
L 142.787978 -402.252119 
L 141.512805 -402.378353 
L 140.237633 -402.354762 
L 138.96246 -402.323575 
L 137.687288 -402.148895 
L 136.412116 -402.421054 
L 135.136943 -402.295865 
L 133.861771 -402.371866 
L 132.586598 -401.590414 
L 131.311426 -402.141654 
L 130.036253 -402.230475 
L 128.761081 -402.178144 
L 127.485908 -402.223046 
L 126.210736 -401.52578 
L 124.935564 -402.416331 
L 123.660391 -402.149594 
L 122.385219 -402.297479 
L 121.110046 -401.654428 
L 119.834874 -402.323569 
L 118.559701 -402.051286 
L 117.284529 -402.110343 
L 116.009357 -401.978582 
L 114.734184 -400.348443 
L 113.459012 -402.413151 
L 112.183839 -402.206116 
L 110.908667 -402.414246 
L 109.633494 -402.390105 
L 108.358322 -402.383804 
L 107.083149 -402.321166 
L 105.807977 -402.308355 
L 104.532805 -402.420132 
L 103.257632 -401.731864 
L 101.98246 -402.371249 
L 100.707287 -402.396791 
L 99.432115 -401.990592 
L 98.156942 -402.421895 
L 96.88177 -401.71478 
L 95.606598 -402.219902 
L 94.331425 -401.846052 
L 93.056253 -397.265915 
L 91.78108 -402.418197 
L 90.505908 -400.740709 
L 89.230735 -402.380071 
L 87.955563 -394.588199 
L 86.68039 -389.369196 
L 85.405218 -315.077786 
L 84.130046 -400.748571 
z
" style="stroke: #5591e1; stroke-opacity: 0.2"/>
    </defs>
    <g clip-path="url(#p0528f17080)">
     <use xlink:href="#m0c520dc3cd" x="0" y="426.4" style="fill: #5591e1; fill-opacity: 0.2; stroke: #5591e1; stroke-opacity: 0.2"/>
    </g>
   </g>
   <g id="PolyCollection_3">
    <defs>
     <path id="m96f91a9592" d="M 84.130046 -68.892284 
L 84.130046 -66.8598 
L 85.405218 -364.267357 
L 86.68039 -370.186158 
L 87.955563 -359.042242 
L 89.230735 -390.766834 
L 90.505908 -389.091365 
L 91.78108 -390.179292 
L 93.056253 -389.199115 
L 94.331425 -385.490554 
L 95.606598 -386.648148 
L 96.88177 -390.874113 
L 98.156942 -384.184718 
L 99.432115 -382.731885 
L 100.707287 -389.603707 
L 101.98246 -387.518185 
L 103.257632 -385.007219 
L 104.532805 -394.391021 
L 105.807977 -392.263414 
L 107.083149 -389.068703 
L 108.358322 -392.830955 
L 109.633494 -391.682627 
L 110.908667 -394.226628 
L 112.183839 -396.423894 
L 113.459012 -396.082955 
L 114.734184 -397.944187 
L 116.009357 -396.185461 
L 117.284529 -396.533109 
L 118.559701 -397.460357 
L 119.834874 -393.285366 
L 121.110046 -396.440105 
L 122.385219 -395.714251 
L 123.660391 -398.948884 
L 124.935564 -398.782735 
L 126.210736 -396.498129 
L 127.485908 -397.248481 
L 128.761081 -397.38312 
L 130.036253 -397.759607 
L 131.311426 -397.970919 
L 132.586598 -397.522017 
L 133.861771 -397.500031 
L 135.136943 -397.644754 
L 136.412116 -397.548946 
L 137.687288 -397.394608 
L 138.96246 -397.390883 
L 140.237633 -396.852649 
L 141.512805 -397.944919 
L 142.787978 -398.381643 
L 144.06315 -397.905183 
L 145.338323 -397.995997 
L 146.613495 -398.737558 
L 147.888667 -398.424956 
L 149.16384 -398.468818 
L 150.439012 -398.436755 
L 151.714185 -398.220422 
L 152.989357 -398.456615 
L 154.26453 -398.618831 
L 155.539702 -397.921652 
L 156.814875 -397.913427 
L 158.090047 -397.733284 
L 159.365219 -397.843408 
L 160.640392 -397.535382 
L 161.915564 -397.431665 
L 163.190737 -397.19368 
L 164.465909 -397.342332 
L 165.741082 -397.203081 
L 167.016254 -397.711543 
L 168.291426 -397.921896 
L 169.566599 -397.533913 
L 170.841771 -398.05462 
L 172.116944 -399.073268 
L 173.392116 -398.08076 
L 174.667289 -398.317751 
L 175.942461 -398.354366 
L 177.217634 -397.77371 
L 178.492806 -398.308083 
L 179.767978 -397.700002 
L 181.043151 -397.649206 
L 182.318323 -397.64228 
L 183.593496 -397.69137 
L 184.868668 -397.54854 
L 186.143841 -397.978746 
L 187.419013 -397.548709 
L 188.694186 -397.697148 
L 189.969358 -397.373057 
L 191.24453 -398.334772 
L 192.519703 -398.007497 
L 193.794875 -398.529453 
L 195.070048 -398.344138 
L 196.34522 -398.863932 
L 197.620393 -398.50987 
L 198.895565 -399.205123 
L 200.170737 -398.504059 
L 201.44591 -399.114934 
L 202.721082 -399.571092 
L 203.996255 -399.763365 
L 205.271427 -399.285245 
L 206.5466 -399.308186 
L 207.821772 -399.676414 
L 209.096945 -399.550313 
L 210.372117 -399.284979 
L 211.647289 -399.173096 
L 212.922462 -398.989878 
L 214.197634 -399.511229 
L 215.472807 -399.246055 
L 216.747979 -399.594589 
L 218.023152 -399.455111 
L 219.298324 -399.856502 
L 220.573496 -400.112169 
L 221.848669 -399.727005 
L 223.123841 -400.091289 
L 224.399014 -400.279137 
L 225.674186 -399.52072 
L 226.949359 -399.786137 
L 228.224531 -400.37022 
L 229.499704 -400.135519 
L 230.774876 -400.229701 
L 232.050048 -400.147891 
L 233.325221 -400.014018 
L 234.600393 -400.036974 
L 235.875566 -399.969654 
L 237.150738 -399.789743 
L 238.425911 -399.822752 
L 239.701083 -399.847034 
L 240.976255 -399.830655 
L 242.251428 -399.828332 
L 243.5266 -399.586738 
L 244.801773 -399.414352 
L 246.076945 -399.253537 
L 247.352118 -399.502424 
L 248.62729 -399.382369 
L 249.902463 -399.142109 
L 251.177635 -399.1262 
L 252.452807 -399.470498 
L 253.72798 -399.926668 
L 255.003152 -399.920378 
L 256.278325 -399.014856 
L 257.553497 -399.236892 
L 258.82867 -399.05038 
L 260.103842 -399.153031 
L 261.379014 -399.992737 
L 262.654187 -399.432253 
L 263.929359 -399.707533 
L 265.204532 -399.104537 
L 266.479704 -398.919664 
L 267.754877 -399.404366 
L 269.030049 -399.460111 
L 270.305222 -399.613638 
L 271.580394 -398.909177 
L 272.855566 -399.13201 
L 274.130739 -399.044533 
L 275.405911 -399.659092 
L 276.681084 -399.657582 
L 277.956256 -399.853229 
L 279.231429 -399.541995 
L 280.506601 -399.778691 
L 281.781773 -399.661662 
L 283.056946 -399.338536 
L 284.332118 -399.730135 
L 285.607291 -399.562602 
L 286.882463 -399.73202 
L 288.157636 -399.656013 
L 289.432808 -399.494887 
L 290.707981 -399.090434 
L 291.983153 -399.414948 
L 293.258325 -399.486486 
L 294.533498 -399.439611 
L 295.80867 -399.916331 
L 297.083843 -399.47462 
L 298.359015 -399.900201 
L 299.634188 -399.759941 
L 300.90936 -399.927623 
L 302.184532 -399.626616 
L 303.459705 -399.206512 
L 304.734877 -400.270786 
L 306.01005 -399.707442 
L 307.285222 -400.563169 
L 308.560395 -400.326858 
L 309.835567 -400.786165 
L 311.11074 -400.473335 
L 312.385912 -400.185976 
L 313.661084 -400.729034 
L 314.936257 -400.368442 
L 316.211429 -400.485134 
L 317.486602 -400.820831 
L 318.761774 -400.737955 
L 320.036947 -400.917392 
L 321.312119 -400.614801 
L 322.587291 -400.633957 
L 323.862464 -400.489024 
L 325.137636 -400.743062 
L 326.412809 -400.278289 
L 327.687981 -400.603224 
L 328.963154 -400.686629 
L 330.238326 -400.762396 
L 331.513499 -400.674787 
L 332.788671 -400.658967 
L 334.063843 -400.921206 
L 335.339016 -400.650646 
L 336.614188 -400.609413 
L 337.889361 -400.422736 
L 339.164533 -400.557264 
L 340.439706 -400.805988 
L 341.714878 -400.414219 
L 342.99005 -400.836674 
L 344.265223 -400.415544 
L 345.540395 -400.518809 
L 346.815568 -400.529713 
L 348.09074 -400.467569 
L 349.365913 -400.702086 
L 350.641085 -400.697259 
L 351.916258 -400.748371 
L 353.19143 -400.657634 
L 354.466602 -400.57502 
L 355.741775 -400.72451 
L 357.016947 -400.537158 
L 358.29212 -400.472646 
L 359.567292 -400.844563 
L 360.842465 -400.592871 
L 362.117637 -400.641072 
L 363.392809 -400.417364 
L 364.667982 -400.351952 
L 365.943154 -400.484836 
L 367.218327 -400.68219 
L 368.493499 -400.704212 
L 369.768672 -400.885997 
L 371.043844 -401.015247 
L 372.319017 -400.829074 
L 373.594189 -400.713157 
L 374.869361 -401.070675 
L 376.144534 -401.047304 
L 377.419706 -400.729811 
L 378.694879 -401.022718 
L 379.970051 -400.81468 
L 381.245224 -400.593882 
L 382.520396 -400.879873 
L 383.795568 -400.649057 
L 385.070741 -400.598432 
L 386.345913 -400.733575 
L 387.621086 -400.744679 
L 388.896258 -400.842886 
L 390.171431 -400.760336 
L 391.446603 -400.772705 
L 392.721776 -400.510883 
L 393.996948 -400.827531 
L 395.27212 -400.42018 
L 396.547293 -400.549073 
L 397.822465 -400.544282 
L 399.097638 -400.344146 
L 400.37281 -400.293589 
L 401.647983 -400.541263 
L 401.647983 -401.158343 
L 401.647983 -401.158343 
L 400.37281 -401.035831 
L 399.097638 -401.041558 
L 397.822465 -400.990084 
L 396.547293 -401.02424 
L 395.27212 -401.044316 
L 393.996948 -401.107596 
L 392.721776 -400.947226 
L 391.446603 -401.501006 
L 390.171431 -401.235107 
L 388.896258 -401.450181 
L 387.621086 -401.370299 
L 386.345913 -401.5083 
L 385.070741 -401.415735 
L 383.795568 -401.47155 
L 382.520396 -401.700354 
L 381.245224 -401.421799 
L 379.970051 -401.598997 
L 378.694879 -401.608605 
L 377.419706 -401.699102 
L 376.144534 -401.775903 
L 374.869361 -401.835285 
L 373.594189 -401.759705 
L 372.319017 -401.806755 
L 371.043844 -401.739444 
L 369.768672 -401.605235 
L 368.493499 -401.640129 
L 367.218327 -401.708263 
L 365.943154 -401.497159 
L 364.667982 -401.655004 
L 363.392809 -401.621941 
L 362.117637 -401.585406 
L 360.842465 -401.439948 
L 359.567292 -401.671074 
L 358.29212 -401.487795 
L 357.016947 -401.708156 
L 355.741775 -401.447799 
L 354.466602 -401.755267 
L 353.19143 -401.585639 
L 351.916258 -401.63559 
L 350.641085 -401.553624 
L 349.365913 -401.501977 
L 348.09074 -401.477449 
L 346.815568 -401.505079 
L 345.540395 -401.608621 
L 344.265223 -401.593007 
L 342.99005 -401.914404 
L 341.714878 -401.779762 
L 340.439706 -401.705396 
L 339.164533 -401.866353 
L 337.889361 -401.68472 
L 336.614188 -401.895545 
L 335.339016 -401.80404 
L 334.063843 -401.677724 
L 332.788671 -401.753866 
L 331.513499 -401.540321 
L 330.238326 -401.637478 
L 328.963154 -401.768135 
L 327.687981 -401.603737 
L 326.412809 -401.891331 
L 325.137636 -401.825307 
L 323.862464 -401.367956 
L 322.587291 -401.588996 
L 321.312119 -401.437447 
L 320.036947 -401.619073 
L 318.761774 -401.679312 
L 317.486602 -401.910666 
L 316.211429 -401.574679 
L 314.936257 -401.513899 
L 313.661084 -401.464475 
L 312.385912 -401.417207 
L 311.11074 -401.958967 
L 309.835567 -401.973303 
L 308.560395 -401.710098 
L 307.285222 -401.66493 
L 306.01005 -401.413964 
L 304.734877 -401.46277 
L 303.459705 -401.440278 
L 302.184532 -401.628261 
L 300.90936 -401.685463 
L 299.634188 -401.561466 
L 298.359015 -401.348132 
L 297.083843 -401.648096 
L 295.80867 -401.511967 
L 294.533498 -400.791182 
L 293.258325 -401.727107 
L 291.983153 -400.837462 
L 290.707981 -401.249731 
L 289.432808 -400.995385 
L 288.157636 -401.583589 
L 286.882463 -401.725371 
L 285.607291 -401.900756 
L 284.332118 -401.62126 
L 283.056946 -401.591739 
L 281.781773 -401.335334 
L 280.506601 -401.42854 
L 279.231429 -400.838147 
L 277.956256 -401.724964 
L 276.681084 -401.563995 
L 275.405911 -401.536498 
L 274.130739 -401.806262 
L 272.855566 -401.644792 
L 271.580394 -401.125217 
L 270.305222 -401.29616 
L 269.030049 -400.707784 
L 267.754877 -400.628394 
L 266.479704 -401.241249 
L 265.204532 -401.117006 
L 263.929359 -401.516277 
L 262.654187 -401.274017 
L 261.379014 -401.682303 
L 260.103842 -401.205452 
L 258.82867 -401.632909 
L 257.553497 -401.357688 
L 256.278325 -400.71209 
L 255.003152 -401.005111 
L 253.72798 -400.882166 
L 252.452807 -400.495759 
L 251.177635 -400.666084 
L 249.902463 -400.445227 
L 248.62729 -400.677202 
L 247.352118 -401.023362 
L 246.076945 -400.644428 
L 244.801773 -400.584551 
L 243.5266 -400.75758 
L 242.251428 -400.824875 
L 240.976255 -401.009633 
L 239.701083 -400.985916 
L 238.425911 -400.994919 
L 237.150738 -401.192684 
L 235.875566 -401.079159 
L 234.600393 -401.007499 
L 233.325221 -400.885262 
L 232.050048 -401.308173 
L 230.774876 -400.89994 
L 229.499704 -401.439808 
L 228.224531 -401.568447 
L 226.949359 -401.20321 
L 225.674186 -401.044388 
L 224.399014 -401.262934 
L 223.123841 -401.120492 
L 221.848669 -400.910337 
L 220.573496 -401.201154 
L 219.298324 -401.104428 
L 218.023152 -401.108582 
L 216.747979 -400.655703 
L 215.472807 -401.048556 
L 214.197634 -400.625803 
L 212.922462 -400.148493 
L 211.647289 -400.690568 
L 210.372117 -400.483665 
L 209.096945 -400.578638 
L 207.821772 -400.674638 
L 206.5466 -400.679395 
L 205.271427 -400.448852 
L 203.996255 -400.723496 
L 202.721082 -400.766438 
L 201.44591 -400.516998 
L 200.170737 -400.358004 
L 198.895565 -400.479016 
L 197.620393 -400.441304 
L 196.34522 -401.125652 
L 195.070048 -399.97041 
L 193.794875 -400.551359 
L 192.519703 -400.163777 
L 191.24453 -400.3292 
L 189.969358 -400.18961 
L 188.694186 -400.603882 
L 187.419013 -400.185129 
L 186.143841 -400.360116 
L 184.868668 -400.180966 
L 183.593496 -400.007907 
L 182.318323 -400.141736 
L 181.043151 -400.121033 
L 179.767978 -400.197311 
L 178.492806 -400.173543 
L 177.217634 -400.085132 
L 175.942461 -400.478753 
L 174.667289 -400.64456 
L 173.392116 -400.901427 
L 172.116944 -400.708373 
L 170.841771 -400.607719 
L 169.566599 -400.348735 
L 168.291426 -400.019453 
L 167.016254 -399.978467 
L 165.741082 -399.629624 
L 164.465909 -399.145638 
L 163.190737 -399.481083 
L 161.915564 -399.108556 
L 160.640392 -399.714678 
L 159.365219 -399.213614 
L 158.090047 -399.526483 
L 156.814875 -399.081887 
L 155.539702 -399.686266 
L 154.26453 -399.802671 
L 152.989357 -400.281861 
L 151.714185 -400.711591 
L 150.439012 -400.908878 
L 149.16384 -400.688177 
L 147.888667 -400.828491 
L 146.613495 -400.875141 
L 145.338323 -400.992442 
L 144.06315 -401.085381 
L 142.787978 -400.825882 
L 141.512805 -401.118487 
L 140.237633 -400.480156 
L 138.96246 -399.790039 
L 137.687288 -399.819319 
L 136.412116 -399.701187 
L 135.136943 -400.284379 
L 133.861771 -400.330348 
L 132.586598 -401.466567 
L 131.311426 -401.067185 
L 130.036253 -399.858767 
L 128.761081 -399.800283 
L 127.485908 -400.508452 
L 126.210736 -399.027475 
L 124.935564 -399.993289 
L 123.660391 -401.430266 
L 122.385219 -400.192247 
L 121.110046 -400.916284 
L 119.834874 -399.53225 
L 118.559701 -400.554632 
L 117.284529 -399.537906 
L 116.009357 -398.571232 
L 114.734184 -400.334624 
L 113.459012 -399.57466 
L 112.183839 -399.201845 
L 110.908667 -399.578927 
L 109.633494 -399.099953 
L 108.358322 -401.378824 
L 107.083149 -398.589918 
L 105.807977 -398.089916 
L 104.532805 -398.809891 
L 103.257632 -399.566675 
L 101.98246 -400.216695 
L 100.707287 -398.519337 
L 99.432115 -396.440776 
L 98.156942 -397.141097 
L 96.88177 -399.146369 
L 95.606598 -396.987915 
L 94.331425 -397.606096 
L 93.056253 -400.08321 
L 91.78108 -398.279117 
L 90.505908 -399.292434 
L 89.230735 -398.277426 
L 87.955563 -398.226475 
L 86.68039 -389.284678 
L 85.405218 -392.572597 
L 84.130046 -68.892284 
z
" style="stroke: #6ca247; stroke-opacity: 0.2"/>
    </defs>
    <g clip-path="url(#p0528f17080)">
     <use xlink:href="#m96f91a9592" x="0" y="426.4" style="fill: #6ca247; fill-opacity: 0.2; stroke: #6ca247; stroke-opacity: 0.2"/>
    </g>
   </g>
   <g id="matplotlib.axis_1">
    <g id="xtick_1">
     <g id="line2d_1">
      <path d="M 83.970649 376.318305 
L 83.970649 7.2 
" clip-path="url(#p0528f17080)" style="fill: none; stroke: #b0b0b0; stroke-opacity: 0.3; stroke-width: 0.8; stroke-linecap: square"/>
     </g>
     <g id="line2d_2">
      <defs>
       <path id="m913011c1ee" d="M 0 0 
L 0 3.5 
" style="stroke: #000000; stroke-width: 0.8"/>
      </defs>
      <g>
       <use xlink:href="#m913011c1ee" x="83.970649" y="376.318305" style="stroke: #000000; stroke-width: 0.8"/>
      </g>
     </g>
     <g id="text_1">
      <!-- 0k -->
      <g transform="translate(75.949885 394.387893) scale(0.16 -0.16)">
       <defs>
        <path id="CMR17-30" d="M 2688 2038 
C 2688 2430 2682 3099 2413 3613 
C 2176 4063 1798 4224 1466 4224 
C 1158 4224 768 4082 525 3620 
C 269 3137 243 2539 243 2038 
C 243 1671 250 1112 448 623 
C 723 -39 1216 -128 1466 -128 
C 1760 -128 2208 -7 2470 604 
C 2662 1048 2688 1568 2688 2038 
z
M 1466 -26 
C 1056 -26 813 328 723 816 
C 653 1196 653 1749 653 2109 
C 653 2604 653 3015 736 3407 
C 858 3954 1216 4121 1466 4121 
C 1728 4121 2067 3947 2189 3420 
C 2272 3054 2278 2623 2278 2109 
C 2278 1691 2278 1176 2202 797 
C 2067 96 1690 -26 1466 -26 
z
" transform="scale(0.015625)"/>
        <path id="CMR17-6b" d="M 1670 1679 
C 1664 1692 1632 1730 1632 1749 
C 1632 1762 2086 2175 2144 2226 
C 2509 2532 2739 2563 2906 2570 
L 2906 2735 
C 2867 2735 2854 2735 2848 2729 
L 2534 2722 
C 2355 2722 2080 2722 1907 2735 
L 1907 2570 
C 1997 2563 2061 2513 2061 2423 
C 2061 2296 1933 2175 1926 2175 
L 960 1298 
L 960 4416 
L 198 4345 
L 198 4179 
C 576 4179 634 4141 634 3835 
L 634 439 
C 634 198 608 166 198 166 
L 198 0 
C 352 12 634 12 794 12 
C 954 12 1235 12 1389 0 
L 1389 166 
C 979 166 954 191 954 439 
L 954 1139 
L 1395 1540 
L 2042 586 
C 2118 471 2182 382 2182 299 
C 2182 185 2067 166 1990 166 
L 1990 0 
C 2144 12 2419 12 2579 12 
C 2694 12 2931 6 3040 0 
L 3040 166 
C 2739 166 2669 223 2477 503 
L 1670 1679 
z
" transform="scale(0.015625)"/>
       </defs>
       <use xlink:href="#CMR17-30" transform="scale(0.996264)"/>
       <use xlink:href="#CMR17-6b" transform="translate(45.690477 0) scale(0.996264)"/>
      </g>
     </g>
    </g>
    <g id="xtick_2">
     <g id="line2d_3">
      <path d="M 163.668926 376.318305 
L 163.668926 7.2 
" clip-path="url(#p0528f17080)" style="fill: none; stroke: #b0b0b0; stroke-opacity: 0.3; stroke-width: 0.8; stroke-linecap: square"/>
     </g>
     <g id="line2d_4">
      <g>
       <use xlink:href="#m913011c1ee" x="163.668926" y="376.318305" style="stroke: #000000; stroke-width: 0.8"/>
      </g>
     </g>
     <g id="text_2">
      <!-- 50k -->
      <g transform="translate(151.746168 394.387893) scale(0.16 -0.16)">
       <defs>
        <path id="CMR17-35" d="M 730 3750 
C 794 3724 1056 3641 1325 3641 
C 1920 3641 2246 3961 2432 4140 
C 2432 4191 2432 4224 2394 4224 
C 2387 4224 2374 4224 2323 4198 
C 2099 4102 1837 4032 1517 4032 
C 1325 4032 1037 4055 723 4191 
C 653 4224 640 4224 634 4224 
C 602 4224 595 4217 595 4090 
L 595 2231 
C 595 2113 595 2080 659 2080 
C 691 2080 704 2093 736 2139 
C 941 2435 1222 2560 1542 2560 
C 1766 2560 2246 2415 2246 1293 
C 2246 1087 2246 716 2054 422 
C 1894 159 1645 25 1370 25 
C 947 25 518 319 403 812 
C 429 806 480 793 506 793 
C 589 793 749 838 749 1036 
C 749 1209 627 1280 506 1280 
C 358 1280 262 1190 262 1011 
C 262 454 704 -128 1382 -128 
C 2042 -128 2669 441 2669 1267 
C 2669 2054 2170 2662 1549 2662 
C 1222 2662 947 2540 730 2304 
L 730 3750 
z
" transform="scale(0.015625)"/>
       </defs>
       <use xlink:href="#CMR17-35" transform="scale(0.996264)"/>
       <use xlink:href="#CMR17-30" transform="translate(45.690477 0) scale(0.996264)"/>
       <use xlink:href="#CMR17-6b" transform="translate(91.380954 0) scale(0.996264)"/>
      </g>
     </g>
    </g>
    <g id="xtick_3">
     <g id="line2d_5">
      <path d="M 243.367204 376.318305 
L 243.367204 7.2 
" clip-path="url(#p0528f17080)" style="fill: none; stroke: #b0b0b0; stroke-opacity: 0.3; stroke-width: 0.8; stroke-linecap: square"/>
     </g>
     <g id="line2d_6">
      <g>
       <use xlink:href="#m913011c1ee" x="243.367204" y="376.318305" style="stroke: #000000; stroke-width: 0.8"/>
      </g>
     </g>
     <g id="text_3">
      <!-- 100k -->
      <g transform="translate(227.542452 394.387893) scale(0.16 -0.16)">
       <defs>
        <path id="CMR17-31" d="M 1702 4083 
C 1702 4217 1696 4224 1606 4224 
C 1357 3927 979 3833 621 3820 
C 602 3820 570 3820 563 3808 
C 557 3795 557 3782 557 3648 
C 755 3648 1088 3686 1344 3839 
L 1344 467 
C 1344 243 1331 166 781 166 
L 589 166 
L 589 0 
C 896 6 1216 12 1523 12 
C 1830 12 2150 6 2458 0 
L 2458 166 
L 2266 166 
C 1715 166 1702 236 1702 467 
L 1702 4083 
z
" transform="scale(0.015625)"/>
       </defs>
       <use xlink:href="#CMR17-31" transform="scale(0.996264)"/>
       <use xlink:href="#CMR17-30" transform="translate(45.690477 0) scale(0.996264)"/>
       <use xlink:href="#CMR17-30" transform="translate(91.380954 0) scale(0.996264)"/>
       <use xlink:href="#CMR17-6b" transform="translate(137.071431 0) scale(0.996264)"/>
      </g>
     </g>
    </g>
    <g id="xtick_4">
     <g id="line2d_7">
      <path d="M 323.065481 376.318305 
L 323.065481 7.2 
" clip-path="url(#p0528f17080)" style="fill: none; stroke: #b0b0b0; stroke-opacity: 0.3; stroke-width: 0.8; stroke-linecap: square"/>
     </g>
     <g id="line2d_8">
      <g>
       <use xlink:href="#m913011c1ee" x="323.065481" y="376.318305" style="stroke: #000000; stroke-width: 0.8"/>
      </g>
     </g>
     <g id="text_4">
      <!-- 150k -->
      <g transform="translate(307.24073 394.387893) scale(0.16 -0.16)">
       <use xlink:href="#CMR17-31" transform="scale(0.996264)"/>
       <use xlink:href="#CMR17-35" transform="translate(45.690477 0) scale(0.996264)"/>
       <use xlink:href="#CMR17-30" transform="translate(91.380954 0) scale(0.996264)"/>
       <use xlink:href="#CMR17-6b" transform="translate(137.071431 0) scale(0.996264)"/>
      </g>
     </g>
    </g>
    <g id="xtick_5">
     <g id="line2d_9">
      <path d="M 402.763758 376.318305 
L 402.763758 7.2 
" clip-path="url(#p0528f17080)" style="fill: none; stroke: #b0b0b0; stroke-opacity: 0.3; stroke-width: 0.8; stroke-linecap: square"/>
     </g>
     <g id="line2d_10">
      <g>
       <use xlink:href="#m913011c1ee" x="402.763758" y="376.318305" style="stroke: #000000; stroke-width: 0.8"/>
      </g>
     </g>
     <g id="text_5">
      <!-- 200k -->
      <g transform="translate(386.939007 394.387893) scale(0.16 -0.16)">
       <defs>
        <path id="CMR17-32" d="M 2669 990 
L 2554 990 
C 2490 537 2438 460 2413 422 
C 2381 371 1920 371 1830 371 
L 602 371 
C 832 620 1280 1073 1824 1596 
C 2214 1966 2669 2400 2669 3033 
C 2669 3788 2067 4224 1395 4224 
C 691 4224 262 3603 262 3027 
C 262 2777 448 2745 525 2745 
C 589 2745 781 2783 781 3007 
C 781 3206 614 3264 525 3264 
C 486 3264 448 3257 422 3244 
C 544 3788 915 4057 1306 4057 
C 1862 4057 2227 3616 2227 3033 
C 2227 2477 1901 1998 1536 1583 
L 262 147 
L 262 0 
L 2515 0 
L 2669 990 
z
" transform="scale(0.015625)"/>
       </defs>
       <use xlink:href="#CMR17-32" transform="scale(0.996264)"/>
       <use xlink:href="#CMR17-30" transform="translate(45.690477 0) scale(0.996264)"/>
       <use xlink:href="#CMR17-30" transform="translate(91.380954 0) scale(0.996264)"/>
       <use xlink:href="#CMR17-6b" transform="translate(137.071431 0) scale(0.996264)"/>
      </g>
     </g>
    </g>
    <g id="text_6">
     <!-- Training Steps -->
     <g transform="translate(184.855875 415.324366) scale(0.2 -0.2)">
      <defs>
       <path id="CMR17-54" d="M 3981 4332 
L 288 4332 
L 179 2924 
L 294 2924 
C 378 3981 467 4166 1453 4166 
C 1568 4166 1754 4166 1805 4159 
C 1926 4140 1926 4064 1926 3917 
L 1926 465 
C 1926 236 1907 166 1376 166 
L 1197 166 
L 1197 0 
C 1504 6 1824 12 2138 12 
C 2451 12 2771 6 3078 0 
L 3078 166 
L 2899 166 
C 2368 166 2349 236 2349 465 
L 2349 3917 
C 2349 4057 2349 4134 2464 4159 
C 2515 4166 2701 4166 2816 4166 
C 3795 4166 3891 3981 3974 2924 
L 4090 2924 
L 3981 4332 
z
" transform="scale(0.015625)"/>
       <path id="CMR17-72" d="M 960 1517 
C 960 2134 1222 2713 1702 2713 
C 1747 2713 1792 2707 1837 2687 
C 1837 2687 1696 2642 1696 2475 
C 1696 2321 1818 2257 1914 2257 
C 1990 2257 2131 2302 2131 2482 
C 2131 2687 1926 2816 1709 2816 
C 1222 2816 1011 2340 947 2115 
L 941 2115 
L 941 2816 
L 198 2745 
L 198 2578 
C 576 2578 634 2540 634 2231 
L 634 443 
C 634 198 608 166 198 166 
L 198 0 
C 352 12 646 12 813 12 
C 998 12 1325 12 1498 0 
L 1498 166 
C 1037 166 960 166 960 455 
L 960 1517 
z
" transform="scale(0.015625)"/>
       <path id="CMR17-61" d="M 2304 1656 
C 2304 2048 2304 2275 2035 2534 
C 1798 2751 1523 2816 1306 2816 
C 800 2816 435 2408 435 1977 
C 435 1740 627 1728 666 1728 
C 749 1728 896 1779 896 1958 
C 896 2118 774 2188 666 2188 
C 640 2188 608 2182 589 2176 
C 723 2594 1069 2713 1293 2713 
C 1613 2713 1965 2421 1965 1875 
L 1965 1632 
C 1587 1619 1133 1568 774 1373 
C 371 1147 256 822 256 576 
C 256 77 832 -64 1171 -64 
C 1523 -64 1850 135 1990 505 
C 2003 219 2182 -39 2464 -39 
C 2598 -39 2938 51 2938 563 
L 2938 926 
L 2822 926 
L 2822 557 
C 2822 161 2650 109 2566 109 
C 2304 109 2304 446 2304 732 
L 2304 1656 
z
M 1965 887 
C 1965 323 1568 38 1216 38 
C 896 38 646 278 646 576 
C 646 771 730 1114 1101 1322 
C 1408 1497 1760 1523 1965 1536 
L 1965 887 
z
" transform="scale(0.015625)"/>
       <path id="CMR17-69" d="M 992 3961 
C 992 4102 877 4224 730 4224 
C 589 4224 467 4108 467 3961 
C 467 3820 582 3699 730 3699 
C 870 3699 992 3814 992 3961 
z
M 243 2745 
L 243 2579 
C 602 2579 653 2540 653 2231 
L 653 443 
C 653 198 627 166 218 166 
L 218 0 
C 371 12 646 12 806 12 
C 960 12 1222 12 1370 0 
L 1370 166 
C 992 166 979 205 979 436 
L 979 2816 
L 243 2745 
z
" transform="scale(0.015625)"/>
       <path id="CMR17-6e" d="M 2656 1954 
C 2656 2282 2592 2816 1837 2816 
C 1331 2816 1069 2424 973 2166 
L 966 2166 
L 966 2816 
L 211 2745 
L 211 2578 
C 589 2578 646 2540 646 2231 
L 646 443 
C 646 198 621 166 211 166 
L 211 0 
C 365 12 646 12 813 12 
C 979 12 1267 12 1421 0 
L 1421 166 
C 1011 166 986 192 986 443 
L 986 1678 
C 986 2269 1344 2713 1792 2713 
C 2266 2713 2317 2289 2317 1980 
L 2317 443 
C 2317 198 2291 166 1882 166 
L 1882 0 
C 2035 12 2317 12 2483 12 
C 2650 12 2938 12 3091 0 
L 3091 166 
C 2682 166 2656 192 2656 443 
L 2656 1954 
z
" transform="scale(0.015625)"/>
       <path id="CMR17-67" d="M 710 1165 
C 832 1068 1043 960 1299 960 
C 1805 960 2240 1359 2240 1895 
C 2240 2063 2189 2321 1997 2521 
C 2176 2713 2438 2777 2586 2777 
C 2611 2777 2650 2777 2682 2758 
C 2656 2751 2598 2726 2598 2623 
C 2598 2540 2656 2483 2739 2483 
C 2835 2483 2886 2547 2886 2630 
C 2886 2751 2790 2880 2586 2880 
C 2330 2880 2106 2758 1926 2591 
C 1734 2764 1504 2828 1299 2828 
C 794 2828 358 2431 358 1895 
C 358 1527 570 1294 634 1230 
C 442 1004 442 742 442 710 
C 442 544 506 300 723 166 
C 390 82 128 -184 128 -517 
C 128 -996 736 -1344 1466 -1344 
C 2170 -1344 2803 -1009 2803 -510 
C 2803 384 1856 384 1363 384 
C 1216 384 954 384 922 390 
C 723 422 589 601 589 825 
C 589 883 589 1024 710 1165 
z
M 1299 1068 
C 736 1068 736 1766 736 1895 
C 736 2024 736 2719 1299 2719 
C 1862 2719 1862 2024 1862 1895 
C 1862 1766 1862 1068 1299 1068 
z
M 1466 -1236 
C 826 -1236 384 -883 384 -517 
C 384 -311 493 -118 634 -11 
C 794 102 858 102 1293 102 
C 1818 102 2547 102 2547 -517 
C 2547 -883 2106 -1236 1466 -1236 
z
" transform="scale(0.015625)"/>
       <path id="CMR17-53" d="M 2803 4351 
C 2803 4467 2797 4473 2758 4473 
C 2720 4473 2707 4447 2682 4390 
L 2490 3965 
C 2246 4320 1875 4480 1472 4480 
C 819 4480 294 3958 294 3301 
C 294 3101 339 2817 557 2546 
C 794 2250 1018 2198 1530 2063 
C 1722 2011 2042 1927 2106 1901 
C 2470 1747 2662 1360 2662 999 
C 2662 534 2336 38 1779 38 
C 1094 38 454 425 410 1328 
C 403 1431 397 1437 352 1437 
C 301 1437 294 1431 294 1302 
L 294 0 
C 294 -116 301 -122 339 -122 
C 384 -122 397 -90 486 109 
C 493 128 493 141 614 386 
C 934 -39 1472 -128 1779 -128 
C 2477 -128 2970 457 2970 1141 
C 2970 1476 2848 1734 2778 1850 
C 2509 2263 2221 2340 1914 2417 
C 1869 2437 1856 2437 1498 2527 
C 1152 2617 1005 2662 845 2836 
C 666 3036 602 3243 602 3449 
C 602 3868 934 4326 1478 4326 
C 2157 4326 2579 3842 2675 3036 
C 2694 2920 2701 2914 2746 2914 
C 2803 2914 2803 2933 2803 3043 
L 2803 4351 
z
" transform="scale(0.015625)"/>
       <path id="CMR17-74" d="M 966 2585 
L 1862 2585 
L 1862 2752 
L 966 2752 
L 966 3968 
L 851 3968 
C 838 3292 614 2700 70 2687 
L 70 2585 
L 627 2585 
L 627 778 
C 627 655 627 -64 1370 -64 
C 1747 -64 1965 308 1965 784 
L 1965 1151 
L 1850 1151 
L 1850 790 
C 1850 347 1677 51 1408 51 
C 1222 51 966 179 966 765 
L 966 2585 
z
" transform="scale(0.015625)"/>
       <path id="CMR17-65" d="M 2438 1503 
C 2464 1529 2464 1542 2464 1606 
C 2464 2251 2118 2816 1389 2816 
C 710 2816 173 2175 173 1394 
C 173 554 781 -64 1459 -64 
C 2176 -64 2458 619 2458 755 
C 2458 800 2419 800 2406 800 
C 2362 800 2355 787 2330 709 
C 2189 270 1837 51 1504 51 
C 1229 51 954 206 781 490 
C 582 819 582 1200 582 1503 
L 2438 1503 
z
M 589 1600 
C 634 2511 1126 2713 1382 2713 
C 1818 2713 2112 2308 2118 1600 
L 589 1600 
z
" transform="scale(0.015625)"/>
       <path id="CMR17-70" d="M 1408 -1114 
C 998 -1114 973 -1088 973 -834 
L 973 380 
C 1158 109 1427 -64 1766 -64 
C 2406 -64 3053 503 3053 1382 
C 3053 2196 2496 2816 1837 2816 
C 1453 2816 1139 2603 960 2345 
L 960 2816 
L 198 2745 
L 198 2577 
C 576 2577 634 2539 634 2228 
L 634 -834 
C 634 -1081 608 -1114 198 -1114 
L 198 -1280 
C 352 -1268 634 -1268 800 -1268 
C 966 -1268 1254 -1268 1408 -1280 
L 1408 -1114 
z
M 973 2015 
C 973 2106 973 2241 1222 2481 
C 1254 2506 1472 2700 1792 2700 
C 2259 2700 2643 2112 2643 1376 
C 2643 639 2234 38 1728 38 
C 1498 38 1248 148 1056 451 
C 973 594 973 632 973 736 
L 973 2015 
z
" transform="scale(0.015625)"/>
       <path id="CMR17-73" d="M 1978 2688 
C 1978 2803 1971 2809 1933 2809 
C 1907 2809 1901 2803 1824 2707 
C 1805 2681 1747 2617 1728 2592 
C 1523 2809 1235 2816 1126 2816 
C 416 2816 160 2444 160 2073 
C 160 1497 813 1363 998 1324 
C 1402 1241 1542 1216 1677 1100 
C 1760 1024 1901 883 1901 652 
C 1901 384 1747 38 1158 38 
C 602 38 403 460 288 1024 
C 269 1113 269 1120 218 1120 
C 166 1120 160 1113 160 985 
L 160 64 
C 160 -52 166 -58 205 -58 
C 237 -58 243 -52 275 0 
C 314 57 410 211 448 275 
C 576 102 800 -64 1158 -64 
C 1792 -64 2131 281 2131 780 
C 2131 1107 1958 1280 1875 1356 
C 1683 1555 1459 1600 1190 1651 
C 838 1728 390 1817 390 2208 
C 390 2374 480 2726 1126 2726 
C 1811 2726 1850 2086 1862 1881 
C 1869 1849 1901 1843 1920 1843 
C 1978 1843 1978 1862 1978 1971 
L 1978 2688 
z
" transform="scale(0.015625)"/>
      </defs>
      <use xlink:href="#CMR17-54" transform="scale(0.996264)"/>
      <use xlink:href="#CMR17-72" transform="translate(58.702625 0) scale(0.996264)"/>
      <use xlink:href="#CMR17-61" transform="translate(93.983393 0) scale(0.996264)"/>
      <use xlink:href="#CMR17-69" transform="translate(139.67387 0) scale(0.996264)"/>
      <use xlink:href="#CMR17-6e" transform="translate(164.544929 0) scale(0.996264)"/>
      <use xlink:href="#CMR17-69" transform="translate(215.440298 0) scale(0.996264)"/>
      <use xlink:href="#CMR17-6e" transform="translate(240.311357 0) scale(0.996264)"/>
      <use xlink:href="#CMR17-67" transform="translate(291.206727 0) scale(0.996264)"/>
      <use xlink:href="#CMR17-53" transform="translate(366.97317 0) scale(0.996264)"/>
      <use xlink:href="#CMR17-74" transform="translate(417.86854 0) scale(0.996264)"/>
      <use xlink:href="#CMR17-65" transform="translate(453.149308 0) scale(0.996264)"/>
      <use xlink:href="#CMR17-70" transform="translate(493.634968 0) scale(0.996264)"/>
      <use xlink:href="#CMR17-73" transform="translate(544.530338 0) scale(0.996264)"/>
     </g>
    </g>
   </g>
   <g id="matplotlib.axis_2">
    <g id="ytick_1">
     <g id="line2d_11">
      <path d="M 68.254149 329.698715 
L 417.523879 329.698715 
" clip-path="url(#p0528f17080)" style="fill: none; stroke: #b0b0b0; stroke-opacity: 0.3; stroke-width: 0.8; stroke-linecap: square"/>
     </g>
     <g id="line2d_12">
      <defs>
       <path id="m4602eb43ad" d="M 0 0 
L -3.5 0 
" style="stroke: #000000; stroke-width: 0.8"/>
      </defs>
      <g>
       <use xlink:href="#m4602eb43ad" x="68.254149" y="329.698715" style="stroke: #000000; stroke-width: 0.8"/>
      </g>
     </g>
     <g id="text_7">
      <!-- $\mathdefault{0.6}$ -->
      <g transform="translate(28.91263 335.233509) scale(0.16 -0.16)">
       <defs>
        <path id="CMSY10-0" d="M 4218 1472 
C 4326 1472 4442 1472 4442 1600 
C 4442 1728 4326 1728 4218 1728 
L 755 1728 
C 646 1728 531 1728 531 1600 
C 531 1472 646 1472 755 1472 
L 4218 1472 
z
" transform="scale(0.015625)"/>
        <path id="CMMI12-3a" d="M 1178 307 
C 1178 492 1024 620 870 620 
C 685 620 557 467 557 313 
C 557 128 710 0 864 0 
C 1050 0 1178 153 1178 307 
z
" transform="scale(0.015625)"/>
        <path id="CMR17-36" d="M 678 2198 
C 678 3712 1395 4076 1811 4076 
C 1946 4076 2272 4049 2400 3782 
C 2298 3782 2106 3782 2106 3558 
C 2106 3385 2246 3328 2336 3328 
C 2394 3328 2566 3353 2566 3571 
C 2566 3987 2246 4224 1805 4224 
C 1043 4224 243 3411 243 2011 
C 243 257 966 -128 1478 -128 
C 2099 -128 2688 431 2688 1295 
C 2688 2101 2170 2688 1517 2688 
C 1126 2688 838 2430 678 1979 
L 678 2198 
z
M 1478 25 
C 691 25 691 1212 691 1450 
C 691 1914 909 2585 1504 2585 
C 1613 2585 1926 2585 2138 2140 
C 2253 1889 2253 1624 2253 1302 
C 2253 954 2253 696 2118 438 
C 1978 173 1773 25 1478 25 
z
" transform="scale(0.015625)"/>
       </defs>
       <use xlink:href="#CMSY10-0" transform="scale(0.996264)"/>
       <use xlink:href="#CMR17-30" transform="translate(77.487468 0) scale(0.996264)"/>
       <use xlink:href="#CMMI12-3a" transform="translate(123.177945 0) scale(0.996264)"/>
       <use xlink:href="#CMR17-36" transform="translate(150.275122 0) scale(0.996264)"/>
      </g>
     </g>
    </g>
    <g id="ytick_2">
     <g id="line2d_13">
      <path d="M 68.254149 278.744333 
L 417.523879 278.744333 
" clip-path="url(#p0528f17080)" style="fill: none; stroke: #b0b0b0; stroke-opacity: 0.3; stroke-width: 0.8; stroke-linecap: square"/>
     </g>
     <g id="line2d_14">
      <g>
       <use xlink:href="#m4602eb43ad" x="68.254149" y="278.744333" style="stroke: #000000; stroke-width: 0.8"/>
      </g>
     </g>
     <g id="text_8">
      <!-- $\mathdefault{0.5}$ -->
      <g transform="translate(28.91263 284.279128) scale(0.16 -0.16)">
       <use xlink:href="#CMSY10-0" transform="scale(0.996264)"/>
       <use xlink:href="#CMR17-30" transform="translate(77.487468 0) scale(0.996264)"/>
       <use xlink:href="#CMMI12-3a" transform="translate(123.177945 0) scale(0.996264)"/>
       <use xlink:href="#CMR17-35" transform="translate(150.275122 0) scale(0.996264)"/>
      </g>
     </g>
    </g>
    <g id="ytick_3">
     <g id="line2d_15">
      <path d="M 68.254149 227.789952 
L 417.523879 227.789952 
" clip-path="url(#p0528f17080)" style="fill: none; stroke: #b0b0b0; stroke-opacity: 0.3; stroke-width: 0.8; stroke-linecap: square"/>
     </g>
     <g id="line2d_16">
      <g>
       <use xlink:href="#m4602eb43ad" x="68.254149" y="227.789952" style="stroke: #000000; stroke-width: 0.8"/>
      </g>
     </g>
     <g id="text_9">
      <!-- $\mathdefault{0.4}$ -->
      <g transform="translate(28.91263 233.324746) scale(0.16 -0.16)">
       <defs>
        <path id="CMR17-34" d="M 2150 4147 
C 2150 4281 2144 4288 2029 4288 
L 128 1254 
L 128 1088 
L 1779 1088 
L 1779 460 
C 1779 230 1766 166 1318 166 
L 1197 166 
L 1197 0 
C 1402 12 1747 12 1965 12 
C 2182 12 2528 12 2733 0 
L 2733 166 
L 2611 166 
C 2163 166 2150 230 2150 460 
L 2150 1088 
L 2803 1088 
L 2803 1254 
L 2150 1254 
L 2150 4147 
z
M 1798 3723 
L 1798 1254 
L 256 1254 
L 1798 3723 
z
" transform="scale(0.015625)"/>
       </defs>
       <use xlink:href="#CMSY10-0" transform="scale(0.996264)"/>
       <use xlink:href="#CMR17-30" transform="translate(77.487468 0) scale(0.996264)"/>
       <use xlink:href="#CMMI12-3a" transform="translate(123.177945 0) scale(0.996264)"/>
       <use xlink:href="#CMR17-34" transform="translate(150.275122 0) scale(0.996264)"/>
      </g>
     </g>
    </g>
    <g id="ytick_4">
     <g id="line2d_17">
      <path d="M 68.254149 176.83557 
L 417.523879 176.83557 
" clip-path="url(#p0528f17080)" style="fill: none; stroke: #b0b0b0; stroke-opacity: 0.3; stroke-width: 0.8; stroke-linecap: square"/>
     </g>
     <g id="line2d_18">
      <g>
       <use xlink:href="#m4602eb43ad" x="68.254149" y="176.83557" style="stroke: #000000; stroke-width: 0.8"/>
      </g>
     </g>
     <g id="text_10">
      <!-- $\mathdefault{0.3}$ -->
      <g transform="translate(28.91263 182.370364) scale(0.16 -0.16)">
       <defs>
        <path id="CMR17-33" d="M 1414 2176 
C 1984 2176 2234 1673 2234 1094 
C 2234 322 1824 25 1453 25 
C 1114 25 563 193 390 691 
C 422 678 454 678 486 678 
C 640 678 755 780 755 947 
C 755 1132 614 1216 486 1216 
C 378 1216 211 1164 211 927 
C 211 335 787 -128 1466 -128 
C 2176 -128 2720 432 2720 1087 
C 2720 1718 2208 2176 1600 2246 
C 2086 2347 2554 2776 2554 3353 
C 2554 3856 2048 4224 1472 4224 
C 890 4224 378 3862 378 3347 
C 378 3123 544 3084 627 3084 
C 762 3084 877 3167 877 3334 
C 877 3500 762 3584 627 3584 
C 602 3584 570 3584 544 3571 
C 730 3999 1235 4076 1459 4076 
C 1683 4076 2106 3966 2106 3347 
C 2106 3167 2080 2851 1862 2574 
C 1670 2329 1453 2316 1242 2297 
C 1210 2297 1062 2284 1037 2284 
C 992 2278 966 2272 966 2227 
C 966 2182 973 2176 1101 2176 
L 1414 2176 
z
" transform="scale(0.015625)"/>
       </defs>
       <use xlink:href="#CMSY10-0" transform="scale(0.996264)"/>
       <use xlink:href="#CMR17-30" transform="translate(77.487468 0) scale(0.996264)"/>
       <use xlink:href="#CMMI12-3a" transform="translate(123.177945 0) scale(0.996264)"/>
       <use xlink:href="#CMR17-33" transform="translate(150.275122 0) scale(0.996264)"/>
      </g>
     </g>
    </g>
    <g id="ytick_5">
     <g id="line2d_19">
      <path d="M 68.254149 125.881188 
L 417.523879 125.881188 
" clip-path="url(#p0528f17080)" style="fill: none; stroke: #b0b0b0; stroke-opacity: 0.3; stroke-width: 0.8; stroke-linecap: square"/>
     </g>
     <g id="line2d_20">
      <g>
       <use xlink:href="#m4602eb43ad" x="68.254149" y="125.881188" style="stroke: #000000; stroke-width: 0.8"/>
      </g>
     </g>
     <g id="text_11">
      <!-- $\mathdefault{0.2}$ -->
      <g transform="translate(28.91263 131.415982) scale(0.16 -0.16)">
       <use xlink:href="#CMSY10-0" transform="scale(0.996264)"/>
       <use xlink:href="#CMR17-30" transform="translate(77.487468 0) scale(0.996264)"/>
       <use xlink:href="#CMMI12-3a" transform="translate(123.177945 0) scale(0.996264)"/>
       <use xlink:href="#CMR17-32" transform="translate(150.275122 0) scale(0.996264)"/>
      </g>
     </g>
    </g>
    <g id="ytick_6">
     <g id="line2d_21">
      <path d="M 68.254149 74.926806 
L 417.523879 74.926806 
" clip-path="url(#p0528f17080)" style="fill: none; stroke: #b0b0b0; stroke-opacity: 0.3; stroke-width: 0.8; stroke-linecap: square"/>
     </g>
     <g id="line2d_22">
      <g>
       <use xlink:href="#m4602eb43ad" x="68.254149" y="74.926806" style="stroke: #000000; stroke-width: 0.8"/>
      </g>
     </g>
     <g id="text_12">
      <!-- $\mathdefault{0.1}$ -->
      <g transform="translate(28.91263 80.4616) scale(0.16 -0.16)">
       <use xlink:href="#CMSY10-0" transform="scale(0.996264)"/>
       <use xlink:href="#CMR17-30" transform="translate(77.487468 0) scale(0.996264)"/>
       <use xlink:href="#CMMI12-3a" transform="translate(123.177945 0) scale(0.996264)"/>
       <use xlink:href="#CMR17-31" transform="translate(150.275122 0) scale(0.996264)"/>
      </g>
     </g>
    </g>
    <g id="ytick_7">
     <g id="line2d_23">
      <path d="M 68.254149 23.972424 
L 417.523879 23.972424 
" clip-path="url(#p0528f17080)" style="fill: none; stroke: #b0b0b0; stroke-opacity: 0.3; stroke-width: 0.8; stroke-linecap: square"/>
     </g>
     <g id="line2d_24">
      <g>
       <use xlink:href="#m4602eb43ad" x="68.254149" y="23.972424" style="stroke: #000000; stroke-width: 0.8"/>
      </g>
     </g>
     <g id="text_13">
      <!-- $\mathdefault{0.0}$ -->
      <g transform="translate(41.310626 29.507219) scale(0.16 -0.16)">
       <use xlink:href="#CMR17-30" transform="scale(0.996264)"/>
       <use xlink:href="#CMMI12-3a" transform="translate(45.690477 0) scale(0.996264)"/>
       <use xlink:href="#CMR17-30" transform="translate(72.787654 0) scale(0.996264)"/>
      </g>
     </g>
    </g>
    <g id="text_14">
     <!-- Return -->
     <g transform="translate(21.036997 219.822038) rotate(-90) scale(0.2 -0.2)">
      <defs>
       <path id="CMR17-52" d="M 2509 2156 
C 3117 2278 3629 2689 3629 3203 
C 3629 3806 2950 4352 2054 4352 
L 333 4352 
L 333 4185 
C 774 4185 845 4185 845 3896 
L 845 428 
C 845 140 774 140 333 140 
L 333 -26 
C 518 -13 851 -13 1050 -13 
C 1248 -13 1581 -13 1766 -26 
L 1766 140 
C 1325 140 1254 140 1254 428 
L 1254 2112 
L 2003 2112 
C 2368 2112 2573 1964 2662 1881 
C 2918 1632 2918 1459 2918 1024 
C 2918 595 2918 377 3110 160 
C 3354 -103 3680 -128 3821 -128 
C 4294 -128 4365 403 4365 512 
C 4365 550 4365 595 4307 595 
C 4256 595 4250 556 4250 531 
C 4218 115 4032 -26 3834 -26 
C 3482 -26 3443 377 3405 768 
C 3386 902 3373 998 3360 1139 
C 3322 1459 3270 1926 2509 2156 
z
M 1984 2214 
L 1254 2214 
L 1254 3935 
C 1254 4153 1267 4185 1523 4185 
L 1990 4185 
C 2522 4185 3142 3999 3142 3203 
C 3142 2374 2464 2214 1984 2214 
z
" transform="scale(0.015625)"/>
       <path id="CMR17-75" d="M 1882 2745 
L 1882 2579 
C 2259 2579 2317 2540 2317 2229 
L 2317 1053 
C 2317 510 2029 38 1555 38 
C 1030 38 986 355 986 691 
L 986 2816 
L 211 2745 
L 211 2579 
C 467 2579 640 2579 646 2320 
L 646 1079 
C 646 646 646 368 813 187 
C 896 103 1056 -64 1517 -64 
C 2061 -64 2272 400 2323 536 
L 2330 536 
L 2330 -64 
L 3091 -13 
L 3091 154 
C 2714 154 2656 193 2656 503 
L 2656 2816 
L 1882 2745 
z
" transform="scale(0.015625)"/>
      </defs>
      <use xlink:href="#CMR17-52" transform="scale(0.996264)"/>
      <use xlink:href="#CMR17-65" transform="translate(67.791102 0) scale(0.996264)"/>
      <use xlink:href="#CMR17-74" transform="translate(108.276762 0) scale(0.996264)"/>
      <use xlink:href="#CMR17-75" transform="translate(143.55753 0) scale(0.996264)"/>
      <use xlink:href="#CMR17-72" transform="translate(194.4529 0) scale(0.996264)"/>
      <use xlink:href="#CMR17-6e" transform="translate(229.733668 0) scale(0.996264)"/>
     </g>
    </g>
   </g>
   <g id="line2d_25">
    <path d="M 84.130046 42.898092 
L 85.405218 28.875861 
L 86.68039 31.492322 
L 87.955563 81.935853 
L 89.230735 27.158776 
L 90.505908 60.485519 
L 91.78108 28.83103 
L 93.056253 32.691484 
L 94.331425 40.621341 
L 95.606598 33.133303 
L 96.88177 33.813515 
L 98.156942 63.124381 
L 99.432115 75.683428 
L 100.707287 47.938761 
L 101.98246 46.278808 
L 103.257632 33.990581 
L 104.532805 31.094859 
L 105.807977 34.233659 
L 107.083149 40.694006 
L 108.358322 57.783705 
L 109.633494 50.347148 
L 110.908667 57.650734 
L 112.183839 55.617681 
L 113.459012 73.252553 
L 114.734184 83.518371 
L 116.009357 139.011784 
L 117.284529 58.734656 
L 118.559701 128.744988 
L 119.834874 91.074203 
L 121.110046 99.566843 
L 122.385219 64.303865 
L 123.660391 34.207464 
L 124.935564 52.789311 
L 126.210736 48.434281 
L 127.485908 70.651188 
L 128.761081 62.314589 
L 130.036253 64.696984 
L 131.311426 39.224203 
L 132.586598 33.918484 
L 133.861771 29.462528 
L 135.136943 33.92504 
L 136.412116 32.942092 
L 137.687288 27.864451 
L 138.96246 31.61947 
L 140.237633 26.580996 
L 141.512805 29.207694 
L 142.787978 25.766572 
L 145.338323 26.232687 
L 146.613495 25.242558 
L 147.888667 26.647461 
L 149.16384 25.399936 
L 150.439012 25.711529 
L 151.714185 24.705626 
L 152.989357 25.239666 
L 154.26453 25.41897 
L 155.539702 24.657415 
L 156.814875 25.740153 
L 158.090047 27.592242 
L 159.365219 25.675472 
L 160.640392 25.078518 
L 161.915564 25.330259 
L 163.190737 25.193542 
L 164.465909 25.179863 
L 165.741082 27.856012 
L 167.016254 25.041743 
L 168.291426 25.138302 
L 169.566599 25.945449 
L 170.841771 25.615594 
L 172.116944 24.828604 
L 173.392116 26.091339 
L 174.667289 26.133177 
L 175.942461 24.945374 
L 177.217634 24.620644 
L 178.492806 26.248161 
L 179.767978 25.595406 
L 181.043151 25.100008 
L 182.318323 25.127908 
L 183.593496 25.715336 
L 184.868668 24.793499 
L 186.143841 26.236091 
L 187.419013 24.629814 
L 188.694186 25.870095 
L 189.969358 25.325471 
L 191.24453 24.655922 
L 192.519703 24.974216 
L 195.070048 24.928987 
L 196.34522 26.294928 
L 197.620393 25.708757 
L 198.895565 26.592769 
L 200.170737 24.756765 
L 201.44591 25.471261 
L 202.721082 24.87592 
L 203.996255 25.930981 
L 206.5466 25.141839 
L 207.821772 25.565636 
L 209.096945 24.609671 
L 210.372117 25.776364 
L 211.647289 24.740728 
L 212.922462 24.602848 
L 214.197634 24.753551 
L 215.472807 24.776812 
L 216.747979 25.082855 
L 218.023152 25.802329 
L 219.298324 24.838087 
L 220.573496 25.775965 
L 221.848669 25.47486 
L 223.123841 24.904977 
L 224.399014 25.017722 
L 225.674186 25.361377 
L 228.224531 25.069764 
L 229.499704 25.757243 
L 230.774876 24.381727 
L 232.050048 24.435782 
L 233.325221 24.859689 
L 234.600393 24.702124 
L 235.875566 25.286517 
L 237.150738 24.568425 
L 238.425911 24.945432 
L 240.976255 24.73543 
L 242.251428 24.488885 
L 247.352118 24.532695 
L 249.902463 25.214506 
L 251.177635 25.018632 
L 252.452807 24.534978 
L 255.003152 25.459896 
L 256.278325 24.823206 
L 257.553497 25.200897 
L 258.82867 24.740843 
L 260.103842 24.589134 
L 261.379014 24.906059 
L 262.654187 24.891306 
L 263.929359 24.718345 
L 265.204532 24.955899 
L 266.479704 25.727278 
L 267.754877 24.39138 
L 269.030049 24.726137 
L 270.305222 25.88497 
L 271.580394 24.47943 
L 272.855566 24.785634 
L 274.130739 25.922392 
L 275.405911 25.056679 
L 276.681084 24.984294 
L 277.956256 24.656881 
L 279.231429 25.283476 
L 280.506601 26.46864 
L 283.056946 24.729058 
L 284.332118 24.365006 
L 285.607291 24.324445 
L 288.157636 25.245619 
L 289.432808 25.472024 
L 290.707981 24.768306 
L 291.983153 24.996679 
L 293.258325 25.625896 
L 294.533498 24.744582 
L 295.80867 25.320558 
L 297.083843 24.657569 
L 298.359015 24.546476 
L 299.634188 24.619647 
L 300.90936 24.524738 
L 303.459705 25.322436 
L 304.734877 24.262749 
L 306.01005 25.855251 
L 308.560395 24.380918 
L 309.835567 25.011027 
L 311.11074 26.019262 
L 312.385912 24.879648 
L 313.661084 24.662892 
L 314.936257 25.230343 
L 316.211429 24.359507 
L 317.486602 24.67695 
L 318.761774 24.541058 
L 320.036947 24.650675 
L 321.312119 25.268224 
L 322.587291 24.536582 
L 323.862464 24.499719 
L 325.137636 24.339524 
L 326.412809 24.930351 
L 327.687981 25.925899 
L 328.963154 24.53998 
L 330.238326 25.464758 
L 331.513499 24.513193 
L 332.788671 25.081742 
L 334.063843 24.60144 
L 335.339016 24.400176 
L 336.614188 24.349992 
L 337.889361 25.054868 
L 339.164533 24.938142 
L 340.439706 24.31026 
L 341.714878 25.253656 
L 342.99005 24.381001 
L 344.265223 24.317689 
L 345.540395 24.374425 
L 346.815568 24.943374 
L 349.365913 24.50239 
L 350.641085 24.80154 
L 351.916258 24.488526 
L 353.19143 25.580884 
L 355.741775 24.895567 
L 357.016947 24.950024 
L 358.29212 25.90784 
L 359.567292 24.518405 
L 360.842465 24.484741 
L 362.117637 24.697086 
L 363.392809 24.698664 
L 364.667982 24.944916 
L 365.943154 24.538164 
L 367.218327 25.024284 
L 368.493499 24.521335 
L 369.768672 24.657521 
L 371.043844 24.643331 
L 372.319017 24.964234 
L 373.594189 24.421873 
L 376.144534 24.554472 
L 377.419706 24.901218 
L 378.694879 24.460259 
L 379.970051 24.518024 
L 381.245224 24.703516 
L 382.520396 24.520708 
L 383.795568 25.246311 
L 385.070741 24.265846 
L 386.345913 24.881741 
L 387.621086 24.959053 
L 388.896258 24.227108 
L 390.171431 24.597993 
L 391.446603 25.290016 
L 392.721776 24.769143 
L 393.996948 25.787285 
L 395.27212 24.702726 
L 396.547293 25.70432 
L 397.822465 24.244864 
L 400.37281 25.15014 
L 401.647983 24.469063 
L 401.647983 24.469063 
" clip-path="url(#p0528f17080)" style="fill: none; stroke: #d66b6a; stroke-width: 1.5; stroke-linecap: square"/>
   </g>
   <g id="line2d_26">
    <path d="M 84.130046 25.672967 
L 85.405218 117.543401 
L 86.68039 38.189469 
L 87.955563 32.100352 
L 89.230735 24.066665 
L 90.505908 25.878423 
L 91.78108 24.001071 
L 93.056253 29.441361 
L 94.331425 24.707329 
L 95.606598 24.249389 
L 96.88177 24.930607 
L 98.156942 24.053697 
L 99.432115 24.795158 
L 100.707287 24.204808 
L 101.98246 24.084075 
L 103.257632 25.160638 
L 104.532805 24.116971 
L 105.807977 24.425088 
L 107.083149 24.148068 
L 109.633494 24.02451 
L 112.183839 24.4158 
L 113.459012 25.088532 
L 114.734184 26.50115 
L 116.009357 24.601001 
L 118.559701 24.845281 
L 119.834874 24.624816 
L 121.110046 25.190914 
L 122.385219 24.279085 
L 123.660391 24.623075 
L 124.935564 24.113411 
L 126.210736 25.587002 
L 127.485908 24.394815 
L 128.761081 24.690294 
L 130.036253 24.292972 
L 131.311426 24.809811 
L 132.586598 25.483643 
L 133.861771 24.219611 
L 135.136943 24.592807 
L 136.412116 24.138329 
L 137.687288 24.538201 
L 138.96246 24.317935 
L 140.237633 25.10471 
L 141.512805 24.518272 
L 142.787978 24.441308 
L 145.338323 24.713047 
L 146.613495 25.124065 
L 147.888667 24.526275 
L 154.26453 25.412651 
L 155.539702 27.140147 
L 156.814875 25.782577 
L 158.090047 25.490778 
L 159.365219 27.067091 
L 160.640392 26.663165 
L 161.915564 25.543056 
L 163.190737 25.885017 
L 164.465909 26.935239 
L 165.741082 26.975818 
L 167.016254 26.696086 
L 168.291426 27.708192 
L 169.566599 25.753149 
L 170.841771 26.496069 
L 172.116944 26.080964 
L 173.392116 26.35669 
L 174.667289 25.944016 
L 175.942461 27.304922 
L 177.217634 27.309901 
L 178.492806 28.056557 
L 179.767978 26.486956 
L 181.043151 26.612894 
L 182.318323 27.773842 
L 183.593496 25.790117 
L 184.868668 26.767718 
L 186.143841 27.21 
L 187.419013 30.067087 
L 188.694186 28.006432 
L 191.24453 27.628306 
L 192.519703 27.08631 
L 193.794875 28.870029 
L 195.070048 28.399577 
L 196.34522 29.035427 
L 197.620393 29.146416 
L 198.895565 27.194486 
L 200.170737 27.787373 
L 201.44591 28.257206 
L 202.721082 27.126059 
L 203.996255 28.310762 
L 205.271427 27.494663 
L 206.5466 29.345548 
L 207.821772 27.887174 
L 209.096945 28.074196 
L 210.372117 32.057625 
L 211.647289 27.444539 
L 212.922462 28.082683 
L 214.197634 28.420167 
L 215.472807 29.875682 
L 216.747979 28.204012 
L 218.023152 28.6982 
L 219.298324 28.834469 
L 220.573496 32.209823 
L 221.848669 28.126069 
L 223.123841 31.946176 
L 224.399014 28.359288 
L 225.674186 29.397307 
L 226.949359 29.024081 
L 228.224531 27.482561 
L 229.499704 29.497723 
L 230.774876 28.608903 
L 232.050048 30.090899 
L 233.325221 29.49572 
L 234.600393 30.898504 
L 235.875566 29.513156 
L 237.150738 29.554645 
L 238.425911 29.073777 
L 239.701083 29.086051 
L 240.976255 28.625475 
L 242.251428 32.520978 
L 243.5266 30.438884 
L 244.801773 28.877049 
L 246.076945 31.6237 
L 247.352118 32.865152 
L 248.62729 31.300333 
L 249.902463 31.132876 
L 251.177635 30.773215 
L 252.452807 29.598891 
L 253.72798 28.596057 
L 255.003152 31.507375 
L 256.278325 29.698432 
L 257.553497 29.424256 
L 258.82867 30.558679 
L 260.103842 30.227154 
L 261.379014 28.910448 
L 262.654187 30.117714 
L 263.929359 31.536444 
L 265.204532 29.977774 
L 266.479704 31.785767 
L 267.754877 30.374464 
L 269.030049 31.666905 
L 270.305222 31.268601 
L 271.580394 30.435949 
L 272.855566 28.819462 
L 275.405911 30.932931 
L 276.681084 31.501199 
L 277.956256 30.542003 
L 279.231429 29.428179 
L 280.506601 29.785497 
L 281.781773 30.356071 
L 283.056946 32.552029 
L 284.332118 30.449746 
L 285.607291 29.65882 
L 286.882463 33.81666 
L 288.157636 30.276973 
L 289.432808 32.252205 
L 290.707981 31.356131 
L 291.983153 31.818271 
L 293.258325 32.612388 
L 294.533498 30.289532 
L 295.80867 30.143692 
L 297.083843 30.56279 
L 299.634188 31.028289 
L 300.90936 29.245323 
L 302.184532 30.702846 
L 303.459705 31.098853 
L 304.734877 28.370695 
L 306.01005 31.451977 
L 307.285222 28.953483 
L 308.560395 29.694036 
L 309.835567 28.339377 
L 311.11074 30.441826 
L 312.385912 32.16167 
L 313.661084 29.800801 
L 314.936257 30.458305 
L 316.211429 30.663671 
L 317.486602 31.267318 
L 318.761774 29.101329 
L 320.036947 30.48348 
L 321.312119 27.343109 
L 322.587291 30.363722 
L 323.862464 30.788735 
L 325.137636 28.53801 
L 326.412809 31.702187 
L 327.687981 30.920357 
L 328.963154 30.596557 
L 330.238326 28.801392 
L 331.513499 30.657013 
L 332.788671 32.911717 
L 334.063843 29.655042 
L 335.339016 30.171831 
L 337.889361 29.214293 
L 339.164533 27.854323 
L 340.439706 33.119858 
L 341.714878 31.072508 
L 342.99005 28.797104 
L 344.265223 31.942813 
L 345.540395 30.774874 
L 346.815568 32.240795 
L 348.09074 31.31824 
L 349.365913 31.158573 
L 350.641085 29.423115 
L 351.916258 31.977212 
L 353.19143 31.858418 
L 354.466602 29.492725 
L 357.016947 30.812857 
L 358.29212 28.361106 
L 359.567292 30.788955 
L 360.842465 29.706233 
L 362.117637 30.233193 
L 363.392809 30.47626 
L 364.667982 31.588332 
L 365.943154 28.020337 
L 367.218327 31.331742 
L 368.493499 30.916206 
L 369.768672 28.719019 
L 371.043844 30.402493 
L 372.319017 33.121867 
L 373.594189 30.269714 
L 374.869361 31.826488 
L 376.144534 29.347049 
L 377.419706 29.564267 
L 378.694879 30.258712 
L 379.970051 29.16871 
L 381.245224 29.212218 
L 382.520396 28.121972 
L 383.795568 32.611647 
L 385.070741 31.026914 
L 386.345913 28.77892 
L 387.621086 30.779883 
L 388.896258 30.260914 
L 390.171431 30.560137 
L 391.446603 29.758832 
L 392.721776 29.945666 
L 393.996948 32.653837 
L 395.27212 28.57043 
L 396.547293 30.921257 
L 397.822465 31.09925 
L 400.37281 30.801964 
L 401.647983 33.832625 
L 401.647983 33.832625 
" clip-path="url(#p0528f17080)" style="fill: none; stroke: #5591e1; stroke-width: 1.5; stroke-linecap: square"/>
   </g>
   <g id="line2d_27">
    <path d="M 84.130046 358.856916 
L 85.405218 39.738333 
L 86.68039 45.423063 
L 87.955563 37.028837 
L 89.230735 32.014879 
L 90.505908 31.394129 
L 91.78108 32.180634 
L 93.056253 30.684226 
L 94.331425 32.917085 
L 95.606598 34.308311 
L 96.88177 31.605987 
L 98.156942 34.813808 
L 99.432115 36.511513 
L 100.707287 33.778109 
L 101.98246 32.329008 
L 103.257632 32.984269 
L 104.532805 29.974093 
L 105.807977 30.976295 
L 107.083149 31.464456 
L 108.358322 29.048215 
L 109.633494 30.320211 
L 110.908667 29.948534 
L 112.183839 28.347217 
L 113.459012 28.79757 
L 114.734184 27.249168 
L 116.009357 28.815958 
L 117.284529 28.157336 
L 118.559701 27.63244 
L 119.834874 29.133056 
L 121.110046 27.705579 
L 122.385219 28.562458 
L 123.660391 26.134071 
L 124.935564 26.76779 
L 126.210736 28.509853 
L 127.485908 27.780643 
L 128.761081 27.791918 
L 130.036253 27.533278 
L 131.311426 27.059145 
L 132.586598 26.799475 
L 135.136943 27.595211 
L 137.687288 27.883089 
L 138.96246 27.606597 
L 140.237633 27.530985 
L 142.787978 26.903535 
L 144.06315 27.011278 
L 145.338323 26.735621 
L 147.888667 26.967495 
L 149.16384 27.275695 
L 150.439012 26.800316 
L 151.714185 26.981444 
L 152.989357 26.9222 
L 154.26453 27.146471 
L 155.539702 27.594483 
L 156.814875 27.757557 
L 158.090047 27.723007 
L 161.915564 27.917052 
L 163.190737 27.882224 
L 164.465909 28.183725 
L 168.291426 27.212245 
L 169.566599 27.209007 
L 170.841771 26.992043 
L 172.116944 26.420462 
L 173.392116 26.973617 
L 177.217634 27.097795 
L 178.492806 27.039629 
L 179.767978 27.405824 
L 181.043151 27.294943 
L 183.593496 27.4249 
L 184.868668 27.279094 
L 186.143841 26.721322 
L 187.419013 27.455309 
L 188.694186 27.015188 
L 189.969358 27.449542 
L 191.24453 27.154517 
L 192.519703 27.414678 
L 193.794875 26.900686 
L 195.070048 27.226015 
L 196.34522 26.454784 
L 197.620393 26.875746 
L 198.895565 26.424273 
L 200.170737 26.827207 
L 202.721082 26.373754 
L 203.996255 26.143911 
L 205.271427 26.434076 
L 206.5466 26.419659 
L 207.821772 26.238712 
L 211.647289 26.44559 
L 212.922462 26.742675 
L 215.472807 26.183293 
L 216.747979 26.360159 
L 220.573496 25.79789 
L 221.848669 26.147428 
L 223.123841 25.774026 
L 224.399014 25.604748 
L 225.674186 26.063262 
L 228.224531 25.510994 
L 230.774876 25.727394 
L 232.050048 25.674715 
L 233.325221 25.925945 
L 234.600393 25.761346 
L 237.150738 25.785256 
L 243.5266 26.035318 
L 244.801773 26.355021 
L 246.076945 26.472839 
L 247.352118 26.209017 
L 248.62729 26.255419 
L 249.902463 26.440607 
L 251.177635 26.201137 
L 252.452807 26.310669 
L 253.72798 25.941337 
L 255.003152 25.833956 
L 256.278325 26.234386 
L 257.553497 26.124312 
L 260.103842 26.159852 
L 261.379014 25.471304 
L 263.929359 25.90818 
L 265.204532 25.983042 
L 266.479704 26.496145 
L 267.754877 26.31496 
L 269.030049 26.324073 
L 270.305222 25.945304 
L 271.580394 26.12051 
L 272.855566 25.736063 
L 274.130739 25.667103 
L 275.405911 25.993745 
L 276.681084 25.748629 
L 277.956256 25.855445 
L 279.231429 26.231038 
L 280.506601 25.754616 
L 284.332118 25.931703 
L 285.607291 25.657167 
L 286.882463 25.845046 
L 288.157636 25.776915 
L 291.983153 26.208744 
L 293.258325 25.789618 
L 294.533498 26.317065 
L 295.80867 25.677253 
L 298.359015 25.814975 
L 299.634188 25.496815 
L 300.90936 25.321668 
L 302.184532 25.377804 
L 303.459705 25.722186 
L 304.734877 25.449278 
L 306.01005 25.51255 
L 307.285222 25.10359 
L 308.560395 25.295812 
L 309.835567 25.091358 
L 311.11074 25.074392 
L 312.385912 25.36582 
L 313.661084 25.197074 
L 314.936257 25.454428 
L 316.211429 25.378324 
L 317.486602 25.091946 
L 320.036947 25.059076 
L 321.312119 25.33909 
L 322.587291 25.288721 
L 323.862464 25.389689 
L 325.137636 25.166514 
L 326.412809 25.416541 
L 328.963154 25.161406 
L 330.238326 25.060164 
L 331.513499 25.245881 
L 334.063843 24.930347 
L 335.339016 25.033985 
L 336.614188 24.929233 
L 337.889361 25.360606 
L 339.164533 25.063524 
L 340.439706 24.997087 
L 341.714878 25.171005 
L 342.99005 24.984254 
L 344.265223 25.393458 
L 345.540395 25.202867 
L 349.365913 25.28304 
L 351.916258 25.132285 
L 353.19143 25.375075 
L 354.466602 25.272825 
L 357.016947 25.297644 
L 358.29212 25.291776 
L 359.567292 25.16117 
L 360.842465 25.37971 
L 362.117637 25.31441 
L 363.392809 25.460928 
L 364.667982 25.330954 
L 365.943154 25.34098 
L 368.493499 25.139289 
L 369.768672 25.218507 
L 371.043844 25.026658 
L 373.594189 25.179986 
L 374.869361 24.950122 
L 376.144534 25.109276 
L 378.694879 25.066204 
L 381.245224 25.347983 
L 382.520396 25.159225 
L 387.621086 25.31871 
L 388.896258 25.200057 
L 390.171431 25.386417 
L 391.446603 25.242179 
L 392.721776 25.620296 
L 393.996948 25.447412 
L 395.27212 25.61017 
L 397.822465 25.627363 
L 400.37281 25.780892 
L 401.647983 25.544999 
L 401.647983 25.544999 
" clip-path="url(#p0528f17080)" style="fill: none; stroke: #6ca247; stroke-width: 1.5; stroke-linecap: square"/>
   </g>
   <g id="patch_3">
    <path d="M 68.254149 376.318305 
L 68.254149 7.2 
" style="fill: none; stroke: #000000; stroke-width: 0.8; stroke-linejoin: miter; stroke-linecap: square"/>
   </g>
   <g id="patch_4">
    <path d="M 417.523879 376.318305 
L 417.523879 7.2 
" style="fill: none; stroke: #000000; stroke-width: 0.8; stroke-linejoin: miter; stroke-linecap: square"/>
   </g>
   <g id="patch_5">
    <path d="M 68.254149 376.318305 
L 417.523879 376.318305 
" style="fill: none; stroke: #000000; stroke-width: 0.8; stroke-linejoin: miter; stroke-linecap: square"/>
   </g>
   <g id="patch_6">
    <path d="M 68.254149 7.2 
L 417.523879 7.2 
" style="fill: none; stroke: #000000; stroke-width: 0.8; stroke-linejoin: miter; stroke-linecap: square"/>
   </g>
   <g id="legend_1">
    <g id="patch_7">
     <path d="M 308.417969 368.318305 
L 406.323879 368.318305 
Q 409.523879 368.318305 409.523879 365.118305 
L 409.523879 299.819877 
Q 409.523879 296.619877 406.323879 296.619877 
L 308.417969 296.619877 
Q 305.217969 296.619877 305.217969 299.819877 
L 305.217969 365.118305 
Q 305.217969 368.318305 308.417969 368.318305 
z
" style="fill: #ffffff; opacity: 0.8; stroke: #cccccc; stroke-linejoin: miter"/>
    </g>
    <g id="line2d_28">
     <path d="M 311.617969 308.619877 
L 327.617969 308.619877 
L 343.617969 308.619877 
" style="fill: none; stroke: #d66b6a; stroke-width: 1.5; stroke-linecap: square"/>
    </g>
    <g id="text_15">
     <!-- SAC -->
     <g transform="translate(356.417969 314.219877) scale(0.16 -0.16)">
      <defs>
       <path id="CMR17-41" d="M 2323 4441 
C 2291 4524 2278 4544 2214 4544 
C 2150 4544 2138 4524 2106 4441 
L 749 580 
C 627 236 371 166 147 166 
L 147 0 
C 262 12 518 12 640 12 
C 800 12 1056 12 1210 0 
L 1210 166 
C 909 179 864 382 864 459 
C 864 516 877 548 890 586 
L 1229 1536 
L 2906 1536 
L 3290 453 
C 3322 376 3322 363 3322 338 
C 3322 166 3046 166 2925 166 
L 2925 0 
C 3110 12 3443 12 3642 12 
C 3808 12 4128 12 4282 0 
L 4282 166 
C 3942 166 3827 166 3744 402 
L 2323 4441 
z
M 2067 3924 
L 2848 1702 
L 1286 1702 
L 2067 3924 
z
" transform="scale(0.015625)"/>
       <path id="CMR17-43" d="M 3974 4351 
C 3974 4467 3968 4473 3930 4473 
C 3904 4473 3898 4467 3853 4390 
L 3571 3849 
C 3258 4249 2874 4480 2381 4480 
C 1286 4480 294 3507 294 2179 
C 294 837 1286 -128 2387 -128 
C 3366 -128 3974 741 3974 1482 
C 3974 1547 3974 1573 3917 1573 
C 3866 1573 3866 1553 3859 1495 
C 3808 592 3168 38 2477 38 
C 1824 38 781 502 781 2179 
C 781 3862 1843 4313 2464 4313 
C 3187 4313 3712 3681 3834 2785 
C 3846 2707 3846 2695 3904 2695 
C 3974 2695 3974 2707 3974 2824 
L 3974 4351 
z
" transform="scale(0.015625)"/>
      </defs>
      <use xlink:href="#CMR17-53" transform="scale(0.996264)"/>
      <use xlink:href="#CMR17-41" transform="translate(50.89537 0) scale(0.996264)"/>
      <use xlink:href="#CMR17-43" transform="translate(117.365346 0) scale(0.996264)"/>
     </g>
    </g>
    <g id="line2d_29">
     <path d="M 311.617969 330.919353 
L 327.617969 330.919353 
L 343.617969 330.919353 
" style="fill: none; stroke: #5591e1; stroke-width: 1.5; stroke-linecap: square"/>
    </g>
    <g id="text_16">
     <!-- AFU -->
     <g transform="translate(356.417969 336.519353) scale(0.16 -0.16)">
      <defs>
       <path id="CMR17-46" d="M 3482 4339 
L 326 4339 
L 326 4172 
C 768 4172 838 4172 838 3883 
L 838 450 
C 838 166 768 166 326 166 
L 326 0 
C 512 12 870 12 1069 12 
C 1331 12 1638 12 1901 0 
L 1901 166 
L 1760 166 
C 1274 166 1261 229 1261 456 
L 1261 2073 
L 1837 2073 
C 2432 2073 2490 1865 2490 1334 
L 2605 1334 
L 2605 2991 
L 2490 2991 
C 2490 2451 2432 2240 1837 2240 
L 1261 2240 
L 1261 3922 
C 1261 4140 1274 4172 1530 4172 
L 2355 4172 
C 3322 4172 3430 3774 3520 2920 
L 3635 2920 
L 3482 4339 
z
" transform="scale(0.015625)"/>
       <path id="CMR17-55" d="M 3456 1442 
C 3456 583 2899 38 2291 38 
C 1965 38 1670 211 1491 480 
C 1286 788 1261 1185 1261 1410 
L 1261 3897 
C 1261 4185 1331 4185 1773 4185 
L 1773 4352 
C 1587 4339 1248 4339 1050 4339 
C 851 4339 512 4339 326 4352 
L 326 4185 
C 768 4185 838 4185 838 3897 
L 838 1442 
C 838 519 1536 -128 2278 -128 
C 3110 -128 3590 724 3590 1352 
L 3590 3788 
C 3590 4147 3917 4185 4102 4185 
L 4102 4352 
C 3955 4339 3686 4339 3526 4339 
C 3366 4339 3091 4339 2944 4352 
L 2944 4185 
C 3456 4185 3456 3884 3456 3724 
L 3456 1442 
z
" transform="scale(0.015625)"/>
      </defs>
      <use xlink:href="#CMR17-41" transform="scale(0.996264)"/>
      <use xlink:href="#CMR17-46" transform="translate(69.07243 0) scale(0.996264)"/>
      <use xlink:href="#CMR17-55" transform="translate(129.056276 0) scale(0.996264)"/>
     </g>
    </g>
    <g id="line2d_30">
     <path d="M 311.617969 353.218829 
L 327.617969 353.218829 
L 343.617969 353.218829 
" style="fill: none; stroke: #6ca247; stroke-width: 1.5; stroke-linecap: square"/>
    </g>
    <g id="text_17">
     <!-- DDPG -->
     <g transform="translate(356.417969 358.818829) scale(0.16 -0.16)">
      <defs>
       <path id="CMR17-44" d="M 333 4352 
L 333 4185 
C 774 4185 845 4185 845 3898 
L 845 453 
C 845 166 774 166 333 166 
L 333 0 
L 2368 0 
C 3398 0 4224 943 4224 2140 
C 4224 3344 3411 4352 2368 4352 
L 333 4352 
z
M 1523 166 
C 1267 166 1254 198 1254 414 
L 1254 3936 
C 1254 4153 1267 4185 1523 4185 
L 2240 4185 
C 2771 4185 3750 3873 3750 2140 
C 3750 1242 3488 879 3366 707 
C 3213 510 2848 166 2240 166 
L 1523 166 
z
" transform="scale(0.015625)"/>
       <path id="CMR17-50" d="M 1267 2048 
L 2291 2048 
C 3117 2048 3718 2583 3718 3187 
C 3718 3791 3130 4352 2291 4352 
L 333 4352 
L 333 4185 
C 774 4185 845 4185 845 3899 
L 845 453 
C 845 166 774 166 333 166 
L 333 0 
C 518 12 858 12 1056 12 
C 1254 12 1594 12 1779 0 
L 1779 166 
C 1338 166 1267 166 1267 453 
L 1267 2048 
z
M 1254 2182 
L 1254 3937 
C 1254 4153 1267 4185 1523 4185 
L 2170 4185 
C 2995 4185 3232 3715 3232 3187 
C 3232 2608 2950 2182 2170 2182 
L 1254 2182 
z
" transform="scale(0.015625)"/>
       <path id="CMR17-47" d="M 3974 1258 
C 3974 1503 3994 1536 4390 1536 
L 4390 1702 
C 4237 1689 3891 1689 3718 1689 
C 3539 1689 3040 1696 2797 1702 
L 2797 1536 
L 2989 1536 
C 3539 1536 3552 1464 3552 1232 
L 3552 806 
C 3552 96 2720 38 2522 38 
C 1862 38 781 496 781 2179 
C 781 3862 1843 4313 2464 4313 
C 3187 4313 3712 3681 3834 2785 
C 3846 2708 3846 2695 3904 2695 
C 3974 2695 3974 2708 3974 2824 
L 3974 4351 
C 3974 4467 3968 4473 3930 4473 
C 3904 4473 3898 4467 3853 4390 
L 3571 3849 
C 3258 4249 2874 4480 2381 4480 
C 1286 4480 294 3507 294 2179 
C 294 858 1267 -128 2394 -128 
C 2912 -128 3418 57 3616 425 
C 3725 161 3904 -20 3936 -20 
C 3968 -20 3974 -13 3974 102 
L 3974 1258 
z
" transform="scale(0.015625)"/>
      </defs>
      <use xlink:href="#CMR17-44" transform="scale(0.996264)"/>
      <use xlink:href="#CMR17-44" transform="translate(70.393556 0) scale(0.996264)"/>
      <use xlink:href="#CMR17-50" transform="translate(140.787112 0) scale(0.996264)"/>
      <use xlink:href="#CMR17-47" transform="translate(203.373412 0) scale(0.996264)"/>
     </g>
    </g>
   </g>
  </g>
 </g>
 <defs>
  <clipPath id="p0528f17080">
   <rect x="68.254149" y="7.2" width="349.269731" height="369.118305"/>
  </clipPath>
 </defs>
</svg>
