<?xml version="1.0" encoding="utf-8" standalone="no"?>
<!DOCTYPE svg PUBLIC "-//W3C//DTD SVG 1.1//EN"
  "http://www.w3.org/Graphics/SVG/1.1/DTD/svg11.dtd">
<svg xmlns:xlink="http://www.w3.org/1999/xlink" width="425.935086pt" height="426.4pt" viewBox="0 0 425.935086 426.4" xmlns="http://www.w3.org/2000/svg" version="1.1">
 <metadata>
  <rdf:RDF xmlns:dc="http://purl.org/dc/elements/1.1/" xmlns:cc="http://creativecommons.org/ns#" xmlns:rdf="http://www.w3.org/1999/02/22-rdf-syntax-ns#">
   <cc:Work>
    <dc:type rdf:resource="http://purl.org/dc/dcmitype/StillImage"/>
    <dc:date>1980-01-01T00:00:00+00:00</dc:date>
    <dc:format>image/svg+xml</dc:format>
    <dc:creator>
     <cc:Agent>
      <dc:title>Matplotlib v3.8.0, https://matplotlib.org/</dc:title>
     </cc:Agent>
    </dc:creator>
   </cc:Work>
  </rdf:RDF>
 </metadata>
 <defs>
  <style type="text/css">*{stroke-linejoin: round; stroke-linecap: butt}</style>
 </defs>
 <g id="figure_1">
  <g id="patch_1">
   <path d="M 0 426.4 
L 425.935086 426.4 
L 425.935086 0 
L 0 0 
z
" style="fill: #ffffff"/>
  </g>
  <g id="axes_1">
   <g id="patch_2">
    <path d="M 71.722587 376.318305 
L 417.523879 376.318305 
L 417.523879 7.2 
L 71.722587 7.2 
z
" style="fill: #ffffff"/>
   </g>
   <g id="PolyCollection_1">
    <path d="M 87.440828 1107.171042 
L 87.440828 1236.602102 
L 88.703337 1525.767958 
L 89.965847 870.871119 
L 91.228356 251.120111 
L 92.490865 245.192541 
L 93.753374 220.85867 
L 95.015884 238.787618 
L 96.278393 238.977591 
L 97.540902 243.81922 
L 98.803411 238.078475 
L 100.065921 156.519635 
L 101.32843 235.324351 
L 102.590939 238.961397 
L 103.853449 155.335216 
L 105.115958 239.710229 
L 106.378467 239.337816 
L 107.640976 236.383144 
L 108.903486 239.578906 
L 110.165995 216.723008 
L 111.428504 236.618177 
L 112.691014 243.104233 
L 113.953523 239.784293 
L 115.216032 236.663378 
L 116.478541 239.371267 
L 117.741051 236.221402 
L 119.00356 215.955355 
L 120.266069 156.878543 
L 121.528579 155.980346 
L 122.791088 241.268617 
L 124.053597 236.139019 
L 125.316106 237.900176 
L 126.578616 215.493415 
L 127.841125 233.500422 
L 129.103634 236.988294 
L 130.366144 155.10159 
L 131.628653 239.298049 
L 132.891162 235.653235 
L 134.153671 234.973218 
L 135.416181 237.395627 
L 136.67869 237.172578 
L 137.941199 236.594297 
L 139.203708 235.103148 
L 140.466218 235.65357 
L 141.728727 235.447955 
L 142.991236 156.750949 
L 144.253746 240.038371 
L 145.516255 157.625114 
L 146.778764 155.506294 
L 148.041273 155.587103 
L 149.303783 156.371301 
L 150.566292 239.169144 
L 151.828801 156.336535 
L 153.091311 157.829486 
L 154.35382 156.790253 
L 155.616329 234.570858 
L 156.878838 237.970312 
L 158.141348 234.664353 
L 159.403857 234.045912 
L 160.666366 236.500106 
L 161.928876 237.344501 
L 163.191385 215.966267 
L 164.453894 232.333019 
L 165.716403 215.108441 
L 166.978913 239.819323 
L 168.241422 157.685821 
L 169.503931 238.440474 
L 170.766441 157.304664 
L 172.02895 155.804883 
L 173.291459 235.367253 
L 174.553968 214.464552 
L 175.816478 239.59784 
L 177.078987 240.149753 
L 178.341496 236.137616 
L 179.604005 236.739896 
L 180.866515 157.080157 
L 182.129024 237.036285 
L 183.391533 235.019294 
L 184.654043 236.215585 
L 185.916552 156.973991 
L 187.179061 238.237377 
L 188.44157 238.755153 
L 189.70408 215.158696 
L 190.966589 238.612376 
L 192.229098 158.518197 
L 193.491608 236.623583 
L 194.754117 240.437196 
L 196.016626 244.842222 
L 197.279135 248.006908 
L 198.541645 238.754467 
L 199.804154 215.820235 
L 201.066663 238.505794 
L 202.329173 217.069064 
L 203.591682 240.371727 
L 204.854191 240.170444 
L 206.1167 242.38289 
L 207.37921 238.380303 
L 208.641719 160.314745 
L 209.904228 236.957696 
L 211.166737 235.930077 
L 212.429247 155.962262 
L 213.691756 160.448037 
L 214.954265 237.532545 
L 216.216775 158.609921 
L 217.479284 158.900972 
L 218.741793 237.028412 
L 220.004302 237.034662 
L 221.266812 239.854128 
L 222.529321 239.203729 
L 223.79183 237.777422 
L 225.05434 237.130155 
L 226.316849 234.731545 
L 227.579358 216.769913 
L 228.841867 158.223508 
L 230.104377 159.842933 
L 231.366886 236.066978 
L 232.629395 240.239253 
L 233.891905 235.89589 
L 235.154414 241.021806 
L 236.416923 157.53924 
L 237.679432 160.773361 
L 238.941942 237.227204 
L 240.204451 241.150812 
L 241.46696 243.008202 
L 242.72947 158.649541 
L 243.991979 239.973021 
L 245.254488 237.958758 
L 246.516997 243.338396 
L 247.779507 235.742296 
L 249.042016 237.762083 
L 250.304525 238.057068 
L 251.567034 240.10065 
L 252.829544 242.203624 
L 254.092053 238.190256 
L 255.354562 219.335074 
L 256.617072 237.92602 
L 257.879581 219.04275 
L 259.14209 237.757821 
L 260.404599 217.4444 
L 261.667109 243.083133 
L 262.929618 238.447862 
L 264.192127 234.547699 
L 265.454637 159.857608 
L 266.717146 160.117039 
L 267.979655 236.634959 
L 269.242164 161.149372 
L 270.504674 217.52528 
L 271.767183 238.513008 
L 273.029692 242.615251 
L 274.292202 238.92599 
L 275.554711 241.125559 
L 276.81722 239.107348 
L 278.079729 235.852846 
L 279.342239 238.353968 
L 280.604748 237.171987 
L 281.867257 241.512445 
L 283.129767 239.461892 
L 284.392276 241.130846 
L 285.654785 238.035774 
L 286.917294 238.195348 
L 288.179804 235.744633 
L 289.442313 240.494448 
L 290.704822 160.186973 
L 291.967331 243.321821 
L 293.229841 239.596406 
L 294.49235 237.152965 
L 295.754859 160.62617 
L 297.017369 240.071848 
L 298.279878 162.660983 
L 299.542387 239.30592 
L 300.804896 159.804569 
L 302.067406 242.062378 
L 303.329915 161.772511 
L 304.592424 238.407498 
L 305.854934 238.590627 
L 307.117443 235.305462 
L 308.379952 236.318792 
L 309.642461 240.089583 
L 310.904971 240.849449 
L 312.16748 240.186874 
L 313.429989 240.167228 
L 314.692499 237.850171 
L 315.955008 238.366332 
L 317.217517 217.850725 
L 318.480026 241.550404 
L 319.742536 238.964398 
L 321.005045 236.745949 
L 322.267554 241.874617 
L 323.530064 240.211016 
L 324.792573 217.795533 
L 326.055082 244.424951 
L 327.317591 253.490789 
L 328.580101 243.293983 
L 329.84261 161.361376 
L 331.105119 247.418931 
L 332.367628 238.725939 
L 333.630138 237.331137 
L 334.892647 240.900756 
L 336.155156 165.1416 
L 337.417666 239.598916 
L 338.680175 161.146757 
L 339.942684 245.135685 
L 341.205193 162.806567 
L 342.467703 162.623465 
L 343.730212 243.186132 
L 344.992721 244.206088 
L 346.255231 243.201956 
L 347.51774 160.790514 
L 348.780249 238.462445 
L 350.042758 163.166751 
L 351.305268 161.618931 
L 352.567777 239.616119 
L 353.830286 238.03557 
L 355.092796 242.976 
L 356.355305 239.474196 
L 357.617814 248.640663 
L 358.880323 239.225889 
L 360.142833 217.593015 
L 361.405342 240.699681 
L 362.667851 220.87023 
L 363.93036 246.065963 
L 365.19287 241.768773 
L 366.455379 236.217491 
L 367.717888 165.231047 
L 368.980398 215.971845 
L 370.242907 246.6136 
L 371.505416 244.061117 
L 372.767925 239.780114 
L 374.030435 241.074669 
L 375.292944 218.998809 
L 376.555453 162.042746 
L 377.817963 238.965048 
L 379.080472 239.350009 
L 380.342981 240.945572 
L 381.60549 241.671461 
L 382.868 238.447336 
L 384.130509 238.741076 
L 385.393018 238.437039 
L 386.655528 162.822323 
L 387.918037 239.981414 
L 389.180546 160.969536 
L 390.443055 238.300811 
L 391.705565 240.89252 
L 392.968074 241.604568 
L 394.230583 219.691241 
L 395.493093 241.12543 
L 396.755602 245.238897 
L 398.018111 217.124717 
L 399.28062 163.92513 
L 400.54313 241.750279 
L 401.805639 240.540884 
L 401.805639 156.912879 
L 401.805639 156.912879 
L 400.54313 157.443553 
L 399.28062 156.134904 
L 398.018111 155.11338 
L 396.755602 156.081578 
L 395.493093 156.064724 
L 394.230583 155.365436 
L 392.968074 153.311161 
L 391.705565 156.251662 
L 390.443055 155.558291 
L 389.180546 154.191799 
L 387.918037 155.971932 
L 386.655528 156.108827 
L 385.393018 155.079486 
L 384.130509 155.809681 
L 382.868 154.943794 
L 381.60549 155.417275 
L 380.342981 154.892671 
L 379.080472 155.179335 
L 377.817963 155.581224 
L 376.555453 154.850905 
L 375.292944 154.64955 
L 374.030435 155.341859 
L 372.767925 156.398233 
L 371.505416 157.098566 
L 370.242907 156.397943 
L 368.980398 154.456492 
L 367.717888 155.521424 
L 366.455379 155.882495 
L 365.19287 157.284431 
L 363.93036 157.649772 
L 362.667851 155.903725 
L 361.405342 155.224918 
L 360.142833 154.933359 
L 358.880323 156.374417 
L 357.617814 156.461711 
L 356.355305 154.857264 
L 355.092796 154.454966 
L 353.830286 154.55309 
L 352.567777 154.658908 
L 351.305268 153.601568 
L 350.042758 154.888893 
L 348.780249 155.40372 
L 347.51774 153.260054 
L 346.255231 154.38836 
L 344.992721 154.863474 
L 343.730212 156.720122 
L 342.467703 153.777058 
L 341.205193 155.448669 
L 339.942684 155.180352 
L 338.680175 152.43002 
L 337.417666 154.504875 
L 336.155156 154.104885 
L 334.892647 154.618943 
L 333.630138 152.426488 
L 332.367628 154.717507 
L 331.105119 154.941537 
L 329.84261 153.295025 
L 328.580101 155.934364 
L 327.317591 153.813845 
L 326.055082 154.910965 
L 324.792573 155.474222 
L 323.530064 155.052373 
L 322.267554 155.76395 
L 321.005045 155.246871 
L 319.742536 154.797657 
L 318.480026 153.71158 
L 317.217517 155.179584 
L 315.955008 156.110841 
L 314.692499 155.583968 
L 313.429989 153.738571 
L 312.16748 155.704503 
L 310.904971 155.770156 
L 309.642461 154.865117 
L 308.379952 154.457228 
L 307.117443 154.616035 
L 305.854934 156.132134 
L 304.592424 150.598152 
L 303.329915 153.43056 
L 302.067406 153.095553 
L 300.804896 153.633165 
L 299.542387 155.114758 
L 298.279878 154.988609 
L 297.017369 155.835393 
L 295.754859 153.160354 
L 294.49235 153.261303 
L 293.229841 152.885636 
L 291.967331 155.175822 
L 290.704822 153.579906 
L 289.442313 154.621989 
L 288.179804 154.424088 
L 286.917294 154.360365 
L 285.654785 154.31629 
L 284.392276 154.36221 
L 283.129767 154.704605 
L 281.867257 155.511376 
L 280.604748 154.720463 
L 279.342239 155.545871 
L 278.079729 154.343493 
L 276.81722 153.791142 
L 275.554711 154.451586 
L 274.292202 151.567263 
L 273.029692 154.007163 
L 271.767183 154.070849 
L 270.504674 153.464813 
L 269.242164 151.770707 
L 267.979655 154.274374 
L 266.717146 152.524307 
L 265.454637 153.3466 
L 264.192127 152.0329 
L 262.929618 153.937236 
L 261.667109 153.955105 
L 260.404599 153.436858 
L 259.14209 152.628176 
L 257.879581 153.877679 
L 256.617072 154.409603 
L 255.354562 152.765223 
L 254.092053 154.533219 
L 252.829544 153.528582 
L 251.567034 154.470154 
L 250.304525 154.776245 
L 249.042016 153.498884 
L 247.779507 153.879096 
L 246.516997 155.394364 
L 245.254488 153.713716 
L 243.991979 153.278299 
L 242.72947 152.32973 
L 241.46696 152.452762 
L 240.204451 153.054608 
L 238.941942 153.596027 
L 237.679432 152.62683 
L 236.416923 84.631381 
L 235.154414 151.27985 
L 233.891905 152.732682 
L 232.629395 153.770631 
L 231.366886 152.19483 
L 230.104377 152.189203 
L 228.841867 151.22305 
L 227.579358 152.983723 
L 226.316849 150.620643 
L 225.05434 152.530432 
L 223.79183 152.831236 
L 222.529321 153.502354 
L 221.266812 151.551904 
L 220.004302 153.78631 
L 218.741793 149.598103 
L 217.479284 150.280712 
L 216.216775 152.322607 
L 214.954265 151.552187 
L 213.691756 152.104244 
L 212.429247 151.08104 
L 211.166737 152.154304 
L 209.904228 153.51313 
L 208.641719 152.696892 
L 207.37921 153.243891 
L 206.1167 152.000378 
L 204.854191 151.530148 
L 203.591682 152.461733 
L 202.329173 151.674182 
L 201.066663 150.460814 
L 199.804154 153.244346 
L 198.541645 152.038113 
L 197.279135 154.687498 
L 196.016626 152.363411 
L 194.754117 152.557757 
L 193.491608 151.436137 
L 192.229098 152.075447 
L 190.966589 152.044702 
L 189.70408 149.61807 
L 188.44157 150.749143 
L 187.179061 151.670275 
L 185.916552 151.502807 
L 184.654043 150.203506 
L 183.391533 151.424343 
L 182.129024 152.250584 
L 180.866515 150.929384 
L 179.604005 151.275646 
L 178.341496 151.094365 
L 177.078987 152.417998 
L 175.816478 151.051343 
L 174.553968 149.94124 
L 173.291459 150.517456 
L 172.02895 150.406801 
L 170.766441 148.982626 
L 169.503931 150.45684 
L 168.241422 149.118351 
L 166.978913 150.671029 
L 165.716403 148.458707 
L 164.453894 150.225739 
L 163.191385 149.764263 
L 161.928876 149.973514 
L 160.666366 150.300359 
L 159.403857 151.503523 
L 158.141348 151.38551 
L 156.878838 150.401393 
L 155.616329 149.912172 
L 154.35382 149.288589 
L 153.091311 150.5006 
L 151.828801 149.824046 
L 150.566292 149.842485 
L 149.303783 149.388255 
L 148.041273 150.031629 
L 146.778764 147.919903 
L 145.516255 148.89241 
L 144.253746 150.78498 
L 142.991236 148.327906 
L 141.728727 149.164859 
L 140.466218 148.302966 
L 139.203708 150.978027 
L 137.941199 148.574026 
L 136.67869 151.821938 
L 135.416181 151.01278 
L 134.153671 149.126023 
L 132.891162 150.908076 
L 131.628653 149.94461 
L 130.366144 148.085142 
L 129.103634 149.696248 
L 127.841125 148.998613 
L 126.578616 150.637548 
L 125.316106 150.25475 
L 124.053597 149.861538 
L 122.791088 149.391727 
L 121.528579 147.757356 
L 120.266069 149.752476 
L 119.00356 150.197923 
L 117.741051 149.88701 
L 116.478541 148.150266 
L 115.216032 149.513289 
L 113.953523 148.46022 
L 112.691014 150.07745 
L 111.428504 150.827768 
L 110.165995 149.041149 
L 108.903486 149.079567 
L 107.640976 150.407875 
L 106.378467 149.658227 
L 105.115958 150.290986 
L 103.853449 147.237322 
L 102.590939 148.27112 
L 101.32843 151.126069 
L 100.065921 149.392531 
L 98.803411 150.812262 
L 97.540902 148.990826 
L 96.278393 146.582442 
L 95.015884 151.088038 
L 93.753374 149.774556 
L 92.490865 154.461674 
L 91.228356 154.077066 
L 89.965847 787.083702 
L 88.703337 1364.714353 
L 87.440828 1107.171042 
z
" clip-path="url(#p68f49d953c)" style="fill: #d66b6a; fill-opacity: 0.2; stroke: #d66b6a; stroke-opacity: 0.2"/>
   </g>
   <g id="PolyCollection_2">
    <path d="M 87.440828 1292.082431 
L 87.440828 1552.66325 
L 88.703337 1518.927985 
L 89.965847 1394.380915 
L 91.228356 910.392944 
L 92.490865 265.942289 
L 93.753374 256.290233 
L 95.015884 251.975773 
L 96.278393 241.476115 
L 97.540902 235.618749 
L 98.803411 242.843279 
L 100.065921 240.375807 
L 101.32843 158.180918 
L 102.590939 243.152348 
L 103.853449 218.106353 
L 105.115958 248.083563 
L 106.378467 240.124708 
L 107.640976 244.799944 
L 108.903486 246.335556 
L 110.165995 241.450876 
L 111.428504 243.599964 
L 112.691014 156.577671 
L 113.953523 215.234127 
L 115.216032 243.477006 
L 116.478541 158.509537 
L 117.741051 240.111527 
L 119.00356 217.219848 
L 120.266069 241.379753 
L 121.528579 239.439637 
L 122.791088 243.543092 
L 124.053597 238.35666 
L 125.316106 239.270812 
L 126.578616 216.813376 
L 127.841125 217.574812 
L 129.103634 240.272556 
L 130.366144 239.457414 
L 131.628653 156.652655 
L 132.891162 240.736454 
L 134.153671 241.335959 
L 135.416181 236.823227 
L 136.67869 238.921482 
L 137.941199 239.359893 
L 139.203708 235.240681 
L 140.466218 217.978655 
L 141.728727 236.857313 
L 142.991236 240.182168 
L 144.253746 155.748098 
L 145.516255 156.048435 
L 146.778764 241.61379 
L 148.041273 239.455752 
L 149.303783 239.673365 
L 150.566292 215.377135 
L 151.828801 216.103886 
L 153.091311 155.435926 
L 154.35382 242.028287 
L 155.616329 236.570509 
L 156.878838 237.993303 
L 158.141348 237.533234 
L 159.403857 241.796974 
L 160.666366 237.834319 
L 161.928876 234.686852 
L 163.191385 234.372355 
L 164.453894 238.295383 
L 165.716403 156.069494 
L 166.978913 242.713949 
L 168.241422 236.9653 
L 169.503931 239.439612 
L 170.766441 236.464744 
L 172.02895 156.524996 
L 173.291459 216.85466 
L 174.553968 246.295462 
L 175.816478 155.033313 
L 177.078987 243.23014 
L 178.341496 234.540013 
L 179.604005 158.309458 
L 180.866515 236.16489 
L 182.129024 234.284811 
L 183.391533 237.132894 
L 184.654043 155.914705 
L 185.916552 244.507527 
L 187.179061 155.699658 
L 188.44157 238.28288 
L 189.70408 241.413397 
L 190.966589 239.755416 
L 192.229098 235.666698 
L 193.491608 237.632672 
L 194.754117 157.592417 
L 196.016626 235.576941 
L 197.279135 238.474421 
L 198.541645 157.280094 
L 199.804154 242.151384 
L 201.066663 238.490425 
L 202.329173 240.964962 
L 203.591682 219.067754 
L 204.854191 236.747496 
L 206.1167 156.303916 
L 207.37921 157.485869 
L 208.641719 237.782146 
L 209.904228 241.51022 
L 211.166737 235.90912 
L 212.429247 157.981144 
L 213.691756 243.968604 
L 214.954265 232.078632 
L 216.216775 239.259117 
L 217.479284 156.438655 
L 218.741793 238.64922 
L 220.004302 156.970979 
L 221.266812 244.564052 
L 222.529321 235.585004 
L 223.79183 235.547631 
L 225.05434 156.46961 
L 226.316849 236.338839 
L 227.579358 236.45799 
L 228.841867 155.065011 
L 230.104377 235.097046 
L 231.366886 239.623077 
L 232.629395 239.54787 
L 233.891905 157.466958 
L 235.154414 236.370517 
L 236.416923 216.217573 
L 237.679432 242.48533 
L 238.941942 240.629716 
L 240.204451 238.657856 
L 241.46696 237.691954 
L 242.72947 240.775257 
L 243.991979 242.662968 
L 245.254488 241.14227 
L 246.516997 237.581026 
L 247.779507 235.002154 
L 249.042016 243.897569 
L 250.304525 155.700941 
L 251.567034 239.698831 
L 252.829544 241.885303 
L 254.092053 155.082586 
L 255.354562 236.900858 
L 256.617072 237.315202 
L 257.879581 239.158726 
L 259.14209 236.825325 
L 260.404599 240.608674 
L 261.667109 237.867405 
L 262.929618 236.009671 
L 264.192127 237.784449 
L 265.454637 241.17656 
L 266.717146 237.608489 
L 267.979655 239.102385 
L 269.242164 240.710388 
L 270.504674 235.435745 
L 271.767183 216.501732 
L 273.029692 238.234473 
L 274.292202 235.170959 
L 275.554711 239.261315 
L 276.81722 237.1116 
L 278.079729 239.272418 
L 279.342239 240.509353 
L 280.604748 239.095214 
L 281.867257 242.995623 
L 283.129767 240.978461 
L 284.392276 236.218653 
L 285.654785 238.200925 
L 286.917294 242.363667 
L 288.179804 238.998793 
L 289.442313 242.414267 
L 290.704822 236.84908 
L 291.967331 238.153884 
L 293.229841 238.756305 
L 294.49235 239.19667 
L 295.754859 238.978389 
L 297.017369 238.629254 
L 298.279878 216.36929 
L 299.542387 239.695856 
L 300.804896 237.514536 
L 302.067406 236.295323 
L 303.329915 239.171304 
L 304.592424 237.590559 
L 305.854934 236.850109 
L 307.117443 237.792945 
L 308.379952 237.364212 
L 309.642461 234.996505 
L 310.904971 238.027852 
L 312.16748 236.275339 
L 313.429989 156.121226 
L 314.692499 237.477695 
L 315.955008 238.720953 
L 317.217517 238.919106 
L 318.480026 241.345229 
L 319.742536 217.221729 
L 321.005045 237.464226 
L 322.267554 238.596997 
L 323.530064 237.138626 
L 324.792573 156.219713 
L 326.055082 235.68955 
L 327.317591 239.046265 
L 328.580101 238.213796 
L 329.84261 240.099864 
L 331.105119 216.4278 
L 332.367628 235.084868 
L 333.630138 215.807129 
L 334.892647 216.174631 
L 336.155156 237.407345 
L 337.417666 236.992768 
L 338.680175 242.396256 
L 339.942684 156.614772 
L 341.205193 242.223589 
L 342.467703 243.518748 
L 343.730212 156.494818 
L 344.992721 216.067468 
L 346.255231 216.404781 
L 347.51774 238.730913 
L 348.780249 215.365453 
L 350.042758 241.342407 
L 351.305268 241.442716 
L 352.567777 237.878051 
L 353.830286 239.296997 
L 355.092796 238.232568 
L 356.355305 241.958959 
L 357.617814 235.778853 
L 358.880323 236.403619 
L 360.142833 237.684856 
L 361.405342 239.379065 
L 362.667851 234.298648 
L 363.93036 236.886187 
L 365.19287 237.359461 
L 366.455379 239.102377 
L 367.717888 241.363705 
L 368.980398 243.305883 
L 370.242907 215.548137 
L 371.505416 238.022426 
L 372.767925 238.61654 
L 374.030435 216.741386 
L 375.292944 236.206005 
L 376.555453 236.538632 
L 377.817963 239.947791 
L 379.080472 156.568616 
L 380.342981 240.597978 
L 381.60549 238.472009 
L 382.868 237.70797 
L 384.130509 214.77265 
L 385.393018 235.250334 
L 386.655528 155.907806 
L 387.918037 156.325677 
L 389.180546 216.034262 
L 390.443055 237.40413 
L 391.705565 239.524186 
L 392.968074 157.876435 
L 394.230583 238.338101 
L 395.493093 215.21218 
L 396.755602 156.098634 
L 398.018111 158.785359 
L 399.28062 244.674871 
L 400.54313 217.943535 
L 401.805639 216.152918 
L 401.805639 147.691803 
L 401.805639 147.691803 
L 400.54313 148.843193 
L 399.28062 150.10907 
L 398.018111 149.140332 
L 396.755602 150.785693 
L 395.493093 149.427422 
L 394.230583 149.404716 
L 392.968074 149.912154 
L 391.705565 148.845292 
L 390.443055 149.246036 
L 389.180546 150.397332 
L 387.918037 149.559725 
L 386.655528 149.434186 
L 385.393018 150.059886 
L 384.130509 149.349806 
L 382.868 150.585672 
L 381.60549 148.896644 
L 380.342981 149.483897 
L 379.080472 148.658162 
L 377.817963 150.39281 
L 376.555453 150.280801 
L 375.292944 150.762478 
L 374.030435 83.830506 
L 372.767925 150.195113 
L 371.505416 150.05163 
L 370.242907 149.180932 
L 368.980398 149.524364 
L 367.717888 150.059747 
L 366.455379 149.963111 
L 365.19287 149.060362 
L 363.93036 149.34699 
L 362.667851 150.045433 
L 361.405342 148.503048 
L 360.142833 149.272302 
L 358.880323 149.192885 
L 357.617814 148.651325 
L 356.355305 149.465413 
L 355.092796 149.234244 
L 353.830286 148.28196 
L 352.567777 148.365401 
L 351.305268 149.494425 
L 350.042758 148.978944 
L 348.780249 150.289516 
L 347.51774 149.250741 
L 346.255231 148.907483 
L 344.992721 149.859682 
L 343.730212 147.742262 
L 342.467703 150.917859 
L 341.205193 149.661027 
L 339.942684 149.582689 
L 338.680175 149.612916 
L 337.417666 150.863805 
L 336.155156 148.389643 
L 334.892647 149.621247 
L 333.630138 148.523787 
L 332.367628 148.538811 
L 331.105119 149.466948 
L 329.84261 150.921019 
L 328.580101 151.231894 
L 327.317591 150.085317 
L 326.055082 150.396304 
L 324.792573 148.580023 
L 323.530064 150.06729 
L 322.267554 151.421487 
L 321.005045 149.628157 
L 319.742536 147.728018 
L 318.480026 149.783544 
L 317.217517 150.099927 
L 315.955008 149.422311 
L 314.692499 150.833563 
L 313.429989 149.567064 
L 312.16748 151.493739 
L 310.904971 149.182386 
L 309.642461 148.658781 
L 308.379952 149.60391 
L 307.117443 149.964182 
L 305.854934 150.058585 
L 304.592424 149.814732 
L 303.329915 150.34018 
L 302.067406 148.740015 
L 300.804896 150.182923 
L 299.542387 150.995833 
L 298.279878 149.708458 
L 297.017369 149.526148 
L 295.754859 148.949172 
L 294.49235 149.144491 
L 293.229841 151.065801 
L 291.967331 151.100168 
L 290.704822 149.159899 
L 289.442313 150.268148 
L 288.179804 150.684348 
L 286.917294 150.444956 
L 285.654785 149.745489 
L 284.392276 149.870109 
L 283.129767 150.921985 
L 281.867257 151.113192 
L 280.604748 150.332343 
L 279.342239 150.365972 
L 278.079729 151.14269 
L 276.81722 149.770968 
L 275.554711 149.370332 
L 274.292202 148.90978 
L 273.029692 150.582457 
L 271.767183 149.473415 
L 270.504674 150.201721 
L 269.242164 150.028093 
L 267.979655 149.038251 
L 266.717146 151.314613 
L 265.454637 151.173263 
L 264.192127 149.24139 
L 262.929618 150.273629 
L 261.667109 148.352595 
L 260.404599 150.272912 
L 259.14209 150.225767 
L 257.879581 150.798276 
L 256.617072 149.272017 
L 255.354562 81.30742 
L 254.092053 148.516254 
L 252.829544 150.323359 
L 251.567034 150.408422 
L 250.304525 149.63957 
L 249.042016 81.386027 
L 247.779507 149.460606 
L 246.516997 150.183971 
L 245.254488 150.2335 
L 243.991979 150.626815 
L 242.72947 148.1748 
L 241.46696 149.042275 
L 240.204451 149.557689 
L 238.941942 148.392453 
L 237.679432 149.309178 
L 236.416923 149.743954 
L 235.154414 149.870263 
L 233.891905 150.583751 
L 232.629395 150.850646 
L 231.366886 150.879662 
L 230.104377 148.039443 
L 228.841867 150.952269 
L 227.579358 149.277746 
L 226.316849 149.258234 
L 225.05434 148.424785 
L 223.79183 149.250695 
L 222.529321 148.135756 
L 221.266812 149.215187 
L 220.004302 148.291116 
L 218.741793 149.967796 
L 217.479284 149.242375 
L 216.216775 150.64468 
L 214.954265 150.048607 
L 213.691756 150.820801 
L 212.429247 148.76459 
L 211.166737 147.832609 
L 209.904228 150.459218 
L 208.641719 149.244919 
L 207.37921 149.306397 
L 206.1167 80.793488 
L 204.854191 149.093838 
L 203.591682 149.524751 
L 202.329173 148.238258 
L 201.066663 150.17657 
L 199.804154 150.613931 
L 198.541645 149.480323 
L 197.279135 150.400414 
L 196.016626 150.141144 
L 194.754117 149.205853 
L 193.491608 149.800837 
L 192.229098 150.769324 
L 190.966589 150.362242 
L 189.70408 151.610705 
L 188.44157 149.73143 
L 187.179061 148.747445 
L 185.916552 150.31559 
L 184.654043 150.6177 
L 183.391533 149.244179 
L 182.129024 149.329974 
L 180.866515 149.740007 
L 179.604005 149.720497 
L 178.341496 149.206877 
L 177.078987 149.453305 
L 175.816478 149.258069 
L 174.553968 149.920253 
L 173.291459 149.592852 
L 172.02895 149.696061 
L 170.766441 149.419951 
L 169.503931 150.715294 
L 168.241422 148.650217 
L 166.978913 151.544143 
L 165.716403 148.446609 
L 164.453894 148.837009 
L 163.191385 148.665671 
L 161.928876 149.456854 
L 160.666366 149.304125 
L 159.403857 149.722352 
L 158.141348 148.980309 
L 156.878838 151.776706 
L 155.616329 149.896721 
L 154.35382 150.930601 
L 153.091311 149.977125 
L 151.828801 148.990867 
L 150.566292 149.620184 
L 149.303783 151.126452 
L 148.041273 151.316019 
L 146.778764 149.795231 
L 145.516255 147.925285 
L 144.253746 148.359018 
L 142.991236 149.166467 
L 141.728727 149.989348 
L 140.466218 149.206352 
L 139.203708 150.6257 
L 137.941199 149.201455 
L 136.67869 148.315921 
L 135.416181 147.453244 
L 134.153671 149.268526 
L 132.891162 149.89318 
L 131.628653 149.883284 
L 130.366144 150.479014 
L 129.103634 150.812815 
L 127.841125 148.909021 
L 126.578616 148.671211 
L 125.316106 149.654155 
L 124.053597 150.727776 
L 122.791088 149.398799 
L 121.528579 151.555819 
L 120.266069 150.815107 
L 119.00356 150.479084 
L 117.741051 151.232666 
L 116.478541 150.260635 
L 115.216032 148.408925 
L 113.953523 149.979377 
L 112.691014 148.55129 
L 111.428504 150.986981 
L 110.165995 149.735736 
L 108.903486 150.695349 
L 107.640976 151.568713 
L 106.378467 151.368619 
L 105.115958 151.386972 
L 103.853449 150.598959 
L 102.590939 152.487541 
L 101.32843 151.22405 
L 100.065921 151.4729 
L 98.803411 150.459395 
L 97.540902 149.947472 
L 96.278393 151.066868 
L 95.015884 155.488116 
L 93.753374 155.220739 
L 92.490865 158.712478 
L 91.228356 763.18196 
L 89.965847 1167.072143 
L 88.703337 1409.111017 
L 87.440828 1292.082431 
z
" clip-path="url(#p68f49d953c)" style="fill: #5591e1; fill-opacity: 0.2; stroke: #5591e1; stroke-opacity: 0.2"/>
   </g>
   <g id="PolyCollection_3">
    <path d="M 87.440828 991.217407 
L 87.440828 1307.260543 
L 88.703337 1457.772887 
L 89.965847 896.385751 
L 91.228356 260.439802 
L 92.490865 244.59656 
L 93.753374 243.383625 
L 95.015884 248.96305 
L 96.278393 248.593506 
L 97.540902 158.235453 
L 98.803411 243.708684 
L 100.065921 242.14149 
L 101.32843 242.355146 
L 102.590939 242.447949 
L 103.853449 243.446947 
L 105.115958 157.754291 
L 106.378467 239.700867 
L 107.640976 213.736725 
L 108.903486 242.246365 
L 110.165995 236.66918 
L 111.428504 234.884413 
L 112.691014 237.990172 
L 113.953523 234.881733 
L 115.216032 236.246298 
L 116.478541 236.526572 
L 117.741051 214.045821 
L 119.00356 237.983528 
L 120.266069 239.877802 
L 121.528579 237.643352 
L 122.791088 236.128154 
L 124.053597 236.497031 
L 125.316106 234.603292 
L 126.578616 156.484408 
L 127.841125 236.099881 
L 129.103634 236.24455 
L 130.366144 237.299215 
L 131.628653 235.935186 
L 132.891162 233.501657 
L 134.153671 238.762617 
L 135.416181 238.435261 
L 136.67869 234.934329 
L 137.941199 237.594848 
L 139.203708 236.976317 
L 140.466218 239.42309 
L 141.728727 234.288839 
L 142.991236 237.4004 
L 144.253746 155.773616 
L 145.516255 215.153535 
L 146.778764 213.587855 
L 148.041273 238.471974 
L 149.303783 213.097176 
L 150.566292 214.894838 
L 151.828801 233.643182 
L 153.091311 237.93944 
L 154.35382 240.097432 
L 155.616329 237.685842 
L 156.878838 233.899391 
L 158.141348 235.656613 
L 159.403857 234.300007 
L 160.666366 237.188667 
L 161.928876 154.924518 
L 163.191385 236.271095 
L 164.453894 156.052726 
L 165.716403 233.253817 
L 166.978913 234.774571 
L 168.241422 215.051663 
L 169.503931 155.482032 
L 170.766441 236.304011 
L 172.02895 239.707001 
L 173.291459 156.159584 
L 174.553968 231.547316 
L 175.816478 236.105574 
L 177.078987 157.447461 
L 178.341496 155.964707 
L 179.604005 235.969855 
L 180.866515 232.630947 
L 182.129024 235.334049 
L 183.391533 237.761898 
L 184.654043 234.325175 
L 185.916552 232.638798 
L 187.179061 237.454134 
L 188.44157 155.699311 
L 189.70408 236.37471 
L 190.966589 236.287188 
L 192.229098 233.687162 
L 193.491608 232.887195 
L 194.754117 234.9847 
L 196.016626 240.947979 
L 197.279135 157.426373 
L 198.541645 235.300965 
L 199.804154 236.498436 
L 201.066663 236.372785 
L 202.329173 234.145471 
L 203.591682 155.463749 
L 204.854191 234.533881 
L 206.1167 213.6889 
L 207.37921 239.351888 
L 208.641719 235.157412 
L 209.904228 212.499817 
L 211.166737 155.978008 
L 212.429247 239.193951 
L 213.691756 238.413292 
L 214.954265 156.075912 
L 216.216775 155.729412 
L 217.479284 237.29039 
L 218.741793 234.656764 
L 220.004302 214.839969 
L 221.266812 235.884569 
L 222.529321 157.239896 
L 223.79183 235.658331 
L 225.05434 237.203556 
L 226.316849 213.929716 
L 227.579358 214.3838 
L 228.841867 238.356184 
L 230.104377 235.461487 
L 231.366886 236.476103 
L 232.629395 212.125285 
L 233.891905 238.78149 
L 235.154414 241.870106 
L 236.416923 156.489776 
L 237.679432 232.346505 
L 238.941942 156.190005 
L 240.204451 233.010359 
L 241.46696 154.955146 
L 242.72947 234.943409 
L 243.991979 234.815428 
L 245.254488 239.346392 
L 246.516997 237.253386 
L 247.779507 235.601288 
L 249.042016 155.911745 
L 250.304525 157.173377 
L 251.567034 238.000525 
L 252.829544 156.683649 
L 254.092053 235.75113 
L 255.354562 241.530003 
L 256.617072 237.399026 
L 257.879581 231.377386 
L 259.14209 243.647899 
L 260.404599 232.68646 
L 261.667109 235.880033 
L 262.929618 234.56042 
L 264.192127 158.458005 
L 265.454637 232.94784 
L 266.717146 233.270759 
L 267.979655 235.114802 
L 269.242164 235.929125 
L 270.504674 245.900127 
L 271.767183 235.474965 
L 273.029692 234.313589 
L 274.292202 235.695668 
L 275.554711 237.790341 
L 276.81722 158.082605 
L 278.079729 161.305781 
L 279.342239 157.489204 
L 280.604748 160.7836 
L 281.867257 232.208368 
L 283.129767 158.43844 
L 284.392276 236.294622 
L 285.654785 240.447026 
L 286.917294 237.714885 
L 288.179804 235.194486 
L 289.442313 241.097902 
L 290.704822 212.248636 
L 291.967331 233.648057 
L 293.229841 156.538176 
L 294.49235 215.502828 
L 295.754859 234.464853 
L 297.017369 242.54815 
L 298.279878 235.708464 
L 299.542387 157.164663 
L 300.804896 231.723174 
L 302.067406 243.327912 
L 303.329915 240.262116 
L 304.592424 237.661043 
L 305.854934 233.632332 
L 307.117443 234.189266 
L 308.379952 237.332894 
L 309.642461 160.545182 
L 310.904971 235.904129 
L 312.16748 235.526659 
L 313.429989 241.204393 
L 314.692499 220.094641 
L 315.955008 237.752631 
L 317.217517 235.80605 
L 318.480026 157.456416 
L 319.742536 235.73871 
L 321.005045 234.30434 
L 322.267554 237.633944 
L 323.530064 235.788825 
L 324.792573 213.570353 
L 326.055082 234.326178 
L 327.317591 234.191727 
L 328.580101 238.255478 
L 329.84261 235.311985 
L 331.105119 160.291432 
L 332.367628 233.180974 
L 333.630138 159.471981 
L 334.892647 235.73961 
L 336.155156 238.483895 
L 337.417666 233.701343 
L 338.680175 158.596533 
L 339.942684 236.462441 
L 341.205193 234.214142 
L 342.467703 160.579759 
L 343.730212 234.394647 
L 344.992721 213.825507 
L 346.255231 233.973663 
L 347.51774 242.437128 
L 348.780249 235.363088 
L 350.042758 236.100781 
L 351.305268 214.064065 
L 352.567777 233.97397 
L 353.830286 238.033184 
L 355.092796 238.142613 
L 356.355305 214.188495 
L 357.617814 241.133296 
L 358.880323 158.964511 
L 360.142833 157.27125 
L 361.405342 235.642457 
L 362.667851 236.635469 
L 363.93036 238.258781 
L 365.19287 155.974531 
L 366.455379 241.565783 
L 367.717888 159.99349 
L 368.980398 162.059418 
L 370.242907 234.041983 
L 371.505416 236.795657 
L 372.767925 234.968727 
L 374.030435 160.543499 
L 375.292944 236.565526 
L 376.555453 233.202851 
L 377.817963 159.309875 
L 379.080472 161.870555 
L 380.342981 240.449506 
L 381.60549 233.905898 
L 382.868 159.012537 
L 384.130509 233.135084 
L 385.393018 235.424298 
L 386.655528 214.188933 
L 387.918037 232.447337 
L 389.180546 216.455303 
L 390.443055 240.779999 
L 391.705565 164.016391 
L 392.968074 217.80669 
L 394.230583 239.975895 
L 395.493093 238.605151 
L 396.755602 159.470893 
L 398.018111 243.537406 
L 399.28062 213.966389 
L 400.54313 234.476147 
L 401.805639 234.038886 
L 401.805639 149.907491 
L 401.805639 149.907491 
L 400.54313 150.870617 
L 399.28062 152.271987 
L 398.018111 152.204755 
L 396.755602 151.707862 
L 395.493093 150.873187 
L 394.230583 150.355239 
L 392.968074 151.569113 
L 391.705565 151.757473 
L 390.443055 152.238754 
L 389.180546 152.370442 
L 387.918037 150.401168 
L 386.655528 149.889838 
L 385.393018 151.004244 
L 384.130509 148.833497 
L 382.868 150.918652 
L 381.60549 151.466142 
L 380.342981 151.558745 
L 379.080472 150.144443 
L 377.817963 151.674686 
L 376.555453 150.593646 
L 375.292944 151.505729 
L 374.030435 150.808868 
L 372.767925 152.83671 
L 371.505416 152.104829 
L 370.242907 150.436753 
L 368.980398 150.764746 
L 367.717888 150.356453 
L 366.455379 152.577835 
L 365.19287 148.248585 
L 363.93036 150.000201 
L 362.667851 152.391959 
L 361.405342 151.020222 
L 360.142833 150.270251 
L 358.880323 150.872246 
L 357.617814 152.377796 
L 356.355305 149.499799 
L 355.092796 148.91313 
L 353.830286 150.863261 
L 352.567777 149.765779 
L 351.305268 150.801819 
L 350.042758 150.250461 
L 348.780249 150.612623 
L 347.51774 149.714474 
L 346.255231 151.089806 
L 344.992721 151.1908 
L 343.730212 151.410787 
L 342.467703 149.903281 
L 341.205193 150.876261 
L 339.942684 151.236771 
L 338.680175 148.195116 
L 337.417666 152.120024 
L 336.155156 151.786517 
L 334.892647 151.524331 
L 333.630138 149.096998 
L 332.367628 151.1488 
L 331.105119 151.029311 
L 329.84261 150.33117 
L 328.580101 152.516174 
L 327.317591 150.380783 
L 326.055082 149.461305 
L 324.792573 150.926903 
L 323.530064 151.708544 
L 322.267554 151.515516 
L 321.005045 149.032476 
L 319.742536 150.559449 
L 318.480026 151.028073 
L 317.217517 150.239756 
L 315.955008 151.374521 
L 314.692499 149.193695 
L 313.429989 150.918672 
L 312.16748 150.997913 
L 310.904971 150.387302 
L 309.642461 150.034401 
L 308.379952 151.361691 
L 307.117443 151.044075 
L 305.854934 150.336621 
L 304.592424 150.938477 
L 303.329915 150.916317 
L 302.067406 151.407218 
L 300.804896 151.87801 
L 299.542387 149.340259 
L 298.279878 151.520513 
L 297.017369 149.599977 
L 295.754859 150.463352 
L 294.49235 150.712033 
L 293.229841 148.522297 
L 291.967331 150.074786 
L 290.704822 151.404074 
L 289.442313 151.755153 
L 288.179804 148.875574 
L 286.917294 151.285085 
L 285.654785 150.260134 
L 284.392276 149.647536 
L 283.129767 150.243024 
L 281.867257 151.501441 
L 280.604748 150.3636 
L 279.342239 149.886195 
L 278.079729 150.527377 
L 276.81722 150.573166 
L 275.554711 151.651424 
L 274.292202 149.758312 
L 273.029692 149.601107 
L 271.767183 150.363421 
L 270.504674 151.293422 
L 269.242164 149.771881 
L 267.979655 149.507656 
L 266.717146 150.014544 
L 265.454637 150.240792 
L 264.192127 150.735899 
L 262.929618 151.068745 
L 261.667109 150.727097 
L 260.404599 150.549136 
L 259.14209 150.221768 
L 257.879581 149.635649 
L 256.617072 151.00966 
L 255.354562 150.440871 
L 254.092053 151.263285 
L 252.829544 149.610876 
L 251.567034 150.446733 
L 250.304525 150.973473 
L 249.042016 149.595014 
L 247.779507 150.578771 
L 246.516997 149.793906 
L 245.254488 152.623069 
L 243.991979 147.481991 
L 242.72947 148.51881 
L 241.46696 150.041258 
L 240.204451 150.910864 
L 238.941942 150.026102 
L 237.679432 151.209568 
L 236.416923 150.270091 
L 235.154414 150.496174 
L 233.891905 150.083088 
L 232.629395 148.978902 
L 231.366886 149.754234 
L 230.104377 150.48418 
L 228.841867 149.414573 
L 227.579358 149.881963 
L 226.316849 149.611243 
L 225.05434 150.44889 
L 223.79183 149.145 
L 222.529321 149.777957 
L 221.266812 151.114753 
L 220.004302 149.585845 
L 218.741793 149.037383 
L 217.479284 149.165952 
L 216.216775 148.335453 
L 214.954265 150.183487 
L 213.691756 149.623945 
L 212.429247 151.014489 
L 211.166737 149.891577 
L 209.904228 149.294519 
L 208.641719 149.496681 
L 207.37921 150.548226 
L 206.1167 150.098032 
L 204.854191 149.806969 
L 203.591682 149.488171 
L 202.329173 149.15354 
L 201.066663 149.721823 
L 199.804154 150.104078 
L 198.541645 150.771228 
L 197.279135 150.996295 
L 196.016626 149.570716 
L 194.754117 148.941415 
L 193.491608 148.860593 
L 192.229098 149.144536 
L 190.966589 148.788839 
L 189.70408 149.579754 
L 188.44157 149.602669 
L 187.179061 151.807704 
L 185.916552 149.353585 
L 184.654043 149.652591 
L 183.391533 150.610743 
L 182.129024 150.110771 
L 180.866515 147.953368 
L 179.604005 149.033074 
L 178.341496 147.739446 
L 177.078987 149.903331 
L 175.816478 149.632238 
L 174.553968 149.411845 
L 173.291459 150.390128 
L 172.02895 150.128132 
L 170.766441 151.017674 
L 169.503931 147.367627 
L 168.241422 150.221777 
L 166.978913 150.26186 
L 165.716403 149.410218 
L 164.453894 147.503396 
L 163.191385 149.574626 
L 161.928876 148.956125 
L 160.666366 149.273603 
L 159.403857 149.195516 
L 158.141348 150.390446 
L 156.878838 149.686569 
L 155.616329 149.797867 
L 154.35382 150.443145 
L 153.091311 150.90852 
L 151.828801 148.807528 
L 150.566292 149.739965 
L 149.303783 149.774349 
L 148.041273 150.909158 
L 146.778764 149.485138 
L 145.516255 148.584724 
L 144.253746 149.058032 
L 142.991236 149.73924 
L 141.728727 149.735152 
L 140.466218 147.963441 
L 139.203708 150.18584 
L 137.941199 149.573054 
L 136.67869 149.521062 
L 135.416181 149.092438 
L 134.153671 151.109192 
L 132.891162 151.2318 
L 131.628653 150.885078 
L 130.366144 148.227438 
L 129.103634 150.408353 
L 127.841125 149.720902 
L 126.578616 150.718435 
L 125.316106 150.196781 
L 124.053597 148.324494 
L 122.791088 149.496963 
L 121.528579 149.594476 
L 120.266069 150.131769 
L 119.00356 148.607217 
L 117.741051 149.264029 
L 116.478541 149.797376 
L 115.216032 149.429374 
L 113.953523 148.773131 
L 112.691014 149.157524 
L 111.428504 149.759023 
L 110.165995 149.453584 
L 108.903486 151.588011 
L 107.640976 149.568276 
L 106.378467 149.570093 
L 105.115958 150.218729 
L 103.853449 149.558879 
L 102.590939 150.273193 
L 101.32843 150.263175 
L 100.065921 150.396503 
L 98.803411 150.198941 
L 97.540902 148.873224 
L 96.278393 147.865876 
L 95.015884 151.045481 
L 93.753374 153.210213 
L 92.490865 151.60542 
L 91.228356 155.607466 
L 89.965847 799.776596 
L 88.703337 1358.798739 
L 87.440828 991.217407 
z
" clip-path="url(#p68f49d953c)" style="fill: #6ca247; fill-opacity: 0.2; stroke: #6ca247; stroke-opacity: 0.2"/>
   </g>
   <g id="matplotlib.axis_1">
    <g id="xtick_1">
     <g id="line2d_1">
      <path d="M 87.283014 376.318305 
L 87.283014 7.2 
" clip-path="url(#p68f49d953c)" style="fill: none; stroke: #b0b0b0; stroke-opacity: 0.3; stroke-width: 0.8; stroke-linecap: square"/>
     </g>
     <g id="line2d_2">
      <defs>
       <path id="m271b1c0ac4" d="M 0 0 
L 0 3.5 
" style="stroke: #000000; stroke-width: 0.8"/>
      </defs>
      <g>
       <use xlink:href="#m271b1c0ac4" x="87.283014" y="376.318305" style="stroke: #000000; stroke-width: 0.8"/>
      </g>
     </g>
     <g id="text_1">
      <!-- 0k -->
      <g transform="translate(79.26225 394.387893) scale(0.16 -0.16)">
       <defs>
        <path id="CMR17-30" d="M 2688 2038 
C 2688 2430 2682 3099 2413 3613 
C 2176 4063 1798 4224 1466 4224 
C 1158 4224 768 4082 525 3620 
C 269 3137 243 2539 243 2038 
C 243 1671 250 1112 448 623 
C 723 -39 1216 -128 1466 -128 
C 1760 -128 2208 -7 2470 604 
C 2662 1048 2688 1568 2688 2038 
z
M 1466 -26 
C 1056 -26 813 328 723 816 
C 653 1196 653 1749 653 2109 
C 653 2604 653 3015 736 3407 
C 858 3954 1216 4121 1466 4121 
C 1728 4121 2067 3947 2189 3420 
C 2272 3054 2278 2623 2278 2109 
C 2278 1691 2278 1176 2202 797 
C 2067 96 1690 -26 1466 -26 
z
" transform="scale(0.015625)"/>
        <path id="CMR17-6b" d="M 1670 1679 
C 1664 1692 1632 1730 1632 1749 
C 1632 1762 2086 2175 2144 2226 
C 2509 2532 2739 2563 2906 2570 
L 2906 2735 
C 2867 2735 2854 2735 2848 2729 
L 2534 2722 
C 2355 2722 2080 2722 1907 2735 
L 1907 2570 
C 1997 2563 2061 2513 2061 2423 
C 2061 2296 1933 2175 1926 2175 
L 960 1298 
L 960 4416 
L 198 4345 
L 198 4179 
C 576 4179 634 4141 634 3835 
L 634 439 
C 634 198 608 166 198 166 
L 198 0 
C 352 12 634 12 794 12 
C 954 12 1235 12 1389 0 
L 1389 166 
C 979 166 954 191 954 439 
L 954 1139 
L 1395 1540 
L 2042 586 
C 2118 471 2182 382 2182 299 
C 2182 185 2067 166 1990 166 
L 1990 0 
C 2144 12 2419 12 2579 12 
C 2694 12 2931 6 3040 0 
L 3040 166 
C 2739 166 2669 223 2477 503 
L 1670 1679 
z
" transform="scale(0.015625)"/>
       </defs>
       <use xlink:href="#CMR17-30" transform="scale(0.996264)"/>
       <use xlink:href="#CMR17-6b" transform="translate(45.690477 0) scale(0.996264)"/>
      </g>
     </g>
    </g>
    <g id="xtick_2">
     <g id="line2d_3">
      <path d="M 166.189844 376.318305 
L 166.189844 7.2 
" clip-path="url(#p68f49d953c)" style="fill: none; stroke: #b0b0b0; stroke-opacity: 0.3; stroke-width: 0.8; stroke-linecap: square"/>
     </g>
     <g id="line2d_4">
      <g>
       <use xlink:href="#m271b1c0ac4" x="166.189844" y="376.318305" style="stroke: #000000; stroke-width: 0.8"/>
      </g>
     </g>
     <g id="text_2">
      <!-- 50k -->
      <g transform="translate(154.267086 394.387893) scale(0.16 -0.16)">
       <defs>
        <path id="CMR17-35" d="M 730 3750 
C 794 3724 1056 3641 1325 3641 
C 1920 3641 2246 3961 2432 4140 
C 2432 4191 2432 4224 2394 4224 
C 2387 4224 2374 4224 2323 4198 
C 2099 4102 1837 4032 1517 4032 
C 1325 4032 1037 4055 723 4191 
C 653 4224 640 4224 634 4224 
C 602 4224 595 4217 595 4090 
L 595 2231 
C 595 2113 595 2080 659 2080 
C 691 2080 704 2093 736 2139 
C 941 2435 1222 2560 1542 2560 
C 1766 2560 2246 2415 2246 1293 
C 2246 1087 2246 716 2054 422 
C 1894 159 1645 25 1370 25 
C 947 25 518 319 403 812 
C 429 806 480 793 506 793 
C 589 793 749 838 749 1036 
C 749 1209 627 1280 506 1280 
C 358 1280 262 1190 262 1011 
C 262 454 704 -128 1382 -128 
C 2042 -128 2669 441 2669 1267 
C 2669 2054 2170 2662 1549 2662 
C 1222 2662 947 2540 730 2304 
L 730 3750 
z
" transform="scale(0.015625)"/>
       </defs>
       <use xlink:href="#CMR17-35" transform="scale(0.996264)"/>
       <use xlink:href="#CMR17-30" transform="translate(45.690477 0) scale(0.996264)"/>
       <use xlink:href="#CMR17-6b" transform="translate(91.380954 0) scale(0.996264)"/>
      </g>
     </g>
    </g>
    <g id="xtick_3">
     <g id="line2d_5">
      <path d="M 245.096674 376.318305 
L 245.096674 7.2 
" clip-path="url(#p68f49d953c)" style="fill: none; stroke: #b0b0b0; stroke-opacity: 0.3; stroke-width: 0.8; stroke-linecap: square"/>
     </g>
     <g id="line2d_6">
      <g>
       <use xlink:href="#m271b1c0ac4" x="245.096674" y="376.318305" style="stroke: #000000; stroke-width: 0.8"/>
      </g>
     </g>
     <g id="text_3">
      <!-- 100k -->
      <g transform="translate(229.271923 394.387893) scale(0.16 -0.16)">
       <defs>
        <path id="CMR17-31" d="M 1702 4083 
C 1702 4217 1696 4224 1606 4224 
C 1357 3927 979 3833 621 3820 
C 602 3820 570 3820 563 3808 
C 557 3795 557 3782 557 3648 
C 755 3648 1088 3686 1344 3839 
L 1344 467 
C 1344 243 1331 166 781 166 
L 589 166 
L 589 0 
C 896 6 1216 12 1523 12 
C 1830 12 2150 6 2458 0 
L 2458 166 
L 2266 166 
C 1715 166 1702 236 1702 467 
L 1702 4083 
z
" transform="scale(0.015625)"/>
       </defs>
       <use xlink:href="#CMR17-31" transform="scale(0.996264)"/>
       <use xlink:href="#CMR17-30" transform="translate(45.690477 0) scale(0.996264)"/>
       <use xlink:href="#CMR17-30" transform="translate(91.380954 0) scale(0.996264)"/>
       <use xlink:href="#CMR17-6b" transform="translate(137.071431 0) scale(0.996264)"/>
      </g>
     </g>
    </g>
    <g id="xtick_4">
     <g id="line2d_7">
      <path d="M 324.003504 376.318305 
L 324.003504 7.2 
" clip-path="url(#p68f49d953c)" style="fill: none; stroke: #b0b0b0; stroke-opacity: 0.3; stroke-width: 0.8; stroke-linecap: square"/>
     </g>
     <g id="line2d_8">
      <g>
       <use xlink:href="#m271b1c0ac4" x="324.003504" y="376.318305" style="stroke: #000000; stroke-width: 0.8"/>
      </g>
     </g>
     <g id="text_4">
      <!-- 150k -->
      <g transform="translate(308.178753 394.387893) scale(0.16 -0.16)">
       <use xlink:href="#CMR17-31" transform="scale(0.996264)"/>
       <use xlink:href="#CMR17-35" transform="translate(45.690477 0) scale(0.996264)"/>
       <use xlink:href="#CMR17-30" transform="translate(91.380954 0) scale(0.996264)"/>
       <use xlink:href="#CMR17-6b" transform="translate(137.071431 0) scale(0.996264)"/>
      </g>
     </g>
    </g>
    <g id="xtick_5">
     <g id="line2d_9">
      <path d="M 402.910335 376.318305 
L 402.910335 7.2 
" clip-path="url(#p68f49d953c)" style="fill: none; stroke: #b0b0b0; stroke-opacity: 0.3; stroke-width: 0.8; stroke-linecap: square"/>
     </g>
     <g id="line2d_10">
      <g>
       <use xlink:href="#m271b1c0ac4" x="402.910335" y="376.318305" style="stroke: #000000; stroke-width: 0.8"/>
      </g>
     </g>
     <g id="text_5">
      <!-- 200k -->
      <g transform="translate(387.085583 394.387893) scale(0.16 -0.16)">
       <defs>
        <path id="CMR17-32" d="M 2669 990 
L 2554 990 
C 2490 537 2438 460 2413 422 
C 2381 371 1920 371 1830 371 
L 602 371 
C 832 620 1280 1073 1824 1596 
C 2214 1966 2669 2400 2669 3033 
C 2669 3788 2067 4224 1395 4224 
C 691 4224 262 3603 262 3027 
C 262 2777 448 2745 525 2745 
C 589 2745 781 2783 781 3007 
C 781 3206 614 3264 525 3264 
C 486 3264 448 3257 422 3244 
C 544 3788 915 4057 1306 4057 
C 1862 4057 2227 3616 2227 3033 
C 2227 2477 1901 1998 1536 1583 
L 262 147 
L 262 0 
L 2515 0 
L 2669 990 
z
" transform="scale(0.015625)"/>
       </defs>
       <use xlink:href="#CMR17-32" transform="scale(0.996264)"/>
       <use xlink:href="#CMR17-30" transform="translate(45.690477 0) scale(0.996264)"/>
       <use xlink:href="#CMR17-30" transform="translate(91.380954 0) scale(0.996264)"/>
       <use xlink:href="#CMR17-6b" transform="translate(137.071431 0) scale(0.996264)"/>
      </g>
     </g>
    </g>
    <g id="text_6">
     <!-- Training Steps -->
     <g transform="translate(186.590095 415.324366) scale(0.2 -0.2)">
      <defs>
       <path id="CMR17-54" d="M 3981 4332 
L 288 4332 
L 179 2924 
L 294 2924 
C 378 3981 467 4166 1453 4166 
C 1568 4166 1754 4166 1805 4159 
C 1926 4140 1926 4064 1926 3917 
L 1926 465 
C 1926 236 1907 166 1376 166 
L 1197 166 
L 1197 0 
C 1504 6 1824 12 2138 12 
C 2451 12 2771 6 3078 0 
L 3078 166 
L 2899 166 
C 2368 166 2349 236 2349 465 
L 2349 3917 
C 2349 4057 2349 4134 2464 4159 
C 2515 4166 2701 4166 2816 4166 
C 3795 4166 3891 3981 3974 2924 
L 4090 2924 
L 3981 4332 
z
" transform="scale(0.015625)"/>
       <path id="CMR17-72" d="M 960 1517 
C 960 2134 1222 2713 1702 2713 
C 1747 2713 1792 2707 1837 2687 
C 1837 2687 1696 2642 1696 2475 
C 1696 2321 1818 2257 1914 2257 
C 1990 2257 2131 2302 2131 2482 
C 2131 2687 1926 2816 1709 2816 
C 1222 2816 1011 2340 947 2115 
L 941 2115 
L 941 2816 
L 198 2745 
L 198 2578 
C 576 2578 634 2540 634 2231 
L 634 443 
C 634 198 608 166 198 166 
L 198 0 
C 352 12 646 12 813 12 
C 998 12 1325 12 1498 0 
L 1498 166 
C 1037 166 960 166 960 455 
L 960 1517 
z
" transform="scale(0.015625)"/>
       <path id="CMR17-61" d="M 2304 1656 
C 2304 2048 2304 2275 2035 2534 
C 1798 2751 1523 2816 1306 2816 
C 800 2816 435 2408 435 1977 
C 435 1740 627 1728 666 1728 
C 749 1728 896 1779 896 1958 
C 896 2118 774 2188 666 2188 
C 640 2188 608 2182 589 2176 
C 723 2594 1069 2713 1293 2713 
C 1613 2713 1965 2421 1965 1875 
L 1965 1632 
C 1587 1619 1133 1568 774 1373 
C 371 1147 256 822 256 576 
C 256 77 832 -64 1171 -64 
C 1523 -64 1850 135 1990 505 
C 2003 219 2182 -39 2464 -39 
C 2598 -39 2938 51 2938 563 
L 2938 926 
L 2822 926 
L 2822 557 
C 2822 161 2650 109 2566 109 
C 2304 109 2304 446 2304 732 
L 2304 1656 
z
M 1965 887 
C 1965 323 1568 38 1216 38 
C 896 38 646 278 646 576 
C 646 771 730 1114 1101 1322 
C 1408 1497 1760 1523 1965 1536 
L 1965 887 
z
" transform="scale(0.015625)"/>
       <path id="CMR17-69" d="M 992 3961 
C 992 4102 877 4224 730 4224 
C 589 4224 467 4108 467 3961 
C 467 3820 582 3699 730 3699 
C 870 3699 992 3814 992 3961 
z
M 243 2745 
L 243 2579 
C 602 2579 653 2540 653 2231 
L 653 443 
C 653 198 627 166 218 166 
L 218 0 
C 371 12 646 12 806 12 
C 960 12 1222 12 1370 0 
L 1370 166 
C 992 166 979 205 979 436 
L 979 2816 
L 243 2745 
z
" transform="scale(0.015625)"/>
       <path id="CMR17-6e" d="M 2656 1954 
C 2656 2282 2592 2816 1837 2816 
C 1331 2816 1069 2424 973 2166 
L 966 2166 
L 966 2816 
L 211 2745 
L 211 2578 
C 589 2578 646 2540 646 2231 
L 646 443 
C 646 198 621 166 211 166 
L 211 0 
C 365 12 646 12 813 12 
C 979 12 1267 12 1421 0 
L 1421 166 
C 1011 166 986 192 986 443 
L 986 1678 
C 986 2269 1344 2713 1792 2713 
C 2266 2713 2317 2289 2317 1980 
L 2317 443 
C 2317 198 2291 166 1882 166 
L 1882 0 
C 2035 12 2317 12 2483 12 
C 2650 12 2938 12 3091 0 
L 3091 166 
C 2682 166 2656 192 2656 443 
L 2656 1954 
z
" transform="scale(0.015625)"/>
       <path id="CMR17-67" d="M 710 1165 
C 832 1068 1043 960 1299 960 
C 1805 960 2240 1359 2240 1895 
C 2240 2063 2189 2321 1997 2521 
C 2176 2713 2438 2777 2586 2777 
C 2611 2777 2650 2777 2682 2758 
C 2656 2751 2598 2726 2598 2623 
C 2598 2540 2656 2483 2739 2483 
C 2835 2483 2886 2547 2886 2630 
C 2886 2751 2790 2880 2586 2880 
C 2330 2880 2106 2758 1926 2591 
C 1734 2764 1504 2828 1299 2828 
C 794 2828 358 2431 358 1895 
C 358 1527 570 1294 634 1230 
C 442 1004 442 742 442 710 
C 442 544 506 300 723 166 
C 390 82 128 -184 128 -517 
C 128 -996 736 -1344 1466 -1344 
C 2170 -1344 2803 -1009 2803 -510 
C 2803 384 1856 384 1363 384 
C 1216 384 954 384 922 390 
C 723 422 589 601 589 825 
C 589 883 589 1024 710 1165 
z
M 1299 1068 
C 736 1068 736 1766 736 1895 
C 736 2024 736 2719 1299 2719 
C 1862 2719 1862 2024 1862 1895 
C 1862 1766 1862 1068 1299 1068 
z
M 1466 -1236 
C 826 -1236 384 -883 384 -517 
C 384 -311 493 -118 634 -11 
C 794 102 858 102 1293 102 
C 1818 102 2547 102 2547 -517 
C 2547 -883 2106 -1236 1466 -1236 
z
" transform="scale(0.015625)"/>
       <path id="CMR17-53" d="M 2803 4351 
C 2803 4467 2797 4473 2758 4473 
C 2720 4473 2707 4447 2682 4390 
L 2490 3965 
C 2246 4320 1875 4480 1472 4480 
C 819 4480 294 3958 294 3301 
C 294 3101 339 2817 557 2546 
C 794 2250 1018 2198 1530 2063 
C 1722 2011 2042 1927 2106 1901 
C 2470 1747 2662 1360 2662 999 
C 2662 534 2336 38 1779 38 
C 1094 38 454 425 410 1328 
C 403 1431 397 1437 352 1437 
C 301 1437 294 1431 294 1302 
L 294 0 
C 294 -116 301 -122 339 -122 
C 384 -122 397 -90 486 109 
C 493 128 493 141 614 386 
C 934 -39 1472 -128 1779 -128 
C 2477 -128 2970 457 2970 1141 
C 2970 1476 2848 1734 2778 1850 
C 2509 2263 2221 2340 1914 2417 
C 1869 2437 1856 2437 1498 2527 
C 1152 2617 1005 2662 845 2836 
C 666 3036 602 3243 602 3449 
C 602 3868 934 4326 1478 4326 
C 2157 4326 2579 3842 2675 3036 
C 2694 2920 2701 2914 2746 2914 
C 2803 2914 2803 2933 2803 3043 
L 2803 4351 
z
" transform="scale(0.015625)"/>
       <path id="CMR17-74" d="M 966 2585 
L 1862 2585 
L 1862 2752 
L 966 2752 
L 966 3968 
L 851 3968 
C 838 3292 614 2700 70 2687 
L 70 2585 
L 627 2585 
L 627 778 
C 627 655 627 -64 1370 -64 
C 1747 -64 1965 308 1965 784 
L 1965 1151 
L 1850 1151 
L 1850 790 
C 1850 347 1677 51 1408 51 
C 1222 51 966 179 966 765 
L 966 2585 
z
" transform="scale(0.015625)"/>
       <path id="CMR17-65" d="M 2438 1503 
C 2464 1529 2464 1542 2464 1606 
C 2464 2251 2118 2816 1389 2816 
C 710 2816 173 2175 173 1394 
C 173 554 781 -64 1459 -64 
C 2176 -64 2458 619 2458 755 
C 2458 800 2419 800 2406 800 
C 2362 800 2355 787 2330 709 
C 2189 270 1837 51 1504 51 
C 1229 51 954 206 781 490 
C 582 819 582 1200 582 1503 
L 2438 1503 
z
M 589 1600 
C 634 2511 1126 2713 1382 2713 
C 1818 2713 2112 2308 2118 1600 
L 589 1600 
z
" transform="scale(0.015625)"/>
       <path id="CMR17-70" d="M 1408 -1114 
C 998 -1114 973 -1088 973 -834 
L 973 380 
C 1158 109 1427 -64 1766 -64 
C 2406 -64 3053 503 3053 1382 
C 3053 2196 2496 2816 1837 2816 
C 1453 2816 1139 2603 960 2345 
L 960 2816 
L 198 2745 
L 198 2577 
C 576 2577 634 2539 634 2228 
L 634 -834 
C 634 -1081 608 -1114 198 -1114 
L 198 -1280 
C 352 -1268 634 -1268 800 -1268 
C 966 -1268 1254 -1268 1408 -1280 
L 1408 -1114 
z
M 973 2015 
C 973 2106 973 2241 1222 2481 
C 1254 2506 1472 2700 1792 2700 
C 2259 2700 2643 2112 2643 1376 
C 2643 639 2234 38 1728 38 
C 1498 38 1248 148 1056 451 
C 973 594 973 632 973 736 
L 973 2015 
z
" transform="scale(0.015625)"/>
       <path id="CMR17-73" d="M 1978 2688 
C 1978 2803 1971 2809 1933 2809 
C 1907 2809 1901 2803 1824 2707 
C 1805 2681 1747 2617 1728 2592 
C 1523 2809 1235 2816 1126 2816 
C 416 2816 160 2444 160 2073 
C 160 1497 813 1363 998 1324 
C 1402 1241 1542 1216 1677 1100 
C 1760 1024 1901 883 1901 652 
C 1901 384 1747 38 1158 38 
C 602 38 403 460 288 1024 
C 269 1113 269 1120 218 1120 
C 166 1120 160 1113 160 985 
L 160 64 
C 160 -52 166 -58 205 -58 
C 237 -58 243 -52 275 0 
C 314 57 410 211 448 275 
C 576 102 800 -64 1158 -64 
C 1792 -64 2131 281 2131 780 
C 2131 1107 1958 1280 1875 1356 
C 1683 1555 1459 1600 1190 1651 
C 838 1728 390 1817 390 2208 
C 390 2374 480 2726 1126 2726 
C 1811 2726 1850 2086 1862 1881 
C 1869 1849 1901 1843 1920 1843 
C 1978 1843 1978 1862 1978 1971 
L 1978 2688 
z
" transform="scale(0.015625)"/>
      </defs>
      <use xlink:href="#CMR17-54" transform="scale(0.996264)"/>
      <use xlink:href="#CMR17-72" transform="translate(58.702625 0) scale(0.996264)"/>
      <use xlink:href="#CMR17-61" transform="translate(93.983393 0) scale(0.996264)"/>
      <use xlink:href="#CMR17-69" transform="translate(139.67387 0) scale(0.996264)"/>
      <use xlink:href="#CMR17-6e" transform="translate(164.544929 0) scale(0.996264)"/>
      <use xlink:href="#CMR17-69" transform="translate(215.440298 0) scale(0.996264)"/>
      <use xlink:href="#CMR17-6e" transform="translate(240.311357 0) scale(0.996264)"/>
      <use xlink:href="#CMR17-67" transform="translate(291.206727 0) scale(0.996264)"/>
      <use xlink:href="#CMR17-53" transform="translate(366.97317 0) scale(0.996264)"/>
      <use xlink:href="#CMR17-74" transform="translate(417.86854 0) scale(0.996264)"/>
      <use xlink:href="#CMR17-65" transform="translate(453.149308 0) scale(0.996264)"/>
      <use xlink:href="#CMR17-70" transform="translate(493.634968 0) scale(0.996264)"/>
      <use xlink:href="#CMR17-73" transform="translate(544.530338 0) scale(0.996264)"/>
     </g>
    </g>
   </g>
   <g id="matplotlib.axis_2">
    <g id="ytick_1">
     <g id="line2d_11">
      <path d="M 71.722587 376.318305 
L 417.523879 376.318305 
" clip-path="url(#p68f49d953c)" style="fill: none; stroke: #b0b0b0; stroke-opacity: 0.3; stroke-width: 0.8; stroke-linecap: square"/>
     </g>
     <g id="line2d_12">
      <defs>
       <path id="m88cfa8fa99" d="M 0 0 
L -3.5 0 
" style="stroke: #000000; stroke-width: 0.8"/>
      </defs>
      <g>
       <use xlink:href="#m88cfa8fa99" x="71.722587" y="376.318305" style="stroke: #000000; stroke-width: 0.8"/>
      </g>
     </g>
     <g id="text_7">
      <!-- $\mathdefault{400}$ -->
      <g transform="translate(28.91263 381.853099) scale(0.16 -0.16)">
       <defs>
        <path id="CMSY10-0" d="M 4218 1472 
C 4326 1472 4442 1472 4442 1600 
C 4442 1728 4326 1728 4218 1728 
L 755 1728 
C 646 1728 531 1728 531 1600 
C 531 1472 646 1472 755 1472 
L 4218 1472 
z
" transform="scale(0.015625)"/>
        <path id="CMR17-34" d="M 2150 4147 
C 2150 4281 2144 4288 2029 4288 
L 128 1254 
L 128 1088 
L 1779 1088 
L 1779 460 
C 1779 230 1766 166 1318 166 
L 1197 166 
L 1197 0 
C 1402 12 1747 12 1965 12 
C 2182 12 2528 12 2733 0 
L 2733 166 
L 2611 166 
C 2163 166 2150 230 2150 460 
L 2150 1088 
L 2803 1088 
L 2803 1254 
L 2150 1254 
L 2150 4147 
z
M 1798 3723 
L 1798 1254 
L 256 1254 
L 1798 3723 
z
" transform="scale(0.015625)"/>
       </defs>
       <use xlink:href="#CMSY10-0" transform="scale(0.996264)"/>
       <use xlink:href="#CMR17-34" transform="translate(77.487468 0) scale(0.996264)"/>
       <use xlink:href="#CMR17-30" transform="translate(123.177945 0) scale(0.996264)"/>
       <use xlink:href="#CMR17-30" transform="translate(168.868422 0) scale(0.996264)"/>
      </g>
     </g>
    </g>
    <g id="ytick_2">
     <g id="line2d_13">
      <path d="M 71.722587 296.289933 
L 417.523879 296.289933 
" clip-path="url(#p68f49d953c)" style="fill: none; stroke: #b0b0b0; stroke-opacity: 0.3; stroke-width: 0.8; stroke-linecap: square"/>
     </g>
     <g id="line2d_14">
      <g>
       <use xlink:href="#m88cfa8fa99" x="71.722587" y="296.289933" style="stroke: #000000; stroke-width: 0.8"/>
      </g>
     </g>
     <g id="text_8">
      <!-- $\mathdefault{300}$ -->
      <g transform="translate(28.91263 301.824727) scale(0.16 -0.16)">
       <defs>
        <path id="CMR17-33" d="M 1414 2176 
C 1984 2176 2234 1673 2234 1094 
C 2234 322 1824 25 1453 25 
C 1114 25 563 193 390 691 
C 422 678 454 678 486 678 
C 640 678 755 780 755 947 
C 755 1132 614 1216 486 1216 
C 378 1216 211 1164 211 927 
C 211 335 787 -128 1466 -128 
C 2176 -128 2720 432 2720 1087 
C 2720 1718 2208 2176 1600 2246 
C 2086 2347 2554 2776 2554 3353 
C 2554 3856 2048 4224 1472 4224 
C 890 4224 378 3862 378 3347 
C 378 3123 544 3084 627 3084 
C 762 3084 877 3167 877 3334 
C 877 3500 762 3584 627 3584 
C 602 3584 570 3584 544 3571 
C 730 3999 1235 4076 1459 4076 
C 1683 4076 2106 3966 2106 3347 
C 2106 3167 2080 2851 1862 2574 
C 1670 2329 1453 2316 1242 2297 
C 1210 2297 1062 2284 1037 2284 
C 992 2278 966 2272 966 2227 
C 966 2182 973 2176 1101 2176 
L 1414 2176 
z
" transform="scale(0.015625)"/>
       </defs>
       <use xlink:href="#CMSY10-0" transform="scale(0.996264)"/>
       <use xlink:href="#CMR17-33" transform="translate(77.487468 0) scale(0.996264)"/>
       <use xlink:href="#CMR17-30" transform="translate(123.177945 0) scale(0.996264)"/>
       <use xlink:href="#CMR17-30" transform="translate(168.868422 0) scale(0.996264)"/>
      </g>
     </g>
    </g>
    <g id="ytick_3">
     <g id="line2d_15">
      <path d="M 71.722587 216.261562 
L 417.523879 216.261562 
" clip-path="url(#p68f49d953c)" style="fill: none; stroke: #b0b0b0; stroke-opacity: 0.3; stroke-width: 0.8; stroke-linecap: square"/>
     </g>
     <g id="line2d_16">
      <g>
       <use xlink:href="#m88cfa8fa99" x="71.722587" y="216.261562" style="stroke: #000000; stroke-width: 0.8"/>
      </g>
     </g>
     <g id="text_9">
      <!-- $\mathdefault{200}$ -->
      <g transform="translate(28.91263 221.796356) scale(0.16 -0.16)">
       <use xlink:href="#CMSY10-0" transform="scale(0.996264)"/>
       <use xlink:href="#CMR17-32" transform="translate(77.487468 0) scale(0.996264)"/>
       <use xlink:href="#CMR17-30" transform="translate(123.177945 0) scale(0.996264)"/>
       <use xlink:href="#CMR17-30" transform="translate(168.868422 0) scale(0.996264)"/>
      </g>
     </g>
    </g>
    <g id="ytick_4">
     <g id="line2d_17">
      <path d="M 71.722587 136.23319 
L 417.523879 136.23319 
" clip-path="url(#p68f49d953c)" style="fill: none; stroke: #b0b0b0; stroke-opacity: 0.3; stroke-width: 0.8; stroke-linecap: square"/>
     </g>
     <g id="line2d_18">
      <g>
       <use xlink:href="#m88cfa8fa99" x="71.722587" y="136.23319" style="stroke: #000000; stroke-width: 0.8"/>
      </g>
     </g>
     <g id="text_10">
      <!-- $\mathdefault{100}$ -->
      <g transform="translate(28.91263 141.767984) scale(0.16 -0.16)">
       <use xlink:href="#CMSY10-0" transform="scale(0.996264)"/>
       <use xlink:href="#CMR17-31" transform="translate(77.487468 0) scale(0.996264)"/>
       <use xlink:href="#CMR17-30" transform="translate(123.177945 0) scale(0.996264)"/>
       <use xlink:href="#CMR17-30" transform="translate(168.868422 0) scale(0.996264)"/>
      </g>
     </g>
    </g>
    <g id="ytick_5">
     <g id="line2d_19">
      <path d="M 71.722587 56.204818 
L 417.523879 56.204818 
" clip-path="url(#p68f49d953c)" style="fill: none; stroke: #b0b0b0; stroke-opacity: 0.3; stroke-width: 0.8; stroke-linecap: square"/>
     </g>
     <g id="line2d_20">
      <g>
       <use xlink:href="#m88cfa8fa99" x="71.722587" y="56.204818" style="stroke: #000000; stroke-width: 0.8"/>
      </g>
     </g>
     <g id="text_11">
      <!-- $\mathdefault{0}$ -->
      <g transform="translate(56.9186 61.739612) scale(0.16 -0.16)">
       <use xlink:href="#CMR17-30" transform="scale(0.996264)"/>
      </g>
     </g>
    </g>
    <g id="text_12">
     <!-- Return -->
     <g transform="translate(21.036997 219.822038) rotate(-90) scale(0.2 -0.2)">
      <defs>
       <path id="CMR17-52" d="M 2509 2156 
C 3117 2278 3629 2689 3629 3203 
C 3629 3806 2950 4352 2054 4352 
L 333 4352 
L 333 4185 
C 774 4185 845 4185 845 3896 
L 845 428 
C 845 140 774 140 333 140 
L 333 -26 
C 518 -13 851 -13 1050 -13 
C 1248 -13 1581 -13 1766 -26 
L 1766 140 
C 1325 140 1254 140 1254 428 
L 1254 2112 
L 2003 2112 
C 2368 2112 2573 1964 2662 1881 
C 2918 1632 2918 1459 2918 1024 
C 2918 595 2918 377 3110 160 
C 3354 -103 3680 -128 3821 -128 
C 4294 -128 4365 403 4365 512 
C 4365 550 4365 595 4307 595 
C 4256 595 4250 556 4250 531 
C 4218 115 4032 -26 3834 -26 
C 3482 -26 3443 377 3405 768 
C 3386 902 3373 998 3360 1139 
C 3322 1459 3270 1926 2509 2156 
z
M 1984 2214 
L 1254 2214 
L 1254 3935 
C 1254 4153 1267 4185 1523 4185 
L 1990 4185 
C 2522 4185 3142 3999 3142 3203 
C 3142 2374 2464 2214 1984 2214 
z
" transform="scale(0.015625)"/>
       <path id="CMR17-75" d="M 1882 2745 
L 1882 2579 
C 2259 2579 2317 2540 2317 2229 
L 2317 1053 
C 2317 510 2029 38 1555 38 
C 1030 38 986 355 986 691 
L 986 2816 
L 211 2745 
L 211 2579 
C 467 2579 640 2579 646 2320 
L 646 1079 
C 646 646 646 368 813 187 
C 896 103 1056 -64 1517 -64 
C 2061 -64 2272 400 2323 536 
L 2330 536 
L 2330 -64 
L 3091 -13 
L 3091 154 
C 2714 154 2656 193 2656 503 
L 2656 2816 
L 1882 2745 
z
" transform="scale(0.015625)"/>
      </defs>
      <use xlink:href="#CMR17-52" transform="scale(0.996264)"/>
      <use xlink:href="#CMR17-65" transform="translate(67.791102 0) scale(0.996264)"/>
      <use xlink:href="#CMR17-74" transform="translate(108.276762 0) scale(0.996264)"/>
      <use xlink:href="#CMR17-75" transform="translate(143.55753 0) scale(0.996264)"/>
      <use xlink:href="#CMR17-72" transform="translate(194.4529 0) scale(0.996264)"/>
      <use xlink:href="#CMR17-6e" transform="translate(229.733668 0) scale(0.996264)"/>
     </g>
    </g>
   </g>
   <g id="line2d_21">
    <path d="M 90.74897 427.4 
L 91.228356 179.972034 
L 92.490865 163.695048 
L 93.753374 155.230132 
L 95.015884 164.851783 
L 96.278393 154.793887 
L 97.540902 174.732752 
L 98.803411 167.336155 
L 100.065921 152.277583 
L 101.32843 156.899812 
L 102.590939 159.339726 
L 103.853449 151.694654 
L 105.115958 174.164505 
L 106.378467 167.474021 
L 107.640976 160.127433 
L 108.903486 167.137067 
L 110.165995 152.700266 
L 111.428504 160.618988 
L 112.691014 192.426964 
L 113.953523 162.532792 
L 115.216032 156.238719 
L 116.478541 166.801783 
L 117.741051 162.750975 
L 119.00356 153.215639 
L 120.266069 152.145364 
L 121.528579 151.335644 
L 122.791088 166.985322 
L 125.316106 159.805533 
L 126.578616 153.350366 
L 127.841125 156.690214 
L 129.103634 166.672204 
L 130.366144 151.572801 
L 131.628653 169.623312 
L 132.891162 173.725348 
L 134.153671 155.70768 
L 135.416181 171.084849 
L 136.67869 165.170411 
L 137.941199 169.854466 
L 139.203708 167.473593 
L 140.466218 154.84958 
L 141.728727 159.195074 
L 142.991236 152.378765 
L 144.253746 167.316138 
L 145.516255 152.609133 
L 146.778764 151.801871 
L 148.041273 152.58145 
L 149.303783 152.259745 
L 150.566292 180.499796 
L 151.828801 152.316263 
L 153.091311 153.163079 
L 154.35382 152.183052 
L 155.616329 156.982714 
L 156.878838 160.265685 
L 158.141348 164.076289 
L 159.403857 160.463292 
L 160.666366 163.882797 
L 161.928876 160.100345 
L 163.191385 154.031548 
L 164.453894 156.904531 
L 165.716403 153.009983 
L 166.978913 164.541694 
L 168.241422 153.215006 
L 169.503931 174.600365 
L 170.766441 152.770812 
L 172.02895 152.993949 
L 173.291459 160.291592 
L 174.553968 153.246733 
L 175.816478 175.266386 
L 177.078987 178.799882 
L 178.341496 164.537069 
L 179.604005 164.722619 
L 180.866515 153.749962 
L 182.129024 171.897568 
L 183.391533 164.560229 
L 184.654043 156.313746 
L 185.916552 154.019049 
L 187.179061 165.254336 
L 188.44157 164.329866 
L 189.70408 154.419512 
L 190.966589 162.533411 
L 192.229098 155.369754 
L 193.491608 157.914191 
L 194.754117 165.917295 
L 196.016626 190.471691 
L 197.279135 212.805349 
L 198.541645 165.729854 
L 199.804154 156.699874 
L 201.066663 159.474598 
L 202.329173 155.659715 
L 203.591682 172.751198 
L 204.854191 171.763464 
L 206.1167 179.44669 
L 207.37921 163.008056 
L 208.641719 155.716846 
L 209.904228 169.315256 
L 211.166737 159.682199 
L 212.429247 153.516191 
L 213.691756 155.893137 
L 214.954265 166.270277 
L 216.216775 154.912362 
L 217.479284 155.361712 
L 218.741793 164.083102 
L 220.004302 163.361178 
L 221.266812 169.613045 
L 222.529321 166.345817 
L 223.79183 162.574501 
L 225.05434 165.661734 
L 226.316849 158.476665 
L 227.579358 156.296394 
L 228.841867 154.744216 
L 230.104377 155.732011 
L 231.366886 165.894837 
L 232.629395 177.309728 
L 233.891905 159.598072 
L 235.154414 168.497078 
L 236.416923 154.359439 
L 237.679432 157.143642 
L 238.941942 166.380818 
L 240.204451 179.577676 
L 241.46696 179.758236 
L 242.72947 155.364487 
L 243.991979 189.270584 
L 245.254488 167.635407 
L 246.516997 185.06608 
L 247.779507 160.653612 
L 249.042016 173.607998 
L 250.304525 167.712317 
L 251.567034 177.422241 
L 252.829544 180.4258 
L 254.092053 164.287714 
L 255.354562 157.108796 
L 256.617072 161.189033 
L 257.879581 156.707674 
L 259.14209 173.139939 
L 260.404599 156.472056 
L 261.667109 181.060156 
L 262.929618 164.294475 
L 264.192127 159.329511 
L 265.454637 156.62182 
L 266.717146 155.467005 
L 267.979655 164.289575 
L 269.242164 156.20717 
L 270.504674 156.636549 
L 271.767183 166.909878 
L 273.029692 181.038077 
L 274.292202 163.192883 
L 275.554711 191.412963 
L 276.81722 164.529182 
L 278.079729 164.125684 
L 279.342239 162.192115 
L 280.604748 160.991171 
L 281.867257 168.200805 
L 283.129767 161.408331 
L 284.392276 177.540616 
L 285.654785 160.840599 
L 286.917294 168.193101 
L 288.179804 165.18076 
L 289.442313 170.912327 
L 290.704822 157.764782 
L 291.967331 178.150516 
L 293.229841 162.958084 
L 294.49235 163.980022 
L 295.754859 156.036265 
L 297.017369 175.244631 
L 298.279878 157.643176 
L 299.542387 164.911875 
L 300.804896 156.885902 
L 302.067406 170.590345 
L 303.329915 157.502821 
L 304.592424 177.465465 
L 305.854934 162.330208 
L 307.117443 164.323306 
L 308.379952 164.908514 
L 309.642461 171.801271 
L 310.904971 175.869309 
L 312.16748 171.413973 
L 313.429989 164.488788 
L 314.692499 174.730826 
L 315.955008 169.170181 
L 317.217517 158.727579 
L 318.480026 177.502252 
L 319.742536 168.045677 
L 321.005045 161.975054 
L 322.267554 172.262342 
L 323.530064 168.865672 
L 324.792573 159.510201 
L 327.317591 190.569829 
L 328.580101 179.529804 
L 329.84261 157.245494 
L 331.105119 175.395802 
L 332.367628 162.105774 
L 333.630138 160.489729 
L 334.892647 168.108763 
L 336.155156 157.642674 
L 337.417666 164.507887 
L 338.680175 157.58628 
L 339.942684 172.04063 
L 341.205193 159.159804 
L 342.467703 158.246826 
L 343.730212 185.902713 
L 344.992721 171.616621 
L 346.255231 174.222782 
L 347.51774 157.249591 
L 348.780249 168.541682 
L 350.042758 158.408135 
L 351.305268 157.663914 
L 352.567777 162.918575 
L 353.830286 171.541994 
L 356.355305 178.584944 
L 357.617814 193.814812 
L 358.880323 172.712473 
L 360.142833 159.541613 
L 361.405342 165.325606 
L 362.667851 159.445952 
L 363.93036 194.199929 
L 365.19287 177.067961 
L 366.455379 162.617266 
L 367.717888 158.192801 
L 368.980398 157.859459 
L 370.242907 175.733501 
L 371.505416 186.47549 
L 372.767925 162.921541 
L 374.030435 166.694053 
L 375.292944 159.329 
L 376.555453 157.899857 
L 377.817963 162.283563 
L 379.080472 165.055262 
L 380.342981 165.772361 
L 381.60549 181.968437 
L 382.868 165.267143 
L 384.130509 168.74792 
L 385.393018 161.424258 
L 386.655528 158.763595 
L 387.918037 169.031368 
L 389.180546 157.085882 
L 390.443055 168.746977 
L 391.705565 166.319169 
L 392.968074 162.07017 
L 394.230583 159.550214 
L 395.493093 166.140127 
L 396.755602 179.853162 
L 398.018111 159.246219 
L 399.28062 158.94464 
L 400.54313 173.672326 
L 401.805639 173.524302 
L 401.805639 173.524302 
" clip-path="url(#p68f49d953c)" style="fill: none; stroke: #d66b6a; stroke-width: 1.5; stroke-linecap: square"/>
   </g>
   <g id="line2d_22">
    <path d="M 92.055504 427.4 
L 92.490865 209.365574 
L 93.753374 193.675517 
L 95.015884 188.490232 
L 96.278393 162.584713 
L 97.540902 157.262501 
L 98.803411 157.888321 
L 100.065921 165.017113 
L 101.32843 154.358715 
L 102.590939 159.487506 
L 103.853449 154.669169 
L 105.115958 166.001887 
L 106.378467 165.118367 
L 107.640976 165.752697 
L 108.903486 169.40476 
L 110.165995 160.861806 
L 111.428504 168.784531 
L 112.691014 152.94953 
L 113.953523 153.529596 
L 115.216032 163.048881 
L 116.478541 153.952779 
L 117.741051 165.480652 
L 119.00356 153.250045 
L 120.266069 175.354409 
L 121.528579 161.940762 
L 122.791088 173.674901 
L 124.053597 168.328389 
L 126.578616 152.881578 
L 127.841125 152.28416 
L 129.103634 174.717861 
L 130.366144 160.924934 
L 131.628653 152.835627 
L 132.891162 159.729035 
L 134.153671 174.169334 
L 135.416181 155.673696 
L 136.67869 163.629025 
L 137.941199 159.775964 
L 139.203708 157.090211 
L 140.466218 152.410778 
L 141.728727 156.599117 
L 142.991236 167.602514 
L 144.253746 151.453904 
L 145.516255 152.100662 
L 146.778764 174.587806 
L 148.041273 167.987938 
L 149.303783 156.958128 
L 150.566292 153.066413 
L 151.828801 152.545489 
L 153.091311 152.392462 
L 154.35382 181.269978 
L 155.616329 156.038155 
L 156.878838 160.739101 
L 158.141348 163.741988 
L 159.403857 179.175953 
L 160.666366 159.658065 
L 161.928876 156.428522 
L 163.191385 155.180524 
L 164.453894 158.763554 
L 165.716403 151.948007 
L 166.978913 189.37445 
L 168.241422 156.340652 
L 169.503931 170.463538 
L 170.766441 155.090518 
L 172.02895 152.43145 
L 173.291459 152.92034 
L 174.553968 178.069615 
L 175.816478 151.94781 
L 177.078987 166.751279 
L 178.341496 155.91917 
L 179.604005 152.773967 
L 180.866515 156.300576 
L 182.129024 155.626718 
L 183.391533 166.446882 
L 184.654043 153.108806 
L 185.916552 167.510265 
L 187.179061 152.146839 
L 189.70408 181.819533 
L 190.966589 170.86515 
L 192.229098 157.25731 
L 193.491608 156.637369 
L 194.754117 153.837692 
L 196.016626 157.103188 
L 197.279135 159.984923 
L 198.541645 152.662124 
L 199.804154 181.860132 
L 201.066663 166.75074 
L 203.591682 153.096273 
L 204.854191 159.083683 
L 206.1167 151.847137 
L 207.37921 152.571951 
L 208.641719 162.462218 
L 209.904228 174.242251 
L 211.166737 158.026087 
L 212.429247 153.010148 
L 213.691756 186.005552 
L 214.954265 156.623064 
L 216.216775 164.079385 
L 217.479284 153.22843 
L 218.741793 156.119413 
L 220.004302 152.647573 
L 221.266812 181.491987 
L 222.529321 154.999165 
L 223.79183 156.607302 
L 225.05434 151.730505 
L 226.316849 156.075001 
L 227.579358 167.254377 
L 228.841867 153.047973 
L 230.104377 155.288586 
L 231.366886 188.429782 
L 232.629395 177.83591 
L 233.891905 153.561094 
L 235.154414 167.001967 
L 236.416923 153.223801 
L 237.679432 156.011552 
L 238.941942 178.085756 
L 240.204451 173.952392 
L 241.46696 159.376906 
L 242.72947 166.410821 
L 243.991979 181.926839 
L 245.254488 167.238897 
L 246.516997 176.827438 
L 247.779507 156.352601 
L 249.042016 173.356092 
L 250.304525 152.568317 
L 251.567034 167.637351 
L 252.829544 185.312887 
L 254.092053 151.77329 
L 255.354562 159.276908 
L 256.617072 156.365141 
L 257.879581 174.765656 
L 259.14209 157.088001 
L 260.404599 174.514511 
L 261.667109 167.144005 
L 262.929618 156.250028 
L 264.192127 159.27542 
L 265.454637 177.837238 
L 266.717146 160.251852 
L 267.979655 162.967718 
L 269.242164 174.588971 
L 270.504674 157.388131 
L 271.767183 152.843432 
L 273.029692 163.851734 
L 274.292202 156.111892 
L 275.554711 163.124816 
L 276.81722 163.473732 
L 278.079729 185.043502 
L 279.342239 170.960903 
L 280.604748 159.847493 
L 281.867257 192.78724 
L 284.392276 156.404844 
L 285.654785 159.819993 
L 286.917294 181.515937 
L 288.179804 173.515441 
L 289.442313 171.192827 
L 290.704822 159.692238 
L 291.967331 167.490567 
L 293.229841 167.854043 
L 294.49235 163.234946 
L 295.754859 170.723017 
L 297.017369 180.941404 
L 298.279878 152.486565 
L 299.542387 178.096512 
L 300.804896 163.195947 
L 302.067406 163.030481 
L 303.329915 164.34803 
L 304.592424 156.316207 
L 305.854934 163.78396 
L 307.117443 173.820058 
L 308.379952 160.075223 
L 309.642461 162.075016 
L 310.904971 166.851022 
L 312.16748 161.193443 
L 313.429989 152.658616 
L 314.692499 160.594032 
L 315.955008 162.827184 
L 318.480026 192.338878 
L 319.742536 151.097332 
L 321.005045 156.296376 
L 322.267554 167.805022 
L 323.530064 166.57494 
L 324.792573 151.759909 
L 326.055082 156.507627 
L 327.317591 178.060566 
L 328.580101 164.401115 
L 329.84261 167.539401 
L 331.105119 153.368933 
L 332.367628 158.455417 
L 333.630138 151.950515 
L 334.892647 152.767584 
L 336.155156 168.820364 
L 337.417666 164.133949 
L 338.680175 178.031424 
L 339.942684 153.247845 
L 341.205193 170.319474 
L 342.467703 191.650131 
L 343.730212 152.040106 
L 346.255231 153.161465 
L 347.51774 180.709452 
L 348.780249 152.589431 
L 350.042758 170.159732 
L 351.305268 181.847289 
L 352.567777 165.963538 
L 353.830286 162.263306 
L 355.092796 170.245284 
L 356.355305 170.123694 
L 357.617814 159.50525 
L 358.880323 158.88754 
L 360.142833 162.592718 
L 361.405342 159.664058 
L 362.667851 159.840455 
L 363.93036 169.753698 
L 365.19287 165.513308 
L 366.455379 174.698706 
L 367.717888 173.97977 
L 368.980398 168.037184 
L 370.242907 152.592512 
L 372.767925 167.552705 
L 374.030435 152.176508 
L 375.292944 163.7424 
L 376.555453 156.724536 
L 377.817963 178.226563 
L 379.080472 152.700526 
L 380.342981 180.50838 
L 381.60549 160.305403 
L 382.868 170.591003 
L 384.130509 153.437763 
L 385.393018 159.697268 
L 386.655528 152.424881 
L 387.918037 152.725597 
L 389.180546 153.36661 
L 390.443055 160.412419 
L 391.705565 170.065095 
L 392.968074 153.856663 
L 394.230583 173.490309 
L 395.493093 152.842811 
L 396.755602 153.083281 
L 398.018111 152.553812 
L 399.28062 175.092534 
L 400.54313 152.45937 
L 401.805639 153.23954 
L 401.805639 153.23954 
" clip-path="url(#p68f49d953c)" style="fill: none; stroke: #5591e1; stroke-width: 1.5; stroke-linecap: square"/>
   </g>
   <g id="line2d_23">
    <path d="M 90.773191 427.4 
L 91.228356 190.033539 
L 92.490865 164.060044 
L 93.753374 166.747861 
L 95.015884 184.173368 
L 96.278393 196.942973 
L 97.540902 153.400068 
L 98.803411 175.499427 
L 100.065921 167.408135 
L 101.32843 168.163358 
L 102.590939 166.333692 
L 103.853449 163.348792 
L 105.115958 152.643815 
L 106.378467 166.795927 
L 107.640976 152.832893 
L 108.903486 178.89906 
L 110.165995 166.493487 
L 111.428504 156.227858 
L 112.691014 159.575561 
L 113.953523 158.504488 
L 115.216032 166.21798 
L 116.478541 160.325475 
L 117.741051 152.659277 
L 119.00356 165.898629 
L 120.266069 177.742273 
L 121.528579 169.353046 
L 122.791088 163.067752 
L 126.578616 152.789438 
L 127.841125 162.564402 
L 129.103634 163.820725 
L 130.366144 162.789624 
L 131.628653 164.295835 
L 132.891162 160.491541 
L 134.153671 167.385178 
L 135.416181 173.107399 
L 136.67869 156.74136 
L 137.941199 170.458272 
L 139.203708 169.780949 
L 140.466218 166.83452 
L 141.728727 156.2399 
L 142.991236 159.218371 
L 144.253746 151.391324 
L 145.516255 152.045463 
L 146.778764 153.44295 
L 148.041273 180.750036 
L 149.303783 152.587864 
L 150.566292 152.274688 
L 151.828801 159.467837 
L 153.091311 184.288317 
L 154.35382 177.9933 
L 155.616329 162.747484 
L 156.878838 159.233644 
L 158.141348 173.634966 
L 159.403857 156.052738 
L 160.666366 179.405176 
L 161.928876 151.335307 
L 163.191385 162.734206 
L 164.453894 150.8857 
L 166.978913 167.199501 
L 168.241422 153.81553 
L 169.503931 151.374725 
L 170.766441 167.067428 
L 172.02895 167.419748 
L 173.291459 153.224544 
L 174.553968 156.118463 
L 175.816478 162.748673 
L 177.078987 152.835229 
L 178.341496 152.371993 
L 179.604005 159.645363 
L 180.866515 155.98234 
L 183.391533 177.524078 
L 184.654043 159.179539 
L 185.916552 159.278241 
L 187.179061 167.291616 
L 188.44157 152.648791 
L 189.70408 162.942876 
L 190.966589 159.246866 
L 192.229098 155.906608 
L 193.491608 158.435616 
L 194.754117 159.106797 
L 196.016626 177.152479 
L 197.279135 153.047043 
L 198.541645 163.534663 
L 199.804154 166.127578 
L 201.066663 172.627247 
L 202.329173 155.513947 
L 203.591682 152.42137 
L 204.854191 156.584689 
L 206.1167 153.221587 
L 207.37921 194.58053 
L 208.641719 162.813613 
L 209.904228 153.357834 
L 211.166737 152.959959 
L 212.429247 174.104428 
L 213.691756 166.181744 
L 214.954265 153.056623 
L 216.216775 151.67401 
L 217.479284 163.007888 
L 218.741793 158.751588 
L 220.004302 152.922648 
L 221.266812 163.3257 
L 222.529321 152.124592 
L 223.79183 172.899672 
L 225.05434 180.706059 
L 226.316849 152.556356 
L 227.579358 152.903961 
L 228.841867 170.357041 
L 230.104377 167.282151 
L 231.366886 170.303412 
L 232.629395 152.178951 
L 233.891905 173.393543 
L 235.154414 181.372119 
L 236.416923 153.025041 
L 237.679432 157.550586 
L 238.941942 152.632979 
L 240.204451 163.293213 
L 241.46696 152.19222 
L 242.72947 162.736501 
L 243.991979 162.25588 
L 245.254488 188.972933 
L 246.516997 169.926876 
L 247.779507 167.501789 
L 249.042016 152.598414 
L 250.304525 153.62091 
L 251.567034 180.54502 
L 252.829544 152.694771 
L 254.092053 164.027796 
L 255.354562 170.733077 
L 256.617072 167.558438 
L 257.879581 159.605533 
L 259.14209 181.336541 
L 260.404599 166.567693 
L 261.667109 167.515401 
L 262.929618 157.441485 
L 264.192127 154.184295 
L 265.454637 157.345765 
L 266.717146 163.321354 
L 267.979655 163.909581 
L 269.242164 170.111445 
L 270.504674 204.277984 
L 271.767183 166.670757 
L 273.029692 164.662255 
L 274.292202 167.019026 
L 275.554711 188.598727 
L 276.81722 154.0279 
L 278.079729 154.682937 
L 279.342239 152.533027 
L 280.604748 154.48337 
L 281.867257 158.048498 
L 283.129767 153.571717 
L 284.392276 161.031515 
L 285.654785 174.690173 
L 286.917294 170.865844 
L 288.179804 163.673082 
L 289.442313 169.266132 
L 290.704822 154.941005 
L 291.967331 160.879568 
L 293.229841 152.282635 
L 294.49235 154.367575 
L 295.754859 156.887829 
L 297.017369 177.825372 
L 298.279878 171.710674 
L 299.542387 152.645514 
L 300.804896 162.183055 
L 302.067406 196.090361 
L 303.329915 167.396122 
L 304.592424 174.801253 
L 305.854934 157.835315 
L 307.117443 160.922602 
L 308.379952 164.801936 
L 309.642461 154.276195 
L 310.904971 163.930036 
L 312.16748 161.241222 
L 313.429989 162.328801 
L 314.692499 153.99296 
L 315.955008 164.717405 
L 317.217517 164.100532 
L 318.480026 154.492159 
L 321.005045 161.131031 
L 322.267554 177.851486 
L 323.530064 164.731961 
L 324.792573 154.263376 
L 326.055082 167.951791 
L 327.317591 160.553499 
L 328.580101 165.552828 
L 329.84261 163.158518 
L 331.105119 154.385041 
L 332.367628 164.512093 
L 333.630138 153.896446 
L 334.892647 165.569022 
L 336.155156 162.257167 
L 337.417666 159.304204 
L 338.680175 154.379575 
L 339.942684 169.249293 
L 341.205193 159.696745 
L 342.467703 153.889844 
L 343.730212 161.936931 
L 344.992721 156.174745 
L 346.255231 158.746169 
L 347.51774 182.355818 
L 348.780249 161.751675 
L 350.042758 165.19606 
L 351.305268 155.530441 
L 352.567777 157.454672 
L 353.830286 168.479679 
L 355.092796 170.551098 
L 356.355305 154.619943 
L 357.617814 179.553113 
L 358.880323 154.027552 
L 360.142833 153.952198 
L 361.405342 161.096093 
L 362.667851 185.694963 
L 363.93036 167.363999 
L 365.19287 152.238663 
L 366.455379 186.05929 
L 367.717888 154.536546 
L 368.980398 154.766859 
L 370.242907 159.89433 
L 371.505416 168.916169 
L 372.767925 166.111111 
L 374.030435 155.107799 
L 375.292944 158.78662 
L 376.555453 161.986979 
L 377.817963 155.263913 
L 379.080472 154.763465 
L 380.342981 165.592462 
L 382.868 153.990537 
L 384.130509 158.520805 
L 385.393018 165.032394 
L 386.655528 155.180333 
L 387.918037 158.794812 
L 389.180546 155.955498 
L 390.443055 176.627469 
L 391.705565 155.740672 
L 392.968074 156.516416 
L 394.230583 166.272672 
L 395.493093 159.112139 
L 396.755602 155.33448 
L 398.018111 183.342395 
L 399.28062 156.449288 
L 400.54313 162.519132 
L 401.805639 166.507629 
L 401.805639 166.507629 
" clip-path="url(#p68f49d953c)" style="fill: none; stroke: #6ca247; stroke-width: 1.5; stroke-linecap: square"/>
   </g>
   <g id="patch_3">
    <path d="M 71.722587 376.318305 
L 71.722587 7.2 
" style="fill: none; stroke: #000000; stroke-width: 0.8; stroke-linejoin: miter; stroke-linecap: square"/>
   </g>
   <g id="patch_4">
    <path d="M 417.523879 376.318305 
L 417.523879 7.2 
" style="fill: none; stroke: #000000; stroke-width: 0.8; stroke-linejoin: miter; stroke-linecap: square"/>
   </g>
   <g id="patch_5">
    <path d="M 71.722587 376.318305 
L 417.523879 376.318305 
" style="fill: none; stroke: #000000; stroke-width: 0.8; stroke-linejoin: miter; stroke-linecap: square"/>
   </g>
   <g id="patch_6">
    <path d="M 71.722587 7.2 
L 417.523879 7.2 
" style="fill: none; stroke: #000000; stroke-width: 0.8; stroke-linejoin: miter; stroke-linecap: square"/>
   </g>
   <g id="legend_1">
    <g id="patch_7">
     <path d="M 308.417969 86.898429 
L 406.323879 86.898429 
Q 409.523879 86.898429 409.523879 83.698429 
L 409.523879 18.4 
Q 409.523879 15.2 406.323879 15.2 
L 308.417969 15.2 
Q 305.217969 15.2 305.217969 18.4 
L 305.217969 83.698429 
Q 305.217969 86.898429 308.417969 86.898429 
z
" style="fill: #ffffff; opacity: 0.8; stroke: #cccccc; stroke-linejoin: miter"/>
    </g>
    <g id="line2d_24">
     <path d="M 311.617969 27.2 
L 327.617969 27.2 
L 343.617969 27.2 
" style="fill: none; stroke: #d66b6a; stroke-width: 1.5; stroke-linecap: square"/>
    </g>
    <g id="text_13">
     <!-- SAC -->
     <g transform="translate(356.417969 32.8) scale(0.16 -0.16)">
      <defs>
       <path id="CMR17-41" d="M 2323 4441 
C 2291 4524 2278 4544 2214 4544 
C 2150 4544 2138 4524 2106 4441 
L 749 580 
C 627 236 371 166 147 166 
L 147 0 
C 262 12 518 12 640 12 
C 800 12 1056 12 1210 0 
L 1210 166 
C 909 179 864 382 864 459 
C 864 516 877 548 890 586 
L 1229 1536 
L 2906 1536 
L 3290 453 
C 3322 376 3322 363 3322 338 
C 3322 166 3046 166 2925 166 
L 2925 0 
C 3110 12 3443 12 3642 12 
C 3808 12 4128 12 4282 0 
L 4282 166 
C 3942 166 3827 166 3744 402 
L 2323 4441 
z
M 2067 3924 
L 2848 1702 
L 1286 1702 
L 2067 3924 
z
" transform="scale(0.015625)"/>
       <path id="CMR17-43" d="M 3974 4351 
C 3974 4467 3968 4473 3930 4473 
C 3904 4473 3898 4467 3853 4390 
L 3571 3849 
C 3258 4249 2874 4480 2381 4480 
C 1286 4480 294 3507 294 2179 
C 294 837 1286 -128 2387 -128 
C 3366 -128 3974 741 3974 1482 
C 3974 1547 3974 1573 3917 1573 
C 3866 1573 3866 1553 3859 1495 
C 3808 592 3168 38 2477 38 
C 1824 38 781 502 781 2179 
C 781 3862 1843 4313 2464 4313 
C 3187 4313 3712 3681 3834 2785 
C 3846 2707 3846 2695 3904 2695 
C 3974 2695 3974 2707 3974 2824 
L 3974 4351 
z
" transform="scale(0.015625)"/>
      </defs>
      <use xlink:href="#CMR17-53" transform="scale(0.996264)"/>
      <use xlink:href="#CMR17-41" transform="translate(50.89537 0) scale(0.996264)"/>
      <use xlink:href="#CMR17-43" transform="translate(117.365346 0) scale(0.996264)"/>
     </g>
    </g>
    <g id="line2d_25">
     <path d="M 311.617969 49.499476 
L 327.617969 49.499476 
L 343.617969 49.499476 
" style="fill: none; stroke: #5591e1; stroke-width: 1.5; stroke-linecap: square"/>
    </g>
    <g id="text_14">
     <!-- AFU -->
     <g transform="translate(356.417969 55.099476) scale(0.16 -0.16)">
      <defs>
       <path id="CMR17-46" d="M 3482 4339 
L 326 4339 
L 326 4172 
C 768 4172 838 4172 838 3883 
L 838 450 
C 838 166 768 166 326 166 
L 326 0 
C 512 12 870 12 1069 12 
C 1331 12 1638 12 1901 0 
L 1901 166 
L 1760 166 
C 1274 166 1261 229 1261 456 
L 1261 2073 
L 1837 2073 
C 2432 2073 2490 1865 2490 1334 
L 2605 1334 
L 2605 2991 
L 2490 2991 
C 2490 2451 2432 2240 1837 2240 
L 1261 2240 
L 1261 3922 
C 1261 4140 1274 4172 1530 4172 
L 2355 4172 
C 3322 4172 3430 3774 3520 2920 
L 3635 2920 
L 3482 4339 
z
" transform="scale(0.015625)"/>
       <path id="CMR17-55" d="M 3456 1442 
C 3456 583 2899 38 2291 38 
C 1965 38 1670 211 1491 480 
C 1286 788 1261 1185 1261 1410 
L 1261 3897 
C 1261 4185 1331 4185 1773 4185 
L 1773 4352 
C 1587 4339 1248 4339 1050 4339 
C 851 4339 512 4339 326 4352 
L 326 4185 
C 768 4185 838 4185 838 3897 
L 838 1442 
C 838 519 1536 -128 2278 -128 
C 3110 -128 3590 724 3590 1352 
L 3590 3788 
C 3590 4147 3917 4185 4102 4185 
L 4102 4352 
C 3955 4339 3686 4339 3526 4339 
C 3366 4339 3091 4339 2944 4352 
L 2944 4185 
C 3456 4185 3456 3884 3456 3724 
L 3456 1442 
z
" transform="scale(0.015625)"/>
      </defs>
      <use xlink:href="#CMR17-41" transform="scale(0.996264)"/>
      <use xlink:href="#CMR17-46" transform="translate(69.07243 0) scale(0.996264)"/>
      <use xlink:href="#CMR17-55" transform="translate(129.056276 0) scale(0.996264)"/>
     </g>
    </g>
    <g id="line2d_26">
     <path d="M 311.617969 71.798952 
L 327.617969 71.798952 
L 343.617969 71.798952 
" style="fill: none; stroke: #6ca247; stroke-width: 1.5; stroke-linecap: square"/>
    </g>
    <g id="text_15">
     <!-- DDPG -->
     <g transform="translate(356.417969 77.398952) scale(0.16 -0.16)">
      <defs>
       <path id="CMR17-44" d="M 333 4352 
L 333 4185 
C 774 4185 845 4185 845 3898 
L 845 453 
C 845 166 774 166 333 166 
L 333 0 
L 2368 0 
C 3398 0 4224 943 4224 2140 
C 4224 3344 3411 4352 2368 4352 
L 333 4352 
z
M 1523 166 
C 1267 166 1254 198 1254 414 
L 1254 3936 
C 1254 4153 1267 4185 1523 4185 
L 2240 4185 
C 2771 4185 3750 3873 3750 2140 
C 3750 1242 3488 879 3366 707 
C 3213 510 2848 166 2240 166 
L 1523 166 
z
" transform="scale(0.015625)"/>
       <path id="CMR17-50" d="M 1267 2048 
L 2291 2048 
C 3117 2048 3718 2583 3718 3187 
C 3718 3791 3130 4352 2291 4352 
L 333 4352 
L 333 4185 
C 774 4185 845 4185 845 3899 
L 845 453 
C 845 166 774 166 333 166 
L 333 0 
C 518 12 858 12 1056 12 
C 1254 12 1594 12 1779 0 
L 1779 166 
C 1338 166 1267 166 1267 453 
L 1267 2048 
z
M 1254 2182 
L 1254 3937 
C 1254 4153 1267 4185 1523 4185 
L 2170 4185 
C 2995 4185 3232 3715 3232 3187 
C 3232 2608 2950 2182 2170 2182 
L 1254 2182 
z
" transform="scale(0.015625)"/>
       <path id="CMR17-47" d="M 3974 1258 
C 3974 1503 3994 1536 4390 1536 
L 4390 1702 
C 4237 1689 3891 1689 3718 1689 
C 3539 1689 3040 1696 2797 1702 
L 2797 1536 
L 2989 1536 
C 3539 1536 3552 1464 3552 1232 
L 3552 806 
C 3552 96 2720 38 2522 38 
C 1862 38 781 496 781 2179 
C 781 3862 1843 4313 2464 4313 
C 3187 4313 3712 3681 3834 2785 
C 3846 2708 3846 2695 3904 2695 
C 3974 2695 3974 2708 3974 2824 
L 3974 4351 
C 3974 4467 3968 4473 3930 4473 
C 3904 4473 3898 4467 3853 4390 
L 3571 3849 
C 3258 4249 2874 4480 2381 4480 
C 1286 4480 294 3507 294 2179 
C 294 858 1267 -128 2394 -128 
C 2912 -128 3418 57 3616 425 
C 3725 161 3904 -20 3936 -20 
C 3968 -20 3974 -13 3974 102 
L 3974 1258 
z
" transform="scale(0.015625)"/>
      </defs>
      <use xlink:href="#CMR17-44" transform="scale(0.996264)"/>
      <use xlink:href="#CMR17-44" transform="translate(70.393556 0) scale(0.996264)"/>
      <use xlink:href="#CMR17-50" transform="translate(140.787112 0) scale(0.996264)"/>
      <use xlink:href="#CMR17-47" transform="translate(203.373412 0) scale(0.996264)"/>
     </g>
    </g>
   </g>
  </g>
 </g>
 <defs>
  <clipPath id="p68f49d953c">
   <rect x="71.722587" y="7.2" width="345.801292" height="369.118305"/>
  </clipPath>
 </defs>
</svg>
