<?xml version="1.0" encoding="utf-8" standalone="no"?>
<!DOCTYPE svg PUBLIC "-//W3C//DTD SVG 1.1//EN"
  "http://www.w3.org/Graphics/SVG/1.1/DTD/svg11.dtd">
<svg xmlns:xlink="http://www.w3.org/1999/xlink" width="426.264882pt" height="426.4pt" viewBox="0 0 426.264882 426.4" xmlns="http://www.w3.org/2000/svg" version="1.1">
 <metadata>
  <rdf:RDF xmlns:dc="http://purl.org/dc/elements/1.1/" xmlns:cc="http://creativecommons.org/ns#" xmlns:rdf="http://www.w3.org/1999/02/22-rdf-syntax-ns#">
   <cc:Work>
    <dc:type rdf:resource="http://purl.org/dc/dcmitype/StillImage"/>
    <dc:date>1980-01-01T00:00:00+00:00</dc:date>
    <dc:format>image/svg+xml</dc:format>
    <dc:creator>
     <cc:Agent>
      <dc:title>Matplotlib v3.8.0, https://matplotlib.org/</dc:title>
     </cc:Agent>
    </dc:creator>
   </cc:Work>
  </rdf:RDF>
 </metadata>
 <defs>
  <style type="text/css">*{stroke-linejoin: round; stroke-linecap: butt}</style>
 </defs>
 <g id="figure_1">
  <g id="patch_1">
   <path d="M 0 426.4 
L 426.264882 426.4 
L 426.264882 0 
L 0 0 
z
" style="fill: #ffffff"/>
  </g>
  <g id="axes_1">
   <g id="patch_2">
    <path d="M 79.526574 376.318305 
L 417.523879 376.318305 
L 417.523879 7.2 
L 79.526574 7.2 
z
" style="fill: #ffffff"/>
   </g>
   <g id="PolyCollection_1">
    <defs>
     <path id="me24cd79add" d="M 94.890088 -168.424695 
L 94.890088 -138.916543 
L 96.124105 -72.991484 
L 97.358123 -222.297191 
L 98.59214 -363.590227 
L 99.826157 -364.941615 
L 101.060174 -370.489338 
L 102.294191 -366.401832 
L 103.528209 -366.358522 
L 104.762226 -365.25471 
L 105.996243 -366.563505 
L 107.23026 -385.157579 
L 108.464277 -367.1914 
L 109.698294 -366.362214 
L 110.932312 -385.427607 
L 112.166329 -366.191492 
L 113.400346 -366.276396 
L 114.634363 -366.950013 
L 115.86838 -366.221432 
L 117.102397 -371.432201 
L 118.336415 -366.896429 
L 119.570432 -365.417715 
L 120.804449 -366.174607 
L 122.038466 -366.886124 
L 123.272483 -366.26877 
L 124.506501 -366.986887 
L 125.740518 -371.607213 
L 126.974535 -385.075754 
L 128.208552 -385.280528 
L 129.442569 -365.836205 
L 130.676586 -367.005669 
L 131.910604 -366.604154 
L 133.144621 -371.712528 
L 134.378638 -367.607226 
L 135.612655 -366.812049 
L 136.846672 -385.48087 
L 138.08069 -366.285462 
L 139.314707 -367.11642 
L 140.548724 -367.271453 
L 141.782741 -366.719183 
L 143.016758 -366.770035 
L 144.250775 -366.901874 
L 145.484793 -367.241831 
L 146.71881 -367.116344 
L 147.952827 -367.163221 
L 149.186844 -385.104843 
L 150.420861 -366.116681 
L 151.654878 -384.905548 
L 152.888896 -385.388604 
L 154.122913 -385.370181 
L 155.35693 -385.191397 
L 156.590947 -366.314851 
L 157.824964 -385.199323 
L 159.058982 -384.858955 
L 160.292999 -385.095883 
L 161.527016 -367.363184 
L 162.761033 -366.588165 
L 163.99505 -367.341869 
L 165.229067 -367.482863 
L 166.463085 -366.923347 
L 167.697102 -366.730839 
L 168.931119 -371.604725 
L 170.165136 -367.873375 
L 171.399153 -371.800295 
L 172.63317 -366.166621 
L 173.867188 -384.891708 
L 175.101205 -366.480976 
L 176.335222 -384.978606 
L 177.569239 -385.320531 
L 178.803256 -367.181619 
L 180.037274 -371.947091 
L 181.271291 -366.217115 
L 182.505308 -366.091288 
L 183.739325 -367.005989 
L 184.973342 -366.868679 
L 186.207359 -385.029789 
L 187.441377 -366.801108 
L 188.675394 -367.260948 
L 189.909411 -366.988214 
L 191.143428 -385.053994 
L 192.377445 -366.527278 
L 193.611463 -366.409234 
L 194.84548 -371.788838 
L 196.079497 -366.441785 
L 197.313514 -384.70194 
L 198.547531 -366.895197 
L 199.781548 -366.025756 
L 201.015566 -365.021482 
L 202.249583 -364.299986 
L 203.4836 -366.40939 
L 204.717617 -371.638018 
L 205.951634 -366.466084 
L 207.185651 -371.353305 
L 208.419669 -366.040682 
L 209.653686 -366.086571 
L 210.887703 -365.582169 
L 212.12172 -366.494693 
L 213.355737 -384.292357 
L 214.589755 -366.819024 
L 215.823772 -367.053305 
L 217.057789 -385.284651 
L 218.291806 -384.261968 
L 219.525823 -366.687968 
L 220.75984 -384.681028 
L 221.993858 -384.614674 
L 223.227875 -366.802902 
L 224.461892 -366.801477 
L 225.695909 -366.158686 
L 226.929926 -366.306966 
L 228.163944 -366.632141 
L 229.397961 -366.779707 
L 230.631978 -367.32655 
L 231.865995 -371.421507 
L 233.100012 -384.769124 
L 234.334029 -384.399922 
L 235.568047 -367.022094 
L 236.802064 -366.070884 
L 238.036081 -367.061099 
L 239.270098 -365.892474 
L 240.504115 -384.925126 
L 241.738132 -384.1878 
L 242.97215 -366.757581 
L 244.206167 -365.863063 
L 245.440184 -365.439609 
L 246.674201 -384.671996 
L 247.908218 -366.13158 
L 249.142236 -366.590799 
L 250.376253 -365.36433 
L 251.61027 -367.096116 
L 252.844287 -366.635638 
L 254.078304 -366.568386 
L 255.312321 -366.102483 
L 256.546339 -365.623039 
L 257.780356 -366.538021 
L 259.014373 -370.836692 
L 260.24839 -366.598263 
L 261.482407 -370.903337 
L 262.716424 -366.636609 
L 263.950442 -371.267735 
L 265.184459 -365.422526 
L 266.418476 -366.479291 
L 267.652493 -367.368464 
L 268.88651 -384.396576 
L 270.120528 -384.33743 
L 271.354545 -366.892603 
L 272.588562 -384.102075 
L 273.822579 -371.249296 
L 275.056596 -366.464439 
L 276.290613 -365.529195 
L 277.524631 -366.370286 
L 278.758648 -365.86882 
L 279.992665 -366.328939 
L 281.226682 -367.070912 
L 282.460699 -366.500698 
L 283.694717 -366.77017 
L 284.928734 -365.780617 
L 286.162751 -366.248109 
L 287.396768 -365.867615 
L 288.630785 -366.57324 
L 289.864802 -366.53686 
L 291.09882 -367.095583 
L 292.332837 -366.012703 
L 293.566854 -384.321487 
L 294.800871 -365.368109 
L 296.034888 -366.217442 
L 297.268905 -366.774506 
L 298.502923 -384.221357 
L 299.73694 -366.109049 
L 300.970957 -383.757453 
L 302.204974 -366.283668 
L 303.438991 -384.408668 
L 304.673009 -365.655241 
L 305.907026 -383.96001 
L 307.141043 -366.488493 
L 308.37506 -366.446743 
L 309.609077 -367.195707 
L 310.843094 -366.964684 
L 312.077112 -366.105006 
L 313.311129 -365.931769 
L 314.545146 -366.082825 
L 315.779163 -366.087304 
L 317.01318 -366.615555 
L 318.247197 -366.497879 
L 319.481215 -371.175099 
L 320.715232 -365.771963 
L 321.949249 -366.361529 
L 323.183266 -366.867299 
L 324.417283 -365.698047 
L 325.651301 -366.077321 
L 326.885318 -371.187683 
L 328.119335 -365.116613 
L 329.353352 -363.049751 
L 330.587369 -365.374455 
L 331.821386 -384.053742 
L 333.055404 -364.434035 
L 334.289421 -366.415894 
L 335.523438 -366.733886 
L 336.757455 -365.920072 
L 337.991472 -383.191913 
L 339.22549 -366.21687 
L 340.459507 -384.102672 
L 341.693524 -364.954577 
L 342.927541 -383.724262 
L 344.161558 -383.766006 
L 345.395575 -365.399044 
L 346.629593 -365.16651 
L 347.86361 -365.395436 
L 349.097627 -384.183889 
L 350.331644 -366.475966 
L 351.565661 -383.642146 
L 352.799678 -383.995024 
L 354.033696 -366.212948 
L 355.267713 -366.573287 
L 356.50173 -365.44695 
L 357.735747 -366.245304 
L 358.969764 -364.1555 
L 360.203782 -366.301914 
L 361.437799 -371.233853 
L 362.671816 -365.965913 
L 363.905833 -370.486702 
L 365.13985 -364.742489 
L 366.373867 -365.722178 
L 367.607885 -366.987779 
L 368.841902 -383.171521 
L 370.075919 -371.603453 
L 371.309936 -364.617637 
L 372.543953 -365.199561 
L 373.777971 -366.17556 
L 375.011988 -365.880422 
L 376.246005 -370.913355 
L 377.480022 -383.898401 
L 378.714039 -366.361381 
L 379.948056 -366.273616 
L 381.182074 -365.909854 
L 382.416091 -365.744364 
L 383.650108 -366.479411 
L 384.884125 -366.412443 
L 386.118142 -366.481759 
L 387.352159 -383.72067 
L 388.586177 -366.129667 
L 389.820194 -384.143075 
L 391.054211 -366.512816 
L 392.288228 -365.921949 
L 393.522245 -365.759614 
L 394.756263 -370.755492 
L 395.99028 -365.86885 
L 397.224297 -364.931047 
L 398.458314 -371.340618 
L 399.692331 -383.469248 
L 400.926348 -365.726394 
L 402.160366 -366.002117 
L 402.160366 -385.067926 
L 402.160366 -385.067926 
L 400.926348 -384.946941 
L 399.692331 -385.245292 
L 398.458314 -385.478182 
L 397.224297 -385.257449 
L 395.99028 -385.261292 
L 394.756263 -385.420718 
L 393.522245 -385.889059 
L 392.288228 -385.218673 
L 391.054211 -385.37675 
L 389.820194 -385.688288 
L 388.586177 -385.282446 
L 387.352159 -385.251237 
L 386.118142 -385.48591 
L 384.884125 -385.319437 
L 383.650108 -385.516845 
L 382.416091 -385.408899 
L 381.182074 -385.5285 
L 379.948056 -385.463146 
L 378.714039 -385.371522 
L 377.480022 -385.538022 
L 376.246005 -385.583928 
L 375.011988 -385.426093 
L 373.777971 -385.185257 
L 372.543953 -385.025593 
L 371.309936 -385.185323 
L 370.075919 -385.627942 
L 368.841902 -385.385155 
L 367.607885 -385.302837 
L 366.373867 -384.983218 
L 365.13985 -384.899927 
L 363.905833 -385.297997 
L 362.671816 -385.452754 
L 361.437799 -385.519224 
L 360.203782 -385.190687 
L 358.969764 -385.170785 
L 357.735747 -385.536573 
L 356.50173 -385.62829 
L 355.267713 -385.605919 
L 354.033696 -385.581794 
L 352.799678 -385.822851 
L 351.565661 -385.529362 
L 350.331644 -385.411989 
L 349.097627 -385.90071 
L 347.86361 -385.643475 
L 346.629593 -385.535157 
L 345.395575 -385.111872 
L 344.161558 -385.782842 
L 342.927541 -385.401742 
L 341.693524 -385.462914 
L 340.459507 -386.089944 
L 339.22549 -385.616911 
L 337.991472 -385.708103 
L 336.757455 -385.590906 
L 335.523438 -386.09075 
L 334.289421 -385.568435 
L 333.055404 -385.51736 
L 331.821386 -385.892737 
L 330.587369 -385.291011 
L 329.353352 -385.774455 
L 328.119335 -385.52433 
L 326.885318 -385.395916 
L 325.651301 -385.492091 
L 324.417283 -385.329863 
L 323.183266 -385.447749 
L 321.949249 -385.550162 
L 320.715232 -385.79777 
L 319.481215 -385.463089 
L 318.247197 -385.250778 
L 317.01318 -385.370896 
L 315.779163 -385.791616 
L 314.545146 -385.343416 
L 313.311129 -385.328448 
L 312.077112 -385.534782 
L 310.843094 -385.627774 
L 309.609077 -385.591569 
L 308.37506 -385.245923 
L 307.141043 -386.50758 
L 305.907026 -385.861838 
L 304.673009 -385.938214 
L 303.438991 -385.815647 
L 302.204974 -385.477868 
L 300.970957 -385.506628 
L 299.73694 -385.313575 
L 298.502923 -385.92344 
L 297.268905 -385.900425 
L 296.034888 -385.986071 
L 294.800871 -385.463946 
L 293.566854 -385.827789 
L 292.332837 -385.590211 
L 291.09882 -385.63533 
L 289.864802 -385.649857 
L 288.630785 -385.659906 
L 287.396768 -385.649437 
L 286.162751 -385.571376 
L 284.928734 -385.387446 
L 283.694717 -385.567761 
L 282.460699 -385.379582 
L 281.226682 -385.653704 
L 279.992665 -385.779631 
L 278.758648 -385.629061 
L 277.524631 -386.286639 
L 276.290613 -385.730381 
L 275.056596 -385.715862 
L 273.822579 -385.854028 
L 272.588562 -386.240257 
L 271.354545 -385.669462 
L 270.120528 -386.068448 
L 268.88651 -385.880979 
L 267.652493 -386.180481 
L 266.418476 -385.746324 
L 265.184459 -385.74225 
L 263.950442 -385.860402 
L 262.716424 -386.044768 
L 261.482407 -385.759902 
L 260.24839 -385.638632 
L 259.014373 -386.013523 
L 257.780356 -385.61045 
L 256.546339 -385.83949 
L 255.312321 -385.624827 
L 254.078304 -385.555044 
L 252.844287 -385.846261 
L 251.61027 -385.759579 
L 250.376253 -385.414122 
L 249.142236 -385.797283 
L 247.908218 -385.896551 
L 246.674201 -386.112809 
L 245.440184 -386.08476 
L 244.206167 -385.947549 
L 242.97215 -385.824114 
L 241.738132 -386.045075 
L 240.504115 -401.546919 
L 239.270098 -386.352164 
L 238.036081 -386.020942 
L 236.802064 -385.784307 
L 235.568047 -386.143564 
L 234.334029 -386.144847 
L 233.100012 -386.365114 
L 231.865995 -385.963709 
L 230.631978 -386.502452 
L 229.397961 -386.067052 
L 228.163944 -385.998474 
L 226.929926 -385.84547 
L 225.695909 -386.29014 
L 224.461892 -385.780732 
L 223.227875 -386.735575 
L 221.993858 -386.579951 
L 220.75984 -386.114433 
L 219.525823 -386.290076 
L 218.291806 -386.164216 
L 217.057789 -386.39749 
L 215.823772 -386.152803 
L 214.589755 -385.843013 
L 213.355737 -386.029102 
L 212.12172 -385.904395 
L 210.887703 -386.187896 
L 209.653686 -386.2951 
L 208.419669 -386.082714 
L 207.185651 -386.262263 
L 205.951634 -386.538891 
L 204.717617 -385.904291 
L 203.4836 -386.179293 
L 202.249583 -385.575276 
L 201.015566 -386.10513 
L 199.781548 -386.060822 
L 198.547531 -386.316533 
L 197.313514 -386.170781 
L 196.079497 -386.177791 
L 194.84548 -386.731023 
L 193.611463 -386.473157 
L 192.377445 -386.263154 
L 191.143428 -386.301334 
L 189.909411 -386.597553 
L 188.675394 -386.319222 
L 187.441377 -386.130853 
L 186.207359 -386.432065 
L 184.973342 -386.353123 
L 183.739325 -386.394452 
L 182.505308 -386.092685 
L 181.271291 -386.40426 
L 180.037274 -386.657345 
L 178.803256 -386.525977 
L 177.569239 -386.551205 
L 176.335222 -386.875893 
L 175.101205 -386.539797 
L 173.867188 -386.84495 
L 172.63317 -386.490965 
L 171.399153 -386.995338 
L 170.165136 -386.592484 
L 168.931119 -386.697693 
L 167.697102 -386.649987 
L 166.463085 -386.575472 
L 165.229067 -386.30117 
L 163.99505 -386.328075 
L 162.761033 -386.552438 
L 161.527016 -386.663972 
L 160.292999 -386.806139 
L 159.058982 -386.52982 
L 157.824964 -386.684063 
L 156.590947 -386.67986 
L 155.35693 -386.783417 
L 154.122913 -386.636738 
L 152.888896 -387.118177 
L 151.654878 -386.896461 
L 150.420861 -386.464986 
L 149.186844 -387.025159 
L 147.952827 -386.834347 
L 146.71881 -387.030845 
L 145.484793 -386.420975 
L 144.250775 -386.969047 
L 143.016758 -386.228577 
L 141.782741 -386.413052 
L 140.548724 -386.843201 
L 139.314707 -386.436922 
L 138.08069 -386.656577 
L 136.846672 -387.080505 
L 135.612655 -386.713199 
L 134.378638 -386.872249 
L 133.144621 -386.498598 
L 131.910604 -386.58587 
L 130.676586 -386.675516 
L 129.442569 -386.782625 
L 128.208552 -387.155235 
L 126.974535 -386.70038 
L 125.740518 -386.598826 
L 124.506501 -386.669709 
L 123.272483 -387.065658 
L 122.038466 -386.754911 
L 120.804449 -386.994993 
L 119.570432 -386.626291 
L 118.336415 -386.455231 
L 117.102397 -386.862551 
L 115.86838 -386.853792 
L 114.634363 -386.55096 
L 113.400346 -386.721868 
L 112.166329 -386.577609 
L 110.932312 -387.273794 
L 109.698294 -387.038105 
L 108.464277 -386.387224 
L 107.23026 -386.782442 
L 105.996243 -386.458766 
L 104.762226 -386.874024 
L 103.528209 -387.423096 
L 102.294191 -386.395894 
L 101.060174 -386.695346 
L 99.826157 -385.626761 
L 98.59214 -385.714445 
L 97.358123 -241.399344 
L 96.124105 -109.709057 
L 94.890088 -168.424695 
z
" style="stroke: #d66b6a; stroke-opacity: 0.2"/>
    </defs>
    <g clip-path="url(#pfbf0bdac0d)">
     <use xlink:href="#me24cd79add" x="0" y="426.4" style="fill: #d66b6a; fill-opacity: 0.2; stroke: #d66b6a; stroke-opacity: 0.2"/>
    </g>
   </g>
   <g id="PolyCollection_2">
    <defs>
     <path id="m6c7fbf7b89" d="M 94.890088 -126.26794 
L 94.890088 -66.8598 
L 96.124105 -74.550885 
L 97.358123 -102.945569 
L 98.59214 -213.286865 
L 99.826157 -360.211014 
L 101.060174 -362.411524 
L 102.294191 -363.39515 
L 103.528209 -365.788899 
L 104.762226 -367.124282 
L 105.996243 -365.477208 
L 107.23026 -366.039751 
L 108.464277 -384.778834 
L 109.698294 -365.406746 
L 110.932312 -371.116821 
L 112.166329 -364.28251 
L 113.400346 -366.096998 
L 114.634363 -365.031121 
L 115.86838 -364.681027 
L 117.102397 -365.794653 
L 118.336415 -365.304697 
L 119.570432 -385.144348 
L 120.804449 -371.771641 
L 122.038466 -365.332729 
L 123.272483 -384.703914 
L 124.506501 -366.100003 
L 125.740518 -371.318929 
L 126.974535 -365.810868 
L 128.208552 -366.253183 
L 129.442569 -365.317663 
L 130.676586 -366.500084 
L 131.910604 -366.291672 
L 133.144621 -371.411598 
L 134.378638 -371.238003 
L 135.612655 -366.063291 
L 136.846672 -366.24913 
L 138.08069 -385.127253 
L 139.314707 -365.95753 
L 140.548724 -365.820853 
L 141.782741 -366.849681 
L 143.016758 -366.371314 
L 144.250775 -366.271363 
L 145.484793 -367.210476 
L 146.71881 -371.145934 
L 147.952827 -366.84191 
L 149.186844 -366.083898 
L 150.420861 -385.333477 
L 151.654878 -385.265005 
L 152.888896 -365.757512 
L 154.122913 -366.249509 
L 155.35693 -366.199897 
L 156.590947 -371.739037 
L 157.824964 -371.57335 
L 159.058982 -385.404647 
L 160.292999 -365.663013 
L 161.527016 -366.907297 
L 162.761033 -366.582923 
L 163.99505 -366.687811 
L 165.229067 -365.715749 
L 166.463085 -366.619169 
L 167.697102 -367.336739 
L 168.931119 -367.40844 
L 170.165136 -366.514054 
L 171.399153 -385.260204 
L 172.63317 -365.506694 
L 173.867188 -366.817291 
L 175.101205 -366.253188 
L 176.335222 -366.931409 
L 177.569239 -385.156357 
L 178.803256 -371.402186 
L 180.037274 -364.690167 
L 181.271291 -385.496436 
L 182.505308 -365.38901 
L 183.739325 -367.370216 
L 184.973342 -384.749529 
L 186.207359 -366.999771 
L 187.441377 -367.428398 
L 188.675394 -366.779082 
L 189.909411 -385.295493 
L 191.143428 -365.097787 
L 192.377445 -385.34452 
L 193.611463 -366.516904 
L 194.84548 -365.803198 
L 196.079497 -366.18119 
L 197.313514 -367.113351 
L 198.547531 -366.665141 
L 199.781548 -384.913003 
L 201.015566 -367.133814 
L 202.249583 -366.473236 
L 203.4836 -384.984207 
L 204.717617 -365.634949 
L 205.951634 -366.469588 
L 207.185651 -365.905434 
L 208.419669 -370.897637 
L 209.653686 -366.866947 
L 210.887703 -385.20676 
L 212.12172 -384.937294 
L 213.355737 -366.631063 
L 214.589755 -365.781124 
L 215.823772 -367.058083 
L 217.057789 -384.824379 
L 218.291806 -365.220653 
L 219.525823 -367.931371 
L 220.75984 -366.294338 
L 221.993858 -385.176041 
L 223.227875 -366.433385 
L 224.461892 -385.05468 
L 225.695909 -365.0849 
L 226.929926 -367.131976 
L 228.163944 -367.140496 
L 229.397961 -385.168984 
L 230.631978 -366.960114 
L 231.865995 -366.932949 
L 233.100012 -385.48921 
L 234.334029 -367.243222 
L 235.568047 -366.211362 
L 236.802064 -366.228507 
L 238.036081 -384.941605 
L 239.270098 -366.952892 
L 240.504115 -371.547431 
L 241.738132 -365.558815 
L 242.97215 -365.981864 
L 244.206167 -366.431416 
L 245.440184 -366.651626 
L 246.674201 -365.948683 
L 247.908218 -365.518316 
L 249.142236 -365.865011 
L 250.376253 -366.676916 
L 251.61027 -367.264856 
L 252.844287 -365.236847 
L 254.078304 -385.344228 
L 255.312321 -366.194091 
L 256.546339 -365.695611 
L 257.780356 -385.485203 
L 259.014373 -366.831983 
L 260.24839 -366.737519 
L 261.482407 -366.317226 
L 262.716424 -366.849203 
L 263.950442 -365.986662 
L 265.184459 -366.611626 
L 266.418476 -367.035159 
L 267.652493 -366.630538 
L 268.88651 -365.857193 
L 270.120528 -366.670654 
L 271.354545 -366.330071 
L 272.588562 -365.963472 
L 273.822579 -367.166004 
L 275.056596 -371.482648 
L 276.290613 -366.52794 
L 277.524631 -367.226371 
L 278.758648 -366.293837 
L 279.992665 -366.783937 
L 281.226682 -366.291306 
L 282.460699 -366.009305 
L 283.694717 -366.331705 
L 284.928734 -365.442477 
L 286.162751 -365.902356 
L 287.396768 -366.987514 
L 288.630785 -366.535589 
L 289.864802 -365.586552 
L 291.09882 -366.353688 
L 292.332837 -365.575016 
L 293.566854 -366.843787 
L 294.800871 -366.546313 
L 296.034888 -366.408971 
L 297.268905 -366.308575 
L 298.502923 -366.35834 
L 299.73694 -366.437937 
L 300.970957 -371.512842 
L 302.204974 -366.194769 
L 303.438991 -366.692074 
L 304.673009 -366.970035 
L 305.907026 -366.314358 
L 307.141043 -366.674742 
L 308.37506 -366.843553 
L 309.609077 -366.628601 
L 310.843094 -366.726346 
L 312.077112 -367.266144 
L 313.311129 -366.575046 
L 314.545146 -366.974591 
L 315.779163 -385.24841 
L 317.01318 -366.700473 
L 318.247197 -366.417031 
L 319.481215 -366.371855 
L 320.715232 -365.818739 
L 321.949249 -371.3185 
L 323.183266 -366.703544 
L 324.417283 -366.445291 
L 325.651301 -366.777775 
L 326.885318 -385.225957 
L 328.119335 -367.108141 
L 329.353352 -366.342865 
L 330.587369 -366.532654 
L 331.821386 -366.102662 
L 333.055404 -371.499503 
L 334.289421 -367.245998 
L 335.523438 -371.641006 
L 336.757455 -371.557222 
L 337.991472 -366.716512 
L 339.22549 -366.811029 
L 340.459507 -365.579122 
L 341.693524 -385.13589 
L 342.927541 -365.618487 
L 344.161558 -365.323213 
L 345.395575 -385.163237 
L 346.629593 -371.581653 
L 347.86361 -371.504751 
L 349.097627 -366.41476 
L 350.331644 -371.741701 
L 351.565661 -365.819383 
L 352.799678 -365.796514 
L 354.033696 -366.609199 
L 355.267713 -366.285702 
L 356.50173 -366.528375 
L 357.735747 -365.678819 
L 358.969764 -367.087781 
L 360.203782 -366.945345 
L 361.437799 -366.653244 
L 362.671816 -366.266992 
L 363.905833 -367.425244 
L 365.13985 -366.835327 
L 366.373867 -366.727429 
L 367.607885 -366.330072 
L 368.841902 -365.814527 
L 370.075919 -365.371742 
L 371.309936 -371.700052 
L 372.543953 -366.576283 
L 373.777971 -366.440835 
L 375.011988 -371.428011 
L 376.246005 -366.990398 
L 377.480022 -366.914564 
L 378.714039 -366.137332 
L 379.948056 -385.146412 
L 381.182074 -365.9891 
L 382.416091 -366.473786 
L 383.650108 -366.647974 
L 384.884125 -371.87685 
L 386.118142 -367.208275 
L 387.352159 -385.297066 
L 388.586177 -385.201799 
L 389.820194 -371.589223 
L 391.054211 -366.717245 
L 392.288228 -366.233907 
L 393.522245 -384.848251 
L 394.756263 -366.504315 
L 395.99028 -371.776644 
L 397.224297 -385.253561 
L 398.458314 -384.641031 
L 399.692331 -365.059636 
L 400.926348 -371.15394 
L 402.160366 -371.562172 
L 402.160366 -387.17018 
L 402.160366 -387.17018 
L 400.926348 -386.907682 
L 399.692331 -386.619083 
L 398.458314 -386.839939 
L 397.224297 -386.464824 
L 395.99028 -386.774487 
L 394.756263 -386.779664 
L 393.522245 -386.663976 
L 392.288228 -386.907203 
L 391.054211 -386.81584 
L 389.820194 -386.553364 
L 388.586177 -386.744324 
L 387.352159 -386.772945 
L 386.118142 -386.630296 
L 384.884125 -386.792182 
L 383.650108 -386.510425 
L 382.416091 -386.895496 
L 381.182074 -386.761612 
L 379.948056 -386.949866 
L 378.714039 -386.554395 
L 377.480022 -386.579931 
L 376.246005 -386.470116 
L 375.011988 -401.729505 
L 373.777971 -386.599466 
L 372.543953 -386.632178 
L 371.309936 -386.830683 
L 370.075919 -386.752386 
L 368.841902 -386.630328 
L 367.607885 -386.652359 
L 366.373867 -386.858171 
L 365.13985 -386.792824 
L 363.905833 -386.633591 
L 362.671816 -386.985229 
L 361.437799 -386.809852 
L 360.203782 -386.827958 
L 358.969764 -386.951425 
L 357.735747 -386.765826 
L 356.50173 -386.818529 
L 355.267713 -387.035634 
L 354.033696 -387.016611 
L 352.799678 -386.759212 
L 351.565661 -386.876733 
L 350.331644 -386.577944 
L 349.097627 -386.814768 
L 347.86361 -386.893025 
L 346.629593 -386.675939 
L 345.395575 -387.158676 
L 344.161558 -386.434692 
L 342.927541 -386.721229 
L 341.693524 -386.739089 
L 340.459507 -386.732198 
L 339.22549 -386.447016 
L 337.991472 -387.011084 
L 336.757455 -386.730298 
L 335.523438 -386.980501 
L 334.289421 -386.977076 
L 333.055404 -386.765476 
L 331.821386 -386.433972 
L 330.587369 -386.363097 
L 329.353352 -386.624498 
L 328.119335 -386.553598 
L 326.885318 -386.96768 
L 325.651301 -386.628608 
L 324.417283 -386.319873 
L 323.183266 -386.728723 
L 321.949249 -387.161923 
L 320.715232 -386.693297 
L 319.481215 -386.621167 
L 318.247197 -386.775652 
L 317.01318 -386.45391 
L 315.779163 -386.742651 
L 314.545146 -386.303401 
L 313.311129 -386.830351 
L 312.077112 -386.949725 
L 310.843094 -386.734251 
L 309.609077 -386.652115 
L 308.37506 -386.630592 
L 307.141043 -386.686187 
L 305.907026 -386.566394 
L 304.673009 -386.931205 
L 303.438991 -386.602245 
L 302.204974 -386.416915 
L 300.970957 -386.710416 
L 299.73694 -386.751979 
L 298.502923 -386.88352 
L 297.268905 -386.838991 
L 296.034888 -386.400964 
L 294.800871 -386.393129 
L 293.566854 -386.835478 
L 292.332837 -386.582816 
L 291.09882 -386.487929 
L 289.864802 -386.542506 
L 288.630785 -386.701973 
L 287.396768 -386.673562 
L 286.162751 -386.433752 
L 284.928734 -386.390159 
L 283.694717 -386.56818 
L 282.460699 -386.560513 
L 281.226682 -386.383434 
L 279.992665 -386.696164 
L 278.758648 -386.787503 
L 277.524631 -386.892501 
L 276.290613 -386.511158 
L 275.056596 -386.764002 
L 273.822579 -386.59796 
L 272.588562 -386.637544 
L 271.354545 -386.863212 
L 270.120528 -386.344239 
L 268.88651 -386.376464 
L 267.652493 -386.816899 
L 266.418476 -386.581566 
L 265.184459 -387.01953 
L 263.950442 -386.581729 
L 262.716424 -386.592478 
L 261.482407 -386.461955 
L 260.24839 -386.809917 
L 259.014373 -402.304727 
L 257.780356 -386.982218 
L 256.546339 -386.570228 
L 255.312321 -386.550835 
L 254.078304 -386.726121 
L 252.844287 -402.286806 
L 251.61027 -386.766922 
L 250.376253 -386.602007 
L 249.142236 -386.590715 
L 247.908218 -386.501045 
L 246.674201 -387.060064 
L 245.440184 -386.862295 
L 244.206167 -386.744789 
L 242.97215 -387.010443 
L 241.738132 -386.801445 
L 240.504115 -386.702323 
L 239.270098 -386.673527 
L 238.036081 -386.510863 
L 236.802064 -386.450016 
L 235.568047 -386.4434 
L 234.334029 -387.090924 
L 233.100012 -386.426847 
L 231.865995 -386.808611 
L 230.631978 -386.813059 
L 229.397961 -387.003072 
L 228.163944 -386.814778 
L 226.929926 -387.068966 
L 225.695909 -386.822873 
L 224.461892 -387.033546 
L 223.227875 -386.651291 
L 221.993858 -386.816675 
L 220.75984 -386.496972 
L 219.525823 -386.632867 
L 218.291806 -386.45682 
L 217.057789 -386.925602 
L 215.823772 -387.138078 
L 214.589755 -386.539255 
L 213.355737 -386.816095 
L 212.12172 -386.802079 
L 210.887703 -402.421895 
L 209.653686 -386.850539 
L 208.419669 -386.752298 
L 207.185651 -387.045597 
L 205.951634 -386.603694 
L 204.717617 -386.503983 
L 203.4836 -386.762427 
L 202.249583 -386.552661 
L 201.015566 -386.61177 
L 199.781548 -386.825001 
L 198.547531 -386.689355 
L 197.313514 -386.468556 
L 196.079497 -386.561364 
L 194.84548 -386.276735 
L 193.611463 -386.705178 
L 192.377445 -386.929511 
L 191.143428 -386.571999 
L 189.909411 -386.503123 
L 188.675394 -386.816264 
L 187.441377 -386.796704 
L 186.207359 -386.703223 
L 184.973342 -386.707671 
L 183.739325 -386.824768 
L 182.505308 -386.768586 
L 181.271291 -386.813097 
L 180.037274 -386.66213 
L 178.803256 -386.736772 
L 177.569239 -386.713242 
L 176.335222 -386.776191 
L 175.101205 -386.480874 
L 173.867188 -386.951677 
L 172.63317 -386.29191 
L 171.399153 -386.998096 
L 170.165136 -386.909092 
L 168.931119 -386.948154 
L 167.697102 -386.767777 
L 166.463085 -386.802597 
L 165.229067 -386.707248 
L 163.99505 -386.876422 
L 162.761033 -386.238889 
L 161.527016 -386.667495 
L 160.292999 -386.431787 
L 159.058982 -386.649164 
L 157.824964 -386.874015 
L 156.590947 -386.730541 
L 155.35693 -386.387136 
L 154.122913 -386.343918 
L 152.888896 -386.690633 
L 151.654878 -387.11695 
L 150.420861 -387.018066 
L 149.186844 -386.833981 
L 147.952827 -386.646377 
L 146.71881 -386.824888 
L 145.484793 -386.5013 
L 144.250775 -386.826004 
L 143.016758 -387.027891 
L 141.782741 -387.224567 
L 140.548724 -386.810713 
L 139.314707 -386.668302 
L 138.08069 -386.670558 
L 136.846672 -386.534742 
L 135.612655 -386.45864 
L 134.378638 -386.892674 
L 133.144621 -386.946891 
L 131.910604 -386.722796 
L 130.676586 -386.478028 
L 129.442569 -386.781013 
L 128.208552 -386.289248 
L 126.974535 -386.458118 
L 125.740518 -386.534726 
L 124.506501 -386.362921 
L 123.272483 -386.584528 
L 122.038466 -387.006688 
L 120.804449 -386.648651 
L 119.570432 -386.974231 
L 118.336415 -386.418933 
L 117.102397 -386.704197 
L 115.86838 -386.485421 
L 114.634363 -386.286308 
L 113.400346 -386.331926 
L 112.166329 -386.327742 
L 110.932312 -386.507396 
L 109.698294 -386.07683 
L 108.464277 -386.364886 
L 107.23026 -386.308152 
L 105.996243 -386.539214 
L 104.762226 -386.655924 
L 103.528209 -386.400721 
L 102.294191 -385.392749 
L 101.060174 -385.453706 
L 99.826157 -384.657647 
L 98.59214 -246.848548 
L 97.358123 -154.76823 
L 96.124105 -99.587348 
L 94.890088 -126.26794 
z
" style="stroke: #5591e1; stroke-opacity: 0.2"/>
    </defs>
    <g clip-path="url(#pfbf0bdac0d)">
     <use xlink:href="#m6c7fbf7b89" x="0" y="426.4" style="fill: #5591e1; fill-opacity: 0.2; stroke: #5591e1; stroke-opacity: 0.2"/>
    </g>
   </g>
   <g id="PolyCollection_3">
    <defs>
     <path id="mf8ba30b19d" d="M 94.890088 -194.860217 
L 94.890088 -122.80758 
L 96.124105 -88.493241 
L 97.358123 -216.480275 
L 98.59214 -361.46549 
L 99.826157 -365.077489 
L 101.060174 -365.354018 
L 102.294191 -364.082001 
L 103.528209 -364.166251 
L 104.762226 -384.766401 
L 105.996243 -365.27991 
L 107.23026 -365.637205 
L 108.464277 -365.588495 
L 109.698294 -365.567337 
L 110.932312 -365.339582 
L 112.166329 -384.876098 
L 113.400346 -366.193627 
L 114.634363 -372.113024 
L 115.86838 -365.613295 
L 117.102397 -366.884801 
L 118.336415 -367.291699 
L 119.570432 -366.583637 
L 120.804449 -367.29231 
L 122.038466 -366.981211 
L 123.272483 -366.917314 
L 124.506501 -372.042555 
L 125.740518 -366.585152 
L 126.974535 -366.153288 
L 128.208552 -366.662706 
L 129.442569 -367.008147 
L 130.676586 -366.924049 
L 131.910604 -367.35579 
L 133.144621 -385.165611 
L 134.378638 -367.014592 
L 135.612655 -366.98161 
L 136.846672 -366.741164 
L 138.08069 -367.05214 
L 139.314707 -367.606945 
L 140.548724 -366.407532 
L 141.782741 -366.482164 
L 143.016758 -367.280319 
L 144.250775 -366.673764 
L 145.484793 -366.814779 
L 146.71881 -366.256955 
L 147.952827 -367.42748 
L 149.186844 -366.718095 
L 150.420861 -385.327659 
L 151.654878 -371.790014 
L 152.888896 -372.146964 
L 154.122913 -366.473794 
L 155.35693 -372.258831 
L 156.590947 -371.848993 
L 157.824964 -367.574679 
L 159.058982 -366.595203 
L 160.292999 -366.103216 
L 161.527016 -366.653019 
L 162.761033 -367.516268 
L 163.99505 -367.11565 
L 165.229067 -367.424934 
L 166.463085 -366.766367 
L 167.697102 -385.52124 
L 168.931119 -366.975558 
L 170.165136 -385.264027 
L 171.399153 -367.663448 
L 172.63317 -367.316741 
L 173.867188 -371.81324 
L 175.101205 -385.394136 
L 176.335222 -366.968054 
L 177.569239 -366.192228 
L 178.803256 -385.239665 
L 180.037274 -368.052502 
L 181.271291 -367.013294 
L 182.505308 -384.94605 
L 183.739325 -385.284094 
L 184.973342 -367.044236 
L 186.207359 -367.805452 
L 187.441377 -367.189189 
L 188.675394 -366.63568 
L 189.909411 -367.419196 
L 191.143428 -367.803662 
L 192.377445 -366.705845 
L 193.611463 -385.3446 
L 194.84548 -366.951936 
L 196.079497 -366.971889 
L 197.313514 -367.564652 
L 198.547531 -367.747032 
L 199.781548 -367.268835 
L 201.015566 -365.909306 
L 202.249583 -384.950858 
L 203.4836 -367.196732 
L 204.717617 -366.923728 
L 205.951634 -366.952375 
L 207.185651 -367.460166 
L 208.419669 -385.398304 
L 209.653686 -367.371614 
L 210.887703 -372.123927 
L 212.12172 -366.273188 
L 213.355737 -367.22946 
L 214.589755 -372.395019 
L 215.823772 -385.281061 
L 217.057789 -366.309195 
L 218.291806 -366.487173 
L 219.525823 -385.258741 
L 220.75984 -385.337737 
L 221.993858 -366.743176 
L 223.227875 -367.343599 
L 224.461892 -371.861502 
L 225.695909 -367.06368 
L 226.929926 -384.993372 
L 228.163944 -367.115258 
L 229.397961 -366.762972 
L 230.631978 -372.069025 
L 231.865995 -371.965502 
L 233.100012 -366.500192 
L 234.334029 -367.160136 
L 235.568047 -366.92882 
L 236.802064 -372.480406 
L 238.036081 -366.40323 
L 239.270098 -365.699076 
L 240.504115 -385.164387 
L 241.738132 -367.8703 
L 242.97215 -385.23273 
L 244.206167 -367.718952 
L 245.440184 -385.514257 
L 246.674201 -367.278249 
L 247.908218 -367.307426 
L 249.142236 -366.274441 
L 250.376253 -366.751612 
L 251.61027 -367.128263 
L 252.844287 -385.296168 
L 254.078304 -385.008537 
L 255.312321 -366.581277 
L 256.546339 -385.120187 
L 257.780356 -367.094102 
L 259.014373 -365.776614 
L 260.24839 -366.718408 
L 261.482407 -368.091243 
L 262.716424 -365.293768 
L 263.950442 -367.792796 
L 265.184459 -367.064714 
L 266.418476 -367.365564 
L 267.652493 -384.715663 
L 268.88651 -367.733206 
L 270.120528 -367.659586 
L 271.354545 -367.239174 
L 272.588562 -367.053522 
L 273.822579 -364.780297 
L 275.056596 -367.157063 
L 276.290613 -367.421837 
L 277.524631 -367.106746 
L 278.758648 -366.629195 
L 279.992665 -384.801248 
L 281.226682 -384.066417 
L 282.460699 -384.936533 
L 283.694717 -384.185465 
L 284.928734 -367.901793 
L 286.162751 -384.720123 
L 287.396768 -366.970195 
L 288.630785 -366.023515 
L 289.864802 -366.646398 
L 291.09882 -367.221007 
L 292.332837 -365.875126 
L 293.566854 -372.452284 
L 294.800871 -367.573568 
L 296.034888 -385.153352 
L 297.268905 -371.710381 
L 298.502923 -367.387352 
L 299.73694 -365.544493 
L 300.970957 -367.103829 
L 302.204974 -385.010524 
L 303.438991 -368.012409 
L 304.673009 -365.36672 
L 305.907026 -366.065671 
L 307.141043 -366.658673 
L 308.37506 -367.577153 
L 309.609077 -367.450181 
L 310.843094 -366.733486 
L 312.077112 -384.239821 
L 313.311129 -367.059221 
L 314.545146 -367.145277 
L 315.779163 -365.850847 
L 317.01318 -370.663524 
L 318.247197 -366.637792 
L 319.481215 -367.081581 
L 320.715232 -384.944009 
L 321.949249 -367.096933 
L 323.183266 -367.423946 
L 324.417283 -366.664851 
L 325.651301 -367.085508 
L 326.885318 -372.150954 
L 328.119335 -367.418967 
L 329.353352 -367.44962 
L 330.587369 -366.523152 
L 331.821386 -367.194219 
L 333.055404 -384.297672 
L 334.289421 -367.680055 
L 335.523438 -384.484493 
L 336.757455 -367.096728 
L 337.991472 -366.471076 
L 339.22549 -367.561419 
L 340.459507 -384.684081 
L 341.693524 -366.931935 
L 342.927541 -367.44451 
L 344.161558 -384.231938 
L 345.395575 -367.403358 
L 346.629593 -372.092783 
L 347.86361 -367.499335 
L 349.097627 -365.569804 
L 350.331644 -367.182569 
L 351.565661 -367.014387 
L 352.799678 -372.038396 
L 354.033696 -367.499265 
L 355.267713 -366.573831 
L 356.50173 -366.548883 
L 357.735747 -372.010028 
L 358.969764 -365.867056 
L 360.203782 -384.600188 
L 361.437799 -384.986223 
L 362.671816 -367.118877 
L 363.905833 -366.892487 
L 365.13985 -366.522399 
L 366.373867 -385.281854 
L 367.607885 -365.768456 
L 368.841902 -384.365597 
L 370.075919 -383.8946 
L 371.309936 -367.483759 
L 372.543953 -366.855967 
L 373.777971 -367.272477 
L 375.011988 -384.240205 
L 376.246005 -366.908433 
L 377.480022 -367.675067 
L 378.714039 -384.521451 
L 379.948056 -383.937658 
L 381.182074 -366.022949 
L 382.416091 -367.514784 
L 383.650108 -384.589239 
L 384.884125 -367.690517 
L 386.118142 -367.168614 
L 387.352159 -372.009928 
L 388.586177 -367.847312 
L 389.820194 -371.493233 
L 391.054211 -365.947602 
L 392.288228 -383.448442 
L 393.522245 -371.185139 
L 394.756263 -366.130925 
L 395.99028 -366.443432 
L 397.224297 -384.484741 
L 398.458314 -365.318959 
L 399.692331 -372.060664 
L 400.926348 -367.384777 
L 402.160366 -367.484465 
L 402.160366 -386.665039 
L 402.160366 -386.665039 
L 400.926348 -386.445463 
L 399.692331 -386.125973 
L 398.458314 -386.141301 
L 397.224297 -386.254584 
L 395.99028 -386.444876 
L 394.756263 -386.56296 
L 393.522245 -386.286217 
L 392.288228 -386.243274 
L 391.054211 -386.13355 
L 389.820194 -386.103527 
L 388.586177 -386.552489 
L 387.352159 -386.669064 
L 386.118142 -386.414998 
L 384.884125 -386.909892 
L 383.650108 -386.434511 
L 382.416091 -386.309693 
L 381.182074 -386.288581 
L 379.948056 -386.611018 
L 378.714039 -386.262148 
L 377.480022 -386.508607 
L 376.246005 -386.300667 
L 375.011988 -386.45954 
L 373.777971 -385.997226 
L 372.543953 -386.164083 
L 371.309936 -386.544376 
L 370.075919 -386.469599 
L 368.841902 -386.562683 
L 367.607885 -386.056245 
L 366.373867 -387.043243 
L 365.13985 -386.643903 
L 363.905833 -386.098622 
L 362.671816 -386.411355 
L 361.437799 -386.582336 
L 360.203782 -386.445091 
L 358.969764 -386.101851 
L 357.735747 -386.757986 
L 356.50173 -386.891737 
L 355.267713 -386.44714 
L 354.033696 -386.697347 
L 352.799678 -386.461147 
L 351.565661 -386.586848 
L 350.331644 -386.504281 
L 349.097627 -386.709044 
L 347.86361 -386.395491 
L 346.629593 -386.372466 
L 345.395575 -386.322313 
L 344.161558 -386.665999 
L 342.927541 -386.444176 
L 341.693524 -386.361985 
L 340.459507 -387.055433 
L 339.22549 -386.160618 
L 337.991472 -386.236652 
L 336.757455 -386.296427 
L 335.523438 -386.849819 
L 334.289421 -386.382041 
L 333.055404 -386.409283 
L 331.821386 -386.568448 
L 330.587369 -386.070303 
L 329.353352 -386.557137 
L 328.119335 -386.766763 
L 326.885318 -386.43263 
L 325.651301 -386.254429 
L 324.417283 -386.298436 
L 323.183266 -386.864528 
L 321.949249 -386.516404 
L 320.715232 -386.409565 
L 319.481215 -386.589288 
L 318.247197 -386.330581 
L 317.01318 -386.827773 
L 315.779163 -386.434507 
L 314.545146 -386.416441 
L 313.311129 -386.55565 
L 312.077112 -386.636106 
L 310.843094 -386.333506 
L 309.609077 -386.405917 
L 308.37506 -386.567205 
L 307.141043 -386.429992 
L 305.907026 -386.435044 
L 304.673009 -386.323126 
L 303.438991 -386.215794 
L 302.204974 -386.794359 
L 300.970957 -386.297297 
L 299.73694 -386.735147 
L 298.502923 -386.538312 
L 297.268905 -386.481617 
L 296.034888 -386.980841 
L 294.800871 -386.626899 
L 293.566854 -386.323843 
L 292.332837 -386.243803 
L 291.09882 -386.9003 
L 289.864802 -386.350971 
L 288.630785 -386.584643 
L 287.396768 -386.724305 
L 286.162751 -386.588543 
L 284.928734 -386.301645 
L 283.694717 -386.561054 
L 282.460699 -386.669894 
L 281.226682 -386.523716 
L 279.992665 -386.513277 
L 278.758648 -386.267451 
L 277.524631 -386.69905 
L 276.290613 -386.73489 
L 275.056596 -386.561095 
L 273.822579 -386.34907 
L 272.588562 -386.695956 
L 271.354545 -386.756195 
L 270.120528 -386.640633 
L 268.88651 -386.589052 
L 267.652493 -386.476176 
L 266.418476 -386.400293 
L 265.184459 -386.478183 
L 263.950442 -386.518755 
L 262.716424 -386.593389 
L 261.482407 -386.727015 
L 260.24839 -386.413763 
L 259.014373 -386.543438 
L 257.780356 -386.355941 
L 256.546339 -386.732663 
L 255.312321 -386.542101 
L 254.078304 -386.422013 
L 252.844287 -386.736279 
L 251.61027 -386.511999 
L 250.376253 -386.690935 
L 249.142236 -386.045932 
L 247.908218 -387.218014 
L 246.674201 -386.981636 
L 245.440184 -386.634543 
L 244.206167 -386.436287 
L 242.97215 -386.637998 
L 241.738132 -386.368187 
L 240.504115 -386.582373 
L 239.270098 -386.530829 
L 238.036081 -386.625006 
L 236.802064 -386.876743 
L 235.568047 -386.699979 
L 234.334029 -386.533564 
L 233.100012 -386.777417 
L 231.865995 -386.670859 
L 230.631978 -386.732579 
L 229.397961 -386.541609 
L 228.163944 -386.838875 
L 226.929926 -386.694571 
L 225.695909 -386.389804 
L 224.461892 -386.738369 
L 223.227875 -386.86341 
L 221.993858 -386.834098 
L 220.75984 -387.023438 
L 219.525823 -386.602117 
L 218.291806 -386.729683 
L 217.057789 -386.412662 
L 215.823772 -386.668668 
L 214.589755 -386.804787 
L 213.355737 -386.758697 
L 212.12172 -386.518962 
L 210.887703 -386.621599 
L 209.653686 -386.687957 
L 208.419669 -386.760637 
L 207.185651 -386.836928 
L 205.951634 -386.707369 
L 204.717617 -386.620221 
L 203.4836 -386.468122 
L 202.249583 -386.41681 
L 201.015566 -386.741818 
L 199.781548 -386.885289 
L 198.547531 -386.903715 
L 197.313514 -386.838981 
L 196.079497 -386.920074 
L 194.84548 -386.739758 
L 193.611463 -386.734534 
L 192.377445 -386.231822 
L 191.143428 -386.791321 
L 189.909411 -386.723152 
L 188.675394 -386.50471 
L 187.441377 -386.618695 
L 186.207359 -387.110547 
L 184.973342 -386.864392 
L 183.739325 -387.159318 
L 182.505308 -386.665988 
L 181.271291 -386.727793 
L 180.037274 -386.778039 
L 178.803256 -386.555006 
L 177.569239 -386.614737 
L 176.335222 -386.411936 
L 175.101205 -387.244087 
L 173.867188 -386.593387 
L 172.63317 -386.584249 
L 171.399153 -386.77841 
L 170.165136 -387.213133 
L 168.931119 -386.740927 
L 167.697102 -386.881935 
L 166.463085 -386.809555 
L 165.229067 -386.827358 
L 163.99505 -386.554934 
L 162.761033 -386.715406 
L 161.527016 -386.690032 
L 160.292999 -386.542919 
L 159.058982 -386.436821 
L 157.824964 -386.915813 
L 156.590947 -386.703233 
L 155.35693 -386.695394 
L 154.122913 -386.436676 
L 152.888896 -386.761329 
L 151.654878 -386.966609 
L 150.420861 -386.858702 
L 149.186844 -386.703398 
L 147.952827 -386.70433 
L 146.71881 -387.108251 
L 145.484793 -386.60158 
L 144.250775 -386.741286 
L 143.016758 -386.753139 
L 141.782741 -386.850858 
L 140.548724 -386.391071 
L 139.314707 -386.363119 
L 138.08069 -386.442166 
L 136.846672 -387.048064 
L 135.612655 -386.550851 
L 134.378638 -386.707579 
L 133.144621 -386.480158 
L 131.910604 -386.599086 
L 130.676586 -387.025937 
L 129.442569 -386.758633 
L 128.208552 -386.736402 
L 126.974535 -386.613908 
L 125.740518 -386.96148 
L 124.506501 -386.811738 
L 123.272483 -386.690144 
L 122.038466 -386.774042 
L 120.804449 -386.923655 
L 119.570432 -386.836019 
L 118.336415 -386.698888 
L 117.102397 -386.768523 
L 115.86838 -386.281908 
L 114.634363 -386.742375 
L 113.400346 -386.741961 
L 112.166329 -386.594082 
L 110.932312 -386.744517 
L 109.698294 -386.581665 
L 108.464277 -386.583949 
L 107.23026 -386.553553 
L 105.996243 -386.598594 
L 104.762226 -386.900835 
L 103.528209 -387.130494 
L 102.294191 -386.405596 
L 101.060174 -385.912073 
L 99.826157 -386.27794 
L 98.59214 -385.365539 
L 97.358123 -238.505573 
L 96.124105 -111.057719 
L 94.890088 -194.860217 
z
" style="stroke: #6ca247; stroke-opacity: 0.2"/>
    </defs>
    <g clip-path="url(#pfbf0bdac0d)">
     <use xlink:href="#mf8ba30b19d" x="0" y="426.4" style="fill: #6ca247; fill-opacity: 0.2; stroke: #6ca247; stroke-opacity: 0.2"/>
    </g>
   </g>
   <g id="matplotlib.axis_1">
    <g id="xtick_1">
     <g id="line2d_1">
      <path d="M 94.735836 376.318305 
L 94.735836 7.2 
" clip-path="url(#pfbf0bdac0d)" style="fill: none; stroke: #b0b0b0; stroke-opacity: 0.3; stroke-width: 0.8; stroke-linecap: square"/>
     </g>
     <g id="line2d_2">
      <defs>
       <path id="m300c5ac2f7" d="M 0 0 
L 0 3.5 
" style="stroke: #000000; stroke-width: 0.8"/>
      </defs>
      <g>
       <use xlink:href="#m300c5ac2f7" x="94.735836" y="376.318305" style="stroke: #000000; stroke-width: 0.8"/>
      </g>
     </g>
     <g id="text_1">
      <!-- 0k -->
      <g transform="translate(86.715072 394.387893) scale(0.16 -0.16)">
       <defs>
        <path id="CMR17-30" d="M 2688 2038 
C 2688 2430 2682 3099 2413 3613 
C 2176 4063 1798 4224 1466 4224 
C 1158 4224 768 4082 525 3620 
C 269 3137 243 2539 243 2038 
C 243 1671 250 1112 448 623 
C 723 -39 1216 -128 1466 -128 
C 1760 -128 2208 -7 2470 604 
C 2662 1048 2688 1568 2688 2038 
z
M 1466 -26 
C 1056 -26 813 328 723 816 
C 653 1196 653 1749 653 2109 
C 653 2604 653 3015 736 3407 
C 858 3954 1216 4121 1466 4121 
C 1728 4121 2067 3947 2189 3420 
C 2272 3054 2278 2623 2278 2109 
C 2278 1691 2278 1176 2202 797 
C 2067 96 1690 -26 1466 -26 
z
" transform="scale(0.015625)"/>
        <path id="CMR17-6b" d="M 1670 1679 
C 1664 1692 1632 1730 1632 1749 
C 1632 1762 2086 2175 2144 2226 
C 2509 2532 2739 2563 2906 2570 
L 2906 2735 
C 2867 2735 2854 2735 2848 2729 
L 2534 2722 
C 2355 2722 2080 2722 1907 2735 
L 1907 2570 
C 1997 2563 2061 2513 2061 2423 
C 2061 2296 1933 2175 1926 2175 
L 960 1298 
L 960 4416 
L 198 4345 
L 198 4179 
C 576 4179 634 4141 634 3835 
L 634 439 
C 634 198 608 166 198 166 
L 198 0 
C 352 12 634 12 794 12 
C 954 12 1235 12 1389 0 
L 1389 166 
C 979 166 954 191 954 439 
L 954 1139 
L 1395 1540 
L 2042 586 
C 2118 471 2182 382 2182 299 
C 2182 185 2067 166 1990 166 
L 1990 0 
C 2144 12 2419 12 2579 12 
C 2694 12 2931 6 3040 0 
L 3040 166 
C 2739 166 2669 223 2477 503 
L 1670 1679 
z
" transform="scale(0.015625)"/>
       </defs>
       <use xlink:href="#CMR17-30" transform="scale(0.996264)"/>
       <use xlink:href="#CMR17-6b" transform="translate(45.690477 0) scale(0.996264)"/>
      </g>
     </g>
    </g>
    <g id="xtick_2">
     <g id="line2d_3">
      <path d="M 171.86191 376.318305 
L 171.86191 7.2 
" clip-path="url(#pfbf0bdac0d)" style="fill: none; stroke: #b0b0b0; stroke-opacity: 0.3; stroke-width: 0.8; stroke-linecap: square"/>
     </g>
     <g id="line2d_4">
      <g>
       <use xlink:href="#m300c5ac2f7" x="171.86191" y="376.318305" style="stroke: #000000; stroke-width: 0.8"/>
      </g>
     </g>
     <g id="text_2">
      <!-- 50k -->
      <g transform="translate(159.939152 394.387893) scale(0.16 -0.16)">
       <defs>
        <path id="CMR17-35" d="M 730 3750 
C 794 3724 1056 3641 1325 3641 
C 1920 3641 2246 3961 2432 4140 
C 2432 4191 2432 4224 2394 4224 
C 2387 4224 2374 4224 2323 4198 
C 2099 4102 1837 4032 1517 4032 
C 1325 4032 1037 4055 723 4191 
C 653 4224 640 4224 634 4224 
C 602 4224 595 4217 595 4090 
L 595 2231 
C 595 2113 595 2080 659 2080 
C 691 2080 704 2093 736 2139 
C 941 2435 1222 2560 1542 2560 
C 1766 2560 2246 2415 2246 1293 
C 2246 1087 2246 716 2054 422 
C 1894 159 1645 25 1370 25 
C 947 25 518 319 403 812 
C 429 806 480 793 506 793 
C 589 793 749 838 749 1036 
C 749 1209 627 1280 506 1280 
C 358 1280 262 1190 262 1011 
C 262 454 704 -128 1382 -128 
C 2042 -128 2669 441 2669 1267 
C 2669 2054 2170 2662 1549 2662 
C 1222 2662 947 2540 730 2304 
L 730 3750 
z
" transform="scale(0.015625)"/>
       </defs>
       <use xlink:href="#CMR17-35" transform="scale(0.996264)"/>
       <use xlink:href="#CMR17-30" transform="translate(45.690477 0) scale(0.996264)"/>
       <use xlink:href="#CMR17-6b" transform="translate(91.380954 0) scale(0.996264)"/>
      </g>
     </g>
    </g>
    <g id="xtick_3">
     <g id="line2d_5">
      <path d="M 248.987983 376.318305 
L 248.987983 7.2 
" clip-path="url(#pfbf0bdac0d)" style="fill: none; stroke: #b0b0b0; stroke-opacity: 0.3; stroke-width: 0.8; stroke-linecap: square"/>
     </g>
     <g id="line2d_6">
      <g>
       <use xlink:href="#m300c5ac2f7" x="248.987983" y="376.318305" style="stroke: #000000; stroke-width: 0.8"/>
      </g>
     </g>
     <g id="text_3">
      <!-- 100k -->
      <g transform="translate(233.163232 394.387893) scale(0.16 -0.16)">
       <defs>
        <path id="CMR17-31" d="M 1702 4083 
C 1702 4217 1696 4224 1606 4224 
C 1357 3927 979 3833 621 3820 
C 602 3820 570 3820 563 3808 
C 557 3795 557 3782 557 3648 
C 755 3648 1088 3686 1344 3839 
L 1344 467 
C 1344 243 1331 166 781 166 
L 589 166 
L 589 0 
C 896 6 1216 12 1523 12 
C 1830 12 2150 6 2458 0 
L 2458 166 
L 2266 166 
C 1715 166 1702 236 1702 467 
L 1702 4083 
z
" transform="scale(0.015625)"/>
       </defs>
       <use xlink:href="#CMR17-31" transform="scale(0.996264)"/>
       <use xlink:href="#CMR17-30" transform="translate(45.690477 0) scale(0.996264)"/>
       <use xlink:href="#CMR17-30" transform="translate(91.380954 0) scale(0.996264)"/>
       <use xlink:href="#CMR17-6b" transform="translate(137.071431 0) scale(0.996264)"/>
      </g>
     </g>
    </g>
    <g id="xtick_4">
     <g id="line2d_7">
      <path d="M 326.114057 376.318305 
L 326.114057 7.2 
" clip-path="url(#pfbf0bdac0d)" style="fill: none; stroke: #b0b0b0; stroke-opacity: 0.3; stroke-width: 0.8; stroke-linecap: square"/>
     </g>
     <g id="line2d_8">
      <g>
       <use xlink:href="#m300c5ac2f7" x="326.114057" y="376.318305" style="stroke: #000000; stroke-width: 0.8"/>
      </g>
     </g>
     <g id="text_4">
      <!-- 150k -->
      <g transform="translate(310.289306 394.387893) scale(0.16 -0.16)">
       <use xlink:href="#CMR17-31" transform="scale(0.996264)"/>
       <use xlink:href="#CMR17-35" transform="translate(45.690477 0) scale(0.996264)"/>
       <use xlink:href="#CMR17-30" transform="translate(91.380954 0) scale(0.996264)"/>
       <use xlink:href="#CMR17-6b" transform="translate(137.071431 0) scale(0.996264)"/>
      </g>
     </g>
    </g>
    <g id="xtick_5">
     <g id="line2d_9">
      <path d="M 403.240131 376.318305 
L 403.240131 7.2 
" clip-path="url(#pfbf0bdac0d)" style="fill: none; stroke: #b0b0b0; stroke-opacity: 0.3; stroke-width: 0.8; stroke-linecap: square"/>
     </g>
     <g id="line2d_10">
      <g>
       <use xlink:href="#m300c5ac2f7" x="403.240131" y="376.318305" style="stroke: #000000; stroke-width: 0.8"/>
      </g>
     </g>
     <g id="text_5">
      <!-- 200k -->
      <g transform="translate(387.415379 394.387893) scale(0.16 -0.16)">
       <defs>
        <path id="CMR17-32" d="M 2669 990 
L 2554 990 
C 2490 537 2438 460 2413 422 
C 2381 371 1920 371 1830 371 
L 602 371 
C 832 620 1280 1073 1824 1596 
C 2214 1966 2669 2400 2669 3033 
C 2669 3788 2067 4224 1395 4224 
C 691 4224 262 3603 262 3027 
C 262 2777 448 2745 525 2745 
C 589 2745 781 2783 781 3007 
C 781 3206 614 3264 525 3264 
C 486 3264 448 3257 422 3244 
C 544 3788 915 4057 1306 4057 
C 1862 4057 2227 3616 2227 3033 
C 2227 2477 1901 1998 1536 1583 
L 262 147 
L 262 0 
L 2515 0 
L 2669 990 
z
" transform="scale(0.015625)"/>
       </defs>
       <use xlink:href="#CMR17-32" transform="scale(0.996264)"/>
       <use xlink:href="#CMR17-30" transform="translate(45.690477 0) scale(0.996264)"/>
       <use xlink:href="#CMR17-30" transform="translate(91.380954 0) scale(0.996264)"/>
       <use xlink:href="#CMR17-6b" transform="translate(137.071431 0) scale(0.996264)"/>
      </g>
     </g>
    </g>
    <g id="text_6">
     <!-- Training Steps -->
     <g transform="translate(190.492088 415.324366) scale(0.2 -0.2)">
      <defs>
       <path id="CMR17-54" d="M 3981 4332 
L 288 4332 
L 179 2924 
L 294 2924 
C 378 3981 467 4166 1453 4166 
C 1568 4166 1754 4166 1805 4159 
C 1926 4140 1926 4064 1926 3917 
L 1926 465 
C 1926 236 1907 166 1376 166 
L 1197 166 
L 1197 0 
C 1504 6 1824 12 2138 12 
C 2451 12 2771 6 3078 0 
L 3078 166 
L 2899 166 
C 2368 166 2349 236 2349 465 
L 2349 3917 
C 2349 4057 2349 4134 2464 4159 
C 2515 4166 2701 4166 2816 4166 
C 3795 4166 3891 3981 3974 2924 
L 4090 2924 
L 3981 4332 
z
" transform="scale(0.015625)"/>
       <path id="CMR17-72" d="M 960 1517 
C 960 2134 1222 2713 1702 2713 
C 1747 2713 1792 2707 1837 2687 
C 1837 2687 1696 2642 1696 2475 
C 1696 2321 1818 2257 1914 2257 
C 1990 2257 2131 2302 2131 2482 
C 2131 2687 1926 2816 1709 2816 
C 1222 2816 1011 2340 947 2115 
L 941 2115 
L 941 2816 
L 198 2745 
L 198 2578 
C 576 2578 634 2540 634 2231 
L 634 443 
C 634 198 608 166 198 166 
L 198 0 
C 352 12 646 12 813 12 
C 998 12 1325 12 1498 0 
L 1498 166 
C 1037 166 960 166 960 455 
L 960 1517 
z
" transform="scale(0.015625)"/>
       <path id="CMR17-61" d="M 2304 1656 
C 2304 2048 2304 2275 2035 2534 
C 1798 2751 1523 2816 1306 2816 
C 800 2816 435 2408 435 1977 
C 435 1740 627 1728 666 1728 
C 749 1728 896 1779 896 1958 
C 896 2118 774 2188 666 2188 
C 640 2188 608 2182 589 2176 
C 723 2594 1069 2713 1293 2713 
C 1613 2713 1965 2421 1965 1875 
L 1965 1632 
C 1587 1619 1133 1568 774 1373 
C 371 1147 256 822 256 576 
C 256 77 832 -64 1171 -64 
C 1523 -64 1850 135 1990 505 
C 2003 219 2182 -39 2464 -39 
C 2598 -39 2938 51 2938 563 
L 2938 926 
L 2822 926 
L 2822 557 
C 2822 161 2650 109 2566 109 
C 2304 109 2304 446 2304 732 
L 2304 1656 
z
M 1965 887 
C 1965 323 1568 38 1216 38 
C 896 38 646 278 646 576 
C 646 771 730 1114 1101 1322 
C 1408 1497 1760 1523 1965 1536 
L 1965 887 
z
" transform="scale(0.015625)"/>
       <path id="CMR17-69" d="M 992 3961 
C 992 4102 877 4224 730 4224 
C 589 4224 467 4108 467 3961 
C 467 3820 582 3699 730 3699 
C 870 3699 992 3814 992 3961 
z
M 243 2745 
L 243 2579 
C 602 2579 653 2540 653 2231 
L 653 443 
C 653 198 627 166 218 166 
L 218 0 
C 371 12 646 12 806 12 
C 960 12 1222 12 1370 0 
L 1370 166 
C 992 166 979 205 979 436 
L 979 2816 
L 243 2745 
z
" transform="scale(0.015625)"/>
       <path id="CMR17-6e" d="M 2656 1954 
C 2656 2282 2592 2816 1837 2816 
C 1331 2816 1069 2424 973 2166 
L 966 2166 
L 966 2816 
L 211 2745 
L 211 2578 
C 589 2578 646 2540 646 2231 
L 646 443 
C 646 198 621 166 211 166 
L 211 0 
C 365 12 646 12 813 12 
C 979 12 1267 12 1421 0 
L 1421 166 
C 1011 166 986 192 986 443 
L 986 1678 
C 986 2269 1344 2713 1792 2713 
C 2266 2713 2317 2289 2317 1980 
L 2317 443 
C 2317 198 2291 166 1882 166 
L 1882 0 
C 2035 12 2317 12 2483 12 
C 2650 12 2938 12 3091 0 
L 3091 166 
C 2682 166 2656 192 2656 443 
L 2656 1954 
z
" transform="scale(0.015625)"/>
       <path id="CMR17-67" d="M 710 1165 
C 832 1068 1043 960 1299 960 
C 1805 960 2240 1359 2240 1895 
C 2240 2063 2189 2321 1997 2521 
C 2176 2713 2438 2777 2586 2777 
C 2611 2777 2650 2777 2682 2758 
C 2656 2751 2598 2726 2598 2623 
C 2598 2540 2656 2483 2739 2483 
C 2835 2483 2886 2547 2886 2630 
C 2886 2751 2790 2880 2586 2880 
C 2330 2880 2106 2758 1926 2591 
C 1734 2764 1504 2828 1299 2828 
C 794 2828 358 2431 358 1895 
C 358 1527 570 1294 634 1230 
C 442 1004 442 742 442 710 
C 442 544 506 300 723 166 
C 390 82 128 -184 128 -517 
C 128 -996 736 -1344 1466 -1344 
C 2170 -1344 2803 -1009 2803 -510 
C 2803 384 1856 384 1363 384 
C 1216 384 954 384 922 390 
C 723 422 589 601 589 825 
C 589 883 589 1024 710 1165 
z
M 1299 1068 
C 736 1068 736 1766 736 1895 
C 736 2024 736 2719 1299 2719 
C 1862 2719 1862 2024 1862 1895 
C 1862 1766 1862 1068 1299 1068 
z
M 1466 -1236 
C 826 -1236 384 -883 384 -517 
C 384 -311 493 -118 634 -11 
C 794 102 858 102 1293 102 
C 1818 102 2547 102 2547 -517 
C 2547 -883 2106 -1236 1466 -1236 
z
" transform="scale(0.015625)"/>
       <path id="CMR17-53" d="M 2803 4351 
C 2803 4467 2797 4473 2758 4473 
C 2720 4473 2707 4447 2682 4390 
L 2490 3965 
C 2246 4320 1875 4480 1472 4480 
C 819 4480 294 3958 294 3301 
C 294 3101 339 2817 557 2546 
C 794 2250 1018 2198 1530 2063 
C 1722 2011 2042 1927 2106 1901 
C 2470 1747 2662 1360 2662 999 
C 2662 534 2336 38 1779 38 
C 1094 38 454 425 410 1328 
C 403 1431 397 1437 352 1437 
C 301 1437 294 1431 294 1302 
L 294 0 
C 294 -116 301 -122 339 -122 
C 384 -122 397 -90 486 109 
C 493 128 493 141 614 386 
C 934 -39 1472 -128 1779 -128 
C 2477 -128 2970 457 2970 1141 
C 2970 1476 2848 1734 2778 1850 
C 2509 2263 2221 2340 1914 2417 
C 1869 2437 1856 2437 1498 2527 
C 1152 2617 1005 2662 845 2836 
C 666 3036 602 3243 602 3449 
C 602 3868 934 4326 1478 4326 
C 2157 4326 2579 3842 2675 3036 
C 2694 2920 2701 2914 2746 2914 
C 2803 2914 2803 2933 2803 3043 
L 2803 4351 
z
" transform="scale(0.015625)"/>
       <path id="CMR17-74" d="M 966 2585 
L 1862 2585 
L 1862 2752 
L 966 2752 
L 966 3968 
L 851 3968 
C 838 3292 614 2700 70 2687 
L 70 2585 
L 627 2585 
L 627 778 
C 627 655 627 -64 1370 -64 
C 1747 -64 1965 308 1965 784 
L 1965 1151 
L 1850 1151 
L 1850 790 
C 1850 347 1677 51 1408 51 
C 1222 51 966 179 966 765 
L 966 2585 
z
" transform="scale(0.015625)"/>
       <path id="CMR17-65" d="M 2438 1503 
C 2464 1529 2464 1542 2464 1606 
C 2464 2251 2118 2816 1389 2816 
C 710 2816 173 2175 173 1394 
C 173 554 781 -64 1459 -64 
C 2176 -64 2458 619 2458 755 
C 2458 800 2419 800 2406 800 
C 2362 800 2355 787 2330 709 
C 2189 270 1837 51 1504 51 
C 1229 51 954 206 781 490 
C 582 819 582 1200 582 1503 
L 2438 1503 
z
M 589 1600 
C 634 2511 1126 2713 1382 2713 
C 1818 2713 2112 2308 2118 1600 
L 589 1600 
z
" transform="scale(0.015625)"/>
       <path id="CMR17-70" d="M 1408 -1114 
C 998 -1114 973 -1088 973 -834 
L 973 380 
C 1158 109 1427 -64 1766 -64 
C 2406 -64 3053 503 3053 1382 
C 3053 2196 2496 2816 1837 2816 
C 1453 2816 1139 2603 960 2345 
L 960 2816 
L 198 2745 
L 198 2577 
C 576 2577 634 2539 634 2228 
L 634 -834 
C 634 -1081 608 -1114 198 -1114 
L 198 -1280 
C 352 -1268 634 -1268 800 -1268 
C 966 -1268 1254 -1268 1408 -1280 
L 1408 -1114 
z
M 973 2015 
C 973 2106 973 2241 1222 2481 
C 1254 2506 1472 2700 1792 2700 
C 2259 2700 2643 2112 2643 1376 
C 2643 639 2234 38 1728 38 
C 1498 38 1248 148 1056 451 
C 973 594 973 632 973 736 
L 973 2015 
z
" transform="scale(0.015625)"/>
       <path id="CMR17-73" d="M 1978 2688 
C 1978 2803 1971 2809 1933 2809 
C 1907 2809 1901 2803 1824 2707 
C 1805 2681 1747 2617 1728 2592 
C 1523 2809 1235 2816 1126 2816 
C 416 2816 160 2444 160 2073 
C 160 1497 813 1363 998 1324 
C 1402 1241 1542 1216 1677 1100 
C 1760 1024 1901 883 1901 652 
C 1901 384 1747 38 1158 38 
C 602 38 403 460 288 1024 
C 269 1113 269 1120 218 1120 
C 166 1120 160 1113 160 985 
L 160 64 
C 160 -52 166 -58 205 -58 
C 237 -58 243 -52 275 0 
C 314 57 410 211 448 275 
C 576 102 800 -64 1158 -64 
C 1792 -64 2131 281 2131 780 
C 2131 1107 1958 1280 1875 1356 
C 1683 1555 1459 1600 1190 1651 
C 838 1728 390 1817 390 2208 
C 390 2374 480 2726 1126 2726 
C 1811 2726 1850 2086 1862 1881 
C 1869 1849 1901 1843 1920 1843 
C 1978 1843 1978 1862 1978 1971 
L 1978 2688 
z
" transform="scale(0.015625)"/>
      </defs>
      <use xlink:href="#CMR17-54" transform="scale(0.996264)"/>
      <use xlink:href="#CMR17-72" transform="translate(58.702625 0) scale(0.996264)"/>
      <use xlink:href="#CMR17-61" transform="translate(93.983393 0) scale(0.996264)"/>
      <use xlink:href="#CMR17-69" transform="translate(139.67387 0) scale(0.996264)"/>
      <use xlink:href="#CMR17-6e" transform="translate(164.544929 0) scale(0.996264)"/>
      <use xlink:href="#CMR17-69" transform="translate(215.440298 0) scale(0.996264)"/>
      <use xlink:href="#CMR17-6e" transform="translate(240.311357 0) scale(0.996264)"/>
      <use xlink:href="#CMR17-67" transform="translate(291.206727 0) scale(0.996264)"/>
      <use xlink:href="#CMR17-53" transform="translate(366.97317 0) scale(0.996264)"/>
      <use xlink:href="#CMR17-74" transform="translate(417.86854 0) scale(0.996264)"/>
      <use xlink:href="#CMR17-65" transform="translate(453.149308 0) scale(0.996264)"/>
      <use xlink:href="#CMR17-70" transform="translate(493.634968 0) scale(0.996264)"/>
      <use xlink:href="#CMR17-73" transform="translate(544.530338 0) scale(0.996264)"/>
     </g>
    </g>
   </g>
   <g id="matplotlib.axis_2">
    <g id="ytick_1">
     <g id="line2d_11">
      <path d="M 79.526574 337.66246 
L 417.523879 337.66246 
" clip-path="url(#pfbf0bdac0d)" style="fill: none; stroke: #b0b0b0; stroke-opacity: 0.3; stroke-width: 0.8; stroke-linecap: square"/>
     </g>
     <g id="line2d_12">
      <defs>
       <path id="m9fa9f2e587" d="M 0 0 
L -3.5 0 
" style="stroke: #000000; stroke-width: 0.8"/>
      </defs>
      <g>
       <use xlink:href="#m9fa9f2e587" x="79.526574" y="337.66246" style="stroke: #000000; stroke-width: 0.8"/>
      </g>
     </g>
     <g id="text_7">
      <!-- $\mathdefault{1750}$ -->
      <g transform="translate(28.91263 343.197254) scale(0.16 -0.16)">
       <defs>
        <path id="CMSY10-0" d="M 4218 1472 
C 4326 1472 4442 1472 4442 1600 
C 4442 1728 4326 1728 4218 1728 
L 755 1728 
C 646 1728 531 1728 531 1600 
C 531 1472 646 1472 755 1472 
L 4218 1472 
z
" transform="scale(0.015625)"/>
        <path id="CMR17-37" d="M 2886 3955 
L 2886 4096 
L 1382 4096 
C 634 4096 621 4166 595 4288 
L 480 4288 
L 294 3104 
L 410 3104 
C 429 3226 474 3552 550 3673 
C 589 3724 1062 3724 1171 3724 
L 2579 3724 
L 1869 2670 
C 1395 1961 1069 1003 1069 166 
C 1069 89 1069 -128 1299 -128 
C 1530 -128 1530 89 1530 172 
L 1530 466 
C 1530 1514 1709 2204 2003 2644 
L 2886 3955 
z
" transform="scale(0.015625)"/>
       </defs>
       <use xlink:href="#CMSY10-0" transform="scale(0.996264)"/>
       <use xlink:href="#CMR17-31" transform="translate(77.487468 0) scale(0.996264)"/>
       <use xlink:href="#CMR17-37" transform="translate(123.177945 0) scale(0.996264)"/>
       <use xlink:href="#CMR17-35" transform="translate(168.868422 0) scale(0.996264)"/>
       <use xlink:href="#CMR17-30" transform="translate(214.558899 0) scale(0.996264)"/>
      </g>
     </g>
    </g>
    <g id="ytick_2">
     <g id="line2d_13">
      <path d="M 79.526574 292.049579 
L 417.523879 292.049579 
" clip-path="url(#pfbf0bdac0d)" style="fill: none; stroke: #b0b0b0; stroke-opacity: 0.3; stroke-width: 0.8; stroke-linecap: square"/>
     </g>
     <g id="line2d_14">
      <g>
       <use xlink:href="#m9fa9f2e587" x="79.526574" y="292.049579" style="stroke: #000000; stroke-width: 0.8"/>
      </g>
     </g>
     <g id="text_8">
      <!-- $\mathdefault{1500}$ -->
      <g transform="translate(28.91263 297.584373) scale(0.16 -0.16)">
       <use xlink:href="#CMSY10-0" transform="scale(0.996264)"/>
       <use xlink:href="#CMR17-31" transform="translate(77.487468 0) scale(0.996264)"/>
       <use xlink:href="#CMR17-35" transform="translate(123.177945 0) scale(0.996264)"/>
       <use xlink:href="#CMR17-30" transform="translate(168.868422 0) scale(0.996264)"/>
       <use xlink:href="#CMR17-30" transform="translate(214.558899 0) scale(0.996264)"/>
      </g>
     </g>
    </g>
    <g id="ytick_3">
     <g id="line2d_15">
      <path d="M 79.526574 246.436698 
L 417.523879 246.436698 
" clip-path="url(#pfbf0bdac0d)" style="fill: none; stroke: #b0b0b0; stroke-opacity: 0.3; stroke-width: 0.8; stroke-linecap: square"/>
     </g>
     <g id="line2d_16">
      <g>
       <use xlink:href="#m9fa9f2e587" x="79.526574" y="246.436698" style="stroke: #000000; stroke-width: 0.8"/>
      </g>
     </g>
     <g id="text_9">
      <!-- $\mathdefault{1250}$ -->
      <g transform="translate(28.91263 251.971492) scale(0.16 -0.16)">
       <use xlink:href="#CMSY10-0" transform="scale(0.996264)"/>
       <use xlink:href="#CMR17-31" transform="translate(77.487468 0) scale(0.996264)"/>
       <use xlink:href="#CMR17-32" transform="translate(123.177945 0) scale(0.996264)"/>
       <use xlink:href="#CMR17-35" transform="translate(168.868422 0) scale(0.996264)"/>
       <use xlink:href="#CMR17-30" transform="translate(214.558899 0) scale(0.996264)"/>
      </g>
     </g>
    </g>
    <g id="ytick_4">
     <g id="line2d_17">
      <path d="M 79.526574 200.823817 
L 417.523879 200.823817 
" clip-path="url(#pfbf0bdac0d)" style="fill: none; stroke: #b0b0b0; stroke-opacity: 0.3; stroke-width: 0.8; stroke-linecap: square"/>
     </g>
     <g id="line2d_18">
      <g>
       <use xlink:href="#m9fa9f2e587" x="79.526574" y="200.823817" style="stroke: #000000; stroke-width: 0.8"/>
      </g>
     </g>
     <g id="text_10">
      <!-- $\mathdefault{1000}$ -->
      <g transform="translate(28.91263 206.358611) scale(0.16 -0.16)">
       <use xlink:href="#CMSY10-0" transform="scale(0.996264)"/>
       <use xlink:href="#CMR17-31" transform="translate(77.487468 0) scale(0.996264)"/>
       <use xlink:href="#CMR17-30" transform="translate(123.177945 0) scale(0.996264)"/>
       <use xlink:href="#CMR17-30" transform="translate(168.868422 0) scale(0.996264)"/>
       <use xlink:href="#CMR17-30" transform="translate(214.558899 0) scale(0.996264)"/>
      </g>
     </g>
    </g>
    <g id="ytick_5">
     <g id="line2d_19">
      <path d="M 79.526574 155.210936 
L 417.523879 155.210936 
" clip-path="url(#pfbf0bdac0d)" style="fill: none; stroke: #b0b0b0; stroke-opacity: 0.3; stroke-width: 0.8; stroke-linecap: square"/>
     </g>
     <g id="line2d_20">
      <g>
       <use xlink:href="#m9fa9f2e587" x="79.526574" y="155.210936" style="stroke: #000000; stroke-width: 0.8"/>
      </g>
     </g>
     <g id="text_11">
      <!-- $\mathdefault{750}$ -->
      <g transform="translate(36.716617 160.74573) scale(0.16 -0.16)">
       <use xlink:href="#CMSY10-0" transform="scale(0.996264)"/>
       <use xlink:href="#CMR17-37" transform="translate(77.487468 0) scale(0.996264)"/>
       <use xlink:href="#CMR17-35" transform="translate(123.177945 0) scale(0.996264)"/>
       <use xlink:href="#CMR17-30" transform="translate(168.868422 0) scale(0.996264)"/>
      </g>
     </g>
    </g>
    <g id="ytick_6">
     <g id="line2d_21">
      <path d="M 79.526574 109.598055 
L 417.523879 109.598055 
" clip-path="url(#pfbf0bdac0d)" style="fill: none; stroke: #b0b0b0; stroke-opacity: 0.3; stroke-width: 0.8; stroke-linecap: square"/>
     </g>
     <g id="line2d_22">
      <g>
       <use xlink:href="#m9fa9f2e587" x="79.526574" y="109.598055" style="stroke: #000000; stroke-width: 0.8"/>
      </g>
     </g>
     <g id="text_12">
      <!-- $\mathdefault{500}$ -->
      <g transform="translate(36.716617 115.132849) scale(0.16 -0.16)">
       <use xlink:href="#CMSY10-0" transform="scale(0.996264)"/>
       <use xlink:href="#CMR17-35" transform="translate(77.487468 0) scale(0.996264)"/>
       <use xlink:href="#CMR17-30" transform="translate(123.177945 0) scale(0.996264)"/>
       <use xlink:href="#CMR17-30" transform="translate(168.868422 0) scale(0.996264)"/>
      </g>
     </g>
    </g>
    <g id="ytick_7">
     <g id="line2d_23">
      <path d="M 79.526574 63.985173 
L 417.523879 63.985173 
" clip-path="url(#pfbf0bdac0d)" style="fill: none; stroke: #b0b0b0; stroke-opacity: 0.3; stroke-width: 0.8; stroke-linecap: square"/>
     </g>
     <g id="line2d_24">
      <g>
       <use xlink:href="#m9fa9f2e587" x="79.526574" y="63.985173" style="stroke: #000000; stroke-width: 0.8"/>
      </g>
     </g>
     <g id="text_13">
      <!-- $\mathdefault{250}$ -->
      <g transform="translate(36.716617 69.519968) scale(0.16 -0.16)">
       <use xlink:href="#CMSY10-0" transform="scale(0.996264)"/>
       <use xlink:href="#CMR17-32" transform="translate(77.487468 0) scale(0.996264)"/>
       <use xlink:href="#CMR17-35" transform="translate(123.177945 0) scale(0.996264)"/>
       <use xlink:href="#CMR17-30" transform="translate(168.868422 0) scale(0.996264)"/>
      </g>
     </g>
    </g>
    <g id="ytick_8">
     <g id="line2d_25">
      <path d="M 79.526574 18.372292 
L 417.523879 18.372292 
" clip-path="url(#pfbf0bdac0d)" style="fill: none; stroke: #b0b0b0; stroke-opacity: 0.3; stroke-width: 0.8; stroke-linecap: square"/>
     </g>
     <g id="line2d_26">
      <g>
       <use xlink:href="#m9fa9f2e587" x="79.526574" y="18.372292" style="stroke: #000000; stroke-width: 0.8"/>
      </g>
     </g>
     <g id="text_14">
      <!-- $\mathdefault{0}$ -->
      <g transform="translate(64.722587 23.907087) scale(0.16 -0.16)">
       <use xlink:href="#CMR17-30" transform="scale(0.996264)"/>
      </g>
     </g>
    </g>
    <g id="text_15">
     <!-- Return -->
     <g transform="translate(21.036997 219.822038) rotate(-90) scale(0.2 -0.2)">
      <defs>
       <path id="CMR17-52" d="M 2509 2156 
C 3117 2278 3629 2689 3629 3203 
C 3629 3806 2950 4352 2054 4352 
L 333 4352 
L 333 4185 
C 774 4185 845 4185 845 3896 
L 845 428 
C 845 140 774 140 333 140 
L 333 -26 
C 518 -13 851 -13 1050 -13 
C 1248 -13 1581 -13 1766 -26 
L 1766 140 
C 1325 140 1254 140 1254 428 
L 1254 2112 
L 2003 2112 
C 2368 2112 2573 1964 2662 1881 
C 2918 1632 2918 1459 2918 1024 
C 2918 595 2918 377 3110 160 
C 3354 -103 3680 -128 3821 -128 
C 4294 -128 4365 403 4365 512 
C 4365 550 4365 595 4307 595 
C 4256 595 4250 556 4250 531 
C 4218 115 4032 -26 3834 -26 
C 3482 -26 3443 377 3405 768 
C 3386 902 3373 998 3360 1139 
C 3322 1459 3270 1926 2509 2156 
z
M 1984 2214 
L 1254 2214 
L 1254 3935 
C 1254 4153 1267 4185 1523 4185 
L 1990 4185 
C 2522 4185 3142 3999 3142 3203 
C 3142 2374 2464 2214 1984 2214 
z
" transform="scale(0.015625)"/>
       <path id="CMR17-75" d="M 1882 2745 
L 1882 2579 
C 2259 2579 2317 2540 2317 2229 
L 2317 1053 
C 2317 510 2029 38 1555 38 
C 1030 38 986 355 986 691 
L 986 2816 
L 211 2745 
L 211 2579 
C 467 2579 640 2579 646 2320 
L 646 1079 
C 646 646 646 368 813 187 
C 896 103 1056 -64 1517 -64 
C 2061 -64 2272 400 2323 536 
L 2330 536 
L 2330 -64 
L 3091 -13 
L 3091 154 
C 2714 154 2656 193 2656 503 
L 2656 2816 
L 1882 2745 
z
" transform="scale(0.015625)"/>
      </defs>
      <use xlink:href="#CMR17-52" transform="scale(0.996264)"/>
      <use xlink:href="#CMR17-65" transform="translate(67.791102 0) scale(0.996264)"/>
      <use xlink:href="#CMR17-74" transform="translate(108.276762 0) scale(0.996264)"/>
      <use xlink:href="#CMR17-75" transform="translate(143.55753 0) scale(0.996264)"/>
      <use xlink:href="#CMR17-72" transform="translate(194.4529 0) scale(0.996264)"/>
      <use xlink:href="#CMR17-6e" transform="translate(229.733668 0) scale(0.996264)"/>
     </g>
    </g>
   </g>
   <g id="line2d_27">
    <path d="M 94.890088 271.651431 
L 96.124105 334.732433 
L 98.59214 46.589182 
L 99.826157 42.878297 
L 101.060174 40.948435 
L 102.294191 43.142013 
L 103.528209 40.848979 
L 104.762226 45.394712 
L 105.996243 43.708409 
L 107.23026 40.275303 
L 108.464277 41.329095 
L 109.698294 41.885355 
L 110.932312 40.142404 
L 112.166329 45.265161 
L 114.634363 42.064939 
L 115.86838 43.663021 
L 117.102397 40.371667 
L 118.336415 42.177006 
L 119.570432 49.428701 
L 120.804449 42.613322 
L 122.038466 41.178376 
L 123.272483 43.586581 
L 124.506501 42.663064 
L 125.740518 40.489164 
L 128.208552 40.060556 
L 129.442569 43.628425 
L 131.910604 41.991551 
L 133.144621 40.51988 
L 134.378638 41.28131 
L 135.612655 43.557039 
L 136.846672 40.114624 
L 138.08069 44.229844 
L 139.314707 45.16504 
L 140.548724 41.057308 
L 141.782741 44.56305 
L 143.016758 43.214655 
L 144.250775 44.282543 
L 145.484793 43.739743 
L 146.71881 40.861676 
L 147.952827 41.852377 
L 149.186844 40.29837 
L 150.420861 43.703846 
L 151.654878 40.350891 
L 152.888896 40.166848 
L 154.122913 40.344579 
L 155.35693 40.271236 
L 156.590947 46.709503 
L 157.824964 40.284121 
L 159.058982 40.477181 
L 160.292999 40.253751 
L 161.527016 41.347995 
L 163.99505 42.965214 
L 165.229067 42.14151 
L 166.463085 42.921101 
L 167.697102 42.058764 
L 168.931119 40.675178 
L 170.165136 41.330171 
L 171.399153 40.442278 
L 172.63317 43.071318 
L 173.867188 40.48902 
L 175.101205 45.36453 
L 176.335222 40.387751 
L 177.569239 40.438622 
L 178.803256 42.102365 
L 180.037274 40.496253 
L 181.271291 45.516372 
L 182.505308 46.321951 
L 183.739325 43.070264 
L 184.973342 43.112566 
L 186.207359 40.610981 
L 187.441377 44.748336 
L 188.675394 43.075544 
L 189.909411 41.195481 
L 191.143428 40.672328 
L 192.377445 43.233789 
L 193.611463 43.023025 
L 194.84548 40.763627 
L 196.079497 42.613463 
L 197.313514 40.980267 
L 198.547531 41.560357 
L 199.781548 43.384933 
L 202.249583 54.074638 
L 203.4836 43.342199 
L 204.717617 41.283512 
L 205.951634 41.916104 
L 207.185651 41.046373 
L 208.419669 44.94295 
L 209.653686 44.717763 
L 210.887703 46.469412 
L 212.12172 42.721674 
L 213.355737 41.059398 
L 214.589755 44.159612 
L 215.823772 41.963433 
L 217.057789 40.557685 
L 218.291806 41.099589 
L 219.525823 43.465407 
L 220.75984 40.875989 
L 221.993858 40.978433 
L 223.227875 42.966767 
L 224.461892 42.80218 
L 225.695909 44.227503 
L 228.163944 42.622831 
L 229.397961 43.326669 
L 230.631978 41.688591 
L 231.865995 41.191525 
L 233.100012 40.837654 
L 234.334029 41.062855 
L 235.568047 43.379813 
L 236.802064 45.98222 
L 238.036081 41.944254 
L 239.270098 43.973081 
L 240.504115 40.749932 
L 241.738132 41.384684 
L 242.97215 43.490608 
L 244.206167 46.499275 
L 245.440184 46.54044 
L 246.674201 40.979066 
L 247.908218 48.709098 
L 249.142236 43.776634 
L 250.376253 47.750541 
L 251.61027 42.184899 
L 252.844287 45.138286 
L 254.078304 43.794168 
L 255.312321 46.007871 
L 256.546339 46.692633 
L 257.780356 43.013415 
L 259.014373 41.37674 
L 260.24839 42.306967 
L 261.482407 41.285291 
L 262.716424 45.031577 
L 263.950442 41.231573 
L 265.184459 46.837256 
L 266.418476 43.014956 
L 267.652493 41.883026 
L 268.88651 41.265717 
L 270.120528 41.002438 
L 271.354545 43.013839 
L 272.588562 41.171184 
L 273.822579 41.269075 
L 275.056596 43.611225 
L 276.290613 46.832222 
L 277.524631 42.763811 
L 278.758648 49.197525 
L 279.992665 43.068466 
L 281.226682 42.976475 
L 282.460699 42.535653 
L 283.694717 42.261857 
L 284.928734 43.905535 
L 286.162751 42.356963 
L 287.396768 46.034859 
L 288.630785 42.227529 
L 289.864802 43.903779 
L 291.09882 43.217015 
L 292.332837 44.523718 
L 293.566854 41.526294 
L 294.800871 46.173906 
L 296.034888 42.710281 
L 297.268905 42.943266 
L 298.502923 41.13222 
L 299.73694 45.511412 
L 300.970957 41.49857 
L 302.204974 43.155713 
L 303.438991 41.325923 
L 304.673009 44.450311 
L 305.907026 41.466571 
L 307.141043 46.017725 
L 308.37506 42.567136 
L 309.609077 43.021529 
L 310.843094 43.154947 
L 312.077112 44.726382 
L 313.311129 45.653828 
L 314.545146 44.638085 
L 315.779163 43.059257 
L 317.01318 45.394273 
L 318.247197 44.126537 
L 319.481215 41.745796 
L 320.715232 46.026112 
L 321.949249 43.870169 
L 323.183266 42.486166 
L 324.417283 44.831499 
L 325.651301 44.057114 
L 326.885318 41.924221 
L 329.353352 49.005305 
L 330.587369 46.488361 
L 331.821386 41.407905 
L 333.055404 45.545876 
L 334.289421 42.515969 
L 335.523438 42.147537 
L 336.757455 43.884551 
L 337.991472 41.498455 
L 339.22549 43.063611 
L 340.459507 41.485598 
L 341.693524 44.780952 
L 342.927541 41.844336 
L 344.161558 41.636192 
L 345.395575 47.941279 
L 346.629593 44.684285 
L 347.86361 45.278447 
L 349.097627 41.408839 
L 350.331644 43.98325 
L 351.565661 41.672968 
L 352.799678 41.503297 
L 354.033696 42.701274 
L 355.267713 44.667271 
L 357.735747 46.272948 
L 358.969764 49.745108 
L 360.203782 44.934121 
L 361.437799 41.931382 
L 362.671816 43.250037 
L 363.905833 41.909573 
L 365.13985 49.832908 
L 366.373867 45.927101 
L 367.607885 42.63258 
L 368.841902 41.623875 
L 370.075919 41.547878 
L 371.309936 45.622866 
L 372.543953 48.071863 
L 373.777971 42.70195 
L 375.011988 43.562021 
L 376.246005 41.88291 
L 377.480022 41.557089 
L 378.714039 42.556501 
L 379.948056 43.188403 
L 381.182074 43.35189 
L 382.416091 47.044329 
L 383.650108 43.236709 
L 384.884125 44.030268 
L 386.118142 42.360594 
L 387.352159 41.754007 
L 388.586177 44.09489 
L 389.820194 41.371516 
L 391.054211 44.030054 
L 392.288228 43.476553 
L 393.522245 42.507851 
L 394.756263 41.933343 
L 395.99028 43.435735 
L 397.224297 46.562081 
L 398.458314 41.864037 
L 399.692331 41.795282 
L 400.926348 45.152952 
L 402.160366 45.119205 
L 402.160366 45.119205 
" clip-path="url(#pfbf0bdac0d)" style="fill: none; stroke: #d66b6a; stroke-width: 1.5; stroke-linecap: square"/>
   </g>
   <g id="line2d_28">
    <path d="M 94.890088 331.815463 
L 96.124105 338.555105 
L 97.358123 297.244511 
L 98.59214 197.440215 
L 99.826157 53.290426 
L 101.060174 49.713351 
L 102.294191 48.531191 
L 103.528209 42.625159 
L 104.762226 41.411782 
L 105.996243 41.554459 
L 107.23026 43.179706 
L 108.464277 40.749767 
L 109.698294 41.919046 
L 110.932312 40.820545 
L 112.166329 43.404218 
L 113.400346 43.20279 
L 114.634363 43.347407 
L 115.86838 44.180017 
L 117.102397 42.232364 
L 118.336415 44.038615 
L 119.570432 40.428495 
L 120.804449 40.560741 
L 122.038466 42.730981 
L 123.272483 40.65722 
L 124.506501 43.285385 
L 125.740518 40.497008 
L 126.974535 45.536439 
L 128.208552 42.478349 
L 129.442569 45.153539 
L 130.676586 43.934622 
L 133.144621 40.413004 
L 134.378638 40.276802 
L 135.612655 45.391317 
L 136.846672 42.246756 
L 138.08069 40.402527 
L 139.314707 41.974111 
L 140.548724 45.266262 
L 141.782741 41.049561 
L 143.016758 42.863245 
L 144.250775 41.98481 
L 145.484793 41.372503 
L 146.71881 40.305669 
L 147.952827 41.260541 
L 149.186844 43.769135 
L 150.420861 40.087517 
L 151.654878 40.234967 
L 152.888896 45.361667 
L 154.122913 43.857005 
L 155.35693 41.34239 
L 156.590947 40.455143 
L 159.058982 40.301493 
L 160.292999 46.885092 
L 161.527016 41.132651 
L 162.761033 42.20439 
L 163.99505 42.888998 
L 165.229067 46.407689 
L 166.463085 41.957931 
L 167.697102 41.221648 
L 168.931119 40.937125 
L 170.165136 41.753997 
L 171.399153 40.200165 
L 172.63317 48.732778 
L 173.867188 41.201616 
L 175.101205 44.421401 
L 176.335222 40.916606 
L 177.569239 40.310382 
L 178.803256 40.421841 
L 180.037274 46.155462 
L 181.271291 40.20012 
L 182.505308 43.575067 
L 183.739325 41.105524 
L 184.973342 40.38847 
L 186.207359 41.192479 
L 187.441377 41.03885 
L 188.675394 43.50567 
L 189.909411 40.464808 
L 191.143428 43.748103 
L 192.377445 40.245495 
L 194.84548 47.010381 
L 196.079497 44.512962 
L 197.313514 41.410599 
L 198.547531 41.269262 
L 199.781548 40.630982 
L 202.249583 42.032449 
L 203.4836 40.362972 
L 204.717617 47.019637 
L 205.951634 43.574944 
L 208.419669 40.46195 
L 209.653686 41.826981 
L 210.887703 40.177168 
L 212.12172 40.342414 
L 213.355737 42.597232 
L 214.589755 45.282886 
L 215.823772 41.585867 
L 217.057789 40.442315 
L 218.291806 47.964725 
L 219.525823 41.266001 
L 220.75984 42.965919 
L 221.993858 40.49208 
L 223.227875 41.151177 
L 224.461892 40.359654 
L 225.695909 46.935706 
L 226.929926 40.895779 
L 228.163944 41.262407 
L 229.397961 40.150578 
L 230.631978 41.141052 
L 231.865995 43.689765 
L 233.100012 40.450939 
L 234.334029 40.961762 
L 235.568047 48.517409 
L 236.802064 46.102181 
L 238.036081 40.567922 
L 239.270098 43.63222 
L 240.504115 40.491025 
L 241.738132 41.126586 
L 242.97215 46.159141 
L 244.206167 45.216802 
L 245.440184 41.893831 
L 246.674201 43.497448 
L 247.908218 47.034845 
L 249.142236 43.686236 
L 250.376253 45.872266 
L 251.61027 41.20434 
L 252.844287 45.080856 
L 254.078304 40.341585 
L 255.312321 43.777077 
L 256.546339 47.806808 
L 257.780356 40.160332 
L 259.014373 41.871034 
L 260.24839 41.207199 
L 261.482407 45.402213 
L 262.716424 41.371999 
L 263.950442 45.344956 
L 265.184459 43.664602 
L 266.418476 41.180955 
L 267.652493 41.870694 
L 268.88651 46.102483 
L 270.120528 42.093305 
L 271.354545 42.712478 
L 272.588562 45.361932 
L 273.822579 41.440424 
L 275.056596 40.404307 
L 276.290613 42.914019 
L 277.524631 41.149462 
L 278.758648 42.748293 
L 279.992665 42.82784 
L 281.226682 47.745393 
L 282.460699 44.534792 
L 283.694717 42.001118 
L 284.928734 49.510838 
L 287.396768 41.21625 
L 288.630785 41.994848 
L 289.864802 46.941166 
L 291.09882 45.117185 
L 292.332837 44.587667 
L 293.566854 41.965722 
L 294.800871 43.743613 
L 296.034888 43.826479 
L 297.268905 42.773401 
L 298.502923 44.480558 
L 299.73694 46.810182 
L 300.970957 40.322947 
L 302.204974 46.161594 
L 303.438991 42.76451 
L 304.673009 42.726786 
L 305.907026 43.027166 
L 307.141043 41.196042 
L 308.37506 42.898567 
L 309.609077 45.186633 
L 310.843094 42.053036 
L 312.077112 42.508956 
L 313.311129 43.597807 
L 314.545146 42.307972 
L 315.779163 40.362172 
L 317.01318 42.171316 
L 318.247197 42.680438 
L 320.715232 49.408619 
L 321.949249 40.006225 
L 323.183266 41.191521 
L 324.417283 43.815303 
L 325.651301 43.534865 
L 326.885318 40.157281 
L 328.119335 41.239683 
L 329.353352 46.153399 
L 330.587369 43.039269 
L 331.821386 43.754746 
L 333.055404 40.524112 
L 334.289421 41.683747 
L 335.523438 40.200737 
L 336.757455 40.387015 
L 337.991472 44.046784 
L 339.22549 42.978359 
L 340.459507 46.146755 
L 341.693524 40.496506 
L 342.927541 44.388557 
L 344.161558 49.251596 
L 345.395575 40.221162 
L 347.86361 40.476813 
L 349.097627 46.757301 
L 350.331644 40.346399 
L 351.565661 44.352138 
L 352.799678 47.016709 
L 354.033696 43.395475 
L 355.267713 42.551883 
L 356.50173 44.371643 
L 357.735747 44.343922 
L 358.969764 41.923092 
L 360.203782 41.782264 
L 361.437799 42.626984 
L 362.671816 41.959298 
L 363.905833 41.999513 
L 365.13985 44.259569 
L 366.373867 43.29283 
L 367.607885 45.38695 
L 368.841902 45.223044 
L 370.075919 43.868233 
L 371.309936 40.347101 
L 373.777971 43.757779 
L 375.011988 40.252259 
L 376.246005 42.889092 
L 377.480022 41.289135 
L 378.714039 46.191243 
L 379.948056 40.371727 
L 381.182074 46.71146 
L 382.416091 42.105513 
L 383.650108 44.450461 
L 384.884125 40.539804 
L 386.118142 41.966869 
L 387.352159 40.308884 
L 389.820194 40.523583 
L 391.054211 42.129911 
L 392.288228 44.330563 
L 393.522245 40.635307 
L 394.756263 45.111455 
L 395.99028 40.404165 
L 397.224297 40.458988 
L 398.458314 40.338278 
L 399.692331 45.476736 
L 400.926348 40.316747 
L 402.160366 40.494613 
L 402.160366 40.494613 
" clip-path="url(#pfbf0bdac0d)" style="fill: none; stroke: #5591e1; stroke-width: 1.5; stroke-linecap: square"/>
   </g>
   <g id="line2d_29">
    <path d="M 94.890088 263.23284 
L 96.124105 328.008033 
L 97.358123 198.985788 
L 98.59214 48.88304 
L 99.826157 42.96151 
L 101.060174 43.574288 
L 102.294191 47.547017 
L 103.528209 50.458277 
L 104.762226 40.531211 
L 105.996243 45.569501 
L 107.23026 43.724819 
L 108.464277 43.896998 
L 109.698294 43.479864 
L 110.932312 42.799356 
L 112.166329 40.358798 
L 113.400346 43.585246 
L 114.634363 40.401904 
L 115.86838 46.344562 
L 117.102397 43.516295 
L 118.336415 41.1759 
L 119.570432 41.939121 
L 120.804449 41.694934 
L 122.038466 43.453484 
L 123.272483 42.11009 
L 124.506501 40.362322 
L 125.740518 43.380677 
L 126.974535 46.080833 
L 128.208552 44.168227 
L 129.442569 42.735284 
L 133.144621 40.391997 
L 134.378638 42.620528 
L 135.612655 42.906949 
L 136.846672 42.671875 
L 138.08069 43.015266 
L 139.314707 42.14795 
L 140.548724 43.719586 
L 141.782741 45.024158 
L 143.016758 41.29297 
L 144.250775 44.420201 
L 145.484793 44.265782 
L 146.71881 43.594045 
L 147.952827 41.178646 
L 149.186844 41.857688 
L 150.420861 40.07325 
L 151.654878 40.222383 
L 152.888896 40.540987 
L 154.122913 46.766554 
L 155.35693 40.346042 
L 156.590947 40.274643 
L 157.824964 41.914562 
L 159.058982 47.573224 
L 160.292999 46.138063 
L 161.527016 42.662268 
L 162.761033 41.86117 
L 163.99505 45.144435 
L 165.229067 41.135976 
L 166.463085 46.459948 
L 167.697102 40.060479 
L 168.931119 42.659241 
L 170.165136 39.957976 
L 172.63317 43.677254 
L 173.867188 40.625929 
L 175.101205 40.069466 
L 176.335222 43.647144 
L 177.569239 43.727467 
L 178.803256 40.491194 
L 180.037274 41.15096 
L 181.271291 42.662539 
L 182.505308 40.402437 
L 183.739325 40.296826 
L 184.973342 41.955035 
L 186.207359 41.119926 
L 188.675394 46.031088 
L 189.909411 41.848835 
L 191.143428 41.871337 
L 192.377445 43.698255 
L 193.611463 40.359932 
L 194.84548 42.706814 
L 197.313514 41.102661 
L 198.547531 41.679233 
L 199.781548 41.832251 
L 201.015566 45.94637 
L 202.249583 40.450727 
L 203.4836 42.841732 
L 204.717617 43.432874 
L 205.951634 44.914691 
L 207.185651 41.01314 
L 208.419669 40.308084 
L 209.653686 41.257252 
L 210.887703 40.49052 
L 212.12172 49.919679 
L 213.355737 42.677344 
L 214.589755 40.521582 
L 215.823772 40.430873 
L 217.057789 45.251464 
L 218.291806 43.445223 
L 219.525823 40.452911 
L 220.75984 40.137698 
L 221.993858 42.721636 
L 223.227875 41.751269 
L 224.461892 40.422367 
L 225.695909 42.794092 
L 226.929926 40.240423 
L 228.163944 44.9768 
L 229.397961 46.756528 
L 230.631978 40.338858 
L 231.865995 40.418107 
L 233.100012 44.397122 
L 234.334029 43.696097 
L 235.568047 44.384895 
L 236.802064 40.252816 
L 238.036081 45.089394 
L 239.270098 46.908378 
L 240.504115 40.445711 
L 241.738132 41.47746 
L 242.97215 40.356327 
L 244.206167 42.786685 
L 245.440184 40.255841 
L 246.674201 42.659764 
L 247.908218 42.55019 
L 249.142236 48.641239 
L 250.376253 44.299051 
L 251.61027 43.746171 
L 252.844287 40.348447 
L 254.078304 40.581559 
L 255.312321 46.719813 
L 256.546339 40.370415 
L 257.780356 42.954158 
L 259.014373 44.482852 
L 260.24839 43.759086 
L 261.482407 41.945955 
L 262.716424 46.900267 
L 263.950442 43.533213 
L 265.184459 43.749274 
L 266.418476 41.452587 
L 267.652493 40.710002 
L 268.88651 41.430765 
L 270.120528 42.793101 
L 271.354545 42.927207 
L 272.588562 44.34113 
L 273.822579 52.130539 
L 275.056596 43.55671 
L 276.290613 43.098804 
L 277.524631 43.636109 
L 278.758648 48.555926 
L 279.992665 40.674346 
L 281.226682 40.823684 
L 282.460699 40.33354 
L 283.694717 40.778186 
L 284.928734 41.590976 
L 286.162751 40.570344 
L 287.396768 42.271055 
L 288.630785 45.385004 
L 289.864802 44.51312 
L 291.09882 42.873289 
L 292.332837 44.148412 
L 293.566854 40.882519 
L 294.800871 42.236414 
L 296.034888 40.276454 
L 298.502923 41.326363 
L 299.73694 46.099778 
L 300.970957 44.705728 
L 302.204974 40.359185 
L 303.438991 42.533587 
L 304.673009 50.263895 
L 305.907026 43.722081 
L 307.141043 45.410329 
L 308.37506 41.542374 
L 309.609077 42.246225 
L 310.843094 43.130649 
L 312.077112 40.730953 
L 313.311129 42.93187 
L 314.545146 42.318865 
L 315.779163 42.566815 
L 317.01318 40.66638 
L 318.247197 43.111377 
L 319.481215 42.970741 
L 320.715232 40.780189 
L 323.183266 42.293743 
L 324.417283 46.105732 
L 325.651301 43.114696 
L 326.885318 40.728031 
L 328.119335 43.848764 
L 329.353352 42.162075 
L 330.587369 43.30184 
L 331.821386 42.755977 
L 333.055404 40.755768 
L 334.289421 43.06457 
L 335.523438 40.644377 
L 336.757455 43.305532 
L 339.22549 41.877257 
L 340.459507 40.754522 
L 341.693524 44.144573 
L 342.927541 41.96675 
L 344.161558 40.642871 
L 345.395575 42.477475 
L 346.629593 41.163791 
L 347.86361 41.750034 
L 349.097627 47.132645 
L 350.331644 42.43524 
L 351.565661 43.220503 
L 352.799678 41.016901 
L 354.033696 41.455594 
L 355.267713 43.969114 
L 356.50173 44.441364 
L 357.735747 40.809322 
L 358.969764 46.493675 
L 360.203782 40.674267 
L 361.437799 40.657087 
L 362.671816 42.285778 
L 363.905833 47.893916 
L 365.13985 43.714757 
L 366.373867 40.266429 
L 367.607885 47.976976 
L 368.841902 40.790309 
L 370.075919 40.842817 
L 371.309936 42.011796 
L 372.543953 44.068627 
L 373.777971 43.42912 
L 375.011988 40.920545 
L 377.480022 42.488885 
L 378.714039 40.956137 
L 379.948056 40.842043 
L 381.182074 43.310876 
L 383.650108 40.665828 
L 384.884125 41.698655 
L 386.118142 43.18319 
L 387.352159 40.937082 
L 388.586177 41.761124 
L 389.820194 41.113807 
L 391.054211 45.826676 
L 392.288228 41.06483 
L 393.522245 41.241687 
L 394.756263 43.465953 
L 395.99028 41.833469 
L 397.224297 40.972225 
L 398.458314 47.357569 
L 399.692331 41.226383 
L 400.926348 42.610207 
L 402.160366 43.519519 
L 402.160366 43.519519 
" clip-path="url(#pfbf0bdac0d)" style="fill: none; stroke: #6ca247; stroke-width: 1.5; stroke-linecap: square"/>
   </g>
   <g id="patch_3">
    <path d="M 79.526574 376.318305 
L 79.526574 7.2 
" style="fill: none; stroke: #000000; stroke-width: 0.8; stroke-linejoin: miter; stroke-linecap: square"/>
   </g>
   <g id="patch_4">
    <path d="M 417.523879 376.318305 
L 417.523879 7.2 
" style="fill: none; stroke: #000000; stroke-width: 0.8; stroke-linejoin: miter; stroke-linecap: square"/>
   </g>
   <g id="patch_5">
    <path d="M 79.526574 376.318305 
L 417.523879 376.318305 
" style="fill: none; stroke: #000000; stroke-width: 0.8; stroke-linejoin: miter; stroke-linecap: square"/>
   </g>
   <g id="patch_6">
    <path d="M 79.526574 7.2 
L 417.523879 7.2 
" style="fill: none; stroke: #000000; stroke-width: 0.8; stroke-linejoin: miter; stroke-linecap: square"/>
   </g>
   <g id="legend_1">
    <g id="patch_7">
     <path d="M 308.417969 368.318305 
L 406.323879 368.318305 
Q 409.523879 368.318305 409.523879 365.118305 
L 409.523879 299.819877 
Q 409.523879 296.619877 406.323879 296.619877 
L 308.417969 296.619877 
Q 305.217969 296.619877 305.217969 299.819877 
L 305.217969 365.118305 
Q 305.217969 368.318305 308.417969 368.318305 
z
" style="fill: #ffffff; opacity: 0.8; stroke: #cccccc; stroke-linejoin: miter"/>
    </g>
    <g id="line2d_30">
     <path d="M 311.617969 308.619877 
L 327.617969 308.619877 
L 343.617969 308.619877 
" style="fill: none; stroke: #d66b6a; stroke-width: 1.5; stroke-linecap: square"/>
    </g>
    <g id="text_16">
     <!-- SAC -->
     <g transform="translate(356.417969 314.219877) scale(0.16 -0.16)">
      <defs>
       <path id="CMR17-41" d="M 2323 4441 
C 2291 4524 2278 4544 2214 4544 
C 2150 4544 2138 4524 2106 4441 
L 749 580 
C 627 236 371 166 147 166 
L 147 0 
C 262 12 518 12 640 12 
C 800 12 1056 12 1210 0 
L 1210 166 
C 909 179 864 382 864 459 
C 864 516 877 548 890 586 
L 1229 1536 
L 2906 1536 
L 3290 453 
C 3322 376 3322 363 3322 338 
C 3322 166 3046 166 2925 166 
L 2925 0 
C 3110 12 3443 12 3642 12 
C 3808 12 4128 12 4282 0 
L 4282 166 
C 3942 166 3827 166 3744 402 
L 2323 4441 
z
M 2067 3924 
L 2848 1702 
L 1286 1702 
L 2067 3924 
z
" transform="scale(0.015625)"/>
       <path id="CMR17-43" d="M 3974 4351 
C 3974 4467 3968 4473 3930 4473 
C 3904 4473 3898 4467 3853 4390 
L 3571 3849 
C 3258 4249 2874 4480 2381 4480 
C 1286 4480 294 3507 294 2179 
C 294 837 1286 -128 2387 -128 
C 3366 -128 3974 741 3974 1482 
C 3974 1547 3974 1573 3917 1573 
C 3866 1573 3866 1553 3859 1495 
C 3808 592 3168 38 2477 38 
C 1824 38 781 502 781 2179 
C 781 3862 1843 4313 2464 4313 
C 3187 4313 3712 3681 3834 2785 
C 3846 2707 3846 2695 3904 2695 
C 3974 2695 3974 2707 3974 2824 
L 3974 4351 
z
" transform="scale(0.015625)"/>
      </defs>
      <use xlink:href="#CMR17-53" transform="scale(0.996264)"/>
      <use xlink:href="#CMR17-41" transform="translate(50.89537 0) scale(0.996264)"/>
      <use xlink:href="#CMR17-43" transform="translate(117.365346 0) scale(0.996264)"/>
     </g>
    </g>
    <g id="line2d_31">
     <path d="M 311.617969 330.919353 
L 327.617969 330.919353 
L 343.617969 330.919353 
" style="fill: none; stroke: #5591e1; stroke-width: 1.5; stroke-linecap: square"/>
    </g>
    <g id="text_17">
     <!-- AFU -->
     <g transform="translate(356.417969 336.519353) scale(0.16 -0.16)">
      <defs>
       <path id="CMR17-46" d="M 3482 4339 
L 326 4339 
L 326 4172 
C 768 4172 838 4172 838 3883 
L 838 450 
C 838 166 768 166 326 166 
L 326 0 
C 512 12 870 12 1069 12 
C 1331 12 1638 12 1901 0 
L 1901 166 
L 1760 166 
C 1274 166 1261 229 1261 456 
L 1261 2073 
L 1837 2073 
C 2432 2073 2490 1865 2490 1334 
L 2605 1334 
L 2605 2991 
L 2490 2991 
C 2490 2451 2432 2240 1837 2240 
L 1261 2240 
L 1261 3922 
C 1261 4140 1274 4172 1530 4172 
L 2355 4172 
C 3322 4172 3430 3774 3520 2920 
L 3635 2920 
L 3482 4339 
z
" transform="scale(0.015625)"/>
       <path id="CMR17-55" d="M 3456 1442 
C 3456 583 2899 38 2291 38 
C 1965 38 1670 211 1491 480 
C 1286 788 1261 1185 1261 1410 
L 1261 3897 
C 1261 4185 1331 4185 1773 4185 
L 1773 4352 
C 1587 4339 1248 4339 1050 4339 
C 851 4339 512 4339 326 4352 
L 326 4185 
C 768 4185 838 4185 838 3897 
L 838 1442 
C 838 519 1536 -128 2278 -128 
C 3110 -128 3590 724 3590 1352 
L 3590 3788 
C 3590 4147 3917 4185 4102 4185 
L 4102 4352 
C 3955 4339 3686 4339 3526 4339 
C 3366 4339 3091 4339 2944 4352 
L 2944 4185 
C 3456 4185 3456 3884 3456 3724 
L 3456 1442 
z
" transform="scale(0.015625)"/>
      </defs>
      <use xlink:href="#CMR17-41" transform="scale(0.996264)"/>
      <use xlink:href="#CMR17-46" transform="translate(69.07243 0) scale(0.996264)"/>
      <use xlink:href="#CMR17-55" transform="translate(129.056276 0) scale(0.996264)"/>
     </g>
    </g>
    <g id="line2d_32">
     <path d="M 311.617969 353.218829 
L 327.617969 353.218829 
L 343.617969 353.218829 
" style="fill: none; stroke: #6ca247; stroke-width: 1.5; stroke-linecap: square"/>
    </g>
    <g id="text_18">
     <!-- DDPG -->
     <g transform="translate(356.417969 358.818829) scale(0.16 -0.16)">
      <defs>
       <path id="CMR17-44" d="M 333 4352 
L 333 4185 
C 774 4185 845 4185 845 3898 
L 845 453 
C 845 166 774 166 333 166 
L 333 0 
L 2368 0 
C 3398 0 4224 943 4224 2140 
C 4224 3344 3411 4352 2368 4352 
L 333 4352 
z
M 1523 166 
C 1267 166 1254 198 1254 414 
L 1254 3936 
C 1254 4153 1267 4185 1523 4185 
L 2240 4185 
C 2771 4185 3750 3873 3750 2140 
C 3750 1242 3488 879 3366 707 
C 3213 510 2848 166 2240 166 
L 1523 166 
z
" transform="scale(0.015625)"/>
       <path id="CMR17-50" d="M 1267 2048 
L 2291 2048 
C 3117 2048 3718 2583 3718 3187 
C 3718 3791 3130 4352 2291 4352 
L 333 4352 
L 333 4185 
C 774 4185 845 4185 845 3899 
L 845 453 
C 845 166 774 166 333 166 
L 333 0 
C 518 12 858 12 1056 12 
C 1254 12 1594 12 1779 0 
L 1779 166 
C 1338 166 1267 166 1267 453 
L 1267 2048 
z
M 1254 2182 
L 1254 3937 
C 1254 4153 1267 4185 1523 4185 
L 2170 4185 
C 2995 4185 3232 3715 3232 3187 
C 3232 2608 2950 2182 2170 2182 
L 1254 2182 
z
" transform="scale(0.015625)"/>
       <path id="CMR17-47" d="M 3974 1258 
C 3974 1503 3994 1536 4390 1536 
L 4390 1702 
C 4237 1689 3891 1689 3718 1689 
C 3539 1689 3040 1696 2797 1702 
L 2797 1536 
L 2989 1536 
C 3539 1536 3552 1464 3552 1232 
L 3552 806 
C 3552 96 2720 38 2522 38 
C 1862 38 781 496 781 2179 
C 781 3862 1843 4313 2464 4313 
C 3187 4313 3712 3681 3834 2785 
C 3846 2708 3846 2695 3904 2695 
C 3974 2695 3974 2708 3974 2824 
L 3974 4351 
C 3974 4467 3968 4473 3930 4473 
C 3904 4473 3898 4467 3853 4390 
L 3571 3849 
C 3258 4249 2874 4480 2381 4480 
C 1286 4480 294 3507 294 2179 
C 294 858 1267 -128 2394 -128 
C 2912 -128 3418 57 3616 425 
C 3725 161 3904 -20 3936 -20 
C 3968 -20 3974 -13 3974 102 
L 3974 1258 
z
" transform="scale(0.015625)"/>
      </defs>
      <use xlink:href="#CMR17-44" transform="scale(0.996264)"/>
      <use xlink:href="#CMR17-44" transform="translate(70.393556 0) scale(0.996264)"/>
      <use xlink:href="#CMR17-50" transform="translate(140.787112 0) scale(0.996264)"/>
      <use xlink:href="#CMR17-47" transform="translate(203.373412 0) scale(0.996264)"/>
     </g>
    </g>
   </g>
  </g>
 </g>
 <defs>
  <clipPath id="pfbf0bdac0d">
   <rect x="79.526574" y="7.2" width="337.997305" height="369.118305"/>
  </clipPath>
 </defs>
</svg>
