<?xml version="1.0" encoding="utf-8" standalone="no"?>
<!DOCTYPE svg PUBLIC "-//W3C//DTD SVG 1.1//EN"
  "http://www.w3.org/Graphics/SVG/1.1/DTD/svg11.dtd">
<svg xmlns:xlink="http://www.w3.org/1999/xlink" width="720pt" height="432pt" viewBox="0 0 720 432" xmlns="http://www.w3.org/2000/svg" version="1.1">
 <metadata>
  <rdf:RDF xmlns:dc="http://purl.org/dc/elements/1.1/" xmlns:cc="http://creativecommons.org/ns#" xmlns:rdf="http://www.w3.org/1999/02/22-rdf-syntax-ns#">
   <cc:Work>
    <dc:type rdf:resource="http://purl.org/dc/dcmitype/StillImage"/>
    <dc:date>2025-05-06T17:20:39.943444</dc:date>
    <dc:format>image/svg+xml</dc:format>
    <dc:creator>
     <cc:Agent>
      <dc:title>Matplotlib v3.10.0, https://matplotlib.org/</dc:title>
     </cc:Agent>
    </dc:creator>
   </cc:Work>
  </rdf:RDF>
 </metadata>
 <defs>
  <style type="text/css">*{stroke-linejoin: round; stroke-linecap: butt}</style>
 </defs>
 <g id="figure_1">
  <g id="patch_1">
   <path d="M 0 432 
L 720 432 
L 720 0 
L 0 0 
z
" style="fill: #ffffff"/>
  </g>
  <g id="axes_1">
   <g id="patch_2">
    <path d="M 90 384.48 
L 648 384.48 
L 648 51.84 
L 90 51.84 
z
" style="fill: #ffffff"/>
   </g>
   <g id="FillBetweenPolyCollection_1">
    <defs>
     <path id="m9033a16a26" d="M 115.363636 -153.579894 
L 115.363636 -101.933546 
L 117.400876 -75.950846 
L 119.438116 -113.124616 
L 121.475356 -163.758122 
L 123.512596 -162.419837 
L 125.549836 -168.378306 
L 127.587076 -170.906424 
L 129.624315 -180.440235 
L 131.661555 -192.782151 
L 133.698795 -200.964501 
L 135.736035 -195.764131 
L 137.773275 -185.72315 
L 139.810515 -202.040391 
L 141.847755 -175.31485 
L 143.884995 -195.366848 
L 145.922234 -194.685773 
L 147.959474 -193.41692 
L 149.996714 -191.8269 
L 152.033954 -190.456612 
L 154.071194 -195.272664 
L 156.108434 -192.293145 
L 158.145674 -192.956253 
L 160.182913 -199.251612 
L 162.220153 -194.571338 
L 164.257393 -202.616106 
L 166.294633 -207.353547 
L 168.331873 -205.607303 
L 170.369113 -216.744243 
L 172.406353 -199.766074 
L 174.443593 -212.400418 
L 176.480832 -213.028268 
L 178.518072 -210.367874 
L 180.555312 -212.078102 
L 182.592552 -221.963015 
L 184.629792 -215.084153 
L 186.667032 -210.502681 
L 188.704272 -231.838558 
L 190.741512 -228.051984 
L 192.778751 -237.666586 
L 194.815991 -237.701068 
L 196.853231 -237.530844 
L 198.890471 -237.635491 
L 200.927711 -238.722185 
L 202.964951 -256.016862 
L 205.002191 -238.663657 
L 207.03943 -234.858619 
L 209.07667 -238.200398 
L 211.11391 -238.904408 
L 213.15115 -239.052136 
L 215.18839 -237.344027 
L 217.22563 -238.608134 
L 219.26287 -234.207421 
L 221.30011 -229.650385 
L 223.337349 -238.642516 
L 225.374589 -238.081175 
L 227.411829 -239.850316 
L 229.449069 -241.349063 
L 231.486309 -242.473037 
L 233.523549 -239.948946 
L 235.560789 -258.817076 
L 237.598028 -257.640809 
L 239.635268 -251.193721 
L 241.672508 -266.068086 
L 243.709748 -240.4594 
L 245.746988 -247.707548 
L 247.784228 -257.123497 
L 249.821468 -242.809488 
L 251.858708 -277.817662 
L 253.895947 -247.825888 
L 255.933187 -279.580523 
L 257.970427 -280.304883 
L 260.007667 -308.223307 
L 262.044907 -304.875997 
L 264.082147 -307.871276 
L 266.119387 -307.504036 
L 268.156627 -318.377136 
L 270.193866 -309.822888 
L 272.231106 -308.173195 
L 274.268346 -319.465242 
L 276.305586 -315.381692 
L 278.342826 -324.494919 
L 280.380066 -309.105616 
L 282.417306 -314.000523 
L 284.454545 -309.672211 
L 286.491785 -313.288848 
L 288.529025 -312.150816 
L 290.566265 -325.090129 
L 292.603505 -325.532689 
L 294.640745 -322.370394 
L 296.677985 -323.366268 
L 298.715225 -312.945713 
L 300.752464 -310.153584 
L 302.789704 -310.380905 
L 304.826944 -315.895647 
L 306.864184 -313.027417 
L 308.901424 -325.052138 
L 310.938664 -326.232705 
L 312.975904 -326.355717 
L 315.013143 -331.885988 
L 317.050383 -323.707193 
L 319.087623 -321.800882 
L 321.124863 -325.663259 
L 323.162103 -328.658828 
L 325.199343 -328.398814 
L 327.236583 -341.388765 
L 329.273823 -325.636744 
L 331.311062 -326.117386 
L 333.348302 -328.326285 
L 335.385542 -325.149885 
L 337.422782 -325.94695 
L 339.460022 -326.083304 
L 341.497262 -326.598229 
L 343.534502 -326.868114 
L 345.571742 -325.147247 
L 347.608981 -327.183952 
L 349.646221 -327.638725 
L 351.683461 -341.210071 
L 353.720701 -323.768349 
L 355.757941 -326.29659 
L 357.795181 -323.076882 
L 359.832421 -324.593631 
L 361.86966 -324.873603 
L 363.9069 -324.277616 
L 365.94414 -327.509181 
L 367.98138 -325.868864 
L 370.01862 -326.605038 
L 372.05586 -326.283324 
L 374.0931 -331.721601 
L 376.13034 -324.904005 
L 378.167579 -326.667105 
L 380.204819 -326.090786 
L 382.242059 -325.379907 
L 384.279299 -342.094505 
L 386.316539 -326.175004 
L 388.353779 -324.942913 
L 390.391019 -327.108553 
L 392.428258 -327.199678 
L 394.465498 -327.351397 
L 396.502738 -326.759547 
L 398.539978 -325.564191 
L 400.577218 -326.376769 
L 402.614458 -325.819819 
L 404.651698 -327.342871 
L 406.688938 -343.364386 
L 408.726177 -328.362578 
L 410.763417 -326.770171 
L 412.800657 -343.194659 
L 414.837897 -327.482663 
L 416.875137 -326.662053 
L 418.912377 -328.397532 
L 420.949617 -332.460132 
L 422.986857 -327.099807 
L 425.024096 -325.848395 
L 427.061336 -326.875136 
L 429.098576 -327.085214 
L 431.135816 -342.901024 
L 433.173056 -325.920538 
L 435.210296 -325.313728 
L 437.247536 -330.902546 
L 439.284775 -343.915554 
L 441.322015 -325.925359 
L 443.359255 -332.05992 
L 445.396495 -327.897718 
L 447.433735 -326.719775 
L 449.470975 -343.689423 
L 451.508215 -327.092722 
L 453.545455 -327.693965 
L 455.582694 -331.7327 
L 457.619934 -327.873478 
L 459.657174 -344.289226 
L 461.694414 -327.323923 
L 463.731654 -343.13318 
L 465.768894 -343.512822 
L 467.806134 -326.783946 
L 469.843373 -343.691688 
L 471.880613 -326.439637 
L 473.917853 -326.541076 
L 475.955093 -326.815033 
L 477.992333 -342.950747 
L 480.029573 -326.787191 
L 482.066813 -327.158354 
L 484.104053 -326.631275 
L 486.141292 -328.032557 
L 488.178532 -327.590583 
L 490.215772 -332.160837 
L 492.253012 -331.392229 
L 494.290252 -326.662945 
L 496.327492 -327.770478 
L 498.364732 -344.464563 
L 500.401972 -325.650374 
L 502.439211 -327.823485 
L 504.476451 -327.401549 
L 506.513691 -325.64738 
L 508.550931 -343.201535 
L 510.588171 -326.966087 
L 512.625411 -326.248065 
L 514.662651 -327.823648 
L 516.69989 -326.742812 
L 518.73713 -326.279229 
L 520.77437 -327.358974 
L 522.81161 -326.608484 
L 524.84885 -326.934826 
L 526.88609 -326.61915 
L 528.92333 -343.058401 
L 530.96057 -342.67106 
L 532.997809 -325.905856 
L 535.035049 -327.785021 
L 537.072289 -330.768253 
L 539.109529 -326.581072 
L 541.146769 -326.524177 
L 543.184009 -341.991598 
L 545.221249 -327.505671 
L 547.258488 -341.687016 
L 549.295728 -326.726172 
L 551.332968 -326.885391 
L 553.370208 -326.324952 
L 555.407448 -328.59743 
L 557.444688 -327.427655 
L 559.481928 -326.060715 
L 561.519168 -327.330086 
L 563.556407 -342.299424 
L 565.593647 -326.33744 
L 567.630887 -341.996793 
L 569.668127 -326.473473 
L 571.705367 -328.27466 
L 573.742607 -327.721818 
L 575.779847 -342.955066 
L 577.817087 -325.103124 
L 579.854326 -326.272839 
L 581.891566 -343.347964 
L 583.928806 -326.797596 
L 585.966046 -325.469063 
L 588.003286 -325.559221 
L 590.040526 -327.313663 
L 592.077766 -327.228351 
L 594.115005 -327.268115 
L 596.152245 -326.212445 
L 598.189485 -331.155936 
L 600.226725 -325.776527 
L 602.263965 -331.815442 
L 604.301205 -327.109633 
L 606.338445 -327.146569 
L 608.375685 -327.71434 
L 610.412924 -332.435719 
L 612.450164 -343.692502 
L 614.487404 -344.339391 
L 616.524644 -326.974639 
L 618.561884 -327.364332 
L 620.599124 -327.025825 
L 622.636364 -326.949371 
L 622.636364 -346.197019 
L 622.636364 -346.197019 
L 620.599124 -345.516362 
L 618.561884 -345.861108 
L 616.524644 -345.583599 
L 614.487404 -345.744459 
L 612.450164 -346.22177 
L 610.412924 -345.957318 
L 608.375685 -345.477208 
L 606.338445 -345.755992 
L 604.301205 -346.041197 
L 602.263965 -345.605448 
L 600.226725 -345.092386 
L 598.189485 -345.650239 
L 596.152245 -345.972365 
L 594.115005 -345.504296 
L 592.077766 -345.988461 
L 590.040526 -345.195242 
L 588.003286 -346.14335 
L 585.966046 -345.807364 
L 583.928806 -345.409288 
L 581.891566 -345.797103 
L 579.854326 -345.453053 
L 577.817087 -345.906429 
L 575.779847 -346.291393 
L 573.742607 -345.081189 
L 571.705367 -345.539128 
L 569.668127 -345.357947 
L 567.630887 -345.230562 
L 565.593647 -345.570947 
L 563.556407 -345.493457 
L 561.519168 -346.227367 
L 559.481928 -345.690017 
L 557.444688 -345.542086 
L 555.407448 -345.57759 
L 553.370208 -345.83727 
L 551.332968 -345.273792 
L 549.295728 -345.382339 
L 547.258488 -345.709155 
L 545.221249 -345.474352 
L 543.184009 -346.041468 
L 541.146769 -345.708859 
L 539.109529 -346.173834 
L 537.072289 -345.951679 
L 535.035049 -346.091633 
L 532.997809 -345.952304 
L 530.96057 -346.097615 
L 528.92333 -346.138672 
L 526.88609 -346.181616 
L 524.84885 -345.797618 
L 522.81161 -345.578879 
L 520.77437 -345.777551 
L 518.73713 -345.784483 
L 516.69989 -345.45468 
L 514.662651 -345.378465 
L 512.625411 -345.608925 
L 510.588171 -345.802169 
L 508.550931 -346.577933 
L 506.513691 -345.600309 
L 504.476451 -346.286377 
L 502.439211 -345.9482 
L 500.401972 -345.522322 
L 498.364732 -346.081767 
L 496.327492 -345.931755 
L 494.290252 -345.928794 
L 492.253012 -345.969756 
L 490.215772 -345.780493 
L 488.178532 -345.849662 
L 486.141292 -345.383439 
L 484.104053 -345.647609 
L 482.066813 -345.960837 
L 480.029573 -345.650549 
L 477.992333 -345.484074 
L 475.955093 -345.571045 
L 473.917853 -345.55991 
L 471.880613 -345.506329 
L 469.843373 -345.497401 
L 467.806134 -345.671526 
L 465.768894 -345.647803 
L 463.731654 -345.607835 
L 461.694414 -345.770196 
L 459.657174 -346.001706 
L 457.619934 -345.787432 
L 455.582694 -345.443481 
L 453.545455 -345.557563 
L 451.508215 -345.830438 
L 449.470975 -346.04002 
L 447.433735 -346.148991 
L 445.396495 -345.560103 
L 443.359255 -345.13076 
L 441.322015 -345.18061 
L 439.284775 -345.818153 
L 437.247536 -345.442989 
L 435.210296 -344.931053 
L 433.173056 -345.778933 
L 431.135816 -345.494412 
L 429.098576 -345.776605 
L 427.061336 -344.889812 
L 425.024096 -345.346675 
L 422.986857 -345.342872 
L 420.949617 -345.674006 
L 418.912377 -345.619836 
L 416.875137 -345.407646 
L 414.837897 -345.708228 
L 412.800657 -345.872451 
L 410.763417 -345.592308 
L 408.726177 -345.778776 
L 406.688938 -346.57769 
L 404.651698 -345.369267 
L 402.614458 -345.61683 
L 400.577218 -345.65068 
L 398.539978 -345.473395 
L 396.502738 -345.525586 
L 394.465498 -345.420727 
L 392.428258 -345.377862 
L 390.391019 -345.391155 
L 388.353779 -345.550964 
L 386.316539 -345.456805 
L 384.279299 -346.081923 
L 382.242059 -345.705528 
L 380.204819 -346.091534 
L 378.167579 -346.219339 
L 376.13034 -345.893816 
L 374.0931 -345.909964 
L 372.05586 -345.686594 
L 370.01862 -345.951009 
L 367.98138 -345.267579 
L 365.94414 -346.324746 
L 363.9069 -346.17111 
L 361.86966 -345.711211 
L 359.832421 -345.545459 
L 357.795181 -345.031994 
L 355.757941 -346.520013 
L 353.720701 -345.757174 
L 351.683461 -346.548667 
L 349.646221 -345.785875 
L 347.608981 -345.591915 
L 345.571742 -345.817015 
L 343.534502 -346.227816 
L 341.497262 -345.914805 
L 339.460022 -345.995553 
L 337.422782 -345.999321 
L 335.385542 -345.78212 
L 333.348302 -345.79626 
L 331.311062 -346.291489 
L 329.273823 -345.992498 
L 327.236583 -362.060325 
L 325.199343 -345.692753 
L 323.162103 -345.895121 
L 321.124863 -345.8021 
L 319.087623 -345.511458 
L 317.050383 -346.068593 
L 315.013143 -346.213802 
L 312.975904 -346.486589 
L 310.938664 -345.872221 
L 308.901424 -345.773366 
L 306.864184 -345.848137 
L 304.826944 -345.991488 
L 302.789704 -345.349711 
L 300.752464 -345.842513 
L 298.715225 -345.88456 
L 296.677985 -345.468681 
L 294.640745 -345.737967 
L 292.603505 -344.890283 
L 290.566265 -345.78616 
L 288.529025 -345.375447 
L 286.491785 -344.90311 
L 284.454545 -345.003927 
L 282.417306 -345.491663 
L 280.380066 -344.992926 
L 278.342826 -345.579213 
L 276.305586 -345.81587 
L 274.268346 -344.960511 
L 272.231106 -345.367144 
L 270.193866 -345.759765 
L 268.156627 -345.227302 
L 266.119387 -345.045248 
L 264.082147 -345.798504 
L 262.044907 -345.400746 
L 260.007667 -345.501792 
L 257.970427 -344.454614 
L 255.933187 -345.379308 
L 253.895947 -345.612935 
L 251.858708 -345.449344 
L 249.821468 -345.677571 
L 247.784228 -345.516468 
L 245.746988 -344.856334 
L 243.709748 -345.692001 
L 241.672508 -345.506732 
L 239.635268 -345.363297 
L 237.598028 -345.841968 
L 235.560789 -345.760048 
L 233.523549 -344.973145 
L 231.486309 -345.232289 
L 229.449069 -344.876302 
L 227.411829 -345.649952 
L 225.374589 -345.816018 
L 223.337349 -345.682789 
L 221.30011 -345.202279 
L 219.26287 -344.602522 
L 217.22563 -345.02867 
L 215.18839 -344.344254 
L 213.15115 -344.785343 
L 211.11391 -345.115445 
L 209.07667 -344.245643 
L 207.03943 -344.720377 
L 205.002191 -344.565301 
L 202.964951 -343.99061 
L 200.927711 -343.716929 
L 198.890471 -343.138812 
L 196.853231 -343.129565 
L 194.815991 -343.215014 
L 192.778751 -323.52298 
L 190.741512 -323.919669 
L 188.704272 -305.7741 
L 186.667032 -259.655071 
L 184.629792 -337.921576 
L 182.592552 -320.827824 
L 180.555312 -241.257465 
L 178.518072 -257.49461 
L 176.480832 -256.670603 
L 174.443593 -252.285163 
L 172.406353 -243.741361 
L 170.369113 -247.660952 
L 168.331873 -237.562367 
L 166.294633 -237.308098 
L 164.257393 -237.093086 
L 162.220153 -236.695825 
L 160.182913 -238.377162 
L 158.145674 -236.242564 
L 156.108434 -236.613774 
L 154.071194 -235.869476 
L 152.033954 -244.260179 
L 149.996714 -215.460242 
L 147.959474 -236.63177 
L 145.922234 -225.948647 
L 143.884995 -226.779774 
L 141.847755 -212.531079 
L 139.810515 -217.29824 
L 137.773275 -219.106352 
L 135.736035 -216.485677 
L 133.698795 -229.605241 
L 131.661555 -218.612495 
L 129.624315 -206.607143 
L 127.587076 -212.961904 
L 125.549836 -212.933857 
L 123.512596 -210.825706 
L 121.475356 -213.743041 
L 119.438116 -169.13771 
L 117.400876 -94.448552 
L 115.363636 -153.579894 
z
" style="stroke: #d00000; stroke-opacity: 0.2"/>
    </defs>
    <g clip-path="url(#pb6aa5946f7)">
     <use xlink:href="#m9033a16a26" x="0" y="432" style="fill: #d00000; fill-opacity: 0.2; stroke: #d00000; stroke-opacity: 0.2"/>
    </g>
   </g>
   <g id="FillBetweenPolyCollection_2">
    <defs>
     <path id="m9b91136245" d="M 115.363636 -129.669924 
L 115.363636 -96.196862 
L 117.400876 -62.64 
L 119.438116 -129.162154 
L 121.475356 -135.570162 
L 123.512596 -161.635667 
L 125.549836 -238.776509 
L 127.587076 -264.08305 
L 129.624315 -303.036041 
L 131.661555 -322.153353 
L 133.698795 -323.299368 
L 135.736035 -324.22526 
L 137.773275 -326.510293 
L 139.810515 -325.519552 
L 141.847755 -325.144532 
L 143.884995 -325.864327 
L 145.922234 -327.568337 
L 147.959474 -326.72312 
L 149.996714 -325.984423 
L 152.033954 -326.528502 
L 154.071194 -327.36333 
L 156.108434 -326.737036 
L 158.145674 -327.310462 
L 160.182913 -327.082127 
L 162.220153 -326.667204 
L 164.257393 -344.797466 
L 166.294633 -326.651323 
L 168.331873 -326.613607 
L 170.369113 -327.405128 
L 172.406353 -332.275974 
L 174.443593 -326.745301 
L 176.480832 -326.457856 
L 178.518072 -326.019887 
L 180.555312 -344.423759 
L 182.592552 -327.134381 
L 184.629792 -327.805289 
L 186.667032 -327.020699 
L 188.704272 -326.68074 
L 190.741512 -327.16827 
L 192.778751 -327.083253 
L 194.815991 -327.17125 
L 196.853231 -326.15068 
L 198.890471 -327.073637 
L 200.927711 -326.430134 
L 202.964951 -327.424639 
L 205.002191 -344.947457 
L 207.03943 -326.477134 
L 209.07667 -327.389368 
L 211.11391 -344.540433 
L 213.15115 -328.485991 
L 215.18839 -326.979378 
L 217.22563 -344.482421 
L 219.26287 -344.95633 
L 221.30011 -332.578848 
L 223.337349 -326.872753 
L 225.374589 -327.432002 
L 227.411829 -344.593586 
L 229.449069 -327.991972 
L 231.486309 -327.360617 
L 233.523549 -344.603896 
L 235.560789 -327.00336 
L 237.598028 -326.513694 
L 239.635268 -327.296769 
L 241.672508 -326.87628 
L 243.709748 -344.479569 
L 245.746988 -326.28907 
L 247.784228 -344.723943 
L 249.821468 -325.879218 
L 251.858708 -331.667366 
L 253.895947 -328.295703 
L 255.933187 -332.170979 
L 257.970427 -344.481459 
L 260.007667 -344.266015 
L 262.044907 -327.763422 
L 264.082147 -328.300331 
L 266.119387 -325.803309 
L 268.156627 -326.134689 
L 270.193866 -326.635826 
L 272.231106 -327.43004 
L 274.268346 -331.651123 
L 276.305586 -327.730649 
L 278.342826 -326.659859 
L 280.380066 -343.883256 
L 282.417306 -326.29079 
L 284.454545 -326.393763 
L 286.491785 -326.841921 
L 288.529025 -324.931949 
L 290.566265 -327.029596 
L 292.603505 -327.475534 
L 294.640745 -326.038917 
L 296.677985 -327.200712 
L 298.715225 -344.340693 
L 300.752464 -326.701313 
L 302.789704 -327.13982 
L 304.826944 -326.809254 
L 306.864184 -328.411237 
L 308.901424 -325.876537 
L 310.938664 -326.412473 
L 312.975904 -343.486581 
L 315.013143 -343.793325 
L 317.050383 -326.865802 
L 319.087623 -326.691405 
L 321.124863 -325.918737 
L 323.162103 -327.369502 
L 325.199343 -327.088442 
L 327.236583 -326.86918 
L 329.273823 -326.579717 
L 331.311062 -327.004433 
L 333.348302 -327.440648 
L 335.385542 -326.849778 
L 337.422782 -344.353088 
L 339.460022 -332.039951 
L 341.497262 -325.950955 
L 343.534502 -327.226781 
L 345.571742 -344.181879 
L 347.608981 -331.635413 
L 349.646221 -344.131433 
L 351.683461 -327.516932 
L 353.720701 -326.968227 
L 355.757941 -326.005763 
L 357.795181 -328.319637 
L 359.832421 -326.836652 
L 361.86966 -326.341179 
L 363.9069 -326.982353 
L 365.94414 -326.004974 
L 367.98138 -327.356893 
L 370.01862 -326.493895 
L 372.05586 -326.673636 
L 374.0931 -327.541125 
L 376.13034 -327.057809 
L 378.167579 -325.725294 
L 380.204819 -328.033734 
L 382.242059 -344.332495 
L 384.279299 -328.024262 
L 386.316539 -327.541977 
L 388.353779 -331.935576 
L 390.391019 -327.987097 
L 392.428258 -332.123126 
L 394.465498 -327.431255 
L 396.502738 -332.33421 
L 398.539978 -327.067641 
L 400.577218 -327.099555 
L 402.614458 -344.200126 
L 404.651698 -326.61866 
L 406.688938 -332.223629 
L 408.726177 -332.034645 
L 410.763417 -328.031792 
L 412.800657 -331.882448 
L 414.837897 -327.786658 
L 416.875137 -326.852803 
L 418.912377 -326.60623 
L 420.949617 -344.123988 
L 422.986857 -344.576057 
L 425.024096 -344.276849 
L 427.061336 -325.951005 
L 429.098576 -326.723021 
L 431.135816 -344.218187 
L 433.173056 -325.939942 
L 435.210296 -344.146315 
L 437.247536 -326.421301 
L 439.284775 -327.713299 
L 441.322015 -328.194683 
L 443.359255 -326.470726 
L 445.396495 -344.526218 
L 447.433735 -344.01402 
L 449.470975 -344.078928 
L 451.508215 -327.416318 
L 453.545455 -344.012417 
L 455.582694 -326.901974 
L 457.619934 -327.518071 
L 459.657174 -327.901491 
L 461.694414 -327.562447 
L 463.731654 -326.966346 
L 465.768894 -327.312968 
L 467.806134 -326.214231 
L 469.843373 -326.34 
L 471.880613 -327.152155 
L 473.917853 -344.111543 
L 475.955093 -328.112963 
L 477.992333 -327.118284 
L 480.029573 -332.243984 
L 482.066813 -327.298541 
L 484.104053 -327.358545 
L 486.141292 -344.069895 
L 488.178532 -327.40308 
L 490.215772 -327.967049 
L 492.253012 -344.190617 
L 494.290252 -327.110834 
L 496.327492 -327.913809 
L 498.364732 -332.481162 
L 500.401972 -332.404992 
L 502.439211 -326.623146 
L 504.476451 -332.052966 
L 506.513691 -326.214053 
L 508.550931 -328.150423 
L 510.588171 -327.880403 
L 512.625411 -327.403128 
L 514.662651 -326.94903 
L 516.69989 -327.250791 
L 518.73713 -344.440181 
L 520.77437 -328.099716 
L 522.81161 -327.686451 
L 524.84885 -343.180655 
L 526.88609 -343.52144 
L 528.92333 -331.744108 
L 530.96057 -325.501053 
L 532.997809 -327.433526 
L 535.035049 -327.508007 
L 537.072289 -343.198669 
L 539.109529 -326.843084 
L 541.146769 -327.2701 
L 543.184009 -327.539219 
L 545.221249 -326.530539 
L 547.258488 -343.449245 
L 549.295728 -326.959115 
L 551.332968 -327.273172 
L 553.370208 -327.281361 
L 555.407448 -327.146251 
L 557.444688 -344.580852 
L 559.481928 -326.614001 
L 561.519168 -331.920948 
L 563.556407 -326.69269 
L 565.593647 -327.153291 
L 567.630887 -327.605925 
L 569.668127 -332.191004 
L 571.705367 -327.692076 
L 573.742607 -344.429235 
L 575.779847 -327.948601 
L 577.817087 -327.03383 
L 579.854326 -344.390144 
L 581.891566 -326.017412 
L 583.928806 -327.46426 
L 585.966046 -327.918395 
L 588.003286 -327.238967 
L 590.040526 -328.029115 
L 592.077766 -327.319615 
L 594.115005 -327.408291 
L 596.152245 -326.527265 
L 598.189485 -332.605535 
L 600.226725 -326.237295 
L 602.263965 -344.417026 
L 604.301205 -326.854871 
L 606.338445 -328.028244 
L 608.375685 -326.07102 
L 610.412924 -326.726457 
L 612.450164 -327.875959 
L 614.487404 -327.546351 
L 616.524644 -344.397278 
L 618.561884 -327.238329 
L 620.599124 -327.164636 
L 622.636364 -344.261866 
L 622.636364 -346.076903 
L 622.636364 -346.076903 
L 620.599124 -345.898093 
L 618.561884 -345.782249 
L 616.524644 -346.295648 
L 614.487404 -345.660988 
L 612.450164 -345.911723 
L 610.412924 -345.744547 
L 608.375685 -345.39682 
L 606.338445 -346.030951 
L 604.301205 -346.068287 
L 602.263965 -346.095262 
L 600.226725 -345.435582 
L 598.189485 -346.587124 
L 596.152245 -345.618295 
L 594.115005 -346.817215 
L 592.077766 -346.050585 
L 590.040526 -346.674351 
L 588.003286 -346.125508 
L 585.966046 -346.516362 
L 583.928806 -346.23237 
L 581.891566 -345.88274 
L 579.854326 -346.178124 
L 577.817087 -346.127435 
L 575.779847 -346.112834 
L 573.742607 -346.180712 
L 571.705367 -346.306557 
L 569.668127 -346.054976 
L 567.630887 -346.299299 
L 565.593647 -345.895902 
L 563.556407 -346.479815 
L 561.519168 -346.069149 
L 559.481928 -345.965932 
L 557.444688 -346.208196 
L 555.407448 -345.873208 
L 553.370208 -346.669821 
L 551.332968 -345.702885 
L 549.295728 -345.990271 
L 547.258488 -345.67647 
L 545.221249 -345.68343 
L 543.184009 -346.346357 
L 541.146769 -345.633611 
L 539.109529 -345.805529 
L 537.072289 -345.829335 
L 535.035049 -346.696186 
L 532.997809 -346.158435 
L 530.96057 -345.1291 
L 528.92333 -346.14554 
L 526.88609 -345.966422 
L 524.84885 -345.711078 
L 522.81161 -345.468869 
L 520.77437 -346.083197 
L 518.73713 -346.26064 
L 516.69989 -345.813296 
L 514.662651 -345.966656 
L 512.625411 -346.577726 
L 510.588171 -346.217905 
L 508.550931 -346.245913 
L 506.513691 -346.049234 
L 504.476451 -346.053467 
L 502.439211 -345.675795 
L 500.401972 -346.302997 
L 498.364732 -346.123177 
L 496.327492 -346.13081 
L 494.290252 -346.123119 
L 492.253012 -346.127447 
L 490.215772 -346.405531 
L 488.178532 -345.742964 
L 486.141292 -346.167157 
L 484.104053 -345.786215 
L 482.066813 -345.922066 
L 480.029573 -345.864857 
L 477.992333 -345.44848 
L 475.955093 -346.135842 
L 473.917853 -346.466389 
L 471.880613 -345.884745 
L 469.843373 -346.108768 
L 467.806134 -345.972231 
L 465.768894 -346.100373 
L 463.731654 -345.716914 
L 461.694414 -345.72145 
L 459.657174 -345.627171 
L 457.619934 -346.049739 
L 455.582694 -345.877397 
L 453.545455 -346.369076 
L 451.508215 -346.302008 
L 449.470975 -346.236857 
L 447.433735 -345.680545 
L 445.396495 -345.836483 
L 443.359255 -345.839177 
L 441.322015 -346.122134 
L 439.284775 -345.995533 
L 437.247536 -345.958885 
L 435.210296 -345.935734 
L 433.173056 -345.794033 
L 431.135816 -345.86854 
L 429.098576 -345.705742 
L 427.061336 -345.406336 
L 425.024096 -346.054492 
L 422.986857 -346.351514 
L 420.949617 -346.038953 
L 418.912377 -345.800376 
L 416.875137 -346.640086 
L 414.837897 -346.119363 
L 412.800657 -345.80932 
L 410.763417 -346.090531 
L 408.726177 -345.779643 
L 406.688938 -346.047832 
L 404.651698 -345.595924 
L 402.614458 -345.936318 
L 400.577218 -345.896738 
L 398.539978 -345.902353 
L 396.502738 -346.256923 
L 394.465498 -346.561795 
L 392.428258 -345.94661 
L 390.391019 -346.042615 
L 388.353779 -346.105285 
L 386.316539 -345.894289 
L 384.279299 -345.997699 
L 382.242059 -346.036318 
L 380.204819 -345.995813 
L 378.167579 -345.847641 
L 376.13034 -345.941908 
L 374.0931 -346.053095 
L 372.05586 -345.885421 
L 370.01862 -345.863526 
L 367.98138 -345.577831 
L 365.94414 -345.537853 
L 363.9069 -346.062904 
L 361.86966 -346.091818 
L 359.832421 -345.449271 
L 357.795181 -346.466571 
L 355.757941 -345.959954 
L 353.720701 -346.29027 
L 351.683461 -345.926092 
L 349.646221 -345.767298 
L 347.608981 -346.80514 
L 345.571742 -346.42274 
L 343.534502 -345.666515 
L 341.497262 -346.088371 
L 339.460022 -346.122669 
L 337.422782 -346.224271 
L 335.385542 -346.182929 
L 333.348302 -346.185409 
L 331.311062 -345.889889 
L 329.273823 -345.617755 
L 327.236583 -345.630755 
L 325.199343 -345.590707 
L 323.162103 -346.044074 
L 321.124863 -345.543638 
L 319.087623 -345.427886 
L 317.050383 -345.745888 
L 315.013143 -345.955596 
L 312.975904 -346.404077 
L 310.938664 -345.738142 
L 308.901424 -345.480253 
L 306.864184 -345.432871 
L 304.826944 -345.973857 
L 302.789704 -345.927339 
L 300.752464 -346.142979 
L 298.715225 -345.827435 
L 296.677985 -345.615936 
L 294.640745 -345.914294 
L 292.603505 -345.490583 
L 290.566265 -346.107307 
L 288.529025 -345.49125 
L 286.491785 -345.961201 
L 284.454545 -345.997503 
L 282.417306 -345.849963 
L 280.380066 -346.012673 
L 278.342826 -346.349358 
L 276.305586 -345.838202 
L 274.268346 -346.300326 
L 272.231106 -345.740238 
L 270.193866 -345.581078 
L 268.156627 -346.060703 
L 266.119387 -345.564385 
L 264.082147 -346.151954 
L 262.044907 -346.176056 
L 260.007667 -346.562489 
L 257.970427 -346.064562 
L 255.933187 -346.212475 
L 253.895947 -345.951246 
L 251.858708 -346.053073 
L 249.821468 -345.956325 
L 247.784228 -346.409189 
L 245.746988 -346.173042 
L 243.709748 -346.018582 
L 241.672508 -346.503877 
L 239.635268 -345.932018 
L 237.598028 -346.314291 
L 235.560789 -346.135518 
L 233.523549 -346.28646 
L 231.486309 -346.159729 
L 229.449069 -346.493103 
L 227.411829 -346.275144 
L 225.374589 -346.451374 
L 223.337349 -346.382871 
L 221.30011 -346.295953 
L 219.26287 -346.665738 
L 217.22563 -346.378947 
L 215.18839 -346.405765 
L 213.15115 -346.224614 
L 211.11391 -346.165436 
L 209.07667 -346.359523 
L 207.03943 -346.047097 
L 205.002191 -346.607054 
L 202.964951 -346.468314 
L 200.927711 -345.911704 
L 198.890471 -346.081119 
L 196.853231 -346.276482 
L 194.815991 -346.376055 
L 192.778751 -345.952919 
L 190.741512 -346.25462 
L 188.704272 -345.93934 
L 186.667032 -346.256909 
L 184.629792 -346.34001 
L 182.592552 -346.434022 
L 180.555312 -346.364834 
L 178.518072 -345.903672 
L 176.480832 -346.243364 
L 174.443593 -346.000907 
L 172.406353 -346.269796 
L 170.369113 -346.252407 
L 168.331873 -345.782317 
L 166.294633 -345.999216 
L 164.257393 -346.295483 
L 162.220153 -346.022193 
L 160.182913 -345.840805 
L 158.145674 -346.175424 
L 156.108434 -346.347747 
L 154.071194 -346.42257 
L 152.033954 -346.482316 
L 149.996714 -345.795409 
L 147.959474 -346.116894 
L 145.922234 -346.054093 
L 143.884995 -346.001804 
L 141.847755 -345.676425 
L 139.810515 -345.639085 
L 137.773275 -345.737696 
L 135.736035 -345.421364 
L 133.698795 -345.14204 
L 131.661555 -345.291241 
L 129.624315 -345.031584 
L 127.587076 -344.454885 
L 125.549836 -342.628876 
L 123.512596 -302.061062 
L 121.475356 -320.944392 
L 119.438116 -235.657347 
L 117.400876 -94.146736 
L 115.363636 -129.669924 
z
" style="stroke: #38b000; stroke-opacity: 0.2"/>
    </defs>
    <g clip-path="url(#pb6aa5946f7)">
     <use xlink:href="#m9b91136245" x="0" y="432" style="fill: #38b000; fill-opacity: 0.2; stroke: #38b000; stroke-opacity: 0.2"/>
    </g>
   </g>
   <g id="FillBetweenPolyCollection_3">
    <defs>
     <path id="m3d940ad0d4" d="M 115.363636 -138.424353 
L 115.363636 -75.834922 
L 117.400876 -84.559375 
L 119.438116 -111.69016 
L 121.475356 -112.008415 
L 123.512596 -99.499026 
L 125.549836 -104.094906 
L 127.587076 -88.226175 
L 129.624315 -97.013905 
L 131.661555 -100.054284 
L 133.698795 -101.688951 
L 135.736035 -103.968763 
L 137.773275 -92.272136 
L 139.810515 -99.077645 
L 141.847755 -95.341035 
L 143.884995 -94.186006 
L 145.922234 -93.972969 
L 147.959474 -100.014602 
L 149.996714 -90.885092 
L 152.033954 -87.040807 
L 154.071194 -104.303571 
L 156.108434 -106.243768 
L 158.145674 -101.620462 
L 160.182913 -100.967049 
L 162.220153 -104.608575 
L 164.257393 -102.990233 
L 166.294633 -108.956 
L 168.331873 -106.895786 
L 170.369113 -98.978195 
L 172.406353 -99.981146 
L 174.443593 -104.865174 
L 176.480832 -105.827052 
L 178.518072 -104.036712 
L 180.555312 -96.919065 
L 182.592552 -90.547136 
L 184.629792 -107.180589 
L 186.667032 -107.120108 
L 188.704272 -98.723732 
L 190.741512 -98.476152 
L 192.778751 -105.358296 
L 194.815991 -87.250367 
L 196.853231 -98.824255 
L 198.890471 -108.787365 
L 200.927711 -93.409942 
L 202.964951 -109.435205 
L 205.002191 -95.222349 
L 207.03943 -91.743692 
L 209.07667 -110.513282 
L 211.11391 -106.616295 
L 213.15115 -110.992495 
L 215.18839 -93.906229 
L 217.22563 -108.725136 
L 219.26287 -110.020394 
L 221.30011 -110.527944 
L 223.337349 -104.648701 
L 225.374589 -96.627706 
L 227.411829 -84.740682 
L 229.449069 -90.079509 
L 231.486309 -109.100304 
L 233.523549 -104.018255 
L 235.560789 -101.271524 
L 237.598028 -109.755324 
L 239.635268 -110.803094 
L 241.672508 -109.529643 
L 243.709748 -111.658252 
L 245.746988 -112.488832 
L 247.784228 -110.190949 
L 249.821468 -88.519437 
L 251.858708 -113.688989 
L 253.895947 -104.022512 
L 255.933187 -111.036882 
L 257.970427 -109.07921 
L 260.007667 -113.765504 
L 262.044907 -110.922628 
L 264.082147 -110.994693 
L 266.119387 -113.693899 
L 268.156627 -108.769178 
L 270.193866 -107.596294 
L 272.231106 -109.110307 
L 274.268346 -107.549 
L 276.305586 -108.137771 
L 278.342826 -110.904241 
L 280.380066 -110.848367 
L 282.417306 -111.63418 
L 284.454545 -110.054535 
L 286.491785 -107.59413 
L 288.529025 -110.382375 
L 290.566265 -112.466743 
L 292.603505 -109.18933 
L 294.640745 -111.117101 
L 296.677985 -106.816387 
L 298.715225 -103.665992 
L 300.752464 -101.441448 
L 302.789704 -115.145818 
L 304.826944 -110.709825 
L 306.864184 -106.576315 
L 308.901424 -113.250787 
L 310.938664 -110.983478 
L 312.975904 -106.802788 
L 315.013143 -106.370589 
L 317.050383 -109.120185 
L 319.087623 -108.72914 
L 321.124863 -111.400151 
L 323.162103 -111.479253 
L 325.199343 -105.398886 
L 327.236583 -115.058403 
L 329.273823 -113.384694 
L 331.311062 -109.819903 
L 333.348302 -110.981805 
L 335.385542 -113.376032 
L 337.422782 -113.86512 
L 339.460022 -112.090301 
L 341.497262 -96.348527 
L 343.534502 -112.35266 
L 345.571742 -110.899877 
L 347.608981 -115.278351 
L 349.646221 -113.407299 
L 351.683461 -108.062877 
L 353.720701 -112.142885 
L 355.757941 -172.871976 
L 357.795181 -115.745732 
L 359.832421 -106.957856 
L 361.86966 -115.67927 
L 363.9069 -109.221478 
L 365.94414 -107.414549 
L 367.98138 -114.727884 
L 370.01862 -108.257758 
L 372.05586 -113.226186 
L 374.0931 -113.678698 
L 376.13034 -115.638784 
L 378.167579 -112.778474 
L 380.204819 -111.045791 
L 382.242059 -102.50899 
L 384.279299 -112.875136 
L 386.316539 -99.927845 
L 388.353779 -104.138675 
L 390.391019 -323.219553 
L 392.428258 -112.735999 
L 394.465498 -110.058919 
L 396.502738 -105.149325 
L 398.539978 -111.110764 
L 400.577218 -115.565838 
L 402.614458 -108.786722 
L 404.651698 -111.755707 
L 406.688938 -113.475392 
L 408.726177 -112.965562 
L 410.763417 -109.074043 
L 412.800657 -109.772438 
L 414.837897 -113.077933 
L 416.875137 -116.180998 
L 418.912377 -108.883924 
L 420.949617 -113.199599 
L 422.986857 -115.383955 
L 425.024096 -113.677876 
L 427.061336 -108.857715 
L 429.098576 -328.783272 
L 431.135816 -342.119334 
L 433.173056 -113.205581 
L 435.210296 -108.638437 
L 437.247536 -110.799634 
L 439.284775 -115.193915 
L 441.322015 -110.62503 
L 443.359255 -105.473872 
L 445.396495 -112.299813 
L 447.433735 -112.740029 
L 449.470975 -112.650423 
L 451.508215 -114.378272 
L 453.545455 -112.334749 
L 455.582694 -114.03409 
L 457.619934 -110.634635 
L 459.657174 -104.716821 
L 461.694414 -113.502409 
L 463.731654 -111.745353 
L 465.768894 -172.660833 
L 467.806134 -114.168676 
L 469.843373 -114.026184 
L 471.880613 -106.663622 
L 473.917853 -113.097712 
L 475.955093 -116.178366 
L 477.992333 -112.891022 
L 480.029573 -90.278226 
L 482.066813 -113.138831 
L 484.104053 -99.344998 
L 486.141292 -113.483131 
L 488.178532 -112.926245 
L 490.215772 -111.771621 
L 492.253012 -109.033622 
L 494.290252 -113.907099 
L 496.327492 -107.268651 
L 498.364732 -115.761573 
L 500.401972 -110.988765 
L 502.439211 -112.444533 
L 504.476451 -113.977036 
L 506.513691 -173.590396 
L 508.550931 -112.95959 
L 510.588171 -103.936916 
L 512.625411 -114.233174 
L 514.662651 -113.270458 
L 516.69989 -114.338238 
L 518.73713 -115.135588 
L 520.77437 -111.50235 
L 522.81161 -110.258048 
L 524.84885 -114.773261 
L 526.88609 -115.334139 
L 528.92333 -113.019872 
L 530.96057 -115.148853 
L 532.997809 -109.458151 
L 535.035049 -113.868506 
L 537.072289 -115.400319 
L 539.109529 -172.761922 
L 541.146769 -114.55436 
L 543.184009 -116.386076 
L 545.221249 -113.827006 
L 547.258488 -343.923838 
L 549.295728 -113.633733 
L 551.332968 -108.845495 
L 553.370208 -103.801197 
L 555.407448 -113.290286 
L 557.444688 -103.604839 
L 559.481928 -114.219087 
L 561.519168 -172.264469 
L 563.556407 -105.394738 
L 565.593647 -114.364203 
L 567.630887 -103.645549 
L 569.668127 -114.931138 
L 571.705367 -112.059945 
L 573.742607 -173.117185 
L 575.779847 -116.33646 
L 577.817087 -113.867799 
L 579.854326 -113.342784 
L 581.891566 -113.85645 
L 583.928806 -112.946807 
L 585.966046 -113.138065 
L 588.003286 -114.097215 
L 590.040526 -172.002904 
L 592.077766 -115.27274 
L 594.115005 -114.26536 
L 596.152245 -116.322877 
L 598.189485 -115.370155 
L 600.226725 -115.39051 
L 602.263965 -113.552222 
L 604.301205 -91.197842 
L 606.338445 -115.67081 
L 608.375685 -114.933722 
L 610.412924 -114.820179 
L 612.450164 -114.725436 
L 614.487404 -116.179245 
L 616.524644 -114.94293 
L 618.561884 -343.952802 
L 620.599124 -115.207008 
L 622.636364 -110.750763 
L 622.636364 -345.610386 
L 622.636364 -345.610386 
L 620.599124 -345.640639 
L 618.561884 -346.20481 
L 616.524644 -360.075941 
L 614.487404 -345.622462 
L 612.450164 -346.527636 
L 610.412924 -345.280475 
L 608.375685 -345.805977 
L 606.338445 -346.38547 
L 604.301205 -345.184072 
L 602.263965 -346.104884 
L 600.226725 -345.662045 
L 598.189485 -345.981079 
L 596.152245 -345.744871 
L 594.115005 -345.706519 
L 592.077766 -345.454365 
L 590.040526 -345.539557 
L 588.003286 -346.19347 
L 585.966046 -345.055179 
L 583.928806 -346.17298 
L 581.891566 -345.818898 
L 579.854326 -346.164847 
L 577.817087 -345.542111 
L 575.779847 -346.584775 
L 573.742607 -345.791368 
L 571.705367 -345.510803 
L 569.668127 -346.231527 
L 567.630887 -345.462694 
L 565.593647 -345.506544 
L 563.556407 -345.28155 
L 561.519168 -345.986265 
L 559.481928 -345.867322 
L 557.444688 -345.937586 
L 555.407448 -345.363364 
L 553.370208 -345.92671 
L 551.332968 -345.799739 
L 549.295728 -345.430566 
L 547.258488 -346.024293 
L 545.221249 -346.006436 
L 543.184009 -345.885936 
L 541.146769 -345.884224 
L 539.109529 -345.777772 
L 537.072289 -345.357357 
L 535.035049 -345.694926 
L 532.997809 -345.633232 
L 530.96057 -345.263335 
L 528.92333 -345.202256 
L 526.88609 -346.156977 
L 524.84885 -345.661189 
L 522.81161 -345.603877 
L 520.77437 -346.183674 
L 518.73713 -346.140562 
L 516.69989 -345.498758 
L 514.662651 -345.914364 
L 512.625411 -345.558063 
L 510.588171 -345.21827 
L 508.550931 -345.730375 
L 506.513691 -345.950606 
L 504.476451 -345.966872 
L 502.439211 -346.053719 
L 500.401972 -345.492209 
L 498.364732 -345.454505 
L 496.327492 -345.531226 
L 494.290252 -346.264172 
L 492.253012 -345.053794 
L 490.215772 -345.853759 
L 488.178532 -346.428766 
L 486.141292 -345.766866 
L 484.104053 -345.615084 
L 482.066813 -345.927721 
L 480.029573 -345.462457 
L 477.992333 -345.740871 
L 475.955093 -345.560029 
L 473.917853 -345.979059 
L 471.880613 -345.683319 
L 469.843373 -345.836471 
L 467.806134 -345.725538 
L 465.768894 -345.578712 
L 463.731654 -346.088677 
L 461.694414 -345.6499 
L 459.657174 -345.650131 
L 457.619934 -345.669921 
L 455.582694 -345.369682 
L 453.545455 -346.191599 
L 451.508215 -345.23873 
L 449.470975 -345.711957 
L 447.433735 -345.673384 
L 445.396495 -359.138815 
L 443.359255 -345.665309 
L 441.322015 -345.365833 
L 439.284775 -346.203263 
L 437.247536 -345.808889 
L 435.210296 -345.84289 
L 433.173056 -344.894886 
L 431.135816 -346.093235 
L 429.098576 -345.576158 
L 427.061336 -344.96751 
L 425.024096 -345.936042 
L 422.986857 -345.155764 
L 420.949617 -345.738918 
L 418.912377 -345.390501 
L 416.875137 -345.873822 
L 414.837897 -345.615477 
L 412.800657 -345.662987 
L 410.763417 -345.722651 
L 408.726177 -345.590611 
L 406.688938 -345.791982 
L 404.651698 -345.647326 
L 402.614458 -345.736615 
L 400.577218 -345.472321 
L 398.539978 -344.895616 
L 396.502738 -345.102286 
L 394.465498 -345.366109 
L 392.428258 -345.402886 
L 390.391019 -345.64696 
L 388.353779 -345.528372 
L 386.316539 -344.731308 
L 384.279299 -345.738181 
L 382.242059 -344.859317 
L 380.204819 -344.993224 
L 378.167579 -345.411795 
L 376.13034 -345.971247 
L 374.0931 -345.350654 
L 372.05586 -345.879597 
L 370.01862 -344.905568 
L 367.98138 -345.569125 
L 365.94414 -344.611303 
L 363.9069 -345.254329 
L 361.86966 -344.990605 
L 359.832421 -344.891469 
L 357.795181 -345.602846 
L 355.757941 -345.202694 
L 353.720701 -345.239341 
L 351.683461 -344.715263 
L 349.646221 -345.504785 
L 347.608981 -345.542427 
L 345.571742 -346.047691 
L 343.534502 -345.423268 
L 341.497262 -344.9713 
L 339.460022 -345.562006 
L 337.422782 -346.107806 
L 335.385542 -346.157421 
L 333.348302 -345.709624 
L 331.311062 -345.637699 
L 329.273823 -345.893659 
L 327.236583 -345.842338 
L 325.199343 -344.556283 
L 323.162103 -345.000505 
L 321.124863 -344.931787 
L 319.087623 -345.728097 
L 317.050383 -344.621141 
L 315.013143 -345.788585 
L 312.975904 -345.070186 
L 310.938664 -345.176814 
L 308.901424 -345.210965 
L 306.864184 -345.76002 
L 304.826944 -345.732726 
L 302.789704 -365.04 
L 300.752464 -346.115662 
L 298.715225 -345.211106 
L 296.677985 -345.343262 
L 294.640745 -345.442637 
L 292.603505 -345.825073 
L 290.566265 -346.119296 
L 288.529025 -345.556941 
L 286.491785 -345.992466 
L 284.454545 -345.357207 
L 282.417306 -345.768934 
L 280.380066 -345.022538 
L 278.342826 -345.866506 
L 276.305586 -344.838726 
L 274.268346 -345.077472 
L 272.231106 -345.590895 
L 270.193866 -345.177831 
L 268.156627 -345.044791 
L 266.119387 -345.592877 
L 264.082147 -345.79148 
L 262.044907 -345.413216 
L 260.007667 -345.690593 
L 257.970427 -345.539832 
L 255.933187 -345.682711 
L 253.895947 -345.292367 
L 251.858708 -345.158965 
L 249.821468 -344.931079 
L 247.784228 -345.091972 
L 245.746988 -345.962804 
L 243.709748 -345.300963 
L 241.672508 -345.565833 
L 239.635268 -345.412058 
L 237.598028 -344.730382 
L 235.560789 -345.244168 
L 233.523549 -345.855173 
L 231.486309 -345.761266 
L 229.449069 -345.029663 
L 227.411829 -344.848925 
L 225.374589 -345.300454 
L 223.337349 -346.15239 
L 221.30011 -346.324245 
L 219.26287 -345.515172 
L 217.22563 -345.31458 
L 215.18839 -345.257972 
L 213.15115 -345.853133 
L 211.11391 -344.960776 
L 209.07667 -345.927122 
L 207.03943 -345.604348 
L 205.002191 -344.537775 
L 202.964951 -345.608531 
L 200.927711 -345.379678 
L 198.890471 -345.091838 
L 196.853231 -345.170161 
L 194.815991 -345.590083 
L 192.778751 -345.20469 
L 190.741512 -344.86504 
L 188.704272 -345.311947 
L 186.667032 -344.667394 
L 184.629792 -344.749916 
L 182.592552 -344.894113 
L 180.555312 -345.13422 
L 178.518072 -344.823189 
L 176.480832 -345.059485 
L 174.443593 -345.423146 
L 172.406353 -345.302675 
L 170.369113 -344.926308 
L 168.331873 -292.923454 
L 166.294633 -345.323806 
L 164.257393 -344.501084 
L 162.220153 -345.023647 
L 160.182913 -345.065206 
L 158.145674 -344.813257 
L 156.108434 -315.824515 
L 154.071194 -209.158535 
L 152.033954 -212.089012 
L 149.996714 -200.744587 
L 147.959474 -173.101892 
L 145.922234 -302.77519 
L 143.884995 -170.180951 
L 141.847755 -305.990698 
L 139.810515 -190.591751 
L 137.773275 -184.703238 
L 135.736035 -120.436059 
L 133.698795 -120.091233 
L 131.661555 -118.759711 
L 129.624315 -120.075085 
L 127.587076 -116.788388 
L 125.549836 -117.95949 
L 123.512596 -120.701549 
L 121.475356 -123.370743 
L 119.438116 -156.323522 
L 117.400876 -108.471538 
L 115.363636 -138.424353 
z
" style="stroke: #023e8a; stroke-opacity: 0.2"/>
    </defs>
    <g clip-path="url(#pb6aa5946f7)">
     <use xlink:href="#m3d940ad0d4" x="0" y="432" style="fill: #023e8a; fill-opacity: 0.2; stroke: #023e8a; stroke-opacity: 0.2"/>
    </g>
   </g>
   <g id="matplotlib.axis_1">
    <g id="xtick_1">
     <g id="line2d_1">
      <path d="M 115.108981 384.48 
L 115.108981 51.84 
" clip-path="url(#pb6aa5946f7)" style="fill: none; stroke: #b0b0b0; stroke-opacity: 0.3; stroke-width: 0.8; stroke-linecap: square"/>
     </g>
     <g id="line2d_2">
      <defs>
       <path id="me0c47769d3" d="M 0 0 
L 0 3.5 
" style="stroke: #000000; stroke-width: 0.8"/>
      </defs>
      <g>
       <use xlink:href="#me0c47769d3" x="115.108981" y="384.48" style="stroke: #000000; stroke-width: 0.8"/>
      </g>
     </g>
     <g id="text_1">
      <!-- 0 -->
      <g transform="translate(111.927731 399.078438) scale(0.1 -0.1)">
       <defs>
        <path id="DejaVuSans-30" d="M 2034 4250 
Q 1547 4250 1301 3770 
Q 1056 3291 1056 2328 
Q 1056 1369 1301 889 
Q 1547 409 2034 409 
Q 2525 409 2770 889 
Q 3016 1369 3016 2328 
Q 3016 3291 2770 3770 
Q 2525 4250 2034 4250 
z
M 2034 4750 
Q 2819 4750 3233 4129 
Q 3647 3509 3647 2328 
Q 3647 1150 3233 529 
Q 2819 -91 2034 -91 
Q 1250 -91 836 529 
Q 422 1150 422 2328 
Q 422 3509 836 4129 
Q 1250 4750 2034 4750 
z
" transform="scale(0.015625)"/>
       </defs>
       <use xlink:href="#DejaVuSans-30"/>
      </g>
     </g>
    </g>
    <g id="xtick_2">
     <g id="line2d_3">
      <path d="M 178.772727 384.48 
L 178.772727 51.84 
" clip-path="url(#pb6aa5946f7)" style="fill: none; stroke: #b0b0b0; stroke-opacity: 0.3; stroke-width: 0.8; stroke-linecap: square"/>
     </g>
     <g id="line2d_4">
      <g>
       <use xlink:href="#me0c47769d3" x="178.772727" y="384.48" style="stroke: #000000; stroke-width: 0.8"/>
      </g>
     </g>
     <g id="text_2">
      <!-- 25000 -->
      <g transform="translate(162.866477 399.078438) scale(0.1 -0.1)">
       <defs>
        <path id="DejaVuSans-32" d="M 1228 531 
L 3431 531 
L 3431 0 
L 469 0 
L 469 531 
Q 828 903 1448 1529 
Q 2069 2156 2228 2338 
Q 2531 2678 2651 2914 
Q 2772 3150 2772 3378 
Q 2772 3750 2511 3984 
Q 2250 4219 1831 4219 
Q 1534 4219 1204 4116 
Q 875 4013 500 3803 
L 500 4441 
Q 881 4594 1212 4672 
Q 1544 4750 1819 4750 
Q 2544 4750 2975 4387 
Q 3406 4025 3406 3419 
Q 3406 3131 3298 2873 
Q 3191 2616 2906 2266 
Q 2828 2175 2409 1742 
Q 1991 1309 1228 531 
z
" transform="scale(0.015625)"/>
        <path id="DejaVuSans-35" d="M 691 4666 
L 3169 4666 
L 3169 4134 
L 1269 4134 
L 1269 2991 
Q 1406 3038 1543 3061 
Q 1681 3084 1819 3084 
Q 2600 3084 3056 2656 
Q 3513 2228 3513 1497 
Q 3513 744 3044 326 
Q 2575 -91 1722 -91 
Q 1428 -91 1123 -41 
Q 819 9 494 109 
L 494 744 
Q 775 591 1075 516 
Q 1375 441 1709 441 
Q 2250 441 2565 725 
Q 2881 1009 2881 1497 
Q 2881 1984 2565 2268 
Q 2250 2553 1709 2553 
Q 1456 2553 1204 2497 
Q 953 2441 691 2322 
L 691 4666 
z
" transform="scale(0.015625)"/>
       </defs>
       <use xlink:href="#DejaVuSans-32"/>
       <use xlink:href="#DejaVuSans-35" transform="translate(63.623047 0)"/>
       <use xlink:href="#DejaVuSans-30" transform="translate(127.246094 0)"/>
       <use xlink:href="#DejaVuSans-30" transform="translate(190.869141 0)"/>
       <use xlink:href="#DejaVuSans-30" transform="translate(254.492188 0)"/>
      </g>
     </g>
    </g>
    <g id="xtick_3">
     <g id="line2d_5">
      <path d="M 242.436473 384.48 
L 242.436473 51.84 
" clip-path="url(#pb6aa5946f7)" style="fill: none; stroke: #b0b0b0; stroke-opacity: 0.3; stroke-width: 0.8; stroke-linecap: square"/>
     </g>
     <g id="line2d_6">
      <g>
       <use xlink:href="#me0c47769d3" x="242.436473" y="384.48" style="stroke: #000000; stroke-width: 0.8"/>
      </g>
     </g>
     <g id="text_3">
      <!-- 50000 -->
      <g transform="translate(226.530223 399.078438) scale(0.1 -0.1)">
       <use xlink:href="#DejaVuSans-35"/>
       <use xlink:href="#DejaVuSans-30" transform="translate(63.623047 0)"/>
       <use xlink:href="#DejaVuSans-30" transform="translate(127.246094 0)"/>
       <use xlink:href="#DejaVuSans-30" transform="translate(190.869141 0)"/>
       <use xlink:href="#DejaVuSans-30" transform="translate(254.492188 0)"/>
      </g>
     </g>
    </g>
    <g id="xtick_4">
     <g id="line2d_7">
      <path d="M 306.100219 384.48 
L 306.100219 51.84 
" clip-path="url(#pb6aa5946f7)" style="fill: none; stroke: #b0b0b0; stroke-opacity: 0.3; stroke-width: 0.8; stroke-linecap: square"/>
     </g>
     <g id="line2d_8">
      <g>
       <use xlink:href="#me0c47769d3" x="306.100219" y="384.48" style="stroke: #000000; stroke-width: 0.8"/>
      </g>
     </g>
     <g id="text_4">
      <!-- 75000 -->
      <g transform="translate(290.193969 399.078438) scale(0.1 -0.1)">
       <defs>
        <path id="DejaVuSans-37" d="M 525 4666 
L 3525 4666 
L 3525 4397 
L 1831 0 
L 1172 0 
L 2766 4134 
L 525 4134 
L 525 4666 
z
" transform="scale(0.015625)"/>
       </defs>
       <use xlink:href="#DejaVuSans-37"/>
       <use xlink:href="#DejaVuSans-35" transform="translate(63.623047 0)"/>
       <use xlink:href="#DejaVuSans-30" transform="translate(127.246094 0)"/>
       <use xlink:href="#DejaVuSans-30" transform="translate(190.869141 0)"/>
       <use xlink:href="#DejaVuSans-30" transform="translate(254.492188 0)"/>
      </g>
     </g>
    </g>
    <g id="xtick_5">
     <g id="line2d_9">
      <path d="M 369.763965 384.48 
L 369.763965 51.84 
" clip-path="url(#pb6aa5946f7)" style="fill: none; stroke: #b0b0b0; stroke-opacity: 0.3; stroke-width: 0.8; stroke-linecap: square"/>
     </g>
     <g id="line2d_10">
      <g>
       <use xlink:href="#me0c47769d3" x="369.763965" y="384.48" style="stroke: #000000; stroke-width: 0.8"/>
      </g>
     </g>
     <g id="text_5">
      <!-- 100000 -->
      <g transform="translate(350.676465 399.078438) scale(0.1 -0.1)">
       <defs>
        <path id="DejaVuSans-31" d="M 794 531 
L 1825 531 
L 1825 4091 
L 703 3866 
L 703 4441 
L 1819 4666 
L 2450 4666 
L 2450 531 
L 3481 531 
L 3481 0 
L 794 0 
L 794 531 
z
" transform="scale(0.015625)"/>
       </defs>
       <use xlink:href="#DejaVuSans-31"/>
       <use xlink:href="#DejaVuSans-30" transform="translate(63.623047 0)"/>
       <use xlink:href="#DejaVuSans-30" transform="translate(127.246094 0)"/>
       <use xlink:href="#DejaVuSans-30" transform="translate(190.869141 0)"/>
       <use xlink:href="#DejaVuSans-30" transform="translate(254.492188 0)"/>
       <use xlink:href="#DejaVuSans-30" transform="translate(318.115234 0)"/>
      </g>
     </g>
    </g>
    <g id="xtick_6">
     <g id="line2d_11">
      <path d="M 433.427711 384.48 
L 433.427711 51.84 
" clip-path="url(#pb6aa5946f7)" style="fill: none; stroke: #b0b0b0; stroke-opacity: 0.3; stroke-width: 0.8; stroke-linecap: square"/>
     </g>
     <g id="line2d_12">
      <g>
       <use xlink:href="#me0c47769d3" x="433.427711" y="384.48" style="stroke: #000000; stroke-width: 0.8"/>
      </g>
     </g>
     <g id="text_6">
      <!-- 125000 -->
      <g transform="translate(414.340211 399.078438) scale(0.1 -0.1)">
       <use xlink:href="#DejaVuSans-31"/>
       <use xlink:href="#DejaVuSans-32" transform="translate(63.623047 0)"/>
       <use xlink:href="#DejaVuSans-35" transform="translate(127.246094 0)"/>
       <use xlink:href="#DejaVuSans-30" transform="translate(190.869141 0)"/>
       <use xlink:href="#DejaVuSans-30" transform="translate(254.492188 0)"/>
       <use xlink:href="#DejaVuSans-30" transform="translate(318.115234 0)"/>
      </g>
     </g>
    </g>
    <g id="xtick_7">
     <g id="line2d_13">
      <path d="M 497.091457 384.48 
L 497.091457 51.84 
" clip-path="url(#pb6aa5946f7)" style="fill: none; stroke: #b0b0b0; stroke-opacity: 0.3; stroke-width: 0.8; stroke-linecap: square"/>
     </g>
     <g id="line2d_14">
      <g>
       <use xlink:href="#me0c47769d3" x="497.091457" y="384.48" style="stroke: #000000; stroke-width: 0.8"/>
      </g>
     </g>
     <g id="text_7">
      <!-- 150000 -->
      <g transform="translate(478.003957 399.078438) scale(0.1 -0.1)">
       <use xlink:href="#DejaVuSans-31"/>
       <use xlink:href="#DejaVuSans-35" transform="translate(63.623047 0)"/>
       <use xlink:href="#DejaVuSans-30" transform="translate(127.246094 0)"/>
       <use xlink:href="#DejaVuSans-30" transform="translate(190.869141 0)"/>
       <use xlink:href="#DejaVuSans-30" transform="translate(254.492188 0)"/>
       <use xlink:href="#DejaVuSans-30" transform="translate(318.115234 0)"/>
      </g>
     </g>
    </g>
    <g id="xtick_8">
     <g id="line2d_15">
      <path d="M 560.755203 384.48 
L 560.755203 51.84 
" clip-path="url(#pb6aa5946f7)" style="fill: none; stroke: #b0b0b0; stroke-opacity: 0.3; stroke-width: 0.8; stroke-linecap: square"/>
     </g>
     <g id="line2d_16">
      <g>
       <use xlink:href="#me0c47769d3" x="560.755203" y="384.48" style="stroke: #000000; stroke-width: 0.8"/>
      </g>
     </g>
     <g id="text_8">
      <!-- 175000 -->
      <g transform="translate(541.667703 399.078438) scale(0.1 -0.1)">
       <use xlink:href="#DejaVuSans-31"/>
       <use xlink:href="#DejaVuSans-37" transform="translate(63.623047 0)"/>
       <use xlink:href="#DejaVuSans-35" transform="translate(127.246094 0)"/>
       <use xlink:href="#DejaVuSans-30" transform="translate(190.869141 0)"/>
       <use xlink:href="#DejaVuSans-30" transform="translate(254.492188 0)"/>
       <use xlink:href="#DejaVuSans-30" transform="translate(318.115234 0)"/>
      </g>
     </g>
    </g>
    <g id="xtick_9">
     <g id="line2d_17">
      <path d="M 624.418949 384.48 
L 624.418949 51.84 
" clip-path="url(#pb6aa5946f7)" style="fill: none; stroke: #b0b0b0; stroke-opacity: 0.3; stroke-width: 0.8; stroke-linecap: square"/>
     </g>
     <g id="line2d_18">
      <g>
       <use xlink:href="#me0c47769d3" x="624.418949" y="384.48" style="stroke: #000000; stroke-width: 0.8"/>
      </g>
     </g>
     <g id="text_9">
      <!-- 200000 -->
      <g transform="translate(605.331449 399.078438) scale(0.1 -0.1)">
       <use xlink:href="#DejaVuSans-32"/>
       <use xlink:href="#DejaVuSans-30" transform="translate(63.623047 0)"/>
       <use xlink:href="#DejaVuSans-30" transform="translate(127.246094 0)"/>
       <use xlink:href="#DejaVuSans-30" transform="translate(190.869141 0)"/>
       <use xlink:href="#DejaVuSans-30" transform="translate(254.492188 0)"/>
       <use xlink:href="#DejaVuSans-30" transform="translate(318.115234 0)"/>
      </g>
     </g>
    </g>
    <g id="text_10">
     <!-- Training Steps -->
     <g transform="translate(333.695312 412.756563) scale(0.1 -0.1)">
      <defs>
       <path id="DejaVuSans-54" d="M -19 4666 
L 3928 4666 
L 3928 4134 
L 2272 4134 
L 2272 0 
L 1638 0 
L 1638 4134 
L -19 4134 
L -19 4666 
z
" transform="scale(0.015625)"/>
       <path id="DejaVuSans-72" d="M 2631 2963 
Q 2534 3019 2420 3045 
Q 2306 3072 2169 3072 
Q 1681 3072 1420 2755 
Q 1159 2438 1159 1844 
L 1159 0 
L 581 0 
L 581 3500 
L 1159 3500 
L 1159 2956 
Q 1341 3275 1631 3429 
Q 1922 3584 2338 3584 
Q 2397 3584 2469 3576 
Q 2541 3569 2628 3553 
L 2631 2963 
z
" transform="scale(0.015625)"/>
       <path id="DejaVuSans-61" d="M 2194 1759 
Q 1497 1759 1228 1600 
Q 959 1441 959 1056 
Q 959 750 1161 570 
Q 1363 391 1709 391 
Q 2188 391 2477 730 
Q 2766 1069 2766 1631 
L 2766 1759 
L 2194 1759 
z
M 3341 1997 
L 3341 0 
L 2766 0 
L 2766 531 
Q 2569 213 2275 61 
Q 1981 -91 1556 -91 
Q 1019 -91 701 211 
Q 384 513 384 1019 
Q 384 1609 779 1909 
Q 1175 2209 1959 2209 
L 2766 2209 
L 2766 2266 
Q 2766 2663 2505 2880 
Q 2244 3097 1772 3097 
Q 1472 3097 1187 3025 
Q 903 2953 641 2809 
L 641 3341 
Q 956 3463 1253 3523 
Q 1550 3584 1831 3584 
Q 2591 3584 2966 3190 
Q 3341 2797 3341 1997 
z
" transform="scale(0.015625)"/>
       <path id="DejaVuSans-69" d="M 603 3500 
L 1178 3500 
L 1178 0 
L 603 0 
L 603 3500 
z
M 603 4863 
L 1178 4863 
L 1178 4134 
L 603 4134 
L 603 4863 
z
" transform="scale(0.015625)"/>
       <path id="DejaVuSans-6e" d="M 3513 2113 
L 3513 0 
L 2938 0 
L 2938 2094 
Q 2938 2591 2744 2837 
Q 2550 3084 2163 3084 
Q 1697 3084 1428 2787 
Q 1159 2491 1159 1978 
L 1159 0 
L 581 0 
L 581 3500 
L 1159 3500 
L 1159 2956 
Q 1366 3272 1645 3428 
Q 1925 3584 2291 3584 
Q 2894 3584 3203 3211 
Q 3513 2838 3513 2113 
z
" transform="scale(0.015625)"/>
       <path id="DejaVuSans-67" d="M 2906 1791 
Q 2906 2416 2648 2759 
Q 2391 3103 1925 3103 
Q 1463 3103 1205 2759 
Q 947 2416 947 1791 
Q 947 1169 1205 825 
Q 1463 481 1925 481 
Q 2391 481 2648 825 
Q 2906 1169 2906 1791 
z
M 3481 434 
Q 3481 -459 3084 -895 
Q 2688 -1331 1869 -1331 
Q 1566 -1331 1297 -1286 
Q 1028 -1241 775 -1147 
L 775 -588 
Q 1028 -725 1275 -790 
Q 1522 -856 1778 -856 
Q 2344 -856 2625 -561 
Q 2906 -266 2906 331 
L 2906 616 
Q 2728 306 2450 153 
Q 2172 0 1784 0 
Q 1141 0 747 490 
Q 353 981 353 1791 
Q 353 2603 747 3093 
Q 1141 3584 1784 3584 
Q 2172 3584 2450 3431 
Q 2728 3278 2906 2969 
L 2906 3500 
L 3481 3500 
L 3481 434 
z
" transform="scale(0.015625)"/>
       <path id="DejaVuSans-20" transform="scale(0.015625)"/>
       <path id="DejaVuSans-53" d="M 3425 4513 
L 3425 3897 
Q 3066 4069 2747 4153 
Q 2428 4238 2131 4238 
Q 1616 4238 1336 4038 
Q 1056 3838 1056 3469 
Q 1056 3159 1242 3001 
Q 1428 2844 1947 2747 
L 2328 2669 
Q 3034 2534 3370 2195 
Q 3706 1856 3706 1288 
Q 3706 609 3251 259 
Q 2797 -91 1919 -91 
Q 1588 -91 1214 -16 
Q 841 59 441 206 
L 441 856 
Q 825 641 1194 531 
Q 1563 422 1919 422 
Q 2459 422 2753 634 
Q 3047 847 3047 1241 
Q 3047 1584 2836 1778 
Q 2625 1972 2144 2069 
L 1759 2144 
Q 1053 2284 737 2584 
Q 422 2884 422 3419 
Q 422 4038 858 4394 
Q 1294 4750 2059 4750 
Q 2388 4750 2728 4690 
Q 3069 4631 3425 4513 
z
" transform="scale(0.015625)"/>
       <path id="DejaVuSans-74" d="M 1172 4494 
L 1172 3500 
L 2356 3500 
L 2356 3053 
L 1172 3053 
L 1172 1153 
Q 1172 725 1289 603 
Q 1406 481 1766 481 
L 2356 481 
L 2356 0 
L 1766 0 
Q 1100 0 847 248 
Q 594 497 594 1153 
L 594 3053 
L 172 3053 
L 172 3500 
L 594 3500 
L 594 4494 
L 1172 4494 
z
" transform="scale(0.015625)"/>
       <path id="DejaVuSans-65" d="M 3597 1894 
L 3597 1613 
L 953 1613 
Q 991 1019 1311 708 
Q 1631 397 2203 397 
Q 2534 397 2845 478 
Q 3156 559 3463 722 
L 3463 178 
Q 3153 47 2828 -22 
Q 2503 -91 2169 -91 
Q 1331 -91 842 396 
Q 353 884 353 1716 
Q 353 2575 817 3079 
Q 1281 3584 2069 3584 
Q 2775 3584 3186 3129 
Q 3597 2675 3597 1894 
z
M 3022 2063 
Q 3016 2534 2758 2815 
Q 2500 3097 2075 3097 
Q 1594 3097 1305 2825 
Q 1016 2553 972 2059 
L 3022 2063 
z
" transform="scale(0.015625)"/>
       <path id="DejaVuSans-70" d="M 1159 525 
L 1159 -1331 
L 581 -1331 
L 581 3500 
L 1159 3500 
L 1159 2969 
Q 1341 3281 1617 3432 
Q 1894 3584 2278 3584 
Q 2916 3584 3314 3078 
Q 3713 2572 3713 1747 
Q 3713 922 3314 415 
Q 2916 -91 2278 -91 
Q 1894 -91 1617 61 
Q 1341 213 1159 525 
z
M 3116 1747 
Q 3116 2381 2855 2742 
Q 2594 3103 2138 3103 
Q 1681 3103 1420 2742 
Q 1159 2381 1159 1747 
Q 1159 1113 1420 752 
Q 1681 391 2138 391 
Q 2594 391 2855 752 
Q 3116 1113 3116 1747 
z
" transform="scale(0.015625)"/>
       <path id="DejaVuSans-73" d="M 2834 3397 
L 2834 2853 
Q 2591 2978 2328 3040 
Q 2066 3103 1784 3103 
Q 1356 3103 1142 2972 
Q 928 2841 928 2578 
Q 928 2378 1081 2264 
Q 1234 2150 1697 2047 
L 1894 2003 
Q 2506 1872 2764 1633 
Q 3022 1394 3022 966 
Q 3022 478 2636 193 
Q 2250 -91 1575 -91 
Q 1294 -91 989 -36 
Q 684 19 347 128 
L 347 722 
Q 666 556 975 473 
Q 1284 391 1588 391 
Q 1994 391 2212 530 
Q 2431 669 2431 922 
Q 2431 1156 2273 1281 
Q 2116 1406 1581 1522 
L 1381 1569 
Q 847 1681 609 1914 
Q 372 2147 372 2553 
Q 372 3047 722 3315 
Q 1072 3584 1716 3584 
Q 2034 3584 2315 3537 
Q 2597 3491 2834 3397 
z
" transform="scale(0.015625)"/>
      </defs>
      <use xlink:href="#DejaVuSans-54"/>
      <use xlink:href="#DejaVuSans-72" transform="translate(46.333984 0)"/>
      <use xlink:href="#DejaVuSans-61" transform="translate(87.447266 0)"/>
      <use xlink:href="#DejaVuSans-69" transform="translate(148.726562 0)"/>
      <use xlink:href="#DejaVuSans-6e" transform="translate(176.509766 0)"/>
      <use xlink:href="#DejaVuSans-69" transform="translate(239.888672 0)"/>
      <use xlink:href="#DejaVuSans-6e" transform="translate(267.671875 0)"/>
      <use xlink:href="#DejaVuSans-67" transform="translate(331.050781 0)"/>
      <use xlink:href="#DejaVuSans-20" transform="translate(394.527344 0)"/>
      <use xlink:href="#DejaVuSans-53" transform="translate(426.314453 0)"/>
      <use xlink:href="#DejaVuSans-74" transform="translate(489.791016 0)"/>
      <use xlink:href="#DejaVuSans-65" transform="translate(529 0)"/>
      <use xlink:href="#DejaVuSans-70" transform="translate(590.523438 0)"/>
      <use xlink:href="#DejaVuSans-73" transform="translate(654 0)"/>
     </g>
    </g>
   </g>
   <g id="matplotlib.axis_2">
    <g id="ytick_1">
     <g id="line2d_19">
      <path d="M 90 358.95591 
L 648 358.95591 
" clip-path="url(#pb6aa5946f7)" style="fill: none; stroke: #b0b0b0; stroke-opacity: 0.3; stroke-width: 0.8; stroke-linecap: square"/>
     </g>
     <g id="line2d_20">
      <defs>
       <path id="m3b654c3e47" d="M 0 0 
L -3.5 0 
" style="stroke: #000000; stroke-width: 0.8"/>
      </defs>
      <g>
       <use xlink:href="#m3b654c3e47" x="90" y="358.95591" style="stroke: #000000; stroke-width: 0.8"/>
      </g>
     </g>
     <g id="text_11">
      <!-- 1750 -->
      <g transform="translate(49.170313 362.755129) scale(0.1 -0.1)">
       <defs>
        <path id="DejaVuSans-2212" d="M 678 2272 
L 4684 2272 
L 4684 1741 
L 678 1741 
L 678 2272 
z
" transform="scale(0.015625)"/>
       </defs>
       <use xlink:href="#DejaVuSans-2212"/>
       <use xlink:href="#DejaVuSans-31" transform="translate(83.789062 0)"/>
       <use xlink:href="#DejaVuSans-37" transform="translate(147.412109 0)"/>
       <use xlink:href="#DejaVuSans-35" transform="translate(211.035156 0)"/>
       <use xlink:href="#DejaVuSans-30" transform="translate(274.658203 0)"/>
      </g>
     </g>
    </g>
    <g id="ytick_2">
     <g id="line2d_21">
      <path d="M 90 317.12651 
L 648 317.12651 
" clip-path="url(#pb6aa5946f7)" style="fill: none; stroke: #b0b0b0; stroke-opacity: 0.3; stroke-width: 0.8; stroke-linecap: square"/>
     </g>
     <g id="line2d_22">
      <g>
       <use xlink:href="#m3b654c3e47" x="90" y="317.12651" style="stroke: #000000; stroke-width: 0.8"/>
      </g>
     </g>
     <g id="text_12">
      <!-- 1500 -->
      <g transform="translate(49.170313 320.925729) scale(0.1 -0.1)">
       <use xlink:href="#DejaVuSans-2212"/>
       <use xlink:href="#DejaVuSans-31" transform="translate(83.789062 0)"/>
       <use xlink:href="#DejaVuSans-35" transform="translate(147.412109 0)"/>
       <use xlink:href="#DejaVuSans-30" transform="translate(211.035156 0)"/>
       <use xlink:href="#DejaVuSans-30" transform="translate(274.658203 0)"/>
      </g>
     </g>
    </g>
    <g id="ytick_3">
     <g id="line2d_23">
      <path d="M 90 275.29711 
L 648 275.29711 
" clip-path="url(#pb6aa5946f7)" style="fill: none; stroke: #b0b0b0; stroke-opacity: 0.3; stroke-width: 0.8; stroke-linecap: square"/>
     </g>
     <g id="line2d_24">
      <g>
       <use xlink:href="#m3b654c3e47" x="90" y="275.29711" style="stroke: #000000; stroke-width: 0.8"/>
      </g>
     </g>
     <g id="text_13">
      <!-- 1250 -->
      <g transform="translate(49.170313 279.096329) scale(0.1 -0.1)">
       <use xlink:href="#DejaVuSans-2212"/>
       <use xlink:href="#DejaVuSans-31" transform="translate(83.789062 0)"/>
       <use xlink:href="#DejaVuSans-32" transform="translate(147.412109 0)"/>
       <use xlink:href="#DejaVuSans-35" transform="translate(211.035156 0)"/>
       <use xlink:href="#DejaVuSans-30" transform="translate(274.658203 0)"/>
      </g>
     </g>
    </g>
    <g id="ytick_4">
     <g id="line2d_25">
      <path d="M 90 233.46771 
L 648 233.46771 
" clip-path="url(#pb6aa5946f7)" style="fill: none; stroke: #b0b0b0; stroke-opacity: 0.3; stroke-width: 0.8; stroke-linecap: square"/>
     </g>
     <g id="line2d_26">
      <g>
       <use xlink:href="#m3b654c3e47" x="90" y="233.46771" style="stroke: #000000; stroke-width: 0.8"/>
      </g>
     </g>
     <g id="text_14">
      <!-- 1000 -->
      <g transform="translate(49.170313 237.266929) scale(0.1 -0.1)">
       <use xlink:href="#DejaVuSans-2212"/>
       <use xlink:href="#DejaVuSans-31" transform="translate(83.789062 0)"/>
       <use xlink:href="#DejaVuSans-30" transform="translate(147.412109 0)"/>
       <use xlink:href="#DejaVuSans-30" transform="translate(211.035156 0)"/>
       <use xlink:href="#DejaVuSans-30" transform="translate(274.658203 0)"/>
      </g>
     </g>
    </g>
    <g id="ytick_5">
     <g id="line2d_27">
      <path d="M 90 191.63831 
L 648 191.63831 
" clip-path="url(#pb6aa5946f7)" style="fill: none; stroke: #b0b0b0; stroke-opacity: 0.3; stroke-width: 0.8; stroke-linecap: square"/>
     </g>
     <g id="line2d_28">
      <g>
       <use xlink:href="#m3b654c3e47" x="90" y="191.63831" style="stroke: #000000; stroke-width: 0.8"/>
      </g>
     </g>
     <g id="text_15">
      <!-- 750 -->
      <g transform="translate(55.532812 195.437529) scale(0.1 -0.1)">
       <use xlink:href="#DejaVuSans-2212"/>
       <use xlink:href="#DejaVuSans-37" transform="translate(83.789062 0)"/>
       <use xlink:href="#DejaVuSans-35" transform="translate(147.412109 0)"/>
       <use xlink:href="#DejaVuSans-30" transform="translate(211.035156 0)"/>
      </g>
     </g>
    </g>
    <g id="ytick_6">
     <g id="line2d_29">
      <path d="M 90 149.80891 
L 648 149.80891 
" clip-path="url(#pb6aa5946f7)" style="fill: none; stroke: #b0b0b0; stroke-opacity: 0.3; stroke-width: 0.8; stroke-linecap: square"/>
     </g>
     <g id="line2d_30">
      <g>
       <use xlink:href="#m3b654c3e47" x="90" y="149.80891" style="stroke: #000000; stroke-width: 0.8"/>
      </g>
     </g>
     <g id="text_16">
      <!-- 500 -->
      <g transform="translate(55.532812 153.608129) scale(0.1 -0.1)">
       <use xlink:href="#DejaVuSans-2212"/>
       <use xlink:href="#DejaVuSans-35" transform="translate(83.789062 0)"/>
       <use xlink:href="#DejaVuSans-30" transform="translate(147.412109 0)"/>
       <use xlink:href="#DejaVuSans-30" transform="translate(211.035156 0)"/>
      </g>
     </g>
    </g>
    <g id="ytick_7">
     <g id="line2d_31">
      <path d="M 90 107.97951 
L 648 107.97951 
" clip-path="url(#pb6aa5946f7)" style="fill: none; stroke: #b0b0b0; stroke-opacity: 0.3; stroke-width: 0.8; stroke-linecap: square"/>
     </g>
     <g id="line2d_32">
      <g>
       <use xlink:href="#m3b654c3e47" x="90" y="107.97951" style="stroke: #000000; stroke-width: 0.8"/>
      </g>
     </g>
     <g id="text_17">
      <!-- 250 -->
      <g transform="translate(55.532812 111.778728) scale(0.1 -0.1)">
       <use xlink:href="#DejaVuSans-2212"/>
       <use xlink:href="#DejaVuSans-32" transform="translate(83.789062 0)"/>
       <use xlink:href="#DejaVuSans-35" transform="translate(147.412109 0)"/>
       <use xlink:href="#DejaVuSans-30" transform="translate(211.035156 0)"/>
      </g>
     </g>
    </g>
    <g id="ytick_8">
     <g id="line2d_33">
      <path d="M 90 66.150109 
L 648 66.150109 
" clip-path="url(#pb6aa5946f7)" style="fill: none; stroke: #b0b0b0; stroke-opacity: 0.3; stroke-width: 0.8; stroke-linecap: square"/>
     </g>
     <g id="line2d_34">
      <g>
       <use xlink:href="#m3b654c3e47" x="90" y="66.150109" style="stroke: #000000; stroke-width: 0.8"/>
      </g>
     </g>
     <g id="text_18">
      <!-- 0 -->
      <g transform="translate(76.6375 69.949328) scale(0.1 -0.1)">
       <use xlink:href="#DejaVuSans-30"/>
      </g>
     </g>
    </g>
    <g id="text_19">
     <!-- Return -->
     <g transform="translate(43.090625 234.751406) rotate(-90) scale(0.1 -0.1)">
      <defs>
       <path id="DejaVuSans-52" d="M 2841 2188 
Q 3044 2119 3236 1894 
Q 3428 1669 3622 1275 
L 4263 0 
L 3584 0 
L 2988 1197 
Q 2756 1666 2539 1819 
Q 2322 1972 1947 1972 
L 1259 1972 
L 1259 0 
L 628 0 
L 628 4666 
L 2053 4666 
Q 2853 4666 3247 4331 
Q 3641 3997 3641 3322 
Q 3641 2881 3436 2590 
Q 3231 2300 2841 2188 
z
M 1259 4147 
L 1259 2491 
L 2053 2491 
Q 2509 2491 2742 2702 
Q 2975 2913 2975 3322 
Q 2975 3731 2742 3939 
Q 2509 4147 2053 4147 
L 1259 4147 
z
" transform="scale(0.015625)"/>
       <path id="DejaVuSans-75" d="M 544 1381 
L 544 3500 
L 1119 3500 
L 1119 1403 
Q 1119 906 1312 657 
Q 1506 409 1894 409 
Q 2359 409 2629 706 
Q 2900 1003 2900 1516 
L 2900 3500 
L 3475 3500 
L 3475 0 
L 2900 0 
L 2900 538 
Q 2691 219 2414 64 
Q 2138 -91 1772 -91 
Q 1169 -91 856 284 
Q 544 659 544 1381 
z
M 1991 3584 
L 1991 3584 
z
" transform="scale(0.015625)"/>
      </defs>
      <use xlink:href="#DejaVuSans-52"/>
      <use xlink:href="#DejaVuSans-65" transform="translate(64.982422 0)"/>
      <use xlink:href="#DejaVuSans-74" transform="translate(126.505859 0)"/>
      <use xlink:href="#DejaVuSans-75" transform="translate(165.714844 0)"/>
      <use xlink:href="#DejaVuSans-72" transform="translate(229.09375 0)"/>
      <use xlink:href="#DejaVuSans-6e" transform="translate(268.457031 0)"/>
     </g>
    </g>
   </g>
   <g id="line2d_35">
    <path d="M 115.363636 304.360375 
L 117.400876 346.665765 
L 119.438116 296.790487 
L 121.475356 241.088825 
L 123.512596 251.938545 
L 125.549836 236.529856 
L 127.587076 249.246167 
L 129.624315 240.528043 
L 131.661555 228.357184 
L 133.698795 217.325471 
L 135.736035 225.77019 
L 137.773275 228.996132 
L 139.810515 220.99229 
L 141.847755 235.241451 
L 143.884995 224.493318 
L 145.922234 222.475292 
L 147.959474 219.961173 
L 149.996714 228.737198 
L 152.033954 221.974244 
L 154.071194 222.424524 
L 156.108434 225.513445 
L 158.145674 226.718716 
L 160.182913 211.2637 
L 162.220153 218.237258 
L 164.257393 206.967304 
L 166.294633 208.048267 
L 168.331873 206.859 
L 170.369113 196.582554 
L 172.406353 210.840185 
L 174.443593 201.245785 
L 176.480832 199.351132 
L 178.518072 200.208224 
L 180.555312 204.40352 
L 182.592552 185.122337 
L 184.629792 184.377341 
L 186.667032 196.733437 
L 188.704272 171.151032 
L 190.741512 168.744595 
L 192.778751 166.703381 
L 194.815991 135.036471 
L 196.853231 137.723697 
L 198.890471 132.563319 
L 200.927711 134.394098 
L 202.964951 124.019107 
L 205.002191 127.358816 
L 207.03943 129.775444 
L 209.07667 134.221061 
L 211.11391 129.654095 
L 213.15115 126.874119 
L 215.18839 135.37588 
L 217.22563 120.531205 
L 219.26287 130.527736 
L 221.30011 129.728995 
L 223.337349 127.47403 
L 225.374589 124.599446 
L 227.411829 123.998547 
L 229.449069 125.915709 
L 231.486309 125.436313 
L 233.523549 123.601343 
L 235.560789 119.173504 
L 237.598028 117.39493 
L 239.635268 119.715213 
L 241.672508 116.07128 
L 243.709748 123.347532 
L 245.746988 123.665572 
L 247.784228 119.819344 
L 249.821468 123.801415 
L 251.858708 115.860155 
L 253.895947 120.087598 
L 255.933187 119.594512 
L 257.970427 116.513008 
L 260.007667 98.998055 
L 262.044907 105.690545 
L 264.082147 96.335547 
L 266.119387 97.882707 
L 268.156627 93.870282 
L 270.193866 99.627671 
L 272.231106 100.562307 
L 274.268346 97.306499 
L 276.305586 95.886679 
L 278.342826 92.876691 
L 280.380066 101.265591 
L 282.417306 94.576082 
L 284.454545 100.125503 
L 286.491785 99.551231 
L 288.529025 96.27209 
L 290.566265 93.317866 
L 292.603505 95.01115 
L 294.640745 95.922086 
L 296.677985 94.536986 
L 298.715225 93.832383 
L 300.752464 94.770184 
L 302.789704 95.057503 
L 304.826944 93.698289 
L 306.864184 94.979763 
L 308.901424 96.816366 
L 310.938664 87.884794 
L 312.975904 90.335583 
L 315.013143 86.978275 
L 317.050383 92.565625 
L 319.087623 96.913347 
L 321.124863 90.720718 
L 323.162103 88.461715 
L 325.199343 88.008538 
L 327.236583 85.092263 
L 329.273823 90.026475 
L 331.311062 89.42335 
L 333.348302 89.462761 
L 335.385542 91.543468 
L 337.422782 89.500498 
L 339.460022 93.340619 
L 341.497262 89.816036 
L 343.534502 89.047107 
L 345.571742 95.367619 
L 347.608981 89.889974 
L 349.646221 87.983855 
L 351.683461 87.014281 
L 353.720701 93.015365 
L 355.757941 88.889204 
L 357.795181 97.019426 
L 359.832421 93.153033 
L 361.86966 93.415729 
L 363.9069 90.304788 
L 365.94414 87.928764 
L 367.98138 93.231054 
L 370.01862 90.107909 
L 372.05586 91.582549 
L 374.0931 87.915144 
L 376.13034 90.396039 
L 378.167579 89.136523 
L 380.204819 92.1102 
L 382.242059 93.306165 
L 384.279299 87.564033 
L 386.316539 91.705513 
L 388.353779 94.269039 
L 390.391019 88.927795 
L 392.428258 90.066527 
L 394.465498 88.891076 
L 396.502738 88.927378 
L 398.539978 94.984899 
L 400.577218 90.43346 
L 402.614458 89.653636 
L 404.651698 91.43057 
L 406.688938 86.863067 
L 408.726177 88.611177 
L 410.763417 91.792286 
L 412.800657 87.233161 
L 414.837897 89.657337 
L 416.875137 90.5993 
L 418.912377 87.975246 
L 420.949617 87.464258 
L 425.024096 94.268363 
L 427.061336 91.439871 
L 429.098576 89.62274 
L 431.135816 87.635825 
L 433.173056 89.518916 
L 435.210296 95.074828 
L 437.247536 87.566009 
L 439.284775 87.011674 
L 441.322015 92.06378 
L 443.359255 87.347096 
L 445.396495 88.169807 
L 447.433735 87.899931 
L 449.470975 86.965942 
L 451.508215 92.218005 
L 453.545455 88.251159 
L 455.582694 87.428167 
L 457.619934 88.00404 
L 459.657174 86.900188 
L 461.694414 88.682698 
L 463.731654 87.211117 
L 465.768894 87.312475 
L 467.806134 89.459129 
L 469.843373 87.335305 
L 471.880613 91.655367 
L 473.917853 89.143823 
L 475.955093 89.504657 
L 477.992333 87.370436 
L 480.029573 89.662834 
L 482.066813 88.691355 
L 484.104053 90.146114 
L 486.141292 87.998893 
L 488.178532 89.836635 
L 490.215772 87.362885 
L 492.253012 86.964354 
L 494.290252 90.72406 
L 496.327492 87.893521 
L 498.364732 86.629646 
L 500.401972 92.748214 
L 502.439211 88.840909 
L 504.476451 89.508605 
L 506.513691 92.749474 
L 508.550931 87.003295 
L 510.588171 88.83856 
L 512.625411 92.172397 
L 514.662651 88.272229 
L 516.69989 92.702333 
L 518.73713 92.473998 
L 520.77437 91.570878 
L 522.81161 89.93062 
L 524.84885 89.880745 
L 526.88609 90.202947 
L 528.92333 87.046077 
L 530.96057 86.917078 
L 532.997809 97.74764 
L 535.035049 90.937117 
L 537.072289 87.503477 
L 539.109529 88.048283 
L 541.146769 89.894209 
L 543.184009 87.011392 
L 545.221249 90.409642 
L 547.258488 87.465306 
L 549.295728 92.092803 
L 551.332968 93.57096 
L 553.370208 89.945969 
L 555.407448 89.035533 
L 557.444688 89.412978 
L 559.481928 92.469516 
L 561.519168 89.677411 
L 563.556407 87.434417 
L 565.593647 91.922425 
L 567.630887 87.780854 
L 569.668127 92.146333 
L 571.705367 88.428747 
L 573.742607 88.817123 
L 575.779847 87.082372 
L 577.817087 94.265802 
L 579.854326 91.074473 
L 581.891566 87.051882 
L 583.928806 90.488123 
L 585.966046 93.518094 
L 590.040526 89.128732 
L 592.077766 87.774123 
L 594.115005 93.511768 
L 596.152245 91.440215 
L 598.189485 87.263439 
L 600.226725 92.655072 
L 602.263965 87.15508 
L 604.301205 89.307681 
L 606.338445 89.21066 
L 608.375685 88.024386 
L 610.412924 86.992016 
L 612.450164 86.858608 
L 614.487404 86.883002 
L 616.524644 88.584462 
L 618.561884 88.06099 
L 620.599124 92.349699 
L 622.636364 88.552223 
L 622.636364 88.552223 
" clip-path="url(#pb6aa5946f7)" style="fill: none; stroke: #d00000; stroke-width: 1.5; stroke-linecap: square"/>
   </g>
   <g id="line2d_36">
    <path d="M 115.363636 322.650558 
L 117.400876 352.392631 
L 119.438116 247.395964 
L 121.475356 269.08913 
L 123.512596 200.268675 
L 125.549836 136.384811 
L 127.587076 123.062689 
L 129.624315 101.029094 
L 131.661555 95.782479 
L 133.698795 92.547351 
L 135.736035 92.029991 
L 137.773275 89.275112 
L 139.810515 91.509041 
L 143.884995 92.85553 
L 145.922234 87.456223 
L 147.959474 87.960201 
L 149.996714 92.166152 
L 152.033954 88.81268 
L 154.071194 89.253666 
L 156.108434 88.726435 
L 158.145674 89.625785 
L 160.182913 88.957775 
L 162.220153 92.729783 
L 164.257393 86.428867 
L 166.294633 89.718131 
L 168.331873 90.615867 
L 170.369113 87.934931 
L 172.406353 86.602112 
L 174.443593 89.522016 
L 176.480832 90.346659 
L 178.518072 91.333538 
L 180.555312 86.523463 
L 182.592552 87.89169 
L 184.629792 88.690019 
L 186.667032 88.049555 
L 188.704272 91.743268 
L 190.741512 88.804821 
L 192.778751 90.402636 
L 194.815991 90.209026 
L 196.853231 88.755211 
L 198.890471 90.311914 
L 200.927711 90.613489 
L 202.964951 90.053696 
L 205.002191 86.109386 
L 207.03943 89.740666 
L 209.07667 88.715716 
L 211.11391 86.531865 
L 213.15115 87.200972 
L 215.18839 90.717535 
L 217.22563 86.352185 
L 219.26287 86.284501 
L 221.30011 86.513304 
L 223.337349 90.173046 
L 225.374589 87.358056 
L 227.411829 86.475016 
L 229.449069 87.182709 
L 231.486309 90.292139 
L 233.523549 86.589907 
L 235.560789 90.342447 
L 237.598028 87.986016 
L 239.635268 89.54287 
L 241.672508 90.288953 
L 243.709748 86.634596 
L 245.746988 88.791106 
L 247.784228 86.336603 
L 249.821468 91.808388 
L 251.858708 86.790953 
L 253.895947 88.23517 
L 255.933187 86.752479 
L 257.970427 86.652002 
L 260.007667 86.304536 
L 262.044907 88.83803 
L 264.082147 87.411422 
L 266.119387 92.183169 
L 268.156627 92.742626 
L 270.193866 91.332611 
L 272.231106 88.915131 
L 274.268346 86.785272 
L 276.305586 89.780668 
L 278.342826 88.229191 
L 280.380066 87.089196 
L 282.417306 90.791736 
L 284.454545 93.501016 
L 286.491785 90.426669 
L 288.529025 89.779152 
L 290.566265 88.491128 
L 292.603505 90.818185 
L 294.640745 90.102359 
L 296.677985 87.959106 
L 298.715225 86.992614 
L 300.752464 89.059875 
L 302.789704 88.39556 
L 304.826944 90.536374 
L 306.864184 87.774791 
L 308.901424 93.278287 
L 310.938664 92.274602 
L 312.975904 86.889435 
L 315.013143 86.864624 
L 317.050383 89.416262 
L 319.087623 89.428511 
L 321.124863 93.203378 
L 323.162103 87.639808 
L 325.199343 89.414371 
L 327.236583 88.500569 
L 329.273823 90.2711 
L 331.311062 91.505289 
L 333.348302 88.572138 
L 335.385542 90.470861 
L 337.422782 86.717875 
L 339.460022 86.817764 
L 341.497262 91.833649 
L 345.571742 86.610146 
L 347.608981 86.437702 
L 349.646221 87.141498 
L 351.683461 88.945867 
L 353.720701 90.396859 
L 355.757941 89.282693 
L 357.795181 87.175866 
L 359.832421 91.597244 
L 361.86966 89.74811 
L 363.9069 89.836697 
L 365.94414 93.968532 
L 367.98138 87.850104 
L 370.01862 90.57331 
L 372.05586 91.883829 
L 374.0931 88.968006 
L 376.13034 92.727616 
L 378.167579 90.911075 
L 380.204819 87.60723 
L 382.242059 86.732383 
L 384.279299 87.514248 
L 386.316539 88.868313 
L 388.353779 86.73351 
L 390.391019 87.620553 
L 392.428258 86.75612 
L 394.465498 87.281908 
L 396.502738 86.93484 
L 398.539978 88.363631 
L 402.614458 87.085234 
L 404.651698 90.022885 
L 406.688938 86.968204 
L 408.726177 87.138434 
L 410.763417 87.588895 
L 412.800657 87.064981 
L 414.837897 87.485304 
L 416.875137 89.493779 
L 418.912377 92.851603 
L 420.949617 86.808028 
L 422.986857 86.734362 
L 425.024096 86.792212 
L 427.061336 92.355695 
L 429.098576 89.042771 
L 431.135816 86.998471 
L 433.173056 91.511975 
L 435.210296 86.861492 
L 437.247536 89.213814 
L 439.284775 89.037927 
L 441.322015 87.658142 
L 443.359255 89.907586 
L 445.396495 86.86051 
L 447.433735 87.084889 
L 449.470975 86.86009 
L 451.508215 89.727314 
L 453.545455 86.860386 
L 455.582694 93.464727 
L 457.619934 87.517133 
L 459.657174 87.993021 
L 461.694414 87.747876 
L 463.731654 89.893813 
L 465.768894 90.696529 
L 467.806134 90.025406 
L 469.843373 90.708647 
L 471.880613 87.666693 
L 473.917853 86.713484 
L 475.955093 87.626029 
L 477.992333 88.684253 
L 480.029573 87.165452 
L 482.066813 88.331979 
L 484.104053 89.182562 
L 486.141292 86.816754 
L 488.178532 91.282104 
L 490.215772 87.96973 
L 492.253012 86.68161 
L 494.290252 89.508919 
L 496.327492 88.263126 
L 498.364732 86.791302 
L 500.401972 86.772111 
L 502.439211 94.255453 
L 504.476451 86.972467 
L 506.513691 91.889828 
L 508.550931 87.374907 
L 510.588171 87.330134 
L 512.625411 87.946704 
L 514.662651 89.739398 
L 516.69989 89.814274 
L 518.73713 86.684841 
L 520.77437 87.556149 
L 522.81161 88.089039 
L 524.84885 87.384421 
L 526.88609 87.051483 
L 528.92333 87.258305 
L 530.96057 93.958371 
L 532.997809 89.45786 
L 535.035049 87.923662 
L 537.072289 87.05971 
L 539.109529 88.626884 
L 541.146769 89.950977 
L 543.184009 89.734438 
L 545.221249 91.553511 
L 547.258488 87.093937 
L 549.295728 93.552099 
L 551.332968 90.078592 
L 553.370208 89.272124 
L 555.407448 88.339277 
L 557.444688 86.646126 
L 559.481928 94.268681 
L 561.519168 86.730363 
L 563.556407 89.525699 
L 565.593647 88.450813 
L 567.630887 88.297033 
L 569.668127 86.690027 
L 571.705367 90.269966 
L 573.742607 86.559938 
L 575.779847 87.414196 
L 577.817087 89.808388 
L 579.854326 86.777933 
L 581.891566 90.425045 
L 583.928806 88.431523 
L 585.966046 87.583852 
L 588.003286 89.579353 
L 590.040526 87.458575 
L 592.077766 88.219297 
L 594.115005 88.478109 
L 596.152245 92.843756 
L 598.189485 86.728978 
L 600.226725 91.3544 
L 602.263965 86.791096 
L 604.301205 90.539178 
L 606.338445 87.713271 
L 608.375685 95.183122 
L 610.412924 92.056127 
L 612.450164 88.374921 
L 614.487404 90.552401 
L 616.524644 86.852506 
L 618.561884 92.058341 
L 620.599124 89.67574 
L 622.636364 86.753187 
L 622.636364 86.753187 
" clip-path="url(#pb6aa5946f7)" style="fill: none; stroke: #38b000; stroke-width: 1.5; stroke-linecap: square"/>
   </g>
   <g id="line2d_37">
    <path d="M 115.363636 318.526563 
L 117.400876 335.399402 
L 119.438116 306.308559 
L 121.475356 316.820244 
L 123.512596 317.901014 
L 125.549836 321.074089 
L 127.587076 321.090225 
L 129.624315 320.397327 
L 131.661555 320.693495 
L 133.698795 321.188053 
L 135.736035 318.711326 
L 137.773275 319.973048 
L 139.810515 316.76189 
L 141.847755 307.742369 
L 143.884995 319.151208 
L 145.922234 310.18682 
L 147.959474 308.788673 
L 149.996714 316.135433 
L 152.033954 304.819815 
L 154.071194 312.953621 
L 158.145674 277.280367 
L 160.182913 262.381134 
L 162.220153 290.433864 
L 164.257393 309.701679 
L 166.294633 202.270856 
L 168.331873 316.845892 
L 170.369113 301.009155 
L 174.443593 184.672699 
L 176.480832 300.246567 
L 178.518072 231.82783 
L 180.555312 233.220017 
L 182.592552 281.593079 
L 184.629792 231.641356 
L 186.667032 270.902511 
L 188.704272 182.496185 
L 190.741512 242.191293 
L 192.778751 223.302755 
L 194.815991 262.145256 
L 196.853231 222.852495 
L 198.890471 251.415823 
L 200.927711 222.32182 
L 202.964951 203.039283 
L 205.002191 279.770865 
L 207.03943 220.913464 
L 209.07667 183.718247 
L 211.11391 211.701832 
L 213.15115 182.348942 
L 215.18839 243.380459 
L 217.22563 201.183395 
L 219.26287 240.285919 
L 221.30011 182.141605 
L 223.337349 173.095446 
L 225.374589 192.771912 
L 227.411829 234.885784 
L 229.449069 273.234231 
L 231.486309 183.790556 
L 233.523549 182.303877 
L 235.560789 212.94398 
L 237.598028 240.8578 
L 239.635268 173.506715 
L 241.672508 192.576654 
L 243.709748 193.585702 
L 245.746988 136.131504 
L 247.784228 202.5597 
L 249.821468 261.307131 
L 251.858708 206.223085 
L 253.895947 230.609097 
L 255.933187 182.73947 
L 257.970427 193.281376 
L 260.007667 159.732202 
L 262.044907 182.440802 
L 264.082147 153.663568 
L 266.119387 144.417349 
L 268.156627 194.400639 
L 270.193866 251.562716 
L 272.231106 213.370111 
L 274.268346 203.163383 
L 276.305586 242.535156 
L 278.342826 181.528221 
L 280.380066 182.471556 
L 282.417306 125.624354 
L 284.454545 163.281844 
L 286.491785 196.703308 
L 290.566265 152.474569 
L 292.603505 163.863677 
L 294.640745 203.168384 
L 296.677985 202.596671 
L 298.715225 203.353313 
L 300.752464 175.965993 
L 302.789704 133.287512 
L 304.826944 192.094675 
L 306.864184 184.424533 
L 308.901424 134.97549 
L 310.938664 191.957477 
L 312.975904 193.437954 
L 315.013143 221.916479 
L 317.050383 212.151652 
L 319.087623 135.520417 
L 321.124863 219.938425 
L 323.162103 183.180391 
L 325.199343 213.40095 
L 327.236583 126.194577 
L 329.273823 136.132053 
L 331.311062 184.239932 
L 333.348302 145.217832 
L 335.385542 146.30459 
L 337.422782 136.859352 
L 339.460022 139.58608 
L 341.497262 185.373009 
L 343.534502 136.271509 
L 345.571742 165.717809 
L 347.608981 116.991193 
L 349.646221 154.338699 
L 351.683461 223.042773 
L 353.720701 165.735269 
L 355.757941 87.639648 
L 357.795181 118.680424 
L 359.832421 156.394834 
L 361.86966 107.669692 
L 363.9069 191.570899 
L 365.94414 194.435945 
L 367.98138 115.92498 
L 370.01862 168.915228 
L 372.05586 144.726257 
L 374.0931 117.042378 
L 376.13034 119.42694 
L 378.167579 166.089707 
L 380.204819 174.619607 
L 382.242059 187.453465 
L 384.279299 136.200674 
L 386.316539 174.8798 
L 388.353779 139.415601 
L 390.391019 89.247455 
L 392.428258 135.193497 
L 394.465498 155.537108 
L 396.502738 194.586083 
L 398.539978 202.871051 
L 400.577218 98.637892 
L 402.614458 126.7923 
L 404.651698 138.079977 
L 406.688938 155.286514 
L 408.726177 154.072167 
L 410.763417 203.018083 
L 412.800657 169.100975 
L 414.837897 125.289555 
L 416.875137 97.803032 
L 418.912377 175.355177 
L 420.949617 126.510001 
L 422.986857 108.499613 
L 425.024096 126.320951 
L 427.061336 175.10676 
L 429.098576 87.68157 
L 431.135816 87.704879 
L 433.173056 137.608976 
L 435.210296 165.69964 
L 437.247536 138.148722 
L 439.284775 126.092661 
L 441.322015 154.629072 
L 443.359255 148.006461 
L 445.396495 135.082367 
L 447.433735 193.429472 
L 449.470975 146.997606 
L 451.508215 136.708131 
L 453.545455 155.44725 
L 455.582694 116.328294 
L 457.619934 155.049642 
L 459.657174 165.50556 
L 461.694414 164.0659 
L 463.731654 144.877836 
L 465.768894 87.510875 
L 467.806134 146.210616 
L 469.843373 142.154392 
L 471.880613 179.906825 
L 473.917853 143.252471 
L 475.955093 96.899675 
L 477.992333 164.795058 
L 480.029573 225.05243 
L 482.066813 154.688045 
L 484.104053 145.970857 
L 486.141292 125.518486 
L 488.178532 106.649319 
L 490.215772 135.636453 
L 492.253012 194.41768 
L 494.290252 125.462367 
L 496.327492 125.343102 
L 498.364732 107.201834 
L 500.401972 135.929426 
L 502.439211 134.969993 
L 504.476451 126.611703 
L 506.513691 86.927094 
L 508.550931 154.312398 
L 510.588171 183.492916 
L 512.625411 153.807033 
L 514.662651 115.48248 
L 516.69989 135.809783 
L 518.73713 125.223749 
L 520.77437 125.80114 
L 522.81161 194.614376 
L 524.84885 111.389675 
L 526.88609 116.500886 
L 528.92333 136.065068 
L 530.96057 117.534826 
L 532.997809 135.496331 
L 535.035049 135.108542 
L 537.072289 134.9769 
L 539.109529 87.63796 
L 541.146769 145.385772 
L 543.184009 97.863243 
L 545.221249 107.286569 
L 547.258488 86.989577 
L 549.295728 126.643145 
L 551.332968 174.298069 
L 553.370208 155.202519 
L 555.407448 127.495906 
L 557.444688 154.688955 
L 559.481928 116.764751 
L 561.519168 87.50097 
L 563.556407 155.563196 
L 565.593647 126.528545 
L 567.630887 184.380595 
L 569.668127 105.947233 
L 571.705367 106.627785 
L 573.742607 87.410329 
L 575.779847 116.429607 
L 577.817087 135.086514 
L 579.854326 126.928748 
L 581.891566 115.827095 
L 583.928806 154.193668 
L 585.966046 135.644563 
L 588.003286 106.620173 
L 590.040526 87.699124 
L 592.077766 125.442593 
L 594.115005 106.380902 
L 596.152245 96.789916 
L 598.189485 106.144207 
L 600.226725 98.646037 
L 602.263965 135.805403 
L 604.301205 225.814631 
L 606.338445 96.424137 
L 608.375685 106.097519 
L 610.412924 126.319098 
L 612.450164 117.249078 
L 614.487404 107.128055 
L 616.524644 106.286014 
L 618.561884 86.97963 
L 620.599124 125.342113 
L 622.636364 144.627307 
L 622.636364 144.627307 
" clip-path="url(#pb6aa5946f7)" style="fill: none; stroke: #023e8a; stroke-width: 1.5; stroke-linecap: square"/>
   </g>
   <g id="patch_3">
    <path d="M 90 384.48 
L 90 51.84 
" style="fill: none; stroke: #000000; stroke-width: 0.8; stroke-linejoin: miter; stroke-linecap: square"/>
   </g>
   <g id="patch_4">
    <path d="M 648 384.48 
L 648 51.84 
" style="fill: none; stroke: #000000; stroke-width: 0.8; stroke-linejoin: miter; stroke-linecap: square"/>
   </g>
   <g id="patch_5">
    <path d="M 90 384.48 
L 648 384.48 
" style="fill: none; stroke: #000000; stroke-width: 0.8; stroke-linejoin: miter; stroke-linecap: square"/>
   </g>
   <g id="patch_6">
    <path d="M 90 51.84 
L 648 51.84 
" style="fill: none; stroke: #000000; stroke-width: 0.8; stroke-linejoin: miter; stroke-linecap: square"/>
   </g>
   <g id="text_20">
    <!-- Pendulum OnPolicy Training Progress -->
    <g transform="translate(258.407812 45.84) scale(0.12 -0.12)">
     <defs>
      <path id="DejaVuSans-50" d="M 1259 4147 
L 1259 2394 
L 2053 2394 
Q 2494 2394 2734 2622 
Q 2975 2850 2975 3272 
Q 2975 3691 2734 3919 
Q 2494 4147 2053 4147 
L 1259 4147 
z
M 628 4666 
L 2053 4666 
Q 2838 4666 3239 4311 
Q 3641 3956 3641 3272 
Q 3641 2581 3239 2228 
Q 2838 1875 2053 1875 
L 1259 1875 
L 1259 0 
L 628 0 
L 628 4666 
z
" transform="scale(0.015625)"/>
      <path id="DejaVuSans-64" d="M 2906 2969 
L 2906 4863 
L 3481 4863 
L 3481 0 
L 2906 0 
L 2906 525 
Q 2725 213 2448 61 
Q 2172 -91 1784 -91 
Q 1150 -91 751 415 
Q 353 922 353 1747 
Q 353 2572 751 3078 
Q 1150 3584 1784 3584 
Q 2172 3584 2448 3432 
Q 2725 3281 2906 2969 
z
M 947 1747 
Q 947 1113 1208 752 
Q 1469 391 1925 391 
Q 2381 391 2643 752 
Q 2906 1113 2906 1747 
Q 2906 2381 2643 2742 
Q 2381 3103 1925 3103 
Q 1469 3103 1208 2742 
Q 947 2381 947 1747 
z
" transform="scale(0.015625)"/>
      <path id="DejaVuSans-6c" d="M 603 4863 
L 1178 4863 
L 1178 0 
L 603 0 
L 603 4863 
z
" transform="scale(0.015625)"/>
      <path id="DejaVuSans-6d" d="M 3328 2828 
Q 3544 3216 3844 3400 
Q 4144 3584 4550 3584 
Q 5097 3584 5394 3201 
Q 5691 2819 5691 2113 
L 5691 0 
L 5113 0 
L 5113 2094 
Q 5113 2597 4934 2840 
Q 4756 3084 4391 3084 
Q 3944 3084 3684 2787 
Q 3425 2491 3425 1978 
L 3425 0 
L 2847 0 
L 2847 2094 
Q 2847 2600 2669 2842 
Q 2491 3084 2119 3084 
Q 1678 3084 1418 2786 
Q 1159 2488 1159 1978 
L 1159 0 
L 581 0 
L 581 3500 
L 1159 3500 
L 1159 2956 
Q 1356 3278 1631 3431 
Q 1906 3584 2284 3584 
Q 2666 3584 2933 3390 
Q 3200 3197 3328 2828 
z
" transform="scale(0.015625)"/>
      <path id="DejaVuSans-4f" d="M 2522 4238 
Q 1834 4238 1429 3725 
Q 1025 3213 1025 2328 
Q 1025 1447 1429 934 
Q 1834 422 2522 422 
Q 3209 422 3611 934 
Q 4013 1447 4013 2328 
Q 4013 3213 3611 3725 
Q 3209 4238 2522 4238 
z
M 2522 4750 
Q 3503 4750 4090 4092 
Q 4678 3434 4678 2328 
Q 4678 1225 4090 567 
Q 3503 -91 2522 -91 
Q 1538 -91 948 565 
Q 359 1222 359 2328 
Q 359 3434 948 4092 
Q 1538 4750 2522 4750 
z
" transform="scale(0.015625)"/>
      <path id="DejaVuSans-6f" d="M 1959 3097 
Q 1497 3097 1228 2736 
Q 959 2375 959 1747 
Q 959 1119 1226 758 
Q 1494 397 1959 397 
Q 2419 397 2687 759 
Q 2956 1122 2956 1747 
Q 2956 2369 2687 2733 
Q 2419 3097 1959 3097 
z
M 1959 3584 
Q 2709 3584 3137 3096 
Q 3566 2609 3566 1747 
Q 3566 888 3137 398 
Q 2709 -91 1959 -91 
Q 1206 -91 779 398 
Q 353 888 353 1747 
Q 353 2609 779 3096 
Q 1206 3584 1959 3584 
z
" transform="scale(0.015625)"/>
      <path id="DejaVuSans-63" d="M 3122 3366 
L 3122 2828 
Q 2878 2963 2633 3030 
Q 2388 3097 2138 3097 
Q 1578 3097 1268 2742 
Q 959 2388 959 1747 
Q 959 1106 1268 751 
Q 1578 397 2138 397 
Q 2388 397 2633 464 
Q 2878 531 3122 666 
L 3122 134 
Q 2881 22 2623 -34 
Q 2366 -91 2075 -91 
Q 1284 -91 818 406 
Q 353 903 353 1747 
Q 353 2603 823 3093 
Q 1294 3584 2113 3584 
Q 2378 3584 2631 3529 
Q 2884 3475 3122 3366 
z
" transform="scale(0.015625)"/>
      <path id="DejaVuSans-79" d="M 2059 -325 
Q 1816 -950 1584 -1140 
Q 1353 -1331 966 -1331 
L 506 -1331 
L 506 -850 
L 844 -850 
Q 1081 -850 1212 -737 
Q 1344 -625 1503 -206 
L 1606 56 
L 191 3500 
L 800 3500 
L 1894 763 
L 2988 3500 
L 3597 3500 
L 2059 -325 
z
" transform="scale(0.015625)"/>
     </defs>
     <use xlink:href="#DejaVuSans-50"/>
     <use xlink:href="#DejaVuSans-65" transform="translate(56.677734 0)"/>
     <use xlink:href="#DejaVuSans-6e" transform="translate(118.201172 0)"/>
     <use xlink:href="#DejaVuSans-64" transform="translate(181.580078 0)"/>
     <use xlink:href="#DejaVuSans-75" transform="translate(245.056641 0)"/>
     <use xlink:href="#DejaVuSans-6c" transform="translate(308.435547 0)"/>
     <use xlink:href="#DejaVuSans-75" transform="translate(336.21875 0)"/>
     <use xlink:href="#DejaVuSans-6d" transform="translate(399.597656 0)"/>
     <use xlink:href="#DejaVuSans-20" transform="translate(497.009766 0)"/>
     <use xlink:href="#DejaVuSans-4f" transform="translate(528.796875 0)"/>
     <use xlink:href="#DejaVuSans-6e" transform="translate(607.507812 0)"/>
     <use xlink:href="#DejaVuSans-50" transform="translate(670.886719 0)"/>
     <use xlink:href="#DejaVuSans-6f" transform="translate(727.564453 0)"/>
     <use xlink:href="#DejaVuSans-6c" transform="translate(788.746094 0)"/>
     <use xlink:href="#DejaVuSans-69" transform="translate(816.529297 0)"/>
     <use xlink:href="#DejaVuSans-63" transform="translate(844.3125 0)"/>
     <use xlink:href="#DejaVuSans-79" transform="translate(899.292969 0)"/>
     <use xlink:href="#DejaVuSans-20" transform="translate(958.472656 0)"/>
     <use xlink:href="#DejaVuSans-54" transform="translate(990.259766 0)"/>
     <use xlink:href="#DejaVuSans-72" transform="translate(1036.59375 0)"/>
     <use xlink:href="#DejaVuSans-61" transform="translate(1077.707031 0)"/>
     <use xlink:href="#DejaVuSans-69" transform="translate(1138.986328 0)"/>
     <use xlink:href="#DejaVuSans-6e" transform="translate(1166.769531 0)"/>
     <use xlink:href="#DejaVuSans-69" transform="translate(1230.148438 0)"/>
     <use xlink:href="#DejaVuSans-6e" transform="translate(1257.931641 0)"/>
     <use xlink:href="#DejaVuSans-67" transform="translate(1321.310547 0)"/>
     <use xlink:href="#DejaVuSans-20" transform="translate(1384.787109 0)"/>
     <use xlink:href="#DejaVuSans-50" transform="translate(1416.574219 0)"/>
     <use xlink:href="#DejaVuSans-72" transform="translate(1475.126953 0)"/>
     <use xlink:href="#DejaVuSans-6f" transform="translate(1513.990234 0)"/>
     <use xlink:href="#DejaVuSans-67" transform="translate(1575.171875 0)"/>
     <use xlink:href="#DejaVuSans-72" transform="translate(1638.648438 0)"/>
     <use xlink:href="#DejaVuSans-65" transform="translate(1677.511719 0)"/>
     <use xlink:href="#DejaVuSans-73" transform="translate(1739.035156 0)"/>
     <use xlink:href="#DejaVuSans-73" transform="translate(1791.134766 0)"/>
    </g>
   </g>
   <g id="legend_1">
    <g id="patch_7">
     <path d="M 557.19375 379.48 
L 641 379.48 
Q 643 379.48 643 377.48 
L 643 334.445625 
Q 643 332.445625 641 332.445625 
L 557.19375 332.445625 
Q 555.19375 332.445625 555.19375 334.445625 
L 555.19375 377.48 
Q 555.19375 379.48 557.19375 379.48 
z
" style="fill: #ffffff; opacity: 0.8; stroke: #cccccc; stroke-linejoin: miter"/>
    </g>
    <g id="line2d_38">
     <path d="M 559.19375 340.544062 
L 569.19375 340.544062 
L 579.19375 340.544062 
" style="fill: none; stroke: #d00000; stroke-width: 1.5; stroke-linecap: square"/>
    </g>
    <g id="text_21">
     <!-- DDPG IQM -->
     <g transform="translate(587.19375 344.044062) scale(0.1 -0.1)">
      <defs>
       <path id="DejaVuSans-44" d="M 1259 4147 
L 1259 519 
L 2022 519 
Q 2988 519 3436 956 
Q 3884 1394 3884 2338 
Q 3884 3275 3436 3711 
Q 2988 4147 2022 4147 
L 1259 4147 
z
M 628 4666 
L 1925 4666 
Q 3281 4666 3915 4102 
Q 4550 3538 4550 2338 
Q 4550 1131 3912 565 
Q 3275 0 1925 0 
L 628 0 
L 628 4666 
z
" transform="scale(0.015625)"/>
       <path id="DejaVuSans-47" d="M 3809 666 
L 3809 1919 
L 2778 1919 
L 2778 2438 
L 4434 2438 
L 4434 434 
Q 4069 175 3628 42 
Q 3188 -91 2688 -91 
Q 1594 -91 976 548 
Q 359 1188 359 2328 
Q 359 3472 976 4111 
Q 1594 4750 2688 4750 
Q 3144 4750 3555 4637 
Q 3966 4525 4313 4306 
L 4313 3634 
Q 3963 3931 3569 4081 
Q 3175 4231 2741 4231 
Q 1884 4231 1454 3753 
Q 1025 3275 1025 2328 
Q 1025 1384 1454 906 
Q 1884 428 2741 428 
Q 3075 428 3337 486 
Q 3600 544 3809 666 
z
" transform="scale(0.015625)"/>
       <path id="DejaVuSans-49" d="M 628 4666 
L 1259 4666 
L 1259 0 
L 628 0 
L 628 4666 
z
" transform="scale(0.015625)"/>
       <path id="DejaVuSans-51" d="M 2522 4238 
Q 1834 4238 1429 3725 
Q 1025 3213 1025 2328 
Q 1025 1447 1429 934 
Q 1834 422 2522 422 
Q 3209 422 3611 934 
Q 4013 1447 4013 2328 
Q 4013 3213 3611 3725 
Q 3209 4238 2522 4238 
z
M 3406 84 
L 4238 -825 
L 3475 -825 
L 2784 -78 
Q 2681 -84 2626 -87 
Q 2572 -91 2522 -91 
Q 1538 -91 948 567 
Q 359 1225 359 2328 
Q 359 3434 948 4092 
Q 1538 4750 2522 4750 
Q 3503 4750 4090 4092 
Q 4678 3434 4678 2328 
Q 4678 1516 4351 937 
Q 4025 359 3406 84 
z
" transform="scale(0.015625)"/>
       <path id="DejaVuSans-4d" d="M 628 4666 
L 1569 4666 
L 2759 1491 
L 3956 4666 
L 4897 4666 
L 4897 0 
L 4281 0 
L 4281 4097 
L 3078 897 
L 2444 897 
L 1241 4097 
L 1241 0 
L 628 0 
L 628 4666 
z
" transform="scale(0.015625)"/>
      </defs>
      <use xlink:href="#DejaVuSans-44"/>
      <use xlink:href="#DejaVuSans-44" transform="translate(77.001953 0)"/>
      <use xlink:href="#DejaVuSans-50" transform="translate(154.003906 0)"/>
      <use xlink:href="#DejaVuSans-47" transform="translate(214.306641 0)"/>
      <use xlink:href="#DejaVuSans-20" transform="translate(291.796875 0)"/>
      <use xlink:href="#DejaVuSans-49" transform="translate(323.583984 0)"/>
      <use xlink:href="#DejaVuSans-51" transform="translate(353.076172 0)"/>
      <use xlink:href="#DejaVuSans-4d" transform="translate(431.787109 0)"/>
     </g>
    </g>
    <g id="line2d_39">
     <path d="M 559.19375 355.222188 
L 569.19375 355.222188 
L 579.19375 355.222188 
" style="fill: none; stroke: #38b000; stroke-width: 1.5; stroke-linecap: square"/>
    </g>
    <g id="text_22">
     <!-- SAC IQM -->
     <g transform="translate(587.19375 358.722188) scale(0.1 -0.1)">
      <defs>
       <path id="DejaVuSans-41" d="M 2188 4044 
L 1331 1722 
L 3047 1722 
L 2188 4044 
z
M 1831 4666 
L 2547 4666 
L 4325 0 
L 3669 0 
L 3244 1197 
L 1141 1197 
L 716 0 
L 50 0 
L 1831 4666 
z
" transform="scale(0.015625)"/>
       <path id="DejaVuSans-43" d="M 4122 4306 
L 4122 3641 
Q 3803 3938 3442 4084 
Q 3081 4231 2675 4231 
Q 1875 4231 1450 3742 
Q 1025 3253 1025 2328 
Q 1025 1406 1450 917 
Q 1875 428 2675 428 
Q 3081 428 3442 575 
Q 3803 722 4122 1019 
L 4122 359 
Q 3791 134 3420 21 
Q 3050 -91 2638 -91 
Q 1578 -91 968 557 
Q 359 1206 359 2328 
Q 359 3453 968 4101 
Q 1578 4750 2638 4750 
Q 3056 4750 3426 4639 
Q 3797 4528 4122 4306 
z
" transform="scale(0.015625)"/>
      </defs>
      <use xlink:href="#DejaVuSans-53"/>
      <use xlink:href="#DejaVuSans-41" transform="translate(65.351562 0)"/>
      <use xlink:href="#DejaVuSans-43" transform="translate(132.009766 0)"/>
      <use xlink:href="#DejaVuSans-20" transform="translate(201.833984 0)"/>
      <use xlink:href="#DejaVuSans-49" transform="translate(233.621094 0)"/>
      <use xlink:href="#DejaVuSans-51" transform="translate(263.113281 0)"/>
      <use xlink:href="#DejaVuSans-4d" transform="translate(341.824219 0)"/>
     </g>
    </g>
    <g id="line2d_40">
     <path d="M 559.19375 369.900312 
L 569.19375 369.900312 
L 579.19375 369.900312 
" style="fill: none; stroke: #023e8a; stroke-width: 1.5; stroke-linecap: square"/>
    </g>
    <g id="text_23">
     <!-- AFU IQM -->
     <g transform="translate(587.19375 373.400312) scale(0.1 -0.1)">
      <defs>
       <path id="DejaVuSans-46" d="M 628 4666 
L 3309 4666 
L 3309 4134 
L 1259 4134 
L 1259 2759 
L 3109 2759 
L 3109 2228 
L 1259 2228 
L 1259 0 
L 628 0 
L 628 4666 
z
" transform="scale(0.015625)"/>
       <path id="DejaVuSans-55" d="M 556 4666 
L 1191 4666 
L 1191 1831 
Q 1191 1081 1462 751 
Q 1734 422 2344 422 
Q 2950 422 3222 751 
Q 3494 1081 3494 1831 
L 3494 4666 
L 4128 4666 
L 4128 1753 
Q 4128 841 3676 375 
Q 3225 -91 2344 -91 
Q 1459 -91 1007 375 
Q 556 841 556 1753 
L 556 4666 
z
" transform="scale(0.015625)"/>
      </defs>
      <use xlink:href="#DejaVuSans-41"/>
      <use xlink:href="#DejaVuSans-46" transform="translate(68.408203 0)"/>
      <use xlink:href="#DejaVuSans-55" transform="translate(125.927734 0)"/>
      <use xlink:href="#DejaVuSans-20" transform="translate(199.121094 0)"/>
      <use xlink:href="#DejaVuSans-49" transform="translate(230.908203 0)"/>
      <use xlink:href="#DejaVuSans-51" transform="translate(260.400391 0)"/>
      <use xlink:href="#DejaVuSans-4d" transform="translate(339.111328 0)"/>
     </g>
    </g>
   </g>
  </g>
 </g>
 <defs>
  <clipPath id="pb6aa5946f7">
   <rect x="90" y="51.84" width="558" height="332.64"/>
  </clipPath>
 </defs>
</svg>
