<?xml version="1.0" encoding="utf-8" standalone="no"?>
<!DOCTYPE svg PUBLIC "-//W3C//DTD SVG 1.1//EN"
  "http://www.w3.org/Graphics/SVG/1.1/DTD/svg11.dtd">
<svg xmlns:xlink="http://www.w3.org/1999/xlink" width="426.264882pt" height="426.4pt" viewBox="0 0 426.264882 426.4" xmlns="http://www.w3.org/2000/svg" version="1.1">
 <metadata>
  <rdf:RDF xmlns:dc="http://purl.org/dc/elements/1.1/" xmlns:cc="http://creativecommons.org/ns#" xmlns:rdf="http://www.w3.org/1999/02/22-rdf-syntax-ns#">
   <cc:Work>
    <dc:type rdf:resource="http://purl.org/dc/dcmitype/StillImage"/>
    <dc:date>1980-01-01T00:00:00+00:00</dc:date>
    <dc:format>image/svg+xml</dc:format>
    <dc:creator>
     <cc:Agent>
      <dc:title>Matplotlib v3.8.0, https://matplotlib.org/</dc:title>
     </cc:Agent>
    </dc:creator>
   </cc:Work>
  </rdf:RDF>
 </metadata>
 <defs>
  <style type="text/css">*{stroke-linejoin: round; stroke-linecap: butt}</style>
 </defs>
 <g id="figure_1">
  <g id="patch_1">
   <path d="M 0 426.4 
L 426.264882 426.4 
L 426.264882 0 
L 0 0 
z
" style="fill: #ffffff"/>
  </g>
  <g id="axes_1">
   <g id="patch_2">
    <path d="M 79.526574 376.318305 
L 417.523879 376.318305 
L 417.523879 7.2 
L 79.526574 7.2 
z
" style="fill: #ffffff"/>
   </g>
   <g id="PolyCollection_1">
    <defs>
     <path id="m3c34e1cd80" d="M 94.890088 -141.240427 
L 94.890088 -104.096608 
L 96.124105 -66.8598 
L 97.358123 -140.676974 
L 98.59214 -147.787703 
L 99.826157 -176.71163 
L 101.060174 -262.311969 
L 102.294191 -290.393702 
L 103.528209 -333.618395 
L 104.762226 -354.832169 
L 105.996243 -356.10386 
L 107.23026 -357.131288 
L 108.464277 -359.666904 
L 109.698294 -358.567516 
L 110.932312 -358.15137 
L 112.166329 -358.9501 
L 113.400346 -360.840977 
L 114.634363 -359.90307 
L 115.86838 -359.083366 
L 117.102397 -359.68711 
L 118.336415 -360.613488 
L 119.570432 -359.918513 
L 120.804449 -360.554823 
L 122.038466 -360.301447 
L 123.272483 -359.841023 
L 124.506501 -379.959504 
L 125.740518 -359.823401 
L 126.974535 -359.781549 
L 128.208552 -360.65987 
L 129.442569 -366.064868 
L 130.676586 -359.927684 
L 131.910604 -359.608717 
L 133.144621 -359.122719 
L 134.378638 -379.544815 
L 135.612655 -360.359431 
L 136.846672 -361.103914 
L 138.08069 -360.233283 
L 139.314707 -359.856043 
L 140.548724 -360.397037 
L 141.782741 -360.302696 
L 143.016758 -360.400344 
L 144.250775 -359.267855 
L 145.484793 -360.292026 
L 146.71881 -359.577955 
L 147.952827 -360.681521 
L 149.186844 -380.125944 
L 150.420861 -359.630109 
L 151.654878 -360.642381 
L 152.888896 -379.674284 
L 154.122913 -361.859264 
L 155.35693 -360.18743 
L 156.590947 -379.609911 
L 157.824964 -380.13579 
L 159.058982 -366.400955 
L 160.292999 -360.069113 
L 161.527016 -360.689691 
L 162.761033 -379.733266 
L 163.99505 -361.311069 
L 165.229067 -360.610477 
L 166.463085 -379.744707 
L 167.697102 -360.214042 
L 168.931119 -359.670679 
L 170.165136 -360.539628 
L 171.399153 -360.073027 
L 172.63317 -379.606745 
L 173.867188 -359.421421 
L 175.101205 -379.877918 
L 176.335222 -358.966623 
L 177.569239 -365.389518 
L 178.803256 -361.648108 
L 180.037274 -365.948358 
L 181.271291 -379.608842 
L 182.505308 -379.369772 
L 183.739325 -361.057455 
L 184.973342 -361.653244 
L 186.207359 -358.88239 
L 187.441377 -359.250111 
L 188.675394 -359.806204 
L 189.909411 -360.687514 
L 191.143428 -365.371493 
L 192.377445 -361.021089 
L 193.611463 -359.832872 
L 194.84548 -378.945039 
L 196.079497 -359.42333 
L 197.313514 -359.537596 
L 198.547531 -360.0349 
L 199.781548 -357.915475 
L 201.015566 -360.243156 
L 202.249583 -360.737996 
L 203.4836 -359.143836 
L 204.717617 -360.433037 
L 205.951634 -379.45264 
L 207.185651 -359.878872 
L 208.419669 -360.365467 
L 209.653686 -359.99865 
L 210.887703 -361.776311 
L 212.12172 -358.963648 
L 213.355737 -359.558357 
L 214.589755 -378.504864 
L 215.823772 -378.845246 
L 217.057789 -360.061399 
L 218.291806 -359.867877 
L 219.525823 -359.010477 
L 220.75984 -360.620337 
L 221.993858 -360.308455 
L 223.227875 -360.065148 
L 224.461892 -359.743942 
L 225.695909 -360.215234 
L 226.929926 -360.699285 
L 228.163944 -360.043618 
L 229.397961 -379.466394 
L 230.631978 -365.802961 
L 231.865995 -359.046228 
L 233.100012 -360.461965 
L 234.334029 -379.27641 
L 235.568047 -365.354061 
L 236.802064 -379.220431 
L 238.036081 -360.783935 
L 239.270098 -360.175057 
L 240.504115 -359.107047 
L 241.738132 -361.674667 
L 242.97215 -360.029052 
L 244.206167 -359.479245 
L 245.440184 -360.190732 
L 246.674201 -359.106171 
L 247.908218 -360.606345 
L 249.142236 -359.648709 
L 250.376253 -359.84816 
L 251.61027 -360.810781 
L 252.844287 -360.274463 
L 254.078304 -358.79582 
L 255.312321 -361.357411 
L 256.546339 -379.443543 
L 257.780356 -361.3469 
L 259.014373 -360.811726 
L 260.24839 -365.68714 
L 261.482407 -361.305659 
L 262.716424 -365.895257 
L 263.950442 -360.688862 
L 265.184459 -366.12949 
L 266.418476 -360.285373 
L 267.652493 -360.320787 
L 268.88651 -379.296657 
L 270.120528 -359.787155 
L 271.354545 -366.006782 
L 272.588562 -365.797074 
L 273.822579 -361.355256 
L 275.056596 -365.628186 
L 276.290613 -361.083239 
L 277.524631 -360.046975 
L 278.758648 -359.773362 
L 279.992665 -379.21217 
L 281.226682 -379.713814 
L 282.460699 -379.381794 
L 283.694717 -359.046283 
L 284.928734 -359.902961 
L 286.162751 -379.316699 
L 287.396768 -359.034007 
L 288.630785 -379.236946 
L 289.864802 -359.568153 
L 291.09882 -361.001836 
L 292.332837 -361.53601 
L 293.566854 -359.622998 
L 294.800871 -379.65851 
L 296.034888 -379.090143 
L 297.268905 -379.162168 
L 298.502923 -360.672287 
L 299.73694 -379.088364 
L 300.970957 -360.101539 
L 302.204974 -360.785198 
L 303.438991 -361.210665 
L 304.673009 -360.83444 
L 305.907026 -360.172969 
L 307.141043 -360.557604 
L 308.37506 -359.338375 
L 309.609077 -359.477937 
L 310.843094 -360.379155 
L 312.077112 -379.19836 
L 313.311129 -361.445328 
L 314.545146 -360.341569 
L 315.779163 -366.029369 
L 317.01318 -360.541594 
L 318.247197 -360.608178 
L 319.481215 -379.152146 
L 320.715232 -360.657597 
L 321.949249 -361.283413 
L 323.183266 -379.286105 
L 324.417283 -360.333302 
L 325.651301 -361.224334 
L 326.885318 -366.292557 
L 328.119335 -366.208034 
L 329.353352 -359.792133 
L 330.587369 -365.817404 
L 331.821386 -359.338178 
L 333.055404 -361.486895 
L 334.289421 -361.187265 
L 335.523438 -360.65765 
L 336.757455 -360.153755 
L 337.991472 -360.488608 
L 339.22549 -379.563038 
L 340.459507 -361.430629 
L 341.693524 -360.972043 
L 342.927541 -378.165388 
L 344.161558 -378.543545 
L 345.395575 -365.474675 
L 346.629593 -358.546988 
L 347.86361 -360.691382 
L 349.097627 -360.77403 
L 350.331644 -378.185378 
L 351.565661 -360.03619 
L 352.799678 -360.510034 
L 354.033696 -360.808665 
L 355.267713 -359.689371 
L 356.50173 -378.463433 
L 357.735747 -360.164946 
L 358.969764 -360.513443 
L 360.203782 -360.52253 
L 361.437799 -360.372603 
L 362.671816 -379.719136 
L 363.905833 -359.781985 
L 365.13985 -365.670908 
L 366.373867 -359.869303 
L 367.607885 -360.380415 
L 368.841902 -360.882687 
L 370.075919 -365.97058 
L 371.309936 -360.978285 
L 372.543953 -379.550891 
L 373.777971 -361.262942 
L 375.011988 -360.247853 
L 376.246005 -379.507514 
L 377.480022 -359.119973 
L 378.714039 -360.725486 
L 379.948056 -361.229423 
L 381.182074 -360.475487 
L 382.416091 -361.352286 
L 383.650108 -360.564979 
L 384.884125 -360.663379 
L 386.118142 -359.685738 
L 387.352159 -366.430569 
L 388.586177 -359.363968 
L 389.820194 -379.537343 
L 391.054211 -360.049269 
L 392.288228 -361.351319 
L 393.522245 -359.179459 
L 394.756263 -359.906773 
L 395.99028 -361.182334 
L 397.224297 -360.81658 
L 398.458314 -379.51543 
L 399.692331 -360.474779 
L 400.926348 -360.393004 
L 402.160366 -379.365168 
L 402.160366 -381.379248 
L 402.160366 -381.379248 
L 400.926348 -381.180829 
L 399.692331 -381.052282 
L 398.458314 -381.621981 
L 397.224297 -380.917722 
L 395.99028 -381.195954 
L 394.756263 -381.010444 
L 393.522245 -380.624585 
L 392.288228 -381.328256 
L 391.054211 -381.369687 
L 389.820194 -381.39962 
L 388.586177 -380.667598 
L 387.352159 -381.945421 
L 386.118142 -380.870348 
L 384.884125 -382.200745 
L 383.650108 -381.350044 
L 382.416091 -382.042213 
L 381.182074 -381.433183 
L 379.948056 -381.866899 
L 378.714039 -381.551764 
L 377.480022 -381.163792 
L 376.246005 -381.491569 
L 375.011988 -381.435321 
L 373.777971 -381.41912 
L 372.543953 -381.494441 
L 371.309936 -381.634086 
L 370.075919 -381.354916 
L 368.841902 -381.626032 
L 367.607885 -381.178398 
L 366.373867 -381.826344 
L 365.13985 -381.370643 
L 363.905833 -381.256108 
L 362.671816 -381.524938 
L 361.437799 -381.153215 
L 360.203782 -382.037187 
L 358.969764 -380.964214 
L 357.735747 -381.283116 
L 356.50173 -380.934902 
L 355.267713 -380.942625 
L 354.033696 -381.678251 
L 352.799678 -380.887343 
L 351.565661 -381.078114 
L 350.331644 -381.104531 
L 349.097627 -382.066444 
L 347.86361 -381.469721 
L 346.629593 -380.327506 
L 345.395575 -381.455412 
L 344.161558 -381.256651 
L 342.927541 -380.973305 
L 341.693524 -380.704535 
L 340.459507 -381.386232 
L 339.22549 -381.583134 
L 337.991472 -381.086733 
L 336.757455 -381.256911 
L 335.523438 -381.934992 
L 334.289421 -381.535713 
L 333.055404 -381.566791 
L 331.821386 -381.348545 
L 330.587369 -381.353242 
L 329.353352 -380.934153 
L 328.119335 -381.630136 
L 326.885318 -381.430597 
L 325.651301 -381.439067 
L 324.417283 -381.430532 
L 323.183266 -381.435335 
L 321.949249 -381.743914 
L 320.715232 -381.008688 
L 319.481215 -381.479399 
L 318.247197 -381.056682 
L 317.01318 -381.207431 
L 315.779163 -381.143948 
L 314.545146 -380.68191 
L 313.311129 -381.44465 
L 312.077112 -381.811446 
L 310.843094 -381.166017 
L 309.609077 -381.414607 
L 308.37506 -381.263098 
L 307.141043 -381.405291 
L 305.907026 -380.979782 
L 304.673009 -380.984815 
L 303.438991 -380.880197 
L 302.204974 -381.349105 
L 300.970957 -381.157863 
L 299.73694 -381.703461 
L 298.502923 -381.629038 
L 297.268905 -381.556742 
L 296.034888 -380.939424 
L 294.800871 -381.112462 
L 293.566854 -381.115452 
L 292.332837 -381.429439 
L 291.09882 -381.288954 
L 289.864802 -381.248287 
L 288.630785 -381.222597 
L 287.396768 -381.065358 
L 286.162751 -381.148035 
L 284.928734 -380.967384 
L 283.694717 -380.635145 
L 282.460699 -381.354379 
L 281.226682 -381.683974 
L 279.992665 -381.337136 
L 278.758648 -381.072397 
L 277.524631 -382.004192 
L 276.290613 -381.426364 
L 275.056596 -381.082321 
L 273.822579 -381.39437 
L 272.588562 -381.049389 
L 271.354545 -381.346989 
L 270.120528 -380.845524 
L 268.88651 -381.223245 
L 267.652493 -381.179325 
L 266.418476 -381.185556 
L 265.184459 -381.57901 
L 263.950442 -381.917314 
L 262.716424 -381.234667 
L 261.482407 -381.3412 
L 260.24839 -381.410743 
L 259.014373 -381.176608 
L 257.780356 -381.291359 
L 256.546339 -381.334212 
L 255.312321 -381.289266 
L 254.078304 -381.124845 
L 252.844287 -381.229449 
L 251.61027 -381.352829 
L 250.376253 -381.166768 
L 249.142236 -381.142471 
L 247.908218 -380.825446 
L 246.674201 -380.781084 
L 245.440184 -381.363714 
L 244.206167 -381.395799 
L 242.97215 -380.682788 
L 241.738132 -381.811648 
L 240.504115 -381.249474 
L 239.270098 -381.616013 
L 238.036081 -381.211898 
L 236.802064 -381.03569 
L 235.568047 -382.187346 
L 234.334029 -381.76301 
L 233.100012 -380.923855 
L 231.865995 -381.391973 
L 230.631978 -381.430033 
L 229.397961 -381.542776 
L 228.163944 -381.496901 
L 226.929926 -381.499653 
L 225.695909 -381.171725 
L 224.461892 -380.869748 
L 223.227875 -380.884173 
L 221.993858 -380.839734 
L 220.75984 -381.342818 
L 219.525823 -380.787503 
L 218.291806 -380.659057 
L 217.057789 -381.011933 
L 215.823772 -381.244638 
L 214.589755 -381.742301 
L 213.355737 -381.003337 
L 212.12172 -380.717168 
L 210.887703 -380.664589 
L 209.653686 -381.264902 
L 208.419669 -381.213282 
L 207.185651 -381.45257 
L 205.951634 -381.102422 
L 204.717617 -380.86773 
L 203.4836 -381.198807 
L 202.249583 -380.728631 
L 201.015566 -381.412986 
L 199.781548 -380.72937 
L 198.547531 -381.250857 
L 197.313514 -381.291141 
L 196.079497 -381.127421 
L 194.84548 -381.307974 
L 193.611463 -381.681581 
L 192.377445 -381.11437 
L 191.143428 -381.627172 
L 189.909411 -381.005663 
L 188.675394 -380.829049 
L 187.441377 -381.361272 
L 186.207359 -380.810525 
L 184.973342 -381.462529 
L 183.739325 -381.489274 
L 182.505308 -381.918084 
L 181.271291 -381.365553 
L 180.037274 -381.529687 
L 178.803256 -381.23981 
L 177.569239 -381.352805 
L 176.335222 -381.245447 
L 175.101205 -381.747973 
L 173.867188 -381.48593 
L 172.63317 -381.314531 
L 171.399153 -381.853045 
L 170.165136 -381.218474 
L 168.931119 -381.642668 
L 167.697102 -381.444291 
L 166.463085 -381.611785 
L 165.229067 -381.471157 
L 163.99505 -381.84109 
L 162.761033 -381.599228 
L 161.527016 -381.794785 
L 160.292999 -381.718769 
L 159.058982 -381.62232 
L 157.824964 -382.032656 
L 156.590947 -381.714415 
L 155.35693 -381.744174 
L 154.122913 -381.543158 
L 152.888896 -381.47749 
L 151.654878 -381.692861 
L 150.420861 -381.346173 
L 149.186844 -381.967537 
L 147.952827 -381.813582 
L 146.71881 -381.195932 
L 145.484793 -381.383927 
L 144.250775 -381.600713 
L 143.016758 -381.711206 
L 141.782741 -381.241667 
L 140.548724 -381.576453 
L 139.314707 -381.226599 
L 138.08069 -381.578994 
L 136.846672 -381.671208 
L 135.612655 -381.77553 
L 134.378638 -381.698754 
L 133.144621 -381.18702 
L 131.910604 -381.563964 
L 130.676586 -381.294918 
L 129.442569 -381.593295 
L 128.208552 -381.573999 
L 126.974535 -381.052357 
L 125.740518 -381.293041 
L 124.506501 -381.621798 
L 123.272483 -381.318538 
L 122.038466 -381.117259 
L 120.804449 -381.488572 
L 119.570432 -381.679793 
L 118.336415 -381.762821 
L 117.102397 -381.829119 
L 115.86838 -381.066885 
L 114.634363 -381.423624 
L 113.400346 -381.353937 
L 112.166329 -381.295913 
L 110.932312 -380.934852 
L 109.698294 -380.893417 
L 108.464277 -381.002843 
L 107.23026 -380.65182 
L 105.996243 -380.341865 
L 104.762226 -380.507428 
L 103.528209 -380.219296 
L 102.294191 -379.579354 
L 101.060174 -377.553099 
L 99.826157 -332.536497 
L 98.59214 -353.49063 
L 97.358123 -258.85075 
L 96.124105 -101.821659 
L 94.890088 -141.240427 
z
" style="stroke: #d66b6a; stroke-opacity: 0.2"/>
    </defs>
    <g clip-path="url(#p7497fd32ae)">
     <use xlink:href="#m3c34e1cd80" x="0" y="426.4" style="fill: #d66b6a; fill-opacity: 0.2; stroke: #d66b6a; stroke-opacity: 0.2"/>
    </g>
   </g>
   <g id="PolyCollection_2">
    <defs>
     <path id="mfaa942dc72" d="M 94.890088 -150.954893 
L 94.890088 -81.501717 
L 96.124105 -91.182919 
L 97.358123 -121.288948 
L 98.59214 -121.642104 
L 99.826157 -107.760898 
L 101.060174 -112.860775 
L 102.294191 -95.251831 
L 103.528209 -105.003251 
L 104.762226 -108.377047 
L 105.996243 -110.190977 
L 107.23026 -112.720799 
L 108.464277 -99.741485 
L 109.698294 -107.293307 
L 110.932312 -103.146929 
L 112.166329 -101.865235 
L 113.400346 -101.628836 
L 114.634363 -108.333014 
L 115.86838 -98.202334 
L 117.102397 -93.936473 
L 118.336415 -113.092323 
L 119.570432 -115.245288 
L 120.804449 -110.114977 
L 122.038466 -109.389909 
L 123.272483 -113.430775 
L 124.506501 -111.63496 
L 125.740518 -118.254952 
L 126.974535 -115.968809 
L 128.208552 -107.18295 
L 129.442569 -108.295888 
L 130.676586 -113.715514 
L 131.910604 -114.782874 
L 133.144621 -112.7962 
L 134.378638 -104.898011 
L 135.612655 -97.827316 
L 136.846672 -116.284844 
L 138.08069 -116.21773 
L 139.314707 -106.900583 
L 140.548724 -106.625852 
L 141.782741 -114.262713 
L 143.016758 -94.169014 
L 144.250775 -107.012129 
L 145.484793 -118.067824 
L 146.71881 -101.004066 
L 147.952827 -118.786708 
L 149.186844 -103.015227 
L 150.420861 -99.15509 
L 151.654878 -119.98301 
L 152.888896 -115.658668 
L 154.122913 -120.514775 
L 155.35693 -101.554778 
L 156.590947 -117.998771 
L 157.824964 -119.436071 
L 159.058982 -119.99928 
L 160.292999 -113.475302 
L 161.527016 -104.5747 
L 162.761033 -91.384109 
L 163.99505 -97.308408 
L 165.229067 -118.41508 
L 166.463085 -112.775718 
L 167.697102 -109.727773 
L 168.931119 -119.141932 
L 170.165136 -120.304603 
L 171.399153 -118.891502 
L 172.63317 -121.253541 
L 173.867188 -122.175205 
L 175.101205 -119.625329 
L 176.335222 -95.577254 
L 177.569239 -123.506974 
L 178.803256 -112.780443 
L 180.037274 -120.564029 
L 181.271291 -118.391673 
L 182.505308 -123.591881 
L 183.739325 -120.437246 
L 184.973342 -120.517214 
L 186.207359 -123.512423 
L 187.441377 -118.047642 
L 188.675394 -116.746137 
L 189.909411 -118.426181 
L 191.143428 -116.693656 
L 192.377445 -117.346993 
L 193.611463 -120.416843 
L 194.84548 -120.354842 
L 196.079497 -121.226829 
L 197.313514 -119.473956 
L 198.547531 -116.743735 
L 199.781548 -119.837747 
L 201.015566 -122.150693 
L 202.249583 -118.513869 
L 203.4836 -120.653046 
L 204.717617 -115.880703 
L 205.951634 -112.384825 
L 207.185651 -109.916332 
L 208.419669 -125.123564 
L 209.653686 -120.201107 
L 210.887703 -115.614303 
L 212.12172 -123.020719 
L 213.355737 -120.504769 
L 214.589755 -115.865613 
L 215.823772 -115.386016 
L 217.057789 -118.437142 
L 218.291806 -118.003214 
L 219.525823 -120.967136 
L 220.75984 -121.054912 
L 221.993858 -114.307754 
L 223.227875 -125.026562 
L 224.461892 -123.16931 
L 225.695909 -119.213594 
L 226.929926 -120.502913 
L 228.163944 -123.159698 
L 229.397961 -123.702421 
L 230.631978 -121.732969 
L 231.865995 -104.264905 
L 233.100012 -122.0241 
L 234.334029 -120.412 
L 235.568047 -125.270631 
L 236.802064 -123.194393 
L 238.036081 -117.263886 
L 239.270098 -121.791321 
L 240.504115 -189.180146 
L 241.738132 -125.789266 
L 242.97215 -116.037685 
L 244.206167 -125.715516 
L 245.440184 -118.549543 
L 246.674201 -116.54446 
L 247.908218 -124.659798 
L 249.142236 -117.480138 
L 250.376253 -122.993419 
L 251.61027 -123.495555 
L 252.844287 -125.67059 
L 254.078304 -122.49661 
L 255.312321 -120.573916 
L 256.546339 -111.100943 
L 257.780356 -122.603872 
L 259.014373 -108.236742 
L 260.24839 -112.909344 
L 261.482407 -356.015292 
L 262.716424 -122.449477 
L 263.950442 -119.478821 
L 265.184459 -114.030825 
L 266.418476 -120.646013 
L 267.652493 -125.589645 
L 268.88651 -118.06711 
L 270.120528 -121.361684 
L 271.354545 -123.269954 
L 272.588562 -122.704214 
L 273.822579 -118.38594 
L 275.056596 -119.160923 
L 276.290613 -122.828908 
L 277.524631 -126.272264 
L 278.758648 -118.174972 
L 279.992665 -122.963916 
L 281.226682 -125.387816 
L 282.460699 -123.494643 
L 283.694717 -118.145888 
L 284.928734 -362.189145 
L 286.162751 -376.98768 
L 287.396768 -122.970555 
L 288.630785 -117.902564 
L 289.864802 -120.300764 
L 291.09882 -125.176936 
L 292.332837 -120.107013 
L 293.566854 -114.390963 
L 294.800871 -121.965457 
L 296.034888 -122.453948 
L 297.268905 -122.354517 
L 298.502923 -124.271846 
L 299.73694 -122.004224 
L 300.970957 -123.889921 
L 302.204974 -120.117671 
L 303.438991 -113.550891 
L 304.673009 -123.299933 
L 305.907026 -121.350194 
L 307.141043 -188.945849 
L 308.37506 -124.039266 
L 309.609077 -123.881147 
L 310.843094 -115.711185 
L 312.077112 -122.850856 
L 313.311129 -126.269345 
L 314.545146 -122.6215 
L 315.779163 -97.528917 
L 317.01318 -122.896485 
L 318.247197 -107.589979 
L 319.481215 -123.278542 
L 320.715232 -122.660586 
L 321.949249 -121.379343 
L 323.183266 -118.341086 
L 324.417283 -123.749003 
L 325.651301 -116.382563 
L 326.885318 -125.806844 
L 328.119335 -120.510636 
L 329.353352 -122.126048 
L 330.587369 -123.82661 
L 331.821386 -189.977351 
L 333.055404 -122.697588 
L 334.289421 -112.68546 
L 335.523438 -124.110836 
L 336.757455 -123.042546 
L 337.991472 -124.227422 
L 339.22549 -125.112212 
L 340.459507 -121.080543 
L 341.693524 -119.699786 
L 342.927541 -124.710151 
L 344.161558 -125.332537 
L 345.395575 -122.76448 
L 346.629593 -125.126931 
L 347.86361 -118.81217 
L 349.097627 -123.706178 
L 350.331644 -125.405974 
L 351.565661 -189.058023 
L 352.799678 -124.467245 
L 354.033696 -126.499832 
L 355.267713 -123.660127 
L 356.50173 -378.990071 
L 357.735747 -123.445659 
L 358.969764 -118.132329 
L 360.203782 -112.534857 
L 361.437799 -123.064548 
L 362.671816 -112.316966 
L 363.905833 -124.095205 
L 365.13985 -188.506019 
L 366.373867 -114.303151 
L 367.607885 -124.256235 
L 368.841902 -112.362141 
L 370.075919 -124.885341 
L 371.309936 -121.699285 
L 372.543953 -189.452245 
L 373.777971 -126.444775 
L 375.011988 -123.705394 
L 376.246005 -123.122803 
L 377.480022 -123.6928 
L 378.714039 -122.683403 
L 379.948056 -122.895635 
L 381.182074 -123.959968 
L 382.416091 -188.21577 
L 383.650108 -125.264404 
L 384.884125 -124.146552 
L 386.118142 -126.429703 
L 387.352159 -125.372503 
L 388.586177 -125.395089 
L 389.820194 -123.355209 
L 391.054211 -98.54938 
L 392.288228 -125.706129 
L 393.522245 -124.888209 
L 394.756263 -124.762214 
L 395.99028 -124.657081 
L 397.224297 -126.27032 
L 398.458314 -124.898426 
L 399.692331 -379.022211 
L 400.926348 -125.191464 
L 402.160366 -120.246533 
L 402.160366 -380.861571 
L 402.160366 -380.861571 
L 400.926348 -380.895142 
L 399.692331 -381.521182 
L 398.458314 -396.913462 
L 397.224297 -380.874971 
L 395.99028 -381.879409 
L 394.756263 -380.495481 
L 393.522245 -381.078611 
L 392.288228 -381.721654 
L 391.054211 -380.388507 
L 389.820194 -381.410297 
L 388.586177 -380.918895 
L 387.352159 -381.272916 
L 386.118142 -381.010805 
L 384.884125 -380.968247 
L 383.650108 -380.68844 
L 382.416091 -380.782975 
L 381.182074 -381.508598 
L 379.948056 -380.245479 
L 378.714039 -381.485861 
L 377.480022 -381.092949 
L 376.246005 -381.476836 
L 375.011988 -380.785809 
L 373.777971 -381.942815 
L 372.543953 -381.0624 
L 371.309936 -380.751067 
L 370.075919 -381.550828 
L 368.841902 -380.697683 
L 367.607885 -380.746341 
L 366.373867 -380.496674 
L 365.13985 -381.27867 
L 363.905833 -381.146684 
L 362.671816 -381.224653 
L 361.437799 -380.58746 
L 360.203782 -381.212584 
L 358.969764 -381.071689 
L 357.735747 -380.662032 
L 356.50173 -381.320869 
L 355.267713 -381.301053 
L 354.033696 -381.167339 
L 352.799678 -381.165439 
L 351.565661 -381.047313 
L 350.331644 -380.580794 
L 349.097627 -380.955383 
L 347.86361 -380.886922 
L 346.629593 -380.476461 
L 345.395575 -380.408685 
L 344.161558 -381.468103 
L 342.927541 -380.917945 
L 341.693524 -380.854349 
L 340.459507 -381.497728 
L 339.22549 -381.449888 
L 337.991472 -380.737702 
L 336.757455 -381.198884 
L 335.523438 -380.80351 
L 334.289421 -380.426455 
L 333.055404 -380.994719 
L 331.821386 -381.239101 
L 330.587369 -381.25715 
L 329.353352 -381.353522 
L 328.119335 -380.730435 
L 326.885318 -380.688596 
L 325.651301 -380.77373 
L 324.417283 -381.587054 
L 323.183266 -380.243941 
L 321.949249 -381.131633 
L 320.715232 -381.769698 
L 319.481215 -381.035211 
L 318.247197 -380.866785 
L 317.01318 -381.213706 
L 315.779163 -380.69742 
L 314.545146 -381.006365 
L 313.311129 -380.805692 
L 312.077112 -381.270674 
L 310.843094 -380.942502 
L 309.609077 -381.112449 
L 308.37506 -380.989351 
L 307.141043 -380.826424 
L 305.907026 -381.392313 
L 304.673009 -380.905418 
L 303.438991 -380.905675 
L 302.204974 -380.927635 
L 300.970957 -380.594471 
L 299.73694 -381.506522 
L 298.502923 -380.449158 
L 297.268905 -380.974281 
L 296.034888 -380.931477 
L 294.800871 -395.873569 
L 293.566854 -380.922517 
L 292.332837 -380.590199 
L 291.09882 -381.519465 
L 289.864802 -381.081843 
L 288.630785 -381.119572 
L 287.396768 -380.067607 
L 286.162751 -381.397371 
L 284.928734 -380.823589 
L 283.694717 -380.148195 
L 282.460699 -381.222939 
L 281.226682 -380.357094 
L 279.992665 -381.004198 
L 278.758648 -380.617572 
L 277.524631 -381.153896 
L 276.290613 -380.86722 
L 275.056596 -380.91994 
L 273.822579 -380.986148 
L 272.588562 -380.839627 
L 271.354545 -381.063081 
L 270.120528 -380.902562 
L 268.88651 -381.001643 
L 267.652493 -380.708366 
L 266.418476 -380.068417 
L 265.184459 -380.297752 
L 263.950442 -380.590506 
L 262.716424 -380.631316 
L 261.482407 -380.902156 
L 260.24839 -380.770563 
L 259.014373 -379.886091 
L 257.780356 -381.003381 
L 256.546339 -380.028138 
L 255.312321 -380.176729 
L 254.078304 -380.641203 
L 252.844287 -381.262005 
L 251.61027 -380.573356 
L 250.376253 -381.160304 
L 249.142236 -380.07946 
L 247.908218 -380.815786 
L 246.674201 -379.752925 
L 245.440184 -380.466468 
L 244.206167 -380.173823 
L 242.97215 -380.063815 
L 241.738132 -380.853205 
L 240.504115 -380.40917 
L 239.270098 -380.449836 
L 238.036081 -379.868286 
L 236.802064 -380.74439 
L 235.568047 -380.78616 
L 234.334029 -381.346832 
L 233.100012 -380.653933 
L 231.865995 -380.152401 
L 230.631978 -380.807886 
L 229.397961 -381.41354 
L 228.163944 -381.468595 
L 226.929926 -380.971691 
L 225.695909 -380.891879 
L 224.461892 -381.175908 
L 223.227875 -381.11896 
L 221.993858 -379.691873 
L 220.75984 -380.184809 
L 219.525823 -380.108555 
L 218.291806 -380.99219 
L 217.057789 -379.763842 
L 215.823772 -381.059312 
L 214.589755 -380.262131 
L 213.355737 -380.380452 
L 212.12172 -380.418349 
L 210.887703 -381.027614 
L 209.653686 -380.997328 
L 208.419669 -402.421895 
L 207.185651 -381.422257 
L 205.951634 -380.418505 
L 204.717617 -380.565154 
L 203.4836 -380.675426 
L 202.249583 -381.099802 
L 201.015566 -381.42629 
L 199.781548 -380.802265 
L 198.547531 -381.285551 
L 197.313514 -380.580627 
L 196.079497 -381.037506 
L 194.84548 -380.209258 
L 193.611463 -381.145778 
L 192.377445 -380.005288 
L 191.143428 -380.270216 
L 189.909411 -380.839942 
L 188.675394 -380.381581 
L 187.441377 -380.233951 
L 186.207359 -380.842142 
L 184.973342 -381.062525 
L 183.739325 -380.642779 
L 182.505308 -380.950574 
L 181.271291 -380.78328 
L 180.037274 -380.941827 
L 178.803256 -380.508677 
L 177.569239 -380.360647 
L 176.335222 -380.107769 
L 175.101205 -380.286306 
L 173.867188 -381.252637 
L 172.63317 -380.518215 
L 171.399153 -380.812133 
L 170.165136 -380.641494 
L 168.931119 -379.885063 
L 167.697102 -380.455192 
L 166.463085 -381.133202 
L 165.229067 -381.028997 
L 163.99505 -380.217165 
L 162.761033 -380.016606 
L 161.527016 -380.517651 
L 160.292999 -381.463013 
L 159.058982 -381.653714 
L 157.824964 -380.755915 
L 156.590947 -380.533326 
L 155.35693 -380.470511 
L 154.122913 -381.130939 
L 152.888896 -380.140723 
L 151.654878 -381.213042 
L 150.420861 -380.854871 
L 149.186844 -379.671335 
L 147.952827 -380.859512 
L 146.71881 -380.605563 
L 145.484793 -380.286158 
L 144.250775 -380.37307 
L 143.016758 -380.839042 
L 141.782741 -380.411385 
L 140.548724 -380.034489 
L 139.314707 -380.530405 
L 138.08069 -379.815168 
L 136.846672 -379.906739 
L 135.612655 -380.06675 
L 134.378638 -380.333188 
L 133.144621 -379.988048 
L 131.910604 -380.250257 
L 130.676586 -380.653798 
L 129.442569 -380.520116 
L 128.208552 -380.102475 
L 126.974535 -322.396831 
L 125.740518 -380.543564 
L 124.506501 -379.630619 
L 123.272483 -380.210489 
L 122.038466 -380.256606 
L 120.804449 -379.977027 
L 119.570432 -347.809292 
L 118.336415 -229.445999 
L 117.102397 -232.697841 
L 115.86838 -220.109352 
L 114.634363 -189.435275 
L 113.400346 -333.328938 
L 112.166329 -186.194016 
L 110.932312 -336.897069 
L 109.698294 -208.843126 
L 108.464277 -202.30886 
L 107.23026 -130.993948 
L 105.996243 -130.611308 
L 104.762226 -129.133767 
L 103.528209 -130.593389 
L 102.294191 -126.946263 
L 101.060174 -128.245791 
L 99.826157 -131.288553 
L 98.59214 -134.250459 
L 97.358123 -170.816939 
L 96.124105 -117.717362 
L 94.890088 -150.954893 
z
" style="stroke: #5591e1; stroke-opacity: 0.2"/>
    </defs>
    <g clip-path="url(#p7497fd32ae)">
     <use xlink:href="#mfaa942dc72" x="0" y="426.4" style="fill: #5591e1; fill-opacity: 0.2; stroke: #5591e1; stroke-opacity: 0.2"/>
    </g>
   </g>
   <g id="PolyCollection_3">
    <defs>
     <path id="mdfaf9f34f7" d="M 94.890088 -167.772437 
L 94.890088 -110.462395 
L 96.124105 -81.630353 
L 97.358123 -122.880711 
L 98.59214 -179.06684 
L 99.826157 -177.581794 
L 101.060174 -184.193687 
L 102.294191 -186.999046 
L 103.528209 -197.578364 
L 104.762226 -211.273731 
L 105.996243 -220.353382 
L 107.23026 -214.582724 
L 108.464277 -203.440619 
L 109.698294 -221.547258 
L 110.932312 -191.890913 
L 112.166329 -214.141874 
L 113.400346 -213.38611 
L 114.634363 -211.978111 
L 115.86838 -210.213725 
L 117.102397 -208.693167 
L 118.336415 -214.037361 
L 119.570432 -210.731099 
L 120.804449 -211.466926 
L 122.038466 -218.452652 
L 123.272483 -213.259126 
L 124.506501 -222.186107 
L 125.740518 -227.44307 
L 126.974535 -225.505329 
L 128.208552 -237.863578 
L 129.442569 -219.023532 
L 130.676586 -233.043397 
L 131.910604 -233.740098 
L 133.144621 -230.787957 
L 134.378638 -232.685735 
L 135.612655 -243.654657 
L 136.846672 -236.021437 
L 138.08069 -230.937547 
L 139.314707 -254.613181 
L 140.548724 -250.41136 
L 141.782741 -261.080329 
L 143.016758 -261.118592 
L 144.250775 -260.929701 
L 145.484793 -261.045824 
L 146.71881 -262.251688 
L 147.952827 -281.442951 
L 149.186844 -262.186742 
L 150.420861 -257.964432 
L 151.654878 -261.67268 
L 152.888896 -262.453894 
L 154.122913 -262.617823 
L 155.35693 -260.722396 
L 156.590947 -262.12513 
L 157.824964 -257.241822 
L 159.058982 -252.185047 
L 160.292999 -262.163282 
L 161.527016 -261.540382 
L 162.761033 -263.503533 
L 163.99505 -265.166637 
L 165.229067 -266.41387 
L 166.463085 -263.612979 
L 167.697102 -284.550245 
L 168.931119 -283.244986 
L 170.165136 -276.09089 
L 171.399153 -292.596422 
L 172.63317 -264.179411 
L 173.867188 -272.222413 
L 175.101205 -282.670944 
L 176.335222 -266.787216 
L 177.569239 -305.634493 
L 178.803256 -272.35373 
L 180.037274 -307.590674 
L 181.271291 -308.39447 
L 182.505308 -339.374513 
L 183.739325 -335.660126 
L 184.973342 -338.983877 
L 186.207359 -338.576364 
L 187.441377 -350.641841 
L 188.675394 -341.149509 
L 189.909411 -339.318905 
L 191.143428 -351.849272 
L 192.377445 -347.317907 
L 193.611463 -357.430519 
L 194.84548 -340.353579 
L 196.079497 -345.785275 
L 197.313514 -340.982307 
L 198.547531 -344.995556 
L 199.781548 -343.732724 
L 201.015566 -358.091001 
L 202.249583 -358.582093 
L 203.4836 -355.073012 
L 204.717617 -356.178096 
L 205.951634 -344.614792 
L 207.185651 -341.516469 
L 208.419669 -341.768719 
L 209.653686 -347.888224 
L 210.887703 -344.705456 
L 212.12172 -358.048843 
L 213.355737 -359.358875 
L 214.589755 -359.495377 
L 215.823772 -365.632114 
L 217.057789 -356.556408 
L 218.291806 -354.441045 
L 219.525823 -358.726982 
L 220.75984 -362.051054 
L 221.993858 -361.762527 
L 223.227875 -376.176995 
L 224.461892 -358.697559 
L 225.695909 -359.23091 
L 226.929926 -361.682044 
L 228.163944 -358.15731 
L 229.397961 -359.041783 
L 230.631978 -359.193091 
L 231.865995 -359.764484 
L 233.100012 -360.063965 
L 234.334029 -358.154383 
L 235.568047 -360.414439 
L 236.802064 -360.919084 
L 238.036081 -375.978704 
L 239.270098 -356.624271 
L 240.504115 -359.429766 
L 241.738132 -355.856975 
L 242.97215 -357.540055 
L 244.206167 -357.85073 
L 245.440184 -357.189385 
L 246.674201 -360.775333 
L 247.908218 -358.955134 
L 249.142236 -359.772039 
L 250.376253 -359.415045 
L 251.61027 -365.4497 
L 252.844287 -357.884467 
L 254.078304 -359.840913 
L 255.312321 -359.201393 
L 256.546339 -358.412556 
L 257.780356 -376.960128 
L 259.014373 -359.294847 
L 260.24839 -357.927641 
L 261.482407 -360.330771 
L 262.716424 -360.43189 
L 263.950442 -360.600246 
L 265.184459 -359.943493 
L 266.418476 -358.61705 
L 267.652493 -359.518738 
L 268.88651 -358.900711 
L 270.120528 -360.590785 
L 271.354545 -378.369269 
L 272.588562 -361.722317 
L 273.822579 -359.955281 
L 275.056596 -378.180929 
L 276.290613 -360.745907 
L 277.524631 -359.835307 
L 278.758648 -361.761104 
L 279.992665 -366.269221 
L 281.226682 -360.321066 
L 282.460699 -358.932421 
L 283.694717 -360.071757 
L 284.928734 -360.304873 
L 286.162751 -377.855092 
L 287.396768 -359.012476 
L 288.630785 -358.339121 
L 289.864802 -364.540825 
L 291.09882 -378.980879 
L 292.332837 -359.017824 
L 293.566854 -365.82512 
L 294.800871 -361.206479 
L 296.034888 -359.899359 
L 297.268905 -378.729949 
L 298.502923 -360.313205 
L 299.73694 -360.980381 
L 300.970957 -365.462017 
L 302.204974 -361.17958 
L 303.438991 -379.395529 
L 304.673009 -360.569759 
L 305.907026 -378.112708 
L 307.141043 -378.533982 
L 308.37506 -359.970567 
L 309.609077 -378.732463 
L 310.843094 -359.5885 
L 312.077112 -359.701063 
L 313.311129 -360.005063 
L 314.545146 -377.910268 
L 315.779163 -359.974167 
L 317.01318 -360.386034 
L 318.247197 -359.801153 
L 319.481215 -361.356104 
L 320.715232 -360.865663 
L 321.949249 -365.937104 
L 323.183266 -365.084209 
L 324.417283 -359.836296 
L 325.651301 -361.065285 
L 326.885318 -379.590094 
L 328.119335 -358.712684 
L 329.353352 -361.124105 
L 330.587369 -360.655898 
L 331.821386 -358.709362 
L 333.055404 -378.188558 
L 334.289421 -360.172682 
L 335.523438 -359.37592 
L 336.757455 -361.124286 
L 337.991472 -359.924923 
L 339.22549 -359.410501 
L 340.459507 -360.608654 
L 341.693524 -359.775863 
L 342.927541 -360.137993 
L 344.161558 -359.787699 
L 345.395575 -378.029728 
L 346.629593 -377.59991 
L 347.86361 -358.996184 
L 349.097627 -361.081423 
L 350.331644 -364.391805 
L 351.565661 -359.745445 
L 352.799678 -359.682311 
L 354.033696 -376.845936 
L 355.267713 -360.771439 
L 356.50173 -376.507953 
L 357.735747 -359.906457 
L 358.969764 -360.083136 
L 360.203782 -359.461238 
L 361.437799 -361.982923 
L 362.671816 -360.684867 
L 363.905833 -359.168024 
L 365.13985 -360.576599 
L 366.373867 -377.187519 
L 367.607885 -359.475096 
L 368.841902 -376.851701 
L 370.075919 -359.626047 
L 371.309936 -361.624757 
L 372.543953 -361.011289 
L 373.777971 -377.915061 
L 375.011988 -358.105421 
L 376.246005 -359.403411 
L 377.480022 -378.351045 
L 378.714039 -359.985714 
L 379.948056 -358.51149 
L 381.182074 -358.611535 
L 382.416091 -360.558374 
L 383.650108 -360.463707 
L 384.884125 -360.507832 
L 386.118142 -359.336394 
L 387.352159 -364.822002 
L 388.586177 -358.852672 
L 389.820194 -365.553832 
L 391.054211 -360.33197 
L 392.288228 -360.372957 
L 393.522245 -361.002991 
L 394.756263 -366.24213 
L 395.99028 -378.733366 
L 397.224297 -379.451196 
L 398.458314 -360.182172 
L 399.692331 -360.6146 
L 400.926348 -360.238971 
L 402.160366 -360.154133 
L 402.160366 -381.512536 
L 402.160366 -381.512536 
L 400.926348 -380.757236 
L 399.692331 -381.139789 
L 398.458314 -380.831847 
L 397.224297 -381.010347 
L 395.99028 -381.540001 
L 394.756263 -381.246549 
L 393.522245 -380.713788 
L 392.288228 -381.023144 
L 391.054211 -381.339626 
L 389.820194 -380.856092 
L 388.586177 -380.286766 
L 387.352159 -380.905794 
L 386.118142 -381.263246 
L 384.884125 -380.743847 
L 383.650108 -381.281107 
L 382.416091 -380.400901 
L 381.182074 -381.452981 
L 379.948056 -381.08015 
L 378.714039 -380.63842 
L 377.480022 -381.068764 
L 376.246005 -380.686985 
L 375.011988 -381.190079 
L 373.777971 -381.617259 
L 372.543953 -380.27434 
L 371.309936 -380.782498 
L 370.075919 -380.581449 
L 368.841902 -380.440094 
L 367.607885 -380.817807 
L 366.373867 -380.731819 
L 365.13985 -381.546212 
L 363.905833 -380.949935 
L 362.671816 -380.785782 
L 361.437799 -380.825178 
L 360.203782 -381.113336 
L 358.969764 -380.488065 
L 357.735747 -380.608515 
L 356.50173 -380.971172 
L 355.267713 -380.710619 
L 354.033696 -381.339927 
L 352.799678 -380.970843 
L 351.565661 -381.486809 
L 350.331644 -381.240291 
L 349.097627 -381.395594 
L 347.86361 -381.240985 
L 346.629593 -381.402231 
L 345.395575 -381.447791 
L 344.161558 -381.495444 
L 342.927541 -381.069335 
L 341.693524 -380.826609 
L 340.459507 -381.047068 
L 339.22549 -381.05476 
L 337.991472 -380.68879 
L 336.757455 -380.604217 
L 335.523438 -380.85995 
L 334.289421 -381.074386 
L 333.055404 -381.935222 
L 331.821386 -380.850389 
L 330.587369 -381.611693 
L 329.353352 -381.236431 
L 328.119335 -380.76385 
L 326.885318 -381.384645 
L 325.651301 -381.218182 
L 324.417283 -381.214897 
L 323.183266 -381.26035 
L 321.949249 -381.050333 
L 320.715232 -381.127087 
L 319.481215 -380.609736 
L 318.247197 -380.902876 
L 317.01318 -381.250453 
L 315.779163 -380.906139 
L 314.545146 -380.721407 
L 313.311129 -380.817916 
L 312.077112 -380.80556 
L 310.843094 -380.746103 
L 309.609077 -380.736196 
L 308.37506 -380.929416 
L 307.141043 -380.903092 
L 305.907026 -380.85874 
L 304.673009 -381.038907 
L 303.438991 -381.295805 
L 302.204974 -381.058032 
L 300.970957 -380.676363 
L 299.73694 -380.802955 
L 298.502923 -381.105754 
L 297.268905 -381.338321 
L 296.034888 -381.459241 
L 294.800871 -380.805774 
L 293.566854 -380.329348 
L 292.332837 -380.384665 
L 291.09882 -381.092123 
L 289.864802 -380.675817 
L 288.630785 -380.10774 
L 287.396768 -381.048601 
L 286.162751 -380.732879 
L 284.928734 -381.046018 
L 283.694717 -380.061977 
L 282.460699 -380.568941 
L 281.226682 -380.564721 
L 279.992665 -380.932168 
L 278.758648 -380.872058 
L 277.524631 -380.636598 
L 276.290613 -380.970142 
L 275.056596 -381.152375 
L 273.822579 -380.84151 
L 272.588562 -381.048428 
L 271.354545 -381.934952 
L 270.120528 -380.594011 
L 268.88651 -380.868722 
L 267.652493 -380.906284 
L 266.418476 -380.709557 
L 265.184459 -380.767471 
L 263.950442 -380.651113 
L 262.716424 -380.603547 
L 261.482407 -380.618299 
L 260.24839 -380.795633 
L 259.014373 -380.691148 
L 257.780356 -381.384818 
L 256.546339 -380.967147 
L 255.312321 -381.395483 
L 254.078304 -381.537304 
L 252.844287 -381.176083 
L 251.61027 -381.194002 
L 250.376253 -380.946137 
L 249.142236 -381.239548 
L 247.908218 -380.481171 
L 246.674201 -381.65427 
L 245.440184 -381.483785 
L 244.206167 -380.973452 
L 242.97215 -380.789524 
L 241.738132 -380.219751 
L 240.504115 -381.87095 
L 239.270098 -381.024456 
L 238.036081 -381.902747 
L 236.802064 -381.056305 
L 235.568047 -380.841074 
L 234.334029 -381.09086 
L 233.100012 -381.54671 
L 231.865995 -381.199374 
L 230.631978 -381.288976 
L 229.397961 -381.293158 
L 228.163944 -381.052139 
L 226.929926 -381.067829 
L 225.695909 -381.617366 
L 224.461892 -381.285587 
L 223.227875 -399.11546 
L 221.993858 -380.952971 
L 220.75984 -381.177531 
L 219.525823 -381.074309 
L 218.291806 -380.751795 
L 217.057789 -381.370026 
L 215.823772 -381.53116 
L 214.589755 -381.833861 
L 213.355737 -381.15212 
L 212.12172 -381.042424 
L 210.887703 -381.125395 
L 209.653686 -381.284466 
L 208.419669 -380.572309 
L 207.185651 -381.119154 
L 205.951634 -381.165812 
L 204.717617 -380.704327 
L 203.4836 -381.003143 
L 202.249583 -380.0625 
L 201.015566 -381.056621 
L 199.781548 -380.600869 
L 198.547531 -380.076734 
L 197.313514 -380.188606 
L 196.079497 -380.729829 
L 194.84548 -380.176398 
L 193.611463 -380.82698 
L 192.377445 -381.089589 
L 191.143428 -380.140429 
L 189.909411 -380.591654 
L 188.675394 -381.027332 
L 187.441377 -380.436477 
L 186.207359 -380.234459 
L 184.973342 -381.070319 
L 183.739325 -380.628941 
L 182.505308 -380.741069 
L 181.271291 -379.579054 
L 180.037274 -380.605152 
L 178.803256 -380.864399 
L 177.569239 -380.682869 
L 176.335222 -380.936124 
L 175.101205 -380.757354 
L 173.867188 -380.024828 
L 172.63317 -380.952136 
L 171.399153 -380.746551 
L 170.165136 -380.587386 
L 168.931119 -381.118549 
L 167.697102 -381.027646 
L 166.463085 -380.154449 
L 165.229067 -380.442011 
L 163.99505 -380.046985 
L 162.761033 -380.905476 
L 161.527016 -381.089754 
L 160.292999 -380.941914 
L 159.058982 -380.40871 
L 157.824964 -379.743182 
L 156.590947 -380.216062 
L 155.35693 -379.456591 
L 154.122913 -379.946051 
L 152.888896 -380.312353 
L 151.654878 -379.347166 
L 150.420861 -379.873961 
L 149.186844 -379.701879 
L 147.952827 -379.064165 
L 146.71881 -378.760472 
L 145.484793 -378.118957 
L 144.250775 -378.108695 
L 143.016758 -378.203516 
L 141.782741 -356.351993 
L 140.548724 -356.792185 
L 139.314707 -336.656718 
L 138.08069 -285.480137 
L 136.846672 -372.329583 
L 135.612655 -353.361279 
L 134.378638 -265.064994 
L 133.144621 -283.082753 
L 131.910604 -282.168383 
L 130.676586 -277.302023 
L 129.442569 -267.821282 
L 128.208552 -272.170707 
L 126.974535 -260.964681 
L 125.740518 -260.682528 
L 124.506501 -260.443937 
L 123.272483 -260.003111 
L 122.038466 -261.868828 
L 120.804449 -259.500144 
L 119.570432 -259.912062 
L 118.336415 -259.086142 
L 117.102397 -268.396995 
L 115.86838 -236.43877 
L 114.634363 -259.932032 
L 113.400346 -248.077365 
L 112.166329 -248.999636 
L 110.932312 -233.188386 
L 109.698294 -238.478329 
L 108.464277 -240.484723 
L 107.23026 -237.576658 
L 105.996243 -252.134953 
L 104.762226 -239.936709 
L 103.528209 -226.614814 
L 102.294191 -233.666457 
L 101.060174 -233.635334 
L 99.826157 -231.295997 
L 98.59214 -234.533256 
L 97.358123 -185.03637 
L 96.124105 -102.156573 
L 94.890088 -167.772437 
z
" style="stroke: #6ca247; stroke-opacity: 0.2"/>
    </defs>
    <g clip-path="url(#p7497fd32ae)">
     <use xlink:href="#mdfaf9f34f7" x="0" y="426.4" style="fill: #6ca247; fill-opacity: 0.2; stroke: #6ca247; stroke-opacity: 0.2"/>
    </g>
   </g>
   <g id="matplotlib.axis_1">
    <g id="xtick_1">
     <g id="line2d_1">
      <path d="M 94.735836 376.318305 
L 94.735836 7.2 
" clip-path="url(#p7497fd32ae)" style="fill: none; stroke: #b0b0b0; stroke-opacity: 0.3; stroke-width: 0.8; stroke-linecap: square"/>
     </g>
     <g id="line2d_2">
      <defs>
       <path id="me150096437" d="M 0 0 
L 0 3.5 
" style="stroke: #000000; stroke-width: 0.8"/>
      </defs>
      <g>
       <use xlink:href="#me150096437" x="94.735836" y="376.318305" style="stroke: #000000; stroke-width: 0.8"/>
      </g>
     </g>
     <g id="text_1">
      <!-- 0k -->
      <g transform="translate(86.715072 394.387893) scale(0.16 -0.16)">
       <defs>
        <path id="CMR17-30" d="M 2688 2038 
C 2688 2430 2682 3099 2413 3613 
C 2176 4063 1798 4224 1466 4224 
C 1158 4224 768 4082 525 3620 
C 269 3137 243 2539 243 2038 
C 243 1671 250 1112 448 623 
C 723 -39 1216 -128 1466 -128 
C 1760 -128 2208 -7 2470 604 
C 2662 1048 2688 1568 2688 2038 
z
M 1466 -26 
C 1056 -26 813 328 723 816 
C 653 1196 653 1749 653 2109 
C 653 2604 653 3015 736 3407 
C 858 3954 1216 4121 1466 4121 
C 1728 4121 2067 3947 2189 3420 
C 2272 3054 2278 2623 2278 2109 
C 2278 1691 2278 1176 2202 797 
C 2067 96 1690 -26 1466 -26 
z
" transform="scale(0.015625)"/>
        <path id="CMR17-6b" d="M 1670 1679 
C 1664 1692 1632 1730 1632 1749 
C 1632 1762 2086 2175 2144 2226 
C 2509 2532 2739 2563 2906 2570 
L 2906 2735 
C 2867 2735 2854 2735 2848 2729 
L 2534 2722 
C 2355 2722 2080 2722 1907 2735 
L 1907 2570 
C 1997 2563 2061 2513 2061 2423 
C 2061 2296 1933 2175 1926 2175 
L 960 1298 
L 960 4416 
L 198 4345 
L 198 4179 
C 576 4179 634 4141 634 3835 
L 634 439 
C 634 198 608 166 198 166 
L 198 0 
C 352 12 634 12 794 12 
C 954 12 1235 12 1389 0 
L 1389 166 
C 979 166 954 191 954 439 
L 954 1139 
L 1395 1540 
L 2042 586 
C 2118 471 2182 382 2182 299 
C 2182 185 2067 166 1990 166 
L 1990 0 
C 2144 12 2419 12 2579 12 
C 2694 12 2931 6 3040 0 
L 3040 166 
C 2739 166 2669 223 2477 503 
L 1670 1679 
z
" transform="scale(0.015625)"/>
       </defs>
       <use xlink:href="#CMR17-30" transform="scale(0.996264)"/>
       <use xlink:href="#CMR17-6b" transform="translate(45.690477 0) scale(0.996264)"/>
      </g>
     </g>
    </g>
    <g id="xtick_2">
     <g id="line2d_3">
      <path d="M 171.86191 376.318305 
L 171.86191 7.2 
" clip-path="url(#p7497fd32ae)" style="fill: none; stroke: #b0b0b0; stroke-opacity: 0.3; stroke-width: 0.8; stroke-linecap: square"/>
     </g>
     <g id="line2d_4">
      <g>
       <use xlink:href="#me150096437" x="171.86191" y="376.318305" style="stroke: #000000; stroke-width: 0.8"/>
      </g>
     </g>
     <g id="text_2">
      <!-- 50k -->
      <g transform="translate(159.939152 394.387893) scale(0.16 -0.16)">
       <defs>
        <path id="CMR17-35" d="M 730 3750 
C 794 3724 1056 3641 1325 3641 
C 1920 3641 2246 3961 2432 4140 
C 2432 4191 2432 4224 2394 4224 
C 2387 4224 2374 4224 2323 4198 
C 2099 4102 1837 4032 1517 4032 
C 1325 4032 1037 4055 723 4191 
C 653 4224 640 4224 634 4224 
C 602 4224 595 4217 595 4090 
L 595 2231 
C 595 2113 595 2080 659 2080 
C 691 2080 704 2093 736 2139 
C 941 2435 1222 2560 1542 2560 
C 1766 2560 2246 2415 2246 1293 
C 2246 1087 2246 716 2054 422 
C 1894 159 1645 25 1370 25 
C 947 25 518 319 403 812 
C 429 806 480 793 506 793 
C 589 793 749 838 749 1036 
C 749 1209 627 1280 506 1280 
C 358 1280 262 1190 262 1011 
C 262 454 704 -128 1382 -128 
C 2042 -128 2669 441 2669 1267 
C 2669 2054 2170 2662 1549 2662 
C 1222 2662 947 2540 730 2304 
L 730 3750 
z
" transform="scale(0.015625)"/>
       </defs>
       <use xlink:href="#CMR17-35" transform="scale(0.996264)"/>
       <use xlink:href="#CMR17-30" transform="translate(45.690477 0) scale(0.996264)"/>
       <use xlink:href="#CMR17-6b" transform="translate(91.380954 0) scale(0.996264)"/>
      </g>
     </g>
    </g>
    <g id="xtick_3">
     <g id="line2d_5">
      <path d="M 248.987983 376.318305 
L 248.987983 7.2 
" clip-path="url(#p7497fd32ae)" style="fill: none; stroke: #b0b0b0; stroke-opacity: 0.3; stroke-width: 0.8; stroke-linecap: square"/>
     </g>
     <g id="line2d_6">
      <g>
       <use xlink:href="#me150096437" x="248.987983" y="376.318305" style="stroke: #000000; stroke-width: 0.8"/>
      </g>
     </g>
     <g id="text_3">
      <!-- 100k -->
      <g transform="translate(233.163232 394.387893) scale(0.16 -0.16)">
       <defs>
        <path id="CMR17-31" d="M 1702 4083 
C 1702 4217 1696 4224 1606 4224 
C 1357 3927 979 3833 621 3820 
C 602 3820 570 3820 563 3808 
C 557 3795 557 3782 557 3648 
C 755 3648 1088 3686 1344 3839 
L 1344 467 
C 1344 243 1331 166 781 166 
L 589 166 
L 589 0 
C 896 6 1216 12 1523 12 
C 1830 12 2150 6 2458 0 
L 2458 166 
L 2266 166 
C 1715 166 1702 236 1702 467 
L 1702 4083 
z
" transform="scale(0.015625)"/>
       </defs>
       <use xlink:href="#CMR17-31" transform="scale(0.996264)"/>
       <use xlink:href="#CMR17-30" transform="translate(45.690477 0) scale(0.996264)"/>
       <use xlink:href="#CMR17-30" transform="translate(91.380954 0) scale(0.996264)"/>
       <use xlink:href="#CMR17-6b" transform="translate(137.071431 0) scale(0.996264)"/>
      </g>
     </g>
    </g>
    <g id="xtick_4">
     <g id="line2d_7">
      <path d="M 326.114057 376.318305 
L 326.114057 7.2 
" clip-path="url(#p7497fd32ae)" style="fill: none; stroke: #b0b0b0; stroke-opacity: 0.3; stroke-width: 0.8; stroke-linecap: square"/>
     </g>
     <g id="line2d_8">
      <g>
       <use xlink:href="#me150096437" x="326.114057" y="376.318305" style="stroke: #000000; stroke-width: 0.8"/>
      </g>
     </g>
     <g id="text_4">
      <!-- 150k -->
      <g transform="translate(310.289306 394.387893) scale(0.16 -0.16)">
       <use xlink:href="#CMR17-31" transform="scale(0.996264)"/>
       <use xlink:href="#CMR17-35" transform="translate(45.690477 0) scale(0.996264)"/>
       <use xlink:href="#CMR17-30" transform="translate(91.380954 0) scale(0.996264)"/>
       <use xlink:href="#CMR17-6b" transform="translate(137.071431 0) scale(0.996264)"/>
      </g>
     </g>
    </g>
    <g id="xtick_5">
     <g id="line2d_9">
      <path d="M 403.240131 376.318305 
L 403.240131 7.2 
" clip-path="url(#p7497fd32ae)" style="fill: none; stroke: #b0b0b0; stroke-opacity: 0.3; stroke-width: 0.8; stroke-linecap: square"/>
     </g>
     <g id="line2d_10">
      <g>
       <use xlink:href="#me150096437" x="403.240131" y="376.318305" style="stroke: #000000; stroke-width: 0.8"/>
      </g>
     </g>
     <g id="text_5">
      <!-- 200k -->
      <g transform="translate(387.415379 394.387893) scale(0.16 -0.16)">
       <defs>
        <path id="CMR17-32" d="M 2669 990 
L 2554 990 
C 2490 537 2438 460 2413 422 
C 2381 371 1920 371 1830 371 
L 602 371 
C 832 620 1280 1073 1824 1596 
C 2214 1966 2669 2400 2669 3033 
C 2669 3788 2067 4224 1395 4224 
C 691 4224 262 3603 262 3027 
C 262 2777 448 2745 525 2745 
C 589 2745 781 2783 781 3007 
C 781 3206 614 3264 525 3264 
C 486 3264 448 3257 422 3244 
C 544 3788 915 4057 1306 4057 
C 1862 4057 2227 3616 2227 3033 
C 2227 2477 1901 1998 1536 1583 
L 262 147 
L 262 0 
L 2515 0 
L 2669 990 
z
" transform="scale(0.015625)"/>
       </defs>
       <use xlink:href="#CMR17-32" transform="scale(0.996264)"/>
       <use xlink:href="#CMR17-30" transform="translate(45.690477 0) scale(0.996264)"/>
       <use xlink:href="#CMR17-30" transform="translate(91.380954 0) scale(0.996264)"/>
       <use xlink:href="#CMR17-6b" transform="translate(137.071431 0) scale(0.996264)"/>
      </g>
     </g>
    </g>
    <g id="text_6">
     <!-- Training Steps -->
     <g transform="translate(190.492088 415.324366) scale(0.2 -0.2)">
      <defs>
       <path id="CMR17-54" d="M 3981 4332 
L 288 4332 
L 179 2924 
L 294 2924 
C 378 3981 467 4166 1453 4166 
C 1568 4166 1754 4166 1805 4159 
C 1926 4140 1926 4064 1926 3917 
L 1926 465 
C 1926 236 1907 166 1376 166 
L 1197 166 
L 1197 0 
C 1504 6 1824 12 2138 12 
C 2451 12 2771 6 3078 0 
L 3078 166 
L 2899 166 
C 2368 166 2349 236 2349 465 
L 2349 3917 
C 2349 4057 2349 4134 2464 4159 
C 2515 4166 2701 4166 2816 4166 
C 3795 4166 3891 3981 3974 2924 
L 4090 2924 
L 3981 4332 
z
" transform="scale(0.015625)"/>
       <path id="CMR17-72" d="M 960 1517 
C 960 2134 1222 2713 1702 2713 
C 1747 2713 1792 2707 1837 2687 
C 1837 2687 1696 2642 1696 2475 
C 1696 2321 1818 2257 1914 2257 
C 1990 2257 2131 2302 2131 2482 
C 2131 2687 1926 2816 1709 2816 
C 1222 2816 1011 2340 947 2115 
L 941 2115 
L 941 2816 
L 198 2745 
L 198 2578 
C 576 2578 634 2540 634 2231 
L 634 443 
C 634 198 608 166 198 166 
L 198 0 
C 352 12 646 12 813 12 
C 998 12 1325 12 1498 0 
L 1498 166 
C 1037 166 960 166 960 455 
L 960 1517 
z
" transform="scale(0.015625)"/>
       <path id="CMR17-61" d="M 2304 1656 
C 2304 2048 2304 2275 2035 2534 
C 1798 2751 1523 2816 1306 2816 
C 800 2816 435 2408 435 1977 
C 435 1740 627 1728 666 1728 
C 749 1728 896 1779 896 1958 
C 896 2118 774 2188 666 2188 
C 640 2188 608 2182 589 2176 
C 723 2594 1069 2713 1293 2713 
C 1613 2713 1965 2421 1965 1875 
L 1965 1632 
C 1587 1619 1133 1568 774 1373 
C 371 1147 256 822 256 576 
C 256 77 832 -64 1171 -64 
C 1523 -64 1850 135 1990 505 
C 2003 219 2182 -39 2464 -39 
C 2598 -39 2938 51 2938 563 
L 2938 926 
L 2822 926 
L 2822 557 
C 2822 161 2650 109 2566 109 
C 2304 109 2304 446 2304 732 
L 2304 1656 
z
M 1965 887 
C 1965 323 1568 38 1216 38 
C 896 38 646 278 646 576 
C 646 771 730 1114 1101 1322 
C 1408 1497 1760 1523 1965 1536 
L 1965 887 
z
" transform="scale(0.015625)"/>
       <path id="CMR17-69" d="M 992 3961 
C 992 4102 877 4224 730 4224 
C 589 4224 467 4108 467 3961 
C 467 3820 582 3699 730 3699 
C 870 3699 992 3814 992 3961 
z
M 243 2745 
L 243 2579 
C 602 2579 653 2540 653 2231 
L 653 443 
C 653 198 627 166 218 166 
L 218 0 
C 371 12 646 12 806 12 
C 960 12 1222 12 1370 0 
L 1370 166 
C 992 166 979 205 979 436 
L 979 2816 
L 243 2745 
z
" transform="scale(0.015625)"/>
       <path id="CMR17-6e" d="M 2656 1954 
C 2656 2282 2592 2816 1837 2816 
C 1331 2816 1069 2424 973 2166 
L 966 2166 
L 966 2816 
L 211 2745 
L 211 2578 
C 589 2578 646 2540 646 2231 
L 646 443 
C 646 198 621 166 211 166 
L 211 0 
C 365 12 646 12 813 12 
C 979 12 1267 12 1421 0 
L 1421 166 
C 1011 166 986 192 986 443 
L 986 1678 
C 986 2269 1344 2713 1792 2713 
C 2266 2713 2317 2289 2317 1980 
L 2317 443 
C 2317 198 2291 166 1882 166 
L 1882 0 
C 2035 12 2317 12 2483 12 
C 2650 12 2938 12 3091 0 
L 3091 166 
C 2682 166 2656 192 2656 443 
L 2656 1954 
z
" transform="scale(0.015625)"/>
       <path id="CMR17-67" d="M 710 1165 
C 832 1068 1043 960 1299 960 
C 1805 960 2240 1359 2240 1895 
C 2240 2063 2189 2321 1997 2521 
C 2176 2713 2438 2777 2586 2777 
C 2611 2777 2650 2777 2682 2758 
C 2656 2751 2598 2726 2598 2623 
C 2598 2540 2656 2483 2739 2483 
C 2835 2483 2886 2547 2886 2630 
C 2886 2751 2790 2880 2586 2880 
C 2330 2880 2106 2758 1926 2591 
C 1734 2764 1504 2828 1299 2828 
C 794 2828 358 2431 358 1895 
C 358 1527 570 1294 634 1230 
C 442 1004 442 742 442 710 
C 442 544 506 300 723 166 
C 390 82 128 -184 128 -517 
C 128 -996 736 -1344 1466 -1344 
C 2170 -1344 2803 -1009 2803 -510 
C 2803 384 1856 384 1363 384 
C 1216 384 954 384 922 390 
C 723 422 589 601 589 825 
C 589 883 589 1024 710 1165 
z
M 1299 1068 
C 736 1068 736 1766 736 1895 
C 736 2024 736 2719 1299 2719 
C 1862 2719 1862 2024 1862 1895 
C 1862 1766 1862 1068 1299 1068 
z
M 1466 -1236 
C 826 -1236 384 -883 384 -517 
C 384 -311 493 -118 634 -11 
C 794 102 858 102 1293 102 
C 1818 102 2547 102 2547 -517 
C 2547 -883 2106 -1236 1466 -1236 
z
" transform="scale(0.015625)"/>
       <path id="CMR17-53" d="M 2803 4351 
C 2803 4467 2797 4473 2758 4473 
C 2720 4473 2707 4447 2682 4390 
L 2490 3965 
C 2246 4320 1875 4480 1472 4480 
C 819 4480 294 3958 294 3301 
C 294 3101 339 2817 557 2546 
C 794 2250 1018 2198 1530 2063 
C 1722 2011 2042 1927 2106 1901 
C 2470 1747 2662 1360 2662 999 
C 2662 534 2336 38 1779 38 
C 1094 38 454 425 410 1328 
C 403 1431 397 1437 352 1437 
C 301 1437 294 1431 294 1302 
L 294 0 
C 294 -116 301 -122 339 -122 
C 384 -122 397 -90 486 109 
C 493 128 493 141 614 386 
C 934 -39 1472 -128 1779 -128 
C 2477 -128 2970 457 2970 1141 
C 2970 1476 2848 1734 2778 1850 
C 2509 2263 2221 2340 1914 2417 
C 1869 2437 1856 2437 1498 2527 
C 1152 2617 1005 2662 845 2836 
C 666 3036 602 3243 602 3449 
C 602 3868 934 4326 1478 4326 
C 2157 4326 2579 3842 2675 3036 
C 2694 2920 2701 2914 2746 2914 
C 2803 2914 2803 2933 2803 3043 
L 2803 4351 
z
" transform="scale(0.015625)"/>
       <path id="CMR17-74" d="M 966 2585 
L 1862 2585 
L 1862 2752 
L 966 2752 
L 966 3968 
L 851 3968 
C 838 3292 614 2700 70 2687 
L 70 2585 
L 627 2585 
L 627 778 
C 627 655 627 -64 1370 -64 
C 1747 -64 1965 308 1965 784 
L 1965 1151 
L 1850 1151 
L 1850 790 
C 1850 347 1677 51 1408 51 
C 1222 51 966 179 966 765 
L 966 2585 
z
" transform="scale(0.015625)"/>
       <path id="CMR17-65" d="M 2438 1503 
C 2464 1529 2464 1542 2464 1606 
C 2464 2251 2118 2816 1389 2816 
C 710 2816 173 2175 173 1394 
C 173 554 781 -64 1459 -64 
C 2176 -64 2458 619 2458 755 
C 2458 800 2419 800 2406 800 
C 2362 800 2355 787 2330 709 
C 2189 270 1837 51 1504 51 
C 1229 51 954 206 781 490 
C 582 819 582 1200 582 1503 
L 2438 1503 
z
M 589 1600 
C 634 2511 1126 2713 1382 2713 
C 1818 2713 2112 2308 2118 1600 
L 589 1600 
z
" transform="scale(0.015625)"/>
       <path id="CMR17-70" d="M 1408 -1114 
C 998 -1114 973 -1088 973 -834 
L 973 380 
C 1158 109 1427 -64 1766 -64 
C 2406 -64 3053 503 3053 1382 
C 3053 2196 2496 2816 1837 2816 
C 1453 2816 1139 2603 960 2345 
L 960 2816 
L 198 2745 
L 198 2577 
C 576 2577 634 2539 634 2228 
L 634 -834 
C 634 -1081 608 -1114 198 -1114 
L 198 -1280 
C 352 -1268 634 -1268 800 -1268 
C 966 -1268 1254 -1268 1408 -1280 
L 1408 -1114 
z
M 973 2015 
C 973 2106 973 2241 1222 2481 
C 1254 2506 1472 2700 1792 2700 
C 2259 2700 2643 2112 2643 1376 
C 2643 639 2234 38 1728 38 
C 1498 38 1248 148 1056 451 
C 973 594 973 632 973 736 
L 973 2015 
z
" transform="scale(0.015625)"/>
       <path id="CMR17-73" d="M 1978 2688 
C 1978 2803 1971 2809 1933 2809 
C 1907 2809 1901 2803 1824 2707 
C 1805 2681 1747 2617 1728 2592 
C 1523 2809 1235 2816 1126 2816 
C 416 2816 160 2444 160 2073 
C 160 1497 813 1363 998 1324 
C 1402 1241 1542 1216 1677 1100 
C 1760 1024 1901 883 1901 652 
C 1901 384 1747 38 1158 38 
C 602 38 403 460 288 1024 
C 269 1113 269 1120 218 1120 
C 166 1120 160 1113 160 985 
L 160 64 
C 160 -52 166 -58 205 -58 
C 237 -58 243 -52 275 0 
C 314 57 410 211 448 275 
C 576 102 800 -64 1158 -64 
C 1792 -64 2131 281 2131 780 
C 2131 1107 1958 1280 1875 1356 
C 1683 1555 1459 1600 1190 1651 
C 838 1728 390 1817 390 2208 
C 390 2374 480 2726 1126 2726 
C 1811 2726 1850 2086 1862 1881 
C 1869 1849 1901 1843 1920 1843 
C 1978 1843 1978 1862 1978 1971 
L 1978 2688 
z
" transform="scale(0.015625)"/>
      </defs>
      <use xlink:href="#CMR17-54" transform="scale(0.996264)"/>
      <use xlink:href="#CMR17-72" transform="translate(58.702625 0) scale(0.996264)"/>
      <use xlink:href="#CMR17-61" transform="translate(93.983393 0) scale(0.996264)"/>
      <use xlink:href="#CMR17-69" transform="translate(139.67387 0) scale(0.996264)"/>
      <use xlink:href="#CMR17-6e" transform="translate(164.544929 0) scale(0.996264)"/>
      <use xlink:href="#CMR17-69" transform="translate(215.440298 0) scale(0.996264)"/>
      <use xlink:href="#CMR17-6e" transform="translate(240.311357 0) scale(0.996264)"/>
      <use xlink:href="#CMR17-67" transform="translate(291.206727 0) scale(0.996264)"/>
      <use xlink:href="#CMR17-53" transform="translate(366.97317 0) scale(0.996264)"/>
      <use xlink:href="#CMR17-74" transform="translate(417.86854 0) scale(0.996264)"/>
      <use xlink:href="#CMR17-65" transform="translate(453.149308 0) scale(0.996264)"/>
      <use xlink:href="#CMR17-70" transform="translate(493.634968 0) scale(0.996264)"/>
      <use xlink:href="#CMR17-73" transform="translate(544.530338 0) scale(0.996264)"/>
     </g>
    </g>
   </g>
   <g id="matplotlib.axis_2">
    <g id="ytick_1">
     <g id="line2d_11">
      <path d="M 79.526574 347.995167 
L 417.523879 347.995167 
" clip-path="url(#p7497fd32ae)" style="fill: none; stroke: #b0b0b0; stroke-opacity: 0.3; stroke-width: 0.8; stroke-linecap: square"/>
     </g>
     <g id="line2d_12">
      <defs>
       <path id="m3a9fc8aeb3" d="M 0 0 
L -3.5 0 
" style="stroke: #000000; stroke-width: 0.8"/>
      </defs>
      <g>
       <use xlink:href="#m3a9fc8aeb3" x="79.526574" y="347.995167" style="stroke: #000000; stroke-width: 0.8"/>
      </g>
     </g>
     <g id="text_7">
      <!-- $\mathdefault{1750}$ -->
      <g transform="translate(28.91263 353.529961) scale(0.16 -0.16)">
       <defs>
        <path id="CMSY10-0" d="M 4218 1472 
C 4326 1472 4442 1472 4442 1600 
C 4442 1728 4326 1728 4218 1728 
L 755 1728 
C 646 1728 531 1728 531 1600 
C 531 1472 646 1472 755 1472 
L 4218 1472 
z
" transform="scale(0.015625)"/>
        <path id="CMR17-37" d="M 2886 3955 
L 2886 4096 
L 1382 4096 
C 634 4096 621 4166 595 4288 
L 480 4288 
L 294 3104 
L 410 3104 
C 429 3226 474 3552 550 3673 
C 589 3724 1062 3724 1171 3724 
L 2579 3724 
L 1869 2670 
C 1395 1961 1069 1003 1069 166 
C 1069 89 1069 -128 1299 -128 
C 1530 -128 1530 89 1530 172 
L 1530 466 
C 1530 1514 1709 2204 2003 2644 
L 2886 3955 
z
" transform="scale(0.015625)"/>
       </defs>
       <use xlink:href="#CMSY10-0" transform="scale(0.996264)"/>
       <use xlink:href="#CMR17-31" transform="translate(77.487468 0) scale(0.996264)"/>
       <use xlink:href="#CMR17-37" transform="translate(123.177945 0) scale(0.996264)"/>
       <use xlink:href="#CMR17-35" transform="translate(168.868422 0) scale(0.996264)"/>
       <use xlink:href="#CMR17-30" transform="translate(214.558899 0) scale(0.996264)"/>
      </g>
     </g>
    </g>
    <g id="ytick_2">
     <g id="line2d_13">
      <path d="M 79.526574 301.578629 
L 417.523879 301.578629 
" clip-path="url(#p7497fd32ae)" style="fill: none; stroke: #b0b0b0; stroke-opacity: 0.3; stroke-width: 0.8; stroke-linecap: square"/>
     </g>
     <g id="line2d_14">
      <g>
       <use xlink:href="#m3a9fc8aeb3" x="79.526574" y="301.578629" style="stroke: #000000; stroke-width: 0.8"/>
      </g>
     </g>
     <g id="text_8">
      <!-- $\mathdefault{1500}$ -->
      <g transform="translate(28.91263 307.113423) scale(0.16 -0.16)">
       <use xlink:href="#CMSY10-0" transform="scale(0.996264)"/>
       <use xlink:href="#CMR17-31" transform="translate(77.487468 0) scale(0.996264)"/>
       <use xlink:href="#CMR17-35" transform="translate(123.177945 0) scale(0.996264)"/>
       <use xlink:href="#CMR17-30" transform="translate(168.868422 0) scale(0.996264)"/>
       <use xlink:href="#CMR17-30" transform="translate(214.558899 0) scale(0.996264)"/>
      </g>
     </g>
    </g>
    <g id="ytick_3">
     <g id="line2d_15">
      <path d="M 79.526574 255.16209 
L 417.523879 255.16209 
" clip-path="url(#p7497fd32ae)" style="fill: none; stroke: #b0b0b0; stroke-opacity: 0.3; stroke-width: 0.8; stroke-linecap: square"/>
     </g>
     <g id="line2d_16">
      <g>
       <use xlink:href="#m3a9fc8aeb3" x="79.526574" y="255.16209" style="stroke: #000000; stroke-width: 0.8"/>
      </g>
     </g>
     <g id="text_9">
      <!-- $\mathdefault{1250}$ -->
      <g transform="translate(28.91263 260.696885) scale(0.16 -0.16)">
       <use xlink:href="#CMSY10-0" transform="scale(0.996264)"/>
       <use xlink:href="#CMR17-31" transform="translate(77.487468 0) scale(0.996264)"/>
       <use xlink:href="#CMR17-32" transform="translate(123.177945 0) scale(0.996264)"/>
       <use xlink:href="#CMR17-35" transform="translate(168.868422 0) scale(0.996264)"/>
       <use xlink:href="#CMR17-30" transform="translate(214.558899 0) scale(0.996264)"/>
      </g>
     </g>
    </g>
    <g id="ytick_4">
     <g id="line2d_17">
      <path d="M 79.526574 208.745552 
L 417.523879 208.745552 
" clip-path="url(#p7497fd32ae)" style="fill: none; stroke: #b0b0b0; stroke-opacity: 0.3; stroke-width: 0.8; stroke-linecap: square"/>
     </g>
     <g id="line2d_18">
      <g>
       <use xlink:href="#m3a9fc8aeb3" x="79.526574" y="208.745552" style="stroke: #000000; stroke-width: 0.8"/>
      </g>
     </g>
     <g id="text_10">
      <!-- $\mathdefault{1000}$ -->
      <g transform="translate(28.91263 214.280346) scale(0.16 -0.16)">
       <use xlink:href="#CMSY10-0" transform="scale(0.996264)"/>
       <use xlink:href="#CMR17-31" transform="translate(77.487468 0) scale(0.996264)"/>
       <use xlink:href="#CMR17-30" transform="translate(123.177945 0) scale(0.996264)"/>
       <use xlink:href="#CMR17-30" transform="translate(168.868422 0) scale(0.996264)"/>
       <use xlink:href="#CMR17-30" transform="translate(214.558899 0) scale(0.996264)"/>
      </g>
     </g>
    </g>
    <g id="ytick_5">
     <g id="line2d_19">
      <path d="M 79.526574 162.329014 
L 417.523879 162.329014 
" clip-path="url(#p7497fd32ae)" style="fill: none; stroke: #b0b0b0; stroke-opacity: 0.3; stroke-width: 0.8; stroke-linecap: square"/>
     </g>
     <g id="line2d_20">
      <g>
       <use xlink:href="#m3a9fc8aeb3" x="79.526574" y="162.329014" style="stroke: #000000; stroke-width: 0.8"/>
      </g>
     </g>
     <g id="text_11">
      <!-- $\mathdefault{750}$ -->
      <g transform="translate(36.716617 167.863808) scale(0.16 -0.16)">
       <use xlink:href="#CMSY10-0" transform="scale(0.996264)"/>
       <use xlink:href="#CMR17-37" transform="translate(77.487468 0) scale(0.996264)"/>
       <use xlink:href="#CMR17-35" transform="translate(123.177945 0) scale(0.996264)"/>
       <use xlink:href="#CMR17-30" transform="translate(168.868422 0) scale(0.996264)"/>
      </g>
     </g>
    </g>
    <g id="ytick_6">
     <g id="line2d_21">
      <path d="M 79.526574 115.912476 
L 417.523879 115.912476 
" clip-path="url(#p7497fd32ae)" style="fill: none; stroke: #b0b0b0; stroke-opacity: 0.3; stroke-width: 0.8; stroke-linecap: square"/>
     </g>
     <g id="line2d_22">
      <g>
       <use xlink:href="#m3a9fc8aeb3" x="79.526574" y="115.912476" style="stroke: #000000; stroke-width: 0.8"/>
      </g>
     </g>
     <g id="text_12">
      <!-- $\mathdefault{500}$ -->
      <g transform="translate(36.716617 121.44727) scale(0.16 -0.16)">
       <use xlink:href="#CMSY10-0" transform="scale(0.996264)"/>
       <use xlink:href="#CMR17-35" transform="translate(77.487468 0) scale(0.996264)"/>
       <use xlink:href="#CMR17-30" transform="translate(123.177945 0) scale(0.996264)"/>
       <use xlink:href="#CMR17-30" transform="translate(168.868422 0) scale(0.996264)"/>
      </g>
     </g>
    </g>
    <g id="ytick_7">
     <g id="line2d_23">
      <path d="M 79.526574 69.495937 
L 417.523879 69.495937 
" clip-path="url(#p7497fd32ae)" style="fill: none; stroke: #b0b0b0; stroke-opacity: 0.3; stroke-width: 0.8; stroke-linecap: square"/>
     </g>
     <g id="line2d_24">
      <g>
       <use xlink:href="#m3a9fc8aeb3" x="79.526574" y="69.495937" style="stroke: #000000; stroke-width: 0.8"/>
      </g>
     </g>
     <g id="text_13">
      <!-- $\mathdefault{250}$ -->
      <g transform="translate(36.716617 75.030732) scale(0.16 -0.16)">
       <use xlink:href="#CMSY10-0" transform="scale(0.996264)"/>
       <use xlink:href="#CMR17-32" transform="translate(77.487468 0) scale(0.996264)"/>
       <use xlink:href="#CMR17-35" transform="translate(123.177945 0) scale(0.996264)"/>
       <use xlink:href="#CMR17-30" transform="translate(168.868422 0) scale(0.996264)"/>
      </g>
     </g>
    </g>
    <g id="ytick_8">
     <g id="line2d_25">
      <path d="M 79.526574 23.079399 
L 417.523879 23.079399 
" clip-path="url(#p7497fd32ae)" style="fill: none; stroke: #b0b0b0; stroke-opacity: 0.3; stroke-width: 0.8; stroke-linecap: square"/>
     </g>
     <g id="line2d_26">
      <g>
       <use xlink:href="#m3a9fc8aeb3" x="79.526574" y="23.079399" style="stroke: #000000; stroke-width: 0.8"/>
      </g>
     </g>
     <g id="text_14">
      <!-- $\mathdefault{0}$ -->
      <g transform="translate(64.722587 28.614193) scale(0.16 -0.16)">
       <use xlink:href="#CMR17-30" transform="scale(0.996264)"/>
      </g>
     </g>
    </g>
    <g id="text_15">
     <!-- Return -->
     <g transform="translate(21.036997 219.822038) rotate(-90) scale(0.2 -0.2)">
      <defs>
       <path id="CMR17-52" d="M 2509 2156 
C 3117 2278 3629 2689 3629 3203 
C 3629 3806 2950 4352 2054 4352 
L 333 4352 
L 333 4185 
C 774 4185 845 4185 845 3896 
L 845 428 
C 845 140 774 140 333 140 
L 333 -26 
C 518 -13 851 -13 1050 -13 
C 1248 -13 1581 -13 1766 -26 
L 1766 140 
C 1325 140 1254 140 1254 428 
L 1254 2112 
L 2003 2112 
C 2368 2112 2573 1964 2662 1881 
C 2918 1632 2918 1459 2918 1024 
C 2918 595 2918 377 3110 160 
C 3354 -103 3680 -128 3821 -128 
C 4294 -128 4365 403 4365 512 
C 4365 550 4365 595 4307 595 
C 4256 595 4250 556 4250 531 
C 4218 115 4032 -26 3834 -26 
C 3482 -26 3443 377 3405 768 
C 3386 902 3373 998 3360 1139 
C 3322 1459 3270 1926 2509 2156 
z
M 1984 2214 
L 1254 2214 
L 1254 3935 
C 1254 4153 1267 4185 1523 4185 
L 1990 4185 
C 2522 4185 3142 3999 3142 3203 
C 3142 2374 2464 2214 1984 2214 
z
" transform="scale(0.015625)"/>
       <path id="CMR17-75" d="M 1882 2745 
L 1882 2579 
C 2259 2579 2317 2540 2317 2229 
L 2317 1053 
C 2317 510 2029 38 1555 38 
C 1030 38 986 355 986 691 
L 986 2816 
L 211 2745 
L 211 2579 
C 467 2579 640 2579 646 2320 
L 646 1079 
C 646 646 646 368 813 187 
C 896 103 1056 -64 1517 -64 
C 2061 -64 2272 400 2323 536 
L 2330 536 
L 2330 -64 
L 3091 -13 
L 3091 154 
C 2714 154 2656 193 2656 503 
L 2656 2816 
L 1882 2745 
z
" transform="scale(0.015625)"/>
      </defs>
      <use xlink:href="#CMR17-52" transform="scale(0.996264)"/>
      <use xlink:href="#CMR17-65" transform="translate(67.791102 0) scale(0.996264)"/>
      <use xlink:href="#CMR17-74" transform="translate(108.276762 0) scale(0.996264)"/>
      <use xlink:href="#CMR17-75" transform="translate(143.55753 0) scale(0.996264)"/>
      <use xlink:href="#CMR17-72" transform="translate(194.4529 0) scale(0.996264)"/>
      <use xlink:href="#CMR17-6e" transform="translate(229.733668 0) scale(0.996264)"/>
     </g>
    </g>
   </g>
   <g id="line2d_27">
    <path d="M 94.890088 307.708461 
L 96.124105 340.712139 
L 97.358123 224.20122 
L 98.59214 248.273325 
L 101.060174 101.01625 
L 102.294191 86.233184 
L 103.528209 61.783318 
L 104.762226 55.961344 
L 105.996243 52.371441 
L 107.23026 51.797346 
L 108.464277 48.740359 
L 109.698294 51.219267 
L 112.166329 52.713417 
L 113.400346 46.722006 
L 114.634363 47.281251 
L 115.86838 51.948439 
L 117.102397 48.227216 
L 118.336415 48.716561 
L 119.570432 48.131513 
L 120.804449 49.129488 
L 122.038466 48.388222 
L 123.272483 52.57388 
L 124.506501 45.581986 
L 125.740518 49.231961 
L 126.974535 50.228146 
L 128.208552 47.25321 
L 129.442569 45.77423 
L 130.676586 49.01434 
L 131.910604 49.929415 
L 133.144621 51.024518 
L 134.378638 45.686956 
L 135.612655 47.205227 
L 136.846672 48.091104 
L 138.08069 47.380404 
L 139.314707 51.479181 
L 140.548724 48.218495 
L 141.782741 49.99153 
L 143.016758 49.776689 
L 144.250775 48.163444 
L 145.484793 49.89086 
L 146.71881 50.225506 
L 147.952827 49.604325 
L 149.186844 45.22747 
L 150.420861 49.256967 
L 151.654878 48.119618 
L 152.888896 45.69628 
L 154.122913 46.438763 
L 155.35693 50.340962 
L 156.590947 45.496895 
L 157.824964 45.421789 
L 159.058982 45.675683 
L 160.292999 49.736764 
L 161.527016 46.613073 
L 162.761033 45.633197 
L 163.99505 46.418497 
L 165.229067 49.868916 
L 166.463085 45.760687 
L 167.697102 49.924741 
L 168.931119 47.309898 
L 170.165136 49.037481 
L 171.399153 49.865381 
L 172.63317 45.810276 
L 173.867188 48.203276 
L 175.101205 45.479605 
L 176.335222 51.551442 
L 177.569239 45.98378 
L 178.803256 47.586374 
L 180.037274 45.941087 
L 181.271291 45.829591 
L 182.505308 45.444021 
L 183.739325 48.255345 
L 184.973342 46.672291 
L 186.207359 51.967323 
L 187.441377 52.588131 
L 188.675394 51.02349 
L 189.909411 48.340902 
L 191.143428 45.977476 
L 192.377445 49.301356 
L 193.611463 47.579739 
L 194.84548 46.314729 
L 196.079497 50.423301 
L 197.313514 53.429689 
L 198.547531 50.018199 
L 199.781548 49.299674 
L 201.015566 47.870401 
L 202.249583 50.45265 
L 203.4836 49.658325 
L 204.717617 47.280036 
L 205.951634 46.207555 
L 207.185651 48.501519 
L 208.419669 47.764353 
L 209.653686 50.139935 
L 210.887703 47.075509 
L 212.12172 53.182535 
L 213.355737 52.068782 
L 214.589755 46.093062 
L 215.823772 46.06553 
L 217.057789 48.896988 
L 218.291806 48.910581 
L 219.525823 53.099411 
L 220.75984 46.925723 
L 221.993858 48.89489 
L 223.227875 47.880878 
L 224.461892 49.84557 
L 225.695909 51.215104 
L 226.929926 47.960295 
L 228.163944 50.067238 
L 229.397961 45.902688 
L 230.631978 46.013531 
L 231.865995 51.579473 
L 234.334029 45.783145 
L 235.568047 45.59179 
L 236.802064 46.372766 
L 238.036081 48.375009 
L 239.270098 49.98512 
L 240.504115 48.748772 
L 241.738132 46.410904 
L 242.97215 51.317143 
L 244.206167 49.265227 
L 245.440184 49.363529 
L 246.674201 53.948474 
L 247.908218 47.159081 
L 249.142236 50.180921 
L 250.376253 51.635157 
L 251.61027 48.399575 
L 252.844287 52.571475 
L 254.078304 50.555727 
L 255.312321 46.889573 
L 256.546339 45.918786 
L 257.780356 46.786393 
L 259.014373 48.288949 
L 260.24839 45.920038 
L 261.482407 46.904357 
L 262.716424 45.945127 
L 263.950442 46.528575 
L 265.184459 46.143446 
L 266.418476 47.728922 
L 268.88651 46.310333 
L 270.120528 49.570135 
L 271.354545 46.180469 
L 272.588562 46.369367 
L 273.822579 46.869226 
L 275.056596 46.287858 
L 276.290613 46.754276 
L 277.524631 48.983006 
L 278.758648 52.709059 
L 279.992665 46.002727 
L 281.226682 45.920983 
L 282.460699 45.985177 
L 283.694717 52.158769 
L 284.928734 48.482539 
L 286.162751 46.214055 
L 287.396768 51.222523 
L 288.630785 46.062054 
L 289.864802 48.672339 
L 291.09882 48.477164 
L 292.332837 46.946067 
L 293.566854 49.442192 
L 294.800871 46.060965 
L 296.034888 46.30995 
L 297.268905 46.060498 
L 298.502923 49.242151 
L 299.73694 46.060827 
L 300.970957 53.38942 
L 302.204974 46.789595 
L 303.438991 47.317671 
L 304.673009 47.045642 
L 305.907026 49.426908 
L 307.141043 50.317653 
L 308.37506 49.572933 
L 309.609077 50.3311 
L 310.843094 46.955556 
L 312.077112 45.897815 
L 313.311129 46.910433 
L 314.545146 48.084704 
L 315.779163 46.399348 
L 317.01318 47.693799 
L 318.247197 48.63766 
L 319.481215 46.012411 
L 320.715232 50.967445 
L 321.949249 47.291825 
L 323.183266 45.862446 
L 324.417283 48.999806 
L 325.651301 47.617396 
L 326.885318 45.984167 
L 328.119335 45.962872 
L 329.353352 54.26686 
L 330.587369 46.185199 
L 331.821386 51.641813 
L 333.055404 46.631772 
L 334.289421 46.582089 
L 335.523438 47.266273 
L 336.757455 49.25556 
L 337.991472 49.338648 
L 339.22549 45.866031 
L 340.459507 46.83289 
L 341.693524 47.424217 
L 342.927541 46.642329 
L 344.161558 46.27288 
L 345.395575 46.502383 
L 346.629593 53.937199 
L 347.86361 48.943147 
L 349.097627 47.240705 
L 350.331644 46.282009 
L 351.565661 48.021044 
L 352.799678 49.490342 
L 354.033696 49.250056 
L 355.267713 51.268614 
L 356.50173 46.31999 
L 357.735747 53.486374 
L 358.969764 49.631951 
L 360.203782 48.737044 
L 361.437799 47.701897 
L 362.671816 45.823071 
L 363.905833 54.281538 
L 365.13985 45.916546 
L 366.373867 49.018427 
L 367.607885 47.825665 
L 368.841902 47.655021 
L 370.075919 45.871786 
L 371.309936 49.844312 
L 372.543953 45.727431 
L 373.777971 46.675369 
L 375.011988 49.332116 
L 376.246005 45.969332 
L 377.480022 50.016397 
L 378.714039 47.804259 
L 379.948056 46.863631 
L 381.182074 49.077965 
L 382.416091 46.724615 
L 383.650108 47.568761 
L 384.884125 47.855955 
L 386.118142 52.700351 
L 387.352159 45.915009 
L 388.586177 51.047668 
L 389.820194 45.983938 
L 391.054211 50.143046 
L 392.288228 47.007242 
L 393.522245 55.296259 
L 394.756263 51.826349 
L 395.99028 47.74145 
L 397.224297 50.157719 
L 398.458314 46.052083 
L 399.692331 51.828805 
L 400.926348 49.184921 
L 402.160366 45.941872 
L 402.160366 45.941872 
" clip-path="url(#p7497fd32ae)" style="fill: none; stroke: #d66b6a; stroke-width: 1.5; stroke-linecap: square"/>
   </g>
   <g id="line2d_28">
    <path d="M 94.890088 303.132215 
L 96.124105 321.855381 
L 97.358123 289.574348 
L 98.59214 301.238776 
L 99.826157 302.438067 
L 101.060174 305.959111 
L 102.294191 305.977016 
L 103.528209 305.208133 
L 104.762226 305.53678 
L 105.996243 306.085573 
L 107.23026 303.33724 
L 108.464277 304.737326 
L 109.698294 301.174024 
L 110.932312 291.165394 
L 112.166329 303.825361 
L 113.400346 293.877912 
L 114.634363 292.326439 
L 115.86838 300.478867 
L 117.102397 287.922344 
L 118.336415 296.948128 
L 120.804449 257.362838 
L 122.038466 240.82971 
L 123.272483 271.958787 
L 124.506501 293.339568 
L 125.740518 174.127557 
L 126.974535 301.267237 
L 128.208552 283.693796 
L 130.676586 154.599534 
L 131.910604 282.84758 
L 133.144621 206.925838 
L 134.378638 208.470696 
L 135.612655 262.148494 
L 136.846672 206.718915 
L 138.08069 250.285567 
L 139.314707 152.184336 
L 140.548724 218.42579 
L 141.782741 197.465878 
L 143.016758 240.567964 
L 144.250775 196.966241 
L 145.484793 228.661909 
L 146.71881 196.37737 
L 147.952827 174.980253 
L 149.186844 260.12645 
L 150.420861 194.81457 
L 151.654878 153.540413 
L 152.888896 184.592762 
L 154.122913 152.020946 
L 155.35693 219.745363 
L 156.590947 172.920842 
L 157.824964 216.311467 
L 159.058982 151.790872 
L 160.292999 141.752683 
L 161.527016 163.58693 
L 163.99505 252.872989 
L 165.229067 153.620652 
L 166.463085 151.97094 
L 168.931119 216.946062 
L 170.165136 142.209054 
L 171.399153 163.37026 
L 172.63317 164.489963 
L 173.867188 100.735164 
L 175.101205 174.448076 
L 176.335222 239.637928 
L 177.569239 178.5132 
L 178.803256 205.573455 
L 180.037274 152.4543 
L 181.271291 164.152264 
L 182.505308 126.923986 
L 183.739325 152.12288 
L 184.973342 120.189847 
L 186.207359 109.92966 
L 187.441377 165.394268 
L 188.675394 228.824911 
L 189.909411 186.443989 
L 191.143428 175.117961 
L 192.377445 218.807362 
L 193.611463 151.110222 
L 194.84548 152.157006 
L 196.079497 89.075769 
L 197.313514 130.862893 
L 198.547531 167.949455 
L 201.015566 118.870459 
L 202.249583 131.508531 
L 203.4836 175.12351 
L 204.717617 174.489102 
L 205.951634 175.32872 
L 207.185651 144.938024 
L 208.419669 97.579291 
L 209.653686 162.835425 
L 210.887703 154.324153 
L 212.12172 99.452379 
L 213.355737 162.683182 
L 214.589755 164.326012 
L 215.823772 195.927578 
L 217.057789 185.091911 
L 218.291806 100.057063 
L 219.525823 193.732605 
L 220.75984 152.943575 
L 221.993858 186.478211 
L 223.227875 89.708524 
L 224.461892 100.735774 
L 225.695909 154.119308 
L 226.929926 110.817926 
L 228.163944 112.023862 
L 229.397961 101.542831 
L 230.631978 104.56858 
L 231.865995 155.376642 
L 233.100012 100.890523 
L 234.334029 133.565992 
L 235.568047 79.495869 
L 236.802064 120.939016 
L 238.036081 197.177385 
L 239.270098 133.585368 
L 240.504115 46.925545 
L 241.738132 81.370346 
L 242.97215 123.220632 
L 244.206167 69.152144 
L 245.440184 162.254211 
L 246.674201 165.433446 
L 247.908218 78.312732 
L 249.142236 137.114051 
L 250.376253 110.272444 
L 251.61027 79.552667 
L 252.844287 82.198727 
L 254.078304 133.978674 
L 255.312321 143.443989 
L 256.546339 157.685246 
L 257.780356 100.81192 
L 259.014373 143.732715 
L 260.24839 104.379405 
L 261.482407 48.709669 
L 262.716424 99.694293 
L 263.950442 122.268846 
L 265.184459 165.600048 
L 266.418476 174.793571 
L 267.652493 59.12989 
L 268.88651 90.371795 
L 270.120528 102.897313 
L 271.354545 121.990771 
L 272.588562 120.643255 
L 273.822579 174.956727 
L 275.056596 137.320166 
L 276.290613 88.704255 
L 277.524631 58.203477 
L 278.758648 144.260223 
L 279.992665 90.058538 
L 281.226682 70.073077 
L 282.460699 89.848757 
L 283.694717 143.984565 
L 284.928734 46.972065 
L 286.162751 46.99793 
L 287.396768 102.374661 
L 288.630785 133.545831 
L 289.864802 102.973597 
L 291.09882 89.595432 
L 292.332837 121.261232 
L 293.566854 113.912365 
L 294.800871 99.570976 
L 296.034888 164.3166 
L 297.268905 112.792876 
L 298.502923 101.375026 
L 299.73694 122.169134 
L 300.970957 78.760275 
L 302.204974 121.727922 
L 303.438991 133.330468 
L 304.673009 131.73293 
L 305.907026 110.440646 
L 307.141043 46.782651 
L 308.37506 111.919583 
L 309.609077 107.418541 
L 310.843094 149.311019 
L 312.077112 108.637039 
L 313.311129 57.201055 
L 314.545146 132.54205 
L 315.779163 199.407427 
L 317.01318 121.326672 
L 318.247197 111.653531 
L 320.715232 68.019874 
L 321.949249 100.185824 
L 323.183266 165.413178 
L 324.417283 88.896017 
L 325.651301 88.763674 
L 326.885318 68.632979 
L 328.119335 100.510926 
L 329.353352 99.446279 
L 330.587369 90.171393 
L 331.821386 46.13485 
L 333.055404 120.90983 
L 334.289421 153.290372 
L 335.523438 120.349045 
L 336.757455 77.821706 
L 337.991472 100.378162 
L 339.22549 88.631232 
L 340.459507 89.271941 
L 341.693524 165.631444 
L 342.927541 73.280072 
L 344.161558 78.951793 
L 345.395575 100.661443 
L 346.629593 80.099119 
L 347.86361 100.030337 
L 349.097627 99.600022 
L 350.331644 99.453943 
L 351.565661 46.923672 
L 352.799678 111.004283 
L 354.033696 58.27029 
L 355.267713 68.727007 
L 356.50173 46.204185 
L 357.735747 90.206283 
L 358.969764 143.08719 
L 360.203782 121.897564 
L 361.437799 91.152561 
L 362.671816 121.327682 
L 363.905833 79.244595 
L 365.13985 46.771659 
L 366.373867 122.297794 
L 367.607885 90.079116 
L 368.841902 154.275396 
L 370.075919 67.240795 
L 371.309936 67.995978 
L 372.543953 46.671078 
L 373.777971 78.872698 
L 375.011988 99.575578 
L 376.246005 90.523207 
L 377.480022 78.204113 
L 378.714039 120.77808 
L 379.948056 100.194824 
L 381.182074 67.987532 
L 382.416091 46.991544 
L 383.650108 88.874075 
L 384.884125 67.722022 
L 386.118142 57.079259 
L 387.352159 67.45937 
L 388.586177 59.138928 
L 389.820194 100.373302 
L 391.054211 200.253213 
L 392.288228 56.673368 
L 393.522245 67.407562 
L 394.756263 89.8467 
L 395.99028 79.782035 
L 397.224297 68.55111 
L 398.458314 67.616728 
L 399.692331 46.193148 
L 400.926348 88.762577 
L 402.160366 110.162643 
L 402.160366 110.162643 
" clip-path="url(#p7497fd32ae)" style="fill: none; stroke: #5591e1; stroke-width: 1.5; stroke-linecap: square"/>
   </g>
   <g id="line2d_29">
    <path d="M 94.890088 287.412521 
L 96.124105 334.357247 
L 97.358123 279.012496 
L 98.59214 217.202422 
L 99.826157 229.241955 
L 101.060174 212.143503 
L 102.294191 226.254322 
L 103.528209 216.580142 
L 104.762226 203.07459 
L 105.996243 190.833107 
L 107.23026 200.203898 
L 108.464277 203.783608 
L 109.698294 194.90204 
L 110.932312 210.713807 
L 112.166329 198.787001 
L 113.400346 196.547672 
L 114.634363 193.757847 
L 115.86838 203.496278 
L 117.102397 195.991678 
L 118.336415 196.491337 
L 119.570432 199.918999 
L 120.804449 201.256444 
L 122.038466 184.106584 
L 123.272483 191.844883 
L 124.506501 179.339031 
L 125.740518 180.538536 
L 126.974535 179.218851 
L 128.208552 167.815458 
L 129.442569 183.636624 
L 130.676586 172.990074 
L 131.910604 170.887647 
L 133.144621 171.838731 
L 134.378638 176.494096 
L 135.612655 155.09848 
L 136.846672 154.271786 
L 138.08069 167.982888 
L 139.314707 139.59504 
L 140.548724 136.924705 
L 141.782741 134.659645 
L 143.016758 99.520047 
L 144.250775 102.501962 
L 145.484793 96.775681 
L 146.71881 98.807229 
L 147.952827 87.294486 
L 149.186844 91.000437 
L 150.420861 93.68208 
L 151.654878 98.615216 
L 152.888896 93.547423 
L 154.122913 90.462587 
L 155.35693 99.896676 
L 156.590947 83.42409 
L 157.824964 94.51687 
L 159.058982 93.630537 
L 160.292999 91.128285 
L 161.527016 87.938466 
L 162.761033 87.271671 
L 163.99505 89.399074 
L 165.229067 88.867106 
L 166.463085 86.830908 
L 167.697102 81.917499 
L 168.931119 79.943881 
L 170.165136 82.518613 
L 171.399153 78.475076 
L 172.63317 86.549263 
L 173.867188 86.90218 
L 175.101205 82.634164 
L 176.335222 87.052921 
L 177.569239 78.240798 
L 178.803256 82.931836 
L 180.037274 82.384676 
L 181.271291 78.965245 
L 182.505308 59.52955 
L 183.739325 66.955958 
L 184.973342 56.575063 
L 186.207359 58.291889 
L 187.441377 53.839449 
L 188.675394 60.228211 
L 189.909411 61.265342 
L 191.143428 57.652492 
L 192.377445 56.076971 
L 193.611463 52.736898 
L 194.84548 62.04575 
L 196.079497 54.62265 
L 197.313514 60.780637 
L 198.547531 60.143388 
L 199.781548 56.504647 
L 201.015566 53.226454 
L 202.249583 55.105429 
L 203.4836 56.11626 
L 204.717617 54.579266 
L 205.951634 53.797395 
L 207.185651 54.838038 
L 208.419669 55.156864 
L 209.653686 53.648596 
L 210.887703 55.070599 
L 212.12172 57.10861 
L 213.355737 47.197575 
L 214.589755 49.917125 
L 215.823772 46.191644 
L 217.057789 52.39172 
L 218.291806 57.216226 
L 219.525823 50.344495 
L 220.75984 47.837763 
L 221.993858 47.334889 
L 223.227875 44.098806 
L 224.461892 49.574118 
L 225.695909 48.904853 
L 226.929926 48.948587 
L 228.163944 51.25747 
L 229.397961 48.990462 
L 230.631978 53.251702 
L 231.865995 49.340602 
L 233.100012 48.48735 
L 234.334029 55.500989 
L 235.568047 49.422649 
L 236.802064 47.307499 
L 238.036081 46.231598 
L 239.270098 52.89078 
L 240.504115 48.312132 
L 241.738132 57.333939 
L 242.97215 53.043544 
L 244.206167 53.335049 
L 245.440184 49.882953 
L 246.674201 47.246367 
L 247.908218 53.130122 
L 249.142236 49.664483 
L 250.376253 51.300836 
L 251.61027 47.231253 
L 252.844287 49.984211 
L 254.078304 48.586572 
L 255.312321 51.886351 
L 256.546339 53.213469 
L 257.780356 46.841638 
L 259.014373 51.437285 
L 260.24839 54.281936 
L 261.482407 48.354955 
L 262.716424 49.618563 
L 263.950442 48.314209 
L 265.184459 48.354492 
L 266.418476 55.076298 
L 267.652493 50.025736 
L 268.88651 49.160394 
L 270.120528 51.132191 
L 271.354545 46.063802 
L 272.588562 48.003615 
L 273.822579 51.533574 
L 275.056596 46.474482 
L 276.290613 49.1645 
L 277.524631 50.209762 
L 278.758648 47.297946 
L 279.992665 46.730921 
L 282.460699 54.281186 
L 283.694717 51.142512 
L 286.162751 46.921303 
L 287.396768 49.010899 
L 288.630785 55.176089 
L 289.864802 46.843831 
L 291.09882 46.228706 
L 292.332837 51.834841 
L 293.566854 46.600911 
L 294.800871 47.513843 
L 296.034888 47.214371 
L 297.268905 46.177959 
L 298.502923 52.005979 
L 299.73694 47.604116 
L 300.970957 46.690873 
L 302.204974 47.329898 
L 303.438991 46.104994 
L 304.673009 48.08298 
L 305.907026 46.45002 
L 307.141043 46.562494 
L 308.37506 48.944556 
L 309.609077 46.587828 
L 310.843094 51.38164 
L 312.077112 48.594672 
L 313.311129 48.995076 
L 314.545146 46.626811 
L 315.779163 49.1706 
L 317.01318 48.092586 
L 318.247197 49.706878 
L 319.481215 47.324187 
L 320.715232 49.363461 
L 321.949249 46.618432 
L 323.183266 46.176196 
L 324.417283 50.348204 
L 325.651301 47.207259 
L 326.885318 45.804784 
L 328.119335 52.594332 
L 329.353352 48.25854 
L 330.587369 48.999458 
L 331.821386 52.59573 
L 333.055404 46.219408 
L 334.289421 48.255934 
L 335.523438 51.95537 
L 336.757455 47.627497 
L 337.991472 52.543419 
L 339.22549 52.290045 
L 340.459507 51.287886 
L 341.693524 49.467753 
L 342.927541 49.412407 
L 344.161558 49.769943 
L 345.395575 46.266882 
L 346.629593 46.123736 
L 347.86361 58.14201 
L 349.097627 50.584624 
L 350.331644 46.774441 
L 351.565661 47.378993 
L 352.799678 49.427349 
L 354.033696 46.228392 
L 355.267713 49.999305 
L 356.50173 46.732085 
L 357.735747 51.867047 
L 358.969764 53.507303 
L 360.203782 49.484784 
L 361.437799 48.474508 
L 362.671816 48.893344 
L 363.905833 52.285071 
L 365.13985 49.186775 
L 366.373867 46.697808 
L 367.607885 51.677985 
L 368.841902 47.082236 
L 370.075919 51.926447 
L 371.309936 47.801179 
L 372.543953 48.232146 
L 373.777971 46.307157 
L 375.011988 54.278343 
L 376.246005 50.737043 
L 377.480022 46.273324 
L 378.714039 50.086393 
L 379.948056 53.448639 
L 382.416091 48.577927 
L 383.650108 47.074768 
L 384.884125 53.44162 
L 386.118142 51.142894 
L 387.352159 46.50808 
L 388.586177 52.490976 
L 389.820194 46.387838 
L 391.054211 48.776499 
L 392.288228 48.668839 
L 393.522245 47.352474 
L 394.756263 46.206892 
L 395.99028 46.058854 
L 397.224297 46.085923 
L 398.458314 47.973971 
L 399.692331 47.393093 
L 400.926348 52.152115 
L 402.160366 47.938196 
L 402.160366 47.938196 
" clip-path="url(#p7497fd32ae)" style="fill: none; stroke: #6ca247; stroke-width: 1.5; stroke-linecap: square"/>
   </g>
   <g id="patch_3">
    <path d="M 79.526574 376.318305 
L 79.526574 7.2 
" style="fill: none; stroke: #000000; stroke-width: 0.8; stroke-linejoin: miter; stroke-linecap: square"/>
   </g>
   <g id="patch_4">
    <path d="M 417.523879 376.318305 
L 417.523879 7.2 
" style="fill: none; stroke: #000000; stroke-width: 0.8; stroke-linejoin: miter; stroke-linecap: square"/>
   </g>
   <g id="patch_5">
    <path d="M 79.526574 376.318305 
L 417.523879 376.318305 
" style="fill: none; stroke: #000000; stroke-width: 0.8; stroke-linejoin: miter; stroke-linecap: square"/>
   </g>
   <g id="patch_6">
    <path d="M 79.526574 7.2 
L 417.523879 7.2 
" style="fill: none; stroke: #000000; stroke-width: 0.8; stroke-linejoin: miter; stroke-linecap: square"/>
   </g>
   <g id="legend_1">
    <g id="patch_7">
     <path d="M 308.417969 368.318305 
L 406.323879 368.318305 
Q 409.523879 368.318305 409.523879 365.118305 
L 409.523879 299.819877 
Q 409.523879 296.619877 406.323879 296.619877 
L 308.417969 296.619877 
Q 305.217969 296.619877 305.217969 299.819877 
L 305.217969 365.118305 
Q 305.217969 368.318305 308.417969 368.318305 
z
" style="fill: #ffffff; opacity: 0.8; stroke: #cccccc; stroke-linejoin: miter"/>
    </g>
    <g id="line2d_30">
     <path d="M 311.617969 308.619877 
L 327.617969 308.619877 
L 343.617969 308.619877 
" style="fill: none; stroke: #d66b6a; stroke-width: 1.5; stroke-linecap: square"/>
    </g>
    <g id="text_16">
     <!-- SAC -->
     <g transform="translate(356.417969 314.219877) scale(0.16 -0.16)">
      <defs>
       <path id="CMR17-41" d="M 2323 4441 
C 2291 4524 2278 4544 2214 4544 
C 2150 4544 2138 4524 2106 4441 
L 749 580 
C 627 236 371 166 147 166 
L 147 0 
C 262 12 518 12 640 12 
C 800 12 1056 12 1210 0 
L 1210 166 
C 909 179 864 382 864 459 
C 864 516 877 548 890 586 
L 1229 1536 
L 2906 1536 
L 3290 453 
C 3322 376 3322 363 3322 338 
C 3322 166 3046 166 2925 166 
L 2925 0 
C 3110 12 3443 12 3642 12 
C 3808 12 4128 12 4282 0 
L 4282 166 
C 3942 166 3827 166 3744 402 
L 2323 4441 
z
M 2067 3924 
L 2848 1702 
L 1286 1702 
L 2067 3924 
z
" transform="scale(0.015625)"/>
       <path id="CMR17-43" d="M 3974 4351 
C 3974 4467 3968 4473 3930 4473 
C 3904 4473 3898 4467 3853 4390 
L 3571 3849 
C 3258 4249 2874 4480 2381 4480 
C 1286 4480 294 3507 294 2179 
C 294 837 1286 -128 2387 -128 
C 3366 -128 3974 741 3974 1482 
C 3974 1547 3974 1573 3917 1573 
C 3866 1573 3866 1553 3859 1495 
C 3808 592 3168 38 2477 38 
C 1824 38 781 502 781 2179 
C 781 3862 1843 4313 2464 4313 
C 3187 4313 3712 3681 3834 2785 
C 3846 2707 3846 2695 3904 2695 
C 3974 2695 3974 2707 3974 2824 
L 3974 4351 
z
" transform="scale(0.015625)"/>
      </defs>
      <use xlink:href="#CMR17-53" transform="scale(0.996264)"/>
      <use xlink:href="#CMR17-41" transform="translate(50.89537 0) scale(0.996264)"/>
      <use xlink:href="#CMR17-43" transform="translate(117.365346 0) scale(0.996264)"/>
     </g>
    </g>
    <g id="line2d_31">
     <path d="M 311.617969 330.919353 
L 327.617969 330.919353 
L 343.617969 330.919353 
" style="fill: none; stroke: #5591e1; stroke-width: 1.5; stroke-linecap: square"/>
    </g>
    <g id="text_17">
     <!-- AFU -->
     <g transform="translate(356.417969 336.519353) scale(0.16 -0.16)">
      <defs>
       <path id="CMR17-46" d="M 3482 4339 
L 326 4339 
L 326 4172 
C 768 4172 838 4172 838 3883 
L 838 450 
C 838 166 768 166 326 166 
L 326 0 
C 512 12 870 12 1069 12 
C 1331 12 1638 12 1901 0 
L 1901 166 
L 1760 166 
C 1274 166 1261 229 1261 456 
L 1261 2073 
L 1837 2073 
C 2432 2073 2490 1865 2490 1334 
L 2605 1334 
L 2605 2991 
L 2490 2991 
C 2490 2451 2432 2240 1837 2240 
L 1261 2240 
L 1261 3922 
C 1261 4140 1274 4172 1530 4172 
L 2355 4172 
C 3322 4172 3430 3774 3520 2920 
L 3635 2920 
L 3482 4339 
z
" transform="scale(0.015625)"/>
       <path id="CMR17-55" d="M 3456 1442 
C 3456 583 2899 38 2291 38 
C 1965 38 1670 211 1491 480 
C 1286 788 1261 1185 1261 1410 
L 1261 3897 
C 1261 4185 1331 4185 1773 4185 
L 1773 4352 
C 1587 4339 1248 4339 1050 4339 
C 851 4339 512 4339 326 4352 
L 326 4185 
C 768 4185 838 4185 838 3897 
L 838 1442 
C 838 519 1536 -128 2278 -128 
C 3110 -128 3590 724 3590 1352 
L 3590 3788 
C 3590 4147 3917 4185 4102 4185 
L 4102 4352 
C 3955 4339 3686 4339 3526 4339 
C 3366 4339 3091 4339 2944 4352 
L 2944 4185 
C 3456 4185 3456 3884 3456 3724 
L 3456 1442 
z
" transform="scale(0.015625)"/>
      </defs>
      <use xlink:href="#CMR17-41" transform="scale(0.996264)"/>
      <use xlink:href="#CMR17-46" transform="translate(69.07243 0) scale(0.996264)"/>
      <use xlink:href="#CMR17-55" transform="translate(129.056276 0) scale(0.996264)"/>
     </g>
    </g>
    <g id="line2d_32">
     <path d="M 311.617969 353.218829 
L 327.617969 353.218829 
L 343.617969 353.218829 
" style="fill: none; stroke: #6ca247; stroke-width: 1.5; stroke-linecap: square"/>
    </g>
    <g id="text_18">
     <!-- DDPG -->
     <g transform="translate(356.417969 358.818829) scale(0.16 -0.16)">
      <defs>
       <path id="CMR17-44" d="M 333 4352 
L 333 4185 
C 774 4185 845 4185 845 3898 
L 845 453 
C 845 166 774 166 333 166 
L 333 0 
L 2368 0 
C 3398 0 4224 943 4224 2140 
C 4224 3344 3411 4352 2368 4352 
L 333 4352 
z
M 1523 166 
C 1267 166 1254 198 1254 414 
L 1254 3936 
C 1254 4153 1267 4185 1523 4185 
L 2240 4185 
C 2771 4185 3750 3873 3750 2140 
C 3750 1242 3488 879 3366 707 
C 3213 510 2848 166 2240 166 
L 1523 166 
z
" transform="scale(0.015625)"/>
       <path id="CMR17-50" d="M 1267 2048 
L 2291 2048 
C 3117 2048 3718 2583 3718 3187 
C 3718 3791 3130 4352 2291 4352 
L 333 4352 
L 333 4185 
C 774 4185 845 4185 845 3899 
L 845 453 
C 845 166 774 166 333 166 
L 333 0 
C 518 12 858 12 1056 12 
C 1254 12 1594 12 1779 0 
L 1779 166 
C 1338 166 1267 166 1267 453 
L 1267 2048 
z
M 1254 2182 
L 1254 3937 
C 1254 4153 1267 4185 1523 4185 
L 2170 4185 
C 2995 4185 3232 3715 3232 3187 
C 3232 2608 2950 2182 2170 2182 
L 1254 2182 
z
" transform="scale(0.015625)"/>
       <path id="CMR17-47" d="M 3974 1258 
C 3974 1503 3994 1536 4390 1536 
L 4390 1702 
C 4237 1689 3891 1689 3718 1689 
C 3539 1689 3040 1696 2797 1702 
L 2797 1536 
L 2989 1536 
C 3539 1536 3552 1464 3552 1232 
L 3552 806 
C 3552 96 2720 38 2522 38 
C 1862 38 781 496 781 2179 
C 781 3862 1843 4313 2464 4313 
C 3187 4313 3712 3681 3834 2785 
C 3846 2708 3846 2695 3904 2695 
C 3974 2695 3974 2708 3974 2824 
L 3974 4351 
C 3974 4467 3968 4473 3930 4473 
C 3904 4473 3898 4467 3853 4390 
L 3571 3849 
C 3258 4249 2874 4480 2381 4480 
C 1286 4480 294 3507 294 2179 
C 294 858 1267 -128 2394 -128 
C 2912 -128 3418 57 3616 425 
C 3725 161 3904 -20 3936 -20 
C 3968 -20 3974 -13 3974 102 
L 3974 1258 
z
" transform="scale(0.015625)"/>
      </defs>
      <use xlink:href="#CMR17-44" transform="scale(0.996264)"/>
      <use xlink:href="#CMR17-44" transform="translate(70.393556 0) scale(0.996264)"/>
      <use xlink:href="#CMR17-50" transform="translate(140.787112 0) scale(0.996264)"/>
      <use xlink:href="#CMR17-47" transform="translate(203.373412 0) scale(0.996264)"/>
     </g>
    </g>
   </g>
  </g>
 </g>
 <defs>
  <clipPath id="p7497fd32ae">
   <rect x="79.526574" y="7.2" width="337.997305" height="369.118305"/>
  </clipPath>
 </defs>
</svg>
